M48
; DRILL file {KiCad (5.1.12)-1} date 12/16/21 18:12:17
; FORMAT={-:-/ absolute / metric / decimal}
; #@! TF.CreationDate,2021-12-16T18:12:17+01:00
; #@! TF.GenerationSoftware,Kicad,Pcbnew,(5.1.12)-1
; #@! TF.FileFunction,Plated,1,2,PTH
FMAT,2
METRIC
T1C0.400
T2C0.500
T3C0.800
T4C1.270
T5C1.500
T6C1.524
T7C1.700
T8C3.200
%
G90
G05
T1
X105.204Y-78.433
X105.23Y-74.369
X113.459Y-74.85
X113.459Y-75.85
X113.459Y-76.858
X113.459Y-77.874
X116.355Y-75.893
X120.038Y-63.193
X123.162Y-68.628
X125.778Y-66.545
X129.726Y-69.763
X130.031Y-82.655
X130.066Y-67.25
X130.066Y-84.015
X130.1Y-79.55
X130.123Y-72.745
X130.427Y-75.69
X131.257Y-71.82
X131.409Y-80.324
X131.65Y-76.8
X132.19Y-70.692
X132.66Y-82.654
X132.666Y-67.25
X132.666Y-68.873
X132.666Y-84.017
X133.027Y-80.514
X133.121Y-74.645
X133.19Y-77.525
T2
X100.696Y-63.472
X100.696Y-89.278
X101.399Y-61.775
X101.399Y-65.169
X101.399Y-87.581
X101.399Y-90.975
X103.096Y-61.072
X103.096Y-65.872
X103.096Y-86.878
X103.096Y-91.678
X104.793Y-61.775
X104.793Y-65.169
X104.793Y-87.581
X104.793Y-90.975
X105.496Y-63.472
X105.496Y-89.278
T3
X99.718Y-76.426
X109.7Y-86.84
X109.7Y-91.92
X114.018Y-71.727
X117.32Y-86.84
X117.32Y-91.92
X124.94Y-86.84
X124.94Y-91.92
X140.18Y-61.44
X140.18Y-89.38
T4
X113.993Y-63.193
T5
X131.366Y-62.38
X131.366Y-89.47
X138.343Y-71.663
X138.343Y-80.68
T6
X110.818Y-60.018
X110.818Y-66.368
X117.168Y-60.018
X117.168Y-66.368
T7
X128.826Y-59.84
X128.826Y-64.92
X128.826Y-86.93
X128.826Y-92.01
X133.906Y-59.84
X133.906Y-64.92
X133.906Y-86.93
X133.906Y-92.01
X135.803Y-69.123
X135.803Y-74.203
X135.803Y-78.14
X135.803Y-83.22
X140.883Y-69.123
X140.883Y-74.203
X140.883Y-78.14
X140.883Y-83.22
T8
X103.096Y-63.472
X103.096Y-89.278
T0
M30
