%FSLAX45Y45*%
G04 Gerber Fmt 4.5, Leading zero omitted, Abs format (unit mm)*
G04 Created by KiCad (PCBNEW (5.1.12)-1) date 2021-12-16 18:12:19*
%MOMM*%
%LPD*%
G01*
G04 APERTURE LIST*
%TA.AperFunction,Profile*%
%ADD10C,0.050000*%
%TD*%
%ADD11C,0.200000*%
%ADD12C,0.300000*%
G04 APERTURE END LIST*
D10*
X9700000Y-9700000D02*
X9700000Y-5600000D01*
X14700000Y-9700000D02*
X9700000Y-9700000D01*
X14700000Y-5600000D02*
X14700000Y-9700000D01*
X9700000Y-5600000D02*
X14700000Y-5600000D01*
D11*
X11018982Y-7345050D02*
X11098982Y-7425050D01*
X11098982Y-7345050D02*
X11018982Y-7425050D01*
X11018982Y-7850790D02*
X11098982Y-7930790D01*
X11098982Y-7850790D02*
X11018982Y-7930790D01*
D12*
X9983928Y-10168214D02*
X9983928Y-9868214D01*
X10055357Y-9868214D01*
X10098214Y-9882500D01*
X10126786Y-9911072D01*
X10141071Y-9939643D01*
X10155357Y-9996786D01*
X10155357Y-10039643D01*
X10141071Y-10096786D01*
X10126786Y-10125357D01*
X10098214Y-10153929D01*
X10055357Y-10168214D01*
X9983928Y-10168214D01*
X10283928Y-10168214D02*
X10283928Y-9968214D01*
X10283928Y-10025357D02*
X10298214Y-9996786D01*
X10312500Y-9982500D01*
X10341071Y-9968214D01*
X10369643Y-9968214D01*
X10469643Y-10168214D02*
X10469643Y-9968214D01*
X10469643Y-9868214D02*
X10455357Y-9882500D01*
X10469643Y-9896786D01*
X10483928Y-9882500D01*
X10469643Y-9868214D01*
X10469643Y-9896786D01*
X10655357Y-10168214D02*
X10626786Y-10153929D01*
X10612500Y-10125357D01*
X10612500Y-9868214D01*
X10812500Y-10168214D02*
X10783928Y-10153929D01*
X10769643Y-10125357D01*
X10769643Y-9868214D01*
X11155357Y-10168214D02*
X11155357Y-9868214D01*
X11255357Y-10082500D01*
X11355357Y-9868214D01*
X11355357Y-10168214D01*
X11626786Y-10168214D02*
X11626786Y-10011072D01*
X11612500Y-9982500D01*
X11583928Y-9968214D01*
X11526786Y-9968214D01*
X11498214Y-9982500D01*
X11626786Y-10153929D02*
X11598214Y-10168214D01*
X11526786Y-10168214D01*
X11498214Y-10153929D01*
X11483928Y-10125357D01*
X11483928Y-10096786D01*
X11498214Y-10068214D01*
X11526786Y-10053929D01*
X11598214Y-10053929D01*
X11626786Y-10039643D01*
X11769643Y-9968214D02*
X11769643Y-10268214D01*
X11769643Y-9982500D02*
X11798214Y-9968214D01*
X11855357Y-9968214D01*
X11883928Y-9982500D01*
X11898214Y-9996786D01*
X11912500Y-10025357D01*
X11912500Y-10111072D01*
X11898214Y-10139643D01*
X11883928Y-10153929D01*
X11855357Y-10168214D01*
X11798214Y-10168214D01*
X11769643Y-10153929D01*
X12041071Y-10139643D02*
X12055357Y-10153929D01*
X12041071Y-10168214D01*
X12026786Y-10153929D01*
X12041071Y-10139643D01*
X12041071Y-10168214D01*
X12041071Y-9982500D02*
X12055357Y-9996786D01*
X12041071Y-10011072D01*
X12026786Y-9996786D01*
X12041071Y-9982500D01*
X12041071Y-10011072D01*
X9617500Y-10622500D02*
X9697500Y-10702500D01*
X9697500Y-10622500D02*
X9617500Y-10702500D01*
X10041071Y-10498214D02*
X10069643Y-10498214D01*
X10098214Y-10512500D01*
X10112500Y-10526786D01*
X10126786Y-10555357D01*
X10141071Y-10612500D01*
X10141071Y-10683929D01*
X10126786Y-10741072D01*
X10112500Y-10769643D01*
X10098214Y-10783929D01*
X10069643Y-10798214D01*
X10041071Y-10798214D01*
X10012500Y-10783929D01*
X9998214Y-10769643D01*
X9983928Y-10741072D01*
X9969643Y-10683929D01*
X9969643Y-10612500D01*
X9983928Y-10555357D01*
X9998214Y-10526786D01*
X10012500Y-10512500D01*
X10041071Y-10498214D01*
X10269643Y-10769643D02*
X10283928Y-10783929D01*
X10269643Y-10798214D01*
X10255357Y-10783929D01*
X10269643Y-10769643D01*
X10269643Y-10798214D01*
X10455357Y-10626786D02*
X10426786Y-10612500D01*
X10412500Y-10598214D01*
X10398214Y-10569643D01*
X10398214Y-10555357D01*
X10412500Y-10526786D01*
X10426786Y-10512500D01*
X10455357Y-10498214D01*
X10512500Y-10498214D01*
X10541071Y-10512500D01*
X10555357Y-10526786D01*
X10569643Y-10555357D01*
X10569643Y-10569643D01*
X10555357Y-10598214D01*
X10541071Y-10612500D01*
X10512500Y-10626786D01*
X10455357Y-10626786D01*
X10426786Y-10641072D01*
X10412500Y-10655357D01*
X10398214Y-10683929D01*
X10398214Y-10741072D01*
X10412500Y-10769643D01*
X10426786Y-10783929D01*
X10455357Y-10798214D01*
X10512500Y-10798214D01*
X10541071Y-10783929D01*
X10555357Y-10769643D01*
X10569643Y-10741072D01*
X10569643Y-10683929D01*
X10555357Y-10655357D01*
X10541071Y-10641072D01*
X10512500Y-10626786D01*
X10755357Y-10498214D02*
X10783928Y-10498214D01*
X10812500Y-10512500D01*
X10826786Y-10526786D01*
X10841071Y-10555357D01*
X10855357Y-10612500D01*
X10855357Y-10683929D01*
X10841071Y-10741072D01*
X10826786Y-10769643D01*
X10812500Y-10783929D01*
X10783928Y-10798214D01*
X10755357Y-10798214D01*
X10726786Y-10783929D01*
X10712500Y-10769643D01*
X10698214Y-10741072D01*
X10683928Y-10683929D01*
X10683928Y-10612500D01*
X10698214Y-10555357D01*
X10712500Y-10526786D01*
X10726786Y-10512500D01*
X10755357Y-10498214D01*
X11041071Y-10498214D02*
X11069643Y-10498214D01*
X11098214Y-10512500D01*
X11112500Y-10526786D01*
X11126786Y-10555357D01*
X11141071Y-10612500D01*
X11141071Y-10683929D01*
X11126786Y-10741072D01*
X11112500Y-10769643D01*
X11098214Y-10783929D01*
X11069643Y-10798214D01*
X11041071Y-10798214D01*
X11012500Y-10783929D01*
X10998214Y-10769643D01*
X10983928Y-10741072D01*
X10969643Y-10683929D01*
X10969643Y-10612500D01*
X10983928Y-10555357D01*
X10998214Y-10526786D01*
X11012500Y-10512500D01*
X11041071Y-10498214D01*
X11269643Y-10798214D02*
X11269643Y-10598214D01*
X11269643Y-10626786D02*
X11283928Y-10612500D01*
X11312500Y-10598214D01*
X11355357Y-10598214D01*
X11383928Y-10612500D01*
X11398214Y-10641072D01*
X11398214Y-10798214D01*
X11398214Y-10641072D02*
X11412500Y-10612500D01*
X11441071Y-10598214D01*
X11483928Y-10598214D01*
X11512500Y-10612500D01*
X11526786Y-10641072D01*
X11526786Y-10798214D01*
X11669643Y-10798214D02*
X11669643Y-10598214D01*
X11669643Y-10626786D02*
X11683928Y-10612500D01*
X11712500Y-10598214D01*
X11755357Y-10598214D01*
X11783928Y-10612500D01*
X11798214Y-10641072D01*
X11798214Y-10798214D01*
X11798214Y-10641072D02*
X11812500Y-10612500D01*
X11841071Y-10598214D01*
X11883928Y-10598214D01*
X11912500Y-10612500D01*
X11926786Y-10641072D01*
X11926786Y-10798214D01*
X12512500Y-10483929D02*
X12255357Y-10869643D01*
X12898214Y-10498214D02*
X12926786Y-10498214D01*
X12955357Y-10512500D01*
X12969643Y-10526786D01*
X12983928Y-10555357D01*
X12998214Y-10612500D01*
X12998214Y-10683929D01*
X12983928Y-10741072D01*
X12969643Y-10769643D01*
X12955357Y-10783929D01*
X12926786Y-10798214D01*
X12898214Y-10798214D01*
X12869643Y-10783929D01*
X12855357Y-10769643D01*
X12841071Y-10741072D01*
X12826786Y-10683929D01*
X12826786Y-10612500D01*
X12841071Y-10555357D01*
X12855357Y-10526786D01*
X12869643Y-10512500D01*
X12898214Y-10498214D01*
X13126786Y-10769643D02*
X13141071Y-10783929D01*
X13126786Y-10798214D01*
X13112500Y-10783929D01*
X13126786Y-10769643D01*
X13126786Y-10798214D01*
X13326786Y-10498214D02*
X13355357Y-10498214D01*
X13383928Y-10512500D01*
X13398214Y-10526786D01*
X13412500Y-10555357D01*
X13426786Y-10612500D01*
X13426786Y-10683929D01*
X13412500Y-10741072D01*
X13398214Y-10769643D01*
X13383928Y-10783929D01*
X13355357Y-10798214D01*
X13326786Y-10798214D01*
X13298214Y-10783929D01*
X13283928Y-10769643D01*
X13269643Y-10741072D01*
X13255357Y-10683929D01*
X13255357Y-10612500D01*
X13269643Y-10555357D01*
X13283928Y-10526786D01*
X13298214Y-10512500D01*
X13326786Y-10498214D01*
X13526786Y-10498214D02*
X13712500Y-10498214D01*
X13612500Y-10612500D01*
X13655357Y-10612500D01*
X13683928Y-10626786D01*
X13698214Y-10641072D01*
X13712500Y-10669643D01*
X13712500Y-10741072D01*
X13698214Y-10769643D01*
X13683928Y-10783929D01*
X13655357Y-10798214D01*
X13569643Y-10798214D01*
X13541071Y-10783929D01*
X13526786Y-10769643D01*
X13998214Y-10798214D02*
X13826786Y-10798214D01*
X13912500Y-10798214D02*
X13912500Y-10498214D01*
X13883928Y-10541072D01*
X13855357Y-10569643D01*
X13826786Y-10583929D01*
X14269643Y-10498214D02*
X14126786Y-10498214D01*
X14112500Y-10641072D01*
X14126786Y-10626786D01*
X14155357Y-10612500D01*
X14226786Y-10612500D01*
X14255357Y-10626786D01*
X14269643Y-10641072D01*
X14283928Y-10669643D01*
X14283928Y-10741072D01*
X14269643Y-10769643D01*
X14255357Y-10783929D01*
X14226786Y-10798214D01*
X14155357Y-10798214D01*
X14126786Y-10783929D01*
X14112500Y-10769643D01*
X14398214Y-10498214D02*
X14398214Y-10555357D01*
X14512500Y-10498214D02*
X14512500Y-10555357D01*
X14955357Y-10912500D02*
X14941071Y-10898214D01*
X14912500Y-10855357D01*
X14898214Y-10826786D01*
X14883928Y-10783929D01*
X14869643Y-10712500D01*
X14869643Y-10655357D01*
X14883928Y-10583929D01*
X14898214Y-10541072D01*
X14912500Y-10512500D01*
X14941071Y-10469643D01*
X14955357Y-10455357D01*
X15055357Y-10526786D02*
X15069643Y-10512500D01*
X15098214Y-10498214D01*
X15169643Y-10498214D01*
X15198214Y-10512500D01*
X15212500Y-10526786D01*
X15226786Y-10555357D01*
X15226786Y-10583929D01*
X15212500Y-10626786D01*
X15041071Y-10798214D01*
X15226786Y-10798214D01*
X15583928Y-10798214D02*
X15583928Y-10498214D01*
X15712500Y-10798214D02*
X15712500Y-10641072D01*
X15698214Y-10612500D01*
X15669643Y-10598214D01*
X15626786Y-10598214D01*
X15598214Y-10612500D01*
X15583928Y-10626786D01*
X15898214Y-10798214D02*
X15869643Y-10783929D01*
X15855357Y-10769643D01*
X15841071Y-10741072D01*
X15841071Y-10655357D01*
X15855357Y-10626786D01*
X15869643Y-10612500D01*
X15898214Y-10598214D01*
X15941071Y-10598214D01*
X15969643Y-10612500D01*
X15983928Y-10626786D01*
X15998214Y-10655357D01*
X15998214Y-10741072D01*
X15983928Y-10769643D01*
X15969643Y-10783929D01*
X15941071Y-10798214D01*
X15898214Y-10798214D01*
X16169643Y-10798214D02*
X16141071Y-10783929D01*
X16126786Y-10755357D01*
X16126786Y-10498214D01*
X16398214Y-10783929D02*
X16369643Y-10798214D01*
X16312500Y-10798214D01*
X16283928Y-10783929D01*
X16269643Y-10755357D01*
X16269643Y-10641072D01*
X16283928Y-10612500D01*
X16312500Y-10598214D01*
X16369643Y-10598214D01*
X16398214Y-10612500D01*
X16412500Y-10641072D01*
X16412500Y-10669643D01*
X16269643Y-10698214D01*
X16526786Y-10783929D02*
X16555357Y-10798214D01*
X16612500Y-10798214D01*
X16641071Y-10783929D01*
X16655357Y-10755357D01*
X16655357Y-10741072D01*
X16641071Y-10712500D01*
X16612500Y-10698214D01*
X16569643Y-10698214D01*
X16541071Y-10683929D01*
X16526786Y-10655357D01*
X16526786Y-10641072D01*
X16541071Y-10612500D01*
X16569643Y-10598214D01*
X16612500Y-10598214D01*
X16641071Y-10612500D01*
X16755357Y-10912500D02*
X16769643Y-10898214D01*
X16798214Y-10855357D01*
X16812500Y-10826786D01*
X16826786Y-10783929D01*
X16841071Y-10712500D01*
X16841071Y-10655357D01*
X16826786Y-10583929D01*
X16812500Y-10541072D01*
X16798214Y-10512500D01*
X16769643Y-10469643D01*
X16755357Y-10455357D01*
X17298214Y-10912500D02*
X17283928Y-10898214D01*
X17255357Y-10855357D01*
X17241071Y-10826786D01*
X17226786Y-10783929D01*
X17212500Y-10712500D01*
X17212500Y-10655357D01*
X17226786Y-10583929D01*
X17241071Y-10541072D01*
X17255357Y-10512500D01*
X17283928Y-10469643D01*
X17298214Y-10455357D01*
X17412500Y-10598214D02*
X17412500Y-10798214D01*
X17412500Y-10626786D02*
X17426786Y-10612500D01*
X17455357Y-10598214D01*
X17498214Y-10598214D01*
X17526786Y-10612500D01*
X17541071Y-10641072D01*
X17541071Y-10798214D01*
X17726786Y-10798214D02*
X17698214Y-10783929D01*
X17683928Y-10769643D01*
X17669643Y-10741072D01*
X17669643Y-10655357D01*
X17683928Y-10626786D01*
X17698214Y-10612500D01*
X17726786Y-10598214D01*
X17769643Y-10598214D01*
X17798214Y-10612500D01*
X17812500Y-10626786D01*
X17826786Y-10655357D01*
X17826786Y-10741072D01*
X17812500Y-10769643D01*
X17798214Y-10783929D01*
X17769643Y-10798214D01*
X17726786Y-10798214D01*
X17912500Y-10598214D02*
X18026786Y-10598214D01*
X17955357Y-10498214D02*
X17955357Y-10755357D01*
X17969643Y-10783929D01*
X17998214Y-10798214D01*
X18026786Y-10798214D01*
X18355357Y-10598214D02*
X18355357Y-10898214D01*
X18355357Y-10612500D02*
X18383928Y-10598214D01*
X18441071Y-10598214D01*
X18469643Y-10612500D01*
X18483928Y-10626786D01*
X18498214Y-10655357D01*
X18498214Y-10741072D01*
X18483928Y-10769643D01*
X18469643Y-10783929D01*
X18441071Y-10798214D01*
X18383928Y-10798214D01*
X18355357Y-10783929D01*
X18669643Y-10798214D02*
X18641071Y-10783929D01*
X18626786Y-10755357D01*
X18626786Y-10498214D01*
X18912500Y-10798214D02*
X18912500Y-10641072D01*
X18898214Y-10612500D01*
X18869643Y-10598214D01*
X18812500Y-10598214D01*
X18783928Y-10612500D01*
X18912500Y-10783929D02*
X18883928Y-10798214D01*
X18812500Y-10798214D01*
X18783928Y-10783929D01*
X18769643Y-10755357D01*
X18769643Y-10726786D01*
X18783928Y-10698214D01*
X18812500Y-10683929D01*
X18883928Y-10683929D01*
X18912500Y-10669643D01*
X19012500Y-10598214D02*
X19126786Y-10598214D01*
X19055357Y-10498214D02*
X19055357Y-10755357D01*
X19069643Y-10783929D01*
X19098214Y-10798214D01*
X19126786Y-10798214D01*
X19341071Y-10783929D02*
X19312500Y-10798214D01*
X19255357Y-10798214D01*
X19226786Y-10783929D01*
X19212500Y-10755357D01*
X19212500Y-10641072D01*
X19226786Y-10612500D01*
X19255357Y-10598214D01*
X19312500Y-10598214D01*
X19341071Y-10612500D01*
X19355357Y-10641072D01*
X19355357Y-10669643D01*
X19212500Y-10698214D01*
X19612500Y-10798214D02*
X19612500Y-10498214D01*
X19612500Y-10783929D02*
X19583928Y-10798214D01*
X19526786Y-10798214D01*
X19498214Y-10783929D01*
X19483928Y-10769643D01*
X19469643Y-10741072D01*
X19469643Y-10655357D01*
X19483928Y-10626786D01*
X19498214Y-10612500D01*
X19526786Y-10598214D01*
X19583928Y-10598214D01*
X19612500Y-10612500D01*
X19726786Y-10912500D02*
X19741071Y-10898214D01*
X19769643Y-10855357D01*
X19783928Y-10826786D01*
X19798214Y-10783929D01*
X19812500Y-10712500D01*
X19812500Y-10655357D01*
X19798214Y-10583929D01*
X19783928Y-10541072D01*
X19769643Y-10512500D01*
X19741071Y-10469643D01*
X19726786Y-10455357D01*
M02*
