G04 #@! TF.GenerationSoftware,KiCad,Pcbnew,(5.1.12)-1*
G04 #@! TF.CreationDate,2021-12-16T18:12:02+01:00*
G04 #@! TF.ProjectId,eth_mezz_mag_sma,6574685f-6d65-47a7-9a5f-6d61675f736d,rev?*
G04 #@! TF.SameCoordinates,Original*
G04 #@! TF.FileFunction,Copper,L2,Bot*
G04 #@! TF.FilePolarity,Positive*
%FSLAX46Y46*%
G04 Gerber Fmt 4.6, Leading zero omitted, Abs format (unit mm)*
G04 Created by KiCad (PCBNEW (5.1.12)-1) date 2021-12-16 18:12:02*
%MOMM*%
%LPD*%
G01*
G04 APERTURE LIST*
G04 #@! TA.AperFunction,SMDPad,CuDef*
%ADD10R,2.794000X0.609600*%
G04 #@! TD*
G04 #@! TA.AperFunction,ComponentPad*
%ADD11C,2.250000*%
G04 #@! TD*
G04 #@! TA.AperFunction,ComponentPad*
%ADD12C,2.050000*%
G04 #@! TD*
G04 #@! TA.AperFunction,ComponentPad*
%ADD13C,3.810000*%
G04 #@! TD*
G04 #@! TA.AperFunction,ComponentPad*
%ADD14C,3.556000*%
G04 #@! TD*
G04 #@! TA.AperFunction,ComponentPad*
%ADD15C,0.800000*%
G04 #@! TD*
G04 #@! TA.AperFunction,ComponentPad*
%ADD16C,6.400000*%
G04 #@! TD*
G04 #@! TA.AperFunction,ViaPad*
%ADD17C,0.800000*%
G04 #@! TD*
G04 #@! TA.AperFunction,ViaPad*
%ADD18C,1.600000*%
G04 #@! TD*
G04 #@! TA.AperFunction,Conductor*
%ADD19C,0.568540*%
G04 #@! TD*
G04 #@! TA.AperFunction,Conductor*
%ADD20C,1.000000*%
G04 #@! TD*
G04 #@! TA.AperFunction,Conductor*
%ADD21C,0.500000*%
G04 #@! TD*
G04 #@! TA.AperFunction,Conductor*
%ADD22C,0.254000*%
G04 #@! TD*
G04 #@! TA.AperFunction,Conductor*
%ADD23C,0.100000*%
G04 #@! TD*
G04 APERTURE END LIST*
D10*
X107839000Y-78379200D03*
X111141000Y-77879200D03*
X107839000Y-77379200D03*
X111141000Y-76879200D03*
X107839000Y-76379200D03*
X111141000Y-75879200D03*
X107839000Y-75379200D03*
X111141000Y-74879200D03*
X107839000Y-74379200D03*
D11*
X128826200Y-92009800D03*
X128826200Y-86929800D03*
X133906200Y-86929800D03*
X133906200Y-92009800D03*
D12*
X131366200Y-89469800D03*
D11*
X135803200Y-74202800D03*
X135803200Y-69122800D03*
X140883200Y-69122800D03*
X140883200Y-74202800D03*
D12*
X138343200Y-71662800D03*
D11*
X135803200Y-83219800D03*
X135803200Y-78139800D03*
X140883200Y-78139800D03*
X140883200Y-83219800D03*
D12*
X138343200Y-80679800D03*
D11*
X128826200Y-64919800D03*
X128826200Y-59839800D03*
X133906200Y-59839800D03*
X133906200Y-64919800D03*
D12*
X131366200Y-62379800D03*
D13*
X117167600Y-66367600D03*
X110817600Y-66367600D03*
X117167600Y-60017600D03*
D14*
X113992600Y-63192600D03*
D13*
X110817600Y-60017600D03*
D15*
X104793056Y-87581344D03*
X103096000Y-86878400D03*
X101398944Y-87581344D03*
X100696000Y-89278400D03*
X101398944Y-90975456D03*
X103096000Y-91678400D03*
X104793056Y-90975456D03*
X105496000Y-89278400D03*
D16*
X103096000Y-89278400D03*
D15*
X104793056Y-61774944D03*
X103096000Y-61072000D03*
X101398944Y-61774944D03*
X100696000Y-63472000D03*
X101398944Y-65169056D03*
X103096000Y-65872000D03*
X104793056Y-65169056D03*
X105496000Y-63472000D03*
D16*
X103096000Y-63472000D03*
D17*
X133190233Y-77524677D03*
X133027126Y-80513914D03*
X132666200Y-84017366D03*
X132660395Y-82654375D03*
X131409475Y-80323700D03*
X130030907Y-82655146D03*
X130066200Y-84014587D03*
X130426749Y-75690293D03*
X133121105Y-74644745D03*
X132666200Y-67249550D03*
X132666200Y-68872800D03*
X130066200Y-67249550D03*
X130123115Y-72745124D03*
X131257334Y-71820142D03*
X132189650Y-70691504D03*
X129726145Y-69762786D03*
X131650000Y-76800000D03*
X130100000Y-79550000D03*
D18*
X109700000Y-86840000D03*
X117320000Y-86840000D03*
X124940000Y-86840000D03*
X124940000Y-91920000D03*
X117320000Y-91920000D03*
X109700000Y-91920000D03*
X114018000Y-71727000D03*
X140180000Y-61440000D03*
X140180000Y-89380000D03*
X99717800Y-76426000D03*
D17*
X123162000Y-68628200D03*
X116354800Y-75892600D03*
X113459200Y-74850000D03*
X113459200Y-75850000D03*
X113459200Y-77873800D03*
X113459200Y-76857800D03*
X125778200Y-66545400D03*
X120037800Y-63192600D03*
X105229600Y-74368600D03*
X105204200Y-78432600D03*
D19*
X113449100Y-74879200D02*
X113459200Y-74889300D01*
X111141000Y-74879200D02*
X113449100Y-74879200D01*
X113433100Y-75879200D02*
X113459200Y-75905300D01*
X111141000Y-75879200D02*
X113433100Y-75879200D01*
X113453800Y-77879200D02*
X113459200Y-77873800D01*
X111141000Y-77879200D02*
X113453800Y-77879200D01*
X113437800Y-76879200D02*
X113459200Y-76857800D01*
X111141000Y-76879200D02*
X113437800Y-76879200D01*
D20*
X117167600Y-60017600D02*
X110817600Y-60017600D01*
X110817600Y-60017600D02*
X110817600Y-66367600D01*
X110817600Y-66367600D02*
X117167600Y-66367600D01*
X117167600Y-66367600D02*
X117167600Y-60017600D01*
D21*
X122425400Y-63192600D02*
X120037800Y-63192600D01*
X125778200Y-66545400D02*
X122425400Y-63192600D01*
X107828400Y-74368600D02*
X107839000Y-74379200D01*
X105229600Y-74368600D02*
X107828400Y-74368600D01*
X107785600Y-78432600D02*
X107839000Y-78379200D01*
X105204200Y-78432600D02*
X107785600Y-78432600D01*
D22*
X146340001Y-96340000D02*
X97660000Y-96340000D01*
X97660000Y-93234331D01*
X127781274Y-93234331D01*
X127892121Y-93511514D01*
X128203040Y-93664889D01*
X128537905Y-93754660D01*
X128883850Y-93777376D01*
X129227580Y-93732166D01*
X129555885Y-93620766D01*
X129760279Y-93511514D01*
X129871126Y-93234331D01*
X132861274Y-93234331D01*
X132972121Y-93511514D01*
X133283040Y-93664889D01*
X133617905Y-93754660D01*
X133963850Y-93777376D01*
X134307580Y-93732166D01*
X134635885Y-93620766D01*
X134840279Y-93511514D01*
X134951126Y-93234331D01*
X133906200Y-92189405D01*
X132861274Y-93234331D01*
X129871126Y-93234331D01*
X128826200Y-92189405D01*
X127781274Y-93234331D01*
X97660000Y-93234331D01*
X97660000Y-91979281D01*
X100574724Y-91979281D01*
X100934912Y-92468948D01*
X101598882Y-92829249D01*
X102320385Y-93053094D01*
X103071695Y-93131880D01*
X103823938Y-93062578D01*
X104548208Y-92847852D01*
X105216670Y-92495955D01*
X105257088Y-92468948D01*
X105552420Y-92067450D01*
X127058624Y-92067450D01*
X127103834Y-92411180D01*
X127215234Y-92739485D01*
X127324486Y-92943879D01*
X127601669Y-93054726D01*
X128646595Y-92009800D01*
X129005805Y-92009800D01*
X130050731Y-93054726D01*
X130327914Y-92943879D01*
X130481289Y-92632960D01*
X130571060Y-92298095D01*
X130586204Y-92067450D01*
X132138624Y-92067450D01*
X132183834Y-92411180D01*
X132295234Y-92739485D01*
X132404486Y-92943879D01*
X132681669Y-93054726D01*
X133726595Y-92009800D01*
X134085805Y-92009800D01*
X135130731Y-93054726D01*
X135407914Y-92943879D01*
X135561289Y-92632960D01*
X135651060Y-92298095D01*
X135673776Y-91952150D01*
X135628566Y-91608420D01*
X135517166Y-91280115D01*
X135407914Y-91075721D01*
X135130731Y-90964874D01*
X134085805Y-92009800D01*
X133726595Y-92009800D01*
X132681669Y-90964874D01*
X132404486Y-91075721D01*
X132251111Y-91386640D01*
X132161340Y-91721505D01*
X132138624Y-92067450D01*
X130586204Y-92067450D01*
X130593776Y-91952150D01*
X130548566Y-91608420D01*
X130437166Y-91280115D01*
X130327914Y-91075721D01*
X130050731Y-90964874D01*
X129005805Y-92009800D01*
X128646595Y-92009800D01*
X127601669Y-90964874D01*
X127324486Y-91075721D01*
X127171111Y-91386640D01*
X127081340Y-91721505D01*
X127058624Y-92067450D01*
X105552420Y-92067450D01*
X105617276Y-91979281D01*
X103096000Y-89458005D01*
X100574724Y-91979281D01*
X97660000Y-91979281D01*
X97660000Y-89254095D01*
X99242520Y-89254095D01*
X99311822Y-90006338D01*
X99526548Y-90730608D01*
X99878445Y-91399070D01*
X99905452Y-91439488D01*
X100395119Y-91799676D01*
X102916395Y-89278400D01*
X103275605Y-89278400D01*
X105796881Y-91799676D01*
X106286548Y-91439488D01*
X106641557Y-90785269D01*
X127781274Y-90785269D01*
X128826200Y-91830195D01*
X129871126Y-90785269D01*
X129760279Y-90508086D01*
X129449360Y-90354711D01*
X129114495Y-90264940D01*
X128768550Y-90242224D01*
X128424820Y-90287434D01*
X128096515Y-90398834D01*
X127892121Y-90508086D01*
X127781274Y-90785269D01*
X106641557Y-90785269D01*
X106646849Y-90775518D01*
X106870694Y-90054015D01*
X106949102Y-89306304D01*
X129706200Y-89306304D01*
X129706200Y-89633296D01*
X129769993Y-89954004D01*
X129895127Y-90256105D01*
X130076794Y-90527988D01*
X130308012Y-90759206D01*
X130579895Y-90940873D01*
X130881996Y-91066007D01*
X131202704Y-91129800D01*
X131529696Y-91129800D01*
X131850404Y-91066007D01*
X132152505Y-90940873D01*
X132385382Y-90785269D01*
X132861274Y-90785269D01*
X133906200Y-91830195D01*
X134951126Y-90785269D01*
X134840279Y-90508086D01*
X134529360Y-90354711D01*
X134194495Y-90264940D01*
X133848550Y-90242224D01*
X133504820Y-90287434D01*
X133176515Y-90398834D01*
X132972121Y-90508086D01*
X132861274Y-90785269D01*
X132385382Y-90785269D01*
X132424388Y-90759206D01*
X132655606Y-90527988D01*
X132837273Y-90256105D01*
X132962407Y-89954004D01*
X133026200Y-89633296D01*
X133026200Y-89306304D01*
X132962407Y-88985596D01*
X132837273Y-88683495D01*
X132655606Y-88411612D01*
X132424388Y-88180394D01*
X132385383Y-88154331D01*
X132861274Y-88154331D01*
X132972121Y-88431514D01*
X133283040Y-88584889D01*
X133617905Y-88674660D01*
X133963850Y-88697376D01*
X134307580Y-88652166D01*
X134635885Y-88540766D01*
X134840279Y-88431514D01*
X134951126Y-88154331D01*
X133906200Y-87109405D01*
X132861274Y-88154331D01*
X132385383Y-88154331D01*
X132152505Y-87998727D01*
X131850404Y-87873593D01*
X131529696Y-87809800D01*
X131202704Y-87809800D01*
X130881996Y-87873593D01*
X130579895Y-87998727D01*
X130308012Y-88180394D01*
X130076794Y-88411612D01*
X129895127Y-88683495D01*
X129769993Y-88985596D01*
X129706200Y-89306304D01*
X106949102Y-89306304D01*
X106949480Y-89302705D01*
X106880178Y-88550462D01*
X106762737Y-88154331D01*
X127781274Y-88154331D01*
X127892121Y-88431514D01*
X128203040Y-88584889D01*
X128537905Y-88674660D01*
X128883850Y-88697376D01*
X129227580Y-88652166D01*
X129555885Y-88540766D01*
X129760279Y-88431514D01*
X129871126Y-88154331D01*
X128826200Y-87109405D01*
X127781274Y-88154331D01*
X106762737Y-88154331D01*
X106665452Y-87826192D01*
X106313555Y-87157730D01*
X106286548Y-87117312D01*
X106110004Y-86987450D01*
X127058624Y-86987450D01*
X127103834Y-87331180D01*
X127215234Y-87659485D01*
X127324486Y-87863879D01*
X127601669Y-87974726D01*
X128646595Y-86929800D01*
X129005805Y-86929800D01*
X130050731Y-87974726D01*
X130327914Y-87863879D01*
X130481289Y-87552960D01*
X130571060Y-87218095D01*
X130586204Y-86987450D01*
X132138624Y-86987450D01*
X132183834Y-87331180D01*
X132295234Y-87659485D01*
X132404486Y-87863879D01*
X132681669Y-87974726D01*
X133726595Y-86929800D01*
X134085805Y-86929800D01*
X135130731Y-87974726D01*
X135407914Y-87863879D01*
X135561289Y-87552960D01*
X135651060Y-87218095D01*
X135673776Y-86872150D01*
X135628566Y-86528420D01*
X135517166Y-86200115D01*
X135407914Y-85995721D01*
X135130731Y-85884874D01*
X134085805Y-86929800D01*
X133726595Y-86929800D01*
X132681669Y-85884874D01*
X132404486Y-85995721D01*
X132251111Y-86306640D01*
X132161340Y-86641505D01*
X132138624Y-86987450D01*
X130586204Y-86987450D01*
X130593776Y-86872150D01*
X130548566Y-86528420D01*
X130437166Y-86200115D01*
X130327914Y-85995721D01*
X130050731Y-85884874D01*
X129005805Y-86929800D01*
X128646595Y-86929800D01*
X127601669Y-85884874D01*
X127324486Y-85995721D01*
X127171111Y-86306640D01*
X127081340Y-86641505D01*
X127058624Y-86987450D01*
X106110004Y-86987450D01*
X105796881Y-86757124D01*
X103275605Y-89278400D01*
X102916395Y-89278400D01*
X100395119Y-86757124D01*
X99905452Y-87117312D01*
X99545151Y-87781282D01*
X99321306Y-88502785D01*
X99242520Y-89254095D01*
X97660000Y-89254095D01*
X97660000Y-86577519D01*
X100574724Y-86577519D01*
X103096000Y-89098795D01*
X105617276Y-86577519D01*
X105257088Y-86087852D01*
X104593118Y-85727551D01*
X104521299Y-85705269D01*
X127781274Y-85705269D01*
X128826200Y-86750195D01*
X129871126Y-85705269D01*
X132861274Y-85705269D01*
X133906200Y-86750195D01*
X134951126Y-85705269D01*
X134840279Y-85428086D01*
X134529360Y-85274711D01*
X134194495Y-85184940D01*
X133848550Y-85162224D01*
X133504820Y-85207434D01*
X133176515Y-85318834D01*
X132972121Y-85428086D01*
X132861274Y-85705269D01*
X129871126Y-85705269D01*
X129760279Y-85428086D01*
X129449360Y-85274711D01*
X129114495Y-85184940D01*
X128768550Y-85162224D01*
X128424820Y-85207434D01*
X128096515Y-85318834D01*
X127892121Y-85428086D01*
X127781274Y-85705269D01*
X104521299Y-85705269D01*
X103871615Y-85503706D01*
X103120305Y-85424920D01*
X102368062Y-85494222D01*
X101643792Y-85708948D01*
X100975330Y-86060845D01*
X100934912Y-86087852D01*
X100574724Y-86577519D01*
X97660000Y-86577519D01*
X97660000Y-84444331D01*
X134758274Y-84444331D01*
X134869121Y-84721514D01*
X135180040Y-84874889D01*
X135514905Y-84964660D01*
X135860850Y-84987376D01*
X136204580Y-84942166D01*
X136532885Y-84830766D01*
X136737279Y-84721514D01*
X136848126Y-84444331D01*
X139838274Y-84444331D01*
X139949121Y-84721514D01*
X140260040Y-84874889D01*
X140594905Y-84964660D01*
X140940850Y-84987376D01*
X141284580Y-84942166D01*
X141612885Y-84830766D01*
X141817279Y-84721514D01*
X141928126Y-84444331D01*
X140883200Y-83399405D01*
X139838274Y-84444331D01*
X136848126Y-84444331D01*
X135803200Y-83399405D01*
X134758274Y-84444331D01*
X97660000Y-84444331D01*
X97660000Y-83277450D01*
X134035624Y-83277450D01*
X134080834Y-83621180D01*
X134192234Y-83949485D01*
X134301486Y-84153879D01*
X134578669Y-84264726D01*
X135623595Y-83219800D01*
X135982805Y-83219800D01*
X137027731Y-84264726D01*
X137304914Y-84153879D01*
X137458289Y-83842960D01*
X137548060Y-83508095D01*
X137563204Y-83277450D01*
X139115624Y-83277450D01*
X139160834Y-83621180D01*
X139272234Y-83949485D01*
X139381486Y-84153879D01*
X139658669Y-84264726D01*
X140703595Y-83219800D01*
X141062805Y-83219800D01*
X142107731Y-84264726D01*
X142384914Y-84153879D01*
X142538289Y-83842960D01*
X142628060Y-83508095D01*
X142650776Y-83162150D01*
X142605566Y-82818420D01*
X142494166Y-82490115D01*
X142384914Y-82285721D01*
X142107731Y-82174874D01*
X141062805Y-83219800D01*
X140703595Y-83219800D01*
X139658669Y-82174874D01*
X139381486Y-82285721D01*
X139228111Y-82596640D01*
X139138340Y-82931505D01*
X139115624Y-83277450D01*
X137563204Y-83277450D01*
X137570776Y-83162150D01*
X137525566Y-82818420D01*
X137414166Y-82490115D01*
X137304914Y-82285721D01*
X137027731Y-82174874D01*
X135982805Y-83219800D01*
X135623595Y-83219800D01*
X134578669Y-82174874D01*
X134301486Y-82285721D01*
X134148111Y-82596640D01*
X134058340Y-82931505D01*
X134035624Y-83277450D01*
X97660000Y-83277450D01*
X97660000Y-81995269D01*
X134758274Y-81995269D01*
X135803200Y-83040195D01*
X136848126Y-81995269D01*
X136737279Y-81718086D01*
X136426360Y-81564711D01*
X136091495Y-81474940D01*
X135745550Y-81452224D01*
X135401820Y-81497434D01*
X135073515Y-81608834D01*
X134869121Y-81718086D01*
X134758274Y-81995269D01*
X97660000Y-81995269D01*
X97660000Y-80516304D01*
X136683200Y-80516304D01*
X136683200Y-80843296D01*
X136746993Y-81164004D01*
X136872127Y-81466105D01*
X137053794Y-81737988D01*
X137285012Y-81969206D01*
X137556895Y-82150873D01*
X137858996Y-82276007D01*
X138179704Y-82339800D01*
X138506696Y-82339800D01*
X138827404Y-82276007D01*
X139129505Y-82150873D01*
X139362382Y-81995269D01*
X139838274Y-81995269D01*
X140883200Y-83040195D01*
X141928126Y-81995269D01*
X141817279Y-81718086D01*
X141506360Y-81564711D01*
X141171495Y-81474940D01*
X140825550Y-81452224D01*
X140481820Y-81497434D01*
X140153515Y-81608834D01*
X139949121Y-81718086D01*
X139838274Y-81995269D01*
X139362382Y-81995269D01*
X139401388Y-81969206D01*
X139632606Y-81737988D01*
X139814273Y-81466105D01*
X139939407Y-81164004D01*
X140003200Y-80843296D01*
X140003200Y-80516304D01*
X139939407Y-80195596D01*
X139814273Y-79893495D01*
X139632606Y-79621612D01*
X139401388Y-79390394D01*
X139362383Y-79364331D01*
X139838274Y-79364331D01*
X139949121Y-79641514D01*
X140260040Y-79794889D01*
X140594905Y-79884660D01*
X140940850Y-79907376D01*
X141284580Y-79862166D01*
X141612885Y-79750766D01*
X141817279Y-79641514D01*
X141928126Y-79364331D01*
X140883200Y-78319405D01*
X139838274Y-79364331D01*
X139362383Y-79364331D01*
X139129505Y-79208727D01*
X138827404Y-79083593D01*
X138506696Y-79019800D01*
X138179704Y-79019800D01*
X137858996Y-79083593D01*
X137556895Y-79208727D01*
X137285012Y-79390394D01*
X137053794Y-79621612D01*
X136872127Y-79893495D01*
X136746993Y-80195596D01*
X136683200Y-80516304D01*
X97660000Y-80516304D01*
X97660000Y-78330661D01*
X104169200Y-78330661D01*
X104169200Y-78534539D01*
X104208974Y-78734498D01*
X104286995Y-78922856D01*
X104400263Y-79092374D01*
X104544426Y-79236537D01*
X104713944Y-79349805D01*
X104902302Y-79427826D01*
X105102261Y-79467600D01*
X105306139Y-79467600D01*
X105506098Y-79427826D01*
X105694456Y-79349805D01*
X105742654Y-79317600D01*
X106396594Y-79317600D01*
X106442000Y-79322072D01*
X109236000Y-79322072D01*
X109360482Y-79309812D01*
X109480180Y-79273502D01*
X109590494Y-79214537D01*
X109595019Y-79210824D01*
X109672615Y-79398156D01*
X109785883Y-79567674D01*
X109930046Y-79711837D01*
X110099564Y-79825105D01*
X110287922Y-79903126D01*
X110487881Y-79942900D01*
X110691759Y-79942900D01*
X110891718Y-79903126D01*
X111080076Y-79825105D01*
X111249594Y-79711837D01*
X111393757Y-79567674D01*
X111507025Y-79398156D01*
X111521035Y-79364331D01*
X134758274Y-79364331D01*
X134869121Y-79641514D01*
X135180040Y-79794889D01*
X135514905Y-79884660D01*
X135860850Y-79907376D01*
X136204580Y-79862166D01*
X136532885Y-79750766D01*
X136737279Y-79641514D01*
X136848126Y-79364331D01*
X135803200Y-78319405D01*
X134758274Y-79364331D01*
X111521035Y-79364331D01*
X111585046Y-79209798D01*
X111624820Y-79009839D01*
X111624820Y-78822072D01*
X112538000Y-78822072D01*
X112662482Y-78809812D01*
X112699872Y-78798470D01*
X112986966Y-78798470D01*
X113157302Y-78869026D01*
X113357261Y-78908800D01*
X113561139Y-78908800D01*
X113761098Y-78869026D01*
X113949456Y-78791005D01*
X114118974Y-78677737D01*
X114263137Y-78533574D01*
X114376405Y-78364056D01*
X114445415Y-78197450D01*
X134035624Y-78197450D01*
X134080834Y-78541180D01*
X134192234Y-78869485D01*
X134301486Y-79073879D01*
X134578669Y-79184726D01*
X135623595Y-78139800D01*
X135982805Y-78139800D01*
X137027731Y-79184726D01*
X137304914Y-79073879D01*
X137458289Y-78762960D01*
X137548060Y-78428095D01*
X137563204Y-78197450D01*
X139115624Y-78197450D01*
X139160834Y-78541180D01*
X139272234Y-78869485D01*
X139381486Y-79073879D01*
X139658669Y-79184726D01*
X140703595Y-78139800D01*
X141062805Y-78139800D01*
X142107731Y-79184726D01*
X142384914Y-79073879D01*
X142538289Y-78762960D01*
X142628060Y-78428095D01*
X142650776Y-78082150D01*
X142605566Y-77738420D01*
X142494166Y-77410115D01*
X142384914Y-77205721D01*
X142107731Y-77094874D01*
X141062805Y-78139800D01*
X140703595Y-78139800D01*
X139658669Y-77094874D01*
X139381486Y-77205721D01*
X139228111Y-77516640D01*
X139138340Y-77851505D01*
X139115624Y-78197450D01*
X137563204Y-78197450D01*
X137570776Y-78082150D01*
X137525566Y-77738420D01*
X137414166Y-77410115D01*
X137304914Y-77205721D01*
X137027731Y-77094874D01*
X135982805Y-78139800D01*
X135623595Y-78139800D01*
X134578669Y-77094874D01*
X134301486Y-77205721D01*
X134148111Y-77516640D01*
X134058340Y-77851505D01*
X134035624Y-78197450D01*
X114445415Y-78197450D01*
X114454426Y-78175698D01*
X114494200Y-77975739D01*
X114494200Y-77771861D01*
X114454426Y-77571902D01*
X114376405Y-77383544D01*
X114364549Y-77365800D01*
X114376405Y-77348056D01*
X114454426Y-77159698D01*
X114494200Y-76959739D01*
X114494200Y-76915269D01*
X134758274Y-76915269D01*
X135803200Y-77960195D01*
X136848126Y-76915269D01*
X139838274Y-76915269D01*
X140883200Y-77960195D01*
X141928126Y-76915269D01*
X141817279Y-76638086D01*
X141506360Y-76484711D01*
X141171495Y-76394940D01*
X140825550Y-76372224D01*
X140481820Y-76417434D01*
X140153515Y-76528834D01*
X139949121Y-76638086D01*
X139838274Y-76915269D01*
X136848126Y-76915269D01*
X136737279Y-76638086D01*
X136426360Y-76484711D01*
X136091495Y-76394940D01*
X135745550Y-76372224D01*
X135401820Y-76417434D01*
X135073515Y-76528834D01*
X134869121Y-76638086D01*
X134758274Y-76915269D01*
X114494200Y-76915269D01*
X114494200Y-76755861D01*
X114454426Y-76555902D01*
X114376405Y-76367544D01*
X114367288Y-76353900D01*
X114376405Y-76340256D01*
X114454426Y-76151898D01*
X114494200Y-75951939D01*
X114494200Y-75748061D01*
X114454426Y-75548102D01*
X114404401Y-75427331D01*
X134758274Y-75427331D01*
X134869121Y-75704514D01*
X135180040Y-75857889D01*
X135514905Y-75947660D01*
X135860850Y-75970376D01*
X136204580Y-75925166D01*
X136532885Y-75813766D01*
X136737279Y-75704514D01*
X136848126Y-75427331D01*
X139838274Y-75427331D01*
X139949121Y-75704514D01*
X140260040Y-75857889D01*
X140594905Y-75947660D01*
X140940850Y-75970376D01*
X141284580Y-75925166D01*
X141612885Y-75813766D01*
X141817279Y-75704514D01*
X141928126Y-75427331D01*
X140883200Y-74382405D01*
X139838274Y-75427331D01*
X136848126Y-75427331D01*
X135803200Y-74382405D01*
X134758274Y-75427331D01*
X114404401Y-75427331D01*
X114376405Y-75359744D01*
X114369894Y-75350000D01*
X114376405Y-75340256D01*
X114454426Y-75151898D01*
X114494200Y-74951939D01*
X114494200Y-74748061D01*
X114454426Y-74548102D01*
X114376405Y-74359744D01*
X114310060Y-74260450D01*
X134035624Y-74260450D01*
X134080834Y-74604180D01*
X134192234Y-74932485D01*
X134301486Y-75136879D01*
X134578669Y-75247726D01*
X135623595Y-74202800D01*
X135982805Y-74202800D01*
X137027731Y-75247726D01*
X137304914Y-75136879D01*
X137458289Y-74825960D01*
X137548060Y-74491095D01*
X137563204Y-74260450D01*
X139115624Y-74260450D01*
X139160834Y-74604180D01*
X139272234Y-74932485D01*
X139381486Y-75136879D01*
X139658669Y-75247726D01*
X140703595Y-74202800D01*
X141062805Y-74202800D01*
X142107731Y-75247726D01*
X142384914Y-75136879D01*
X142538289Y-74825960D01*
X142628060Y-74491095D01*
X142650776Y-74145150D01*
X142605566Y-73801420D01*
X142494166Y-73473115D01*
X142384914Y-73268721D01*
X142107731Y-73157874D01*
X141062805Y-74202800D01*
X140703595Y-74202800D01*
X139658669Y-73157874D01*
X139381486Y-73268721D01*
X139228111Y-73579640D01*
X139138340Y-73914505D01*
X139115624Y-74260450D01*
X137563204Y-74260450D01*
X137570776Y-74145150D01*
X137525566Y-73801420D01*
X137414166Y-73473115D01*
X137304914Y-73268721D01*
X137027731Y-73157874D01*
X135982805Y-74202800D01*
X135623595Y-74202800D01*
X134578669Y-73157874D01*
X134301486Y-73268721D01*
X134148111Y-73579640D01*
X134058340Y-73914505D01*
X134035624Y-74260450D01*
X114310060Y-74260450D01*
X114263137Y-74190226D01*
X114118974Y-74046063D01*
X113949456Y-73932795D01*
X113761098Y-73854774D01*
X113561139Y-73815000D01*
X113357261Y-73815000D01*
X113157302Y-73854774D01*
X112968944Y-73932795D01*
X112928333Y-73959930D01*
X112699872Y-73959930D01*
X112662482Y-73948588D01*
X112538000Y-73936328D01*
X111624820Y-73936328D01*
X111624820Y-73748561D01*
X111585046Y-73548602D01*
X111507025Y-73360244D01*
X111393757Y-73190726D01*
X111249594Y-73046563D01*
X111147385Y-72978269D01*
X134758274Y-72978269D01*
X135803200Y-74023195D01*
X136848126Y-72978269D01*
X136737279Y-72701086D01*
X136426360Y-72547711D01*
X136091495Y-72457940D01*
X135745550Y-72435224D01*
X135401820Y-72480434D01*
X135073515Y-72591834D01*
X134869121Y-72701086D01*
X134758274Y-72978269D01*
X111147385Y-72978269D01*
X111080076Y-72933295D01*
X110891718Y-72855274D01*
X110691759Y-72815500D01*
X110487881Y-72815500D01*
X110287922Y-72855274D01*
X110099564Y-72933295D01*
X109930046Y-73046563D01*
X109785883Y-73190726D01*
X109672615Y-73360244D01*
X109595019Y-73547576D01*
X109590494Y-73543863D01*
X109480180Y-73484898D01*
X109360482Y-73448588D01*
X109236000Y-73436328D01*
X106442000Y-73436328D01*
X106317518Y-73448588D01*
X106202099Y-73483600D01*
X105768054Y-73483600D01*
X105719856Y-73451395D01*
X105531498Y-73373374D01*
X105331539Y-73333600D01*
X105127661Y-73333600D01*
X104927702Y-73373374D01*
X104739344Y-73451395D01*
X104569826Y-73564663D01*
X104425663Y-73708826D01*
X104312395Y-73878344D01*
X104234374Y-74066702D01*
X104194600Y-74266661D01*
X104194600Y-74470539D01*
X104234374Y-74670498D01*
X104312395Y-74858856D01*
X104425663Y-75028374D01*
X104569826Y-75172537D01*
X104739344Y-75285805D01*
X104927702Y-75363826D01*
X105127661Y-75403600D01*
X105331539Y-75403600D01*
X105531498Y-75363826D01*
X105719856Y-75285805D01*
X105768054Y-75253600D01*
X106160587Y-75253600D01*
X106197820Y-75273502D01*
X106317518Y-75309812D01*
X106442000Y-75322072D01*
X107986000Y-75322072D01*
X107986000Y-75506200D01*
X107966000Y-75506200D01*
X107966000Y-76252200D01*
X107986000Y-76252200D01*
X107986000Y-76506200D01*
X107966000Y-76506200D01*
X107966000Y-77252200D01*
X107986000Y-77252200D01*
X107986000Y-77436328D01*
X106442000Y-77436328D01*
X106317518Y-77448588D01*
X106197820Y-77484898D01*
X106157967Y-77506200D01*
X105965750Y-77506200D01*
X105924350Y-77547600D01*
X105742654Y-77547600D01*
X105694456Y-77515395D01*
X105506098Y-77437374D01*
X105306139Y-77397600D01*
X105102261Y-77397600D01*
X104902302Y-77437374D01*
X104713944Y-77515395D01*
X104544426Y-77628663D01*
X104400263Y-77772826D01*
X104286995Y-77942344D01*
X104208974Y-78130702D01*
X104169200Y-78330661D01*
X97660000Y-78330661D01*
X97660000Y-76684000D01*
X105803928Y-76684000D01*
X105816188Y-76808482D01*
X105837640Y-76879200D01*
X105816188Y-76949918D01*
X105803928Y-77074400D01*
X105807000Y-77093450D01*
X105965750Y-77252200D01*
X106157967Y-77252200D01*
X106197820Y-77273502D01*
X106317518Y-77309812D01*
X106442000Y-77322072D01*
X107553250Y-77319000D01*
X107620050Y-77252200D01*
X107712000Y-77252200D01*
X107712000Y-76506200D01*
X107620050Y-76506200D01*
X107553250Y-76439400D01*
X106442000Y-76436328D01*
X106317518Y-76448588D01*
X106197820Y-76484898D01*
X106157967Y-76506200D01*
X105965750Y-76506200D01*
X105807000Y-76664950D01*
X105803928Y-76684000D01*
X97660000Y-76684000D01*
X97660000Y-75684000D01*
X105803928Y-75684000D01*
X105816188Y-75808482D01*
X105837640Y-75879200D01*
X105816188Y-75949918D01*
X105803928Y-76074400D01*
X105807000Y-76093450D01*
X105965750Y-76252200D01*
X106157967Y-76252200D01*
X106197820Y-76273502D01*
X106317518Y-76309812D01*
X106442000Y-76322072D01*
X107553250Y-76319000D01*
X107620050Y-76252200D01*
X107712000Y-76252200D01*
X107712000Y-75506200D01*
X107620050Y-75506200D01*
X107553250Y-75439400D01*
X106442000Y-75436328D01*
X106317518Y-75448588D01*
X106197820Y-75484898D01*
X106157967Y-75506200D01*
X105965750Y-75506200D01*
X105807000Y-75664950D01*
X105803928Y-75684000D01*
X97660000Y-75684000D01*
X97660000Y-71499304D01*
X136683200Y-71499304D01*
X136683200Y-71826296D01*
X136746993Y-72147004D01*
X136872127Y-72449105D01*
X137053794Y-72720988D01*
X137285012Y-72952206D01*
X137556895Y-73133873D01*
X137858996Y-73259007D01*
X138179704Y-73322800D01*
X138506696Y-73322800D01*
X138827404Y-73259007D01*
X139129505Y-73133873D01*
X139362382Y-72978269D01*
X139838274Y-72978269D01*
X140883200Y-74023195D01*
X141928126Y-72978269D01*
X141817279Y-72701086D01*
X141506360Y-72547711D01*
X141171495Y-72457940D01*
X140825550Y-72435224D01*
X140481820Y-72480434D01*
X140153515Y-72591834D01*
X139949121Y-72701086D01*
X139838274Y-72978269D01*
X139362382Y-72978269D01*
X139401388Y-72952206D01*
X139632606Y-72720988D01*
X139814273Y-72449105D01*
X139939407Y-72147004D01*
X140003200Y-71826296D01*
X140003200Y-71499304D01*
X139939407Y-71178596D01*
X139814273Y-70876495D01*
X139632606Y-70604612D01*
X139401388Y-70373394D01*
X139362383Y-70347331D01*
X139838274Y-70347331D01*
X139949121Y-70624514D01*
X140260040Y-70777889D01*
X140594905Y-70867660D01*
X140940850Y-70890376D01*
X141284580Y-70845166D01*
X141612885Y-70733766D01*
X141817279Y-70624514D01*
X141928126Y-70347331D01*
X140883200Y-69302405D01*
X139838274Y-70347331D01*
X139362383Y-70347331D01*
X139129505Y-70191727D01*
X138827404Y-70066593D01*
X138506696Y-70002800D01*
X138179704Y-70002800D01*
X137858996Y-70066593D01*
X137556895Y-70191727D01*
X137285012Y-70373394D01*
X137053794Y-70604612D01*
X136872127Y-70876495D01*
X136746993Y-71178596D01*
X136683200Y-71499304D01*
X97660000Y-71499304D01*
X97660000Y-70347331D01*
X134758274Y-70347331D01*
X134869121Y-70624514D01*
X135180040Y-70777889D01*
X135514905Y-70867660D01*
X135860850Y-70890376D01*
X136204580Y-70845166D01*
X136532885Y-70733766D01*
X136737279Y-70624514D01*
X136848126Y-70347331D01*
X135803200Y-69302405D01*
X134758274Y-70347331D01*
X97660000Y-70347331D01*
X97660000Y-69180450D01*
X134035624Y-69180450D01*
X134080834Y-69524180D01*
X134192234Y-69852485D01*
X134301486Y-70056879D01*
X134578669Y-70167726D01*
X135623595Y-69122800D01*
X135982805Y-69122800D01*
X137027731Y-70167726D01*
X137304914Y-70056879D01*
X137458289Y-69745960D01*
X137548060Y-69411095D01*
X137563204Y-69180450D01*
X139115624Y-69180450D01*
X139160834Y-69524180D01*
X139272234Y-69852485D01*
X139381486Y-70056879D01*
X139658669Y-70167726D01*
X140703595Y-69122800D01*
X141062805Y-69122800D01*
X142107731Y-70167726D01*
X142384914Y-70056879D01*
X142538289Y-69745960D01*
X142628060Y-69411095D01*
X142650776Y-69065150D01*
X142605566Y-68721420D01*
X142494166Y-68393115D01*
X142384914Y-68188721D01*
X142107731Y-68077874D01*
X141062805Y-69122800D01*
X140703595Y-69122800D01*
X139658669Y-68077874D01*
X139381486Y-68188721D01*
X139228111Y-68499640D01*
X139138340Y-68834505D01*
X139115624Y-69180450D01*
X137563204Y-69180450D01*
X137570776Y-69065150D01*
X137525566Y-68721420D01*
X137414166Y-68393115D01*
X137304914Y-68188721D01*
X137027731Y-68077874D01*
X135982805Y-69122800D01*
X135623595Y-69122800D01*
X134578669Y-68077874D01*
X134301486Y-68188721D01*
X134148111Y-68499640D01*
X134058340Y-68834505D01*
X134035624Y-69180450D01*
X97660000Y-69180450D01*
X97660000Y-66172881D01*
X100574724Y-66172881D01*
X100934912Y-66662548D01*
X101598882Y-67022849D01*
X102320385Y-67246694D01*
X103071695Y-67325480D01*
X103823938Y-67256178D01*
X104548208Y-67041452D01*
X105216670Y-66689555D01*
X105257088Y-66662548D01*
X105617276Y-66172881D01*
X103096000Y-63651605D01*
X100574724Y-66172881D01*
X97660000Y-66172881D01*
X97660000Y-63447695D01*
X99242520Y-63447695D01*
X99311822Y-64199938D01*
X99526548Y-64924208D01*
X99878445Y-65592670D01*
X99905452Y-65633088D01*
X100395119Y-65993276D01*
X102916395Y-63472000D01*
X103275605Y-63472000D01*
X105796881Y-65993276D01*
X106286548Y-65633088D01*
X106646849Y-64969118D01*
X106870694Y-64247615D01*
X106949480Y-63496305D01*
X106880178Y-62744062D01*
X106665452Y-62019792D01*
X106313555Y-61351330D01*
X106286548Y-61310912D01*
X105796881Y-60950724D01*
X103275605Y-63472000D01*
X102916395Y-63472000D01*
X100395119Y-60950724D01*
X99905452Y-61310912D01*
X99545151Y-61974882D01*
X99321306Y-62696385D01*
X99242520Y-63447695D01*
X97660000Y-63447695D01*
X97660000Y-60771119D01*
X100574724Y-60771119D01*
X103096000Y-63292395D01*
X105617276Y-60771119D01*
X105257088Y-60281452D01*
X104593118Y-59921151D01*
X104097647Y-59767432D01*
X108277600Y-59767432D01*
X108277600Y-60267768D01*
X108375211Y-60758491D01*
X108566681Y-61220741D01*
X108844653Y-61636756D01*
X109198444Y-61990547D01*
X109614459Y-62268519D01*
X109682600Y-62296744D01*
X109682601Y-64088456D01*
X109614459Y-64116681D01*
X109198444Y-64394653D01*
X108844653Y-64748444D01*
X108566681Y-65164459D01*
X108375211Y-65626709D01*
X108277600Y-66117432D01*
X108277600Y-66617768D01*
X108375211Y-67108491D01*
X108566681Y-67570741D01*
X108844653Y-67986756D01*
X109198444Y-68340547D01*
X109614459Y-68618519D01*
X110076709Y-68809989D01*
X110567432Y-68907600D01*
X111067768Y-68907600D01*
X111558491Y-68809989D01*
X112020741Y-68618519D01*
X112436756Y-68340547D01*
X112790547Y-67986756D01*
X113068519Y-67570741D01*
X113096744Y-67502600D01*
X114888456Y-67502600D01*
X114916681Y-67570741D01*
X115194653Y-67986756D01*
X115548444Y-68340547D01*
X115964459Y-68618519D01*
X116426709Y-68809989D01*
X116917432Y-68907600D01*
X117417768Y-68907600D01*
X117908491Y-68809989D01*
X118370741Y-68618519D01*
X118786756Y-68340547D01*
X119140547Y-67986756D01*
X119199672Y-67898269D01*
X134758274Y-67898269D01*
X135803200Y-68943195D01*
X136848126Y-67898269D01*
X139838274Y-67898269D01*
X140883200Y-68943195D01*
X141928126Y-67898269D01*
X141817279Y-67621086D01*
X141506360Y-67467711D01*
X141171495Y-67377940D01*
X140825550Y-67355224D01*
X140481820Y-67400434D01*
X140153515Y-67511834D01*
X139949121Y-67621086D01*
X139838274Y-67898269D01*
X136848126Y-67898269D01*
X136737279Y-67621086D01*
X136426360Y-67467711D01*
X136091495Y-67377940D01*
X135745550Y-67355224D01*
X135401820Y-67400434D01*
X135073515Y-67511834D01*
X134869121Y-67621086D01*
X134758274Y-67898269D01*
X119199672Y-67898269D01*
X119418519Y-67570741D01*
X119609989Y-67108491D01*
X119707600Y-66617768D01*
X119707600Y-66117432D01*
X119609989Y-65626709D01*
X119418519Y-65164459D01*
X119140547Y-64748444D01*
X118786756Y-64394653D01*
X118370741Y-64116681D01*
X118302600Y-64088456D01*
X118302600Y-63090661D01*
X119002800Y-63090661D01*
X119002800Y-63294539D01*
X119042574Y-63494498D01*
X119120595Y-63682856D01*
X119233863Y-63852374D01*
X119378026Y-63996537D01*
X119547544Y-64109805D01*
X119735902Y-64187826D01*
X119935861Y-64227600D01*
X120139739Y-64227600D01*
X120339698Y-64187826D01*
X120528056Y-64109805D01*
X120576254Y-64077600D01*
X122058822Y-64077600D01*
X124771665Y-66790444D01*
X124782974Y-66847298D01*
X124860995Y-67035656D01*
X124974263Y-67205174D01*
X125118426Y-67349337D01*
X125287944Y-67462605D01*
X125476302Y-67540626D01*
X125676261Y-67580400D01*
X125880139Y-67580400D01*
X126080098Y-67540626D01*
X126268456Y-67462605D01*
X126437974Y-67349337D01*
X126582137Y-67205174D01*
X126695405Y-67035656D01*
X126773426Y-66847298D01*
X126813200Y-66647339D01*
X126813200Y-66443461D01*
X126773426Y-66243502D01*
X126732348Y-66144331D01*
X127781274Y-66144331D01*
X127892121Y-66421514D01*
X128203040Y-66574889D01*
X128537905Y-66664660D01*
X128883850Y-66687376D01*
X129227580Y-66642166D01*
X129555885Y-66530766D01*
X129760279Y-66421514D01*
X129871126Y-66144331D01*
X132861274Y-66144331D01*
X132972121Y-66421514D01*
X133283040Y-66574889D01*
X133617905Y-66664660D01*
X133963850Y-66687376D01*
X134307580Y-66642166D01*
X134635885Y-66530766D01*
X134840279Y-66421514D01*
X134951126Y-66144331D01*
X133906200Y-65099405D01*
X132861274Y-66144331D01*
X129871126Y-66144331D01*
X128826200Y-65099405D01*
X127781274Y-66144331D01*
X126732348Y-66144331D01*
X126695405Y-66055144D01*
X126582137Y-65885626D01*
X126437974Y-65741463D01*
X126268456Y-65628195D01*
X126080098Y-65550174D01*
X126023244Y-65538865D01*
X125461829Y-64977450D01*
X127058624Y-64977450D01*
X127103834Y-65321180D01*
X127215234Y-65649485D01*
X127324486Y-65853879D01*
X127601669Y-65964726D01*
X128646595Y-64919800D01*
X129005805Y-64919800D01*
X130050731Y-65964726D01*
X130327914Y-65853879D01*
X130481289Y-65542960D01*
X130571060Y-65208095D01*
X130586204Y-64977450D01*
X132138624Y-64977450D01*
X132183834Y-65321180D01*
X132295234Y-65649485D01*
X132404486Y-65853879D01*
X132681669Y-65964726D01*
X133726595Y-64919800D01*
X134085805Y-64919800D01*
X135130731Y-65964726D01*
X135407914Y-65853879D01*
X135561289Y-65542960D01*
X135651060Y-65208095D01*
X135673776Y-64862150D01*
X135628566Y-64518420D01*
X135517166Y-64190115D01*
X135407914Y-63985721D01*
X135130731Y-63874874D01*
X134085805Y-64919800D01*
X133726595Y-64919800D01*
X132681669Y-63874874D01*
X132404486Y-63985721D01*
X132251111Y-64296640D01*
X132161340Y-64631505D01*
X132138624Y-64977450D01*
X130586204Y-64977450D01*
X130593776Y-64862150D01*
X130548566Y-64518420D01*
X130437166Y-64190115D01*
X130327914Y-63985721D01*
X130050731Y-63874874D01*
X129005805Y-64919800D01*
X128646595Y-64919800D01*
X127601669Y-63874874D01*
X127324486Y-63985721D01*
X127171111Y-64296640D01*
X127081340Y-64631505D01*
X127058624Y-64977450D01*
X125461829Y-64977450D01*
X124179648Y-63695269D01*
X127781274Y-63695269D01*
X128826200Y-64740195D01*
X129871126Y-63695269D01*
X129760279Y-63418086D01*
X129449360Y-63264711D01*
X129114495Y-63174940D01*
X128768550Y-63152224D01*
X128424820Y-63197434D01*
X128096515Y-63308834D01*
X127892121Y-63418086D01*
X127781274Y-63695269D01*
X124179648Y-63695269D01*
X123081934Y-62597556D01*
X123054217Y-62563783D01*
X122919459Y-62453189D01*
X122765713Y-62371011D01*
X122598890Y-62320405D01*
X122468877Y-62307600D01*
X122468869Y-62307600D01*
X122425400Y-62303319D01*
X122381931Y-62307600D01*
X120576254Y-62307600D01*
X120528056Y-62275395D01*
X120385399Y-62216304D01*
X129706200Y-62216304D01*
X129706200Y-62543296D01*
X129769993Y-62864004D01*
X129895127Y-63166105D01*
X130076794Y-63437988D01*
X130308012Y-63669206D01*
X130579895Y-63850873D01*
X130881996Y-63976007D01*
X131202704Y-64039800D01*
X131529696Y-64039800D01*
X131850404Y-63976007D01*
X132152505Y-63850873D01*
X132385382Y-63695269D01*
X132861274Y-63695269D01*
X133906200Y-64740195D01*
X134951126Y-63695269D01*
X134840279Y-63418086D01*
X134529360Y-63264711D01*
X134194495Y-63174940D01*
X133848550Y-63152224D01*
X133504820Y-63197434D01*
X133176515Y-63308834D01*
X132972121Y-63418086D01*
X132861274Y-63695269D01*
X132385382Y-63695269D01*
X132424388Y-63669206D01*
X132655606Y-63437988D01*
X132837273Y-63166105D01*
X132962407Y-62864004D01*
X133026200Y-62543296D01*
X133026200Y-62216304D01*
X132962407Y-61895596D01*
X132837273Y-61593495D01*
X132655606Y-61321612D01*
X132424388Y-61090394D01*
X132385383Y-61064331D01*
X132861274Y-61064331D01*
X132972121Y-61341514D01*
X133283040Y-61494889D01*
X133617905Y-61584660D01*
X133963850Y-61607376D01*
X134307580Y-61562166D01*
X134635885Y-61450766D01*
X134840279Y-61341514D01*
X134951126Y-61064331D01*
X133906200Y-60019405D01*
X132861274Y-61064331D01*
X132385383Y-61064331D01*
X132152505Y-60908727D01*
X131850404Y-60783593D01*
X131529696Y-60719800D01*
X131202704Y-60719800D01*
X130881996Y-60783593D01*
X130579895Y-60908727D01*
X130308012Y-61090394D01*
X130076794Y-61321612D01*
X129895127Y-61593495D01*
X129769993Y-61895596D01*
X129706200Y-62216304D01*
X120385399Y-62216304D01*
X120339698Y-62197374D01*
X120139739Y-62157600D01*
X119935861Y-62157600D01*
X119735902Y-62197374D01*
X119547544Y-62275395D01*
X119378026Y-62388663D01*
X119233863Y-62532826D01*
X119120595Y-62702344D01*
X119042574Y-62890702D01*
X119002800Y-63090661D01*
X118302600Y-63090661D01*
X118302600Y-62296744D01*
X118370741Y-62268519D01*
X118786756Y-61990547D01*
X119140547Y-61636756D01*
X119418519Y-61220741D01*
X119483306Y-61064331D01*
X127781274Y-61064331D01*
X127892121Y-61341514D01*
X128203040Y-61494889D01*
X128537905Y-61584660D01*
X128883850Y-61607376D01*
X129227580Y-61562166D01*
X129555885Y-61450766D01*
X129760279Y-61341514D01*
X129871126Y-61064331D01*
X128826200Y-60019405D01*
X127781274Y-61064331D01*
X119483306Y-61064331D01*
X119609989Y-60758491D01*
X119707600Y-60267768D01*
X119707600Y-59897450D01*
X127058624Y-59897450D01*
X127103834Y-60241180D01*
X127215234Y-60569485D01*
X127324486Y-60773879D01*
X127601669Y-60884726D01*
X128646595Y-59839800D01*
X129005805Y-59839800D01*
X130050731Y-60884726D01*
X130327914Y-60773879D01*
X130481289Y-60462960D01*
X130571060Y-60128095D01*
X130586204Y-59897450D01*
X132138624Y-59897450D01*
X132183834Y-60241180D01*
X132295234Y-60569485D01*
X132404486Y-60773879D01*
X132681669Y-60884726D01*
X133726595Y-59839800D01*
X134085805Y-59839800D01*
X135130731Y-60884726D01*
X135407914Y-60773879D01*
X135561289Y-60462960D01*
X135651060Y-60128095D01*
X135673776Y-59782150D01*
X135628566Y-59438420D01*
X135517166Y-59110115D01*
X135407914Y-58905721D01*
X135130731Y-58794874D01*
X134085805Y-59839800D01*
X133726595Y-59839800D01*
X132681669Y-58794874D01*
X132404486Y-58905721D01*
X132251111Y-59216640D01*
X132161340Y-59551505D01*
X132138624Y-59897450D01*
X130586204Y-59897450D01*
X130593776Y-59782150D01*
X130548566Y-59438420D01*
X130437166Y-59110115D01*
X130327914Y-58905721D01*
X130050731Y-58794874D01*
X129005805Y-59839800D01*
X128646595Y-59839800D01*
X127601669Y-58794874D01*
X127324486Y-58905721D01*
X127171111Y-59216640D01*
X127081340Y-59551505D01*
X127058624Y-59897450D01*
X119707600Y-59897450D01*
X119707600Y-59767432D01*
X119609989Y-59276709D01*
X119418519Y-58814459D01*
X119285425Y-58615269D01*
X127781274Y-58615269D01*
X128826200Y-59660195D01*
X129871126Y-58615269D01*
X132861274Y-58615269D01*
X133906200Y-59660195D01*
X134951126Y-58615269D01*
X134840279Y-58338086D01*
X134529360Y-58184711D01*
X134194495Y-58094940D01*
X133848550Y-58072224D01*
X133504820Y-58117434D01*
X133176515Y-58228834D01*
X132972121Y-58338086D01*
X132861274Y-58615269D01*
X129871126Y-58615269D01*
X129760279Y-58338086D01*
X129449360Y-58184711D01*
X129114495Y-58094940D01*
X128768550Y-58072224D01*
X128424820Y-58117434D01*
X128096515Y-58228834D01*
X127892121Y-58338086D01*
X127781274Y-58615269D01*
X119285425Y-58615269D01*
X119140547Y-58398444D01*
X118786756Y-58044653D01*
X118370741Y-57766681D01*
X117908491Y-57575211D01*
X117417768Y-57477600D01*
X116917432Y-57477600D01*
X116426709Y-57575211D01*
X115964459Y-57766681D01*
X115548444Y-58044653D01*
X115194653Y-58398444D01*
X114916681Y-58814459D01*
X114888456Y-58882600D01*
X113096744Y-58882600D01*
X113068519Y-58814459D01*
X112790547Y-58398444D01*
X112436756Y-58044653D01*
X112020741Y-57766681D01*
X111558491Y-57575211D01*
X111067768Y-57477600D01*
X110567432Y-57477600D01*
X110076709Y-57575211D01*
X109614459Y-57766681D01*
X109198444Y-58044653D01*
X108844653Y-58398444D01*
X108566681Y-58814459D01*
X108375211Y-59276709D01*
X108277600Y-59767432D01*
X104097647Y-59767432D01*
X103871615Y-59697306D01*
X103120305Y-59618520D01*
X102368062Y-59687822D01*
X101643792Y-59902548D01*
X100975330Y-60254445D01*
X100934912Y-60281452D01*
X100574724Y-60771119D01*
X97660000Y-60771119D01*
X97660000Y-56660000D01*
X146340000Y-56660000D01*
X146340001Y-96340000D01*
G04 #@! TA.AperFunction,Conductor*
D23*
G36*
X146340001Y-96340000D02*
G01*
X97660000Y-96340000D01*
X97660000Y-93234331D01*
X127781274Y-93234331D01*
X127892121Y-93511514D01*
X128203040Y-93664889D01*
X128537905Y-93754660D01*
X128883850Y-93777376D01*
X129227580Y-93732166D01*
X129555885Y-93620766D01*
X129760279Y-93511514D01*
X129871126Y-93234331D01*
X132861274Y-93234331D01*
X132972121Y-93511514D01*
X133283040Y-93664889D01*
X133617905Y-93754660D01*
X133963850Y-93777376D01*
X134307580Y-93732166D01*
X134635885Y-93620766D01*
X134840279Y-93511514D01*
X134951126Y-93234331D01*
X133906200Y-92189405D01*
X132861274Y-93234331D01*
X129871126Y-93234331D01*
X128826200Y-92189405D01*
X127781274Y-93234331D01*
X97660000Y-93234331D01*
X97660000Y-91979281D01*
X100574724Y-91979281D01*
X100934912Y-92468948D01*
X101598882Y-92829249D01*
X102320385Y-93053094D01*
X103071695Y-93131880D01*
X103823938Y-93062578D01*
X104548208Y-92847852D01*
X105216670Y-92495955D01*
X105257088Y-92468948D01*
X105552420Y-92067450D01*
X127058624Y-92067450D01*
X127103834Y-92411180D01*
X127215234Y-92739485D01*
X127324486Y-92943879D01*
X127601669Y-93054726D01*
X128646595Y-92009800D01*
X129005805Y-92009800D01*
X130050731Y-93054726D01*
X130327914Y-92943879D01*
X130481289Y-92632960D01*
X130571060Y-92298095D01*
X130586204Y-92067450D01*
X132138624Y-92067450D01*
X132183834Y-92411180D01*
X132295234Y-92739485D01*
X132404486Y-92943879D01*
X132681669Y-93054726D01*
X133726595Y-92009800D01*
X134085805Y-92009800D01*
X135130731Y-93054726D01*
X135407914Y-92943879D01*
X135561289Y-92632960D01*
X135651060Y-92298095D01*
X135673776Y-91952150D01*
X135628566Y-91608420D01*
X135517166Y-91280115D01*
X135407914Y-91075721D01*
X135130731Y-90964874D01*
X134085805Y-92009800D01*
X133726595Y-92009800D01*
X132681669Y-90964874D01*
X132404486Y-91075721D01*
X132251111Y-91386640D01*
X132161340Y-91721505D01*
X132138624Y-92067450D01*
X130586204Y-92067450D01*
X130593776Y-91952150D01*
X130548566Y-91608420D01*
X130437166Y-91280115D01*
X130327914Y-91075721D01*
X130050731Y-90964874D01*
X129005805Y-92009800D01*
X128646595Y-92009800D01*
X127601669Y-90964874D01*
X127324486Y-91075721D01*
X127171111Y-91386640D01*
X127081340Y-91721505D01*
X127058624Y-92067450D01*
X105552420Y-92067450D01*
X105617276Y-91979281D01*
X103096000Y-89458005D01*
X100574724Y-91979281D01*
X97660000Y-91979281D01*
X97660000Y-89254095D01*
X99242520Y-89254095D01*
X99311822Y-90006338D01*
X99526548Y-90730608D01*
X99878445Y-91399070D01*
X99905452Y-91439488D01*
X100395119Y-91799676D01*
X102916395Y-89278400D01*
X103275605Y-89278400D01*
X105796881Y-91799676D01*
X106286548Y-91439488D01*
X106641557Y-90785269D01*
X127781274Y-90785269D01*
X128826200Y-91830195D01*
X129871126Y-90785269D01*
X129760279Y-90508086D01*
X129449360Y-90354711D01*
X129114495Y-90264940D01*
X128768550Y-90242224D01*
X128424820Y-90287434D01*
X128096515Y-90398834D01*
X127892121Y-90508086D01*
X127781274Y-90785269D01*
X106641557Y-90785269D01*
X106646849Y-90775518D01*
X106870694Y-90054015D01*
X106949102Y-89306304D01*
X129706200Y-89306304D01*
X129706200Y-89633296D01*
X129769993Y-89954004D01*
X129895127Y-90256105D01*
X130076794Y-90527988D01*
X130308012Y-90759206D01*
X130579895Y-90940873D01*
X130881996Y-91066007D01*
X131202704Y-91129800D01*
X131529696Y-91129800D01*
X131850404Y-91066007D01*
X132152505Y-90940873D01*
X132385382Y-90785269D01*
X132861274Y-90785269D01*
X133906200Y-91830195D01*
X134951126Y-90785269D01*
X134840279Y-90508086D01*
X134529360Y-90354711D01*
X134194495Y-90264940D01*
X133848550Y-90242224D01*
X133504820Y-90287434D01*
X133176515Y-90398834D01*
X132972121Y-90508086D01*
X132861274Y-90785269D01*
X132385382Y-90785269D01*
X132424388Y-90759206D01*
X132655606Y-90527988D01*
X132837273Y-90256105D01*
X132962407Y-89954004D01*
X133026200Y-89633296D01*
X133026200Y-89306304D01*
X132962407Y-88985596D01*
X132837273Y-88683495D01*
X132655606Y-88411612D01*
X132424388Y-88180394D01*
X132385383Y-88154331D01*
X132861274Y-88154331D01*
X132972121Y-88431514D01*
X133283040Y-88584889D01*
X133617905Y-88674660D01*
X133963850Y-88697376D01*
X134307580Y-88652166D01*
X134635885Y-88540766D01*
X134840279Y-88431514D01*
X134951126Y-88154331D01*
X133906200Y-87109405D01*
X132861274Y-88154331D01*
X132385383Y-88154331D01*
X132152505Y-87998727D01*
X131850404Y-87873593D01*
X131529696Y-87809800D01*
X131202704Y-87809800D01*
X130881996Y-87873593D01*
X130579895Y-87998727D01*
X130308012Y-88180394D01*
X130076794Y-88411612D01*
X129895127Y-88683495D01*
X129769993Y-88985596D01*
X129706200Y-89306304D01*
X106949102Y-89306304D01*
X106949480Y-89302705D01*
X106880178Y-88550462D01*
X106762737Y-88154331D01*
X127781274Y-88154331D01*
X127892121Y-88431514D01*
X128203040Y-88584889D01*
X128537905Y-88674660D01*
X128883850Y-88697376D01*
X129227580Y-88652166D01*
X129555885Y-88540766D01*
X129760279Y-88431514D01*
X129871126Y-88154331D01*
X128826200Y-87109405D01*
X127781274Y-88154331D01*
X106762737Y-88154331D01*
X106665452Y-87826192D01*
X106313555Y-87157730D01*
X106286548Y-87117312D01*
X106110004Y-86987450D01*
X127058624Y-86987450D01*
X127103834Y-87331180D01*
X127215234Y-87659485D01*
X127324486Y-87863879D01*
X127601669Y-87974726D01*
X128646595Y-86929800D01*
X129005805Y-86929800D01*
X130050731Y-87974726D01*
X130327914Y-87863879D01*
X130481289Y-87552960D01*
X130571060Y-87218095D01*
X130586204Y-86987450D01*
X132138624Y-86987450D01*
X132183834Y-87331180D01*
X132295234Y-87659485D01*
X132404486Y-87863879D01*
X132681669Y-87974726D01*
X133726595Y-86929800D01*
X134085805Y-86929800D01*
X135130731Y-87974726D01*
X135407914Y-87863879D01*
X135561289Y-87552960D01*
X135651060Y-87218095D01*
X135673776Y-86872150D01*
X135628566Y-86528420D01*
X135517166Y-86200115D01*
X135407914Y-85995721D01*
X135130731Y-85884874D01*
X134085805Y-86929800D01*
X133726595Y-86929800D01*
X132681669Y-85884874D01*
X132404486Y-85995721D01*
X132251111Y-86306640D01*
X132161340Y-86641505D01*
X132138624Y-86987450D01*
X130586204Y-86987450D01*
X130593776Y-86872150D01*
X130548566Y-86528420D01*
X130437166Y-86200115D01*
X130327914Y-85995721D01*
X130050731Y-85884874D01*
X129005805Y-86929800D01*
X128646595Y-86929800D01*
X127601669Y-85884874D01*
X127324486Y-85995721D01*
X127171111Y-86306640D01*
X127081340Y-86641505D01*
X127058624Y-86987450D01*
X106110004Y-86987450D01*
X105796881Y-86757124D01*
X103275605Y-89278400D01*
X102916395Y-89278400D01*
X100395119Y-86757124D01*
X99905452Y-87117312D01*
X99545151Y-87781282D01*
X99321306Y-88502785D01*
X99242520Y-89254095D01*
X97660000Y-89254095D01*
X97660000Y-86577519D01*
X100574724Y-86577519D01*
X103096000Y-89098795D01*
X105617276Y-86577519D01*
X105257088Y-86087852D01*
X104593118Y-85727551D01*
X104521299Y-85705269D01*
X127781274Y-85705269D01*
X128826200Y-86750195D01*
X129871126Y-85705269D01*
X132861274Y-85705269D01*
X133906200Y-86750195D01*
X134951126Y-85705269D01*
X134840279Y-85428086D01*
X134529360Y-85274711D01*
X134194495Y-85184940D01*
X133848550Y-85162224D01*
X133504820Y-85207434D01*
X133176515Y-85318834D01*
X132972121Y-85428086D01*
X132861274Y-85705269D01*
X129871126Y-85705269D01*
X129760279Y-85428086D01*
X129449360Y-85274711D01*
X129114495Y-85184940D01*
X128768550Y-85162224D01*
X128424820Y-85207434D01*
X128096515Y-85318834D01*
X127892121Y-85428086D01*
X127781274Y-85705269D01*
X104521299Y-85705269D01*
X103871615Y-85503706D01*
X103120305Y-85424920D01*
X102368062Y-85494222D01*
X101643792Y-85708948D01*
X100975330Y-86060845D01*
X100934912Y-86087852D01*
X100574724Y-86577519D01*
X97660000Y-86577519D01*
X97660000Y-84444331D01*
X134758274Y-84444331D01*
X134869121Y-84721514D01*
X135180040Y-84874889D01*
X135514905Y-84964660D01*
X135860850Y-84987376D01*
X136204580Y-84942166D01*
X136532885Y-84830766D01*
X136737279Y-84721514D01*
X136848126Y-84444331D01*
X139838274Y-84444331D01*
X139949121Y-84721514D01*
X140260040Y-84874889D01*
X140594905Y-84964660D01*
X140940850Y-84987376D01*
X141284580Y-84942166D01*
X141612885Y-84830766D01*
X141817279Y-84721514D01*
X141928126Y-84444331D01*
X140883200Y-83399405D01*
X139838274Y-84444331D01*
X136848126Y-84444331D01*
X135803200Y-83399405D01*
X134758274Y-84444331D01*
X97660000Y-84444331D01*
X97660000Y-83277450D01*
X134035624Y-83277450D01*
X134080834Y-83621180D01*
X134192234Y-83949485D01*
X134301486Y-84153879D01*
X134578669Y-84264726D01*
X135623595Y-83219800D01*
X135982805Y-83219800D01*
X137027731Y-84264726D01*
X137304914Y-84153879D01*
X137458289Y-83842960D01*
X137548060Y-83508095D01*
X137563204Y-83277450D01*
X139115624Y-83277450D01*
X139160834Y-83621180D01*
X139272234Y-83949485D01*
X139381486Y-84153879D01*
X139658669Y-84264726D01*
X140703595Y-83219800D01*
X141062805Y-83219800D01*
X142107731Y-84264726D01*
X142384914Y-84153879D01*
X142538289Y-83842960D01*
X142628060Y-83508095D01*
X142650776Y-83162150D01*
X142605566Y-82818420D01*
X142494166Y-82490115D01*
X142384914Y-82285721D01*
X142107731Y-82174874D01*
X141062805Y-83219800D01*
X140703595Y-83219800D01*
X139658669Y-82174874D01*
X139381486Y-82285721D01*
X139228111Y-82596640D01*
X139138340Y-82931505D01*
X139115624Y-83277450D01*
X137563204Y-83277450D01*
X137570776Y-83162150D01*
X137525566Y-82818420D01*
X137414166Y-82490115D01*
X137304914Y-82285721D01*
X137027731Y-82174874D01*
X135982805Y-83219800D01*
X135623595Y-83219800D01*
X134578669Y-82174874D01*
X134301486Y-82285721D01*
X134148111Y-82596640D01*
X134058340Y-82931505D01*
X134035624Y-83277450D01*
X97660000Y-83277450D01*
X97660000Y-81995269D01*
X134758274Y-81995269D01*
X135803200Y-83040195D01*
X136848126Y-81995269D01*
X136737279Y-81718086D01*
X136426360Y-81564711D01*
X136091495Y-81474940D01*
X135745550Y-81452224D01*
X135401820Y-81497434D01*
X135073515Y-81608834D01*
X134869121Y-81718086D01*
X134758274Y-81995269D01*
X97660000Y-81995269D01*
X97660000Y-80516304D01*
X136683200Y-80516304D01*
X136683200Y-80843296D01*
X136746993Y-81164004D01*
X136872127Y-81466105D01*
X137053794Y-81737988D01*
X137285012Y-81969206D01*
X137556895Y-82150873D01*
X137858996Y-82276007D01*
X138179704Y-82339800D01*
X138506696Y-82339800D01*
X138827404Y-82276007D01*
X139129505Y-82150873D01*
X139362382Y-81995269D01*
X139838274Y-81995269D01*
X140883200Y-83040195D01*
X141928126Y-81995269D01*
X141817279Y-81718086D01*
X141506360Y-81564711D01*
X141171495Y-81474940D01*
X140825550Y-81452224D01*
X140481820Y-81497434D01*
X140153515Y-81608834D01*
X139949121Y-81718086D01*
X139838274Y-81995269D01*
X139362382Y-81995269D01*
X139401388Y-81969206D01*
X139632606Y-81737988D01*
X139814273Y-81466105D01*
X139939407Y-81164004D01*
X140003200Y-80843296D01*
X140003200Y-80516304D01*
X139939407Y-80195596D01*
X139814273Y-79893495D01*
X139632606Y-79621612D01*
X139401388Y-79390394D01*
X139362383Y-79364331D01*
X139838274Y-79364331D01*
X139949121Y-79641514D01*
X140260040Y-79794889D01*
X140594905Y-79884660D01*
X140940850Y-79907376D01*
X141284580Y-79862166D01*
X141612885Y-79750766D01*
X141817279Y-79641514D01*
X141928126Y-79364331D01*
X140883200Y-78319405D01*
X139838274Y-79364331D01*
X139362383Y-79364331D01*
X139129505Y-79208727D01*
X138827404Y-79083593D01*
X138506696Y-79019800D01*
X138179704Y-79019800D01*
X137858996Y-79083593D01*
X137556895Y-79208727D01*
X137285012Y-79390394D01*
X137053794Y-79621612D01*
X136872127Y-79893495D01*
X136746993Y-80195596D01*
X136683200Y-80516304D01*
X97660000Y-80516304D01*
X97660000Y-78330661D01*
X104169200Y-78330661D01*
X104169200Y-78534539D01*
X104208974Y-78734498D01*
X104286995Y-78922856D01*
X104400263Y-79092374D01*
X104544426Y-79236537D01*
X104713944Y-79349805D01*
X104902302Y-79427826D01*
X105102261Y-79467600D01*
X105306139Y-79467600D01*
X105506098Y-79427826D01*
X105694456Y-79349805D01*
X105742654Y-79317600D01*
X106396594Y-79317600D01*
X106442000Y-79322072D01*
X109236000Y-79322072D01*
X109360482Y-79309812D01*
X109480180Y-79273502D01*
X109590494Y-79214537D01*
X109595019Y-79210824D01*
X109672615Y-79398156D01*
X109785883Y-79567674D01*
X109930046Y-79711837D01*
X110099564Y-79825105D01*
X110287922Y-79903126D01*
X110487881Y-79942900D01*
X110691759Y-79942900D01*
X110891718Y-79903126D01*
X111080076Y-79825105D01*
X111249594Y-79711837D01*
X111393757Y-79567674D01*
X111507025Y-79398156D01*
X111521035Y-79364331D01*
X134758274Y-79364331D01*
X134869121Y-79641514D01*
X135180040Y-79794889D01*
X135514905Y-79884660D01*
X135860850Y-79907376D01*
X136204580Y-79862166D01*
X136532885Y-79750766D01*
X136737279Y-79641514D01*
X136848126Y-79364331D01*
X135803200Y-78319405D01*
X134758274Y-79364331D01*
X111521035Y-79364331D01*
X111585046Y-79209798D01*
X111624820Y-79009839D01*
X111624820Y-78822072D01*
X112538000Y-78822072D01*
X112662482Y-78809812D01*
X112699872Y-78798470D01*
X112986966Y-78798470D01*
X113157302Y-78869026D01*
X113357261Y-78908800D01*
X113561139Y-78908800D01*
X113761098Y-78869026D01*
X113949456Y-78791005D01*
X114118974Y-78677737D01*
X114263137Y-78533574D01*
X114376405Y-78364056D01*
X114445415Y-78197450D01*
X134035624Y-78197450D01*
X134080834Y-78541180D01*
X134192234Y-78869485D01*
X134301486Y-79073879D01*
X134578669Y-79184726D01*
X135623595Y-78139800D01*
X135982805Y-78139800D01*
X137027731Y-79184726D01*
X137304914Y-79073879D01*
X137458289Y-78762960D01*
X137548060Y-78428095D01*
X137563204Y-78197450D01*
X139115624Y-78197450D01*
X139160834Y-78541180D01*
X139272234Y-78869485D01*
X139381486Y-79073879D01*
X139658669Y-79184726D01*
X140703595Y-78139800D01*
X141062805Y-78139800D01*
X142107731Y-79184726D01*
X142384914Y-79073879D01*
X142538289Y-78762960D01*
X142628060Y-78428095D01*
X142650776Y-78082150D01*
X142605566Y-77738420D01*
X142494166Y-77410115D01*
X142384914Y-77205721D01*
X142107731Y-77094874D01*
X141062805Y-78139800D01*
X140703595Y-78139800D01*
X139658669Y-77094874D01*
X139381486Y-77205721D01*
X139228111Y-77516640D01*
X139138340Y-77851505D01*
X139115624Y-78197450D01*
X137563204Y-78197450D01*
X137570776Y-78082150D01*
X137525566Y-77738420D01*
X137414166Y-77410115D01*
X137304914Y-77205721D01*
X137027731Y-77094874D01*
X135982805Y-78139800D01*
X135623595Y-78139800D01*
X134578669Y-77094874D01*
X134301486Y-77205721D01*
X134148111Y-77516640D01*
X134058340Y-77851505D01*
X134035624Y-78197450D01*
X114445415Y-78197450D01*
X114454426Y-78175698D01*
X114494200Y-77975739D01*
X114494200Y-77771861D01*
X114454426Y-77571902D01*
X114376405Y-77383544D01*
X114364549Y-77365800D01*
X114376405Y-77348056D01*
X114454426Y-77159698D01*
X114494200Y-76959739D01*
X114494200Y-76915269D01*
X134758274Y-76915269D01*
X135803200Y-77960195D01*
X136848126Y-76915269D01*
X139838274Y-76915269D01*
X140883200Y-77960195D01*
X141928126Y-76915269D01*
X141817279Y-76638086D01*
X141506360Y-76484711D01*
X141171495Y-76394940D01*
X140825550Y-76372224D01*
X140481820Y-76417434D01*
X140153515Y-76528834D01*
X139949121Y-76638086D01*
X139838274Y-76915269D01*
X136848126Y-76915269D01*
X136737279Y-76638086D01*
X136426360Y-76484711D01*
X136091495Y-76394940D01*
X135745550Y-76372224D01*
X135401820Y-76417434D01*
X135073515Y-76528834D01*
X134869121Y-76638086D01*
X134758274Y-76915269D01*
X114494200Y-76915269D01*
X114494200Y-76755861D01*
X114454426Y-76555902D01*
X114376405Y-76367544D01*
X114367288Y-76353900D01*
X114376405Y-76340256D01*
X114454426Y-76151898D01*
X114494200Y-75951939D01*
X114494200Y-75748061D01*
X114454426Y-75548102D01*
X114404401Y-75427331D01*
X134758274Y-75427331D01*
X134869121Y-75704514D01*
X135180040Y-75857889D01*
X135514905Y-75947660D01*
X135860850Y-75970376D01*
X136204580Y-75925166D01*
X136532885Y-75813766D01*
X136737279Y-75704514D01*
X136848126Y-75427331D01*
X139838274Y-75427331D01*
X139949121Y-75704514D01*
X140260040Y-75857889D01*
X140594905Y-75947660D01*
X140940850Y-75970376D01*
X141284580Y-75925166D01*
X141612885Y-75813766D01*
X141817279Y-75704514D01*
X141928126Y-75427331D01*
X140883200Y-74382405D01*
X139838274Y-75427331D01*
X136848126Y-75427331D01*
X135803200Y-74382405D01*
X134758274Y-75427331D01*
X114404401Y-75427331D01*
X114376405Y-75359744D01*
X114369894Y-75350000D01*
X114376405Y-75340256D01*
X114454426Y-75151898D01*
X114494200Y-74951939D01*
X114494200Y-74748061D01*
X114454426Y-74548102D01*
X114376405Y-74359744D01*
X114310060Y-74260450D01*
X134035624Y-74260450D01*
X134080834Y-74604180D01*
X134192234Y-74932485D01*
X134301486Y-75136879D01*
X134578669Y-75247726D01*
X135623595Y-74202800D01*
X135982805Y-74202800D01*
X137027731Y-75247726D01*
X137304914Y-75136879D01*
X137458289Y-74825960D01*
X137548060Y-74491095D01*
X137563204Y-74260450D01*
X139115624Y-74260450D01*
X139160834Y-74604180D01*
X139272234Y-74932485D01*
X139381486Y-75136879D01*
X139658669Y-75247726D01*
X140703595Y-74202800D01*
X141062805Y-74202800D01*
X142107731Y-75247726D01*
X142384914Y-75136879D01*
X142538289Y-74825960D01*
X142628060Y-74491095D01*
X142650776Y-74145150D01*
X142605566Y-73801420D01*
X142494166Y-73473115D01*
X142384914Y-73268721D01*
X142107731Y-73157874D01*
X141062805Y-74202800D01*
X140703595Y-74202800D01*
X139658669Y-73157874D01*
X139381486Y-73268721D01*
X139228111Y-73579640D01*
X139138340Y-73914505D01*
X139115624Y-74260450D01*
X137563204Y-74260450D01*
X137570776Y-74145150D01*
X137525566Y-73801420D01*
X137414166Y-73473115D01*
X137304914Y-73268721D01*
X137027731Y-73157874D01*
X135982805Y-74202800D01*
X135623595Y-74202800D01*
X134578669Y-73157874D01*
X134301486Y-73268721D01*
X134148111Y-73579640D01*
X134058340Y-73914505D01*
X134035624Y-74260450D01*
X114310060Y-74260450D01*
X114263137Y-74190226D01*
X114118974Y-74046063D01*
X113949456Y-73932795D01*
X113761098Y-73854774D01*
X113561139Y-73815000D01*
X113357261Y-73815000D01*
X113157302Y-73854774D01*
X112968944Y-73932795D01*
X112928333Y-73959930D01*
X112699872Y-73959930D01*
X112662482Y-73948588D01*
X112538000Y-73936328D01*
X111624820Y-73936328D01*
X111624820Y-73748561D01*
X111585046Y-73548602D01*
X111507025Y-73360244D01*
X111393757Y-73190726D01*
X111249594Y-73046563D01*
X111147385Y-72978269D01*
X134758274Y-72978269D01*
X135803200Y-74023195D01*
X136848126Y-72978269D01*
X136737279Y-72701086D01*
X136426360Y-72547711D01*
X136091495Y-72457940D01*
X135745550Y-72435224D01*
X135401820Y-72480434D01*
X135073515Y-72591834D01*
X134869121Y-72701086D01*
X134758274Y-72978269D01*
X111147385Y-72978269D01*
X111080076Y-72933295D01*
X110891718Y-72855274D01*
X110691759Y-72815500D01*
X110487881Y-72815500D01*
X110287922Y-72855274D01*
X110099564Y-72933295D01*
X109930046Y-73046563D01*
X109785883Y-73190726D01*
X109672615Y-73360244D01*
X109595019Y-73547576D01*
X109590494Y-73543863D01*
X109480180Y-73484898D01*
X109360482Y-73448588D01*
X109236000Y-73436328D01*
X106442000Y-73436328D01*
X106317518Y-73448588D01*
X106202099Y-73483600D01*
X105768054Y-73483600D01*
X105719856Y-73451395D01*
X105531498Y-73373374D01*
X105331539Y-73333600D01*
X105127661Y-73333600D01*
X104927702Y-73373374D01*
X104739344Y-73451395D01*
X104569826Y-73564663D01*
X104425663Y-73708826D01*
X104312395Y-73878344D01*
X104234374Y-74066702D01*
X104194600Y-74266661D01*
X104194600Y-74470539D01*
X104234374Y-74670498D01*
X104312395Y-74858856D01*
X104425663Y-75028374D01*
X104569826Y-75172537D01*
X104739344Y-75285805D01*
X104927702Y-75363826D01*
X105127661Y-75403600D01*
X105331539Y-75403600D01*
X105531498Y-75363826D01*
X105719856Y-75285805D01*
X105768054Y-75253600D01*
X106160587Y-75253600D01*
X106197820Y-75273502D01*
X106317518Y-75309812D01*
X106442000Y-75322072D01*
X107986000Y-75322072D01*
X107986000Y-75506200D01*
X107966000Y-75506200D01*
X107966000Y-76252200D01*
X107986000Y-76252200D01*
X107986000Y-76506200D01*
X107966000Y-76506200D01*
X107966000Y-77252200D01*
X107986000Y-77252200D01*
X107986000Y-77436328D01*
X106442000Y-77436328D01*
X106317518Y-77448588D01*
X106197820Y-77484898D01*
X106157967Y-77506200D01*
X105965750Y-77506200D01*
X105924350Y-77547600D01*
X105742654Y-77547600D01*
X105694456Y-77515395D01*
X105506098Y-77437374D01*
X105306139Y-77397600D01*
X105102261Y-77397600D01*
X104902302Y-77437374D01*
X104713944Y-77515395D01*
X104544426Y-77628663D01*
X104400263Y-77772826D01*
X104286995Y-77942344D01*
X104208974Y-78130702D01*
X104169200Y-78330661D01*
X97660000Y-78330661D01*
X97660000Y-76684000D01*
X105803928Y-76684000D01*
X105816188Y-76808482D01*
X105837640Y-76879200D01*
X105816188Y-76949918D01*
X105803928Y-77074400D01*
X105807000Y-77093450D01*
X105965750Y-77252200D01*
X106157967Y-77252200D01*
X106197820Y-77273502D01*
X106317518Y-77309812D01*
X106442000Y-77322072D01*
X107553250Y-77319000D01*
X107620050Y-77252200D01*
X107712000Y-77252200D01*
X107712000Y-76506200D01*
X107620050Y-76506200D01*
X107553250Y-76439400D01*
X106442000Y-76436328D01*
X106317518Y-76448588D01*
X106197820Y-76484898D01*
X106157967Y-76506200D01*
X105965750Y-76506200D01*
X105807000Y-76664950D01*
X105803928Y-76684000D01*
X97660000Y-76684000D01*
X97660000Y-75684000D01*
X105803928Y-75684000D01*
X105816188Y-75808482D01*
X105837640Y-75879200D01*
X105816188Y-75949918D01*
X105803928Y-76074400D01*
X105807000Y-76093450D01*
X105965750Y-76252200D01*
X106157967Y-76252200D01*
X106197820Y-76273502D01*
X106317518Y-76309812D01*
X106442000Y-76322072D01*
X107553250Y-76319000D01*
X107620050Y-76252200D01*
X107712000Y-76252200D01*
X107712000Y-75506200D01*
X107620050Y-75506200D01*
X107553250Y-75439400D01*
X106442000Y-75436328D01*
X106317518Y-75448588D01*
X106197820Y-75484898D01*
X106157967Y-75506200D01*
X105965750Y-75506200D01*
X105807000Y-75664950D01*
X105803928Y-75684000D01*
X97660000Y-75684000D01*
X97660000Y-71499304D01*
X136683200Y-71499304D01*
X136683200Y-71826296D01*
X136746993Y-72147004D01*
X136872127Y-72449105D01*
X137053794Y-72720988D01*
X137285012Y-72952206D01*
X137556895Y-73133873D01*
X137858996Y-73259007D01*
X138179704Y-73322800D01*
X138506696Y-73322800D01*
X138827404Y-73259007D01*
X139129505Y-73133873D01*
X139362382Y-72978269D01*
X139838274Y-72978269D01*
X140883200Y-74023195D01*
X141928126Y-72978269D01*
X141817279Y-72701086D01*
X141506360Y-72547711D01*
X141171495Y-72457940D01*
X140825550Y-72435224D01*
X140481820Y-72480434D01*
X140153515Y-72591834D01*
X139949121Y-72701086D01*
X139838274Y-72978269D01*
X139362382Y-72978269D01*
X139401388Y-72952206D01*
X139632606Y-72720988D01*
X139814273Y-72449105D01*
X139939407Y-72147004D01*
X140003200Y-71826296D01*
X140003200Y-71499304D01*
X139939407Y-71178596D01*
X139814273Y-70876495D01*
X139632606Y-70604612D01*
X139401388Y-70373394D01*
X139362383Y-70347331D01*
X139838274Y-70347331D01*
X139949121Y-70624514D01*
X140260040Y-70777889D01*
X140594905Y-70867660D01*
X140940850Y-70890376D01*
X141284580Y-70845166D01*
X141612885Y-70733766D01*
X141817279Y-70624514D01*
X141928126Y-70347331D01*
X140883200Y-69302405D01*
X139838274Y-70347331D01*
X139362383Y-70347331D01*
X139129505Y-70191727D01*
X138827404Y-70066593D01*
X138506696Y-70002800D01*
X138179704Y-70002800D01*
X137858996Y-70066593D01*
X137556895Y-70191727D01*
X137285012Y-70373394D01*
X137053794Y-70604612D01*
X136872127Y-70876495D01*
X136746993Y-71178596D01*
X136683200Y-71499304D01*
X97660000Y-71499304D01*
X97660000Y-70347331D01*
X134758274Y-70347331D01*
X134869121Y-70624514D01*
X135180040Y-70777889D01*
X135514905Y-70867660D01*
X135860850Y-70890376D01*
X136204580Y-70845166D01*
X136532885Y-70733766D01*
X136737279Y-70624514D01*
X136848126Y-70347331D01*
X135803200Y-69302405D01*
X134758274Y-70347331D01*
X97660000Y-70347331D01*
X97660000Y-69180450D01*
X134035624Y-69180450D01*
X134080834Y-69524180D01*
X134192234Y-69852485D01*
X134301486Y-70056879D01*
X134578669Y-70167726D01*
X135623595Y-69122800D01*
X135982805Y-69122800D01*
X137027731Y-70167726D01*
X137304914Y-70056879D01*
X137458289Y-69745960D01*
X137548060Y-69411095D01*
X137563204Y-69180450D01*
X139115624Y-69180450D01*
X139160834Y-69524180D01*
X139272234Y-69852485D01*
X139381486Y-70056879D01*
X139658669Y-70167726D01*
X140703595Y-69122800D01*
X141062805Y-69122800D01*
X142107731Y-70167726D01*
X142384914Y-70056879D01*
X142538289Y-69745960D01*
X142628060Y-69411095D01*
X142650776Y-69065150D01*
X142605566Y-68721420D01*
X142494166Y-68393115D01*
X142384914Y-68188721D01*
X142107731Y-68077874D01*
X141062805Y-69122800D01*
X140703595Y-69122800D01*
X139658669Y-68077874D01*
X139381486Y-68188721D01*
X139228111Y-68499640D01*
X139138340Y-68834505D01*
X139115624Y-69180450D01*
X137563204Y-69180450D01*
X137570776Y-69065150D01*
X137525566Y-68721420D01*
X137414166Y-68393115D01*
X137304914Y-68188721D01*
X137027731Y-68077874D01*
X135982805Y-69122800D01*
X135623595Y-69122800D01*
X134578669Y-68077874D01*
X134301486Y-68188721D01*
X134148111Y-68499640D01*
X134058340Y-68834505D01*
X134035624Y-69180450D01*
X97660000Y-69180450D01*
X97660000Y-66172881D01*
X100574724Y-66172881D01*
X100934912Y-66662548D01*
X101598882Y-67022849D01*
X102320385Y-67246694D01*
X103071695Y-67325480D01*
X103823938Y-67256178D01*
X104548208Y-67041452D01*
X105216670Y-66689555D01*
X105257088Y-66662548D01*
X105617276Y-66172881D01*
X103096000Y-63651605D01*
X100574724Y-66172881D01*
X97660000Y-66172881D01*
X97660000Y-63447695D01*
X99242520Y-63447695D01*
X99311822Y-64199938D01*
X99526548Y-64924208D01*
X99878445Y-65592670D01*
X99905452Y-65633088D01*
X100395119Y-65993276D01*
X102916395Y-63472000D01*
X103275605Y-63472000D01*
X105796881Y-65993276D01*
X106286548Y-65633088D01*
X106646849Y-64969118D01*
X106870694Y-64247615D01*
X106949480Y-63496305D01*
X106880178Y-62744062D01*
X106665452Y-62019792D01*
X106313555Y-61351330D01*
X106286548Y-61310912D01*
X105796881Y-60950724D01*
X103275605Y-63472000D01*
X102916395Y-63472000D01*
X100395119Y-60950724D01*
X99905452Y-61310912D01*
X99545151Y-61974882D01*
X99321306Y-62696385D01*
X99242520Y-63447695D01*
X97660000Y-63447695D01*
X97660000Y-60771119D01*
X100574724Y-60771119D01*
X103096000Y-63292395D01*
X105617276Y-60771119D01*
X105257088Y-60281452D01*
X104593118Y-59921151D01*
X104097647Y-59767432D01*
X108277600Y-59767432D01*
X108277600Y-60267768D01*
X108375211Y-60758491D01*
X108566681Y-61220741D01*
X108844653Y-61636756D01*
X109198444Y-61990547D01*
X109614459Y-62268519D01*
X109682600Y-62296744D01*
X109682601Y-64088456D01*
X109614459Y-64116681D01*
X109198444Y-64394653D01*
X108844653Y-64748444D01*
X108566681Y-65164459D01*
X108375211Y-65626709D01*
X108277600Y-66117432D01*
X108277600Y-66617768D01*
X108375211Y-67108491D01*
X108566681Y-67570741D01*
X108844653Y-67986756D01*
X109198444Y-68340547D01*
X109614459Y-68618519D01*
X110076709Y-68809989D01*
X110567432Y-68907600D01*
X111067768Y-68907600D01*
X111558491Y-68809989D01*
X112020741Y-68618519D01*
X112436756Y-68340547D01*
X112790547Y-67986756D01*
X113068519Y-67570741D01*
X113096744Y-67502600D01*
X114888456Y-67502600D01*
X114916681Y-67570741D01*
X115194653Y-67986756D01*
X115548444Y-68340547D01*
X115964459Y-68618519D01*
X116426709Y-68809989D01*
X116917432Y-68907600D01*
X117417768Y-68907600D01*
X117908491Y-68809989D01*
X118370741Y-68618519D01*
X118786756Y-68340547D01*
X119140547Y-67986756D01*
X119199672Y-67898269D01*
X134758274Y-67898269D01*
X135803200Y-68943195D01*
X136848126Y-67898269D01*
X139838274Y-67898269D01*
X140883200Y-68943195D01*
X141928126Y-67898269D01*
X141817279Y-67621086D01*
X141506360Y-67467711D01*
X141171495Y-67377940D01*
X140825550Y-67355224D01*
X140481820Y-67400434D01*
X140153515Y-67511834D01*
X139949121Y-67621086D01*
X139838274Y-67898269D01*
X136848126Y-67898269D01*
X136737279Y-67621086D01*
X136426360Y-67467711D01*
X136091495Y-67377940D01*
X135745550Y-67355224D01*
X135401820Y-67400434D01*
X135073515Y-67511834D01*
X134869121Y-67621086D01*
X134758274Y-67898269D01*
X119199672Y-67898269D01*
X119418519Y-67570741D01*
X119609989Y-67108491D01*
X119707600Y-66617768D01*
X119707600Y-66117432D01*
X119609989Y-65626709D01*
X119418519Y-65164459D01*
X119140547Y-64748444D01*
X118786756Y-64394653D01*
X118370741Y-64116681D01*
X118302600Y-64088456D01*
X118302600Y-63090661D01*
X119002800Y-63090661D01*
X119002800Y-63294539D01*
X119042574Y-63494498D01*
X119120595Y-63682856D01*
X119233863Y-63852374D01*
X119378026Y-63996537D01*
X119547544Y-64109805D01*
X119735902Y-64187826D01*
X119935861Y-64227600D01*
X120139739Y-64227600D01*
X120339698Y-64187826D01*
X120528056Y-64109805D01*
X120576254Y-64077600D01*
X122058822Y-64077600D01*
X124771665Y-66790444D01*
X124782974Y-66847298D01*
X124860995Y-67035656D01*
X124974263Y-67205174D01*
X125118426Y-67349337D01*
X125287944Y-67462605D01*
X125476302Y-67540626D01*
X125676261Y-67580400D01*
X125880139Y-67580400D01*
X126080098Y-67540626D01*
X126268456Y-67462605D01*
X126437974Y-67349337D01*
X126582137Y-67205174D01*
X126695405Y-67035656D01*
X126773426Y-66847298D01*
X126813200Y-66647339D01*
X126813200Y-66443461D01*
X126773426Y-66243502D01*
X126732348Y-66144331D01*
X127781274Y-66144331D01*
X127892121Y-66421514D01*
X128203040Y-66574889D01*
X128537905Y-66664660D01*
X128883850Y-66687376D01*
X129227580Y-66642166D01*
X129555885Y-66530766D01*
X129760279Y-66421514D01*
X129871126Y-66144331D01*
X132861274Y-66144331D01*
X132972121Y-66421514D01*
X133283040Y-66574889D01*
X133617905Y-66664660D01*
X133963850Y-66687376D01*
X134307580Y-66642166D01*
X134635885Y-66530766D01*
X134840279Y-66421514D01*
X134951126Y-66144331D01*
X133906200Y-65099405D01*
X132861274Y-66144331D01*
X129871126Y-66144331D01*
X128826200Y-65099405D01*
X127781274Y-66144331D01*
X126732348Y-66144331D01*
X126695405Y-66055144D01*
X126582137Y-65885626D01*
X126437974Y-65741463D01*
X126268456Y-65628195D01*
X126080098Y-65550174D01*
X126023244Y-65538865D01*
X125461829Y-64977450D01*
X127058624Y-64977450D01*
X127103834Y-65321180D01*
X127215234Y-65649485D01*
X127324486Y-65853879D01*
X127601669Y-65964726D01*
X128646595Y-64919800D01*
X129005805Y-64919800D01*
X130050731Y-65964726D01*
X130327914Y-65853879D01*
X130481289Y-65542960D01*
X130571060Y-65208095D01*
X130586204Y-64977450D01*
X132138624Y-64977450D01*
X132183834Y-65321180D01*
X132295234Y-65649485D01*
X132404486Y-65853879D01*
X132681669Y-65964726D01*
X133726595Y-64919800D01*
X134085805Y-64919800D01*
X135130731Y-65964726D01*
X135407914Y-65853879D01*
X135561289Y-65542960D01*
X135651060Y-65208095D01*
X135673776Y-64862150D01*
X135628566Y-64518420D01*
X135517166Y-64190115D01*
X135407914Y-63985721D01*
X135130731Y-63874874D01*
X134085805Y-64919800D01*
X133726595Y-64919800D01*
X132681669Y-63874874D01*
X132404486Y-63985721D01*
X132251111Y-64296640D01*
X132161340Y-64631505D01*
X132138624Y-64977450D01*
X130586204Y-64977450D01*
X130593776Y-64862150D01*
X130548566Y-64518420D01*
X130437166Y-64190115D01*
X130327914Y-63985721D01*
X130050731Y-63874874D01*
X129005805Y-64919800D01*
X128646595Y-64919800D01*
X127601669Y-63874874D01*
X127324486Y-63985721D01*
X127171111Y-64296640D01*
X127081340Y-64631505D01*
X127058624Y-64977450D01*
X125461829Y-64977450D01*
X124179648Y-63695269D01*
X127781274Y-63695269D01*
X128826200Y-64740195D01*
X129871126Y-63695269D01*
X129760279Y-63418086D01*
X129449360Y-63264711D01*
X129114495Y-63174940D01*
X128768550Y-63152224D01*
X128424820Y-63197434D01*
X128096515Y-63308834D01*
X127892121Y-63418086D01*
X127781274Y-63695269D01*
X124179648Y-63695269D01*
X123081934Y-62597556D01*
X123054217Y-62563783D01*
X122919459Y-62453189D01*
X122765713Y-62371011D01*
X122598890Y-62320405D01*
X122468877Y-62307600D01*
X122468869Y-62307600D01*
X122425400Y-62303319D01*
X122381931Y-62307600D01*
X120576254Y-62307600D01*
X120528056Y-62275395D01*
X120385399Y-62216304D01*
X129706200Y-62216304D01*
X129706200Y-62543296D01*
X129769993Y-62864004D01*
X129895127Y-63166105D01*
X130076794Y-63437988D01*
X130308012Y-63669206D01*
X130579895Y-63850873D01*
X130881996Y-63976007D01*
X131202704Y-64039800D01*
X131529696Y-64039800D01*
X131850404Y-63976007D01*
X132152505Y-63850873D01*
X132385382Y-63695269D01*
X132861274Y-63695269D01*
X133906200Y-64740195D01*
X134951126Y-63695269D01*
X134840279Y-63418086D01*
X134529360Y-63264711D01*
X134194495Y-63174940D01*
X133848550Y-63152224D01*
X133504820Y-63197434D01*
X133176515Y-63308834D01*
X132972121Y-63418086D01*
X132861274Y-63695269D01*
X132385382Y-63695269D01*
X132424388Y-63669206D01*
X132655606Y-63437988D01*
X132837273Y-63166105D01*
X132962407Y-62864004D01*
X133026200Y-62543296D01*
X133026200Y-62216304D01*
X132962407Y-61895596D01*
X132837273Y-61593495D01*
X132655606Y-61321612D01*
X132424388Y-61090394D01*
X132385383Y-61064331D01*
X132861274Y-61064331D01*
X132972121Y-61341514D01*
X133283040Y-61494889D01*
X133617905Y-61584660D01*
X133963850Y-61607376D01*
X134307580Y-61562166D01*
X134635885Y-61450766D01*
X134840279Y-61341514D01*
X134951126Y-61064331D01*
X133906200Y-60019405D01*
X132861274Y-61064331D01*
X132385383Y-61064331D01*
X132152505Y-60908727D01*
X131850404Y-60783593D01*
X131529696Y-60719800D01*
X131202704Y-60719800D01*
X130881996Y-60783593D01*
X130579895Y-60908727D01*
X130308012Y-61090394D01*
X130076794Y-61321612D01*
X129895127Y-61593495D01*
X129769993Y-61895596D01*
X129706200Y-62216304D01*
X120385399Y-62216304D01*
X120339698Y-62197374D01*
X120139739Y-62157600D01*
X119935861Y-62157600D01*
X119735902Y-62197374D01*
X119547544Y-62275395D01*
X119378026Y-62388663D01*
X119233863Y-62532826D01*
X119120595Y-62702344D01*
X119042574Y-62890702D01*
X119002800Y-63090661D01*
X118302600Y-63090661D01*
X118302600Y-62296744D01*
X118370741Y-62268519D01*
X118786756Y-61990547D01*
X119140547Y-61636756D01*
X119418519Y-61220741D01*
X119483306Y-61064331D01*
X127781274Y-61064331D01*
X127892121Y-61341514D01*
X128203040Y-61494889D01*
X128537905Y-61584660D01*
X128883850Y-61607376D01*
X129227580Y-61562166D01*
X129555885Y-61450766D01*
X129760279Y-61341514D01*
X129871126Y-61064331D01*
X128826200Y-60019405D01*
X127781274Y-61064331D01*
X119483306Y-61064331D01*
X119609989Y-60758491D01*
X119707600Y-60267768D01*
X119707600Y-59897450D01*
X127058624Y-59897450D01*
X127103834Y-60241180D01*
X127215234Y-60569485D01*
X127324486Y-60773879D01*
X127601669Y-60884726D01*
X128646595Y-59839800D01*
X129005805Y-59839800D01*
X130050731Y-60884726D01*
X130327914Y-60773879D01*
X130481289Y-60462960D01*
X130571060Y-60128095D01*
X130586204Y-59897450D01*
X132138624Y-59897450D01*
X132183834Y-60241180D01*
X132295234Y-60569485D01*
X132404486Y-60773879D01*
X132681669Y-60884726D01*
X133726595Y-59839800D01*
X134085805Y-59839800D01*
X135130731Y-60884726D01*
X135407914Y-60773879D01*
X135561289Y-60462960D01*
X135651060Y-60128095D01*
X135673776Y-59782150D01*
X135628566Y-59438420D01*
X135517166Y-59110115D01*
X135407914Y-58905721D01*
X135130731Y-58794874D01*
X134085805Y-59839800D01*
X133726595Y-59839800D01*
X132681669Y-58794874D01*
X132404486Y-58905721D01*
X132251111Y-59216640D01*
X132161340Y-59551505D01*
X132138624Y-59897450D01*
X130586204Y-59897450D01*
X130593776Y-59782150D01*
X130548566Y-59438420D01*
X130437166Y-59110115D01*
X130327914Y-58905721D01*
X130050731Y-58794874D01*
X129005805Y-59839800D01*
X128646595Y-59839800D01*
X127601669Y-58794874D01*
X127324486Y-58905721D01*
X127171111Y-59216640D01*
X127081340Y-59551505D01*
X127058624Y-59897450D01*
X119707600Y-59897450D01*
X119707600Y-59767432D01*
X119609989Y-59276709D01*
X119418519Y-58814459D01*
X119285425Y-58615269D01*
X127781274Y-58615269D01*
X128826200Y-59660195D01*
X129871126Y-58615269D01*
X132861274Y-58615269D01*
X133906200Y-59660195D01*
X134951126Y-58615269D01*
X134840279Y-58338086D01*
X134529360Y-58184711D01*
X134194495Y-58094940D01*
X133848550Y-58072224D01*
X133504820Y-58117434D01*
X133176515Y-58228834D01*
X132972121Y-58338086D01*
X132861274Y-58615269D01*
X129871126Y-58615269D01*
X129760279Y-58338086D01*
X129449360Y-58184711D01*
X129114495Y-58094940D01*
X128768550Y-58072224D01*
X128424820Y-58117434D01*
X128096515Y-58228834D01*
X127892121Y-58338086D01*
X127781274Y-58615269D01*
X119285425Y-58615269D01*
X119140547Y-58398444D01*
X118786756Y-58044653D01*
X118370741Y-57766681D01*
X117908491Y-57575211D01*
X117417768Y-57477600D01*
X116917432Y-57477600D01*
X116426709Y-57575211D01*
X115964459Y-57766681D01*
X115548444Y-58044653D01*
X115194653Y-58398444D01*
X114916681Y-58814459D01*
X114888456Y-58882600D01*
X113096744Y-58882600D01*
X113068519Y-58814459D01*
X112790547Y-58398444D01*
X112436756Y-58044653D01*
X112020741Y-57766681D01*
X111558491Y-57575211D01*
X111067768Y-57477600D01*
X110567432Y-57477600D01*
X110076709Y-57575211D01*
X109614459Y-57766681D01*
X109198444Y-58044653D01*
X108844653Y-58398444D01*
X108566681Y-58814459D01*
X108375211Y-59276709D01*
X108277600Y-59767432D01*
X104097647Y-59767432D01*
X103871615Y-59697306D01*
X103120305Y-59618520D01*
X102368062Y-59687822D01*
X101643792Y-59902548D01*
X100975330Y-60254445D01*
X100934912Y-60281452D01*
X100574724Y-60771119D01*
X97660000Y-60771119D01*
X97660000Y-56660000D01*
X146340000Y-56660000D01*
X146340001Y-96340000D01*
G37*
G04 #@! TD.AperFunction*
M02*
