G04 #@! TF.GenerationSoftware,KiCad,Pcbnew,(5.1.12)-1*
G04 #@! TF.CreationDate,2021-12-16T18:47:01+01:00*
G04 #@! TF.ProjectId,eth_phy_KSZ8041MLL_poe,6574685f-7068-4795-9f4b-535a38303431,rev?*
G04 #@! TF.SameCoordinates,Original*
G04 #@! TF.FileFunction,Soldermask,Bot*
G04 #@! TF.FilePolarity,Negative*
%FSLAX46Y46*%
G04 Gerber Fmt 4.6, Leading zero omitted, Abs format (unit mm)*
G04 Created by KiCad (PCBNEW (5.1.12)-1) date 2021-12-16 18:47:01*
%MOMM*%
%LPD*%
G01*
G04 APERTURE LIST*
%ADD10C,1.600000*%
%ADD11R,1.500000X1.500000*%
%ADD12C,1.500000*%
%ADD13C,2.200000*%
%ADD14C,3.250000*%
%ADD15R,1.700000X1.700000*%
%ADD16O,1.700000X1.700000*%
%ADD17C,3.810000*%
%ADD18C,3.556000*%
%ADD19C,0.800000*%
%ADD20C,6.400000*%
G04 APERTURE END LIST*
D10*
X191260000Y-75316000D03*
X193290000Y-75316000D03*
X191260000Y-88766000D03*
D11*
X177800000Y-87630000D03*
D12*
X177800000Y-85090000D03*
X177800000Y-82550000D03*
X177800000Y-80010000D03*
X177800000Y-77470000D03*
X180340000Y-86360000D03*
X180340000Y-83820000D03*
X180340000Y-81280000D03*
X180340000Y-78740000D03*
D13*
X183642000Y-89916000D03*
D14*
X186690000Y-87630000D03*
X186690000Y-76200000D03*
D13*
X183640000Y-74170000D03*
D10*
X193290000Y-88766000D03*
D12*
X180340000Y-76200000D03*
D15*
X116840000Y-66294000D03*
D16*
X119380000Y-66294000D03*
X116840000Y-68834000D03*
X119380000Y-68834000D03*
X116840000Y-71374000D03*
X119380000Y-71374000D03*
X116840000Y-73914000D03*
X119380000Y-73914000D03*
X116840000Y-76454000D03*
X119380000Y-76454000D03*
X116840000Y-78994000D03*
X119380000Y-78994000D03*
X116840000Y-81534000D03*
X119380000Y-81534000D03*
X116840000Y-84074000D03*
X119380000Y-84074000D03*
X116840000Y-86614000D03*
X119380000Y-86614000D03*
X116840000Y-89154000D03*
X119380000Y-89154000D03*
X116840000Y-91694000D03*
X119380000Y-91694000D03*
X116840000Y-94234000D03*
X119380000Y-94234000D03*
D17*
X176657000Y-59867800D03*
D18*
X179832000Y-63042800D03*
D17*
X183007000Y-59867800D03*
X176657000Y-66217800D03*
X183007000Y-66217800D03*
D19*
X193697056Y-55302944D03*
X192000000Y-54600000D03*
X190302944Y-55302944D03*
X189600000Y-57000000D03*
X190302944Y-58697056D03*
X192000000Y-59400000D03*
X193697056Y-58697056D03*
X194400000Y-57000000D03*
D20*
X192000000Y-57000000D03*
X114000000Y-105000000D03*
D19*
X116400000Y-105000000D03*
X115697056Y-106697056D03*
X114000000Y-107400000D03*
X112302944Y-106697056D03*
X111600000Y-105000000D03*
X112302944Y-103302944D03*
X114000000Y-102600000D03*
X115697056Y-103302944D03*
X193697056Y-103302944D03*
X192000000Y-102600000D03*
X190302944Y-103302944D03*
X189600000Y-105000000D03*
X190302944Y-106697056D03*
X192000000Y-107400000D03*
X193697056Y-106697056D03*
X194400000Y-105000000D03*
D20*
X192000000Y-105000000D03*
X114000000Y-57000000D03*
D19*
X116400000Y-57000000D03*
X115697056Y-58697056D03*
X114000000Y-59400000D03*
X112302944Y-58697056D03*
X111600000Y-57000000D03*
X112302944Y-55302944D03*
X114000000Y-54600000D03*
X115697056Y-55302944D03*
M02*
