%FSLAX45Y45*%
G04 Gerber Fmt 4.5, Leading zero omitted, Abs format (unit mm)*
G04 Created by KiCad (PCBNEW (5.1.12)-1) date 2021-12-16 18:47:07*
%MOMM*%
%LPD*%
G01*
G04 APERTURE LIST*
%TA.AperFunction,Profile*%
%ADD10C,0.050000*%
%TD*%
%ADD11C,0.200000*%
%ADD12C,0.300000*%
G04 APERTURE END LIST*
D10*
X10800000Y-5100000D02*
X19800000Y-5100000D01*
X10800000Y-11100000D02*
X10800000Y-5100000D01*
X19800000Y-11100000D02*
X10800000Y-11100000D01*
X19800000Y-5100000D02*
X19800000Y-11100000D01*
D11*
X18506500Y-7457500D02*
X18831500Y-7782500D01*
X18831500Y-7457500D02*
X18506500Y-7782500D01*
X18506500Y-8600500D02*
X18831500Y-8925500D01*
X18831500Y-8600500D02*
X18506500Y-8925500D01*
D12*
X11083928Y-11568214D02*
X11083928Y-11268214D01*
X11155357Y-11268214D01*
X11198214Y-11282500D01*
X11226786Y-11311071D01*
X11241071Y-11339643D01*
X11255357Y-11396786D01*
X11255357Y-11439643D01*
X11241071Y-11496786D01*
X11226786Y-11525357D01*
X11198214Y-11553929D01*
X11155357Y-11568214D01*
X11083928Y-11568214D01*
X11383928Y-11568214D02*
X11383928Y-11368214D01*
X11383928Y-11425357D02*
X11398214Y-11396786D01*
X11412500Y-11382500D01*
X11441071Y-11368214D01*
X11469643Y-11368214D01*
X11569643Y-11568214D02*
X11569643Y-11368214D01*
X11569643Y-11268214D02*
X11555357Y-11282500D01*
X11569643Y-11296786D01*
X11583928Y-11282500D01*
X11569643Y-11268214D01*
X11569643Y-11296786D01*
X11755357Y-11568214D02*
X11726786Y-11553929D01*
X11712500Y-11525357D01*
X11712500Y-11268214D01*
X11912500Y-11568214D02*
X11883928Y-11553929D01*
X11869643Y-11525357D01*
X11869643Y-11268214D01*
X12255357Y-11568214D02*
X12255357Y-11268214D01*
X12355357Y-11482500D01*
X12455357Y-11268214D01*
X12455357Y-11568214D01*
X12726786Y-11568214D02*
X12726786Y-11411071D01*
X12712500Y-11382500D01*
X12683928Y-11368214D01*
X12626786Y-11368214D01*
X12598214Y-11382500D01*
X12726786Y-11553929D02*
X12698214Y-11568214D01*
X12626786Y-11568214D01*
X12598214Y-11553929D01*
X12583928Y-11525357D01*
X12583928Y-11496786D01*
X12598214Y-11468214D01*
X12626786Y-11453929D01*
X12698214Y-11453929D01*
X12726786Y-11439643D01*
X12869643Y-11368214D02*
X12869643Y-11668214D01*
X12869643Y-11382500D02*
X12898214Y-11368214D01*
X12955357Y-11368214D01*
X12983928Y-11382500D01*
X12998214Y-11396786D01*
X13012500Y-11425357D01*
X13012500Y-11511071D01*
X12998214Y-11539643D01*
X12983928Y-11553929D01*
X12955357Y-11568214D01*
X12898214Y-11568214D01*
X12869643Y-11553929D01*
X13141071Y-11539643D02*
X13155357Y-11553929D01*
X13141071Y-11568214D01*
X13126786Y-11553929D01*
X13141071Y-11539643D01*
X13141071Y-11568214D01*
X13141071Y-11382500D02*
X13155357Y-11396786D01*
X13141071Y-11411071D01*
X13126786Y-11396786D01*
X13141071Y-11382500D01*
X13141071Y-11411071D01*
X10472500Y-11900000D02*
X10797500Y-12225000D01*
X10797500Y-11900000D02*
X10472500Y-12225000D01*
X11055357Y-11898214D02*
X11241071Y-11898214D01*
X11141071Y-12012500D01*
X11183928Y-12012500D01*
X11212500Y-12026786D01*
X11226786Y-12041071D01*
X11241071Y-12069643D01*
X11241071Y-12141071D01*
X11226786Y-12169643D01*
X11212500Y-12183929D01*
X11183928Y-12198214D01*
X11098214Y-12198214D01*
X11069643Y-12183929D01*
X11055357Y-12169643D01*
X11369643Y-12169643D02*
X11383928Y-12183929D01*
X11369643Y-12198214D01*
X11355357Y-12183929D01*
X11369643Y-12169643D01*
X11369643Y-12198214D01*
X11498214Y-11926786D02*
X11512500Y-11912500D01*
X11541071Y-11898214D01*
X11612500Y-11898214D01*
X11641071Y-11912500D01*
X11655357Y-11926786D01*
X11669643Y-11955357D01*
X11669643Y-11983929D01*
X11655357Y-12026786D01*
X11483928Y-12198214D01*
X11669643Y-12198214D01*
X11941071Y-11898214D02*
X11798214Y-11898214D01*
X11783928Y-12041071D01*
X11798214Y-12026786D01*
X11826786Y-12012500D01*
X11898214Y-12012500D01*
X11926786Y-12026786D01*
X11941071Y-12041071D01*
X11955357Y-12069643D01*
X11955357Y-12141071D01*
X11941071Y-12169643D01*
X11926786Y-12183929D01*
X11898214Y-12198214D01*
X11826786Y-12198214D01*
X11798214Y-12183929D01*
X11783928Y-12169643D01*
X12141071Y-11898214D02*
X12169643Y-11898214D01*
X12198214Y-11912500D01*
X12212500Y-11926786D01*
X12226786Y-11955357D01*
X12241071Y-12012500D01*
X12241071Y-12083929D01*
X12226786Y-12141071D01*
X12212500Y-12169643D01*
X12198214Y-12183929D01*
X12169643Y-12198214D01*
X12141071Y-12198214D01*
X12112500Y-12183929D01*
X12098214Y-12169643D01*
X12083928Y-12141071D01*
X12069643Y-12083929D01*
X12069643Y-12012500D01*
X12083928Y-11955357D01*
X12098214Y-11926786D01*
X12112500Y-11912500D01*
X12141071Y-11898214D01*
X12369643Y-12198214D02*
X12369643Y-11998214D01*
X12369643Y-12026786D02*
X12383928Y-12012500D01*
X12412500Y-11998214D01*
X12455357Y-11998214D01*
X12483928Y-12012500D01*
X12498214Y-12041071D01*
X12498214Y-12198214D01*
X12498214Y-12041071D02*
X12512500Y-12012500D01*
X12541071Y-11998214D01*
X12583928Y-11998214D01*
X12612500Y-12012500D01*
X12626786Y-12041071D01*
X12626786Y-12198214D01*
X12769643Y-12198214D02*
X12769643Y-11998214D01*
X12769643Y-12026786D02*
X12783928Y-12012500D01*
X12812500Y-11998214D01*
X12855357Y-11998214D01*
X12883928Y-12012500D01*
X12898214Y-12041071D01*
X12898214Y-12198214D01*
X12898214Y-12041071D02*
X12912500Y-12012500D01*
X12941071Y-11998214D01*
X12983928Y-11998214D01*
X13012500Y-12012500D01*
X13026786Y-12041071D01*
X13026786Y-12198214D01*
X13612500Y-11883929D02*
X13355357Y-12269643D01*
X13998214Y-11898214D02*
X14026786Y-11898214D01*
X14055357Y-11912500D01*
X14069643Y-11926786D01*
X14083928Y-11955357D01*
X14098214Y-12012500D01*
X14098214Y-12083929D01*
X14083928Y-12141071D01*
X14069643Y-12169643D01*
X14055357Y-12183929D01*
X14026786Y-12198214D01*
X13998214Y-12198214D01*
X13969643Y-12183929D01*
X13955357Y-12169643D01*
X13941071Y-12141071D01*
X13926786Y-12083929D01*
X13926786Y-12012500D01*
X13941071Y-11955357D01*
X13955357Y-11926786D01*
X13969643Y-11912500D01*
X13998214Y-11898214D01*
X14226786Y-12169643D02*
X14241071Y-12183929D01*
X14226786Y-12198214D01*
X14212500Y-12183929D01*
X14226786Y-12169643D01*
X14226786Y-12198214D01*
X14526786Y-12198214D02*
X14355357Y-12198214D01*
X14441071Y-12198214D02*
X14441071Y-11898214D01*
X14412500Y-11941071D01*
X14383928Y-11969643D01*
X14355357Y-11983929D01*
X14641071Y-11926786D02*
X14655357Y-11912500D01*
X14683928Y-11898214D01*
X14755357Y-11898214D01*
X14783928Y-11912500D01*
X14798214Y-11926786D01*
X14812500Y-11955357D01*
X14812500Y-11983929D01*
X14798214Y-12026786D01*
X14626786Y-12198214D01*
X14812500Y-12198214D01*
X14983928Y-12026786D02*
X14955357Y-12012500D01*
X14941071Y-11998214D01*
X14926786Y-11969643D01*
X14926786Y-11955357D01*
X14941071Y-11926786D01*
X14955357Y-11912500D01*
X14983928Y-11898214D01*
X15041071Y-11898214D01*
X15069643Y-11912500D01*
X15083928Y-11926786D01*
X15098214Y-11955357D01*
X15098214Y-11969643D01*
X15083928Y-11998214D01*
X15069643Y-12012500D01*
X15041071Y-12026786D01*
X14983928Y-12026786D01*
X14955357Y-12041071D01*
X14941071Y-12055357D01*
X14926786Y-12083929D01*
X14926786Y-12141071D01*
X14941071Y-12169643D01*
X14955357Y-12183929D01*
X14983928Y-12198214D01*
X15041071Y-12198214D01*
X15069643Y-12183929D01*
X15083928Y-12169643D01*
X15098214Y-12141071D01*
X15098214Y-12083929D01*
X15083928Y-12055357D01*
X15069643Y-12041071D01*
X15041071Y-12026786D01*
X15283928Y-11898214D02*
X15312500Y-11898214D01*
X15341071Y-11912500D01*
X15355357Y-11926786D01*
X15369643Y-11955357D01*
X15383928Y-12012500D01*
X15383928Y-12083929D01*
X15369643Y-12141071D01*
X15355357Y-12169643D01*
X15341071Y-12183929D01*
X15312500Y-12198214D01*
X15283928Y-12198214D01*
X15255357Y-12183929D01*
X15241071Y-12169643D01*
X15226786Y-12141071D01*
X15212500Y-12083929D01*
X15212500Y-12012500D01*
X15226786Y-11955357D01*
X15241071Y-11926786D01*
X15255357Y-11912500D01*
X15283928Y-11898214D01*
X15498214Y-11898214D02*
X15498214Y-11955357D01*
X15612500Y-11898214D02*
X15612500Y-11955357D01*
X16055357Y-12312500D02*
X16041071Y-12298214D01*
X16012500Y-12255357D01*
X15998214Y-12226786D01*
X15983928Y-12183929D01*
X15969643Y-12112500D01*
X15969643Y-12055357D01*
X15983928Y-11983929D01*
X15998214Y-11941071D01*
X16012500Y-11912500D01*
X16041071Y-11869643D01*
X16055357Y-11855357D01*
X16155357Y-11926786D02*
X16169643Y-11912500D01*
X16198214Y-11898214D01*
X16269643Y-11898214D01*
X16298214Y-11912500D01*
X16312500Y-11926786D01*
X16326786Y-11955357D01*
X16326786Y-11983929D01*
X16312500Y-12026786D01*
X16141071Y-12198214D01*
X16326786Y-12198214D01*
X16683928Y-12198214D02*
X16683928Y-11898214D01*
X16812500Y-12198214D02*
X16812500Y-12041071D01*
X16798214Y-12012500D01*
X16769643Y-11998214D01*
X16726786Y-11998214D01*
X16698214Y-12012500D01*
X16683928Y-12026786D01*
X16998214Y-12198214D02*
X16969643Y-12183929D01*
X16955357Y-12169643D01*
X16941071Y-12141071D01*
X16941071Y-12055357D01*
X16955357Y-12026786D01*
X16969643Y-12012500D01*
X16998214Y-11998214D01*
X17041071Y-11998214D01*
X17069643Y-12012500D01*
X17083928Y-12026786D01*
X17098214Y-12055357D01*
X17098214Y-12141071D01*
X17083928Y-12169643D01*
X17069643Y-12183929D01*
X17041071Y-12198214D01*
X16998214Y-12198214D01*
X17269643Y-12198214D02*
X17241071Y-12183929D01*
X17226786Y-12155357D01*
X17226786Y-11898214D01*
X17498214Y-12183929D02*
X17469643Y-12198214D01*
X17412500Y-12198214D01*
X17383928Y-12183929D01*
X17369643Y-12155357D01*
X17369643Y-12041071D01*
X17383928Y-12012500D01*
X17412500Y-11998214D01*
X17469643Y-11998214D01*
X17498214Y-12012500D01*
X17512500Y-12041071D01*
X17512500Y-12069643D01*
X17369643Y-12098214D01*
X17626786Y-12183929D02*
X17655357Y-12198214D01*
X17712500Y-12198214D01*
X17741071Y-12183929D01*
X17755357Y-12155357D01*
X17755357Y-12141071D01*
X17741071Y-12112500D01*
X17712500Y-12098214D01*
X17669643Y-12098214D01*
X17641071Y-12083929D01*
X17626786Y-12055357D01*
X17626786Y-12041071D01*
X17641071Y-12012500D01*
X17669643Y-11998214D01*
X17712500Y-11998214D01*
X17741071Y-12012500D01*
X17855357Y-12312500D02*
X17869643Y-12298214D01*
X17898214Y-12255357D01*
X17912500Y-12226786D01*
X17926786Y-12183929D01*
X17941071Y-12112500D01*
X17941071Y-12055357D01*
X17926786Y-11983929D01*
X17912500Y-11941071D01*
X17898214Y-11912500D01*
X17869643Y-11869643D01*
X17855357Y-11855357D01*
X18398214Y-12312500D02*
X18383928Y-12298214D01*
X18355357Y-12255357D01*
X18341071Y-12226786D01*
X18326786Y-12183929D01*
X18312500Y-12112500D01*
X18312500Y-12055357D01*
X18326786Y-11983929D01*
X18341071Y-11941071D01*
X18355357Y-11912500D01*
X18383928Y-11869643D01*
X18398214Y-11855357D01*
X18512500Y-11998214D02*
X18512500Y-12198214D01*
X18512500Y-12026786D02*
X18526786Y-12012500D01*
X18555357Y-11998214D01*
X18598214Y-11998214D01*
X18626786Y-12012500D01*
X18641071Y-12041071D01*
X18641071Y-12198214D01*
X18826786Y-12198214D02*
X18798214Y-12183929D01*
X18783928Y-12169643D01*
X18769643Y-12141071D01*
X18769643Y-12055357D01*
X18783928Y-12026786D01*
X18798214Y-12012500D01*
X18826786Y-11998214D01*
X18869643Y-11998214D01*
X18898214Y-12012500D01*
X18912500Y-12026786D01*
X18926786Y-12055357D01*
X18926786Y-12141071D01*
X18912500Y-12169643D01*
X18898214Y-12183929D01*
X18869643Y-12198214D01*
X18826786Y-12198214D01*
X19012500Y-11998214D02*
X19126786Y-11998214D01*
X19055357Y-11898214D02*
X19055357Y-12155357D01*
X19069643Y-12183929D01*
X19098214Y-12198214D01*
X19126786Y-12198214D01*
X19455357Y-11998214D02*
X19455357Y-12298214D01*
X19455357Y-12012500D02*
X19483928Y-11998214D01*
X19541071Y-11998214D01*
X19569643Y-12012500D01*
X19583928Y-12026786D01*
X19598214Y-12055357D01*
X19598214Y-12141071D01*
X19583928Y-12169643D01*
X19569643Y-12183929D01*
X19541071Y-12198214D01*
X19483928Y-12198214D01*
X19455357Y-12183929D01*
X19769643Y-12198214D02*
X19741071Y-12183929D01*
X19726786Y-12155357D01*
X19726786Y-11898214D01*
X20012500Y-12198214D02*
X20012500Y-12041071D01*
X19998214Y-12012500D01*
X19969643Y-11998214D01*
X19912500Y-11998214D01*
X19883928Y-12012500D01*
X20012500Y-12183929D02*
X19983928Y-12198214D01*
X19912500Y-12198214D01*
X19883928Y-12183929D01*
X19869643Y-12155357D01*
X19869643Y-12126786D01*
X19883928Y-12098214D01*
X19912500Y-12083929D01*
X19983928Y-12083929D01*
X20012500Y-12069643D01*
X20112500Y-11998214D02*
X20226786Y-11998214D01*
X20155357Y-11898214D02*
X20155357Y-12155357D01*
X20169643Y-12183929D01*
X20198214Y-12198214D01*
X20226786Y-12198214D01*
X20441071Y-12183929D02*
X20412500Y-12198214D01*
X20355357Y-12198214D01*
X20326786Y-12183929D01*
X20312500Y-12155357D01*
X20312500Y-12041071D01*
X20326786Y-12012500D01*
X20355357Y-11998214D01*
X20412500Y-11998214D01*
X20441071Y-12012500D01*
X20455357Y-12041071D01*
X20455357Y-12069643D01*
X20312500Y-12098214D01*
X20712500Y-12198214D02*
X20712500Y-11898214D01*
X20712500Y-12183929D02*
X20683928Y-12198214D01*
X20626786Y-12198214D01*
X20598214Y-12183929D01*
X20583928Y-12169643D01*
X20569643Y-12141071D01*
X20569643Y-12055357D01*
X20583928Y-12026786D01*
X20598214Y-12012500D01*
X20626786Y-11998214D01*
X20683928Y-11998214D01*
X20712500Y-12012500D01*
X20826786Y-12312500D02*
X20841071Y-12298214D01*
X20869643Y-12255357D01*
X20883928Y-12226786D01*
X20898214Y-12183929D01*
X20912500Y-12112500D01*
X20912500Y-12055357D01*
X20898214Y-11983929D01*
X20883928Y-11941071D01*
X20869643Y-11912500D01*
X20841071Y-11869643D01*
X20826786Y-11855357D01*
M02*
