M48
; DRILL file {KiCad (5.1.12)-1} date 12/16/21 18:47:07
; FORMAT={-:-/ absolute / metric / decimal}
; #@! TF.CreationDate,2021-12-16T18:47:07+01:00
; #@! TF.GenerationSoftware,Kicad,Pcbnew,(5.1.12)-1
; #@! TF.FileFunction,Plated,1,2,PTH
FMAT,2
METRIC
T1C0.400
T2C0.500
T3C0.800
T4C0.900
T5C1.000
T6C1.020
T7C1.270
T8C1.524
T9C1.600
T10C3.200
%
G90
G05
T1
X114.935Y-77.47
X121.163Y-80.777
X121.449Y-87.884
X121.666Y-75.184
X122.174Y-85.344
X122.174Y-92.456
X122.174Y-93.472
X122.687Y-79.253
X122.936Y-82.804
X124.206Y-80.772
X124.968Y-79.248
X125.222Y-91.44
X126.492Y-72.644
X127.0Y-89.916
X127.254Y-70.104
X129.286Y-87.63
X129.54Y-78.105
X129.54Y-80.01
X130.81Y-86.36
X131.572Y-85.598
X132.08Y-80.01
X132.131Y-82.906
X132.334Y-84.836
X133.604Y-70.104
X133.604Y-72.644
X135.128Y-86.614
X135.128Y-88.392
X136.397Y-82.803
X136.525Y-70.104
X136.525Y-72.644
X137.668Y-77.216
X137.922Y-86.614
X137.922Y-88.392
X138.684Y-78.486
X139.446Y-77.216
X139.7Y-70.104
X139.7Y-72.644
X139.7Y-95.885
X140.97Y-80.01
X140.97Y-82.55
X140.97Y-85.09
X142.24Y-93.98
X143.51Y-80.01
X143.51Y-82.55
X143.51Y-85.09
X144.526Y-94.488
X146.05Y-80.01
X146.05Y-82.55
X146.05Y-85.09
X147.955Y-78.105
X147.955Y-86.995
X149.86Y-92.964
X152.4Y-71.12
X154.432Y-86.868
X155.956Y-83.566
X156.0Y-76.0
X159.0Y-76.0
X161.0Y-83.0
X162.0Y-76.0
X163.0Y-84.0
X165.0Y-76.0
X165.0Y-86.0
X168.0Y-76.0
X168.0Y-86.0
X169.0Y-80.0
X169.0Y-82.0
X171.0Y-76.0
X171.0Y-86.0
X172.0Y-80.0
X172.0Y-82.0
X174.0Y-76.0
X174.0Y-86.0
X175.158Y-93.929
X182.524Y-77.978
X182.778Y-81.636
X183.337Y-91.999
X184.15Y-98.425
X189.789Y-83.414
X194.92Y-80.823
T2
X111.6Y-57.0
X111.6Y-105.0
X112.303Y-55.303
X112.303Y-58.697
X112.303Y-103.303
X112.303Y-106.697
X114.0Y-54.6
X114.0Y-59.4
X114.0Y-102.6
X114.0Y-107.4
X115.697Y-55.303
X115.697Y-58.697
X115.697Y-103.303
X115.697Y-106.697
X116.4Y-57.0
X116.4Y-105.0
X189.6Y-57.0
X189.6Y-105.0
X190.303Y-55.303
X190.303Y-58.697
X190.303Y-103.303
X190.303Y-106.697
X192.0Y-54.6
X192.0Y-59.4
X192.0Y-102.6
X192.0Y-107.4
X193.697Y-55.303
X193.697Y-58.697
X193.697Y-103.303
X193.697Y-106.697
X194.4Y-57.0
X194.4Y-105.0
T3
X112.0Y-98.0
X123.0Y-55.0
X124.0Y-106.0
X131.953Y-64.897
X132.08Y-77.47
X137.5Y-55.0
X140.0Y-64.0
X150.0Y-55.0
X152.5Y-105.0
X155.0Y-62.5
X155.829Y-85.09
X158.0Y-99.0
X162.5Y-55.0
X162.5Y-62.5
X162.5Y-92.5
X170.0Y-62.5
X170.0Y-70.0
X172.0Y-99.0
X172.5Y-92.5
X172.5Y-105.0
T4
X177.8Y-77.47
X177.8Y-80.01
X177.8Y-82.55
X177.8Y-85.09
X177.8Y-87.63
X180.34Y-76.2
X180.34Y-78.74
X180.34Y-81.28
X180.34Y-83.82
X180.34Y-86.36
T5
X116.84Y-66.294
X116.84Y-68.834
X116.84Y-71.374
X116.84Y-73.914
X116.84Y-76.454
X116.84Y-78.994
X116.84Y-81.534
X116.84Y-84.074
X116.84Y-86.614
X116.84Y-89.154
X116.84Y-91.694
X116.84Y-94.234
X119.38Y-66.294
X119.38Y-68.834
X119.38Y-71.374
X119.38Y-73.914
X119.38Y-76.454
X119.38Y-78.994
X119.38Y-81.534
X119.38Y-84.074
X119.38Y-86.614
X119.38Y-89.154
X119.38Y-91.694
X119.38Y-94.234
T6
X191.26Y-75.316
X191.26Y-88.766
X193.29Y-75.316
X193.29Y-88.766
T7
X179.832Y-63.043
T8
X176.657Y-59.868
X176.657Y-66.218
X183.007Y-59.868
X183.007Y-66.218
T9
X183.64Y-74.17
X183.642Y-89.916
T10
X114.0Y-57.0
X114.0Y-105.0
X192.0Y-57.0
X192.0Y-105.0
T0
M30
