G04 #@! TF.GenerationSoftware,KiCad,Pcbnew,(5.1.12)-1*
G04 #@! TF.CreationDate,2021-12-16T18:47:01+01:00*
G04 #@! TF.ProjectId,eth_phy_KSZ8041MLL_poe,6574685f-7068-4795-9f4b-535a38303431,rev?*
G04 #@! TF.SameCoordinates,Original*
G04 #@! TF.FileFunction,Copper,L2,Bot*
G04 #@! TF.FilePolarity,Positive*
%FSLAX46Y46*%
G04 Gerber Fmt 4.6, Leading zero omitted, Abs format (unit mm)*
G04 Created by KiCad (PCBNEW (5.1.12)-1) date 2021-12-16 18:47:01*
%MOMM*%
%LPD*%
G01*
G04 APERTURE LIST*
G04 #@! TA.AperFunction,ComponentPad*
%ADD10C,1.600000*%
G04 #@! TD*
G04 #@! TA.AperFunction,ComponentPad*
%ADD11R,1.500000X1.500000*%
G04 #@! TD*
G04 #@! TA.AperFunction,ComponentPad*
%ADD12C,1.500000*%
G04 #@! TD*
G04 #@! TA.AperFunction,ComponentPad*
%ADD13C,2.200000*%
G04 #@! TD*
G04 #@! TA.AperFunction,ComponentPad*
%ADD14R,1.700000X1.700000*%
G04 #@! TD*
G04 #@! TA.AperFunction,ComponentPad*
%ADD15O,1.700000X1.700000*%
G04 #@! TD*
G04 #@! TA.AperFunction,ComponentPad*
%ADD16C,3.810000*%
G04 #@! TD*
G04 #@! TA.AperFunction,ComponentPad*
%ADD17C,3.556000*%
G04 #@! TD*
G04 #@! TA.AperFunction,ComponentPad*
%ADD18C,0.800000*%
G04 #@! TD*
G04 #@! TA.AperFunction,ComponentPad*
%ADD19C,6.400000*%
G04 #@! TD*
G04 #@! TA.AperFunction,ViaPad*
%ADD20C,1.600000*%
G04 #@! TD*
G04 #@! TA.AperFunction,ViaPad*
%ADD21C,0.800000*%
G04 #@! TD*
G04 #@! TA.AperFunction,Conductor*
%ADD22C,1.000000*%
G04 #@! TD*
G04 #@! TA.AperFunction,Conductor*
%ADD23C,0.500000*%
G04 #@! TD*
G04 #@! TA.AperFunction,Conductor*
%ADD24C,0.250000*%
G04 #@! TD*
G04 #@! TA.AperFunction,Conductor*
%ADD25C,0.254000*%
G04 #@! TD*
G04 #@! TA.AperFunction,Conductor*
%ADD26C,0.100000*%
G04 #@! TD*
G04 APERTURE END LIST*
D10*
X191260000Y-75316000D03*
X193290000Y-75316000D03*
X191260000Y-88766000D03*
D11*
X177800000Y-87630000D03*
D12*
X177800000Y-85090000D03*
X177800000Y-82550000D03*
X177800000Y-80010000D03*
X177800000Y-77470000D03*
X180340000Y-86360000D03*
X180340000Y-83820000D03*
X180340000Y-81280000D03*
X180340000Y-78740000D03*
D13*
X183642000Y-89916000D03*
X183640000Y-74170000D03*
D10*
X193290000Y-88766000D03*
D12*
X180340000Y-76200000D03*
D14*
X116840000Y-66294000D03*
D15*
X119380000Y-66294000D03*
X116840000Y-68834000D03*
X119380000Y-68834000D03*
X116840000Y-71374000D03*
X119380000Y-71374000D03*
X116840000Y-73914000D03*
X119380000Y-73914000D03*
X116840000Y-76454000D03*
X119380000Y-76454000D03*
X116840000Y-78994000D03*
X119380000Y-78994000D03*
X116840000Y-81534000D03*
X119380000Y-81534000D03*
X116840000Y-84074000D03*
X119380000Y-84074000D03*
X116840000Y-86614000D03*
X119380000Y-86614000D03*
X116840000Y-89154000D03*
X119380000Y-89154000D03*
X116840000Y-91694000D03*
X119380000Y-91694000D03*
X116840000Y-94234000D03*
X119380000Y-94234000D03*
D16*
X176657000Y-59867800D03*
D17*
X179832000Y-63042800D03*
D16*
X183007000Y-59867800D03*
X176657000Y-66217800D03*
X183007000Y-66217800D03*
D18*
X193697056Y-55302944D03*
X192000000Y-54600000D03*
X190302944Y-55302944D03*
X189600000Y-57000000D03*
X190302944Y-58697056D03*
X192000000Y-59400000D03*
X193697056Y-58697056D03*
X194400000Y-57000000D03*
D19*
X192000000Y-57000000D03*
X114000000Y-105000000D03*
D18*
X116400000Y-105000000D03*
X115697056Y-106697056D03*
X114000000Y-107400000D03*
X112302944Y-106697056D03*
X111600000Y-105000000D03*
X112302944Y-103302944D03*
X114000000Y-102600000D03*
X115697056Y-103302944D03*
X193697056Y-103302944D03*
X192000000Y-102600000D03*
X190302944Y-103302944D03*
X189600000Y-105000000D03*
X190302944Y-106697056D03*
X192000000Y-107400000D03*
X193697056Y-106697056D03*
X194400000Y-105000000D03*
D19*
X192000000Y-105000000D03*
X114000000Y-57000000D03*
D18*
X116400000Y-57000000D03*
X115697056Y-58697056D03*
X114000000Y-59400000D03*
X112302944Y-58697056D03*
X111600000Y-57000000D03*
X112302944Y-55302944D03*
X114000000Y-54600000D03*
X115697056Y-55302944D03*
D20*
X131953000Y-64897000D03*
X132080000Y-77470000D03*
D21*
X132130800Y-82905600D03*
X137668000Y-77216000D03*
X139446000Y-77216000D03*
X138684000Y-78486000D03*
X135128000Y-86614000D03*
X137922000Y-86614000D03*
X137922000Y-88392000D03*
X135128000Y-88392000D03*
X133604000Y-70104000D03*
X136525000Y-70104000D03*
X139700000Y-70104000D03*
X133604000Y-72644000D03*
X136525000Y-72644000D03*
X139700000Y-72644000D03*
X114935000Y-77470000D03*
X140970000Y-80010000D03*
X143510000Y-80010000D03*
X146050000Y-80010000D03*
X146050000Y-82550000D03*
X146050000Y-85090000D03*
X143510000Y-85090000D03*
X140970000Y-85090000D03*
X143510000Y-82550000D03*
X140970000Y-82550000D03*
X147955000Y-86995000D03*
X147955000Y-78105000D03*
X132080000Y-80010000D03*
X129540000Y-80010000D03*
X129540000Y-78105000D03*
X154432000Y-86868000D03*
X149860000Y-92964000D03*
X152400000Y-71120000D03*
X155956000Y-83566000D03*
D20*
X172500000Y-105000000D03*
X152500000Y-105000000D03*
X137500000Y-55000000D03*
X150000000Y-55000000D03*
X162500000Y-55000000D03*
X155000000Y-62500000D03*
X162500000Y-62500000D03*
X170000000Y-62500000D03*
X170000000Y-70000000D03*
X162500000Y-92500000D03*
X172500000Y-92500000D03*
D21*
X156000000Y-76000000D03*
X159000000Y-76000000D03*
X162000000Y-76000000D03*
X165000000Y-76000000D03*
X168000000Y-76000000D03*
X171000000Y-76000000D03*
X174000000Y-76000000D03*
X169000000Y-80000000D03*
X169000000Y-82000000D03*
X172000000Y-80000000D03*
X172000000Y-82000000D03*
X174000000Y-86000000D03*
X171000000Y-86000000D03*
X168000000Y-86000000D03*
X165000000Y-86000000D03*
X163000000Y-84000000D03*
X161000000Y-83000000D03*
X189788800Y-83413600D03*
X182778400Y-81635600D03*
X194919600Y-80822800D03*
X182524400Y-77978000D03*
D20*
X140000000Y-64000000D03*
X123000000Y-55000000D03*
X112000000Y-98000000D03*
X124000000Y-106000000D03*
X158000000Y-99000000D03*
X172000000Y-99000000D03*
X155829000Y-85090000D03*
D21*
X175158400Y-93929200D03*
X183337200Y-91998800D03*
X136396700Y-82802700D03*
X144526000Y-94488000D03*
X127254000Y-70104000D03*
X132334000Y-84836000D03*
X126492000Y-72644000D03*
X131572000Y-85598000D03*
X121666000Y-75184000D03*
X130810000Y-86360000D03*
X122686653Y-79252653D03*
X124968000Y-79248000D03*
X129286000Y-87630000D03*
X121162653Y-80776653D03*
X124206000Y-80772000D03*
X127000000Y-89916000D03*
X122936000Y-82804000D03*
X125222000Y-91440000D03*
X122174000Y-85344000D03*
X122174000Y-92456000D03*
X121449000Y-87884000D03*
X122174000Y-93472000D03*
X184150000Y-98425000D03*
X139700000Y-95885000D03*
X142240000Y-93980000D03*
D22*
X131953000Y-77343000D02*
X132080000Y-77470000D01*
X131953000Y-64897000D02*
X131953000Y-77343000D01*
D23*
X181406800Y-93929200D02*
X183337200Y-91998800D01*
X175158400Y-93929200D02*
X181406800Y-93929200D01*
X136396700Y-82802700D02*
X136396700Y-94486700D01*
X136396700Y-94486700D02*
X136652000Y-94742000D01*
X140716000Y-94742000D02*
X141224000Y-94234000D01*
X136652000Y-94742000D02*
X140716000Y-94742000D01*
X141224000Y-94234000D02*
X141224000Y-93472000D01*
X141224000Y-93472000D02*
X141566001Y-93129999D01*
X141566001Y-93129999D02*
X141986000Y-92710000D01*
X142748000Y-92710000D02*
X144526000Y-94488000D01*
X141986000Y-92710000D02*
X142748000Y-92710000D01*
D24*
X127254000Y-79756000D02*
X132334000Y-84836000D01*
X127254000Y-70104000D02*
X127254000Y-79756000D01*
X126492000Y-80518000D02*
X131572000Y-85598000D01*
X126492000Y-72644000D02*
X126492000Y-80518000D01*
X125730000Y-81280000D02*
X130810000Y-86360000D01*
X125730000Y-78486000D02*
X125730000Y-81280000D01*
X122428000Y-75184000D02*
X125730000Y-78486000D01*
X121666000Y-75184000D02*
X122428000Y-75184000D01*
X118015001Y-77629001D02*
X121063001Y-77629001D01*
X116840000Y-76454000D02*
X118015001Y-77629001D01*
X121063001Y-77629001D02*
X122686653Y-79252653D01*
X124968000Y-79248000D02*
X124968000Y-84836000D01*
X124968000Y-84836000D02*
X125476000Y-85344000D01*
X125476000Y-85344000D02*
X126492000Y-85344000D01*
X127000000Y-85344000D02*
X129286000Y-87630000D01*
X126492000Y-85344000D02*
X127000000Y-85344000D01*
X116840000Y-78994000D02*
X118110000Y-80264000D01*
X118110000Y-80264000D02*
X120142000Y-80264000D01*
X120142000Y-80264000D02*
X120650000Y-80772000D01*
X120654653Y-80776653D02*
X121162653Y-80776653D01*
X120650000Y-80772000D02*
X120654653Y-80776653D01*
X124206000Y-80772000D02*
X124206000Y-87122000D01*
X124206000Y-87122000D02*
X127000000Y-89916000D01*
X122936000Y-82804000D02*
X122936000Y-89154000D01*
X122936000Y-89154000D02*
X125222000Y-91440000D01*
X122174000Y-85344000D02*
X122174000Y-92456000D01*
X122116998Y-93472000D02*
X122174000Y-93472000D01*
X121448999Y-92804001D02*
X122116998Y-93472000D01*
X121449000Y-87884000D02*
X121448999Y-92804001D01*
X184150000Y-98425000D02*
X181610000Y-95885000D01*
X181610000Y-95885000D02*
X139700000Y-95885000D01*
X189565003Y-87640999D02*
X181956002Y-95250000D01*
X192164999Y-87640999D02*
X189565003Y-87640999D01*
X193290000Y-88766000D02*
X192164999Y-87640999D01*
X143510000Y-95250000D02*
X142240000Y-93980000D01*
X181956002Y-95250000D02*
X143510000Y-95250000D01*
D23*
X179832000Y-63042800D02*
X179832000Y-73152000D01*
X179832000Y-73152000D02*
X184404000Y-77724000D01*
X184404000Y-77724000D02*
X184404000Y-78486000D01*
X177869999Y-80079999D02*
X177800000Y-80010000D01*
X182810001Y-80079999D02*
X177869999Y-80079999D01*
X184404000Y-78486000D02*
X182810001Y-80079999D01*
X184404000Y-69088000D02*
X183007000Y-67691000D01*
X184404000Y-71628000D02*
X184404000Y-69088000D01*
X183007000Y-67691000D02*
X183007000Y-66217800D01*
X185928000Y-71628000D02*
X184404000Y-71628000D01*
X189484000Y-75184000D02*
X185928000Y-71628000D01*
X189484000Y-77216000D02*
X189484000Y-75184000D01*
X180340000Y-86360000D02*
X189484000Y-77216000D01*
D22*
X176657000Y-59867800D02*
X183007000Y-59867800D01*
X176657000Y-59867800D02*
X176657000Y-66217800D01*
X183007000Y-59867800D02*
X183007000Y-66217800D01*
D25*
X196873000Y-109873000D02*
X109127000Y-109873000D01*
X109127000Y-104622285D01*
X110165000Y-104622285D01*
X110165000Y-105377715D01*
X110312377Y-106118628D01*
X110601467Y-106816554D01*
X111021161Y-107444670D01*
X111555330Y-107978839D01*
X112183446Y-108398533D01*
X112881372Y-108687623D01*
X113622285Y-108835000D01*
X114377715Y-108835000D01*
X115118628Y-108687623D01*
X115816554Y-108398533D01*
X116444670Y-107978839D01*
X116978839Y-107444670D01*
X117398533Y-106816554D01*
X117687623Y-106118628D01*
X117835000Y-105377715D01*
X117835000Y-104622285D01*
X188165000Y-104622285D01*
X188165000Y-105377715D01*
X188312377Y-106118628D01*
X188601467Y-106816554D01*
X189021161Y-107444670D01*
X189555330Y-107978839D01*
X190183446Y-108398533D01*
X190881372Y-108687623D01*
X191622285Y-108835000D01*
X192377715Y-108835000D01*
X193118628Y-108687623D01*
X193816554Y-108398533D01*
X194444670Y-107978839D01*
X194978839Y-107444670D01*
X195398533Y-106816554D01*
X195687623Y-106118628D01*
X195835000Y-105377715D01*
X195835000Y-104622285D01*
X195687623Y-103881372D01*
X195398533Y-103183446D01*
X194978839Y-102555330D01*
X194444670Y-102021161D01*
X193816554Y-101601467D01*
X193118628Y-101312377D01*
X192377715Y-101165000D01*
X191622285Y-101165000D01*
X190881372Y-101312377D01*
X190183446Y-101601467D01*
X189555330Y-102021161D01*
X189021161Y-102555330D01*
X188601467Y-103183446D01*
X188312377Y-103881372D01*
X188165000Y-104622285D01*
X117835000Y-104622285D01*
X117687623Y-103881372D01*
X117398533Y-103183446D01*
X116978839Y-102555330D01*
X116444670Y-102021161D01*
X115816554Y-101601467D01*
X115118628Y-101312377D01*
X114377715Y-101165000D01*
X113622285Y-101165000D01*
X112881372Y-101312377D01*
X112183446Y-101601467D01*
X111555330Y-102021161D01*
X111021161Y-102555330D01*
X110601467Y-103183446D01*
X110312377Y-103881372D01*
X110165000Y-104622285D01*
X109127000Y-104622285D01*
X109127000Y-65444000D01*
X115351928Y-65444000D01*
X115351928Y-67144000D01*
X115364188Y-67268482D01*
X115400498Y-67388180D01*
X115459463Y-67498494D01*
X115538815Y-67595185D01*
X115635506Y-67674537D01*
X115745820Y-67733502D01*
X115818380Y-67755513D01*
X115686525Y-67887368D01*
X115524010Y-68130589D01*
X115412068Y-68400842D01*
X115355000Y-68687740D01*
X115355000Y-68980260D01*
X115412068Y-69267158D01*
X115524010Y-69537411D01*
X115686525Y-69780632D01*
X115893368Y-69987475D01*
X116067760Y-70104000D01*
X115893368Y-70220525D01*
X115686525Y-70427368D01*
X115524010Y-70670589D01*
X115412068Y-70940842D01*
X115355000Y-71227740D01*
X115355000Y-71520260D01*
X115412068Y-71807158D01*
X115524010Y-72077411D01*
X115686525Y-72320632D01*
X115893368Y-72527475D01*
X116067760Y-72644000D01*
X115893368Y-72760525D01*
X115686525Y-72967368D01*
X115524010Y-73210589D01*
X115412068Y-73480842D01*
X115355000Y-73767740D01*
X115355000Y-74060260D01*
X115412068Y-74347158D01*
X115524010Y-74617411D01*
X115686525Y-74860632D01*
X115893368Y-75067475D01*
X116067760Y-75184000D01*
X115893368Y-75300525D01*
X115686525Y-75507368D01*
X115524010Y-75750589D01*
X115412068Y-76020842D01*
X115355000Y-76307740D01*
X115355000Y-76600260D01*
X115412068Y-76887158D01*
X115524010Y-77157411D01*
X115686525Y-77400632D01*
X115893368Y-77607475D01*
X116067760Y-77724000D01*
X115893368Y-77840525D01*
X115686525Y-78047368D01*
X115524010Y-78290589D01*
X115412068Y-78560842D01*
X115355000Y-78847740D01*
X115355000Y-79140260D01*
X115412068Y-79427158D01*
X115524010Y-79697411D01*
X115686525Y-79940632D01*
X115893368Y-80147475D01*
X116067760Y-80264000D01*
X115893368Y-80380525D01*
X115686525Y-80587368D01*
X115524010Y-80830589D01*
X115412068Y-81100842D01*
X115355000Y-81387740D01*
X115355000Y-81680260D01*
X115412068Y-81967158D01*
X115524010Y-82237411D01*
X115686525Y-82480632D01*
X115893368Y-82687475D01*
X116067760Y-82804000D01*
X115893368Y-82920525D01*
X115686525Y-83127368D01*
X115524010Y-83370589D01*
X115412068Y-83640842D01*
X115355000Y-83927740D01*
X115355000Y-84220260D01*
X115412068Y-84507158D01*
X115524010Y-84777411D01*
X115686525Y-85020632D01*
X115893368Y-85227475D01*
X116067760Y-85344000D01*
X115893368Y-85460525D01*
X115686525Y-85667368D01*
X115524010Y-85910589D01*
X115412068Y-86180842D01*
X115355000Y-86467740D01*
X115355000Y-86760260D01*
X115412068Y-87047158D01*
X115524010Y-87317411D01*
X115686525Y-87560632D01*
X115893368Y-87767475D01*
X116067760Y-87884000D01*
X115893368Y-88000525D01*
X115686525Y-88207368D01*
X115524010Y-88450589D01*
X115412068Y-88720842D01*
X115355000Y-89007740D01*
X115355000Y-89300260D01*
X115412068Y-89587158D01*
X115524010Y-89857411D01*
X115686525Y-90100632D01*
X115893368Y-90307475D01*
X116067760Y-90424000D01*
X115893368Y-90540525D01*
X115686525Y-90747368D01*
X115524010Y-90990589D01*
X115412068Y-91260842D01*
X115355000Y-91547740D01*
X115355000Y-91840260D01*
X115412068Y-92127158D01*
X115524010Y-92397411D01*
X115686525Y-92640632D01*
X115893368Y-92847475D01*
X116067760Y-92964000D01*
X115893368Y-93080525D01*
X115686525Y-93287368D01*
X115524010Y-93530589D01*
X115412068Y-93800842D01*
X115355000Y-94087740D01*
X115355000Y-94380260D01*
X115412068Y-94667158D01*
X115524010Y-94937411D01*
X115686525Y-95180632D01*
X115893368Y-95387475D01*
X116136589Y-95549990D01*
X116406842Y-95661932D01*
X116693740Y-95719000D01*
X116986260Y-95719000D01*
X117273158Y-95661932D01*
X117543411Y-95549990D01*
X117786632Y-95387475D01*
X117993475Y-95180632D01*
X118111100Y-95004594D01*
X118282412Y-95234269D01*
X118498645Y-95429178D01*
X118748748Y-95578157D01*
X119023109Y-95675481D01*
X119253000Y-95554814D01*
X119253000Y-94361000D01*
X119507000Y-94361000D01*
X119507000Y-95554814D01*
X119736891Y-95675481D01*
X120011252Y-95578157D01*
X120261355Y-95429178D01*
X120477588Y-95234269D01*
X120651641Y-95000920D01*
X120776825Y-94738099D01*
X120821476Y-94590890D01*
X120700155Y-94361000D01*
X119507000Y-94361000D01*
X119253000Y-94361000D01*
X119233000Y-94361000D01*
X119233000Y-94107000D01*
X119253000Y-94107000D01*
X119253000Y-94087000D01*
X119507000Y-94087000D01*
X119507000Y-94107000D01*
X120700155Y-94107000D01*
X120821476Y-93877110D01*
X120776825Y-93729901D01*
X120651641Y-93467080D01*
X120477588Y-93233731D01*
X120261355Y-93038822D01*
X120144466Y-92969195D01*
X120326632Y-92847475D01*
X120533475Y-92640632D01*
X120688999Y-92407874D01*
X120688999Y-92766678D01*
X120685323Y-92804001D01*
X120688999Y-92841323D01*
X120688999Y-92841333D01*
X120699996Y-92952986D01*
X120743453Y-93096247D01*
X120814025Y-93228277D01*
X120877028Y-93305046D01*
X120908998Y-93344001D01*
X120937996Y-93367799D01*
X121139000Y-93568803D01*
X121139000Y-93573939D01*
X121178774Y-93773898D01*
X121256795Y-93962256D01*
X121370063Y-94131774D01*
X121514226Y-94275937D01*
X121683744Y-94389205D01*
X121872102Y-94467226D01*
X122072061Y-94507000D01*
X122275939Y-94507000D01*
X122475898Y-94467226D01*
X122664256Y-94389205D01*
X122833774Y-94275937D01*
X122977937Y-94131774D01*
X123091205Y-93962256D01*
X123169226Y-93773898D01*
X123209000Y-93573939D01*
X123209000Y-93370061D01*
X123169226Y-93170102D01*
X123091205Y-92981744D01*
X123079349Y-92964000D01*
X123091205Y-92946256D01*
X123169226Y-92757898D01*
X123209000Y-92557939D01*
X123209000Y-92354061D01*
X123169226Y-92154102D01*
X123091205Y-91965744D01*
X122977937Y-91796226D01*
X122934000Y-91752289D01*
X122934000Y-90226801D01*
X124187000Y-91479802D01*
X124187000Y-91541939D01*
X124226774Y-91741898D01*
X124304795Y-91930256D01*
X124418063Y-92099774D01*
X124562226Y-92243937D01*
X124731744Y-92357205D01*
X124920102Y-92435226D01*
X125120061Y-92475000D01*
X125323939Y-92475000D01*
X125523898Y-92435226D01*
X125712256Y-92357205D01*
X125881774Y-92243937D01*
X126025937Y-92099774D01*
X126139205Y-91930256D01*
X126217226Y-91741898D01*
X126257000Y-91541939D01*
X126257000Y-91338061D01*
X126217226Y-91138102D01*
X126139205Y-90949744D01*
X126025937Y-90780226D01*
X125881774Y-90636063D01*
X125712256Y-90522795D01*
X125523898Y-90444774D01*
X125323939Y-90405000D01*
X125261802Y-90405000D01*
X123696000Y-88839199D01*
X123696000Y-87686801D01*
X125965000Y-89955802D01*
X125965000Y-90017939D01*
X126004774Y-90217898D01*
X126082795Y-90406256D01*
X126196063Y-90575774D01*
X126340226Y-90719937D01*
X126509744Y-90833205D01*
X126698102Y-90911226D01*
X126898061Y-90951000D01*
X127101939Y-90951000D01*
X127301898Y-90911226D01*
X127490256Y-90833205D01*
X127659774Y-90719937D01*
X127803937Y-90575774D01*
X127917205Y-90406256D01*
X127995226Y-90217898D01*
X128035000Y-90017939D01*
X128035000Y-89814061D01*
X127995226Y-89614102D01*
X127917205Y-89425744D01*
X127803937Y-89256226D01*
X127659774Y-89112063D01*
X127490256Y-88998795D01*
X127301898Y-88920774D01*
X127101939Y-88881000D01*
X127039802Y-88881000D01*
X124966000Y-86807199D01*
X124966000Y-85908622D01*
X125051724Y-85978974D01*
X125183753Y-86049546D01*
X125327014Y-86093003D01*
X125438667Y-86104000D01*
X125438676Y-86104000D01*
X125475999Y-86107676D01*
X125513322Y-86104000D01*
X126685199Y-86104000D01*
X128251000Y-87669802D01*
X128251000Y-87731939D01*
X128290774Y-87931898D01*
X128368795Y-88120256D01*
X128482063Y-88289774D01*
X128626226Y-88433937D01*
X128795744Y-88547205D01*
X128984102Y-88625226D01*
X129184061Y-88665000D01*
X129387939Y-88665000D01*
X129587898Y-88625226D01*
X129776256Y-88547205D01*
X129945774Y-88433937D01*
X130089937Y-88289774D01*
X130203205Y-88120256D01*
X130281226Y-87931898D01*
X130321000Y-87731939D01*
X130321000Y-87528061D01*
X130281226Y-87328102D01*
X130237335Y-87222141D01*
X130319744Y-87277205D01*
X130508102Y-87355226D01*
X130708061Y-87395000D01*
X130911939Y-87395000D01*
X131111898Y-87355226D01*
X131300256Y-87277205D01*
X131469774Y-87163937D01*
X131613937Y-87019774D01*
X131727205Y-86850256D01*
X131805226Y-86661898D01*
X131816619Y-86604619D01*
X131873898Y-86593226D01*
X132062256Y-86515205D01*
X132231774Y-86401937D01*
X132375937Y-86257774D01*
X132489205Y-86088256D01*
X132567226Y-85899898D01*
X132578619Y-85842619D01*
X132635898Y-85831226D01*
X132824256Y-85753205D01*
X132993774Y-85639937D01*
X133137937Y-85495774D01*
X133251205Y-85326256D01*
X133329226Y-85137898D01*
X133369000Y-84937939D01*
X133369000Y-84734061D01*
X133329226Y-84534102D01*
X133251205Y-84345744D01*
X133137937Y-84176226D01*
X132993774Y-84032063D01*
X132824256Y-83918795D01*
X132635898Y-83840774D01*
X132435939Y-83801000D01*
X132373802Y-83801000D01*
X131273563Y-82700761D01*
X135361700Y-82700761D01*
X135361700Y-82904639D01*
X135401474Y-83104598D01*
X135479495Y-83292956D01*
X135511700Y-83341154D01*
X135511701Y-94443221D01*
X135507419Y-94486700D01*
X135524505Y-94660190D01*
X135575112Y-94827013D01*
X135657290Y-94980759D01*
X135740168Y-95081746D01*
X135740171Y-95081749D01*
X135767884Y-95115517D01*
X135801652Y-95143230D01*
X135995466Y-95337044D01*
X136023183Y-95370817D01*
X136157941Y-95481411D01*
X136311687Y-95563589D01*
X136478510Y-95614195D01*
X136608523Y-95627000D01*
X136608531Y-95627000D01*
X136652000Y-95631281D01*
X136695469Y-95627000D01*
X138696042Y-95627000D01*
X138665000Y-95783061D01*
X138665000Y-95986939D01*
X138704774Y-96186898D01*
X138782795Y-96375256D01*
X138896063Y-96544774D01*
X139040226Y-96688937D01*
X139209744Y-96802205D01*
X139398102Y-96880226D01*
X139598061Y-96920000D01*
X139801939Y-96920000D01*
X140001898Y-96880226D01*
X140190256Y-96802205D01*
X140359774Y-96688937D01*
X140403711Y-96645000D01*
X181295199Y-96645000D01*
X183115000Y-98464803D01*
X183115000Y-98526939D01*
X183154774Y-98726898D01*
X183232795Y-98915256D01*
X183346063Y-99084774D01*
X183490226Y-99228937D01*
X183659744Y-99342205D01*
X183848102Y-99420226D01*
X184048061Y-99460000D01*
X184251939Y-99460000D01*
X184451898Y-99420226D01*
X184640256Y-99342205D01*
X184809774Y-99228937D01*
X184953937Y-99084774D01*
X185067205Y-98915256D01*
X185145226Y-98726898D01*
X185185000Y-98526939D01*
X185185000Y-98323061D01*
X185145226Y-98123102D01*
X185067205Y-97934744D01*
X184953937Y-97765226D01*
X184809774Y-97621063D01*
X184640256Y-97507795D01*
X184451898Y-97429774D01*
X184251939Y-97390000D01*
X184189803Y-97390000D01*
X182540302Y-95740501D01*
X189866929Y-88413876D01*
X189825000Y-88624665D01*
X189825000Y-88907335D01*
X189880147Y-89184574D01*
X189988320Y-89445727D01*
X190145363Y-89680759D01*
X190345241Y-89880637D01*
X190580273Y-90037680D01*
X190841426Y-90145853D01*
X191118665Y-90201000D01*
X191401335Y-90201000D01*
X191678574Y-90145853D01*
X191939727Y-90037680D01*
X192174759Y-89880637D01*
X192275000Y-89780396D01*
X192375241Y-89880637D01*
X192610273Y-90037680D01*
X192871426Y-90145853D01*
X193148665Y-90201000D01*
X193431335Y-90201000D01*
X193708574Y-90145853D01*
X193969727Y-90037680D01*
X194204759Y-89880637D01*
X194404637Y-89680759D01*
X194561680Y-89445727D01*
X194669853Y-89184574D01*
X194725000Y-88907335D01*
X194725000Y-88624665D01*
X194669853Y-88347426D01*
X194561680Y-88086273D01*
X194404637Y-87851241D01*
X194204759Y-87651363D01*
X193969727Y-87494320D01*
X193708574Y-87386147D01*
X193431335Y-87331000D01*
X193148665Y-87331000D01*
X192966113Y-87367312D01*
X192728803Y-87130001D01*
X192705000Y-87100998D01*
X192589275Y-87006025D01*
X192457246Y-86935453D01*
X192313985Y-86891996D01*
X192202332Y-86880999D01*
X192202321Y-86880999D01*
X192164999Y-86877323D01*
X192127677Y-86880999D01*
X189602325Y-86880999D01*
X189565002Y-86877323D01*
X189527679Y-86880999D01*
X189527670Y-86880999D01*
X189416017Y-86891996D01*
X189272756Y-86935453D01*
X189140727Y-87006025D01*
X189140725Y-87006026D01*
X189140726Y-87006026D01*
X189053999Y-87077200D01*
X189053995Y-87077204D01*
X189025002Y-87100998D01*
X189001208Y-87129991D01*
X188912469Y-87218730D01*
X188863149Y-86970782D01*
X188692786Y-86559489D01*
X188445456Y-86189334D01*
X188130666Y-85874544D01*
X187760511Y-85627214D01*
X187349218Y-85456851D01*
X186912591Y-85370000D01*
X186467409Y-85370000D01*
X186030782Y-85456851D01*
X185619489Y-85627214D01*
X185249334Y-85874544D01*
X184934544Y-86189334D01*
X184687214Y-86559489D01*
X184516851Y-86970782D01*
X184430000Y-87407409D01*
X184430000Y-87852591D01*
X184516851Y-88289218D01*
X184588254Y-88461599D01*
X184463831Y-88378463D01*
X184148081Y-88247675D01*
X183812883Y-88181000D01*
X183471117Y-88181000D01*
X183135919Y-88247675D01*
X182820169Y-88378463D01*
X182536002Y-88568337D01*
X182294337Y-88810002D01*
X182104463Y-89094169D01*
X181973675Y-89409919D01*
X181907000Y-89745117D01*
X181907000Y-90086883D01*
X181973675Y-90422081D01*
X182104463Y-90737831D01*
X182294337Y-91021998D01*
X182536002Y-91263663D01*
X182579537Y-91292752D01*
X182533263Y-91339026D01*
X182419995Y-91508544D01*
X182341974Y-91696902D01*
X182330665Y-91753756D01*
X181040222Y-93044200D01*
X175696854Y-93044200D01*
X175648656Y-93011995D01*
X175460298Y-92933974D01*
X175260339Y-92894200D01*
X175056461Y-92894200D01*
X174856502Y-92933974D01*
X174668144Y-93011995D01*
X174498626Y-93125263D01*
X174354463Y-93269426D01*
X174241195Y-93438944D01*
X174163174Y-93627302D01*
X174123400Y-93827261D01*
X174123400Y-94031139D01*
X174163174Y-94231098D01*
X174241195Y-94419456D01*
X174288331Y-94490000D01*
X145561000Y-94490000D01*
X145561000Y-94386061D01*
X145521226Y-94186102D01*
X145443205Y-93997744D01*
X145329937Y-93828226D01*
X145185774Y-93684063D01*
X145016256Y-93570795D01*
X144827898Y-93492774D01*
X144771044Y-93481465D01*
X143404534Y-92114956D01*
X143376817Y-92081183D01*
X143242059Y-91970589D01*
X143088313Y-91888411D01*
X142921490Y-91837805D01*
X142791477Y-91825000D01*
X142791469Y-91825000D01*
X142748000Y-91820719D01*
X142704531Y-91825000D01*
X142029465Y-91825000D01*
X141985999Y-91820719D01*
X141942533Y-91825000D01*
X141942523Y-91825000D01*
X141812510Y-91837805D01*
X141645687Y-91888411D01*
X141491941Y-91970589D01*
X141357183Y-92081183D01*
X141329466Y-92114956D01*
X140628952Y-92815470D01*
X140595184Y-92843183D01*
X140567471Y-92876951D01*
X140567468Y-92876954D01*
X140522294Y-92931999D01*
X140484590Y-92977941D01*
X140402412Y-93131687D01*
X140351805Y-93298510D01*
X140339000Y-93428523D01*
X140339000Y-93428531D01*
X140334719Y-93472000D01*
X140339000Y-93515469D01*
X140339000Y-93857000D01*
X137281700Y-93857000D01*
X137281700Y-84948665D01*
X154394000Y-84948665D01*
X154394000Y-85231335D01*
X154449147Y-85508574D01*
X154557320Y-85769727D01*
X154714363Y-86004759D01*
X154914241Y-86204637D01*
X155149273Y-86361680D01*
X155410426Y-86469853D01*
X155687665Y-86525000D01*
X155970335Y-86525000D01*
X156247574Y-86469853D01*
X156508727Y-86361680D01*
X156743759Y-86204637D01*
X156943637Y-86004759D01*
X157100680Y-85769727D01*
X157208853Y-85508574D01*
X157264000Y-85231335D01*
X157264000Y-84948665D01*
X157208853Y-84671426D01*
X157100680Y-84410273D01*
X156943637Y-84175241D01*
X156743759Y-83975363D01*
X156508727Y-83818320D01*
X156247574Y-83710147D01*
X155970335Y-83655000D01*
X155687665Y-83655000D01*
X155410426Y-83710147D01*
X155149273Y-83818320D01*
X154914241Y-83975363D01*
X154714363Y-84175241D01*
X154557320Y-84410273D01*
X154449147Y-84671426D01*
X154394000Y-84948665D01*
X137281700Y-84948665D01*
X137281700Y-83341154D01*
X137313905Y-83292956D01*
X137391926Y-83104598D01*
X137431700Y-82904639D01*
X137431700Y-82700761D01*
X137391926Y-82500802D01*
X137313905Y-82312444D01*
X137200637Y-82142926D01*
X137056474Y-81998763D01*
X136886956Y-81885495D01*
X136698598Y-81807474D01*
X136498639Y-81767700D01*
X136294761Y-81767700D01*
X136094802Y-81807474D01*
X135906444Y-81885495D01*
X135736926Y-81998763D01*
X135592763Y-82142926D01*
X135479495Y-82312444D01*
X135401474Y-82500802D01*
X135361700Y-82700761D01*
X131273563Y-82700761D01*
X128014000Y-79441199D01*
X128014000Y-70807711D01*
X128057937Y-70763774D01*
X128171205Y-70594256D01*
X128249226Y-70405898D01*
X128289000Y-70205939D01*
X128289000Y-70002061D01*
X128249226Y-69802102D01*
X128171205Y-69613744D01*
X128057937Y-69444226D01*
X127913774Y-69300063D01*
X127744256Y-69186795D01*
X127555898Y-69108774D01*
X127355939Y-69069000D01*
X127152061Y-69069000D01*
X126952102Y-69108774D01*
X126763744Y-69186795D01*
X126594226Y-69300063D01*
X126450063Y-69444226D01*
X126336795Y-69613744D01*
X126258774Y-69802102D01*
X126219000Y-70002061D01*
X126219000Y-70205939D01*
X126258774Y-70405898D01*
X126336795Y-70594256D01*
X126450063Y-70763774D01*
X126494000Y-70807711D01*
X126494000Y-71609000D01*
X126390061Y-71609000D01*
X126190102Y-71648774D01*
X126001744Y-71726795D01*
X125832226Y-71840063D01*
X125688063Y-71984226D01*
X125574795Y-72153744D01*
X125496774Y-72342102D01*
X125457000Y-72542061D01*
X125457000Y-72745939D01*
X125496774Y-72945898D01*
X125574795Y-73134256D01*
X125688063Y-73303774D01*
X125732000Y-73347711D01*
X125732001Y-77413199D01*
X122991804Y-74673003D01*
X122968001Y-74643999D01*
X122852276Y-74549026D01*
X122720247Y-74478454D01*
X122576986Y-74434997D01*
X122465333Y-74424000D01*
X122465322Y-74424000D01*
X122428000Y-74420324D01*
X122390678Y-74424000D01*
X122369711Y-74424000D01*
X122325774Y-74380063D01*
X122156256Y-74266795D01*
X121967898Y-74188774D01*
X121767939Y-74149000D01*
X121564061Y-74149000D01*
X121364102Y-74188774D01*
X121175744Y-74266795D01*
X121006226Y-74380063D01*
X120862063Y-74524226D01*
X120748795Y-74693744D01*
X120670774Y-74882102D01*
X120631000Y-75082061D01*
X120631000Y-75285939D01*
X120670774Y-75485898D01*
X120748795Y-75674256D01*
X120862063Y-75843774D01*
X121006226Y-75987937D01*
X121175744Y-76101205D01*
X121364102Y-76179226D01*
X121564061Y-76219000D01*
X121767939Y-76219000D01*
X121967898Y-76179226D01*
X122156256Y-76101205D01*
X122224683Y-76055484D01*
X124493477Y-78324278D01*
X124477744Y-78330795D01*
X124308226Y-78444063D01*
X124164063Y-78588226D01*
X124050795Y-78757744D01*
X123972774Y-78946102D01*
X123933000Y-79146061D01*
X123933000Y-79349939D01*
X123972774Y-79549898D01*
X124050795Y-79738256D01*
X124056303Y-79746500D01*
X123904102Y-79776774D01*
X123715744Y-79854795D01*
X123546226Y-79968063D01*
X123402063Y-80112226D01*
X123288795Y-80281744D01*
X123210774Y-80470102D01*
X123171000Y-80670061D01*
X123171000Y-80873939D01*
X123210774Y-81073898D01*
X123288795Y-81262256D01*
X123402063Y-81431774D01*
X123446000Y-81475711D01*
X123446000Y-81899988D01*
X123426256Y-81886795D01*
X123237898Y-81808774D01*
X123037939Y-81769000D01*
X122834061Y-81769000D01*
X122634102Y-81808774D01*
X122445744Y-81886795D01*
X122276226Y-82000063D01*
X122132063Y-82144226D01*
X122018795Y-82313744D01*
X121940774Y-82502102D01*
X121901000Y-82702061D01*
X121901000Y-82905939D01*
X121940774Y-83105898D01*
X122018795Y-83294256D01*
X122132063Y-83463774D01*
X122176000Y-83507711D01*
X122176000Y-84309000D01*
X122072061Y-84309000D01*
X121872102Y-84348774D01*
X121683744Y-84426795D01*
X121514226Y-84540063D01*
X121370063Y-84684226D01*
X121256795Y-84853744D01*
X121178774Y-85042102D01*
X121139000Y-85242061D01*
X121139000Y-85445939D01*
X121178774Y-85645898D01*
X121256795Y-85834256D01*
X121370063Y-86003774D01*
X121414000Y-86047711D01*
X121414000Y-86849000D01*
X121347061Y-86849000D01*
X121147102Y-86888774D01*
X120958744Y-86966795D01*
X120796245Y-87075373D01*
X120807932Y-87047158D01*
X120865000Y-86760260D01*
X120865000Y-86467740D01*
X120807932Y-86180842D01*
X120695990Y-85910589D01*
X120533475Y-85667368D01*
X120326632Y-85460525D01*
X120152240Y-85344000D01*
X120326632Y-85227475D01*
X120533475Y-85020632D01*
X120695990Y-84777411D01*
X120807932Y-84507158D01*
X120865000Y-84220260D01*
X120865000Y-83927740D01*
X120807932Y-83640842D01*
X120695990Y-83370589D01*
X120533475Y-83127368D01*
X120326632Y-82920525D01*
X120152240Y-82804000D01*
X120326632Y-82687475D01*
X120533475Y-82480632D01*
X120695990Y-82237411D01*
X120807932Y-81967158D01*
X120847840Y-81766529D01*
X120860755Y-81771879D01*
X121060714Y-81811653D01*
X121264592Y-81811653D01*
X121464551Y-81771879D01*
X121652909Y-81693858D01*
X121822427Y-81580590D01*
X121966590Y-81436427D01*
X122079858Y-81266909D01*
X122157879Y-81078551D01*
X122197653Y-80878592D01*
X122197653Y-80674714D01*
X122157879Y-80474755D01*
X122079858Y-80286397D01*
X121966590Y-80116879D01*
X121822427Y-79972716D01*
X121652909Y-79859448D01*
X121464551Y-79781427D01*
X121264592Y-79741653D01*
X121060714Y-79741653D01*
X120860755Y-79781427D01*
X120771287Y-79818486D01*
X120705803Y-79753002D01*
X120682001Y-79723999D01*
X120679562Y-79721997D01*
X120695990Y-79697411D01*
X120807932Y-79427158D01*
X120865000Y-79140260D01*
X120865000Y-78847740D01*
X120807932Y-78560842D01*
X120736753Y-78389001D01*
X120748200Y-78389001D01*
X121651653Y-79292455D01*
X121651653Y-79354592D01*
X121691427Y-79554551D01*
X121769448Y-79742909D01*
X121882716Y-79912427D01*
X122026879Y-80056590D01*
X122196397Y-80169858D01*
X122384755Y-80247879D01*
X122584714Y-80287653D01*
X122788592Y-80287653D01*
X122988551Y-80247879D01*
X123176909Y-80169858D01*
X123346427Y-80056590D01*
X123490590Y-79912427D01*
X123603858Y-79742909D01*
X123681879Y-79554551D01*
X123721653Y-79354592D01*
X123721653Y-79150714D01*
X123681879Y-78950755D01*
X123603858Y-78762397D01*
X123490590Y-78592879D01*
X123346427Y-78448716D01*
X123176909Y-78335448D01*
X122988551Y-78257427D01*
X122788592Y-78217653D01*
X122726455Y-78217653D01*
X121626805Y-77118004D01*
X121603002Y-77089000D01*
X121487277Y-76994027D01*
X121355248Y-76923455D01*
X121211987Y-76879998D01*
X121100334Y-76869001D01*
X121100323Y-76869001D01*
X121063001Y-76865325D01*
X121025679Y-76869001D01*
X120811544Y-76869001D01*
X120865000Y-76600260D01*
X120865000Y-76307740D01*
X120807932Y-76020842D01*
X120695990Y-75750589D01*
X120533475Y-75507368D01*
X120326632Y-75300525D01*
X120152240Y-75184000D01*
X120326632Y-75067475D01*
X120533475Y-74860632D01*
X120695990Y-74617411D01*
X120807932Y-74347158D01*
X120865000Y-74060260D01*
X120865000Y-73767740D01*
X120807932Y-73480842D01*
X120695990Y-73210589D01*
X120533475Y-72967368D01*
X120326632Y-72760525D01*
X120152240Y-72644000D01*
X120326632Y-72527475D01*
X120533475Y-72320632D01*
X120695990Y-72077411D01*
X120807932Y-71807158D01*
X120865000Y-71520260D01*
X120865000Y-71227740D01*
X120807932Y-70940842D01*
X120695990Y-70670589D01*
X120533475Y-70427368D01*
X120326632Y-70220525D01*
X120152240Y-70104000D01*
X120326632Y-69987475D01*
X120533475Y-69780632D01*
X120695990Y-69537411D01*
X120807932Y-69267158D01*
X120865000Y-68980260D01*
X120865000Y-68687740D01*
X120807932Y-68400842D01*
X120695990Y-68130589D01*
X120533475Y-67887368D01*
X120326632Y-67680525D01*
X120144466Y-67558805D01*
X120261355Y-67489178D01*
X120477588Y-67294269D01*
X120651641Y-67060920D01*
X120776825Y-66798099D01*
X120821476Y-66650890D01*
X120700155Y-66421000D01*
X119507000Y-66421000D01*
X119507000Y-66441000D01*
X119253000Y-66441000D01*
X119253000Y-66421000D01*
X119233000Y-66421000D01*
X119233000Y-66167000D01*
X119253000Y-66167000D01*
X119253000Y-64973186D01*
X119507000Y-64973186D01*
X119507000Y-66167000D01*
X120700155Y-66167000D01*
X120821476Y-65937110D01*
X120776825Y-65789901D01*
X120651641Y-65527080D01*
X120477588Y-65293731D01*
X120261355Y-65098822D01*
X120011252Y-64949843D01*
X119736891Y-64852519D01*
X119507000Y-64973186D01*
X119253000Y-64973186D01*
X119023109Y-64852519D01*
X118748748Y-64949843D01*
X118498645Y-65098822D01*
X118302498Y-65275626D01*
X118279502Y-65199820D01*
X118220537Y-65089506D01*
X118141185Y-64992815D01*
X118044494Y-64913463D01*
X117934180Y-64854498D01*
X117814482Y-64818188D01*
X117690000Y-64805928D01*
X115990000Y-64805928D01*
X115865518Y-64818188D01*
X115745820Y-64854498D01*
X115635506Y-64913463D01*
X115538815Y-64992815D01*
X115459463Y-65089506D01*
X115400498Y-65199820D01*
X115364188Y-65319518D01*
X115351928Y-65444000D01*
X109127000Y-65444000D01*
X109127000Y-64755665D01*
X130518000Y-64755665D01*
X130518000Y-65038335D01*
X130573147Y-65315574D01*
X130681320Y-65576727D01*
X130818000Y-65781284D01*
X130818001Y-76775784D01*
X130808320Y-76790273D01*
X130700147Y-77051426D01*
X130645000Y-77328665D01*
X130645000Y-77611335D01*
X130700147Y-77888574D01*
X130808320Y-78149727D01*
X130965363Y-78384759D01*
X131165241Y-78584637D01*
X131400273Y-78741680D01*
X131661426Y-78849853D01*
X131938665Y-78905000D01*
X132221335Y-78905000D01*
X132498574Y-78849853D01*
X132759727Y-78741680D01*
X132994759Y-78584637D01*
X133194637Y-78384759D01*
X133351680Y-78149727D01*
X133459853Y-77888574D01*
X133515000Y-77611335D01*
X133515000Y-77328665D01*
X133459853Y-77051426D01*
X133351680Y-76790273D01*
X133194637Y-76555241D01*
X133088000Y-76448604D01*
X133088000Y-65781284D01*
X133224680Y-65576727D01*
X133332853Y-65315574D01*
X133388000Y-65038335D01*
X133388000Y-64755665D01*
X133332853Y-64478426D01*
X133224680Y-64217273D01*
X133067637Y-63982241D01*
X132867759Y-63782363D01*
X132632727Y-63625320D01*
X132371574Y-63517147D01*
X132094335Y-63462000D01*
X131811665Y-63462000D01*
X131534426Y-63517147D01*
X131273273Y-63625320D01*
X131038241Y-63782363D01*
X130838363Y-63982241D01*
X130681320Y-64217273D01*
X130573147Y-64478426D01*
X130518000Y-64755665D01*
X109127000Y-64755665D01*
X109127000Y-56622285D01*
X110165000Y-56622285D01*
X110165000Y-57377715D01*
X110312377Y-58118628D01*
X110601467Y-58816554D01*
X111021161Y-59444670D01*
X111555330Y-59978839D01*
X112183446Y-60398533D01*
X112881372Y-60687623D01*
X113622285Y-60835000D01*
X114377715Y-60835000D01*
X115118628Y-60687623D01*
X115816554Y-60398533D01*
X116444670Y-59978839D01*
X116805877Y-59617632D01*
X174117000Y-59617632D01*
X174117000Y-60117968D01*
X174214611Y-60608691D01*
X174406081Y-61070941D01*
X174684053Y-61486956D01*
X175037844Y-61840747D01*
X175453859Y-62118719D01*
X175522000Y-62146944D01*
X175522001Y-63938656D01*
X175453859Y-63966881D01*
X175037844Y-64244853D01*
X174684053Y-64598644D01*
X174406081Y-65014659D01*
X174214611Y-65476909D01*
X174117000Y-65967632D01*
X174117000Y-66467968D01*
X174214611Y-66958691D01*
X174406081Y-67420941D01*
X174684053Y-67836956D01*
X175037844Y-68190747D01*
X175453859Y-68468719D01*
X175916109Y-68660189D01*
X176406832Y-68757800D01*
X176907168Y-68757800D01*
X177397891Y-68660189D01*
X177860141Y-68468719D01*
X178276156Y-68190747D01*
X178629947Y-67836956D01*
X178907919Y-67420941D01*
X178947000Y-67326591D01*
X178947001Y-73108521D01*
X178942719Y-73152000D01*
X178959805Y-73325490D01*
X179010412Y-73492313D01*
X179092590Y-73646059D01*
X179175468Y-73747046D01*
X179175471Y-73747049D01*
X179203184Y-73780817D01*
X179236952Y-73808530D01*
X180243422Y-74815000D01*
X180203589Y-74815000D01*
X179936011Y-74868225D01*
X179683957Y-74972629D01*
X179457114Y-75124201D01*
X179264201Y-75317114D01*
X179112629Y-75543957D01*
X179008225Y-75796011D01*
X178955000Y-76063589D01*
X178955000Y-76336411D01*
X179008225Y-76603989D01*
X179112629Y-76856043D01*
X179264201Y-77082886D01*
X179457114Y-77275799D01*
X179683957Y-77427371D01*
X179786873Y-77470000D01*
X179683957Y-77512629D01*
X179457114Y-77664201D01*
X179264201Y-77857114D01*
X179112629Y-78083957D01*
X179008225Y-78336011D01*
X178955000Y-78603589D01*
X178955000Y-78876411D01*
X179008225Y-79143989D01*
X179029354Y-79194999D01*
X178921158Y-79194999D01*
X178875799Y-79127114D01*
X178682886Y-78934201D01*
X178456043Y-78782629D01*
X178353127Y-78740000D01*
X178456043Y-78697371D01*
X178682886Y-78545799D01*
X178875799Y-78352886D01*
X179027371Y-78126043D01*
X179131775Y-77873989D01*
X179185000Y-77606411D01*
X179185000Y-77333589D01*
X179131775Y-77066011D01*
X179027371Y-76813957D01*
X178875799Y-76587114D01*
X178682886Y-76394201D01*
X178456043Y-76242629D01*
X178203989Y-76138225D01*
X177936411Y-76085000D01*
X177663589Y-76085000D01*
X177396011Y-76138225D01*
X177143957Y-76242629D01*
X176917114Y-76394201D01*
X176724201Y-76587114D01*
X176572629Y-76813957D01*
X176468225Y-77066011D01*
X176415000Y-77333589D01*
X176415000Y-77606411D01*
X176468225Y-77873989D01*
X176572629Y-78126043D01*
X176724201Y-78352886D01*
X176917114Y-78545799D01*
X177143957Y-78697371D01*
X177246873Y-78740000D01*
X177143957Y-78782629D01*
X176917114Y-78934201D01*
X176724201Y-79127114D01*
X176572629Y-79353957D01*
X176468225Y-79606011D01*
X176415000Y-79873589D01*
X176415000Y-80146411D01*
X176468225Y-80413989D01*
X176572629Y-80666043D01*
X176724201Y-80892886D01*
X176917114Y-81085799D01*
X177143957Y-81237371D01*
X177246873Y-81280000D01*
X177143957Y-81322629D01*
X176917114Y-81474201D01*
X176724201Y-81667114D01*
X176572629Y-81893957D01*
X176468225Y-82146011D01*
X176415000Y-82413589D01*
X176415000Y-82686411D01*
X176468225Y-82953989D01*
X176572629Y-83206043D01*
X176724201Y-83432886D01*
X176917114Y-83625799D01*
X177143957Y-83777371D01*
X177246873Y-83820000D01*
X177143957Y-83862629D01*
X176917114Y-84014201D01*
X176724201Y-84207114D01*
X176572629Y-84433957D01*
X176468225Y-84686011D01*
X176415000Y-84953589D01*
X176415000Y-85226411D01*
X176468225Y-85493989D01*
X176572629Y-85746043D01*
X176724201Y-85972886D01*
X176917114Y-86165799D01*
X177033483Y-86243555D01*
X176925518Y-86254188D01*
X176805820Y-86290498D01*
X176695506Y-86349463D01*
X176598815Y-86428815D01*
X176519463Y-86525506D01*
X176460498Y-86635820D01*
X176424188Y-86755518D01*
X176411928Y-86880000D01*
X176411928Y-88380000D01*
X176424188Y-88504482D01*
X176460498Y-88624180D01*
X176519463Y-88734494D01*
X176598815Y-88831185D01*
X176695506Y-88910537D01*
X176805820Y-88969502D01*
X176925518Y-89005812D01*
X177050000Y-89018072D01*
X178550000Y-89018072D01*
X178674482Y-89005812D01*
X178794180Y-88969502D01*
X178904494Y-88910537D01*
X179001185Y-88831185D01*
X179080537Y-88734494D01*
X179139502Y-88624180D01*
X179175812Y-88504482D01*
X179188072Y-88380000D01*
X179188072Y-87128951D01*
X179264201Y-87242886D01*
X179457114Y-87435799D01*
X179683957Y-87587371D01*
X179936011Y-87691775D01*
X180203589Y-87745000D01*
X180476411Y-87745000D01*
X180743989Y-87691775D01*
X180996043Y-87587371D01*
X181222886Y-87435799D01*
X181415799Y-87242886D01*
X181567371Y-87016043D01*
X181671775Y-86763989D01*
X181725000Y-86496411D01*
X181725000Y-86226578D01*
X190079051Y-77872528D01*
X190112817Y-77844817D01*
X190166466Y-77779447D01*
X190223411Y-77710059D01*
X190240541Y-77678010D01*
X190305589Y-77556313D01*
X190356195Y-77389490D01*
X190369000Y-77259477D01*
X190369000Y-77259469D01*
X190373281Y-77216000D01*
X190369000Y-77172531D01*
X190369000Y-76446512D01*
X190580273Y-76587680D01*
X190841426Y-76695853D01*
X191118665Y-76751000D01*
X191401335Y-76751000D01*
X191678574Y-76695853D01*
X191939727Y-76587680D01*
X192174759Y-76430637D01*
X192275000Y-76330396D01*
X192375241Y-76430637D01*
X192610273Y-76587680D01*
X192871426Y-76695853D01*
X193148665Y-76751000D01*
X193431335Y-76751000D01*
X193708574Y-76695853D01*
X193969727Y-76587680D01*
X194204759Y-76430637D01*
X194404637Y-76230759D01*
X194561680Y-75995727D01*
X194669853Y-75734574D01*
X194725000Y-75457335D01*
X194725000Y-75174665D01*
X194669853Y-74897426D01*
X194561680Y-74636273D01*
X194404637Y-74401241D01*
X194204759Y-74201363D01*
X193969727Y-74044320D01*
X193708574Y-73936147D01*
X193431335Y-73881000D01*
X193148665Y-73881000D01*
X192871426Y-73936147D01*
X192610273Y-74044320D01*
X192375241Y-74201363D01*
X192275000Y-74301604D01*
X192174759Y-74201363D01*
X191939727Y-74044320D01*
X191678574Y-73936147D01*
X191401335Y-73881000D01*
X191118665Y-73881000D01*
X190841426Y-73936147D01*
X190580273Y-74044320D01*
X190345241Y-74201363D01*
X190145363Y-74401241D01*
X190068241Y-74516662D01*
X186584534Y-71032956D01*
X186556817Y-70999183D01*
X186422059Y-70888589D01*
X186268313Y-70806411D01*
X186101490Y-70755805D01*
X185971477Y-70743000D01*
X185971469Y-70743000D01*
X185928000Y-70738719D01*
X185884531Y-70743000D01*
X185289000Y-70743000D01*
X185289000Y-69131465D01*
X185293281Y-69087999D01*
X185289000Y-69044533D01*
X185289000Y-69044523D01*
X185276195Y-68914510D01*
X185225589Y-68747687D01*
X185143411Y-68593941D01*
X185032817Y-68459183D01*
X184999049Y-68431470D01*
X184692241Y-68124662D01*
X184979947Y-67836956D01*
X185257919Y-67420941D01*
X185449389Y-66958691D01*
X185547000Y-66467968D01*
X185547000Y-65967632D01*
X185449389Y-65476909D01*
X185257919Y-65014659D01*
X184979947Y-64598644D01*
X184626156Y-64244853D01*
X184210141Y-63966881D01*
X184142000Y-63938656D01*
X184142000Y-62146944D01*
X184210141Y-62118719D01*
X184626156Y-61840747D01*
X184979947Y-61486956D01*
X185257919Y-61070941D01*
X185449389Y-60608691D01*
X185547000Y-60117968D01*
X185547000Y-59617632D01*
X185449389Y-59126909D01*
X185257919Y-58664659D01*
X184979947Y-58248644D01*
X184626156Y-57894853D01*
X184210141Y-57616881D01*
X183747891Y-57425411D01*
X183257168Y-57327800D01*
X182756832Y-57327800D01*
X182266109Y-57425411D01*
X181803859Y-57616881D01*
X181387844Y-57894853D01*
X181034053Y-58248644D01*
X180756081Y-58664659D01*
X180727856Y-58732800D01*
X178936144Y-58732800D01*
X178907919Y-58664659D01*
X178629947Y-58248644D01*
X178276156Y-57894853D01*
X177860141Y-57616881D01*
X177397891Y-57425411D01*
X176907168Y-57327800D01*
X176406832Y-57327800D01*
X175916109Y-57425411D01*
X175453859Y-57616881D01*
X175037844Y-57894853D01*
X174684053Y-58248644D01*
X174406081Y-58664659D01*
X174214611Y-59126909D01*
X174117000Y-59617632D01*
X116805877Y-59617632D01*
X116978839Y-59444670D01*
X117398533Y-58816554D01*
X117687623Y-58118628D01*
X117835000Y-57377715D01*
X117835000Y-56622285D01*
X188165000Y-56622285D01*
X188165000Y-57377715D01*
X188312377Y-58118628D01*
X188601467Y-58816554D01*
X189021161Y-59444670D01*
X189555330Y-59978839D01*
X190183446Y-60398533D01*
X190881372Y-60687623D01*
X191622285Y-60835000D01*
X192377715Y-60835000D01*
X193118628Y-60687623D01*
X193816554Y-60398533D01*
X194444670Y-59978839D01*
X194978839Y-59444670D01*
X195398533Y-58816554D01*
X195687623Y-58118628D01*
X195835000Y-57377715D01*
X195835000Y-56622285D01*
X195687623Y-55881372D01*
X195398533Y-55183446D01*
X194978839Y-54555330D01*
X194444670Y-54021161D01*
X193816554Y-53601467D01*
X193118628Y-53312377D01*
X192377715Y-53165000D01*
X191622285Y-53165000D01*
X190881372Y-53312377D01*
X190183446Y-53601467D01*
X189555330Y-54021161D01*
X189021161Y-54555330D01*
X188601467Y-55183446D01*
X188312377Y-55881372D01*
X188165000Y-56622285D01*
X117835000Y-56622285D01*
X117687623Y-55881372D01*
X117398533Y-55183446D01*
X116978839Y-54555330D01*
X116444670Y-54021161D01*
X115816554Y-53601467D01*
X115118628Y-53312377D01*
X114377715Y-53165000D01*
X113622285Y-53165000D01*
X112881372Y-53312377D01*
X112183446Y-53601467D01*
X111555330Y-54021161D01*
X111021161Y-54555330D01*
X110601467Y-55183446D01*
X110312377Y-55881372D01*
X110165000Y-56622285D01*
X109127000Y-56622285D01*
X109127000Y-52127000D01*
X196873000Y-52127000D01*
X196873000Y-109873000D01*
G04 #@! TA.AperFunction,Conductor*
D26*
G36*
X196873000Y-109873000D02*
G01*
X109127000Y-109873000D01*
X109127000Y-104622285D01*
X110165000Y-104622285D01*
X110165000Y-105377715D01*
X110312377Y-106118628D01*
X110601467Y-106816554D01*
X111021161Y-107444670D01*
X111555330Y-107978839D01*
X112183446Y-108398533D01*
X112881372Y-108687623D01*
X113622285Y-108835000D01*
X114377715Y-108835000D01*
X115118628Y-108687623D01*
X115816554Y-108398533D01*
X116444670Y-107978839D01*
X116978839Y-107444670D01*
X117398533Y-106816554D01*
X117687623Y-106118628D01*
X117835000Y-105377715D01*
X117835000Y-104622285D01*
X188165000Y-104622285D01*
X188165000Y-105377715D01*
X188312377Y-106118628D01*
X188601467Y-106816554D01*
X189021161Y-107444670D01*
X189555330Y-107978839D01*
X190183446Y-108398533D01*
X190881372Y-108687623D01*
X191622285Y-108835000D01*
X192377715Y-108835000D01*
X193118628Y-108687623D01*
X193816554Y-108398533D01*
X194444670Y-107978839D01*
X194978839Y-107444670D01*
X195398533Y-106816554D01*
X195687623Y-106118628D01*
X195835000Y-105377715D01*
X195835000Y-104622285D01*
X195687623Y-103881372D01*
X195398533Y-103183446D01*
X194978839Y-102555330D01*
X194444670Y-102021161D01*
X193816554Y-101601467D01*
X193118628Y-101312377D01*
X192377715Y-101165000D01*
X191622285Y-101165000D01*
X190881372Y-101312377D01*
X190183446Y-101601467D01*
X189555330Y-102021161D01*
X189021161Y-102555330D01*
X188601467Y-103183446D01*
X188312377Y-103881372D01*
X188165000Y-104622285D01*
X117835000Y-104622285D01*
X117687623Y-103881372D01*
X117398533Y-103183446D01*
X116978839Y-102555330D01*
X116444670Y-102021161D01*
X115816554Y-101601467D01*
X115118628Y-101312377D01*
X114377715Y-101165000D01*
X113622285Y-101165000D01*
X112881372Y-101312377D01*
X112183446Y-101601467D01*
X111555330Y-102021161D01*
X111021161Y-102555330D01*
X110601467Y-103183446D01*
X110312377Y-103881372D01*
X110165000Y-104622285D01*
X109127000Y-104622285D01*
X109127000Y-65444000D01*
X115351928Y-65444000D01*
X115351928Y-67144000D01*
X115364188Y-67268482D01*
X115400498Y-67388180D01*
X115459463Y-67498494D01*
X115538815Y-67595185D01*
X115635506Y-67674537D01*
X115745820Y-67733502D01*
X115818380Y-67755513D01*
X115686525Y-67887368D01*
X115524010Y-68130589D01*
X115412068Y-68400842D01*
X115355000Y-68687740D01*
X115355000Y-68980260D01*
X115412068Y-69267158D01*
X115524010Y-69537411D01*
X115686525Y-69780632D01*
X115893368Y-69987475D01*
X116067760Y-70104000D01*
X115893368Y-70220525D01*
X115686525Y-70427368D01*
X115524010Y-70670589D01*
X115412068Y-70940842D01*
X115355000Y-71227740D01*
X115355000Y-71520260D01*
X115412068Y-71807158D01*
X115524010Y-72077411D01*
X115686525Y-72320632D01*
X115893368Y-72527475D01*
X116067760Y-72644000D01*
X115893368Y-72760525D01*
X115686525Y-72967368D01*
X115524010Y-73210589D01*
X115412068Y-73480842D01*
X115355000Y-73767740D01*
X115355000Y-74060260D01*
X115412068Y-74347158D01*
X115524010Y-74617411D01*
X115686525Y-74860632D01*
X115893368Y-75067475D01*
X116067760Y-75184000D01*
X115893368Y-75300525D01*
X115686525Y-75507368D01*
X115524010Y-75750589D01*
X115412068Y-76020842D01*
X115355000Y-76307740D01*
X115355000Y-76600260D01*
X115412068Y-76887158D01*
X115524010Y-77157411D01*
X115686525Y-77400632D01*
X115893368Y-77607475D01*
X116067760Y-77724000D01*
X115893368Y-77840525D01*
X115686525Y-78047368D01*
X115524010Y-78290589D01*
X115412068Y-78560842D01*
X115355000Y-78847740D01*
X115355000Y-79140260D01*
X115412068Y-79427158D01*
X115524010Y-79697411D01*
X115686525Y-79940632D01*
X115893368Y-80147475D01*
X116067760Y-80264000D01*
X115893368Y-80380525D01*
X115686525Y-80587368D01*
X115524010Y-80830589D01*
X115412068Y-81100842D01*
X115355000Y-81387740D01*
X115355000Y-81680260D01*
X115412068Y-81967158D01*
X115524010Y-82237411D01*
X115686525Y-82480632D01*
X115893368Y-82687475D01*
X116067760Y-82804000D01*
X115893368Y-82920525D01*
X115686525Y-83127368D01*
X115524010Y-83370589D01*
X115412068Y-83640842D01*
X115355000Y-83927740D01*
X115355000Y-84220260D01*
X115412068Y-84507158D01*
X115524010Y-84777411D01*
X115686525Y-85020632D01*
X115893368Y-85227475D01*
X116067760Y-85344000D01*
X115893368Y-85460525D01*
X115686525Y-85667368D01*
X115524010Y-85910589D01*
X115412068Y-86180842D01*
X115355000Y-86467740D01*
X115355000Y-86760260D01*
X115412068Y-87047158D01*
X115524010Y-87317411D01*
X115686525Y-87560632D01*
X115893368Y-87767475D01*
X116067760Y-87884000D01*
X115893368Y-88000525D01*
X115686525Y-88207368D01*
X115524010Y-88450589D01*
X115412068Y-88720842D01*
X115355000Y-89007740D01*
X115355000Y-89300260D01*
X115412068Y-89587158D01*
X115524010Y-89857411D01*
X115686525Y-90100632D01*
X115893368Y-90307475D01*
X116067760Y-90424000D01*
X115893368Y-90540525D01*
X115686525Y-90747368D01*
X115524010Y-90990589D01*
X115412068Y-91260842D01*
X115355000Y-91547740D01*
X115355000Y-91840260D01*
X115412068Y-92127158D01*
X115524010Y-92397411D01*
X115686525Y-92640632D01*
X115893368Y-92847475D01*
X116067760Y-92964000D01*
X115893368Y-93080525D01*
X115686525Y-93287368D01*
X115524010Y-93530589D01*
X115412068Y-93800842D01*
X115355000Y-94087740D01*
X115355000Y-94380260D01*
X115412068Y-94667158D01*
X115524010Y-94937411D01*
X115686525Y-95180632D01*
X115893368Y-95387475D01*
X116136589Y-95549990D01*
X116406842Y-95661932D01*
X116693740Y-95719000D01*
X116986260Y-95719000D01*
X117273158Y-95661932D01*
X117543411Y-95549990D01*
X117786632Y-95387475D01*
X117993475Y-95180632D01*
X118111100Y-95004594D01*
X118282412Y-95234269D01*
X118498645Y-95429178D01*
X118748748Y-95578157D01*
X119023109Y-95675481D01*
X119253000Y-95554814D01*
X119253000Y-94361000D01*
X119507000Y-94361000D01*
X119507000Y-95554814D01*
X119736891Y-95675481D01*
X120011252Y-95578157D01*
X120261355Y-95429178D01*
X120477588Y-95234269D01*
X120651641Y-95000920D01*
X120776825Y-94738099D01*
X120821476Y-94590890D01*
X120700155Y-94361000D01*
X119507000Y-94361000D01*
X119253000Y-94361000D01*
X119233000Y-94361000D01*
X119233000Y-94107000D01*
X119253000Y-94107000D01*
X119253000Y-94087000D01*
X119507000Y-94087000D01*
X119507000Y-94107000D01*
X120700155Y-94107000D01*
X120821476Y-93877110D01*
X120776825Y-93729901D01*
X120651641Y-93467080D01*
X120477588Y-93233731D01*
X120261355Y-93038822D01*
X120144466Y-92969195D01*
X120326632Y-92847475D01*
X120533475Y-92640632D01*
X120688999Y-92407874D01*
X120688999Y-92766678D01*
X120685323Y-92804001D01*
X120688999Y-92841323D01*
X120688999Y-92841333D01*
X120699996Y-92952986D01*
X120743453Y-93096247D01*
X120814025Y-93228277D01*
X120877028Y-93305046D01*
X120908998Y-93344001D01*
X120937996Y-93367799D01*
X121139000Y-93568803D01*
X121139000Y-93573939D01*
X121178774Y-93773898D01*
X121256795Y-93962256D01*
X121370063Y-94131774D01*
X121514226Y-94275937D01*
X121683744Y-94389205D01*
X121872102Y-94467226D01*
X122072061Y-94507000D01*
X122275939Y-94507000D01*
X122475898Y-94467226D01*
X122664256Y-94389205D01*
X122833774Y-94275937D01*
X122977937Y-94131774D01*
X123091205Y-93962256D01*
X123169226Y-93773898D01*
X123209000Y-93573939D01*
X123209000Y-93370061D01*
X123169226Y-93170102D01*
X123091205Y-92981744D01*
X123079349Y-92964000D01*
X123091205Y-92946256D01*
X123169226Y-92757898D01*
X123209000Y-92557939D01*
X123209000Y-92354061D01*
X123169226Y-92154102D01*
X123091205Y-91965744D01*
X122977937Y-91796226D01*
X122934000Y-91752289D01*
X122934000Y-90226801D01*
X124187000Y-91479802D01*
X124187000Y-91541939D01*
X124226774Y-91741898D01*
X124304795Y-91930256D01*
X124418063Y-92099774D01*
X124562226Y-92243937D01*
X124731744Y-92357205D01*
X124920102Y-92435226D01*
X125120061Y-92475000D01*
X125323939Y-92475000D01*
X125523898Y-92435226D01*
X125712256Y-92357205D01*
X125881774Y-92243937D01*
X126025937Y-92099774D01*
X126139205Y-91930256D01*
X126217226Y-91741898D01*
X126257000Y-91541939D01*
X126257000Y-91338061D01*
X126217226Y-91138102D01*
X126139205Y-90949744D01*
X126025937Y-90780226D01*
X125881774Y-90636063D01*
X125712256Y-90522795D01*
X125523898Y-90444774D01*
X125323939Y-90405000D01*
X125261802Y-90405000D01*
X123696000Y-88839199D01*
X123696000Y-87686801D01*
X125965000Y-89955802D01*
X125965000Y-90017939D01*
X126004774Y-90217898D01*
X126082795Y-90406256D01*
X126196063Y-90575774D01*
X126340226Y-90719937D01*
X126509744Y-90833205D01*
X126698102Y-90911226D01*
X126898061Y-90951000D01*
X127101939Y-90951000D01*
X127301898Y-90911226D01*
X127490256Y-90833205D01*
X127659774Y-90719937D01*
X127803937Y-90575774D01*
X127917205Y-90406256D01*
X127995226Y-90217898D01*
X128035000Y-90017939D01*
X128035000Y-89814061D01*
X127995226Y-89614102D01*
X127917205Y-89425744D01*
X127803937Y-89256226D01*
X127659774Y-89112063D01*
X127490256Y-88998795D01*
X127301898Y-88920774D01*
X127101939Y-88881000D01*
X127039802Y-88881000D01*
X124966000Y-86807199D01*
X124966000Y-85908622D01*
X125051724Y-85978974D01*
X125183753Y-86049546D01*
X125327014Y-86093003D01*
X125438667Y-86104000D01*
X125438676Y-86104000D01*
X125475999Y-86107676D01*
X125513322Y-86104000D01*
X126685199Y-86104000D01*
X128251000Y-87669802D01*
X128251000Y-87731939D01*
X128290774Y-87931898D01*
X128368795Y-88120256D01*
X128482063Y-88289774D01*
X128626226Y-88433937D01*
X128795744Y-88547205D01*
X128984102Y-88625226D01*
X129184061Y-88665000D01*
X129387939Y-88665000D01*
X129587898Y-88625226D01*
X129776256Y-88547205D01*
X129945774Y-88433937D01*
X130089937Y-88289774D01*
X130203205Y-88120256D01*
X130281226Y-87931898D01*
X130321000Y-87731939D01*
X130321000Y-87528061D01*
X130281226Y-87328102D01*
X130237335Y-87222141D01*
X130319744Y-87277205D01*
X130508102Y-87355226D01*
X130708061Y-87395000D01*
X130911939Y-87395000D01*
X131111898Y-87355226D01*
X131300256Y-87277205D01*
X131469774Y-87163937D01*
X131613937Y-87019774D01*
X131727205Y-86850256D01*
X131805226Y-86661898D01*
X131816619Y-86604619D01*
X131873898Y-86593226D01*
X132062256Y-86515205D01*
X132231774Y-86401937D01*
X132375937Y-86257774D01*
X132489205Y-86088256D01*
X132567226Y-85899898D01*
X132578619Y-85842619D01*
X132635898Y-85831226D01*
X132824256Y-85753205D01*
X132993774Y-85639937D01*
X133137937Y-85495774D01*
X133251205Y-85326256D01*
X133329226Y-85137898D01*
X133369000Y-84937939D01*
X133369000Y-84734061D01*
X133329226Y-84534102D01*
X133251205Y-84345744D01*
X133137937Y-84176226D01*
X132993774Y-84032063D01*
X132824256Y-83918795D01*
X132635898Y-83840774D01*
X132435939Y-83801000D01*
X132373802Y-83801000D01*
X131273563Y-82700761D01*
X135361700Y-82700761D01*
X135361700Y-82904639D01*
X135401474Y-83104598D01*
X135479495Y-83292956D01*
X135511700Y-83341154D01*
X135511701Y-94443221D01*
X135507419Y-94486700D01*
X135524505Y-94660190D01*
X135575112Y-94827013D01*
X135657290Y-94980759D01*
X135740168Y-95081746D01*
X135740171Y-95081749D01*
X135767884Y-95115517D01*
X135801652Y-95143230D01*
X135995466Y-95337044D01*
X136023183Y-95370817D01*
X136157941Y-95481411D01*
X136311687Y-95563589D01*
X136478510Y-95614195D01*
X136608523Y-95627000D01*
X136608531Y-95627000D01*
X136652000Y-95631281D01*
X136695469Y-95627000D01*
X138696042Y-95627000D01*
X138665000Y-95783061D01*
X138665000Y-95986939D01*
X138704774Y-96186898D01*
X138782795Y-96375256D01*
X138896063Y-96544774D01*
X139040226Y-96688937D01*
X139209744Y-96802205D01*
X139398102Y-96880226D01*
X139598061Y-96920000D01*
X139801939Y-96920000D01*
X140001898Y-96880226D01*
X140190256Y-96802205D01*
X140359774Y-96688937D01*
X140403711Y-96645000D01*
X181295199Y-96645000D01*
X183115000Y-98464803D01*
X183115000Y-98526939D01*
X183154774Y-98726898D01*
X183232795Y-98915256D01*
X183346063Y-99084774D01*
X183490226Y-99228937D01*
X183659744Y-99342205D01*
X183848102Y-99420226D01*
X184048061Y-99460000D01*
X184251939Y-99460000D01*
X184451898Y-99420226D01*
X184640256Y-99342205D01*
X184809774Y-99228937D01*
X184953937Y-99084774D01*
X185067205Y-98915256D01*
X185145226Y-98726898D01*
X185185000Y-98526939D01*
X185185000Y-98323061D01*
X185145226Y-98123102D01*
X185067205Y-97934744D01*
X184953937Y-97765226D01*
X184809774Y-97621063D01*
X184640256Y-97507795D01*
X184451898Y-97429774D01*
X184251939Y-97390000D01*
X184189803Y-97390000D01*
X182540302Y-95740501D01*
X189866929Y-88413876D01*
X189825000Y-88624665D01*
X189825000Y-88907335D01*
X189880147Y-89184574D01*
X189988320Y-89445727D01*
X190145363Y-89680759D01*
X190345241Y-89880637D01*
X190580273Y-90037680D01*
X190841426Y-90145853D01*
X191118665Y-90201000D01*
X191401335Y-90201000D01*
X191678574Y-90145853D01*
X191939727Y-90037680D01*
X192174759Y-89880637D01*
X192275000Y-89780396D01*
X192375241Y-89880637D01*
X192610273Y-90037680D01*
X192871426Y-90145853D01*
X193148665Y-90201000D01*
X193431335Y-90201000D01*
X193708574Y-90145853D01*
X193969727Y-90037680D01*
X194204759Y-89880637D01*
X194404637Y-89680759D01*
X194561680Y-89445727D01*
X194669853Y-89184574D01*
X194725000Y-88907335D01*
X194725000Y-88624665D01*
X194669853Y-88347426D01*
X194561680Y-88086273D01*
X194404637Y-87851241D01*
X194204759Y-87651363D01*
X193969727Y-87494320D01*
X193708574Y-87386147D01*
X193431335Y-87331000D01*
X193148665Y-87331000D01*
X192966113Y-87367312D01*
X192728803Y-87130001D01*
X192705000Y-87100998D01*
X192589275Y-87006025D01*
X192457246Y-86935453D01*
X192313985Y-86891996D01*
X192202332Y-86880999D01*
X192202321Y-86880999D01*
X192164999Y-86877323D01*
X192127677Y-86880999D01*
X189602325Y-86880999D01*
X189565002Y-86877323D01*
X189527679Y-86880999D01*
X189527670Y-86880999D01*
X189416017Y-86891996D01*
X189272756Y-86935453D01*
X189140727Y-87006025D01*
X189140725Y-87006026D01*
X189140726Y-87006026D01*
X189053999Y-87077200D01*
X189053995Y-87077204D01*
X189025002Y-87100998D01*
X189001208Y-87129991D01*
X188912469Y-87218730D01*
X188863149Y-86970782D01*
X188692786Y-86559489D01*
X188445456Y-86189334D01*
X188130666Y-85874544D01*
X187760511Y-85627214D01*
X187349218Y-85456851D01*
X186912591Y-85370000D01*
X186467409Y-85370000D01*
X186030782Y-85456851D01*
X185619489Y-85627214D01*
X185249334Y-85874544D01*
X184934544Y-86189334D01*
X184687214Y-86559489D01*
X184516851Y-86970782D01*
X184430000Y-87407409D01*
X184430000Y-87852591D01*
X184516851Y-88289218D01*
X184588254Y-88461599D01*
X184463831Y-88378463D01*
X184148081Y-88247675D01*
X183812883Y-88181000D01*
X183471117Y-88181000D01*
X183135919Y-88247675D01*
X182820169Y-88378463D01*
X182536002Y-88568337D01*
X182294337Y-88810002D01*
X182104463Y-89094169D01*
X181973675Y-89409919D01*
X181907000Y-89745117D01*
X181907000Y-90086883D01*
X181973675Y-90422081D01*
X182104463Y-90737831D01*
X182294337Y-91021998D01*
X182536002Y-91263663D01*
X182579537Y-91292752D01*
X182533263Y-91339026D01*
X182419995Y-91508544D01*
X182341974Y-91696902D01*
X182330665Y-91753756D01*
X181040222Y-93044200D01*
X175696854Y-93044200D01*
X175648656Y-93011995D01*
X175460298Y-92933974D01*
X175260339Y-92894200D01*
X175056461Y-92894200D01*
X174856502Y-92933974D01*
X174668144Y-93011995D01*
X174498626Y-93125263D01*
X174354463Y-93269426D01*
X174241195Y-93438944D01*
X174163174Y-93627302D01*
X174123400Y-93827261D01*
X174123400Y-94031139D01*
X174163174Y-94231098D01*
X174241195Y-94419456D01*
X174288331Y-94490000D01*
X145561000Y-94490000D01*
X145561000Y-94386061D01*
X145521226Y-94186102D01*
X145443205Y-93997744D01*
X145329937Y-93828226D01*
X145185774Y-93684063D01*
X145016256Y-93570795D01*
X144827898Y-93492774D01*
X144771044Y-93481465D01*
X143404534Y-92114956D01*
X143376817Y-92081183D01*
X143242059Y-91970589D01*
X143088313Y-91888411D01*
X142921490Y-91837805D01*
X142791477Y-91825000D01*
X142791469Y-91825000D01*
X142748000Y-91820719D01*
X142704531Y-91825000D01*
X142029465Y-91825000D01*
X141985999Y-91820719D01*
X141942533Y-91825000D01*
X141942523Y-91825000D01*
X141812510Y-91837805D01*
X141645687Y-91888411D01*
X141491941Y-91970589D01*
X141357183Y-92081183D01*
X141329466Y-92114956D01*
X140628952Y-92815470D01*
X140595184Y-92843183D01*
X140567471Y-92876951D01*
X140567468Y-92876954D01*
X140522294Y-92931999D01*
X140484590Y-92977941D01*
X140402412Y-93131687D01*
X140351805Y-93298510D01*
X140339000Y-93428523D01*
X140339000Y-93428531D01*
X140334719Y-93472000D01*
X140339000Y-93515469D01*
X140339000Y-93857000D01*
X137281700Y-93857000D01*
X137281700Y-84948665D01*
X154394000Y-84948665D01*
X154394000Y-85231335D01*
X154449147Y-85508574D01*
X154557320Y-85769727D01*
X154714363Y-86004759D01*
X154914241Y-86204637D01*
X155149273Y-86361680D01*
X155410426Y-86469853D01*
X155687665Y-86525000D01*
X155970335Y-86525000D01*
X156247574Y-86469853D01*
X156508727Y-86361680D01*
X156743759Y-86204637D01*
X156943637Y-86004759D01*
X157100680Y-85769727D01*
X157208853Y-85508574D01*
X157264000Y-85231335D01*
X157264000Y-84948665D01*
X157208853Y-84671426D01*
X157100680Y-84410273D01*
X156943637Y-84175241D01*
X156743759Y-83975363D01*
X156508727Y-83818320D01*
X156247574Y-83710147D01*
X155970335Y-83655000D01*
X155687665Y-83655000D01*
X155410426Y-83710147D01*
X155149273Y-83818320D01*
X154914241Y-83975363D01*
X154714363Y-84175241D01*
X154557320Y-84410273D01*
X154449147Y-84671426D01*
X154394000Y-84948665D01*
X137281700Y-84948665D01*
X137281700Y-83341154D01*
X137313905Y-83292956D01*
X137391926Y-83104598D01*
X137431700Y-82904639D01*
X137431700Y-82700761D01*
X137391926Y-82500802D01*
X137313905Y-82312444D01*
X137200637Y-82142926D01*
X137056474Y-81998763D01*
X136886956Y-81885495D01*
X136698598Y-81807474D01*
X136498639Y-81767700D01*
X136294761Y-81767700D01*
X136094802Y-81807474D01*
X135906444Y-81885495D01*
X135736926Y-81998763D01*
X135592763Y-82142926D01*
X135479495Y-82312444D01*
X135401474Y-82500802D01*
X135361700Y-82700761D01*
X131273563Y-82700761D01*
X128014000Y-79441199D01*
X128014000Y-70807711D01*
X128057937Y-70763774D01*
X128171205Y-70594256D01*
X128249226Y-70405898D01*
X128289000Y-70205939D01*
X128289000Y-70002061D01*
X128249226Y-69802102D01*
X128171205Y-69613744D01*
X128057937Y-69444226D01*
X127913774Y-69300063D01*
X127744256Y-69186795D01*
X127555898Y-69108774D01*
X127355939Y-69069000D01*
X127152061Y-69069000D01*
X126952102Y-69108774D01*
X126763744Y-69186795D01*
X126594226Y-69300063D01*
X126450063Y-69444226D01*
X126336795Y-69613744D01*
X126258774Y-69802102D01*
X126219000Y-70002061D01*
X126219000Y-70205939D01*
X126258774Y-70405898D01*
X126336795Y-70594256D01*
X126450063Y-70763774D01*
X126494000Y-70807711D01*
X126494000Y-71609000D01*
X126390061Y-71609000D01*
X126190102Y-71648774D01*
X126001744Y-71726795D01*
X125832226Y-71840063D01*
X125688063Y-71984226D01*
X125574795Y-72153744D01*
X125496774Y-72342102D01*
X125457000Y-72542061D01*
X125457000Y-72745939D01*
X125496774Y-72945898D01*
X125574795Y-73134256D01*
X125688063Y-73303774D01*
X125732000Y-73347711D01*
X125732001Y-77413199D01*
X122991804Y-74673003D01*
X122968001Y-74643999D01*
X122852276Y-74549026D01*
X122720247Y-74478454D01*
X122576986Y-74434997D01*
X122465333Y-74424000D01*
X122465322Y-74424000D01*
X122428000Y-74420324D01*
X122390678Y-74424000D01*
X122369711Y-74424000D01*
X122325774Y-74380063D01*
X122156256Y-74266795D01*
X121967898Y-74188774D01*
X121767939Y-74149000D01*
X121564061Y-74149000D01*
X121364102Y-74188774D01*
X121175744Y-74266795D01*
X121006226Y-74380063D01*
X120862063Y-74524226D01*
X120748795Y-74693744D01*
X120670774Y-74882102D01*
X120631000Y-75082061D01*
X120631000Y-75285939D01*
X120670774Y-75485898D01*
X120748795Y-75674256D01*
X120862063Y-75843774D01*
X121006226Y-75987937D01*
X121175744Y-76101205D01*
X121364102Y-76179226D01*
X121564061Y-76219000D01*
X121767939Y-76219000D01*
X121967898Y-76179226D01*
X122156256Y-76101205D01*
X122224683Y-76055484D01*
X124493477Y-78324278D01*
X124477744Y-78330795D01*
X124308226Y-78444063D01*
X124164063Y-78588226D01*
X124050795Y-78757744D01*
X123972774Y-78946102D01*
X123933000Y-79146061D01*
X123933000Y-79349939D01*
X123972774Y-79549898D01*
X124050795Y-79738256D01*
X124056303Y-79746500D01*
X123904102Y-79776774D01*
X123715744Y-79854795D01*
X123546226Y-79968063D01*
X123402063Y-80112226D01*
X123288795Y-80281744D01*
X123210774Y-80470102D01*
X123171000Y-80670061D01*
X123171000Y-80873939D01*
X123210774Y-81073898D01*
X123288795Y-81262256D01*
X123402063Y-81431774D01*
X123446000Y-81475711D01*
X123446000Y-81899988D01*
X123426256Y-81886795D01*
X123237898Y-81808774D01*
X123037939Y-81769000D01*
X122834061Y-81769000D01*
X122634102Y-81808774D01*
X122445744Y-81886795D01*
X122276226Y-82000063D01*
X122132063Y-82144226D01*
X122018795Y-82313744D01*
X121940774Y-82502102D01*
X121901000Y-82702061D01*
X121901000Y-82905939D01*
X121940774Y-83105898D01*
X122018795Y-83294256D01*
X122132063Y-83463774D01*
X122176000Y-83507711D01*
X122176000Y-84309000D01*
X122072061Y-84309000D01*
X121872102Y-84348774D01*
X121683744Y-84426795D01*
X121514226Y-84540063D01*
X121370063Y-84684226D01*
X121256795Y-84853744D01*
X121178774Y-85042102D01*
X121139000Y-85242061D01*
X121139000Y-85445939D01*
X121178774Y-85645898D01*
X121256795Y-85834256D01*
X121370063Y-86003774D01*
X121414000Y-86047711D01*
X121414000Y-86849000D01*
X121347061Y-86849000D01*
X121147102Y-86888774D01*
X120958744Y-86966795D01*
X120796245Y-87075373D01*
X120807932Y-87047158D01*
X120865000Y-86760260D01*
X120865000Y-86467740D01*
X120807932Y-86180842D01*
X120695990Y-85910589D01*
X120533475Y-85667368D01*
X120326632Y-85460525D01*
X120152240Y-85344000D01*
X120326632Y-85227475D01*
X120533475Y-85020632D01*
X120695990Y-84777411D01*
X120807932Y-84507158D01*
X120865000Y-84220260D01*
X120865000Y-83927740D01*
X120807932Y-83640842D01*
X120695990Y-83370589D01*
X120533475Y-83127368D01*
X120326632Y-82920525D01*
X120152240Y-82804000D01*
X120326632Y-82687475D01*
X120533475Y-82480632D01*
X120695990Y-82237411D01*
X120807932Y-81967158D01*
X120847840Y-81766529D01*
X120860755Y-81771879D01*
X121060714Y-81811653D01*
X121264592Y-81811653D01*
X121464551Y-81771879D01*
X121652909Y-81693858D01*
X121822427Y-81580590D01*
X121966590Y-81436427D01*
X122079858Y-81266909D01*
X122157879Y-81078551D01*
X122197653Y-80878592D01*
X122197653Y-80674714D01*
X122157879Y-80474755D01*
X122079858Y-80286397D01*
X121966590Y-80116879D01*
X121822427Y-79972716D01*
X121652909Y-79859448D01*
X121464551Y-79781427D01*
X121264592Y-79741653D01*
X121060714Y-79741653D01*
X120860755Y-79781427D01*
X120771287Y-79818486D01*
X120705803Y-79753002D01*
X120682001Y-79723999D01*
X120679562Y-79721997D01*
X120695990Y-79697411D01*
X120807932Y-79427158D01*
X120865000Y-79140260D01*
X120865000Y-78847740D01*
X120807932Y-78560842D01*
X120736753Y-78389001D01*
X120748200Y-78389001D01*
X121651653Y-79292455D01*
X121651653Y-79354592D01*
X121691427Y-79554551D01*
X121769448Y-79742909D01*
X121882716Y-79912427D01*
X122026879Y-80056590D01*
X122196397Y-80169858D01*
X122384755Y-80247879D01*
X122584714Y-80287653D01*
X122788592Y-80287653D01*
X122988551Y-80247879D01*
X123176909Y-80169858D01*
X123346427Y-80056590D01*
X123490590Y-79912427D01*
X123603858Y-79742909D01*
X123681879Y-79554551D01*
X123721653Y-79354592D01*
X123721653Y-79150714D01*
X123681879Y-78950755D01*
X123603858Y-78762397D01*
X123490590Y-78592879D01*
X123346427Y-78448716D01*
X123176909Y-78335448D01*
X122988551Y-78257427D01*
X122788592Y-78217653D01*
X122726455Y-78217653D01*
X121626805Y-77118004D01*
X121603002Y-77089000D01*
X121487277Y-76994027D01*
X121355248Y-76923455D01*
X121211987Y-76879998D01*
X121100334Y-76869001D01*
X121100323Y-76869001D01*
X121063001Y-76865325D01*
X121025679Y-76869001D01*
X120811544Y-76869001D01*
X120865000Y-76600260D01*
X120865000Y-76307740D01*
X120807932Y-76020842D01*
X120695990Y-75750589D01*
X120533475Y-75507368D01*
X120326632Y-75300525D01*
X120152240Y-75184000D01*
X120326632Y-75067475D01*
X120533475Y-74860632D01*
X120695990Y-74617411D01*
X120807932Y-74347158D01*
X120865000Y-74060260D01*
X120865000Y-73767740D01*
X120807932Y-73480842D01*
X120695990Y-73210589D01*
X120533475Y-72967368D01*
X120326632Y-72760525D01*
X120152240Y-72644000D01*
X120326632Y-72527475D01*
X120533475Y-72320632D01*
X120695990Y-72077411D01*
X120807932Y-71807158D01*
X120865000Y-71520260D01*
X120865000Y-71227740D01*
X120807932Y-70940842D01*
X120695990Y-70670589D01*
X120533475Y-70427368D01*
X120326632Y-70220525D01*
X120152240Y-70104000D01*
X120326632Y-69987475D01*
X120533475Y-69780632D01*
X120695990Y-69537411D01*
X120807932Y-69267158D01*
X120865000Y-68980260D01*
X120865000Y-68687740D01*
X120807932Y-68400842D01*
X120695990Y-68130589D01*
X120533475Y-67887368D01*
X120326632Y-67680525D01*
X120144466Y-67558805D01*
X120261355Y-67489178D01*
X120477588Y-67294269D01*
X120651641Y-67060920D01*
X120776825Y-66798099D01*
X120821476Y-66650890D01*
X120700155Y-66421000D01*
X119507000Y-66421000D01*
X119507000Y-66441000D01*
X119253000Y-66441000D01*
X119253000Y-66421000D01*
X119233000Y-66421000D01*
X119233000Y-66167000D01*
X119253000Y-66167000D01*
X119253000Y-64973186D01*
X119507000Y-64973186D01*
X119507000Y-66167000D01*
X120700155Y-66167000D01*
X120821476Y-65937110D01*
X120776825Y-65789901D01*
X120651641Y-65527080D01*
X120477588Y-65293731D01*
X120261355Y-65098822D01*
X120011252Y-64949843D01*
X119736891Y-64852519D01*
X119507000Y-64973186D01*
X119253000Y-64973186D01*
X119023109Y-64852519D01*
X118748748Y-64949843D01*
X118498645Y-65098822D01*
X118302498Y-65275626D01*
X118279502Y-65199820D01*
X118220537Y-65089506D01*
X118141185Y-64992815D01*
X118044494Y-64913463D01*
X117934180Y-64854498D01*
X117814482Y-64818188D01*
X117690000Y-64805928D01*
X115990000Y-64805928D01*
X115865518Y-64818188D01*
X115745820Y-64854498D01*
X115635506Y-64913463D01*
X115538815Y-64992815D01*
X115459463Y-65089506D01*
X115400498Y-65199820D01*
X115364188Y-65319518D01*
X115351928Y-65444000D01*
X109127000Y-65444000D01*
X109127000Y-64755665D01*
X130518000Y-64755665D01*
X130518000Y-65038335D01*
X130573147Y-65315574D01*
X130681320Y-65576727D01*
X130818000Y-65781284D01*
X130818001Y-76775784D01*
X130808320Y-76790273D01*
X130700147Y-77051426D01*
X130645000Y-77328665D01*
X130645000Y-77611335D01*
X130700147Y-77888574D01*
X130808320Y-78149727D01*
X130965363Y-78384759D01*
X131165241Y-78584637D01*
X131400273Y-78741680D01*
X131661426Y-78849853D01*
X131938665Y-78905000D01*
X132221335Y-78905000D01*
X132498574Y-78849853D01*
X132759727Y-78741680D01*
X132994759Y-78584637D01*
X133194637Y-78384759D01*
X133351680Y-78149727D01*
X133459853Y-77888574D01*
X133515000Y-77611335D01*
X133515000Y-77328665D01*
X133459853Y-77051426D01*
X133351680Y-76790273D01*
X133194637Y-76555241D01*
X133088000Y-76448604D01*
X133088000Y-65781284D01*
X133224680Y-65576727D01*
X133332853Y-65315574D01*
X133388000Y-65038335D01*
X133388000Y-64755665D01*
X133332853Y-64478426D01*
X133224680Y-64217273D01*
X133067637Y-63982241D01*
X132867759Y-63782363D01*
X132632727Y-63625320D01*
X132371574Y-63517147D01*
X132094335Y-63462000D01*
X131811665Y-63462000D01*
X131534426Y-63517147D01*
X131273273Y-63625320D01*
X131038241Y-63782363D01*
X130838363Y-63982241D01*
X130681320Y-64217273D01*
X130573147Y-64478426D01*
X130518000Y-64755665D01*
X109127000Y-64755665D01*
X109127000Y-56622285D01*
X110165000Y-56622285D01*
X110165000Y-57377715D01*
X110312377Y-58118628D01*
X110601467Y-58816554D01*
X111021161Y-59444670D01*
X111555330Y-59978839D01*
X112183446Y-60398533D01*
X112881372Y-60687623D01*
X113622285Y-60835000D01*
X114377715Y-60835000D01*
X115118628Y-60687623D01*
X115816554Y-60398533D01*
X116444670Y-59978839D01*
X116805877Y-59617632D01*
X174117000Y-59617632D01*
X174117000Y-60117968D01*
X174214611Y-60608691D01*
X174406081Y-61070941D01*
X174684053Y-61486956D01*
X175037844Y-61840747D01*
X175453859Y-62118719D01*
X175522000Y-62146944D01*
X175522001Y-63938656D01*
X175453859Y-63966881D01*
X175037844Y-64244853D01*
X174684053Y-64598644D01*
X174406081Y-65014659D01*
X174214611Y-65476909D01*
X174117000Y-65967632D01*
X174117000Y-66467968D01*
X174214611Y-66958691D01*
X174406081Y-67420941D01*
X174684053Y-67836956D01*
X175037844Y-68190747D01*
X175453859Y-68468719D01*
X175916109Y-68660189D01*
X176406832Y-68757800D01*
X176907168Y-68757800D01*
X177397891Y-68660189D01*
X177860141Y-68468719D01*
X178276156Y-68190747D01*
X178629947Y-67836956D01*
X178907919Y-67420941D01*
X178947000Y-67326591D01*
X178947001Y-73108521D01*
X178942719Y-73152000D01*
X178959805Y-73325490D01*
X179010412Y-73492313D01*
X179092590Y-73646059D01*
X179175468Y-73747046D01*
X179175471Y-73747049D01*
X179203184Y-73780817D01*
X179236952Y-73808530D01*
X180243422Y-74815000D01*
X180203589Y-74815000D01*
X179936011Y-74868225D01*
X179683957Y-74972629D01*
X179457114Y-75124201D01*
X179264201Y-75317114D01*
X179112629Y-75543957D01*
X179008225Y-75796011D01*
X178955000Y-76063589D01*
X178955000Y-76336411D01*
X179008225Y-76603989D01*
X179112629Y-76856043D01*
X179264201Y-77082886D01*
X179457114Y-77275799D01*
X179683957Y-77427371D01*
X179786873Y-77470000D01*
X179683957Y-77512629D01*
X179457114Y-77664201D01*
X179264201Y-77857114D01*
X179112629Y-78083957D01*
X179008225Y-78336011D01*
X178955000Y-78603589D01*
X178955000Y-78876411D01*
X179008225Y-79143989D01*
X179029354Y-79194999D01*
X178921158Y-79194999D01*
X178875799Y-79127114D01*
X178682886Y-78934201D01*
X178456043Y-78782629D01*
X178353127Y-78740000D01*
X178456043Y-78697371D01*
X178682886Y-78545799D01*
X178875799Y-78352886D01*
X179027371Y-78126043D01*
X179131775Y-77873989D01*
X179185000Y-77606411D01*
X179185000Y-77333589D01*
X179131775Y-77066011D01*
X179027371Y-76813957D01*
X178875799Y-76587114D01*
X178682886Y-76394201D01*
X178456043Y-76242629D01*
X178203989Y-76138225D01*
X177936411Y-76085000D01*
X177663589Y-76085000D01*
X177396011Y-76138225D01*
X177143957Y-76242629D01*
X176917114Y-76394201D01*
X176724201Y-76587114D01*
X176572629Y-76813957D01*
X176468225Y-77066011D01*
X176415000Y-77333589D01*
X176415000Y-77606411D01*
X176468225Y-77873989D01*
X176572629Y-78126043D01*
X176724201Y-78352886D01*
X176917114Y-78545799D01*
X177143957Y-78697371D01*
X177246873Y-78740000D01*
X177143957Y-78782629D01*
X176917114Y-78934201D01*
X176724201Y-79127114D01*
X176572629Y-79353957D01*
X176468225Y-79606011D01*
X176415000Y-79873589D01*
X176415000Y-80146411D01*
X176468225Y-80413989D01*
X176572629Y-80666043D01*
X176724201Y-80892886D01*
X176917114Y-81085799D01*
X177143957Y-81237371D01*
X177246873Y-81280000D01*
X177143957Y-81322629D01*
X176917114Y-81474201D01*
X176724201Y-81667114D01*
X176572629Y-81893957D01*
X176468225Y-82146011D01*
X176415000Y-82413589D01*
X176415000Y-82686411D01*
X176468225Y-82953989D01*
X176572629Y-83206043D01*
X176724201Y-83432886D01*
X176917114Y-83625799D01*
X177143957Y-83777371D01*
X177246873Y-83820000D01*
X177143957Y-83862629D01*
X176917114Y-84014201D01*
X176724201Y-84207114D01*
X176572629Y-84433957D01*
X176468225Y-84686011D01*
X176415000Y-84953589D01*
X176415000Y-85226411D01*
X176468225Y-85493989D01*
X176572629Y-85746043D01*
X176724201Y-85972886D01*
X176917114Y-86165799D01*
X177033483Y-86243555D01*
X176925518Y-86254188D01*
X176805820Y-86290498D01*
X176695506Y-86349463D01*
X176598815Y-86428815D01*
X176519463Y-86525506D01*
X176460498Y-86635820D01*
X176424188Y-86755518D01*
X176411928Y-86880000D01*
X176411928Y-88380000D01*
X176424188Y-88504482D01*
X176460498Y-88624180D01*
X176519463Y-88734494D01*
X176598815Y-88831185D01*
X176695506Y-88910537D01*
X176805820Y-88969502D01*
X176925518Y-89005812D01*
X177050000Y-89018072D01*
X178550000Y-89018072D01*
X178674482Y-89005812D01*
X178794180Y-88969502D01*
X178904494Y-88910537D01*
X179001185Y-88831185D01*
X179080537Y-88734494D01*
X179139502Y-88624180D01*
X179175812Y-88504482D01*
X179188072Y-88380000D01*
X179188072Y-87128951D01*
X179264201Y-87242886D01*
X179457114Y-87435799D01*
X179683957Y-87587371D01*
X179936011Y-87691775D01*
X180203589Y-87745000D01*
X180476411Y-87745000D01*
X180743989Y-87691775D01*
X180996043Y-87587371D01*
X181222886Y-87435799D01*
X181415799Y-87242886D01*
X181567371Y-87016043D01*
X181671775Y-86763989D01*
X181725000Y-86496411D01*
X181725000Y-86226578D01*
X190079051Y-77872528D01*
X190112817Y-77844817D01*
X190166466Y-77779447D01*
X190223411Y-77710059D01*
X190240541Y-77678010D01*
X190305589Y-77556313D01*
X190356195Y-77389490D01*
X190369000Y-77259477D01*
X190369000Y-77259469D01*
X190373281Y-77216000D01*
X190369000Y-77172531D01*
X190369000Y-76446512D01*
X190580273Y-76587680D01*
X190841426Y-76695853D01*
X191118665Y-76751000D01*
X191401335Y-76751000D01*
X191678574Y-76695853D01*
X191939727Y-76587680D01*
X192174759Y-76430637D01*
X192275000Y-76330396D01*
X192375241Y-76430637D01*
X192610273Y-76587680D01*
X192871426Y-76695853D01*
X193148665Y-76751000D01*
X193431335Y-76751000D01*
X193708574Y-76695853D01*
X193969727Y-76587680D01*
X194204759Y-76430637D01*
X194404637Y-76230759D01*
X194561680Y-75995727D01*
X194669853Y-75734574D01*
X194725000Y-75457335D01*
X194725000Y-75174665D01*
X194669853Y-74897426D01*
X194561680Y-74636273D01*
X194404637Y-74401241D01*
X194204759Y-74201363D01*
X193969727Y-74044320D01*
X193708574Y-73936147D01*
X193431335Y-73881000D01*
X193148665Y-73881000D01*
X192871426Y-73936147D01*
X192610273Y-74044320D01*
X192375241Y-74201363D01*
X192275000Y-74301604D01*
X192174759Y-74201363D01*
X191939727Y-74044320D01*
X191678574Y-73936147D01*
X191401335Y-73881000D01*
X191118665Y-73881000D01*
X190841426Y-73936147D01*
X190580273Y-74044320D01*
X190345241Y-74201363D01*
X190145363Y-74401241D01*
X190068241Y-74516662D01*
X186584534Y-71032956D01*
X186556817Y-70999183D01*
X186422059Y-70888589D01*
X186268313Y-70806411D01*
X186101490Y-70755805D01*
X185971477Y-70743000D01*
X185971469Y-70743000D01*
X185928000Y-70738719D01*
X185884531Y-70743000D01*
X185289000Y-70743000D01*
X185289000Y-69131465D01*
X185293281Y-69087999D01*
X185289000Y-69044533D01*
X185289000Y-69044523D01*
X185276195Y-68914510D01*
X185225589Y-68747687D01*
X185143411Y-68593941D01*
X185032817Y-68459183D01*
X184999049Y-68431470D01*
X184692241Y-68124662D01*
X184979947Y-67836956D01*
X185257919Y-67420941D01*
X185449389Y-66958691D01*
X185547000Y-66467968D01*
X185547000Y-65967632D01*
X185449389Y-65476909D01*
X185257919Y-65014659D01*
X184979947Y-64598644D01*
X184626156Y-64244853D01*
X184210141Y-63966881D01*
X184142000Y-63938656D01*
X184142000Y-62146944D01*
X184210141Y-62118719D01*
X184626156Y-61840747D01*
X184979947Y-61486956D01*
X185257919Y-61070941D01*
X185449389Y-60608691D01*
X185547000Y-60117968D01*
X185547000Y-59617632D01*
X185449389Y-59126909D01*
X185257919Y-58664659D01*
X184979947Y-58248644D01*
X184626156Y-57894853D01*
X184210141Y-57616881D01*
X183747891Y-57425411D01*
X183257168Y-57327800D01*
X182756832Y-57327800D01*
X182266109Y-57425411D01*
X181803859Y-57616881D01*
X181387844Y-57894853D01*
X181034053Y-58248644D01*
X180756081Y-58664659D01*
X180727856Y-58732800D01*
X178936144Y-58732800D01*
X178907919Y-58664659D01*
X178629947Y-58248644D01*
X178276156Y-57894853D01*
X177860141Y-57616881D01*
X177397891Y-57425411D01*
X176907168Y-57327800D01*
X176406832Y-57327800D01*
X175916109Y-57425411D01*
X175453859Y-57616881D01*
X175037844Y-57894853D01*
X174684053Y-58248644D01*
X174406081Y-58664659D01*
X174214611Y-59126909D01*
X174117000Y-59617632D01*
X116805877Y-59617632D01*
X116978839Y-59444670D01*
X117398533Y-58816554D01*
X117687623Y-58118628D01*
X117835000Y-57377715D01*
X117835000Y-56622285D01*
X188165000Y-56622285D01*
X188165000Y-57377715D01*
X188312377Y-58118628D01*
X188601467Y-58816554D01*
X189021161Y-59444670D01*
X189555330Y-59978839D01*
X190183446Y-60398533D01*
X190881372Y-60687623D01*
X191622285Y-60835000D01*
X192377715Y-60835000D01*
X193118628Y-60687623D01*
X193816554Y-60398533D01*
X194444670Y-59978839D01*
X194978839Y-59444670D01*
X195398533Y-58816554D01*
X195687623Y-58118628D01*
X195835000Y-57377715D01*
X195835000Y-56622285D01*
X195687623Y-55881372D01*
X195398533Y-55183446D01*
X194978839Y-54555330D01*
X194444670Y-54021161D01*
X193816554Y-53601467D01*
X193118628Y-53312377D01*
X192377715Y-53165000D01*
X191622285Y-53165000D01*
X190881372Y-53312377D01*
X190183446Y-53601467D01*
X189555330Y-54021161D01*
X189021161Y-54555330D01*
X188601467Y-55183446D01*
X188312377Y-55881372D01*
X188165000Y-56622285D01*
X117835000Y-56622285D01*
X117687623Y-55881372D01*
X117398533Y-55183446D01*
X116978839Y-54555330D01*
X116444670Y-54021161D01*
X115816554Y-53601467D01*
X115118628Y-53312377D01*
X114377715Y-53165000D01*
X113622285Y-53165000D01*
X112881372Y-53312377D01*
X112183446Y-53601467D01*
X111555330Y-54021161D01*
X111021161Y-54555330D01*
X110601467Y-55183446D01*
X110312377Y-55881372D01*
X110165000Y-56622285D01*
X109127000Y-56622285D01*
X109127000Y-52127000D01*
X196873000Y-52127000D01*
X196873000Y-109873000D01*
G37*
G04 #@! TD.AperFunction*
M02*
