M48
; DRILL file {KiCad (5.1.12)-1} date 12/17/21 13:11:06
; FORMAT={-:-/ absolute / metric / decimal}
; #@! TF.CreationDate,2021-12-17T13:11:06+01:00
; #@! TF.GenerationSoftware,Kicad,Pcbnew,(5.1.12)-1
; #@! TF.FileFunction,Plated,1,2,PTH
FMAT,2
METRIC
T1C0.400
T2C0.500
T3C0.800
T4C0.900
T5C1.020
T6C1.270
T7C1.524
T8C1.600
T9C3.200
%
G90
G05
T1
X119.504Y-97.833
X119.53Y-93.769
X127.759Y-94.25
X127.759Y-95.25
X127.759Y-96.258
X127.759Y-97.274
X129.774Y-99.3
X130.486Y-92.31
X130.8Y-95.8
X131.109Y-99.3
X131.823Y-92.31
X132.445Y-99.3
X133.161Y-92.31
X133.78Y-99.3
X134.3Y-95.8
X134.338Y-82.593
X134.498Y-92.31
X135.115Y-99.3
X135.836Y-92.31
X136.3Y-84.3
X136.4Y-88.0
X136.45Y-99.3
X137.173Y-92.31
X137.785Y-99.3
X138.3Y-95.8
X138.511Y-92.31
X143.3Y-104.4
X145.6Y-96.2
X146.7Y-101.4
T2
X114.996Y-82.872
X114.996Y-108.678
X115.699Y-81.175
X115.699Y-84.569
X115.699Y-106.981
X115.699Y-110.375
X117.396Y-80.472
X117.396Y-85.272
X117.396Y-106.278
X117.396Y-111.078
X119.093Y-81.175
X119.093Y-84.569
X119.093Y-106.981
X119.093Y-110.375
X119.796Y-82.872
X119.796Y-108.678
T3
X114.018Y-95.826
X124.0Y-106.24
X124.0Y-111.32
X128.318Y-91.127
X131.62Y-106.24
X131.62Y-111.32
X137.7Y-78.1
X139.24Y-106.24
X139.24Y-111.32
X142.3Y-81.4
X146.3Y-85.4
X149.3Y-81.4
X150.3Y-108.4
X150.3Y-113.4
X155.3Y-81.4
X156.3Y-108.4
X156.3Y-113.4
T4
X141.26Y-92.52
X141.26Y-95.06
X141.26Y-97.6
X141.26Y-100.14
X141.26Y-102.68
X143.8Y-91.25
X143.8Y-93.79
X143.8Y-96.33
X143.8Y-98.87
X143.8Y-101.41
T5
X154.72Y-90.366
X154.72Y-103.816
X156.75Y-90.366
X156.75Y-103.816
T6
X128.293Y-82.593
T7
X125.118Y-79.418
X125.118Y-85.768
X131.468Y-79.418
X131.468Y-85.768
T8
X147.1Y-89.22
X147.102Y-104.966
T9
X117.396Y-82.872
X117.396Y-108.678
T0
M30
