G04 #@! TF.GenerationSoftware,KiCad,Pcbnew,(5.1.12)-1*
G04 #@! TF.CreationDate,2021-12-17T13:10:56+01:00*
G04 #@! TF.ProjectId,eth_mezz_mag_rj45,6574685f-6d65-47a7-9a5f-6d61675f726a,rev?*
G04 #@! TF.SameCoordinates,Original*
G04 #@! TF.FileFunction,Copper,L2,Bot*
G04 #@! TF.FilePolarity,Positive*
%FSLAX46Y46*%
G04 Gerber Fmt 4.6, Leading zero omitted, Abs format (unit mm)*
G04 Created by KiCad (PCBNEW (5.1.12)-1) date 2021-12-17 13:10:56*
%MOMM*%
%LPD*%
G01*
G04 APERTURE LIST*
G04 #@! TA.AperFunction,SMDPad,CuDef*
%ADD10R,2.794000X0.609600*%
G04 #@! TD*
G04 #@! TA.AperFunction,ComponentPad*
%ADD11C,0.800000*%
G04 #@! TD*
G04 #@! TA.AperFunction,ComponentPad*
%ADD12C,6.400000*%
G04 #@! TD*
G04 #@! TA.AperFunction,ComponentPad*
%ADD13C,3.810000*%
G04 #@! TD*
G04 #@! TA.AperFunction,ComponentPad*
%ADD14C,3.556000*%
G04 #@! TD*
G04 #@! TA.AperFunction,ComponentPad*
%ADD15C,1.600000*%
G04 #@! TD*
G04 #@! TA.AperFunction,ComponentPad*
%ADD16R,1.500000X1.500000*%
G04 #@! TD*
G04 #@! TA.AperFunction,ComponentPad*
%ADD17C,1.500000*%
G04 #@! TD*
G04 #@! TA.AperFunction,ComponentPad*
%ADD18C,2.200000*%
G04 #@! TD*
G04 #@! TA.AperFunction,ViaPad*
%ADD19C,0.800000*%
G04 #@! TD*
G04 #@! TA.AperFunction,ViaPad*
%ADD20C,1.600000*%
G04 #@! TD*
G04 #@! TA.AperFunction,Conductor*
%ADD21C,0.568540*%
G04 #@! TD*
G04 #@! TA.AperFunction,Conductor*
%ADD22C,1.000000*%
G04 #@! TD*
G04 #@! TA.AperFunction,Conductor*
%ADD23C,0.500000*%
G04 #@! TD*
G04 #@! TA.AperFunction,Conductor*
%ADD24C,0.254000*%
G04 #@! TD*
G04 #@! TA.AperFunction,Conductor*
%ADD25C,0.100000*%
G04 #@! TD*
G04 APERTURE END LIST*
D10*
X122139000Y-97779200D03*
X125441000Y-97279200D03*
X122139000Y-96779200D03*
X125441000Y-96279200D03*
X122139000Y-95779200D03*
X125441000Y-95279200D03*
X122139000Y-94779200D03*
X125441000Y-94279200D03*
X122139000Y-93779200D03*
D11*
X119093056Y-106981344D03*
X117396000Y-106278400D03*
X115698944Y-106981344D03*
X114996000Y-108678400D03*
X115698944Y-110375456D03*
X117396000Y-111078400D03*
X119093056Y-110375456D03*
X119796000Y-108678400D03*
D12*
X117396000Y-108678400D03*
D11*
X119093056Y-81174944D03*
X117396000Y-80472000D03*
X115698944Y-81174944D03*
X114996000Y-82872000D03*
X115698944Y-84569056D03*
X117396000Y-85272000D03*
X119093056Y-84569056D03*
X119796000Y-82872000D03*
D12*
X117396000Y-82872000D03*
D13*
X131467600Y-85767600D03*
X125117600Y-85767600D03*
X131467600Y-79417600D03*
D14*
X128292600Y-82592600D03*
D13*
X125117600Y-79417600D03*
D15*
X154720000Y-90366000D03*
X156750000Y-90366000D03*
X154720000Y-103816000D03*
D16*
X141260000Y-102680000D03*
D17*
X141260000Y-100140000D03*
X141260000Y-97600000D03*
X141260000Y-95060000D03*
X141260000Y-92520000D03*
X143800000Y-101410000D03*
X143800000Y-98870000D03*
X143800000Y-96330000D03*
X143800000Y-93790000D03*
D18*
X147102000Y-104966000D03*
X147100000Y-89220000D03*
D15*
X156750000Y-103816000D03*
D17*
X143800000Y-91250000D03*
D19*
X131109410Y-99300010D03*
X132444510Y-99300010D03*
X133779610Y-99300010D03*
X135114710Y-99300010D03*
X136449810Y-99300010D03*
X137784910Y-99300010D03*
X129774311Y-99300010D03*
X138510543Y-92309989D03*
X137173047Y-92309989D03*
X135835551Y-92309989D03*
X134498055Y-92309989D03*
X133160560Y-92309989D03*
X131823064Y-92309989D03*
X130485568Y-92309989D03*
D20*
X114017800Y-95826000D03*
D19*
X130800000Y-95800000D03*
D20*
X124000000Y-111320000D03*
X139240000Y-111320000D03*
X124000000Y-106240000D03*
X139240000Y-106240000D03*
X128318000Y-91127000D03*
X131620000Y-111320000D03*
X131620000Y-106240000D03*
D19*
X127759200Y-94250000D03*
X127759200Y-97273800D03*
X134337800Y-82592600D03*
X119529600Y-93768600D03*
X134300000Y-95800000D03*
X138300000Y-95800000D03*
X136400000Y-88000000D03*
X136300000Y-84300000D03*
D20*
X137700000Y-78100000D03*
X142300000Y-81400000D03*
X146300000Y-85400000D03*
X149300000Y-81400000D03*
X155300000Y-81400000D03*
X156300000Y-108400000D03*
X156300000Y-113400000D03*
X150300000Y-113400000D03*
X150300000Y-108400000D03*
D19*
X143300000Y-104400000D03*
X145600000Y-96200000D03*
X119504200Y-97832600D03*
X127759200Y-96257800D03*
X127759200Y-95250000D03*
X146700000Y-101400000D03*
D21*
X125441000Y-94279200D02*
X127749100Y-94279200D01*
X127749100Y-94279200D02*
X127759200Y-94289300D01*
X125441000Y-95279200D02*
X127733100Y-95279200D01*
X127733100Y-95279200D02*
X127759200Y-95305300D01*
X125441000Y-97279200D02*
X127753800Y-97279200D01*
X127753800Y-97279200D02*
X127759200Y-97273800D01*
D22*
X125117600Y-85767600D02*
X131467600Y-85767600D01*
X125117600Y-79417600D02*
X125117600Y-85767600D01*
X131467600Y-85767600D02*
X131467600Y-79417600D01*
D23*
X122128400Y-93768600D02*
X122139000Y-93779200D01*
X119529600Y-93768600D02*
X122128400Y-93768600D01*
X119504200Y-97832600D02*
X122085600Y-97832600D01*
X122085600Y-97832600D02*
X122139000Y-97779200D01*
X144446000Y-95060000D02*
X141260000Y-95060000D01*
X145000001Y-94505999D02*
X144446000Y-95060000D01*
X145000001Y-89414003D02*
X145000001Y-94505999D01*
X138178598Y-82592600D02*
X145000001Y-89414003D01*
X134337800Y-82592600D02*
X138178598Y-82592600D01*
D21*
X127737800Y-96279200D02*
X127759200Y-96257800D01*
X125441000Y-96279200D02*
X127737800Y-96279200D01*
D23*
X143810000Y-101400000D02*
X143800000Y-101410000D01*
X146700000Y-101400000D02*
X143810000Y-101400000D01*
D24*
X160640001Y-115740000D02*
X111960000Y-115740000D01*
X111960000Y-111379281D01*
X114874724Y-111379281D01*
X115234912Y-111868948D01*
X115898882Y-112229249D01*
X116620385Y-112453094D01*
X117371695Y-112531880D01*
X118123938Y-112462578D01*
X118848208Y-112247852D01*
X119516670Y-111895955D01*
X119557088Y-111868948D01*
X119917276Y-111379281D01*
X117396000Y-108858005D01*
X114874724Y-111379281D01*
X111960000Y-111379281D01*
X111960000Y-108654095D01*
X113542520Y-108654095D01*
X113611822Y-109406338D01*
X113826548Y-110130608D01*
X114178445Y-110799070D01*
X114205452Y-110839488D01*
X114695119Y-111199676D01*
X117216395Y-108678400D01*
X117575605Y-108678400D01*
X120096881Y-111199676D01*
X120586548Y-110839488D01*
X120946849Y-110175518D01*
X121170694Y-109454015D01*
X121249480Y-108702705D01*
X121180178Y-107950462D01*
X120965452Y-107226192D01*
X120613555Y-106557730D01*
X120586548Y-106517312D01*
X120096881Y-106157124D01*
X117575605Y-108678400D01*
X117216395Y-108678400D01*
X114695119Y-106157124D01*
X114205452Y-106517312D01*
X113845151Y-107181282D01*
X113621306Y-107902785D01*
X113542520Y-108654095D01*
X111960000Y-108654095D01*
X111960000Y-105977519D01*
X114874724Y-105977519D01*
X117396000Y-108498795D01*
X119917276Y-105977519D01*
X119557088Y-105487852D01*
X118893118Y-105127551D01*
X118171615Y-104903706D01*
X117420305Y-104824920D01*
X116668062Y-104894222D01*
X115943792Y-105108948D01*
X115275330Y-105460845D01*
X115234912Y-105487852D01*
X114874724Y-105977519D01*
X111960000Y-105977519D01*
X111960000Y-104795117D01*
X145367000Y-104795117D01*
X145367000Y-105136883D01*
X145433675Y-105472081D01*
X145564463Y-105787831D01*
X145754337Y-106071998D01*
X145996002Y-106313663D01*
X146280169Y-106503537D01*
X146595919Y-106634325D01*
X146931117Y-106701000D01*
X147272883Y-106701000D01*
X147608081Y-106634325D01*
X147923831Y-106503537D01*
X148207998Y-106313663D01*
X148449663Y-106071998D01*
X148639537Y-105787831D01*
X148770325Y-105472081D01*
X148837000Y-105136883D01*
X148837000Y-104795117D01*
X148774062Y-104478706D01*
X149079489Y-104682786D01*
X149490782Y-104853149D01*
X149927409Y-104940000D01*
X150372591Y-104940000D01*
X150809218Y-104853149D01*
X150916522Y-104808702D01*
X153906903Y-104808702D01*
X153978486Y-105052671D01*
X154233996Y-105173571D01*
X154508184Y-105242300D01*
X154790512Y-105256217D01*
X155070130Y-105214787D01*
X155336292Y-105119603D01*
X155461514Y-105052671D01*
X155533097Y-104808702D01*
X155936903Y-104808702D01*
X156008486Y-105052671D01*
X156263996Y-105173571D01*
X156538184Y-105242300D01*
X156820512Y-105256217D01*
X157100130Y-105214787D01*
X157366292Y-105119603D01*
X157491514Y-105052671D01*
X157563097Y-104808702D01*
X156750000Y-103995605D01*
X155936903Y-104808702D01*
X155533097Y-104808702D01*
X154720000Y-103995605D01*
X153906903Y-104808702D01*
X150916522Y-104808702D01*
X151220511Y-104682786D01*
X151590666Y-104435456D01*
X151905456Y-104120666D01*
X152061912Y-103886512D01*
X153279783Y-103886512D01*
X153321213Y-104166130D01*
X153416397Y-104432292D01*
X153483329Y-104557514D01*
X153727298Y-104629097D01*
X154540395Y-103816000D01*
X154899605Y-103816000D01*
X155407706Y-104324101D01*
X155446397Y-104432292D01*
X155513329Y-104557514D01*
X155694184Y-104610579D01*
X155712702Y-104629097D01*
X155735000Y-104622555D01*
X155757298Y-104629097D01*
X155775816Y-104610579D01*
X155956671Y-104557514D01*
X156071446Y-104314949D01*
X156570395Y-103816000D01*
X156929605Y-103816000D01*
X157742702Y-104629097D01*
X157986671Y-104557514D01*
X158107571Y-104302004D01*
X158176300Y-104027816D01*
X158190217Y-103745488D01*
X158148787Y-103465870D01*
X158053603Y-103199708D01*
X157986671Y-103074486D01*
X157742702Y-103002903D01*
X156929605Y-103816000D01*
X156570395Y-103816000D01*
X156062294Y-103307899D01*
X156023603Y-103199708D01*
X155956671Y-103074486D01*
X155775816Y-103021421D01*
X155757298Y-103002903D01*
X155735000Y-103009445D01*
X155712702Y-103002903D01*
X155694184Y-103021421D01*
X155513329Y-103074486D01*
X155398554Y-103317051D01*
X154899605Y-103816000D01*
X154540395Y-103816000D01*
X153727298Y-103002903D01*
X153483329Y-103074486D01*
X153362429Y-103329996D01*
X153293700Y-103604184D01*
X153279783Y-103886512D01*
X152061912Y-103886512D01*
X152152786Y-103750511D01*
X152323149Y-103339218D01*
X152410000Y-102902591D01*
X152410000Y-102823298D01*
X153906903Y-102823298D01*
X154720000Y-103636395D01*
X155533097Y-102823298D01*
X155936903Y-102823298D01*
X156750000Y-103636395D01*
X157563097Y-102823298D01*
X157491514Y-102579329D01*
X157236004Y-102458429D01*
X156961816Y-102389700D01*
X156679488Y-102375783D01*
X156399870Y-102417213D01*
X156133708Y-102512397D01*
X156008486Y-102579329D01*
X155936903Y-102823298D01*
X155533097Y-102823298D01*
X155461514Y-102579329D01*
X155206004Y-102458429D01*
X154931816Y-102389700D01*
X154649488Y-102375783D01*
X154369870Y-102417213D01*
X154103708Y-102512397D01*
X153978486Y-102579329D01*
X153906903Y-102823298D01*
X152410000Y-102823298D01*
X152410000Y-102457409D01*
X152323149Y-102020782D01*
X152152786Y-101609489D01*
X151905456Y-101239334D01*
X151590666Y-100924544D01*
X151220511Y-100677214D01*
X150809218Y-100506851D01*
X150372591Y-100420000D01*
X149927409Y-100420000D01*
X149490782Y-100506851D01*
X149079489Y-100677214D01*
X148709334Y-100924544D01*
X148394544Y-101239334D01*
X148147214Y-101609489D01*
X147976851Y-102020782D01*
X147890000Y-102457409D01*
X147890000Y-102902591D01*
X147976851Y-103339218D01*
X148048254Y-103511599D01*
X147923831Y-103428463D01*
X147608081Y-103297675D01*
X147272883Y-103231000D01*
X146931117Y-103231000D01*
X146595919Y-103297675D01*
X146280169Y-103428463D01*
X145996002Y-103618337D01*
X145754337Y-103860002D01*
X145564463Y-104144169D01*
X145433675Y-104459919D01*
X145367000Y-104795117D01*
X111960000Y-104795117D01*
X111960000Y-97730661D01*
X118469200Y-97730661D01*
X118469200Y-97934539D01*
X118508974Y-98134498D01*
X118586995Y-98322856D01*
X118700263Y-98492374D01*
X118844426Y-98636537D01*
X119013944Y-98749805D01*
X119202302Y-98827826D01*
X119402261Y-98867600D01*
X119606139Y-98867600D01*
X119806098Y-98827826D01*
X119994456Y-98749805D01*
X120042654Y-98717600D01*
X120696594Y-98717600D01*
X120742000Y-98722072D01*
X123536000Y-98722072D01*
X123660482Y-98709812D01*
X123780180Y-98673502D01*
X123890494Y-98614537D01*
X123895019Y-98610824D01*
X123972615Y-98798156D01*
X124085883Y-98967674D01*
X124230046Y-99111837D01*
X124399564Y-99225105D01*
X124587922Y-99303126D01*
X124787881Y-99342900D01*
X124991759Y-99342900D01*
X125191718Y-99303126D01*
X125380076Y-99225105D01*
X125549594Y-99111837D01*
X125693757Y-98967674D01*
X125807025Y-98798156D01*
X125885046Y-98609798D01*
X125924820Y-98409839D01*
X125924820Y-98222072D01*
X126838000Y-98222072D01*
X126962482Y-98209812D01*
X126999872Y-98198470D01*
X127286966Y-98198470D01*
X127457302Y-98269026D01*
X127657261Y-98308800D01*
X127861139Y-98308800D01*
X128061098Y-98269026D01*
X128249456Y-98191005D01*
X128418974Y-98077737D01*
X128563137Y-97933574D01*
X128676405Y-97764056D01*
X128754426Y-97575698D01*
X128794200Y-97375739D01*
X128794200Y-97171861D01*
X128754426Y-96971902D01*
X128676405Y-96783544D01*
X128664549Y-96765800D01*
X128676405Y-96748056D01*
X128754426Y-96559698D01*
X128794200Y-96359739D01*
X128794200Y-96155861D01*
X128754426Y-95955902D01*
X128676405Y-95767544D01*
X128667288Y-95753900D01*
X128676405Y-95740256D01*
X128754426Y-95551898D01*
X128794200Y-95351939D01*
X128794200Y-95148061D01*
X128754426Y-94948102D01*
X128676405Y-94759744D01*
X128669894Y-94750000D01*
X128676405Y-94740256D01*
X128754426Y-94551898D01*
X128794200Y-94351939D01*
X128794200Y-94148061D01*
X128754426Y-93948102D01*
X128676405Y-93759744D01*
X128563137Y-93590226D01*
X128418974Y-93446063D01*
X128249456Y-93332795D01*
X128061098Y-93254774D01*
X127861139Y-93215000D01*
X127657261Y-93215000D01*
X127457302Y-93254774D01*
X127268944Y-93332795D01*
X127228333Y-93359930D01*
X126999872Y-93359930D01*
X126962482Y-93348588D01*
X126838000Y-93336328D01*
X125924820Y-93336328D01*
X125924820Y-93148561D01*
X125885046Y-92948602D01*
X125807025Y-92760244D01*
X125693757Y-92590726D01*
X125549594Y-92446563D01*
X125380076Y-92333295D01*
X125191718Y-92255274D01*
X124991759Y-92215500D01*
X124787881Y-92215500D01*
X124587922Y-92255274D01*
X124399564Y-92333295D01*
X124230046Y-92446563D01*
X124085883Y-92590726D01*
X123972615Y-92760244D01*
X123895019Y-92947576D01*
X123890494Y-92943863D01*
X123780180Y-92884898D01*
X123660482Y-92848588D01*
X123536000Y-92836328D01*
X120742000Y-92836328D01*
X120617518Y-92848588D01*
X120502099Y-92883600D01*
X120068054Y-92883600D01*
X120019856Y-92851395D01*
X119831498Y-92773374D01*
X119631539Y-92733600D01*
X119427661Y-92733600D01*
X119227702Y-92773374D01*
X119039344Y-92851395D01*
X118869826Y-92964663D01*
X118725663Y-93108826D01*
X118612395Y-93278344D01*
X118534374Y-93466702D01*
X118494600Y-93666661D01*
X118494600Y-93870539D01*
X118534374Y-94070498D01*
X118612395Y-94258856D01*
X118725663Y-94428374D01*
X118869826Y-94572537D01*
X119039344Y-94685805D01*
X119227702Y-94763826D01*
X119427661Y-94803600D01*
X119631539Y-94803600D01*
X119831498Y-94763826D01*
X120019856Y-94685805D01*
X120068054Y-94653600D01*
X120460587Y-94653600D01*
X120497820Y-94673502D01*
X120617518Y-94709812D01*
X120742000Y-94722072D01*
X122286000Y-94722072D01*
X122286000Y-94906200D01*
X122266000Y-94906200D01*
X122266000Y-95652200D01*
X122286000Y-95652200D01*
X122286000Y-95906200D01*
X122266000Y-95906200D01*
X122266000Y-96652200D01*
X122286000Y-96652200D01*
X122286000Y-96836328D01*
X120742000Y-96836328D01*
X120617518Y-96848588D01*
X120497820Y-96884898D01*
X120457967Y-96906200D01*
X120265750Y-96906200D01*
X120224350Y-96947600D01*
X120042654Y-96947600D01*
X119994456Y-96915395D01*
X119806098Y-96837374D01*
X119606139Y-96797600D01*
X119402261Y-96797600D01*
X119202302Y-96837374D01*
X119013944Y-96915395D01*
X118844426Y-97028663D01*
X118700263Y-97172826D01*
X118586995Y-97342344D01*
X118508974Y-97530702D01*
X118469200Y-97730661D01*
X111960000Y-97730661D01*
X111960000Y-96084000D01*
X120103928Y-96084000D01*
X120116188Y-96208482D01*
X120137640Y-96279200D01*
X120116188Y-96349918D01*
X120103928Y-96474400D01*
X120107000Y-96493450D01*
X120265750Y-96652200D01*
X120457967Y-96652200D01*
X120497820Y-96673502D01*
X120617518Y-96709812D01*
X120742000Y-96722072D01*
X121853250Y-96719000D01*
X121920050Y-96652200D01*
X122012000Y-96652200D01*
X122012000Y-95906200D01*
X121920050Y-95906200D01*
X121853250Y-95839400D01*
X120742000Y-95836328D01*
X120617518Y-95848588D01*
X120497820Y-95884898D01*
X120457967Y-95906200D01*
X120265750Y-95906200D01*
X120107000Y-96064950D01*
X120103928Y-96084000D01*
X111960000Y-96084000D01*
X111960000Y-95084000D01*
X120103928Y-95084000D01*
X120116188Y-95208482D01*
X120137640Y-95279200D01*
X120116188Y-95349918D01*
X120103928Y-95474400D01*
X120107000Y-95493450D01*
X120265750Y-95652200D01*
X120457967Y-95652200D01*
X120497820Y-95673502D01*
X120617518Y-95709812D01*
X120742000Y-95722072D01*
X121853250Y-95719000D01*
X121920050Y-95652200D01*
X122012000Y-95652200D01*
X122012000Y-94906200D01*
X121920050Y-94906200D01*
X121853250Y-94839400D01*
X120742000Y-94836328D01*
X120617518Y-94848588D01*
X120497820Y-94884898D01*
X120457967Y-94906200D01*
X120265750Y-94906200D01*
X120107000Y-95064950D01*
X120103928Y-95084000D01*
X111960000Y-95084000D01*
X111960000Y-85572881D01*
X114874724Y-85572881D01*
X115234912Y-86062548D01*
X115898882Y-86422849D01*
X116620385Y-86646694D01*
X117371695Y-86725480D01*
X118123938Y-86656178D01*
X118848208Y-86441452D01*
X119516670Y-86089555D01*
X119557088Y-86062548D01*
X119917276Y-85572881D01*
X117396000Y-83051605D01*
X114874724Y-85572881D01*
X111960000Y-85572881D01*
X111960000Y-82847695D01*
X113542520Y-82847695D01*
X113611822Y-83599938D01*
X113826548Y-84324208D01*
X114178445Y-84992670D01*
X114205452Y-85033088D01*
X114695119Y-85393276D01*
X117216395Y-82872000D01*
X117575605Y-82872000D01*
X120096881Y-85393276D01*
X120586548Y-85033088D01*
X120946849Y-84369118D01*
X121170694Y-83647615D01*
X121249480Y-82896305D01*
X121180178Y-82144062D01*
X120965452Y-81419792D01*
X120613555Y-80751330D01*
X120586548Y-80710912D01*
X120096881Y-80350724D01*
X117575605Y-82872000D01*
X117216395Y-82872000D01*
X114695119Y-80350724D01*
X114205452Y-80710912D01*
X113845151Y-81374882D01*
X113621306Y-82096385D01*
X113542520Y-82847695D01*
X111960000Y-82847695D01*
X111960000Y-80171119D01*
X114874724Y-80171119D01*
X117396000Y-82692395D01*
X119917276Y-80171119D01*
X119557088Y-79681452D01*
X118893118Y-79321151D01*
X118397647Y-79167432D01*
X122577600Y-79167432D01*
X122577600Y-79667768D01*
X122675211Y-80158491D01*
X122866681Y-80620741D01*
X123144653Y-81036756D01*
X123498444Y-81390547D01*
X123914459Y-81668519D01*
X123982600Y-81696744D01*
X123982601Y-83488456D01*
X123914459Y-83516681D01*
X123498444Y-83794653D01*
X123144653Y-84148444D01*
X122866681Y-84564459D01*
X122675211Y-85026709D01*
X122577600Y-85517432D01*
X122577600Y-86017768D01*
X122675211Y-86508491D01*
X122866681Y-86970741D01*
X123144653Y-87386756D01*
X123498444Y-87740547D01*
X123914459Y-88018519D01*
X124376709Y-88209989D01*
X124867432Y-88307600D01*
X125367768Y-88307600D01*
X125858491Y-88209989D01*
X126320741Y-88018519D01*
X126736756Y-87740547D01*
X127090547Y-87386756D01*
X127368519Y-86970741D01*
X127396744Y-86902600D01*
X129188456Y-86902600D01*
X129216681Y-86970741D01*
X129494653Y-87386756D01*
X129848444Y-87740547D01*
X130264459Y-88018519D01*
X130726709Y-88209989D01*
X131217432Y-88307600D01*
X131717768Y-88307600D01*
X132208491Y-88209989D01*
X132670741Y-88018519D01*
X133086756Y-87740547D01*
X133440547Y-87386756D01*
X133718519Y-86970741D01*
X133909989Y-86508491D01*
X134007600Y-86017768D01*
X134007600Y-85517432D01*
X133909989Y-85026709D01*
X133718519Y-84564459D01*
X133440547Y-84148444D01*
X133086756Y-83794653D01*
X132670741Y-83516681D01*
X132602600Y-83488456D01*
X132602600Y-82490661D01*
X133302800Y-82490661D01*
X133302800Y-82694539D01*
X133342574Y-82894498D01*
X133420595Y-83082856D01*
X133533863Y-83252374D01*
X133678026Y-83396537D01*
X133847544Y-83509805D01*
X134035902Y-83587826D01*
X134235861Y-83627600D01*
X134439739Y-83627600D01*
X134639698Y-83587826D01*
X134828056Y-83509805D01*
X134876254Y-83477600D01*
X137812020Y-83477600D01*
X144115001Y-89780582D01*
X144115001Y-89900524D01*
X143936411Y-89865000D01*
X143663589Y-89865000D01*
X143396011Y-89918225D01*
X143143957Y-90022629D01*
X142917114Y-90174201D01*
X142724201Y-90367114D01*
X142572629Y-90593957D01*
X142468225Y-90846011D01*
X142415000Y-91113589D01*
X142415000Y-91386411D01*
X142468225Y-91653989D01*
X142572629Y-91906043D01*
X142724201Y-92132886D01*
X142917114Y-92325799D01*
X143143957Y-92477371D01*
X143246873Y-92520000D01*
X143143957Y-92562629D01*
X142917114Y-92714201D01*
X142724201Y-92907114D01*
X142572629Y-93133957D01*
X142468225Y-93386011D01*
X142415000Y-93653589D01*
X142415000Y-93926411D01*
X142464448Y-94175000D01*
X142333685Y-94175000D01*
X142142886Y-93984201D01*
X141916043Y-93832629D01*
X141813127Y-93790000D01*
X141916043Y-93747371D01*
X142142886Y-93595799D01*
X142335799Y-93402886D01*
X142487371Y-93176043D01*
X142591775Y-92923989D01*
X142645000Y-92656411D01*
X142645000Y-92383589D01*
X142591775Y-92116011D01*
X142487371Y-91863957D01*
X142335799Y-91637114D01*
X142142886Y-91444201D01*
X141916043Y-91292629D01*
X141663989Y-91188225D01*
X141396411Y-91135000D01*
X141123589Y-91135000D01*
X140856011Y-91188225D01*
X140603957Y-91292629D01*
X140377114Y-91444201D01*
X140184201Y-91637114D01*
X140032629Y-91863957D01*
X139928225Y-92116011D01*
X139875000Y-92383589D01*
X139875000Y-92656411D01*
X139928225Y-92923989D01*
X140032629Y-93176043D01*
X140184201Y-93402886D01*
X140377114Y-93595799D01*
X140603957Y-93747371D01*
X140706873Y-93790000D01*
X140603957Y-93832629D01*
X140377114Y-93984201D01*
X140184201Y-94177114D01*
X140032629Y-94403957D01*
X139928225Y-94656011D01*
X139875000Y-94923589D01*
X139875000Y-95196411D01*
X139928225Y-95463989D01*
X140032629Y-95716043D01*
X140184201Y-95942886D01*
X140377114Y-96135799D01*
X140603957Y-96287371D01*
X140706873Y-96330000D01*
X140603957Y-96372629D01*
X140377114Y-96524201D01*
X140184201Y-96717114D01*
X140032629Y-96943957D01*
X139928225Y-97196011D01*
X139875000Y-97463589D01*
X139875000Y-97736411D01*
X139928225Y-98003989D01*
X140032629Y-98256043D01*
X140184201Y-98482886D01*
X140377114Y-98675799D01*
X140603957Y-98827371D01*
X140706873Y-98870000D01*
X140603957Y-98912629D01*
X140377114Y-99064201D01*
X140184201Y-99257114D01*
X140032629Y-99483957D01*
X139928225Y-99736011D01*
X139875000Y-100003589D01*
X139875000Y-100276411D01*
X139928225Y-100543989D01*
X140032629Y-100796043D01*
X140184201Y-101022886D01*
X140377114Y-101215799D01*
X140493483Y-101293555D01*
X140385518Y-101304188D01*
X140265820Y-101340498D01*
X140155506Y-101399463D01*
X140058815Y-101478815D01*
X139979463Y-101575506D01*
X139920498Y-101685820D01*
X139884188Y-101805518D01*
X139871928Y-101930000D01*
X139871928Y-103430000D01*
X139884188Y-103554482D01*
X139920498Y-103674180D01*
X139979463Y-103784494D01*
X140058815Y-103881185D01*
X140155506Y-103960537D01*
X140265820Y-104019502D01*
X140385518Y-104055812D01*
X140510000Y-104068072D01*
X142010000Y-104068072D01*
X142134482Y-104055812D01*
X142254180Y-104019502D01*
X142364494Y-103960537D01*
X142461185Y-103881185D01*
X142540537Y-103784494D01*
X142599502Y-103674180D01*
X142635812Y-103554482D01*
X142648072Y-103430000D01*
X142648072Y-102178951D01*
X142724201Y-102292886D01*
X142917114Y-102485799D01*
X143143957Y-102637371D01*
X143396011Y-102741775D01*
X143663589Y-102795000D01*
X143936411Y-102795000D01*
X144203989Y-102741775D01*
X144456043Y-102637371D01*
X144682886Y-102485799D01*
X144875799Y-102292886D01*
X144881068Y-102285000D01*
X146161546Y-102285000D01*
X146209744Y-102317205D01*
X146398102Y-102395226D01*
X146598061Y-102435000D01*
X146801939Y-102435000D01*
X147001898Y-102395226D01*
X147190256Y-102317205D01*
X147359774Y-102203937D01*
X147503937Y-102059774D01*
X147617205Y-101890256D01*
X147695226Y-101701898D01*
X147735000Y-101501939D01*
X147735000Y-101298061D01*
X147695226Y-101098102D01*
X147617205Y-100909744D01*
X147503937Y-100740226D01*
X147359774Y-100596063D01*
X147190256Y-100482795D01*
X147001898Y-100404774D01*
X146801939Y-100365000D01*
X146598061Y-100365000D01*
X146398102Y-100404774D01*
X146209744Y-100482795D01*
X146161546Y-100515000D01*
X144863685Y-100515000D01*
X144682886Y-100334201D01*
X144456043Y-100182629D01*
X144353127Y-100140000D01*
X144456043Y-100097371D01*
X144682886Y-99945799D01*
X144875799Y-99752886D01*
X145027371Y-99526043D01*
X145131775Y-99273989D01*
X145185000Y-99006411D01*
X145185000Y-98733589D01*
X145131775Y-98466011D01*
X145027371Y-98213957D01*
X144875799Y-97987114D01*
X144682886Y-97794201D01*
X144456043Y-97642629D01*
X144353127Y-97600000D01*
X144456043Y-97557371D01*
X144682886Y-97405799D01*
X144875799Y-97212886D01*
X145027371Y-96986043D01*
X145131775Y-96733989D01*
X145185000Y-96466411D01*
X145185000Y-96193589D01*
X145131775Y-95926011D01*
X145044002Y-95714107D01*
X145074817Y-95688817D01*
X145102534Y-95655044D01*
X145595045Y-95162533D01*
X145628818Y-95134816D01*
X145739412Y-95000058D01*
X145821590Y-94846312D01*
X145872196Y-94679489D01*
X145885001Y-94549476D01*
X145885001Y-94549468D01*
X145889282Y-94505999D01*
X145885001Y-94462530D01*
X145885001Y-90458662D01*
X145994002Y-90567663D01*
X146278169Y-90757537D01*
X146593919Y-90888325D01*
X146929117Y-90955000D01*
X147270883Y-90955000D01*
X147606081Y-90888325D01*
X147921831Y-90757537D01*
X147947030Y-90740699D01*
X147890000Y-91027409D01*
X147890000Y-91472591D01*
X147976851Y-91909218D01*
X148147214Y-92320511D01*
X148394544Y-92690666D01*
X148709334Y-93005456D01*
X149079489Y-93252786D01*
X149490782Y-93423149D01*
X149927409Y-93510000D01*
X150372591Y-93510000D01*
X150809218Y-93423149D01*
X151220511Y-93252786D01*
X151590666Y-93005456D01*
X151905456Y-92690666D01*
X152152786Y-92320511D01*
X152323149Y-91909218D01*
X152410000Y-91472591D01*
X152410000Y-91358702D01*
X153906903Y-91358702D01*
X153978486Y-91602671D01*
X154233996Y-91723571D01*
X154508184Y-91792300D01*
X154790512Y-91806217D01*
X155070130Y-91764787D01*
X155336292Y-91669603D01*
X155461514Y-91602671D01*
X155533097Y-91358702D01*
X155936903Y-91358702D01*
X156008486Y-91602671D01*
X156263996Y-91723571D01*
X156538184Y-91792300D01*
X156820512Y-91806217D01*
X157100130Y-91764787D01*
X157366292Y-91669603D01*
X157491514Y-91602671D01*
X157563097Y-91358702D01*
X156750000Y-90545605D01*
X155936903Y-91358702D01*
X155533097Y-91358702D01*
X154720000Y-90545605D01*
X153906903Y-91358702D01*
X152410000Y-91358702D01*
X152410000Y-91027409D01*
X152323149Y-90590782D01*
X152259249Y-90436512D01*
X153279783Y-90436512D01*
X153321213Y-90716130D01*
X153416397Y-90982292D01*
X153483329Y-91107514D01*
X153727298Y-91179097D01*
X154540395Y-90366000D01*
X154899605Y-90366000D01*
X155407706Y-90874101D01*
X155446397Y-90982292D01*
X155513329Y-91107514D01*
X155694184Y-91160579D01*
X155712702Y-91179097D01*
X155735000Y-91172555D01*
X155757298Y-91179097D01*
X155775816Y-91160579D01*
X155956671Y-91107514D01*
X156071446Y-90864949D01*
X156570395Y-90366000D01*
X156929605Y-90366000D01*
X157742702Y-91179097D01*
X157986671Y-91107514D01*
X158107571Y-90852004D01*
X158176300Y-90577816D01*
X158190217Y-90295488D01*
X158148787Y-90015870D01*
X158053603Y-89749708D01*
X157986671Y-89624486D01*
X157742702Y-89552903D01*
X156929605Y-90366000D01*
X156570395Y-90366000D01*
X156062294Y-89857899D01*
X156023603Y-89749708D01*
X155956671Y-89624486D01*
X155775816Y-89571421D01*
X155757298Y-89552903D01*
X155735000Y-89559445D01*
X155712702Y-89552903D01*
X155694184Y-89571421D01*
X155513329Y-89624486D01*
X155398554Y-89867051D01*
X154899605Y-90366000D01*
X154540395Y-90366000D01*
X153727298Y-89552903D01*
X153483329Y-89624486D01*
X153362429Y-89879996D01*
X153293700Y-90154184D01*
X153279783Y-90436512D01*
X152259249Y-90436512D01*
X152152786Y-90179489D01*
X151905456Y-89809334D01*
X151590666Y-89494544D01*
X151409209Y-89373298D01*
X153906903Y-89373298D01*
X154720000Y-90186395D01*
X155533097Y-89373298D01*
X155936903Y-89373298D01*
X156750000Y-90186395D01*
X157563097Y-89373298D01*
X157491514Y-89129329D01*
X157236004Y-89008429D01*
X156961816Y-88939700D01*
X156679488Y-88925783D01*
X156399870Y-88967213D01*
X156133708Y-89062397D01*
X156008486Y-89129329D01*
X155936903Y-89373298D01*
X155533097Y-89373298D01*
X155461514Y-89129329D01*
X155206004Y-89008429D01*
X154931816Y-88939700D01*
X154649488Y-88925783D01*
X154369870Y-88967213D01*
X154103708Y-89062397D01*
X153978486Y-89129329D01*
X153906903Y-89373298D01*
X151409209Y-89373298D01*
X151220511Y-89247214D01*
X150809218Y-89076851D01*
X150372591Y-88990000D01*
X149927409Y-88990000D01*
X149490782Y-89076851D01*
X149079489Y-89247214D01*
X148830482Y-89413595D01*
X148835000Y-89390883D01*
X148835000Y-89049117D01*
X148768325Y-88713919D01*
X148637537Y-88398169D01*
X148447663Y-88114002D01*
X148205998Y-87872337D01*
X147921831Y-87682463D01*
X147606081Y-87551675D01*
X147270883Y-87485000D01*
X146929117Y-87485000D01*
X146593919Y-87551675D01*
X146278169Y-87682463D01*
X145994002Y-87872337D01*
X145752337Y-88114002D01*
X145562463Y-88398169D01*
X145466770Y-88629193D01*
X138835132Y-81997556D01*
X138807415Y-81963783D01*
X138672657Y-81853189D01*
X138518911Y-81771011D01*
X138352088Y-81720405D01*
X138222075Y-81707600D01*
X138222067Y-81707600D01*
X138178598Y-81703319D01*
X138135129Y-81707600D01*
X134876254Y-81707600D01*
X134828056Y-81675395D01*
X134639698Y-81597374D01*
X134439739Y-81557600D01*
X134235861Y-81557600D01*
X134035902Y-81597374D01*
X133847544Y-81675395D01*
X133678026Y-81788663D01*
X133533863Y-81932826D01*
X133420595Y-82102344D01*
X133342574Y-82290702D01*
X133302800Y-82490661D01*
X132602600Y-82490661D01*
X132602600Y-81696744D01*
X132670741Y-81668519D01*
X133086756Y-81390547D01*
X133440547Y-81036756D01*
X133718519Y-80620741D01*
X133909989Y-80158491D01*
X134007600Y-79667768D01*
X134007600Y-79167432D01*
X133909989Y-78676709D01*
X133718519Y-78214459D01*
X133440547Y-77798444D01*
X133086756Y-77444653D01*
X132670741Y-77166681D01*
X132208491Y-76975211D01*
X131717768Y-76877600D01*
X131217432Y-76877600D01*
X130726709Y-76975211D01*
X130264459Y-77166681D01*
X129848444Y-77444653D01*
X129494653Y-77798444D01*
X129216681Y-78214459D01*
X129025211Y-78676709D01*
X128927600Y-79167432D01*
X128927600Y-79667768D01*
X129025211Y-80158491D01*
X129088088Y-80310291D01*
X128996446Y-80272331D01*
X128530260Y-80179600D01*
X128054940Y-80179600D01*
X127588754Y-80272331D01*
X127497112Y-80310291D01*
X127559989Y-80158491D01*
X127657600Y-79667768D01*
X127657600Y-79167432D01*
X127559989Y-78676709D01*
X127368519Y-78214459D01*
X127090547Y-77798444D01*
X126736756Y-77444653D01*
X126320741Y-77166681D01*
X125858491Y-76975211D01*
X125367768Y-76877600D01*
X124867432Y-76877600D01*
X124376709Y-76975211D01*
X123914459Y-77166681D01*
X123498444Y-77444653D01*
X123144653Y-77798444D01*
X122866681Y-78214459D01*
X122675211Y-78676709D01*
X122577600Y-79167432D01*
X118397647Y-79167432D01*
X118171615Y-79097306D01*
X117420305Y-79018520D01*
X116668062Y-79087822D01*
X115943792Y-79302548D01*
X115275330Y-79654445D01*
X115234912Y-79681452D01*
X114874724Y-80171119D01*
X111960000Y-80171119D01*
X111960000Y-76060000D01*
X160640000Y-76060000D01*
X160640001Y-115740000D01*
G04 #@! TA.AperFunction,Conductor*
D25*
G36*
X160640001Y-115740000D02*
G01*
X111960000Y-115740000D01*
X111960000Y-111379281D01*
X114874724Y-111379281D01*
X115234912Y-111868948D01*
X115898882Y-112229249D01*
X116620385Y-112453094D01*
X117371695Y-112531880D01*
X118123938Y-112462578D01*
X118848208Y-112247852D01*
X119516670Y-111895955D01*
X119557088Y-111868948D01*
X119917276Y-111379281D01*
X117396000Y-108858005D01*
X114874724Y-111379281D01*
X111960000Y-111379281D01*
X111960000Y-108654095D01*
X113542520Y-108654095D01*
X113611822Y-109406338D01*
X113826548Y-110130608D01*
X114178445Y-110799070D01*
X114205452Y-110839488D01*
X114695119Y-111199676D01*
X117216395Y-108678400D01*
X117575605Y-108678400D01*
X120096881Y-111199676D01*
X120586548Y-110839488D01*
X120946849Y-110175518D01*
X121170694Y-109454015D01*
X121249480Y-108702705D01*
X121180178Y-107950462D01*
X120965452Y-107226192D01*
X120613555Y-106557730D01*
X120586548Y-106517312D01*
X120096881Y-106157124D01*
X117575605Y-108678400D01*
X117216395Y-108678400D01*
X114695119Y-106157124D01*
X114205452Y-106517312D01*
X113845151Y-107181282D01*
X113621306Y-107902785D01*
X113542520Y-108654095D01*
X111960000Y-108654095D01*
X111960000Y-105977519D01*
X114874724Y-105977519D01*
X117396000Y-108498795D01*
X119917276Y-105977519D01*
X119557088Y-105487852D01*
X118893118Y-105127551D01*
X118171615Y-104903706D01*
X117420305Y-104824920D01*
X116668062Y-104894222D01*
X115943792Y-105108948D01*
X115275330Y-105460845D01*
X115234912Y-105487852D01*
X114874724Y-105977519D01*
X111960000Y-105977519D01*
X111960000Y-104795117D01*
X145367000Y-104795117D01*
X145367000Y-105136883D01*
X145433675Y-105472081D01*
X145564463Y-105787831D01*
X145754337Y-106071998D01*
X145996002Y-106313663D01*
X146280169Y-106503537D01*
X146595919Y-106634325D01*
X146931117Y-106701000D01*
X147272883Y-106701000D01*
X147608081Y-106634325D01*
X147923831Y-106503537D01*
X148207998Y-106313663D01*
X148449663Y-106071998D01*
X148639537Y-105787831D01*
X148770325Y-105472081D01*
X148837000Y-105136883D01*
X148837000Y-104795117D01*
X148774062Y-104478706D01*
X149079489Y-104682786D01*
X149490782Y-104853149D01*
X149927409Y-104940000D01*
X150372591Y-104940000D01*
X150809218Y-104853149D01*
X150916522Y-104808702D01*
X153906903Y-104808702D01*
X153978486Y-105052671D01*
X154233996Y-105173571D01*
X154508184Y-105242300D01*
X154790512Y-105256217D01*
X155070130Y-105214787D01*
X155336292Y-105119603D01*
X155461514Y-105052671D01*
X155533097Y-104808702D01*
X155936903Y-104808702D01*
X156008486Y-105052671D01*
X156263996Y-105173571D01*
X156538184Y-105242300D01*
X156820512Y-105256217D01*
X157100130Y-105214787D01*
X157366292Y-105119603D01*
X157491514Y-105052671D01*
X157563097Y-104808702D01*
X156750000Y-103995605D01*
X155936903Y-104808702D01*
X155533097Y-104808702D01*
X154720000Y-103995605D01*
X153906903Y-104808702D01*
X150916522Y-104808702D01*
X151220511Y-104682786D01*
X151590666Y-104435456D01*
X151905456Y-104120666D01*
X152061912Y-103886512D01*
X153279783Y-103886512D01*
X153321213Y-104166130D01*
X153416397Y-104432292D01*
X153483329Y-104557514D01*
X153727298Y-104629097D01*
X154540395Y-103816000D01*
X154899605Y-103816000D01*
X155407706Y-104324101D01*
X155446397Y-104432292D01*
X155513329Y-104557514D01*
X155694184Y-104610579D01*
X155712702Y-104629097D01*
X155735000Y-104622555D01*
X155757298Y-104629097D01*
X155775816Y-104610579D01*
X155956671Y-104557514D01*
X156071446Y-104314949D01*
X156570395Y-103816000D01*
X156929605Y-103816000D01*
X157742702Y-104629097D01*
X157986671Y-104557514D01*
X158107571Y-104302004D01*
X158176300Y-104027816D01*
X158190217Y-103745488D01*
X158148787Y-103465870D01*
X158053603Y-103199708D01*
X157986671Y-103074486D01*
X157742702Y-103002903D01*
X156929605Y-103816000D01*
X156570395Y-103816000D01*
X156062294Y-103307899D01*
X156023603Y-103199708D01*
X155956671Y-103074486D01*
X155775816Y-103021421D01*
X155757298Y-103002903D01*
X155735000Y-103009445D01*
X155712702Y-103002903D01*
X155694184Y-103021421D01*
X155513329Y-103074486D01*
X155398554Y-103317051D01*
X154899605Y-103816000D01*
X154540395Y-103816000D01*
X153727298Y-103002903D01*
X153483329Y-103074486D01*
X153362429Y-103329996D01*
X153293700Y-103604184D01*
X153279783Y-103886512D01*
X152061912Y-103886512D01*
X152152786Y-103750511D01*
X152323149Y-103339218D01*
X152410000Y-102902591D01*
X152410000Y-102823298D01*
X153906903Y-102823298D01*
X154720000Y-103636395D01*
X155533097Y-102823298D01*
X155936903Y-102823298D01*
X156750000Y-103636395D01*
X157563097Y-102823298D01*
X157491514Y-102579329D01*
X157236004Y-102458429D01*
X156961816Y-102389700D01*
X156679488Y-102375783D01*
X156399870Y-102417213D01*
X156133708Y-102512397D01*
X156008486Y-102579329D01*
X155936903Y-102823298D01*
X155533097Y-102823298D01*
X155461514Y-102579329D01*
X155206004Y-102458429D01*
X154931816Y-102389700D01*
X154649488Y-102375783D01*
X154369870Y-102417213D01*
X154103708Y-102512397D01*
X153978486Y-102579329D01*
X153906903Y-102823298D01*
X152410000Y-102823298D01*
X152410000Y-102457409D01*
X152323149Y-102020782D01*
X152152786Y-101609489D01*
X151905456Y-101239334D01*
X151590666Y-100924544D01*
X151220511Y-100677214D01*
X150809218Y-100506851D01*
X150372591Y-100420000D01*
X149927409Y-100420000D01*
X149490782Y-100506851D01*
X149079489Y-100677214D01*
X148709334Y-100924544D01*
X148394544Y-101239334D01*
X148147214Y-101609489D01*
X147976851Y-102020782D01*
X147890000Y-102457409D01*
X147890000Y-102902591D01*
X147976851Y-103339218D01*
X148048254Y-103511599D01*
X147923831Y-103428463D01*
X147608081Y-103297675D01*
X147272883Y-103231000D01*
X146931117Y-103231000D01*
X146595919Y-103297675D01*
X146280169Y-103428463D01*
X145996002Y-103618337D01*
X145754337Y-103860002D01*
X145564463Y-104144169D01*
X145433675Y-104459919D01*
X145367000Y-104795117D01*
X111960000Y-104795117D01*
X111960000Y-97730661D01*
X118469200Y-97730661D01*
X118469200Y-97934539D01*
X118508974Y-98134498D01*
X118586995Y-98322856D01*
X118700263Y-98492374D01*
X118844426Y-98636537D01*
X119013944Y-98749805D01*
X119202302Y-98827826D01*
X119402261Y-98867600D01*
X119606139Y-98867600D01*
X119806098Y-98827826D01*
X119994456Y-98749805D01*
X120042654Y-98717600D01*
X120696594Y-98717600D01*
X120742000Y-98722072D01*
X123536000Y-98722072D01*
X123660482Y-98709812D01*
X123780180Y-98673502D01*
X123890494Y-98614537D01*
X123895019Y-98610824D01*
X123972615Y-98798156D01*
X124085883Y-98967674D01*
X124230046Y-99111837D01*
X124399564Y-99225105D01*
X124587922Y-99303126D01*
X124787881Y-99342900D01*
X124991759Y-99342900D01*
X125191718Y-99303126D01*
X125380076Y-99225105D01*
X125549594Y-99111837D01*
X125693757Y-98967674D01*
X125807025Y-98798156D01*
X125885046Y-98609798D01*
X125924820Y-98409839D01*
X125924820Y-98222072D01*
X126838000Y-98222072D01*
X126962482Y-98209812D01*
X126999872Y-98198470D01*
X127286966Y-98198470D01*
X127457302Y-98269026D01*
X127657261Y-98308800D01*
X127861139Y-98308800D01*
X128061098Y-98269026D01*
X128249456Y-98191005D01*
X128418974Y-98077737D01*
X128563137Y-97933574D01*
X128676405Y-97764056D01*
X128754426Y-97575698D01*
X128794200Y-97375739D01*
X128794200Y-97171861D01*
X128754426Y-96971902D01*
X128676405Y-96783544D01*
X128664549Y-96765800D01*
X128676405Y-96748056D01*
X128754426Y-96559698D01*
X128794200Y-96359739D01*
X128794200Y-96155861D01*
X128754426Y-95955902D01*
X128676405Y-95767544D01*
X128667288Y-95753900D01*
X128676405Y-95740256D01*
X128754426Y-95551898D01*
X128794200Y-95351939D01*
X128794200Y-95148061D01*
X128754426Y-94948102D01*
X128676405Y-94759744D01*
X128669894Y-94750000D01*
X128676405Y-94740256D01*
X128754426Y-94551898D01*
X128794200Y-94351939D01*
X128794200Y-94148061D01*
X128754426Y-93948102D01*
X128676405Y-93759744D01*
X128563137Y-93590226D01*
X128418974Y-93446063D01*
X128249456Y-93332795D01*
X128061098Y-93254774D01*
X127861139Y-93215000D01*
X127657261Y-93215000D01*
X127457302Y-93254774D01*
X127268944Y-93332795D01*
X127228333Y-93359930D01*
X126999872Y-93359930D01*
X126962482Y-93348588D01*
X126838000Y-93336328D01*
X125924820Y-93336328D01*
X125924820Y-93148561D01*
X125885046Y-92948602D01*
X125807025Y-92760244D01*
X125693757Y-92590726D01*
X125549594Y-92446563D01*
X125380076Y-92333295D01*
X125191718Y-92255274D01*
X124991759Y-92215500D01*
X124787881Y-92215500D01*
X124587922Y-92255274D01*
X124399564Y-92333295D01*
X124230046Y-92446563D01*
X124085883Y-92590726D01*
X123972615Y-92760244D01*
X123895019Y-92947576D01*
X123890494Y-92943863D01*
X123780180Y-92884898D01*
X123660482Y-92848588D01*
X123536000Y-92836328D01*
X120742000Y-92836328D01*
X120617518Y-92848588D01*
X120502099Y-92883600D01*
X120068054Y-92883600D01*
X120019856Y-92851395D01*
X119831498Y-92773374D01*
X119631539Y-92733600D01*
X119427661Y-92733600D01*
X119227702Y-92773374D01*
X119039344Y-92851395D01*
X118869826Y-92964663D01*
X118725663Y-93108826D01*
X118612395Y-93278344D01*
X118534374Y-93466702D01*
X118494600Y-93666661D01*
X118494600Y-93870539D01*
X118534374Y-94070498D01*
X118612395Y-94258856D01*
X118725663Y-94428374D01*
X118869826Y-94572537D01*
X119039344Y-94685805D01*
X119227702Y-94763826D01*
X119427661Y-94803600D01*
X119631539Y-94803600D01*
X119831498Y-94763826D01*
X120019856Y-94685805D01*
X120068054Y-94653600D01*
X120460587Y-94653600D01*
X120497820Y-94673502D01*
X120617518Y-94709812D01*
X120742000Y-94722072D01*
X122286000Y-94722072D01*
X122286000Y-94906200D01*
X122266000Y-94906200D01*
X122266000Y-95652200D01*
X122286000Y-95652200D01*
X122286000Y-95906200D01*
X122266000Y-95906200D01*
X122266000Y-96652200D01*
X122286000Y-96652200D01*
X122286000Y-96836328D01*
X120742000Y-96836328D01*
X120617518Y-96848588D01*
X120497820Y-96884898D01*
X120457967Y-96906200D01*
X120265750Y-96906200D01*
X120224350Y-96947600D01*
X120042654Y-96947600D01*
X119994456Y-96915395D01*
X119806098Y-96837374D01*
X119606139Y-96797600D01*
X119402261Y-96797600D01*
X119202302Y-96837374D01*
X119013944Y-96915395D01*
X118844426Y-97028663D01*
X118700263Y-97172826D01*
X118586995Y-97342344D01*
X118508974Y-97530702D01*
X118469200Y-97730661D01*
X111960000Y-97730661D01*
X111960000Y-96084000D01*
X120103928Y-96084000D01*
X120116188Y-96208482D01*
X120137640Y-96279200D01*
X120116188Y-96349918D01*
X120103928Y-96474400D01*
X120107000Y-96493450D01*
X120265750Y-96652200D01*
X120457967Y-96652200D01*
X120497820Y-96673502D01*
X120617518Y-96709812D01*
X120742000Y-96722072D01*
X121853250Y-96719000D01*
X121920050Y-96652200D01*
X122012000Y-96652200D01*
X122012000Y-95906200D01*
X121920050Y-95906200D01*
X121853250Y-95839400D01*
X120742000Y-95836328D01*
X120617518Y-95848588D01*
X120497820Y-95884898D01*
X120457967Y-95906200D01*
X120265750Y-95906200D01*
X120107000Y-96064950D01*
X120103928Y-96084000D01*
X111960000Y-96084000D01*
X111960000Y-95084000D01*
X120103928Y-95084000D01*
X120116188Y-95208482D01*
X120137640Y-95279200D01*
X120116188Y-95349918D01*
X120103928Y-95474400D01*
X120107000Y-95493450D01*
X120265750Y-95652200D01*
X120457967Y-95652200D01*
X120497820Y-95673502D01*
X120617518Y-95709812D01*
X120742000Y-95722072D01*
X121853250Y-95719000D01*
X121920050Y-95652200D01*
X122012000Y-95652200D01*
X122012000Y-94906200D01*
X121920050Y-94906200D01*
X121853250Y-94839400D01*
X120742000Y-94836328D01*
X120617518Y-94848588D01*
X120497820Y-94884898D01*
X120457967Y-94906200D01*
X120265750Y-94906200D01*
X120107000Y-95064950D01*
X120103928Y-95084000D01*
X111960000Y-95084000D01*
X111960000Y-85572881D01*
X114874724Y-85572881D01*
X115234912Y-86062548D01*
X115898882Y-86422849D01*
X116620385Y-86646694D01*
X117371695Y-86725480D01*
X118123938Y-86656178D01*
X118848208Y-86441452D01*
X119516670Y-86089555D01*
X119557088Y-86062548D01*
X119917276Y-85572881D01*
X117396000Y-83051605D01*
X114874724Y-85572881D01*
X111960000Y-85572881D01*
X111960000Y-82847695D01*
X113542520Y-82847695D01*
X113611822Y-83599938D01*
X113826548Y-84324208D01*
X114178445Y-84992670D01*
X114205452Y-85033088D01*
X114695119Y-85393276D01*
X117216395Y-82872000D01*
X117575605Y-82872000D01*
X120096881Y-85393276D01*
X120586548Y-85033088D01*
X120946849Y-84369118D01*
X121170694Y-83647615D01*
X121249480Y-82896305D01*
X121180178Y-82144062D01*
X120965452Y-81419792D01*
X120613555Y-80751330D01*
X120586548Y-80710912D01*
X120096881Y-80350724D01*
X117575605Y-82872000D01*
X117216395Y-82872000D01*
X114695119Y-80350724D01*
X114205452Y-80710912D01*
X113845151Y-81374882D01*
X113621306Y-82096385D01*
X113542520Y-82847695D01*
X111960000Y-82847695D01*
X111960000Y-80171119D01*
X114874724Y-80171119D01*
X117396000Y-82692395D01*
X119917276Y-80171119D01*
X119557088Y-79681452D01*
X118893118Y-79321151D01*
X118397647Y-79167432D01*
X122577600Y-79167432D01*
X122577600Y-79667768D01*
X122675211Y-80158491D01*
X122866681Y-80620741D01*
X123144653Y-81036756D01*
X123498444Y-81390547D01*
X123914459Y-81668519D01*
X123982600Y-81696744D01*
X123982601Y-83488456D01*
X123914459Y-83516681D01*
X123498444Y-83794653D01*
X123144653Y-84148444D01*
X122866681Y-84564459D01*
X122675211Y-85026709D01*
X122577600Y-85517432D01*
X122577600Y-86017768D01*
X122675211Y-86508491D01*
X122866681Y-86970741D01*
X123144653Y-87386756D01*
X123498444Y-87740547D01*
X123914459Y-88018519D01*
X124376709Y-88209989D01*
X124867432Y-88307600D01*
X125367768Y-88307600D01*
X125858491Y-88209989D01*
X126320741Y-88018519D01*
X126736756Y-87740547D01*
X127090547Y-87386756D01*
X127368519Y-86970741D01*
X127396744Y-86902600D01*
X129188456Y-86902600D01*
X129216681Y-86970741D01*
X129494653Y-87386756D01*
X129848444Y-87740547D01*
X130264459Y-88018519D01*
X130726709Y-88209989D01*
X131217432Y-88307600D01*
X131717768Y-88307600D01*
X132208491Y-88209989D01*
X132670741Y-88018519D01*
X133086756Y-87740547D01*
X133440547Y-87386756D01*
X133718519Y-86970741D01*
X133909989Y-86508491D01*
X134007600Y-86017768D01*
X134007600Y-85517432D01*
X133909989Y-85026709D01*
X133718519Y-84564459D01*
X133440547Y-84148444D01*
X133086756Y-83794653D01*
X132670741Y-83516681D01*
X132602600Y-83488456D01*
X132602600Y-82490661D01*
X133302800Y-82490661D01*
X133302800Y-82694539D01*
X133342574Y-82894498D01*
X133420595Y-83082856D01*
X133533863Y-83252374D01*
X133678026Y-83396537D01*
X133847544Y-83509805D01*
X134035902Y-83587826D01*
X134235861Y-83627600D01*
X134439739Y-83627600D01*
X134639698Y-83587826D01*
X134828056Y-83509805D01*
X134876254Y-83477600D01*
X137812020Y-83477600D01*
X144115001Y-89780582D01*
X144115001Y-89900524D01*
X143936411Y-89865000D01*
X143663589Y-89865000D01*
X143396011Y-89918225D01*
X143143957Y-90022629D01*
X142917114Y-90174201D01*
X142724201Y-90367114D01*
X142572629Y-90593957D01*
X142468225Y-90846011D01*
X142415000Y-91113589D01*
X142415000Y-91386411D01*
X142468225Y-91653989D01*
X142572629Y-91906043D01*
X142724201Y-92132886D01*
X142917114Y-92325799D01*
X143143957Y-92477371D01*
X143246873Y-92520000D01*
X143143957Y-92562629D01*
X142917114Y-92714201D01*
X142724201Y-92907114D01*
X142572629Y-93133957D01*
X142468225Y-93386011D01*
X142415000Y-93653589D01*
X142415000Y-93926411D01*
X142464448Y-94175000D01*
X142333685Y-94175000D01*
X142142886Y-93984201D01*
X141916043Y-93832629D01*
X141813127Y-93790000D01*
X141916043Y-93747371D01*
X142142886Y-93595799D01*
X142335799Y-93402886D01*
X142487371Y-93176043D01*
X142591775Y-92923989D01*
X142645000Y-92656411D01*
X142645000Y-92383589D01*
X142591775Y-92116011D01*
X142487371Y-91863957D01*
X142335799Y-91637114D01*
X142142886Y-91444201D01*
X141916043Y-91292629D01*
X141663989Y-91188225D01*
X141396411Y-91135000D01*
X141123589Y-91135000D01*
X140856011Y-91188225D01*
X140603957Y-91292629D01*
X140377114Y-91444201D01*
X140184201Y-91637114D01*
X140032629Y-91863957D01*
X139928225Y-92116011D01*
X139875000Y-92383589D01*
X139875000Y-92656411D01*
X139928225Y-92923989D01*
X140032629Y-93176043D01*
X140184201Y-93402886D01*
X140377114Y-93595799D01*
X140603957Y-93747371D01*
X140706873Y-93790000D01*
X140603957Y-93832629D01*
X140377114Y-93984201D01*
X140184201Y-94177114D01*
X140032629Y-94403957D01*
X139928225Y-94656011D01*
X139875000Y-94923589D01*
X139875000Y-95196411D01*
X139928225Y-95463989D01*
X140032629Y-95716043D01*
X140184201Y-95942886D01*
X140377114Y-96135799D01*
X140603957Y-96287371D01*
X140706873Y-96330000D01*
X140603957Y-96372629D01*
X140377114Y-96524201D01*
X140184201Y-96717114D01*
X140032629Y-96943957D01*
X139928225Y-97196011D01*
X139875000Y-97463589D01*
X139875000Y-97736411D01*
X139928225Y-98003989D01*
X140032629Y-98256043D01*
X140184201Y-98482886D01*
X140377114Y-98675799D01*
X140603957Y-98827371D01*
X140706873Y-98870000D01*
X140603957Y-98912629D01*
X140377114Y-99064201D01*
X140184201Y-99257114D01*
X140032629Y-99483957D01*
X139928225Y-99736011D01*
X139875000Y-100003589D01*
X139875000Y-100276411D01*
X139928225Y-100543989D01*
X140032629Y-100796043D01*
X140184201Y-101022886D01*
X140377114Y-101215799D01*
X140493483Y-101293555D01*
X140385518Y-101304188D01*
X140265820Y-101340498D01*
X140155506Y-101399463D01*
X140058815Y-101478815D01*
X139979463Y-101575506D01*
X139920498Y-101685820D01*
X139884188Y-101805518D01*
X139871928Y-101930000D01*
X139871928Y-103430000D01*
X139884188Y-103554482D01*
X139920498Y-103674180D01*
X139979463Y-103784494D01*
X140058815Y-103881185D01*
X140155506Y-103960537D01*
X140265820Y-104019502D01*
X140385518Y-104055812D01*
X140510000Y-104068072D01*
X142010000Y-104068072D01*
X142134482Y-104055812D01*
X142254180Y-104019502D01*
X142364494Y-103960537D01*
X142461185Y-103881185D01*
X142540537Y-103784494D01*
X142599502Y-103674180D01*
X142635812Y-103554482D01*
X142648072Y-103430000D01*
X142648072Y-102178951D01*
X142724201Y-102292886D01*
X142917114Y-102485799D01*
X143143957Y-102637371D01*
X143396011Y-102741775D01*
X143663589Y-102795000D01*
X143936411Y-102795000D01*
X144203989Y-102741775D01*
X144456043Y-102637371D01*
X144682886Y-102485799D01*
X144875799Y-102292886D01*
X144881068Y-102285000D01*
X146161546Y-102285000D01*
X146209744Y-102317205D01*
X146398102Y-102395226D01*
X146598061Y-102435000D01*
X146801939Y-102435000D01*
X147001898Y-102395226D01*
X147190256Y-102317205D01*
X147359774Y-102203937D01*
X147503937Y-102059774D01*
X147617205Y-101890256D01*
X147695226Y-101701898D01*
X147735000Y-101501939D01*
X147735000Y-101298061D01*
X147695226Y-101098102D01*
X147617205Y-100909744D01*
X147503937Y-100740226D01*
X147359774Y-100596063D01*
X147190256Y-100482795D01*
X147001898Y-100404774D01*
X146801939Y-100365000D01*
X146598061Y-100365000D01*
X146398102Y-100404774D01*
X146209744Y-100482795D01*
X146161546Y-100515000D01*
X144863685Y-100515000D01*
X144682886Y-100334201D01*
X144456043Y-100182629D01*
X144353127Y-100140000D01*
X144456043Y-100097371D01*
X144682886Y-99945799D01*
X144875799Y-99752886D01*
X145027371Y-99526043D01*
X145131775Y-99273989D01*
X145185000Y-99006411D01*
X145185000Y-98733589D01*
X145131775Y-98466011D01*
X145027371Y-98213957D01*
X144875799Y-97987114D01*
X144682886Y-97794201D01*
X144456043Y-97642629D01*
X144353127Y-97600000D01*
X144456043Y-97557371D01*
X144682886Y-97405799D01*
X144875799Y-97212886D01*
X145027371Y-96986043D01*
X145131775Y-96733989D01*
X145185000Y-96466411D01*
X145185000Y-96193589D01*
X145131775Y-95926011D01*
X145044002Y-95714107D01*
X145074817Y-95688817D01*
X145102534Y-95655044D01*
X145595045Y-95162533D01*
X145628818Y-95134816D01*
X145739412Y-95000058D01*
X145821590Y-94846312D01*
X145872196Y-94679489D01*
X145885001Y-94549476D01*
X145885001Y-94549468D01*
X145889282Y-94505999D01*
X145885001Y-94462530D01*
X145885001Y-90458662D01*
X145994002Y-90567663D01*
X146278169Y-90757537D01*
X146593919Y-90888325D01*
X146929117Y-90955000D01*
X147270883Y-90955000D01*
X147606081Y-90888325D01*
X147921831Y-90757537D01*
X147947030Y-90740699D01*
X147890000Y-91027409D01*
X147890000Y-91472591D01*
X147976851Y-91909218D01*
X148147214Y-92320511D01*
X148394544Y-92690666D01*
X148709334Y-93005456D01*
X149079489Y-93252786D01*
X149490782Y-93423149D01*
X149927409Y-93510000D01*
X150372591Y-93510000D01*
X150809218Y-93423149D01*
X151220511Y-93252786D01*
X151590666Y-93005456D01*
X151905456Y-92690666D01*
X152152786Y-92320511D01*
X152323149Y-91909218D01*
X152410000Y-91472591D01*
X152410000Y-91358702D01*
X153906903Y-91358702D01*
X153978486Y-91602671D01*
X154233996Y-91723571D01*
X154508184Y-91792300D01*
X154790512Y-91806217D01*
X155070130Y-91764787D01*
X155336292Y-91669603D01*
X155461514Y-91602671D01*
X155533097Y-91358702D01*
X155936903Y-91358702D01*
X156008486Y-91602671D01*
X156263996Y-91723571D01*
X156538184Y-91792300D01*
X156820512Y-91806217D01*
X157100130Y-91764787D01*
X157366292Y-91669603D01*
X157491514Y-91602671D01*
X157563097Y-91358702D01*
X156750000Y-90545605D01*
X155936903Y-91358702D01*
X155533097Y-91358702D01*
X154720000Y-90545605D01*
X153906903Y-91358702D01*
X152410000Y-91358702D01*
X152410000Y-91027409D01*
X152323149Y-90590782D01*
X152259249Y-90436512D01*
X153279783Y-90436512D01*
X153321213Y-90716130D01*
X153416397Y-90982292D01*
X153483329Y-91107514D01*
X153727298Y-91179097D01*
X154540395Y-90366000D01*
X154899605Y-90366000D01*
X155407706Y-90874101D01*
X155446397Y-90982292D01*
X155513329Y-91107514D01*
X155694184Y-91160579D01*
X155712702Y-91179097D01*
X155735000Y-91172555D01*
X155757298Y-91179097D01*
X155775816Y-91160579D01*
X155956671Y-91107514D01*
X156071446Y-90864949D01*
X156570395Y-90366000D01*
X156929605Y-90366000D01*
X157742702Y-91179097D01*
X157986671Y-91107514D01*
X158107571Y-90852004D01*
X158176300Y-90577816D01*
X158190217Y-90295488D01*
X158148787Y-90015870D01*
X158053603Y-89749708D01*
X157986671Y-89624486D01*
X157742702Y-89552903D01*
X156929605Y-90366000D01*
X156570395Y-90366000D01*
X156062294Y-89857899D01*
X156023603Y-89749708D01*
X155956671Y-89624486D01*
X155775816Y-89571421D01*
X155757298Y-89552903D01*
X155735000Y-89559445D01*
X155712702Y-89552903D01*
X155694184Y-89571421D01*
X155513329Y-89624486D01*
X155398554Y-89867051D01*
X154899605Y-90366000D01*
X154540395Y-90366000D01*
X153727298Y-89552903D01*
X153483329Y-89624486D01*
X153362429Y-89879996D01*
X153293700Y-90154184D01*
X153279783Y-90436512D01*
X152259249Y-90436512D01*
X152152786Y-90179489D01*
X151905456Y-89809334D01*
X151590666Y-89494544D01*
X151409209Y-89373298D01*
X153906903Y-89373298D01*
X154720000Y-90186395D01*
X155533097Y-89373298D01*
X155936903Y-89373298D01*
X156750000Y-90186395D01*
X157563097Y-89373298D01*
X157491514Y-89129329D01*
X157236004Y-89008429D01*
X156961816Y-88939700D01*
X156679488Y-88925783D01*
X156399870Y-88967213D01*
X156133708Y-89062397D01*
X156008486Y-89129329D01*
X155936903Y-89373298D01*
X155533097Y-89373298D01*
X155461514Y-89129329D01*
X155206004Y-89008429D01*
X154931816Y-88939700D01*
X154649488Y-88925783D01*
X154369870Y-88967213D01*
X154103708Y-89062397D01*
X153978486Y-89129329D01*
X153906903Y-89373298D01*
X151409209Y-89373298D01*
X151220511Y-89247214D01*
X150809218Y-89076851D01*
X150372591Y-88990000D01*
X149927409Y-88990000D01*
X149490782Y-89076851D01*
X149079489Y-89247214D01*
X148830482Y-89413595D01*
X148835000Y-89390883D01*
X148835000Y-89049117D01*
X148768325Y-88713919D01*
X148637537Y-88398169D01*
X148447663Y-88114002D01*
X148205998Y-87872337D01*
X147921831Y-87682463D01*
X147606081Y-87551675D01*
X147270883Y-87485000D01*
X146929117Y-87485000D01*
X146593919Y-87551675D01*
X146278169Y-87682463D01*
X145994002Y-87872337D01*
X145752337Y-88114002D01*
X145562463Y-88398169D01*
X145466770Y-88629193D01*
X138835132Y-81997556D01*
X138807415Y-81963783D01*
X138672657Y-81853189D01*
X138518911Y-81771011D01*
X138352088Y-81720405D01*
X138222075Y-81707600D01*
X138222067Y-81707600D01*
X138178598Y-81703319D01*
X138135129Y-81707600D01*
X134876254Y-81707600D01*
X134828056Y-81675395D01*
X134639698Y-81597374D01*
X134439739Y-81557600D01*
X134235861Y-81557600D01*
X134035902Y-81597374D01*
X133847544Y-81675395D01*
X133678026Y-81788663D01*
X133533863Y-81932826D01*
X133420595Y-82102344D01*
X133342574Y-82290702D01*
X133302800Y-82490661D01*
X132602600Y-82490661D01*
X132602600Y-81696744D01*
X132670741Y-81668519D01*
X133086756Y-81390547D01*
X133440547Y-81036756D01*
X133718519Y-80620741D01*
X133909989Y-80158491D01*
X134007600Y-79667768D01*
X134007600Y-79167432D01*
X133909989Y-78676709D01*
X133718519Y-78214459D01*
X133440547Y-77798444D01*
X133086756Y-77444653D01*
X132670741Y-77166681D01*
X132208491Y-76975211D01*
X131717768Y-76877600D01*
X131217432Y-76877600D01*
X130726709Y-76975211D01*
X130264459Y-77166681D01*
X129848444Y-77444653D01*
X129494653Y-77798444D01*
X129216681Y-78214459D01*
X129025211Y-78676709D01*
X128927600Y-79167432D01*
X128927600Y-79667768D01*
X129025211Y-80158491D01*
X129088088Y-80310291D01*
X128996446Y-80272331D01*
X128530260Y-80179600D01*
X128054940Y-80179600D01*
X127588754Y-80272331D01*
X127497112Y-80310291D01*
X127559989Y-80158491D01*
X127657600Y-79667768D01*
X127657600Y-79167432D01*
X127559989Y-78676709D01*
X127368519Y-78214459D01*
X127090547Y-77798444D01*
X126736756Y-77444653D01*
X126320741Y-77166681D01*
X125858491Y-76975211D01*
X125367768Y-76877600D01*
X124867432Y-76877600D01*
X124376709Y-76975211D01*
X123914459Y-77166681D01*
X123498444Y-77444653D01*
X123144653Y-77798444D01*
X122866681Y-78214459D01*
X122675211Y-78676709D01*
X122577600Y-79167432D01*
X118397647Y-79167432D01*
X118171615Y-79097306D01*
X117420305Y-79018520D01*
X116668062Y-79087822D01*
X115943792Y-79302548D01*
X115275330Y-79654445D01*
X115234912Y-79681452D01*
X114874724Y-80171119D01*
X111960000Y-80171119D01*
X111960000Y-76060000D01*
X160640000Y-76060000D01*
X160640001Y-115740000D01*
G37*
G04 #@! TD.AperFunction*
M02*
