G04 #@! TF.GenerationSoftware,KiCad,Pcbnew,(5.1.12)-1*
G04 #@! TF.CreationDate,2021-12-17T13:10:56+01:00*
G04 #@! TF.ProjectId,eth_mezz_mag_rj45,6574685f-6d65-47a7-9a5f-6d61675f726a,rev?*
G04 #@! TF.SameCoordinates,Original*
G04 #@! TF.FileFunction,Soldermask,Top*
G04 #@! TF.FilePolarity,Negative*
%FSLAX46Y46*%
G04 Gerber Fmt 4.6, Leading zero omitted, Abs format (unit mm)*
G04 Created by KiCad (PCBNEW (5.1.12)-1) date 2021-12-17 13:10:56*
%MOMM*%
%LPD*%
G01*
G04 APERTURE LIST*
%ADD10C,0.800000*%
%ADD11C,6.400000*%
%ADD12C,3.810000*%
%ADD13C,3.556000*%
%ADD14C,1.600000*%
%ADD15R,1.500000X1.500000*%
%ADD16C,1.500000*%
%ADD17C,2.200000*%
%ADD18C,3.250000*%
G04 APERTURE END LIST*
D10*
X124889820Y-98307900D03*
X124889820Y-93250500D03*
X119093056Y-106981344D03*
X117396000Y-106278400D03*
X115698944Y-106981344D03*
X114996000Y-108678400D03*
X115698944Y-110375456D03*
X117396000Y-111078400D03*
X119093056Y-110375456D03*
X119796000Y-108678400D03*
D11*
X117396000Y-108678400D03*
D10*
X119093056Y-81174944D03*
X117396000Y-80472000D03*
X115698944Y-81174944D03*
X114996000Y-82872000D03*
X115698944Y-84569056D03*
X117396000Y-85272000D03*
X119093056Y-84569056D03*
X119796000Y-82872000D03*
D11*
X117396000Y-82872000D03*
D12*
X131467600Y-85767600D03*
X125117600Y-85767600D03*
X131467600Y-79417600D03*
D13*
X128292600Y-82592600D03*
D12*
X125117600Y-79417600D03*
G36*
G01*
X116416500Y-97332200D02*
X116416500Y-98282200D01*
G75*
G02*
X116166500Y-98532200I-250000J0D01*
G01*
X115491500Y-98532200D01*
G75*
G02*
X115241500Y-98282200I0J250000D01*
G01*
X115241500Y-97332200D01*
G75*
G02*
X115491500Y-97082200I250000J0D01*
G01*
X116166500Y-97082200D01*
G75*
G02*
X116416500Y-97332200I0J-250000D01*
G01*
G37*
G36*
G01*
X118491500Y-97332200D02*
X118491500Y-98282200D01*
G75*
G02*
X118241500Y-98532200I-250000J0D01*
G01*
X117566500Y-98532200D01*
G75*
G02*
X117316500Y-98282200I0J250000D01*
G01*
X117316500Y-97332200D01*
G75*
G02*
X117566500Y-97082200I250000J0D01*
G01*
X118241500Y-97082200D01*
G75*
G02*
X118491500Y-97332200I0J-250000D01*
G01*
G37*
G36*
G01*
X116416500Y-93268200D02*
X116416500Y-94218200D01*
G75*
G02*
X116166500Y-94468200I-250000J0D01*
G01*
X115491500Y-94468200D01*
G75*
G02*
X115241500Y-94218200I0J250000D01*
G01*
X115241500Y-93268200D01*
G75*
G02*
X115491500Y-93018200I250000J0D01*
G01*
X116166500Y-93018200D01*
G75*
G02*
X116416500Y-93268200I0J-250000D01*
G01*
G37*
G36*
G01*
X118491500Y-93268200D02*
X118491500Y-94218200D01*
G75*
G02*
X118241500Y-94468200I-250000J0D01*
G01*
X117566500Y-94468200D01*
G75*
G02*
X117316500Y-94218200I0J250000D01*
G01*
X117316500Y-93268200D01*
G75*
G02*
X117566500Y-93018200I250000J0D01*
G01*
X118241500Y-93018200D01*
G75*
G02*
X118491500Y-93268200I0J-250000D01*
G01*
G37*
G36*
G01*
X144775000Y-112725000D02*
X144775000Y-111475000D01*
G75*
G02*
X145025000Y-111225000I250000J0D01*
G01*
X145950000Y-111225000D01*
G75*
G02*
X146200000Y-111475000I0J-250000D01*
G01*
X146200000Y-112725000D01*
G75*
G02*
X145950000Y-112975000I-250000J0D01*
G01*
X145025000Y-112975000D01*
G75*
G02*
X144775000Y-112725000I0J250000D01*
G01*
G37*
G36*
G01*
X141800000Y-112725000D02*
X141800000Y-111475000D01*
G75*
G02*
X142050000Y-111225000I250000J0D01*
G01*
X142975000Y-111225000D01*
G75*
G02*
X143225000Y-111475000I0J-250000D01*
G01*
X143225000Y-112725000D01*
G75*
G02*
X142975000Y-112975000I-250000J0D01*
G01*
X142050000Y-112975000D01*
G75*
G02*
X141800000Y-112725000I0J250000D01*
G01*
G37*
G36*
G01*
X143349999Y-108900000D02*
X144250001Y-108900000D01*
G75*
G02*
X144500000Y-109149999I0J-249999D01*
G01*
X144500000Y-109850001D01*
G75*
G02*
X144250001Y-110100000I-249999J0D01*
G01*
X143349999Y-110100000D01*
G75*
G02*
X143100000Y-109850001I0J249999D01*
G01*
X143100000Y-109149999D01*
G75*
G02*
X143349999Y-108900000I249999J0D01*
G01*
G37*
G36*
G01*
X143349999Y-106900000D02*
X144250001Y-106900000D01*
G75*
G02*
X144500000Y-107149999I0J-249999D01*
G01*
X144500000Y-107850001D01*
G75*
G02*
X144250001Y-108100000I-249999J0D01*
G01*
X143349999Y-108100000D01*
G75*
G02*
X143100000Y-107850001I0J249999D01*
G01*
X143100000Y-107149999D01*
G75*
G02*
X143349999Y-106900000I249999J0D01*
G01*
G37*
G36*
G01*
X140749999Y-108900000D02*
X141650001Y-108900000D01*
G75*
G02*
X141900000Y-109149999I0J-249999D01*
G01*
X141900000Y-109850001D01*
G75*
G02*
X141650001Y-110100000I-249999J0D01*
G01*
X140749999Y-110100000D01*
G75*
G02*
X140500000Y-109850001I0J249999D01*
G01*
X140500000Y-109149999D01*
G75*
G02*
X140749999Y-108900000I249999J0D01*
G01*
G37*
G36*
G01*
X140749999Y-106900000D02*
X141650001Y-106900000D01*
G75*
G02*
X141900000Y-107149999I0J-249999D01*
G01*
X141900000Y-107850001D01*
G75*
G02*
X141650001Y-108100000I-249999J0D01*
G01*
X140749999Y-108100000D01*
G75*
G02*
X140500000Y-107850001I0J249999D01*
G01*
X140500000Y-107149999D01*
G75*
G02*
X140749999Y-106900000I249999J0D01*
G01*
G37*
D14*
X154720000Y-90366000D03*
X156750000Y-90366000D03*
X154720000Y-103816000D03*
D15*
X141260000Y-102680000D03*
D16*
X141260000Y-100140000D03*
X141260000Y-97600000D03*
X141260000Y-95060000D03*
X141260000Y-92520000D03*
X143800000Y-101410000D03*
X143800000Y-98870000D03*
X143800000Y-96330000D03*
X143800000Y-93790000D03*
D17*
X147102000Y-104966000D03*
D18*
X150150000Y-102680000D03*
X150150000Y-91250000D03*
D17*
X147100000Y-89220000D03*
D14*
X156750000Y-103816000D03*
D16*
X143800000Y-91250000D03*
M02*
