G04 #@! TF.GenerationSoftware,KiCad,Pcbnew,(5.1.12)-1*
G04 #@! TF.CreationDate,2021-12-17T13:10:56+01:00*
G04 #@! TF.ProjectId,eth_mezz_mag_rj45,6574685f-6d65-47a7-9a5f-6d61675f726a,rev?*
G04 #@! TF.SameCoordinates,Original*
G04 #@! TF.FileFunction,Copper,L1,Top*
G04 #@! TF.FilePolarity,Positive*
%FSLAX46Y46*%
G04 Gerber Fmt 4.6, Leading zero omitted, Abs format (unit mm)*
G04 Created by KiCad (PCBNEW (5.1.12)-1) date 2021-12-17 13:10:56*
%MOMM*%
%LPD*%
G01*
G04 APERTURE LIST*
G04 #@! TA.AperFunction,ComponentPad*
%ADD10C,0.800000*%
G04 #@! TD*
G04 #@! TA.AperFunction,ComponentPad*
%ADD11C,6.400000*%
G04 #@! TD*
G04 #@! TA.AperFunction,ComponentPad*
%ADD12C,3.810000*%
G04 #@! TD*
G04 #@! TA.AperFunction,ComponentPad*
%ADD13C,3.556000*%
G04 #@! TD*
G04 #@! TA.AperFunction,ComponentPad*
%ADD14C,1.600000*%
G04 #@! TD*
G04 #@! TA.AperFunction,ComponentPad*
%ADD15R,1.500000X1.500000*%
G04 #@! TD*
G04 #@! TA.AperFunction,ComponentPad*
%ADD16C,1.500000*%
G04 #@! TD*
G04 #@! TA.AperFunction,ComponentPad*
%ADD17C,2.200000*%
G04 #@! TD*
G04 #@! TA.AperFunction,ViaPad*
%ADD18C,0.800000*%
G04 #@! TD*
G04 #@! TA.AperFunction,ViaPad*
%ADD19C,1.600000*%
G04 #@! TD*
G04 #@! TA.AperFunction,Conductor*
%ADD20C,0.200000*%
G04 #@! TD*
G04 #@! TA.AperFunction,Conductor*
%ADD21C,0.568540*%
G04 #@! TD*
G04 #@! TA.AperFunction,Conductor*
%ADD22C,0.500000*%
G04 #@! TD*
G04 #@! TA.AperFunction,Conductor*
%ADD23C,0.254000*%
G04 #@! TD*
G04 #@! TA.AperFunction,Conductor*
%ADD24C,0.100000*%
G04 #@! TD*
G04 APERTURE END LIST*
D10*
X119093056Y-106981344D03*
X117396000Y-106278400D03*
X115698944Y-106981344D03*
X114996000Y-108678400D03*
X115698944Y-110375456D03*
X117396000Y-111078400D03*
X119093056Y-110375456D03*
X119796000Y-108678400D03*
D11*
X117396000Y-108678400D03*
D10*
X119093056Y-81174944D03*
X117396000Y-80472000D03*
X115698944Y-81174944D03*
X114996000Y-82872000D03*
X115698944Y-84569056D03*
X117396000Y-85272000D03*
X119093056Y-84569056D03*
X119796000Y-82872000D03*
D11*
X117396000Y-82872000D03*
D12*
X131467600Y-85767600D03*
X125117600Y-85767600D03*
X131467600Y-79417600D03*
D13*
X128292600Y-82592600D03*
D12*
X125117600Y-79417600D03*
G04 #@! TA.AperFunction,SMDPad,CuDef*
G36*
G01*
X116416500Y-97332200D02*
X116416500Y-98282200D01*
G75*
G02*
X116166500Y-98532200I-250000J0D01*
G01*
X115491500Y-98532200D01*
G75*
G02*
X115241500Y-98282200I0J250000D01*
G01*
X115241500Y-97332200D01*
G75*
G02*
X115491500Y-97082200I250000J0D01*
G01*
X116166500Y-97082200D01*
G75*
G02*
X116416500Y-97332200I0J-250000D01*
G01*
G37*
G04 #@! TD.AperFunction*
G04 #@! TA.AperFunction,SMDPad,CuDef*
G36*
G01*
X118491500Y-97332200D02*
X118491500Y-98282200D01*
G75*
G02*
X118241500Y-98532200I-250000J0D01*
G01*
X117566500Y-98532200D01*
G75*
G02*
X117316500Y-98282200I0J250000D01*
G01*
X117316500Y-97332200D01*
G75*
G02*
X117566500Y-97082200I250000J0D01*
G01*
X118241500Y-97082200D01*
G75*
G02*
X118491500Y-97332200I0J-250000D01*
G01*
G37*
G04 #@! TD.AperFunction*
G04 #@! TA.AperFunction,SMDPad,CuDef*
G36*
G01*
X116416500Y-93268200D02*
X116416500Y-94218200D01*
G75*
G02*
X116166500Y-94468200I-250000J0D01*
G01*
X115491500Y-94468200D01*
G75*
G02*
X115241500Y-94218200I0J250000D01*
G01*
X115241500Y-93268200D01*
G75*
G02*
X115491500Y-93018200I250000J0D01*
G01*
X116166500Y-93018200D01*
G75*
G02*
X116416500Y-93268200I0J-250000D01*
G01*
G37*
G04 #@! TD.AperFunction*
G04 #@! TA.AperFunction,SMDPad,CuDef*
G36*
G01*
X118491500Y-93268200D02*
X118491500Y-94218200D01*
G75*
G02*
X118241500Y-94468200I-250000J0D01*
G01*
X117566500Y-94468200D01*
G75*
G02*
X117316500Y-94218200I0J250000D01*
G01*
X117316500Y-93268200D01*
G75*
G02*
X117566500Y-93018200I250000J0D01*
G01*
X118241500Y-93018200D01*
G75*
G02*
X118491500Y-93268200I0J-250000D01*
G01*
G37*
G04 #@! TD.AperFunction*
G04 #@! TA.AperFunction,SMDPad,CuDef*
G36*
G01*
X144775000Y-112725000D02*
X144775000Y-111475000D01*
G75*
G02*
X145025000Y-111225000I250000J0D01*
G01*
X145950000Y-111225000D01*
G75*
G02*
X146200000Y-111475000I0J-250000D01*
G01*
X146200000Y-112725000D01*
G75*
G02*
X145950000Y-112975000I-250000J0D01*
G01*
X145025000Y-112975000D01*
G75*
G02*
X144775000Y-112725000I0J250000D01*
G01*
G37*
G04 #@! TD.AperFunction*
G04 #@! TA.AperFunction,SMDPad,CuDef*
G36*
G01*
X141800000Y-112725000D02*
X141800000Y-111475000D01*
G75*
G02*
X142050000Y-111225000I250000J0D01*
G01*
X142975000Y-111225000D01*
G75*
G02*
X143225000Y-111475000I0J-250000D01*
G01*
X143225000Y-112725000D01*
G75*
G02*
X142975000Y-112975000I-250000J0D01*
G01*
X142050000Y-112975000D01*
G75*
G02*
X141800000Y-112725000I0J250000D01*
G01*
G37*
G04 #@! TD.AperFunction*
G04 #@! TA.AperFunction,SMDPad,CuDef*
G36*
G01*
X143349999Y-108900000D02*
X144250001Y-108900000D01*
G75*
G02*
X144500000Y-109149999I0J-249999D01*
G01*
X144500000Y-109850001D01*
G75*
G02*
X144250001Y-110100000I-249999J0D01*
G01*
X143349999Y-110100000D01*
G75*
G02*
X143100000Y-109850001I0J249999D01*
G01*
X143100000Y-109149999D01*
G75*
G02*
X143349999Y-108900000I249999J0D01*
G01*
G37*
G04 #@! TD.AperFunction*
G04 #@! TA.AperFunction,SMDPad,CuDef*
G36*
G01*
X143349999Y-106900000D02*
X144250001Y-106900000D01*
G75*
G02*
X144500000Y-107149999I0J-249999D01*
G01*
X144500000Y-107850001D01*
G75*
G02*
X144250001Y-108100000I-249999J0D01*
G01*
X143349999Y-108100000D01*
G75*
G02*
X143100000Y-107850001I0J249999D01*
G01*
X143100000Y-107149999D01*
G75*
G02*
X143349999Y-106900000I249999J0D01*
G01*
G37*
G04 #@! TD.AperFunction*
G04 #@! TA.AperFunction,SMDPad,CuDef*
G36*
G01*
X140749999Y-108900000D02*
X141650001Y-108900000D01*
G75*
G02*
X141900000Y-109149999I0J-249999D01*
G01*
X141900000Y-109850001D01*
G75*
G02*
X141650001Y-110100000I-249999J0D01*
G01*
X140749999Y-110100000D01*
G75*
G02*
X140500000Y-109850001I0J249999D01*
G01*
X140500000Y-109149999D01*
G75*
G02*
X140749999Y-108900000I249999J0D01*
G01*
G37*
G04 #@! TD.AperFunction*
G04 #@! TA.AperFunction,SMDPad,CuDef*
G36*
G01*
X140749999Y-106900000D02*
X141650001Y-106900000D01*
G75*
G02*
X141900000Y-107149999I0J-249999D01*
G01*
X141900000Y-107850001D01*
G75*
G02*
X141650001Y-108100000I-249999J0D01*
G01*
X140749999Y-108100000D01*
G75*
G02*
X140500000Y-107850001I0J249999D01*
G01*
X140500000Y-107149999D01*
G75*
G02*
X140749999Y-106900000I249999J0D01*
G01*
G37*
G04 #@! TD.AperFunction*
D14*
X154720000Y-90366000D03*
X156750000Y-90366000D03*
X154720000Y-103816000D03*
D15*
X141260000Y-102680000D03*
D16*
X141260000Y-100140000D03*
X141260000Y-97600000D03*
X141260000Y-95060000D03*
X141260000Y-92520000D03*
X143800000Y-101410000D03*
X143800000Y-98870000D03*
X143800000Y-96330000D03*
X143800000Y-93790000D03*
D17*
X147102000Y-104966000D03*
X147100000Y-89220000D03*
D14*
X156750000Y-103816000D03*
D16*
X143800000Y-91250000D03*
D18*
X131109410Y-99300010D03*
X132444510Y-99300010D03*
X133779610Y-99300010D03*
X135114710Y-99300010D03*
X136449810Y-99300010D03*
X137784910Y-99300010D03*
X129774311Y-99300010D03*
X138510543Y-92309989D03*
X137173047Y-92309989D03*
X135835551Y-92309989D03*
X134498055Y-92309989D03*
X133160560Y-92309989D03*
X131823064Y-92309989D03*
X130485568Y-92309989D03*
D19*
X114017800Y-95826000D03*
D18*
X130800000Y-95800000D03*
D19*
X124000000Y-111320000D03*
X139240000Y-111320000D03*
X124000000Y-106240000D03*
X139240000Y-106240000D03*
X128318000Y-91127000D03*
X131620000Y-111320000D03*
X131620000Y-106240000D03*
D18*
X127759200Y-94250000D03*
X127759200Y-97273800D03*
X134337800Y-82592600D03*
X119529600Y-93768600D03*
X134300000Y-95800000D03*
X138300000Y-95800000D03*
X136400000Y-88000000D03*
X136300000Y-84300000D03*
D19*
X137700000Y-78100000D03*
X142300000Y-81400000D03*
X146300000Y-85400000D03*
X149300000Y-81400000D03*
X155300000Y-81400000D03*
X156300000Y-108400000D03*
X156300000Y-113400000D03*
X150300000Y-113400000D03*
X150300000Y-108400000D03*
D18*
X143300000Y-104400000D03*
X145600000Y-96200000D03*
X119504200Y-97832600D03*
X127759200Y-96257800D03*
X127759200Y-95250000D03*
X146700000Y-101400000D03*
D20*
X127759200Y-94250000D02*
X128399211Y-93609989D01*
X128399211Y-93609989D02*
X141724013Y-93609989D01*
X141724013Y-93609989D02*
X143800000Y-91534002D01*
X143800000Y-91534002D02*
X143800000Y-91250000D01*
D21*
X127759200Y-95305300D02*
X127822700Y-95305300D01*
D22*
X131715000Y-86015000D02*
X131467600Y-85767600D01*
X136369800Y-86015000D02*
X131715000Y-86015000D01*
X134337800Y-82592600D02*
X128292600Y-82592600D01*
X119504200Y-93743200D02*
X119529600Y-93768600D01*
X117904000Y-91533400D02*
X117904000Y-93743200D01*
X119560401Y-89876999D02*
X117904000Y-91533400D01*
X117904000Y-93743200D02*
X119504200Y-93743200D01*
X138616999Y-89876999D02*
X141260000Y-92520000D01*
X119560401Y-89876999D02*
X138616999Y-89876999D01*
X117904000Y-97807200D02*
X119478800Y-97807200D01*
X119478800Y-97807200D02*
X119504200Y-97832600D01*
X117904000Y-99407400D02*
X117904000Y-97807200D01*
X121612400Y-103115800D02*
X117904000Y-99407400D01*
X141836001Y-101340001D02*
X143800000Y-99376002D01*
X138759999Y-101340001D02*
X141836001Y-101340001D01*
X143800000Y-99376002D02*
X143800000Y-98870000D01*
X136984200Y-103115800D02*
X138759999Y-101340001D01*
X121612400Y-103115800D02*
X136984200Y-103115800D01*
X142512500Y-112100000D02*
X142512500Y-109587500D01*
X142512500Y-109587500D02*
X142600000Y-109500000D01*
X142600000Y-109500000D02*
X143800000Y-109500000D01*
X141200000Y-109500000D02*
X142600000Y-109500000D01*
D20*
X127759200Y-97273800D02*
X129048102Y-97273800D01*
X129048102Y-97273800D02*
X129774311Y-98000010D01*
X139120010Y-98000010D02*
X141260000Y-100140000D01*
X129774311Y-98000010D02*
X139120010Y-98000010D01*
X137495180Y-97600000D02*
X139300783Y-97600000D01*
X137300000Y-97404819D02*
X137495180Y-97600000D01*
X136495180Y-97404819D02*
X137300000Y-97404819D01*
X135495180Y-97600000D02*
X136300000Y-97600000D01*
X135300000Y-97404819D02*
X135495180Y-97600000D01*
X127759200Y-96257800D02*
X128597800Y-96257800D01*
X129940000Y-97600000D02*
X130300000Y-97600000D01*
X130495180Y-97404819D02*
X131300000Y-97404819D01*
X130300000Y-97600000D02*
X130495180Y-97404819D01*
X132495180Y-97404819D02*
X133300000Y-97404819D01*
X131300000Y-97404819D02*
X131495180Y-97600000D01*
X134495180Y-97404819D02*
X135300000Y-97404819D01*
X128597800Y-96257800D02*
X129940000Y-97600000D01*
X131495180Y-97600000D02*
X132300000Y-97600000D01*
X133495180Y-97600000D02*
X134300000Y-97600000D01*
X139300783Y-97600000D02*
X141260000Y-97600000D01*
X136300000Y-97600000D02*
X136495180Y-97404819D01*
X132300000Y-97600000D02*
X132495180Y-97404819D01*
X133300000Y-97404819D02*
X133495180Y-97600000D01*
X134300000Y-97600000D02*
X134495180Y-97404819D01*
D22*
X143800000Y-93790000D02*
X143745200Y-93844800D01*
D20*
X128246001Y-94763199D02*
X127759200Y-95250000D01*
X130902399Y-94009999D02*
X128999201Y-94009999D01*
X131902399Y-94207602D02*
X131100001Y-94207602D01*
X132100001Y-94009999D02*
X131902399Y-94207602D01*
X132902399Y-94009999D02*
X132100001Y-94009999D01*
X131100001Y-94207602D02*
X130902399Y-94009999D01*
X133100001Y-94207602D02*
X132902399Y-94009999D01*
X133902399Y-94207602D02*
X133100001Y-94207602D01*
X134100001Y-94009999D02*
X133902399Y-94207602D01*
X134902399Y-94009999D02*
X134100001Y-94009999D01*
X135100001Y-94207602D02*
X134902399Y-94009999D01*
X143800000Y-93790000D02*
X142469998Y-93790000D01*
X142469998Y-93790000D02*
X142249999Y-94009999D01*
X142249999Y-94009999D02*
X140100001Y-94009999D01*
X140100001Y-94009999D02*
X139902399Y-94207602D01*
X138902399Y-94009999D02*
X138100001Y-94009999D01*
X137100001Y-94207602D02*
X136902399Y-94009999D01*
X139902399Y-94207602D02*
X139100001Y-94207602D01*
X128999201Y-94009999D02*
X128246001Y-94763199D01*
X135902399Y-94207602D02*
X135100001Y-94207602D01*
X139100001Y-94207602D02*
X138902399Y-94009999D01*
X136100001Y-94009999D02*
X135902399Y-94207602D01*
X138100001Y-94009999D02*
X137902399Y-94207602D01*
X137902399Y-94207602D02*
X137100001Y-94207602D01*
X136902399Y-94009999D02*
X136100001Y-94009999D01*
D22*
X143745200Y-91304800D02*
X143800000Y-91250000D01*
X141260000Y-107440000D02*
X141200000Y-107500000D01*
X141260000Y-102680000D02*
X141260000Y-107440000D01*
X146700000Y-92373998D02*
X146700000Y-101400000D01*
X140341002Y-86015000D02*
X146700000Y-92373998D01*
X136369800Y-86015000D02*
X140341002Y-86015000D01*
X145000001Y-97530001D02*
X143800000Y-96330000D01*
X145000001Y-106299999D02*
X145000001Y-97530001D01*
X143800000Y-107500000D02*
X145000001Y-106299999D01*
D23*
X160640001Y-115740000D02*
X111960000Y-115740000D01*
X111960000Y-111379281D01*
X114874724Y-111379281D01*
X115234912Y-111868948D01*
X115898882Y-112229249D01*
X116620385Y-112453094D01*
X117371695Y-112531880D01*
X118123938Y-112462578D01*
X118848208Y-112247852D01*
X119516670Y-111895955D01*
X119557088Y-111868948D01*
X119917276Y-111379281D01*
X117396000Y-108858005D01*
X114874724Y-111379281D01*
X111960000Y-111379281D01*
X111960000Y-108654095D01*
X113542520Y-108654095D01*
X113611822Y-109406338D01*
X113826548Y-110130608D01*
X114178445Y-110799070D01*
X114205452Y-110839488D01*
X114695119Y-111199676D01*
X117216395Y-108678400D01*
X117575605Y-108678400D01*
X120096881Y-111199676D01*
X120586548Y-110839488D01*
X120946849Y-110175518D01*
X121170694Y-109454015D01*
X121249480Y-108702705D01*
X121180178Y-107950462D01*
X120965452Y-107226192D01*
X120613555Y-106557730D01*
X120586548Y-106517312D01*
X120096881Y-106157124D01*
X117575605Y-108678400D01*
X117216395Y-108678400D01*
X114695119Y-106157124D01*
X114205452Y-106517312D01*
X113845151Y-107181282D01*
X113621306Y-107902785D01*
X113542520Y-108654095D01*
X111960000Y-108654095D01*
X111960000Y-105977519D01*
X114874724Y-105977519D01*
X117396000Y-108498795D01*
X119917276Y-105977519D01*
X119557088Y-105487852D01*
X118893118Y-105127551D01*
X118171615Y-104903706D01*
X117420305Y-104824920D01*
X116668062Y-104894222D01*
X115943792Y-105108948D01*
X115275330Y-105460845D01*
X115234912Y-105487852D01*
X114874724Y-105977519D01*
X111960000Y-105977519D01*
X111960000Y-98532200D01*
X114603428Y-98532200D01*
X114615688Y-98656682D01*
X114651998Y-98776380D01*
X114710963Y-98886694D01*
X114790315Y-98983385D01*
X114887006Y-99062737D01*
X114997320Y-99121702D01*
X115117018Y-99158012D01*
X115241500Y-99170272D01*
X115543250Y-99167200D01*
X115702000Y-99008450D01*
X115702000Y-97934200D01*
X114765250Y-97934200D01*
X114606500Y-98092950D01*
X114603428Y-98532200D01*
X111960000Y-98532200D01*
X111960000Y-97082200D01*
X114603428Y-97082200D01*
X114606500Y-97521450D01*
X114765250Y-97680200D01*
X115702000Y-97680200D01*
X115702000Y-96605950D01*
X115543250Y-96447200D01*
X115241500Y-96444128D01*
X115117018Y-96456388D01*
X114997320Y-96492698D01*
X114887006Y-96551663D01*
X114790315Y-96631015D01*
X114710963Y-96727706D01*
X114651998Y-96838020D01*
X114615688Y-96957718D01*
X114603428Y-97082200D01*
X111960000Y-97082200D01*
X111960000Y-94468200D01*
X114603428Y-94468200D01*
X114615688Y-94592682D01*
X114651998Y-94712380D01*
X114710963Y-94822694D01*
X114790315Y-94919385D01*
X114887006Y-94998737D01*
X114997320Y-95057702D01*
X115117018Y-95094012D01*
X115241500Y-95106272D01*
X115543250Y-95103200D01*
X115702000Y-94944450D01*
X115702000Y-93870200D01*
X114765250Y-93870200D01*
X114606500Y-94028950D01*
X114603428Y-94468200D01*
X111960000Y-94468200D01*
X111960000Y-93018200D01*
X114603428Y-93018200D01*
X114606500Y-93457450D01*
X114765250Y-93616200D01*
X115702000Y-93616200D01*
X115702000Y-92541950D01*
X115956000Y-92541950D01*
X115956000Y-93616200D01*
X115976000Y-93616200D01*
X115976000Y-93870200D01*
X115956000Y-93870200D01*
X115956000Y-94944450D01*
X116114750Y-95103200D01*
X116416500Y-95106272D01*
X116540982Y-95094012D01*
X116660680Y-95057702D01*
X116770994Y-94998737D01*
X116867685Y-94919385D01*
X116933158Y-94839606D01*
X116938538Y-94846162D01*
X117073114Y-94956605D01*
X117226650Y-95038672D01*
X117393246Y-95089208D01*
X117566500Y-95106272D01*
X118241500Y-95106272D01*
X118414754Y-95089208D01*
X118581350Y-95038672D01*
X118734886Y-94956605D01*
X118869462Y-94846162D01*
X118979905Y-94711586D01*
X119005701Y-94663325D01*
X119039344Y-94685805D01*
X119227702Y-94763826D01*
X119427661Y-94803600D01*
X119631539Y-94803600D01*
X119831498Y-94763826D01*
X120019856Y-94685805D01*
X120189374Y-94572537D01*
X120333537Y-94428374D01*
X120446805Y-94258856D01*
X120524826Y-94070498D01*
X120564600Y-93870539D01*
X120564600Y-93666661D01*
X120524826Y-93466702D01*
X120446805Y-93278344D01*
X120360088Y-93148561D01*
X123854820Y-93148561D01*
X123854820Y-93352439D01*
X123894594Y-93552398D01*
X123972615Y-93740756D01*
X124085883Y-93910274D01*
X124230046Y-94054437D01*
X124399564Y-94167705D01*
X124587922Y-94245726D01*
X124787881Y-94285500D01*
X124991759Y-94285500D01*
X125191718Y-94245726D01*
X125380076Y-94167705D01*
X125549594Y-94054437D01*
X125693757Y-93910274D01*
X125807025Y-93740756D01*
X125885046Y-93552398D01*
X125924820Y-93352439D01*
X125924820Y-93148561D01*
X125885046Y-92948602D01*
X125807025Y-92760244D01*
X125693757Y-92590726D01*
X125549594Y-92446563D01*
X125380076Y-92333295D01*
X125191718Y-92255274D01*
X124991759Y-92215500D01*
X124787881Y-92215500D01*
X124587922Y-92255274D01*
X124399564Y-92333295D01*
X124230046Y-92446563D01*
X124085883Y-92590726D01*
X123972615Y-92760244D01*
X123894594Y-92948602D01*
X123854820Y-93148561D01*
X120360088Y-93148561D01*
X120333537Y-93108826D01*
X120189374Y-92964663D01*
X120019856Y-92851395D01*
X119831498Y-92773374D01*
X119631539Y-92733600D01*
X119427661Y-92733600D01*
X119227702Y-92773374D01*
X119039344Y-92851395D01*
X119029160Y-92858200D01*
X119024476Y-92858200D01*
X118979905Y-92774814D01*
X118869462Y-92640238D01*
X118789000Y-92574205D01*
X118789000Y-91899978D01*
X119926980Y-90761999D01*
X138250421Y-90761999D01*
X139875000Y-92386579D01*
X139875000Y-92656411D01*
X139918478Y-92874989D01*
X128435305Y-92874989D01*
X128399210Y-92871434D01*
X128363115Y-92874989D01*
X128363106Y-92874989D01*
X128255126Y-92885624D01*
X128116578Y-92927652D01*
X127988891Y-92995902D01*
X127876973Y-93087751D01*
X127853957Y-93115796D01*
X127754753Y-93215000D01*
X127657261Y-93215000D01*
X127457302Y-93254774D01*
X127268944Y-93332795D01*
X127099426Y-93446063D01*
X126955263Y-93590226D01*
X126841995Y-93759744D01*
X126763974Y-93948102D01*
X126724200Y-94148061D01*
X126724200Y-94351939D01*
X126763974Y-94551898D01*
X126841995Y-94740256D01*
X126848506Y-94750000D01*
X126841995Y-94759744D01*
X126763974Y-94948102D01*
X126724200Y-95148061D01*
X126724200Y-95351939D01*
X126763974Y-95551898D01*
X126841995Y-95740256D01*
X126851112Y-95753900D01*
X126841995Y-95767544D01*
X126763974Y-95955902D01*
X126724200Y-96155861D01*
X126724200Y-96359739D01*
X126763974Y-96559698D01*
X126841995Y-96748056D01*
X126853851Y-96765800D01*
X126841995Y-96783544D01*
X126763974Y-96971902D01*
X126724200Y-97171861D01*
X126724200Y-97375739D01*
X126763974Y-97575698D01*
X126841995Y-97764056D01*
X126955263Y-97933574D01*
X127099426Y-98077737D01*
X127268944Y-98191005D01*
X127457302Y-98269026D01*
X127657261Y-98308800D01*
X127861139Y-98308800D01*
X128061098Y-98269026D01*
X128249456Y-98191005D01*
X128418974Y-98077737D01*
X128487911Y-98008800D01*
X128743655Y-98008800D01*
X129229056Y-98494202D01*
X129252073Y-98522248D01*
X129363991Y-98614097D01*
X129438996Y-98654188D01*
X129479428Y-98675799D01*
X129491678Y-98682347D01*
X129630226Y-98724375D01*
X129738206Y-98735010D01*
X129738215Y-98735010D01*
X129774310Y-98738565D01*
X129810407Y-98735010D01*
X138815564Y-98735010D01*
X139909699Y-99829146D01*
X139875000Y-100003589D01*
X139875000Y-100276411D01*
X139910524Y-100455001D01*
X138803465Y-100455001D01*
X138759998Y-100450720D01*
X138716532Y-100455001D01*
X138716522Y-100455001D01*
X138586509Y-100467806D01*
X138419686Y-100518412D01*
X138265940Y-100600590D01*
X138265938Y-100600591D01*
X138265939Y-100600591D01*
X138164952Y-100683469D01*
X138164950Y-100683471D01*
X138131182Y-100711184D01*
X138103469Y-100744952D01*
X136617622Y-102230800D01*
X121978979Y-102230800D01*
X118789000Y-99040822D01*
X118789000Y-98976195D01*
X118869462Y-98910162D01*
X118979905Y-98775586D01*
X118999017Y-98739831D01*
X119013944Y-98749805D01*
X119202302Y-98827826D01*
X119402261Y-98867600D01*
X119606139Y-98867600D01*
X119806098Y-98827826D01*
X119994456Y-98749805D01*
X120163974Y-98636537D01*
X120308137Y-98492374D01*
X120421405Y-98322856D01*
X120469824Y-98205961D01*
X123854820Y-98205961D01*
X123854820Y-98409839D01*
X123894594Y-98609798D01*
X123972615Y-98798156D01*
X124085883Y-98967674D01*
X124230046Y-99111837D01*
X124399564Y-99225105D01*
X124587922Y-99303126D01*
X124787881Y-99342900D01*
X124991759Y-99342900D01*
X125191718Y-99303126D01*
X125380076Y-99225105D01*
X125549594Y-99111837D01*
X125693757Y-98967674D01*
X125807025Y-98798156D01*
X125885046Y-98609798D01*
X125924820Y-98409839D01*
X125924820Y-98205961D01*
X125885046Y-98006002D01*
X125807025Y-97817644D01*
X125693757Y-97648126D01*
X125549594Y-97503963D01*
X125380076Y-97390695D01*
X125191718Y-97312674D01*
X124991759Y-97272900D01*
X124787881Y-97272900D01*
X124587922Y-97312674D01*
X124399564Y-97390695D01*
X124230046Y-97503963D01*
X124085883Y-97648126D01*
X123972615Y-97817644D01*
X123894594Y-98006002D01*
X123854820Y-98205961D01*
X120469824Y-98205961D01*
X120499426Y-98134498D01*
X120539200Y-97934539D01*
X120539200Y-97730661D01*
X120499426Y-97530702D01*
X120421405Y-97342344D01*
X120308137Y-97172826D01*
X120163974Y-97028663D01*
X119994456Y-96915395D01*
X119806098Y-96837374D01*
X119606139Y-96797600D01*
X119402261Y-96797600D01*
X119202302Y-96837374D01*
X119019589Y-96913057D01*
X118979905Y-96838814D01*
X118869462Y-96704238D01*
X118734886Y-96593795D01*
X118581350Y-96511728D01*
X118414754Y-96461192D01*
X118241500Y-96444128D01*
X117566500Y-96444128D01*
X117393246Y-96461192D01*
X117226650Y-96511728D01*
X117073114Y-96593795D01*
X116938538Y-96704238D01*
X116933158Y-96710794D01*
X116867685Y-96631015D01*
X116770994Y-96551663D01*
X116660680Y-96492698D01*
X116540982Y-96456388D01*
X116416500Y-96444128D01*
X116114750Y-96447200D01*
X115956000Y-96605950D01*
X115956000Y-97680200D01*
X115976000Y-97680200D01*
X115976000Y-97934200D01*
X115956000Y-97934200D01*
X115956000Y-99008450D01*
X116114750Y-99167200D01*
X116416500Y-99170272D01*
X116540982Y-99158012D01*
X116660680Y-99121702D01*
X116770994Y-99062737D01*
X116867685Y-98983385D01*
X116933158Y-98903606D01*
X116938538Y-98910162D01*
X117019000Y-98976195D01*
X117019000Y-99363931D01*
X117014719Y-99407400D01*
X117019000Y-99450869D01*
X117019000Y-99450876D01*
X117031805Y-99580889D01*
X117082411Y-99747712D01*
X117164589Y-99901458D01*
X117275183Y-100036217D01*
X117308956Y-100063934D01*
X120955870Y-103710849D01*
X120983583Y-103744617D01*
X121017351Y-103772330D01*
X121017353Y-103772332D01*
X121118341Y-103855211D01*
X121272086Y-103937389D01*
X121438910Y-103987995D01*
X121568923Y-104000800D01*
X121568931Y-104000800D01*
X121612400Y-104005081D01*
X121655869Y-104000800D01*
X136940731Y-104000800D01*
X136984200Y-104005081D01*
X137027669Y-104000800D01*
X137027677Y-104000800D01*
X137157690Y-103987995D01*
X137324513Y-103937389D01*
X137478259Y-103855211D01*
X137613017Y-103744617D01*
X137640734Y-103710844D01*
X139126578Y-102225001D01*
X139871928Y-102225001D01*
X139871928Y-103430000D01*
X139884188Y-103554482D01*
X139920498Y-103674180D01*
X139979463Y-103784494D01*
X140058815Y-103881185D01*
X140155506Y-103960537D01*
X140265820Y-104019502D01*
X140375000Y-104052621D01*
X140375001Y-106348315D01*
X140256613Y-106411595D01*
X140122038Y-106522038D01*
X140011595Y-106656613D01*
X139929528Y-106810149D01*
X139878992Y-106976745D01*
X139861928Y-107149999D01*
X139861928Y-107850001D01*
X139878992Y-108023255D01*
X139929528Y-108189851D01*
X140011595Y-108343387D01*
X140122038Y-108477962D01*
X140148891Y-108500000D01*
X140122038Y-108522038D01*
X140011595Y-108656613D01*
X139929528Y-108810149D01*
X139878992Y-108976745D01*
X139861928Y-109149999D01*
X139861928Y-109850001D01*
X139878992Y-110023255D01*
X139929528Y-110189851D01*
X140011595Y-110343387D01*
X140122038Y-110477962D01*
X140256613Y-110588405D01*
X140410149Y-110670472D01*
X140576745Y-110721008D01*
X140749999Y-110738072D01*
X141554814Y-110738072D01*
X141422038Y-110847038D01*
X141311595Y-110981614D01*
X141229528Y-111135150D01*
X141178992Y-111301746D01*
X141161928Y-111475000D01*
X141161928Y-112725000D01*
X141178992Y-112898254D01*
X141229528Y-113064850D01*
X141311595Y-113218386D01*
X141422038Y-113352962D01*
X141556614Y-113463405D01*
X141710150Y-113545472D01*
X141876746Y-113596008D01*
X142050000Y-113613072D01*
X142975000Y-113613072D01*
X143148254Y-113596008D01*
X143314850Y-113545472D01*
X143468386Y-113463405D01*
X143602962Y-113352962D01*
X143713405Y-113218386D01*
X143795472Y-113064850D01*
X143822727Y-112975000D01*
X144136928Y-112975000D01*
X144149188Y-113099482D01*
X144185498Y-113219180D01*
X144244463Y-113329494D01*
X144323815Y-113426185D01*
X144420506Y-113505537D01*
X144530820Y-113564502D01*
X144650518Y-113600812D01*
X144775000Y-113613072D01*
X145201750Y-113610000D01*
X145360500Y-113451250D01*
X145360500Y-112227000D01*
X145614500Y-112227000D01*
X145614500Y-113451250D01*
X145773250Y-113610000D01*
X146200000Y-113613072D01*
X146324482Y-113600812D01*
X146444180Y-113564502D01*
X146554494Y-113505537D01*
X146651185Y-113426185D01*
X146730537Y-113329494D01*
X146789502Y-113219180D01*
X146825812Y-113099482D01*
X146838072Y-112975000D01*
X146835000Y-112385750D01*
X146676250Y-112227000D01*
X145614500Y-112227000D01*
X145360500Y-112227000D01*
X144298750Y-112227000D01*
X144140000Y-112385750D01*
X144136928Y-112975000D01*
X143822727Y-112975000D01*
X143846008Y-112898254D01*
X143863072Y-112725000D01*
X143863072Y-111475000D01*
X143846008Y-111301746D01*
X143795472Y-111135150D01*
X143713405Y-110981614D01*
X143602962Y-110847038D01*
X143470186Y-110738072D01*
X144250001Y-110738072D01*
X144383375Y-110724936D01*
X144323815Y-110773815D01*
X144244463Y-110870506D01*
X144185498Y-110980820D01*
X144149188Y-111100518D01*
X144136928Y-111225000D01*
X144140000Y-111814250D01*
X144298750Y-111973000D01*
X145360500Y-111973000D01*
X145360500Y-110748750D01*
X145614500Y-110748750D01*
X145614500Y-111973000D01*
X146676250Y-111973000D01*
X146835000Y-111814250D01*
X146838072Y-111225000D01*
X146825812Y-111100518D01*
X146789502Y-110980820D01*
X146730537Y-110870506D01*
X146651185Y-110773815D01*
X146554494Y-110694463D01*
X146444180Y-110635498D01*
X146324482Y-110599188D01*
X146200000Y-110586928D01*
X145773250Y-110590000D01*
X145614500Y-110748750D01*
X145360500Y-110748750D01*
X145201750Y-110590000D01*
X144775000Y-110586928D01*
X144739634Y-110590411D01*
X144743387Y-110588405D01*
X144877962Y-110477962D01*
X144988405Y-110343387D01*
X145070472Y-110189851D01*
X145121008Y-110023255D01*
X145138072Y-109850001D01*
X145138072Y-109149999D01*
X145121008Y-108976745D01*
X145070472Y-108810149D01*
X144988405Y-108656613D01*
X144877962Y-108522038D01*
X144851109Y-108500000D01*
X144877962Y-108477962D01*
X144988405Y-108343387D01*
X145070472Y-108189851D01*
X145121008Y-108023255D01*
X145138072Y-107850001D01*
X145138072Y-107413507D01*
X145595051Y-106956528D01*
X145628818Y-106928816D01*
X145656598Y-106894967D01*
X145739412Y-106794058D01*
X145821590Y-106640313D01*
X145872196Y-106473489D01*
X145879840Y-106395877D01*
X145885001Y-106343476D01*
X145885001Y-106343468D01*
X145889282Y-106299999D01*
X145885001Y-106256530D01*
X145885001Y-106202662D01*
X145996002Y-106313663D01*
X146280169Y-106503537D01*
X146595919Y-106634325D01*
X146931117Y-106701000D01*
X147272883Y-106701000D01*
X147608081Y-106634325D01*
X147923831Y-106503537D01*
X148207998Y-106313663D01*
X148449663Y-106071998D01*
X148639537Y-105787831D01*
X148770325Y-105472081D01*
X148837000Y-105136883D01*
X148837000Y-104795117D01*
X148774062Y-104478706D01*
X149079489Y-104682786D01*
X149490782Y-104853149D01*
X149927409Y-104940000D01*
X150372591Y-104940000D01*
X150809218Y-104853149D01*
X150916522Y-104808702D01*
X153906903Y-104808702D01*
X153978486Y-105052671D01*
X154233996Y-105173571D01*
X154508184Y-105242300D01*
X154790512Y-105256217D01*
X155070130Y-105214787D01*
X155336292Y-105119603D01*
X155461514Y-105052671D01*
X155533097Y-104808702D01*
X155936903Y-104808702D01*
X156008486Y-105052671D01*
X156263996Y-105173571D01*
X156538184Y-105242300D01*
X156820512Y-105256217D01*
X157100130Y-105214787D01*
X157366292Y-105119603D01*
X157491514Y-105052671D01*
X157563097Y-104808702D01*
X156750000Y-103995605D01*
X155936903Y-104808702D01*
X155533097Y-104808702D01*
X154720000Y-103995605D01*
X153906903Y-104808702D01*
X150916522Y-104808702D01*
X151220511Y-104682786D01*
X151590666Y-104435456D01*
X151905456Y-104120666D01*
X152061912Y-103886512D01*
X153279783Y-103886512D01*
X153321213Y-104166130D01*
X153416397Y-104432292D01*
X153483329Y-104557514D01*
X153727298Y-104629097D01*
X154540395Y-103816000D01*
X154899605Y-103816000D01*
X155407706Y-104324101D01*
X155446397Y-104432292D01*
X155513329Y-104557514D01*
X155694184Y-104610579D01*
X155712702Y-104629097D01*
X155735000Y-104622555D01*
X155757298Y-104629097D01*
X155775816Y-104610579D01*
X155956671Y-104557514D01*
X156071446Y-104314949D01*
X156570395Y-103816000D01*
X156929605Y-103816000D01*
X157742702Y-104629097D01*
X157986671Y-104557514D01*
X158107571Y-104302004D01*
X158176300Y-104027816D01*
X158190217Y-103745488D01*
X158148787Y-103465870D01*
X158053603Y-103199708D01*
X157986671Y-103074486D01*
X157742702Y-103002903D01*
X156929605Y-103816000D01*
X156570395Y-103816000D01*
X156062294Y-103307899D01*
X156023603Y-103199708D01*
X155956671Y-103074486D01*
X155775816Y-103021421D01*
X155757298Y-103002903D01*
X155735000Y-103009445D01*
X155712702Y-103002903D01*
X155694184Y-103021421D01*
X155513329Y-103074486D01*
X155398554Y-103317051D01*
X154899605Y-103816000D01*
X154540395Y-103816000D01*
X153727298Y-103002903D01*
X153483329Y-103074486D01*
X153362429Y-103329996D01*
X153293700Y-103604184D01*
X153279783Y-103886512D01*
X152061912Y-103886512D01*
X152152786Y-103750511D01*
X152323149Y-103339218D01*
X152410000Y-102902591D01*
X152410000Y-102823298D01*
X153906903Y-102823298D01*
X154720000Y-103636395D01*
X155533097Y-102823298D01*
X155936903Y-102823298D01*
X156750000Y-103636395D01*
X157563097Y-102823298D01*
X157491514Y-102579329D01*
X157236004Y-102458429D01*
X156961816Y-102389700D01*
X156679488Y-102375783D01*
X156399870Y-102417213D01*
X156133708Y-102512397D01*
X156008486Y-102579329D01*
X155936903Y-102823298D01*
X155533097Y-102823298D01*
X155461514Y-102579329D01*
X155206004Y-102458429D01*
X154931816Y-102389700D01*
X154649488Y-102375783D01*
X154369870Y-102417213D01*
X154103708Y-102512397D01*
X153978486Y-102579329D01*
X153906903Y-102823298D01*
X152410000Y-102823298D01*
X152410000Y-102457409D01*
X152323149Y-102020782D01*
X152152786Y-101609489D01*
X151905456Y-101239334D01*
X151590666Y-100924544D01*
X151220511Y-100677214D01*
X150809218Y-100506851D01*
X150372591Y-100420000D01*
X149927409Y-100420000D01*
X149490782Y-100506851D01*
X149079489Y-100677214D01*
X148709334Y-100924544D01*
X148394544Y-101239334D01*
X148147214Y-101609489D01*
X147976851Y-102020782D01*
X147890000Y-102457409D01*
X147890000Y-102902591D01*
X147976851Y-103339218D01*
X148048254Y-103511599D01*
X147923831Y-103428463D01*
X147608081Y-103297675D01*
X147272883Y-103231000D01*
X146931117Y-103231000D01*
X146595919Y-103297675D01*
X146280169Y-103428463D01*
X145996002Y-103618337D01*
X145885001Y-103729338D01*
X145885001Y-102043219D01*
X145896063Y-102059774D01*
X146040226Y-102203937D01*
X146209744Y-102317205D01*
X146398102Y-102395226D01*
X146598061Y-102435000D01*
X146801939Y-102435000D01*
X147001898Y-102395226D01*
X147190256Y-102317205D01*
X147359774Y-102203937D01*
X147503937Y-102059774D01*
X147617205Y-101890256D01*
X147695226Y-101701898D01*
X147735000Y-101501939D01*
X147735000Y-101298061D01*
X147695226Y-101098102D01*
X147617205Y-100909744D01*
X147585000Y-100861546D01*
X147585000Y-92417463D01*
X147589281Y-92373997D01*
X147585000Y-92330531D01*
X147585000Y-92330521D01*
X147572195Y-92200508D01*
X147521589Y-92033685D01*
X147439411Y-91879939D01*
X147387459Y-91816636D01*
X147356532Y-91778951D01*
X147356530Y-91778949D01*
X147328817Y-91745181D01*
X147295051Y-91717470D01*
X146375387Y-90797806D01*
X146593919Y-90888325D01*
X146929117Y-90955000D01*
X147270883Y-90955000D01*
X147606081Y-90888325D01*
X147921831Y-90757537D01*
X147947030Y-90740699D01*
X147890000Y-91027409D01*
X147890000Y-91472591D01*
X147976851Y-91909218D01*
X148147214Y-92320511D01*
X148394544Y-92690666D01*
X148709334Y-93005456D01*
X149079489Y-93252786D01*
X149490782Y-93423149D01*
X149927409Y-93510000D01*
X150372591Y-93510000D01*
X150809218Y-93423149D01*
X151220511Y-93252786D01*
X151590666Y-93005456D01*
X151905456Y-92690666D01*
X152152786Y-92320511D01*
X152323149Y-91909218D01*
X152410000Y-91472591D01*
X152410000Y-91358702D01*
X153906903Y-91358702D01*
X153978486Y-91602671D01*
X154233996Y-91723571D01*
X154508184Y-91792300D01*
X154790512Y-91806217D01*
X155070130Y-91764787D01*
X155336292Y-91669603D01*
X155461514Y-91602671D01*
X155533097Y-91358702D01*
X155936903Y-91358702D01*
X156008486Y-91602671D01*
X156263996Y-91723571D01*
X156538184Y-91792300D01*
X156820512Y-91806217D01*
X157100130Y-91764787D01*
X157366292Y-91669603D01*
X157491514Y-91602671D01*
X157563097Y-91358702D01*
X156750000Y-90545605D01*
X155936903Y-91358702D01*
X155533097Y-91358702D01*
X154720000Y-90545605D01*
X153906903Y-91358702D01*
X152410000Y-91358702D01*
X152410000Y-91027409D01*
X152323149Y-90590782D01*
X152259249Y-90436512D01*
X153279783Y-90436512D01*
X153321213Y-90716130D01*
X153416397Y-90982292D01*
X153483329Y-91107514D01*
X153727298Y-91179097D01*
X154540395Y-90366000D01*
X154899605Y-90366000D01*
X155407706Y-90874101D01*
X155446397Y-90982292D01*
X155513329Y-91107514D01*
X155694184Y-91160579D01*
X155712702Y-91179097D01*
X155735000Y-91172555D01*
X155757298Y-91179097D01*
X155775816Y-91160579D01*
X155956671Y-91107514D01*
X156071446Y-90864949D01*
X156570395Y-90366000D01*
X156929605Y-90366000D01*
X157742702Y-91179097D01*
X157986671Y-91107514D01*
X158107571Y-90852004D01*
X158176300Y-90577816D01*
X158190217Y-90295488D01*
X158148787Y-90015870D01*
X158053603Y-89749708D01*
X157986671Y-89624486D01*
X157742702Y-89552903D01*
X156929605Y-90366000D01*
X156570395Y-90366000D01*
X156062294Y-89857899D01*
X156023603Y-89749708D01*
X155956671Y-89624486D01*
X155775816Y-89571421D01*
X155757298Y-89552903D01*
X155735000Y-89559445D01*
X155712702Y-89552903D01*
X155694184Y-89571421D01*
X155513329Y-89624486D01*
X155398554Y-89867051D01*
X154899605Y-90366000D01*
X154540395Y-90366000D01*
X153727298Y-89552903D01*
X153483329Y-89624486D01*
X153362429Y-89879996D01*
X153293700Y-90154184D01*
X153279783Y-90436512D01*
X152259249Y-90436512D01*
X152152786Y-90179489D01*
X151905456Y-89809334D01*
X151590666Y-89494544D01*
X151409209Y-89373298D01*
X153906903Y-89373298D01*
X154720000Y-90186395D01*
X155533097Y-89373298D01*
X155936903Y-89373298D01*
X156750000Y-90186395D01*
X157563097Y-89373298D01*
X157491514Y-89129329D01*
X157236004Y-89008429D01*
X156961816Y-88939700D01*
X156679488Y-88925783D01*
X156399870Y-88967213D01*
X156133708Y-89062397D01*
X156008486Y-89129329D01*
X155936903Y-89373298D01*
X155533097Y-89373298D01*
X155461514Y-89129329D01*
X155206004Y-89008429D01*
X154931816Y-88939700D01*
X154649488Y-88925783D01*
X154369870Y-88967213D01*
X154103708Y-89062397D01*
X153978486Y-89129329D01*
X153906903Y-89373298D01*
X151409209Y-89373298D01*
X151220511Y-89247214D01*
X150809218Y-89076851D01*
X150372591Y-88990000D01*
X149927409Y-88990000D01*
X149490782Y-89076851D01*
X149079489Y-89247214D01*
X148830482Y-89413595D01*
X148835000Y-89390883D01*
X148835000Y-89049117D01*
X148768325Y-88713919D01*
X148637537Y-88398169D01*
X148447663Y-88114002D01*
X148205998Y-87872337D01*
X147921831Y-87682463D01*
X147606081Y-87551675D01*
X147270883Y-87485000D01*
X146929117Y-87485000D01*
X146593919Y-87551675D01*
X146278169Y-87682463D01*
X145994002Y-87872337D01*
X145752337Y-88114002D01*
X145562463Y-88398169D01*
X145431675Y-88713919D01*
X145365000Y-89049117D01*
X145365000Y-89390883D01*
X145431675Y-89726081D01*
X145522194Y-89944613D01*
X140997534Y-85419954D01*
X140969819Y-85386183D01*
X140835061Y-85275589D01*
X140681315Y-85193411D01*
X140514492Y-85142805D01*
X140384479Y-85130000D01*
X140384471Y-85130000D01*
X140341002Y-85125719D01*
X140297533Y-85130000D01*
X133930535Y-85130000D01*
X133909989Y-85026709D01*
X133718519Y-84564459D01*
X133440547Y-84148444D01*
X133086756Y-83794653D01*
X132670741Y-83516681D01*
X132576391Y-83477600D01*
X133799346Y-83477600D01*
X133847544Y-83509805D01*
X134035902Y-83587826D01*
X134235861Y-83627600D01*
X134439739Y-83627600D01*
X134639698Y-83587826D01*
X134828056Y-83509805D01*
X134997574Y-83396537D01*
X135141737Y-83252374D01*
X135255005Y-83082856D01*
X135333026Y-82894498D01*
X135372800Y-82694539D01*
X135372800Y-82490661D01*
X135333026Y-82290702D01*
X135255005Y-82102344D01*
X135141737Y-81932826D01*
X134997574Y-81788663D01*
X134828056Y-81675395D01*
X134639698Y-81597374D01*
X134439739Y-81557600D01*
X134235861Y-81557600D01*
X134035902Y-81597374D01*
X133847544Y-81675395D01*
X133799346Y-81707600D01*
X132576391Y-81707600D01*
X132670741Y-81668519D01*
X133086756Y-81390547D01*
X133440547Y-81036756D01*
X133718519Y-80620741D01*
X133909989Y-80158491D01*
X134007600Y-79667768D01*
X134007600Y-79167432D01*
X133909989Y-78676709D01*
X133718519Y-78214459D01*
X133440547Y-77798444D01*
X133086756Y-77444653D01*
X132670741Y-77166681D01*
X132208491Y-76975211D01*
X131717768Y-76877600D01*
X131217432Y-76877600D01*
X130726709Y-76975211D01*
X130264459Y-77166681D01*
X129848444Y-77444653D01*
X129494653Y-77798444D01*
X129216681Y-78214459D01*
X129025211Y-78676709D01*
X128927600Y-79167432D01*
X128927600Y-79667768D01*
X129025211Y-80158491D01*
X129088088Y-80310291D01*
X128996446Y-80272331D01*
X128530260Y-80179600D01*
X128054940Y-80179600D01*
X127588754Y-80272331D01*
X127497112Y-80310291D01*
X127559989Y-80158491D01*
X127657600Y-79667768D01*
X127657600Y-79167432D01*
X127559989Y-78676709D01*
X127368519Y-78214459D01*
X127090547Y-77798444D01*
X126736756Y-77444653D01*
X126320741Y-77166681D01*
X125858491Y-76975211D01*
X125367768Y-76877600D01*
X124867432Y-76877600D01*
X124376709Y-76975211D01*
X123914459Y-77166681D01*
X123498444Y-77444653D01*
X123144653Y-77798444D01*
X122866681Y-78214459D01*
X122675211Y-78676709D01*
X122577600Y-79167432D01*
X122577600Y-79667768D01*
X122675211Y-80158491D01*
X122866681Y-80620741D01*
X123144653Y-81036756D01*
X123498444Y-81390547D01*
X123914459Y-81668519D01*
X124376709Y-81859989D01*
X124867432Y-81957600D01*
X125367768Y-81957600D01*
X125858491Y-81859989D01*
X126010291Y-81797112D01*
X125972331Y-81888754D01*
X125879600Y-82354940D01*
X125879600Y-82830260D01*
X125972331Y-83296446D01*
X126010291Y-83388088D01*
X125858491Y-83325211D01*
X125367768Y-83227600D01*
X124867432Y-83227600D01*
X124376709Y-83325211D01*
X123914459Y-83516681D01*
X123498444Y-83794653D01*
X123144653Y-84148444D01*
X122866681Y-84564459D01*
X122675211Y-85026709D01*
X122577600Y-85517432D01*
X122577600Y-86017768D01*
X122675211Y-86508491D01*
X122866681Y-86970741D01*
X123144653Y-87386756D01*
X123498444Y-87740547D01*
X123914459Y-88018519D01*
X124376709Y-88209989D01*
X124867432Y-88307600D01*
X125367768Y-88307600D01*
X125858491Y-88209989D01*
X126320741Y-88018519D01*
X126736756Y-87740547D01*
X127090547Y-87386756D01*
X127368519Y-86970741D01*
X127559989Y-86508491D01*
X127657600Y-86017768D01*
X127657600Y-85517432D01*
X127559989Y-85026709D01*
X127497112Y-84874909D01*
X127588754Y-84912869D01*
X128054940Y-85005600D01*
X128530260Y-85005600D01*
X128996446Y-84912869D01*
X129088088Y-84874909D01*
X129025211Y-85026709D01*
X128927600Y-85517432D01*
X128927600Y-86017768D01*
X129025211Y-86508491D01*
X129216681Y-86970741D01*
X129494653Y-87386756D01*
X129848444Y-87740547D01*
X130264459Y-88018519D01*
X130726709Y-88209989D01*
X131217432Y-88307600D01*
X131717768Y-88307600D01*
X132208491Y-88209989D01*
X132670741Y-88018519D01*
X133086756Y-87740547D01*
X133440547Y-87386756D01*
X133718519Y-86970741D01*
X133747821Y-86900000D01*
X139974424Y-86900000D01*
X143115840Y-90041416D01*
X142917114Y-90174201D01*
X142724201Y-90367114D01*
X142572629Y-90593957D01*
X142468225Y-90846011D01*
X142415000Y-91113589D01*
X142415000Y-91386411D01*
X142468225Y-91653989D01*
X142518703Y-91775853D01*
X142464631Y-91829924D01*
X142335799Y-91637114D01*
X142142886Y-91444201D01*
X141916043Y-91292629D01*
X141663989Y-91188225D01*
X141396411Y-91135000D01*
X141126579Y-91135000D01*
X139273533Y-89281955D01*
X139245816Y-89248182D01*
X139111058Y-89137588D01*
X138957312Y-89055410D01*
X138790489Y-89004804D01*
X138660476Y-88991999D01*
X138660468Y-88991999D01*
X138616999Y-88987718D01*
X138573530Y-88991999D01*
X119603870Y-88991999D01*
X119560401Y-88987718D01*
X119516932Y-88991999D01*
X119516924Y-88991999D01*
X119386911Y-89004804D01*
X119220088Y-89055410D01*
X119081794Y-89129329D01*
X119066342Y-89137588D01*
X118965354Y-89220467D01*
X118965352Y-89220469D01*
X118931584Y-89248182D01*
X118903871Y-89281950D01*
X117308956Y-90876866D01*
X117275183Y-90904583D01*
X117164589Y-91039342D01*
X117082411Y-91193088D01*
X117052215Y-91292629D01*
X117032172Y-91358702D01*
X117031805Y-91359911D01*
X117019000Y-91489924D01*
X117019000Y-91489931D01*
X117014719Y-91533400D01*
X117019000Y-91576869D01*
X117019000Y-92574205D01*
X116938538Y-92640238D01*
X116933158Y-92646794D01*
X116867685Y-92567015D01*
X116770994Y-92487663D01*
X116660680Y-92428698D01*
X116540982Y-92392388D01*
X116416500Y-92380128D01*
X116114750Y-92383200D01*
X115956000Y-92541950D01*
X115702000Y-92541950D01*
X115543250Y-92383200D01*
X115241500Y-92380128D01*
X115117018Y-92392388D01*
X114997320Y-92428698D01*
X114887006Y-92487663D01*
X114790315Y-92567015D01*
X114710963Y-92663706D01*
X114651998Y-92774020D01*
X114615688Y-92893718D01*
X114603428Y-93018200D01*
X111960000Y-93018200D01*
X111960000Y-85572881D01*
X114874724Y-85572881D01*
X115234912Y-86062548D01*
X115898882Y-86422849D01*
X116620385Y-86646694D01*
X117371695Y-86725480D01*
X118123938Y-86656178D01*
X118848208Y-86441452D01*
X119516670Y-86089555D01*
X119557088Y-86062548D01*
X119917276Y-85572881D01*
X117396000Y-83051605D01*
X114874724Y-85572881D01*
X111960000Y-85572881D01*
X111960000Y-82847695D01*
X113542520Y-82847695D01*
X113611822Y-83599938D01*
X113826548Y-84324208D01*
X114178445Y-84992670D01*
X114205452Y-85033088D01*
X114695119Y-85393276D01*
X117216395Y-82872000D01*
X117575605Y-82872000D01*
X120096881Y-85393276D01*
X120586548Y-85033088D01*
X120946849Y-84369118D01*
X121170694Y-83647615D01*
X121249480Y-82896305D01*
X121180178Y-82144062D01*
X120965452Y-81419792D01*
X120613555Y-80751330D01*
X120586548Y-80710912D01*
X120096881Y-80350724D01*
X117575605Y-82872000D01*
X117216395Y-82872000D01*
X114695119Y-80350724D01*
X114205452Y-80710912D01*
X113845151Y-81374882D01*
X113621306Y-82096385D01*
X113542520Y-82847695D01*
X111960000Y-82847695D01*
X111960000Y-80171119D01*
X114874724Y-80171119D01*
X117396000Y-82692395D01*
X119917276Y-80171119D01*
X119557088Y-79681452D01*
X118893118Y-79321151D01*
X118171615Y-79097306D01*
X117420305Y-79018520D01*
X116668062Y-79087822D01*
X115943792Y-79302548D01*
X115275330Y-79654445D01*
X115234912Y-79681452D01*
X114874724Y-80171119D01*
X111960000Y-80171119D01*
X111960000Y-76060000D01*
X160640000Y-76060000D01*
X160640001Y-115740000D01*
G04 #@! TA.AperFunction,Conductor*
D24*
G36*
X160640001Y-115740000D02*
G01*
X111960000Y-115740000D01*
X111960000Y-111379281D01*
X114874724Y-111379281D01*
X115234912Y-111868948D01*
X115898882Y-112229249D01*
X116620385Y-112453094D01*
X117371695Y-112531880D01*
X118123938Y-112462578D01*
X118848208Y-112247852D01*
X119516670Y-111895955D01*
X119557088Y-111868948D01*
X119917276Y-111379281D01*
X117396000Y-108858005D01*
X114874724Y-111379281D01*
X111960000Y-111379281D01*
X111960000Y-108654095D01*
X113542520Y-108654095D01*
X113611822Y-109406338D01*
X113826548Y-110130608D01*
X114178445Y-110799070D01*
X114205452Y-110839488D01*
X114695119Y-111199676D01*
X117216395Y-108678400D01*
X117575605Y-108678400D01*
X120096881Y-111199676D01*
X120586548Y-110839488D01*
X120946849Y-110175518D01*
X121170694Y-109454015D01*
X121249480Y-108702705D01*
X121180178Y-107950462D01*
X120965452Y-107226192D01*
X120613555Y-106557730D01*
X120586548Y-106517312D01*
X120096881Y-106157124D01*
X117575605Y-108678400D01*
X117216395Y-108678400D01*
X114695119Y-106157124D01*
X114205452Y-106517312D01*
X113845151Y-107181282D01*
X113621306Y-107902785D01*
X113542520Y-108654095D01*
X111960000Y-108654095D01*
X111960000Y-105977519D01*
X114874724Y-105977519D01*
X117396000Y-108498795D01*
X119917276Y-105977519D01*
X119557088Y-105487852D01*
X118893118Y-105127551D01*
X118171615Y-104903706D01*
X117420305Y-104824920D01*
X116668062Y-104894222D01*
X115943792Y-105108948D01*
X115275330Y-105460845D01*
X115234912Y-105487852D01*
X114874724Y-105977519D01*
X111960000Y-105977519D01*
X111960000Y-98532200D01*
X114603428Y-98532200D01*
X114615688Y-98656682D01*
X114651998Y-98776380D01*
X114710963Y-98886694D01*
X114790315Y-98983385D01*
X114887006Y-99062737D01*
X114997320Y-99121702D01*
X115117018Y-99158012D01*
X115241500Y-99170272D01*
X115543250Y-99167200D01*
X115702000Y-99008450D01*
X115702000Y-97934200D01*
X114765250Y-97934200D01*
X114606500Y-98092950D01*
X114603428Y-98532200D01*
X111960000Y-98532200D01*
X111960000Y-97082200D01*
X114603428Y-97082200D01*
X114606500Y-97521450D01*
X114765250Y-97680200D01*
X115702000Y-97680200D01*
X115702000Y-96605950D01*
X115543250Y-96447200D01*
X115241500Y-96444128D01*
X115117018Y-96456388D01*
X114997320Y-96492698D01*
X114887006Y-96551663D01*
X114790315Y-96631015D01*
X114710963Y-96727706D01*
X114651998Y-96838020D01*
X114615688Y-96957718D01*
X114603428Y-97082200D01*
X111960000Y-97082200D01*
X111960000Y-94468200D01*
X114603428Y-94468200D01*
X114615688Y-94592682D01*
X114651998Y-94712380D01*
X114710963Y-94822694D01*
X114790315Y-94919385D01*
X114887006Y-94998737D01*
X114997320Y-95057702D01*
X115117018Y-95094012D01*
X115241500Y-95106272D01*
X115543250Y-95103200D01*
X115702000Y-94944450D01*
X115702000Y-93870200D01*
X114765250Y-93870200D01*
X114606500Y-94028950D01*
X114603428Y-94468200D01*
X111960000Y-94468200D01*
X111960000Y-93018200D01*
X114603428Y-93018200D01*
X114606500Y-93457450D01*
X114765250Y-93616200D01*
X115702000Y-93616200D01*
X115702000Y-92541950D01*
X115956000Y-92541950D01*
X115956000Y-93616200D01*
X115976000Y-93616200D01*
X115976000Y-93870200D01*
X115956000Y-93870200D01*
X115956000Y-94944450D01*
X116114750Y-95103200D01*
X116416500Y-95106272D01*
X116540982Y-95094012D01*
X116660680Y-95057702D01*
X116770994Y-94998737D01*
X116867685Y-94919385D01*
X116933158Y-94839606D01*
X116938538Y-94846162D01*
X117073114Y-94956605D01*
X117226650Y-95038672D01*
X117393246Y-95089208D01*
X117566500Y-95106272D01*
X118241500Y-95106272D01*
X118414754Y-95089208D01*
X118581350Y-95038672D01*
X118734886Y-94956605D01*
X118869462Y-94846162D01*
X118979905Y-94711586D01*
X119005701Y-94663325D01*
X119039344Y-94685805D01*
X119227702Y-94763826D01*
X119427661Y-94803600D01*
X119631539Y-94803600D01*
X119831498Y-94763826D01*
X120019856Y-94685805D01*
X120189374Y-94572537D01*
X120333537Y-94428374D01*
X120446805Y-94258856D01*
X120524826Y-94070498D01*
X120564600Y-93870539D01*
X120564600Y-93666661D01*
X120524826Y-93466702D01*
X120446805Y-93278344D01*
X120360088Y-93148561D01*
X123854820Y-93148561D01*
X123854820Y-93352439D01*
X123894594Y-93552398D01*
X123972615Y-93740756D01*
X124085883Y-93910274D01*
X124230046Y-94054437D01*
X124399564Y-94167705D01*
X124587922Y-94245726D01*
X124787881Y-94285500D01*
X124991759Y-94285500D01*
X125191718Y-94245726D01*
X125380076Y-94167705D01*
X125549594Y-94054437D01*
X125693757Y-93910274D01*
X125807025Y-93740756D01*
X125885046Y-93552398D01*
X125924820Y-93352439D01*
X125924820Y-93148561D01*
X125885046Y-92948602D01*
X125807025Y-92760244D01*
X125693757Y-92590726D01*
X125549594Y-92446563D01*
X125380076Y-92333295D01*
X125191718Y-92255274D01*
X124991759Y-92215500D01*
X124787881Y-92215500D01*
X124587922Y-92255274D01*
X124399564Y-92333295D01*
X124230046Y-92446563D01*
X124085883Y-92590726D01*
X123972615Y-92760244D01*
X123894594Y-92948602D01*
X123854820Y-93148561D01*
X120360088Y-93148561D01*
X120333537Y-93108826D01*
X120189374Y-92964663D01*
X120019856Y-92851395D01*
X119831498Y-92773374D01*
X119631539Y-92733600D01*
X119427661Y-92733600D01*
X119227702Y-92773374D01*
X119039344Y-92851395D01*
X119029160Y-92858200D01*
X119024476Y-92858200D01*
X118979905Y-92774814D01*
X118869462Y-92640238D01*
X118789000Y-92574205D01*
X118789000Y-91899978D01*
X119926980Y-90761999D01*
X138250421Y-90761999D01*
X139875000Y-92386579D01*
X139875000Y-92656411D01*
X139918478Y-92874989D01*
X128435305Y-92874989D01*
X128399210Y-92871434D01*
X128363115Y-92874989D01*
X128363106Y-92874989D01*
X128255126Y-92885624D01*
X128116578Y-92927652D01*
X127988891Y-92995902D01*
X127876973Y-93087751D01*
X127853957Y-93115796D01*
X127754753Y-93215000D01*
X127657261Y-93215000D01*
X127457302Y-93254774D01*
X127268944Y-93332795D01*
X127099426Y-93446063D01*
X126955263Y-93590226D01*
X126841995Y-93759744D01*
X126763974Y-93948102D01*
X126724200Y-94148061D01*
X126724200Y-94351939D01*
X126763974Y-94551898D01*
X126841995Y-94740256D01*
X126848506Y-94750000D01*
X126841995Y-94759744D01*
X126763974Y-94948102D01*
X126724200Y-95148061D01*
X126724200Y-95351939D01*
X126763974Y-95551898D01*
X126841995Y-95740256D01*
X126851112Y-95753900D01*
X126841995Y-95767544D01*
X126763974Y-95955902D01*
X126724200Y-96155861D01*
X126724200Y-96359739D01*
X126763974Y-96559698D01*
X126841995Y-96748056D01*
X126853851Y-96765800D01*
X126841995Y-96783544D01*
X126763974Y-96971902D01*
X126724200Y-97171861D01*
X126724200Y-97375739D01*
X126763974Y-97575698D01*
X126841995Y-97764056D01*
X126955263Y-97933574D01*
X127099426Y-98077737D01*
X127268944Y-98191005D01*
X127457302Y-98269026D01*
X127657261Y-98308800D01*
X127861139Y-98308800D01*
X128061098Y-98269026D01*
X128249456Y-98191005D01*
X128418974Y-98077737D01*
X128487911Y-98008800D01*
X128743655Y-98008800D01*
X129229056Y-98494202D01*
X129252073Y-98522248D01*
X129363991Y-98614097D01*
X129438996Y-98654188D01*
X129479428Y-98675799D01*
X129491678Y-98682347D01*
X129630226Y-98724375D01*
X129738206Y-98735010D01*
X129738215Y-98735010D01*
X129774310Y-98738565D01*
X129810407Y-98735010D01*
X138815564Y-98735010D01*
X139909699Y-99829146D01*
X139875000Y-100003589D01*
X139875000Y-100276411D01*
X139910524Y-100455001D01*
X138803465Y-100455001D01*
X138759998Y-100450720D01*
X138716532Y-100455001D01*
X138716522Y-100455001D01*
X138586509Y-100467806D01*
X138419686Y-100518412D01*
X138265940Y-100600590D01*
X138265938Y-100600591D01*
X138265939Y-100600591D01*
X138164952Y-100683469D01*
X138164950Y-100683471D01*
X138131182Y-100711184D01*
X138103469Y-100744952D01*
X136617622Y-102230800D01*
X121978979Y-102230800D01*
X118789000Y-99040822D01*
X118789000Y-98976195D01*
X118869462Y-98910162D01*
X118979905Y-98775586D01*
X118999017Y-98739831D01*
X119013944Y-98749805D01*
X119202302Y-98827826D01*
X119402261Y-98867600D01*
X119606139Y-98867600D01*
X119806098Y-98827826D01*
X119994456Y-98749805D01*
X120163974Y-98636537D01*
X120308137Y-98492374D01*
X120421405Y-98322856D01*
X120469824Y-98205961D01*
X123854820Y-98205961D01*
X123854820Y-98409839D01*
X123894594Y-98609798D01*
X123972615Y-98798156D01*
X124085883Y-98967674D01*
X124230046Y-99111837D01*
X124399564Y-99225105D01*
X124587922Y-99303126D01*
X124787881Y-99342900D01*
X124991759Y-99342900D01*
X125191718Y-99303126D01*
X125380076Y-99225105D01*
X125549594Y-99111837D01*
X125693757Y-98967674D01*
X125807025Y-98798156D01*
X125885046Y-98609798D01*
X125924820Y-98409839D01*
X125924820Y-98205961D01*
X125885046Y-98006002D01*
X125807025Y-97817644D01*
X125693757Y-97648126D01*
X125549594Y-97503963D01*
X125380076Y-97390695D01*
X125191718Y-97312674D01*
X124991759Y-97272900D01*
X124787881Y-97272900D01*
X124587922Y-97312674D01*
X124399564Y-97390695D01*
X124230046Y-97503963D01*
X124085883Y-97648126D01*
X123972615Y-97817644D01*
X123894594Y-98006002D01*
X123854820Y-98205961D01*
X120469824Y-98205961D01*
X120499426Y-98134498D01*
X120539200Y-97934539D01*
X120539200Y-97730661D01*
X120499426Y-97530702D01*
X120421405Y-97342344D01*
X120308137Y-97172826D01*
X120163974Y-97028663D01*
X119994456Y-96915395D01*
X119806098Y-96837374D01*
X119606139Y-96797600D01*
X119402261Y-96797600D01*
X119202302Y-96837374D01*
X119019589Y-96913057D01*
X118979905Y-96838814D01*
X118869462Y-96704238D01*
X118734886Y-96593795D01*
X118581350Y-96511728D01*
X118414754Y-96461192D01*
X118241500Y-96444128D01*
X117566500Y-96444128D01*
X117393246Y-96461192D01*
X117226650Y-96511728D01*
X117073114Y-96593795D01*
X116938538Y-96704238D01*
X116933158Y-96710794D01*
X116867685Y-96631015D01*
X116770994Y-96551663D01*
X116660680Y-96492698D01*
X116540982Y-96456388D01*
X116416500Y-96444128D01*
X116114750Y-96447200D01*
X115956000Y-96605950D01*
X115956000Y-97680200D01*
X115976000Y-97680200D01*
X115976000Y-97934200D01*
X115956000Y-97934200D01*
X115956000Y-99008450D01*
X116114750Y-99167200D01*
X116416500Y-99170272D01*
X116540982Y-99158012D01*
X116660680Y-99121702D01*
X116770994Y-99062737D01*
X116867685Y-98983385D01*
X116933158Y-98903606D01*
X116938538Y-98910162D01*
X117019000Y-98976195D01*
X117019000Y-99363931D01*
X117014719Y-99407400D01*
X117019000Y-99450869D01*
X117019000Y-99450876D01*
X117031805Y-99580889D01*
X117082411Y-99747712D01*
X117164589Y-99901458D01*
X117275183Y-100036217D01*
X117308956Y-100063934D01*
X120955870Y-103710849D01*
X120983583Y-103744617D01*
X121017351Y-103772330D01*
X121017353Y-103772332D01*
X121118341Y-103855211D01*
X121272086Y-103937389D01*
X121438910Y-103987995D01*
X121568923Y-104000800D01*
X121568931Y-104000800D01*
X121612400Y-104005081D01*
X121655869Y-104000800D01*
X136940731Y-104000800D01*
X136984200Y-104005081D01*
X137027669Y-104000800D01*
X137027677Y-104000800D01*
X137157690Y-103987995D01*
X137324513Y-103937389D01*
X137478259Y-103855211D01*
X137613017Y-103744617D01*
X137640734Y-103710844D01*
X139126578Y-102225001D01*
X139871928Y-102225001D01*
X139871928Y-103430000D01*
X139884188Y-103554482D01*
X139920498Y-103674180D01*
X139979463Y-103784494D01*
X140058815Y-103881185D01*
X140155506Y-103960537D01*
X140265820Y-104019502D01*
X140375000Y-104052621D01*
X140375001Y-106348315D01*
X140256613Y-106411595D01*
X140122038Y-106522038D01*
X140011595Y-106656613D01*
X139929528Y-106810149D01*
X139878992Y-106976745D01*
X139861928Y-107149999D01*
X139861928Y-107850001D01*
X139878992Y-108023255D01*
X139929528Y-108189851D01*
X140011595Y-108343387D01*
X140122038Y-108477962D01*
X140148891Y-108500000D01*
X140122038Y-108522038D01*
X140011595Y-108656613D01*
X139929528Y-108810149D01*
X139878992Y-108976745D01*
X139861928Y-109149999D01*
X139861928Y-109850001D01*
X139878992Y-110023255D01*
X139929528Y-110189851D01*
X140011595Y-110343387D01*
X140122038Y-110477962D01*
X140256613Y-110588405D01*
X140410149Y-110670472D01*
X140576745Y-110721008D01*
X140749999Y-110738072D01*
X141554814Y-110738072D01*
X141422038Y-110847038D01*
X141311595Y-110981614D01*
X141229528Y-111135150D01*
X141178992Y-111301746D01*
X141161928Y-111475000D01*
X141161928Y-112725000D01*
X141178992Y-112898254D01*
X141229528Y-113064850D01*
X141311595Y-113218386D01*
X141422038Y-113352962D01*
X141556614Y-113463405D01*
X141710150Y-113545472D01*
X141876746Y-113596008D01*
X142050000Y-113613072D01*
X142975000Y-113613072D01*
X143148254Y-113596008D01*
X143314850Y-113545472D01*
X143468386Y-113463405D01*
X143602962Y-113352962D01*
X143713405Y-113218386D01*
X143795472Y-113064850D01*
X143822727Y-112975000D01*
X144136928Y-112975000D01*
X144149188Y-113099482D01*
X144185498Y-113219180D01*
X144244463Y-113329494D01*
X144323815Y-113426185D01*
X144420506Y-113505537D01*
X144530820Y-113564502D01*
X144650518Y-113600812D01*
X144775000Y-113613072D01*
X145201750Y-113610000D01*
X145360500Y-113451250D01*
X145360500Y-112227000D01*
X145614500Y-112227000D01*
X145614500Y-113451250D01*
X145773250Y-113610000D01*
X146200000Y-113613072D01*
X146324482Y-113600812D01*
X146444180Y-113564502D01*
X146554494Y-113505537D01*
X146651185Y-113426185D01*
X146730537Y-113329494D01*
X146789502Y-113219180D01*
X146825812Y-113099482D01*
X146838072Y-112975000D01*
X146835000Y-112385750D01*
X146676250Y-112227000D01*
X145614500Y-112227000D01*
X145360500Y-112227000D01*
X144298750Y-112227000D01*
X144140000Y-112385750D01*
X144136928Y-112975000D01*
X143822727Y-112975000D01*
X143846008Y-112898254D01*
X143863072Y-112725000D01*
X143863072Y-111475000D01*
X143846008Y-111301746D01*
X143795472Y-111135150D01*
X143713405Y-110981614D01*
X143602962Y-110847038D01*
X143470186Y-110738072D01*
X144250001Y-110738072D01*
X144383375Y-110724936D01*
X144323815Y-110773815D01*
X144244463Y-110870506D01*
X144185498Y-110980820D01*
X144149188Y-111100518D01*
X144136928Y-111225000D01*
X144140000Y-111814250D01*
X144298750Y-111973000D01*
X145360500Y-111973000D01*
X145360500Y-110748750D01*
X145614500Y-110748750D01*
X145614500Y-111973000D01*
X146676250Y-111973000D01*
X146835000Y-111814250D01*
X146838072Y-111225000D01*
X146825812Y-111100518D01*
X146789502Y-110980820D01*
X146730537Y-110870506D01*
X146651185Y-110773815D01*
X146554494Y-110694463D01*
X146444180Y-110635498D01*
X146324482Y-110599188D01*
X146200000Y-110586928D01*
X145773250Y-110590000D01*
X145614500Y-110748750D01*
X145360500Y-110748750D01*
X145201750Y-110590000D01*
X144775000Y-110586928D01*
X144739634Y-110590411D01*
X144743387Y-110588405D01*
X144877962Y-110477962D01*
X144988405Y-110343387D01*
X145070472Y-110189851D01*
X145121008Y-110023255D01*
X145138072Y-109850001D01*
X145138072Y-109149999D01*
X145121008Y-108976745D01*
X145070472Y-108810149D01*
X144988405Y-108656613D01*
X144877962Y-108522038D01*
X144851109Y-108500000D01*
X144877962Y-108477962D01*
X144988405Y-108343387D01*
X145070472Y-108189851D01*
X145121008Y-108023255D01*
X145138072Y-107850001D01*
X145138072Y-107413507D01*
X145595051Y-106956528D01*
X145628818Y-106928816D01*
X145656598Y-106894967D01*
X145739412Y-106794058D01*
X145821590Y-106640313D01*
X145872196Y-106473489D01*
X145879840Y-106395877D01*
X145885001Y-106343476D01*
X145885001Y-106343468D01*
X145889282Y-106299999D01*
X145885001Y-106256530D01*
X145885001Y-106202662D01*
X145996002Y-106313663D01*
X146280169Y-106503537D01*
X146595919Y-106634325D01*
X146931117Y-106701000D01*
X147272883Y-106701000D01*
X147608081Y-106634325D01*
X147923831Y-106503537D01*
X148207998Y-106313663D01*
X148449663Y-106071998D01*
X148639537Y-105787831D01*
X148770325Y-105472081D01*
X148837000Y-105136883D01*
X148837000Y-104795117D01*
X148774062Y-104478706D01*
X149079489Y-104682786D01*
X149490782Y-104853149D01*
X149927409Y-104940000D01*
X150372591Y-104940000D01*
X150809218Y-104853149D01*
X150916522Y-104808702D01*
X153906903Y-104808702D01*
X153978486Y-105052671D01*
X154233996Y-105173571D01*
X154508184Y-105242300D01*
X154790512Y-105256217D01*
X155070130Y-105214787D01*
X155336292Y-105119603D01*
X155461514Y-105052671D01*
X155533097Y-104808702D01*
X155936903Y-104808702D01*
X156008486Y-105052671D01*
X156263996Y-105173571D01*
X156538184Y-105242300D01*
X156820512Y-105256217D01*
X157100130Y-105214787D01*
X157366292Y-105119603D01*
X157491514Y-105052671D01*
X157563097Y-104808702D01*
X156750000Y-103995605D01*
X155936903Y-104808702D01*
X155533097Y-104808702D01*
X154720000Y-103995605D01*
X153906903Y-104808702D01*
X150916522Y-104808702D01*
X151220511Y-104682786D01*
X151590666Y-104435456D01*
X151905456Y-104120666D01*
X152061912Y-103886512D01*
X153279783Y-103886512D01*
X153321213Y-104166130D01*
X153416397Y-104432292D01*
X153483329Y-104557514D01*
X153727298Y-104629097D01*
X154540395Y-103816000D01*
X154899605Y-103816000D01*
X155407706Y-104324101D01*
X155446397Y-104432292D01*
X155513329Y-104557514D01*
X155694184Y-104610579D01*
X155712702Y-104629097D01*
X155735000Y-104622555D01*
X155757298Y-104629097D01*
X155775816Y-104610579D01*
X155956671Y-104557514D01*
X156071446Y-104314949D01*
X156570395Y-103816000D01*
X156929605Y-103816000D01*
X157742702Y-104629097D01*
X157986671Y-104557514D01*
X158107571Y-104302004D01*
X158176300Y-104027816D01*
X158190217Y-103745488D01*
X158148787Y-103465870D01*
X158053603Y-103199708D01*
X157986671Y-103074486D01*
X157742702Y-103002903D01*
X156929605Y-103816000D01*
X156570395Y-103816000D01*
X156062294Y-103307899D01*
X156023603Y-103199708D01*
X155956671Y-103074486D01*
X155775816Y-103021421D01*
X155757298Y-103002903D01*
X155735000Y-103009445D01*
X155712702Y-103002903D01*
X155694184Y-103021421D01*
X155513329Y-103074486D01*
X155398554Y-103317051D01*
X154899605Y-103816000D01*
X154540395Y-103816000D01*
X153727298Y-103002903D01*
X153483329Y-103074486D01*
X153362429Y-103329996D01*
X153293700Y-103604184D01*
X153279783Y-103886512D01*
X152061912Y-103886512D01*
X152152786Y-103750511D01*
X152323149Y-103339218D01*
X152410000Y-102902591D01*
X152410000Y-102823298D01*
X153906903Y-102823298D01*
X154720000Y-103636395D01*
X155533097Y-102823298D01*
X155936903Y-102823298D01*
X156750000Y-103636395D01*
X157563097Y-102823298D01*
X157491514Y-102579329D01*
X157236004Y-102458429D01*
X156961816Y-102389700D01*
X156679488Y-102375783D01*
X156399870Y-102417213D01*
X156133708Y-102512397D01*
X156008486Y-102579329D01*
X155936903Y-102823298D01*
X155533097Y-102823298D01*
X155461514Y-102579329D01*
X155206004Y-102458429D01*
X154931816Y-102389700D01*
X154649488Y-102375783D01*
X154369870Y-102417213D01*
X154103708Y-102512397D01*
X153978486Y-102579329D01*
X153906903Y-102823298D01*
X152410000Y-102823298D01*
X152410000Y-102457409D01*
X152323149Y-102020782D01*
X152152786Y-101609489D01*
X151905456Y-101239334D01*
X151590666Y-100924544D01*
X151220511Y-100677214D01*
X150809218Y-100506851D01*
X150372591Y-100420000D01*
X149927409Y-100420000D01*
X149490782Y-100506851D01*
X149079489Y-100677214D01*
X148709334Y-100924544D01*
X148394544Y-101239334D01*
X148147214Y-101609489D01*
X147976851Y-102020782D01*
X147890000Y-102457409D01*
X147890000Y-102902591D01*
X147976851Y-103339218D01*
X148048254Y-103511599D01*
X147923831Y-103428463D01*
X147608081Y-103297675D01*
X147272883Y-103231000D01*
X146931117Y-103231000D01*
X146595919Y-103297675D01*
X146280169Y-103428463D01*
X145996002Y-103618337D01*
X145885001Y-103729338D01*
X145885001Y-102043219D01*
X145896063Y-102059774D01*
X146040226Y-102203937D01*
X146209744Y-102317205D01*
X146398102Y-102395226D01*
X146598061Y-102435000D01*
X146801939Y-102435000D01*
X147001898Y-102395226D01*
X147190256Y-102317205D01*
X147359774Y-102203937D01*
X147503937Y-102059774D01*
X147617205Y-101890256D01*
X147695226Y-101701898D01*
X147735000Y-101501939D01*
X147735000Y-101298061D01*
X147695226Y-101098102D01*
X147617205Y-100909744D01*
X147585000Y-100861546D01*
X147585000Y-92417463D01*
X147589281Y-92373997D01*
X147585000Y-92330531D01*
X147585000Y-92330521D01*
X147572195Y-92200508D01*
X147521589Y-92033685D01*
X147439411Y-91879939D01*
X147387459Y-91816636D01*
X147356532Y-91778951D01*
X147356530Y-91778949D01*
X147328817Y-91745181D01*
X147295051Y-91717470D01*
X146375387Y-90797806D01*
X146593919Y-90888325D01*
X146929117Y-90955000D01*
X147270883Y-90955000D01*
X147606081Y-90888325D01*
X147921831Y-90757537D01*
X147947030Y-90740699D01*
X147890000Y-91027409D01*
X147890000Y-91472591D01*
X147976851Y-91909218D01*
X148147214Y-92320511D01*
X148394544Y-92690666D01*
X148709334Y-93005456D01*
X149079489Y-93252786D01*
X149490782Y-93423149D01*
X149927409Y-93510000D01*
X150372591Y-93510000D01*
X150809218Y-93423149D01*
X151220511Y-93252786D01*
X151590666Y-93005456D01*
X151905456Y-92690666D01*
X152152786Y-92320511D01*
X152323149Y-91909218D01*
X152410000Y-91472591D01*
X152410000Y-91358702D01*
X153906903Y-91358702D01*
X153978486Y-91602671D01*
X154233996Y-91723571D01*
X154508184Y-91792300D01*
X154790512Y-91806217D01*
X155070130Y-91764787D01*
X155336292Y-91669603D01*
X155461514Y-91602671D01*
X155533097Y-91358702D01*
X155936903Y-91358702D01*
X156008486Y-91602671D01*
X156263996Y-91723571D01*
X156538184Y-91792300D01*
X156820512Y-91806217D01*
X157100130Y-91764787D01*
X157366292Y-91669603D01*
X157491514Y-91602671D01*
X157563097Y-91358702D01*
X156750000Y-90545605D01*
X155936903Y-91358702D01*
X155533097Y-91358702D01*
X154720000Y-90545605D01*
X153906903Y-91358702D01*
X152410000Y-91358702D01*
X152410000Y-91027409D01*
X152323149Y-90590782D01*
X152259249Y-90436512D01*
X153279783Y-90436512D01*
X153321213Y-90716130D01*
X153416397Y-90982292D01*
X153483329Y-91107514D01*
X153727298Y-91179097D01*
X154540395Y-90366000D01*
X154899605Y-90366000D01*
X155407706Y-90874101D01*
X155446397Y-90982292D01*
X155513329Y-91107514D01*
X155694184Y-91160579D01*
X155712702Y-91179097D01*
X155735000Y-91172555D01*
X155757298Y-91179097D01*
X155775816Y-91160579D01*
X155956671Y-91107514D01*
X156071446Y-90864949D01*
X156570395Y-90366000D01*
X156929605Y-90366000D01*
X157742702Y-91179097D01*
X157986671Y-91107514D01*
X158107571Y-90852004D01*
X158176300Y-90577816D01*
X158190217Y-90295488D01*
X158148787Y-90015870D01*
X158053603Y-89749708D01*
X157986671Y-89624486D01*
X157742702Y-89552903D01*
X156929605Y-90366000D01*
X156570395Y-90366000D01*
X156062294Y-89857899D01*
X156023603Y-89749708D01*
X155956671Y-89624486D01*
X155775816Y-89571421D01*
X155757298Y-89552903D01*
X155735000Y-89559445D01*
X155712702Y-89552903D01*
X155694184Y-89571421D01*
X155513329Y-89624486D01*
X155398554Y-89867051D01*
X154899605Y-90366000D01*
X154540395Y-90366000D01*
X153727298Y-89552903D01*
X153483329Y-89624486D01*
X153362429Y-89879996D01*
X153293700Y-90154184D01*
X153279783Y-90436512D01*
X152259249Y-90436512D01*
X152152786Y-90179489D01*
X151905456Y-89809334D01*
X151590666Y-89494544D01*
X151409209Y-89373298D01*
X153906903Y-89373298D01*
X154720000Y-90186395D01*
X155533097Y-89373298D01*
X155936903Y-89373298D01*
X156750000Y-90186395D01*
X157563097Y-89373298D01*
X157491514Y-89129329D01*
X157236004Y-89008429D01*
X156961816Y-88939700D01*
X156679488Y-88925783D01*
X156399870Y-88967213D01*
X156133708Y-89062397D01*
X156008486Y-89129329D01*
X155936903Y-89373298D01*
X155533097Y-89373298D01*
X155461514Y-89129329D01*
X155206004Y-89008429D01*
X154931816Y-88939700D01*
X154649488Y-88925783D01*
X154369870Y-88967213D01*
X154103708Y-89062397D01*
X153978486Y-89129329D01*
X153906903Y-89373298D01*
X151409209Y-89373298D01*
X151220511Y-89247214D01*
X150809218Y-89076851D01*
X150372591Y-88990000D01*
X149927409Y-88990000D01*
X149490782Y-89076851D01*
X149079489Y-89247214D01*
X148830482Y-89413595D01*
X148835000Y-89390883D01*
X148835000Y-89049117D01*
X148768325Y-88713919D01*
X148637537Y-88398169D01*
X148447663Y-88114002D01*
X148205998Y-87872337D01*
X147921831Y-87682463D01*
X147606081Y-87551675D01*
X147270883Y-87485000D01*
X146929117Y-87485000D01*
X146593919Y-87551675D01*
X146278169Y-87682463D01*
X145994002Y-87872337D01*
X145752337Y-88114002D01*
X145562463Y-88398169D01*
X145431675Y-88713919D01*
X145365000Y-89049117D01*
X145365000Y-89390883D01*
X145431675Y-89726081D01*
X145522194Y-89944613D01*
X140997534Y-85419954D01*
X140969819Y-85386183D01*
X140835061Y-85275589D01*
X140681315Y-85193411D01*
X140514492Y-85142805D01*
X140384479Y-85130000D01*
X140384471Y-85130000D01*
X140341002Y-85125719D01*
X140297533Y-85130000D01*
X133930535Y-85130000D01*
X133909989Y-85026709D01*
X133718519Y-84564459D01*
X133440547Y-84148444D01*
X133086756Y-83794653D01*
X132670741Y-83516681D01*
X132576391Y-83477600D01*
X133799346Y-83477600D01*
X133847544Y-83509805D01*
X134035902Y-83587826D01*
X134235861Y-83627600D01*
X134439739Y-83627600D01*
X134639698Y-83587826D01*
X134828056Y-83509805D01*
X134997574Y-83396537D01*
X135141737Y-83252374D01*
X135255005Y-83082856D01*
X135333026Y-82894498D01*
X135372800Y-82694539D01*
X135372800Y-82490661D01*
X135333026Y-82290702D01*
X135255005Y-82102344D01*
X135141737Y-81932826D01*
X134997574Y-81788663D01*
X134828056Y-81675395D01*
X134639698Y-81597374D01*
X134439739Y-81557600D01*
X134235861Y-81557600D01*
X134035902Y-81597374D01*
X133847544Y-81675395D01*
X133799346Y-81707600D01*
X132576391Y-81707600D01*
X132670741Y-81668519D01*
X133086756Y-81390547D01*
X133440547Y-81036756D01*
X133718519Y-80620741D01*
X133909989Y-80158491D01*
X134007600Y-79667768D01*
X134007600Y-79167432D01*
X133909989Y-78676709D01*
X133718519Y-78214459D01*
X133440547Y-77798444D01*
X133086756Y-77444653D01*
X132670741Y-77166681D01*
X132208491Y-76975211D01*
X131717768Y-76877600D01*
X131217432Y-76877600D01*
X130726709Y-76975211D01*
X130264459Y-77166681D01*
X129848444Y-77444653D01*
X129494653Y-77798444D01*
X129216681Y-78214459D01*
X129025211Y-78676709D01*
X128927600Y-79167432D01*
X128927600Y-79667768D01*
X129025211Y-80158491D01*
X129088088Y-80310291D01*
X128996446Y-80272331D01*
X128530260Y-80179600D01*
X128054940Y-80179600D01*
X127588754Y-80272331D01*
X127497112Y-80310291D01*
X127559989Y-80158491D01*
X127657600Y-79667768D01*
X127657600Y-79167432D01*
X127559989Y-78676709D01*
X127368519Y-78214459D01*
X127090547Y-77798444D01*
X126736756Y-77444653D01*
X126320741Y-77166681D01*
X125858491Y-76975211D01*
X125367768Y-76877600D01*
X124867432Y-76877600D01*
X124376709Y-76975211D01*
X123914459Y-77166681D01*
X123498444Y-77444653D01*
X123144653Y-77798444D01*
X122866681Y-78214459D01*
X122675211Y-78676709D01*
X122577600Y-79167432D01*
X122577600Y-79667768D01*
X122675211Y-80158491D01*
X122866681Y-80620741D01*
X123144653Y-81036756D01*
X123498444Y-81390547D01*
X123914459Y-81668519D01*
X124376709Y-81859989D01*
X124867432Y-81957600D01*
X125367768Y-81957600D01*
X125858491Y-81859989D01*
X126010291Y-81797112D01*
X125972331Y-81888754D01*
X125879600Y-82354940D01*
X125879600Y-82830260D01*
X125972331Y-83296446D01*
X126010291Y-83388088D01*
X125858491Y-83325211D01*
X125367768Y-83227600D01*
X124867432Y-83227600D01*
X124376709Y-83325211D01*
X123914459Y-83516681D01*
X123498444Y-83794653D01*
X123144653Y-84148444D01*
X122866681Y-84564459D01*
X122675211Y-85026709D01*
X122577600Y-85517432D01*
X122577600Y-86017768D01*
X122675211Y-86508491D01*
X122866681Y-86970741D01*
X123144653Y-87386756D01*
X123498444Y-87740547D01*
X123914459Y-88018519D01*
X124376709Y-88209989D01*
X124867432Y-88307600D01*
X125367768Y-88307600D01*
X125858491Y-88209989D01*
X126320741Y-88018519D01*
X126736756Y-87740547D01*
X127090547Y-87386756D01*
X127368519Y-86970741D01*
X127559989Y-86508491D01*
X127657600Y-86017768D01*
X127657600Y-85517432D01*
X127559989Y-85026709D01*
X127497112Y-84874909D01*
X127588754Y-84912869D01*
X128054940Y-85005600D01*
X128530260Y-85005600D01*
X128996446Y-84912869D01*
X129088088Y-84874909D01*
X129025211Y-85026709D01*
X128927600Y-85517432D01*
X128927600Y-86017768D01*
X129025211Y-86508491D01*
X129216681Y-86970741D01*
X129494653Y-87386756D01*
X129848444Y-87740547D01*
X130264459Y-88018519D01*
X130726709Y-88209989D01*
X131217432Y-88307600D01*
X131717768Y-88307600D01*
X132208491Y-88209989D01*
X132670741Y-88018519D01*
X133086756Y-87740547D01*
X133440547Y-87386756D01*
X133718519Y-86970741D01*
X133747821Y-86900000D01*
X139974424Y-86900000D01*
X143115840Y-90041416D01*
X142917114Y-90174201D01*
X142724201Y-90367114D01*
X142572629Y-90593957D01*
X142468225Y-90846011D01*
X142415000Y-91113589D01*
X142415000Y-91386411D01*
X142468225Y-91653989D01*
X142518703Y-91775853D01*
X142464631Y-91829924D01*
X142335799Y-91637114D01*
X142142886Y-91444201D01*
X141916043Y-91292629D01*
X141663989Y-91188225D01*
X141396411Y-91135000D01*
X141126579Y-91135000D01*
X139273533Y-89281955D01*
X139245816Y-89248182D01*
X139111058Y-89137588D01*
X138957312Y-89055410D01*
X138790489Y-89004804D01*
X138660476Y-88991999D01*
X138660468Y-88991999D01*
X138616999Y-88987718D01*
X138573530Y-88991999D01*
X119603870Y-88991999D01*
X119560401Y-88987718D01*
X119516932Y-88991999D01*
X119516924Y-88991999D01*
X119386911Y-89004804D01*
X119220088Y-89055410D01*
X119081794Y-89129329D01*
X119066342Y-89137588D01*
X118965354Y-89220467D01*
X118965352Y-89220469D01*
X118931584Y-89248182D01*
X118903871Y-89281950D01*
X117308956Y-90876866D01*
X117275183Y-90904583D01*
X117164589Y-91039342D01*
X117082411Y-91193088D01*
X117052215Y-91292629D01*
X117032172Y-91358702D01*
X117031805Y-91359911D01*
X117019000Y-91489924D01*
X117019000Y-91489931D01*
X117014719Y-91533400D01*
X117019000Y-91576869D01*
X117019000Y-92574205D01*
X116938538Y-92640238D01*
X116933158Y-92646794D01*
X116867685Y-92567015D01*
X116770994Y-92487663D01*
X116660680Y-92428698D01*
X116540982Y-92392388D01*
X116416500Y-92380128D01*
X116114750Y-92383200D01*
X115956000Y-92541950D01*
X115702000Y-92541950D01*
X115543250Y-92383200D01*
X115241500Y-92380128D01*
X115117018Y-92392388D01*
X114997320Y-92428698D01*
X114887006Y-92487663D01*
X114790315Y-92567015D01*
X114710963Y-92663706D01*
X114651998Y-92774020D01*
X114615688Y-92893718D01*
X114603428Y-93018200D01*
X111960000Y-93018200D01*
X111960000Y-85572881D01*
X114874724Y-85572881D01*
X115234912Y-86062548D01*
X115898882Y-86422849D01*
X116620385Y-86646694D01*
X117371695Y-86725480D01*
X118123938Y-86656178D01*
X118848208Y-86441452D01*
X119516670Y-86089555D01*
X119557088Y-86062548D01*
X119917276Y-85572881D01*
X117396000Y-83051605D01*
X114874724Y-85572881D01*
X111960000Y-85572881D01*
X111960000Y-82847695D01*
X113542520Y-82847695D01*
X113611822Y-83599938D01*
X113826548Y-84324208D01*
X114178445Y-84992670D01*
X114205452Y-85033088D01*
X114695119Y-85393276D01*
X117216395Y-82872000D01*
X117575605Y-82872000D01*
X120096881Y-85393276D01*
X120586548Y-85033088D01*
X120946849Y-84369118D01*
X121170694Y-83647615D01*
X121249480Y-82896305D01*
X121180178Y-82144062D01*
X120965452Y-81419792D01*
X120613555Y-80751330D01*
X120586548Y-80710912D01*
X120096881Y-80350724D01*
X117575605Y-82872000D01*
X117216395Y-82872000D01*
X114695119Y-80350724D01*
X114205452Y-80710912D01*
X113845151Y-81374882D01*
X113621306Y-82096385D01*
X113542520Y-82847695D01*
X111960000Y-82847695D01*
X111960000Y-80171119D01*
X114874724Y-80171119D01*
X117396000Y-82692395D01*
X119917276Y-80171119D01*
X119557088Y-79681452D01*
X118893118Y-79321151D01*
X118171615Y-79097306D01*
X117420305Y-79018520D01*
X116668062Y-79087822D01*
X115943792Y-79302548D01*
X115275330Y-79654445D01*
X115234912Y-79681452D01*
X114874724Y-80171119D01*
X111960000Y-80171119D01*
X111960000Y-76060000D01*
X160640000Y-76060000D01*
X160640001Y-115740000D01*
G37*
G04 #@! TD.AperFunction*
D23*
X142724201Y-102292886D02*
X142917114Y-102485799D01*
X143143957Y-102637371D01*
X143396011Y-102741775D01*
X143663589Y-102795000D01*
X143936411Y-102795000D01*
X144115001Y-102759476D01*
X144115001Y-105933420D01*
X143786493Y-106261928D01*
X143349999Y-106261928D01*
X143176745Y-106278992D01*
X143010149Y-106329528D01*
X142856613Y-106411595D01*
X142722038Y-106522038D01*
X142611595Y-106656613D01*
X142529528Y-106810149D01*
X142500000Y-106907490D01*
X142470472Y-106810149D01*
X142388405Y-106656613D01*
X142277962Y-106522038D01*
X142145000Y-106412919D01*
X142145000Y-104052621D01*
X142254180Y-104019502D01*
X142364494Y-103960537D01*
X142461185Y-103881185D01*
X142540537Y-103784494D01*
X142599502Y-103674180D01*
X142635812Y-103554482D01*
X142648072Y-103430000D01*
X142648072Y-102178951D01*
X142724201Y-102292886D01*
G04 #@! TA.AperFunction,Conductor*
D24*
G36*
X142724201Y-102292886D02*
G01*
X142917114Y-102485799D01*
X143143957Y-102637371D01*
X143396011Y-102741775D01*
X143663589Y-102795000D01*
X143936411Y-102795000D01*
X144115001Y-102759476D01*
X144115001Y-105933420D01*
X143786493Y-106261928D01*
X143349999Y-106261928D01*
X143176745Y-106278992D01*
X143010149Y-106329528D01*
X142856613Y-106411595D01*
X142722038Y-106522038D01*
X142611595Y-106656613D01*
X142529528Y-106810149D01*
X142500000Y-106907490D01*
X142470472Y-106810149D01*
X142388405Y-106656613D01*
X142277962Y-106522038D01*
X142145000Y-106412919D01*
X142145000Y-104052621D01*
X142254180Y-104019502D01*
X142364494Y-103960537D01*
X142461185Y-103881185D01*
X142540537Y-103784494D01*
X142599502Y-103674180D01*
X142635812Y-103554482D01*
X142648072Y-103430000D01*
X142648072Y-102178951D01*
X142724201Y-102292886D01*
G37*
G04 #@! TD.AperFunction*
D23*
X145815000Y-92740577D02*
X145815001Y-97177359D01*
X145739412Y-97035942D01*
X145656533Y-96934954D01*
X145656531Y-96934952D01*
X145628818Y-96901184D01*
X145595050Y-96873471D01*
X145185000Y-96463421D01*
X145185000Y-96193589D01*
X145131775Y-95926011D01*
X145027371Y-95673957D01*
X144875799Y-95447114D01*
X144682886Y-95254201D01*
X144456043Y-95102629D01*
X144353127Y-95060000D01*
X144456043Y-95017371D01*
X144682886Y-94865799D01*
X144875799Y-94672886D01*
X145027371Y-94446043D01*
X145131775Y-94193989D01*
X145185000Y-93926411D01*
X145185000Y-93653589D01*
X145131775Y-93386011D01*
X145027371Y-93133957D01*
X144875799Y-92907114D01*
X144682886Y-92714201D01*
X144456043Y-92562629D01*
X144353127Y-92520000D01*
X144456043Y-92477371D01*
X144682886Y-92325799D01*
X144875799Y-92132886D01*
X145008584Y-91934160D01*
X145815000Y-92740577D01*
G04 #@! TA.AperFunction,Conductor*
D24*
G36*
X145815000Y-92740577D02*
G01*
X145815001Y-97177359D01*
X145739412Y-97035942D01*
X145656533Y-96934954D01*
X145656531Y-96934952D01*
X145628818Y-96901184D01*
X145595050Y-96873471D01*
X145185000Y-96463421D01*
X145185000Y-96193589D01*
X145131775Y-95926011D01*
X145027371Y-95673957D01*
X144875799Y-95447114D01*
X144682886Y-95254201D01*
X144456043Y-95102629D01*
X144353127Y-95060000D01*
X144456043Y-95017371D01*
X144682886Y-94865799D01*
X144875799Y-94672886D01*
X145027371Y-94446043D01*
X145131775Y-94193989D01*
X145185000Y-93926411D01*
X145185000Y-93653589D01*
X145131775Y-93386011D01*
X145027371Y-93133957D01*
X144875799Y-92907114D01*
X144682886Y-92714201D01*
X144456043Y-92562629D01*
X144353127Y-92520000D01*
X144456043Y-92477371D01*
X144682886Y-92325799D01*
X144875799Y-92132886D01*
X145008584Y-91934160D01*
X145815000Y-92740577D01*
G37*
G04 #@! TD.AperFunction*
D23*
X130689681Y-94821689D02*
X130817368Y-94889939D01*
X130955916Y-94931967D01*
X131063896Y-94942602D01*
X131063904Y-94942602D01*
X131099999Y-94946157D01*
X131136096Y-94942602D01*
X131866295Y-94942602D01*
X131902400Y-94946158D01*
X131938502Y-94942602D01*
X131938504Y-94942602D01*
X132046484Y-94931967D01*
X132185032Y-94889939D01*
X132312719Y-94821689D01*
X132406166Y-94744999D01*
X132596234Y-94744999D01*
X132689681Y-94821689D01*
X132817368Y-94889939D01*
X132955916Y-94931967D01*
X133063896Y-94942602D01*
X133063904Y-94942602D01*
X133099999Y-94946157D01*
X133136096Y-94942602D01*
X133866295Y-94942602D01*
X133902400Y-94946158D01*
X133938502Y-94942602D01*
X133938504Y-94942602D01*
X134046484Y-94931967D01*
X134185032Y-94889939D01*
X134312719Y-94821689D01*
X134406166Y-94744999D01*
X134596234Y-94744999D01*
X134689681Y-94821689D01*
X134817368Y-94889939D01*
X134955916Y-94931967D01*
X135063896Y-94942602D01*
X135063904Y-94942602D01*
X135099999Y-94946157D01*
X135136096Y-94942602D01*
X135866295Y-94942602D01*
X135902400Y-94946158D01*
X135938502Y-94942602D01*
X135938504Y-94942602D01*
X136046484Y-94931967D01*
X136185032Y-94889939D01*
X136312719Y-94821689D01*
X136406166Y-94744999D01*
X136596234Y-94744999D01*
X136689681Y-94821689D01*
X136817368Y-94889939D01*
X136955916Y-94931967D01*
X137063896Y-94942602D01*
X137063904Y-94942602D01*
X137099999Y-94946157D01*
X137136096Y-94942602D01*
X137866295Y-94942602D01*
X137902400Y-94946158D01*
X137938502Y-94942602D01*
X137938504Y-94942602D01*
X138046484Y-94931967D01*
X138185032Y-94889939D01*
X138312719Y-94821689D01*
X138406166Y-94744999D01*
X138596234Y-94744999D01*
X138689681Y-94821689D01*
X138817368Y-94889939D01*
X138955916Y-94931967D01*
X139063896Y-94942602D01*
X139063904Y-94942602D01*
X139099999Y-94946157D01*
X139136096Y-94942602D01*
X139866295Y-94942602D01*
X139875000Y-94943459D01*
X139875000Y-95196411D01*
X139928225Y-95463989D01*
X140032629Y-95716043D01*
X140184201Y-95942886D01*
X140377114Y-96135799D01*
X140603957Y-96287371D01*
X140706873Y-96330000D01*
X140603957Y-96372629D01*
X140377114Y-96524201D01*
X140184201Y-96717114D01*
X140085387Y-96865000D01*
X137800816Y-96865000D01*
X137710320Y-96790732D01*
X137582633Y-96722482D01*
X137444085Y-96680454D01*
X137336105Y-96669819D01*
X137336103Y-96669819D01*
X137300001Y-96666263D01*
X137263896Y-96669819D01*
X136531283Y-96669819D01*
X136495178Y-96666263D01*
X136459076Y-96669819D01*
X136459075Y-96669819D01*
X136351095Y-96680454D01*
X136212547Y-96722482D01*
X136084860Y-96790732D01*
X135994364Y-96865000D01*
X135800816Y-96865000D01*
X135710320Y-96790732D01*
X135582633Y-96722482D01*
X135444085Y-96680454D01*
X135336105Y-96669819D01*
X135336103Y-96669819D01*
X135300001Y-96666263D01*
X135263896Y-96669819D01*
X134531283Y-96669819D01*
X134495178Y-96666263D01*
X134459076Y-96669819D01*
X134459075Y-96669819D01*
X134351095Y-96680454D01*
X134212547Y-96722482D01*
X134084860Y-96790732D01*
X133994364Y-96865000D01*
X133800816Y-96865000D01*
X133710320Y-96790732D01*
X133582633Y-96722482D01*
X133444085Y-96680454D01*
X133336105Y-96669819D01*
X133336103Y-96669819D01*
X133300001Y-96666263D01*
X133263896Y-96669819D01*
X132531283Y-96669819D01*
X132495178Y-96666263D01*
X132459076Y-96669819D01*
X132459075Y-96669819D01*
X132351095Y-96680454D01*
X132212547Y-96722482D01*
X132084860Y-96790732D01*
X131994364Y-96865000D01*
X131800816Y-96865000D01*
X131710320Y-96790732D01*
X131582633Y-96722482D01*
X131444085Y-96680454D01*
X131336105Y-96669819D01*
X131336103Y-96669819D01*
X131300001Y-96666263D01*
X131263896Y-96669819D01*
X130531283Y-96669819D01*
X130495178Y-96666263D01*
X130459076Y-96669819D01*
X130459075Y-96669819D01*
X130351095Y-96680454D01*
X130212547Y-96722482D01*
X130140460Y-96761013D01*
X129143058Y-95763612D01*
X129120038Y-95735562D01*
X129008120Y-95643713D01*
X128880433Y-95575463D01*
X128757176Y-95538073D01*
X128794200Y-95351939D01*
X128794200Y-95254446D01*
X129303648Y-94744999D01*
X130596234Y-94744999D01*
X130689681Y-94821689D01*
G04 #@! TA.AperFunction,Conductor*
D24*
G36*
X130689681Y-94821689D02*
G01*
X130817368Y-94889939D01*
X130955916Y-94931967D01*
X131063896Y-94942602D01*
X131063904Y-94942602D01*
X131099999Y-94946157D01*
X131136096Y-94942602D01*
X131866295Y-94942602D01*
X131902400Y-94946158D01*
X131938502Y-94942602D01*
X131938504Y-94942602D01*
X132046484Y-94931967D01*
X132185032Y-94889939D01*
X132312719Y-94821689D01*
X132406166Y-94744999D01*
X132596234Y-94744999D01*
X132689681Y-94821689D01*
X132817368Y-94889939D01*
X132955916Y-94931967D01*
X133063896Y-94942602D01*
X133063904Y-94942602D01*
X133099999Y-94946157D01*
X133136096Y-94942602D01*
X133866295Y-94942602D01*
X133902400Y-94946158D01*
X133938502Y-94942602D01*
X133938504Y-94942602D01*
X134046484Y-94931967D01*
X134185032Y-94889939D01*
X134312719Y-94821689D01*
X134406166Y-94744999D01*
X134596234Y-94744999D01*
X134689681Y-94821689D01*
X134817368Y-94889939D01*
X134955916Y-94931967D01*
X135063896Y-94942602D01*
X135063904Y-94942602D01*
X135099999Y-94946157D01*
X135136096Y-94942602D01*
X135866295Y-94942602D01*
X135902400Y-94946158D01*
X135938502Y-94942602D01*
X135938504Y-94942602D01*
X136046484Y-94931967D01*
X136185032Y-94889939D01*
X136312719Y-94821689D01*
X136406166Y-94744999D01*
X136596234Y-94744999D01*
X136689681Y-94821689D01*
X136817368Y-94889939D01*
X136955916Y-94931967D01*
X137063896Y-94942602D01*
X137063904Y-94942602D01*
X137099999Y-94946157D01*
X137136096Y-94942602D01*
X137866295Y-94942602D01*
X137902400Y-94946158D01*
X137938502Y-94942602D01*
X137938504Y-94942602D01*
X138046484Y-94931967D01*
X138185032Y-94889939D01*
X138312719Y-94821689D01*
X138406166Y-94744999D01*
X138596234Y-94744999D01*
X138689681Y-94821689D01*
X138817368Y-94889939D01*
X138955916Y-94931967D01*
X139063896Y-94942602D01*
X139063904Y-94942602D01*
X139099999Y-94946157D01*
X139136096Y-94942602D01*
X139866295Y-94942602D01*
X139875000Y-94943459D01*
X139875000Y-95196411D01*
X139928225Y-95463989D01*
X140032629Y-95716043D01*
X140184201Y-95942886D01*
X140377114Y-96135799D01*
X140603957Y-96287371D01*
X140706873Y-96330000D01*
X140603957Y-96372629D01*
X140377114Y-96524201D01*
X140184201Y-96717114D01*
X140085387Y-96865000D01*
X137800816Y-96865000D01*
X137710320Y-96790732D01*
X137582633Y-96722482D01*
X137444085Y-96680454D01*
X137336105Y-96669819D01*
X137336103Y-96669819D01*
X137300001Y-96666263D01*
X137263896Y-96669819D01*
X136531283Y-96669819D01*
X136495178Y-96666263D01*
X136459076Y-96669819D01*
X136459075Y-96669819D01*
X136351095Y-96680454D01*
X136212547Y-96722482D01*
X136084860Y-96790732D01*
X135994364Y-96865000D01*
X135800816Y-96865000D01*
X135710320Y-96790732D01*
X135582633Y-96722482D01*
X135444085Y-96680454D01*
X135336105Y-96669819D01*
X135336103Y-96669819D01*
X135300001Y-96666263D01*
X135263896Y-96669819D01*
X134531283Y-96669819D01*
X134495178Y-96666263D01*
X134459076Y-96669819D01*
X134459075Y-96669819D01*
X134351095Y-96680454D01*
X134212547Y-96722482D01*
X134084860Y-96790732D01*
X133994364Y-96865000D01*
X133800816Y-96865000D01*
X133710320Y-96790732D01*
X133582633Y-96722482D01*
X133444085Y-96680454D01*
X133336105Y-96669819D01*
X133336103Y-96669819D01*
X133300001Y-96666263D01*
X133263896Y-96669819D01*
X132531283Y-96669819D01*
X132495178Y-96666263D01*
X132459076Y-96669819D01*
X132459075Y-96669819D01*
X132351095Y-96680454D01*
X132212547Y-96722482D01*
X132084860Y-96790732D01*
X131994364Y-96865000D01*
X131800816Y-96865000D01*
X131710320Y-96790732D01*
X131582633Y-96722482D01*
X131444085Y-96680454D01*
X131336105Y-96669819D01*
X131336103Y-96669819D01*
X131300001Y-96666263D01*
X131263896Y-96669819D01*
X130531283Y-96669819D01*
X130495178Y-96666263D01*
X130459076Y-96669819D01*
X130459075Y-96669819D01*
X130351095Y-96680454D01*
X130212547Y-96722482D01*
X130140460Y-96761013D01*
X129143058Y-95763612D01*
X129120038Y-95735562D01*
X129008120Y-95643713D01*
X128880433Y-95575463D01*
X128757176Y-95538073D01*
X128794200Y-95351939D01*
X128794200Y-95254446D01*
X129303648Y-94744999D01*
X130596234Y-94744999D01*
X130689681Y-94821689D01*
G37*
G04 #@! TD.AperFunction*
M02*
