%FSLAX45Y45*%
G04 Gerber Fmt 4.5, Leading zero omitted, Abs format (unit mm)*
G04 Created by KiCad (PCBNEW (5.1.12)-1) date 2021-12-17 13:11:07*
%MOMM*%
%LPD*%
G01*
G04 APERTURE LIST*
%TA.AperFunction,Profile*%
%ADD10C,0.050000*%
%TD*%
%ADD11C,0.200000*%
%ADD12C,0.300000*%
G04 APERTURE END LIST*
D10*
X16130000Y-11640000D02*
X11130000Y-11640000D01*
X16130000Y-7540000D02*
X16130000Y-11640000D01*
X11130000Y-11640000D02*
X11130000Y-7540000D01*
X11130000Y-7540000D02*
X16130000Y-7540000D01*
D11*
X11930420Y-9763260D02*
X11970420Y-9803260D01*
X11970420Y-9763260D02*
X11930420Y-9803260D01*
X11932960Y-9356860D02*
X11972960Y-9396860D01*
X11972960Y-9356860D02*
X11932960Y-9396860D01*
X12755920Y-9405000D02*
X12795920Y-9445000D01*
X12795920Y-9405000D02*
X12755920Y-9445000D01*
X12755920Y-9505000D02*
X12795920Y-9545000D01*
X12795920Y-9505000D02*
X12755920Y-9545000D01*
X12755920Y-9605780D02*
X12795920Y-9645780D01*
X12795920Y-9605780D02*
X12755920Y-9645780D01*
X12755920Y-9707380D02*
X12795920Y-9747380D01*
X12795920Y-9707380D02*
X12755920Y-9747380D01*
X12957431Y-9910001D02*
X12997431Y-9950001D01*
X12997431Y-9910001D02*
X12957431Y-9950001D01*
X13028557Y-9210999D02*
X13068557Y-9250999D01*
X13068557Y-9210999D02*
X13028557Y-9250999D01*
X13060000Y-9560000D02*
X13100000Y-9600000D01*
X13100000Y-9560000D02*
X13060000Y-9600000D01*
X13090941Y-9910001D02*
X13130941Y-9950001D01*
X13130941Y-9910001D02*
X13090941Y-9950001D01*
X13162306Y-9210999D02*
X13202306Y-9250999D01*
X13202306Y-9210999D02*
X13162306Y-9250999D01*
X13224451Y-9910001D02*
X13264451Y-9950001D01*
X13264451Y-9910001D02*
X13224451Y-9950001D01*
X13296056Y-9210999D02*
X13336056Y-9250999D01*
X13336056Y-9210999D02*
X13296056Y-9250999D01*
X13357961Y-9910001D02*
X13397961Y-9950001D01*
X13397961Y-9910001D02*
X13357961Y-9950001D01*
X13410000Y-9560000D02*
X13450000Y-9600000D01*
X13450000Y-9560000D02*
X13410000Y-9600000D01*
X13413780Y-8239260D02*
X13453780Y-8279260D01*
X13453780Y-8239260D02*
X13413780Y-8279260D01*
X13429805Y-9210999D02*
X13469805Y-9250999D01*
X13469805Y-9210999D02*
X13429805Y-9250999D01*
X13491471Y-9910001D02*
X13531471Y-9950001D01*
X13531471Y-9910001D02*
X13491471Y-9950001D01*
X13563555Y-9210999D02*
X13603555Y-9250999D01*
X13603555Y-9210999D02*
X13563555Y-9250999D01*
X13610000Y-8410000D02*
X13650000Y-8450000D01*
X13650000Y-8410000D02*
X13610000Y-8450000D01*
X13620000Y-8780000D02*
X13660000Y-8820000D01*
X13660000Y-8780000D02*
X13620000Y-8820000D01*
X13624981Y-9910001D02*
X13664981Y-9950001D01*
X13664981Y-9910001D02*
X13624981Y-9950001D01*
X13697305Y-9210999D02*
X13737305Y-9250999D01*
X13737305Y-9210999D02*
X13697305Y-9250999D01*
X13758491Y-9910001D02*
X13798491Y-9950001D01*
X13798491Y-9910001D02*
X13758491Y-9950001D01*
X13810000Y-9560000D02*
X13850000Y-9600000D01*
X13850000Y-9560000D02*
X13810000Y-9600000D01*
X13831054Y-9210999D02*
X13871054Y-9250999D01*
X13871054Y-9210999D02*
X13831054Y-9250999D01*
X14310000Y-10420000D02*
X14350000Y-10460000D01*
X14350000Y-10420000D02*
X14310000Y-10460000D01*
X14540000Y-9600000D02*
X14580000Y-9640000D01*
X14580000Y-9600000D02*
X14540000Y-9640000D01*
X14650000Y-10120000D02*
X14690000Y-10160000D01*
X14690000Y-10120000D02*
X14650000Y-10160000D01*
X11524600Y-8287200D02*
G75*
G03*
X11524600Y-8287200I-25000J0D01*
G01*
X11524600Y-10867840D02*
G75*
G03*
X11524600Y-10867840I-25000J0D01*
G01*
X11594894Y-8117494D02*
G75*
G03*
X11594894Y-8117494I-25000J0D01*
G01*
X11594894Y-8456906D02*
G75*
G03*
X11594894Y-8456906I-25000J0D01*
G01*
X11594894Y-10698134D02*
G75*
G03*
X11594894Y-10698134I-25000J0D01*
G01*
X11594894Y-11037546D02*
G75*
G03*
X11594894Y-11037546I-25000J0D01*
G01*
X11764600Y-8047200D02*
G75*
G03*
X11764600Y-8047200I-25000J0D01*
G01*
X11764600Y-8527200D02*
G75*
G03*
X11764600Y-8527200I-25000J0D01*
G01*
X11764600Y-10627840D02*
G75*
G03*
X11764600Y-10627840I-25000J0D01*
G01*
X11764600Y-11107840D02*
G75*
G03*
X11764600Y-11107840I-25000J0D01*
G01*
X11934306Y-8117494D02*
G75*
G03*
X11934306Y-8117494I-25000J0D01*
G01*
X11934306Y-8456906D02*
G75*
G03*
X11934306Y-8456906I-25000J0D01*
G01*
X11934306Y-10698134D02*
G75*
G03*
X11934306Y-10698134I-25000J0D01*
G01*
X11934306Y-11037546D02*
G75*
G03*
X11934306Y-11037546I-25000J0D01*
G01*
X12004600Y-8287200D02*
G75*
G03*
X12004600Y-8287200I-25000J0D01*
G01*
X12004600Y-10867840D02*
G75*
G03*
X12004600Y-10867840I-25000J0D01*
G01*
X11401780Y-9542600D02*
X11401780Y-9622600D01*
X11361780Y-9582600D02*
X11441780Y-9582600D01*
X12400000Y-10584000D02*
X12400000Y-10664000D01*
X12360000Y-10624000D02*
X12440000Y-10624000D01*
X12400000Y-11092000D02*
X12400000Y-11172000D01*
X12360000Y-11132000D02*
X12440000Y-11132000D01*
X12831800Y-9072700D02*
X12831800Y-9152700D01*
X12791800Y-9112700D02*
X12871800Y-9112700D01*
X13162000Y-10584000D02*
X13162000Y-10664000D01*
X13122000Y-10624000D02*
X13202000Y-10624000D01*
X13162000Y-11092000D02*
X13162000Y-11172000D01*
X13122000Y-11132000D02*
X13202000Y-11132000D01*
X13770000Y-7770000D02*
X13770000Y-7850000D01*
X13730000Y-7810000D02*
X13810000Y-7810000D01*
X13924000Y-10584000D02*
X13924000Y-10664000D01*
X13884000Y-10624000D02*
X13964000Y-10624000D01*
X13924000Y-11092000D02*
X13924000Y-11172000D01*
X13884000Y-11132000D02*
X13964000Y-11132000D01*
X14230000Y-8100000D02*
X14230000Y-8180000D01*
X14190000Y-8140000D02*
X14270000Y-8140000D01*
X14630000Y-8500000D02*
X14630000Y-8580000D01*
X14590000Y-8540000D02*
X14670000Y-8540000D01*
X14930000Y-8100000D02*
X14930000Y-8180000D01*
X14890000Y-8140000D02*
X14970000Y-8140000D01*
X15030000Y-10800000D02*
X15030000Y-10880000D01*
X14990000Y-10840000D02*
X15070000Y-10840000D01*
X15030000Y-11300000D02*
X15030000Y-11380000D01*
X14990000Y-11340000D02*
X15070000Y-11340000D01*
X15530000Y-8100000D02*
X15530000Y-8180000D01*
X15490000Y-8140000D02*
X15570000Y-8140000D01*
X15630000Y-10800000D02*
X15630000Y-10880000D01*
X15590000Y-10840000D02*
X15670000Y-10840000D01*
X15630000Y-11300000D02*
X15630000Y-11380000D01*
X15590000Y-11340000D02*
X15670000Y-11340000D01*
X14157820Y-9283820D02*
X14157820Y-9220180D01*
X14094180Y-9220180D01*
X14094180Y-9283820D01*
X14157820Y-9283820D01*
X14157820Y-9537820D02*
X14157820Y-9474180D01*
X14094180Y-9474180D01*
X14094180Y-9537820D01*
X14157820Y-9537820D01*
X14157820Y-9791820D02*
X14157820Y-9728180D01*
X14094180Y-9728180D01*
X14094180Y-9791820D01*
X14157820Y-9791820D01*
X14157820Y-10045820D02*
X14157820Y-9982180D01*
X14094180Y-9982180D01*
X14094180Y-10045820D01*
X14157820Y-10045820D01*
X14157820Y-10299820D02*
X14157820Y-10236180D01*
X14094180Y-10236180D01*
X14094180Y-10299820D01*
X14157820Y-10299820D01*
X14411820Y-9156820D02*
X14411820Y-9093180D01*
X14348180Y-9093180D01*
X14348180Y-9156820D01*
X14411820Y-9156820D01*
X14411820Y-9410820D02*
X14411820Y-9347180D01*
X14348180Y-9347180D01*
X14348180Y-9410820D01*
X14411820Y-9410820D01*
X14411820Y-9664820D02*
X14411820Y-9601180D01*
X14348180Y-9601180D01*
X14348180Y-9664820D01*
X14411820Y-9664820D01*
X14411820Y-9918820D02*
X14411820Y-9855180D01*
X14348180Y-9855180D01*
X14348180Y-9918820D01*
X14411820Y-9918820D01*
X14411820Y-10172820D02*
X14411820Y-10109180D01*
X14348180Y-10109180D01*
X14348180Y-10172820D01*
X14411820Y-10172820D01*
X15472000Y-9087600D02*
X15523000Y-9036600D01*
X15472000Y-8985600D01*
X15421000Y-9036600D01*
X15472000Y-9087600D01*
X15472000Y-10432600D02*
X15523000Y-10381600D01*
X15472000Y-10330600D01*
X15421000Y-10381600D01*
X15472000Y-10432600D01*
X15675000Y-9087600D02*
X15726000Y-9036600D01*
X15675000Y-8985600D01*
X15624000Y-9036600D01*
X15675000Y-9087600D01*
X15675000Y-10432600D02*
X15726000Y-10381600D01*
X15675000Y-10330600D01*
X15624000Y-10381600D01*
X15675000Y-10432600D01*
X12765760Y-8195760D02*
X12892760Y-8322760D01*
X12892760Y-8195760D02*
X12765760Y-8322760D01*
X12892760Y-8259260D02*
G75*
G03*
X12892760Y-8259260I-63500J0D01*
G01*
X12435560Y-7865560D02*
X12587960Y-8017960D01*
X12587960Y-7865560D02*
X12435560Y-8017960D01*
X12511760Y-7865560D02*
X12511760Y-8017960D01*
X12435560Y-7941760D02*
X12587960Y-7941760D01*
X12435560Y-8500560D02*
X12587960Y-8652960D01*
X12587960Y-8500560D02*
X12435560Y-8652960D01*
X12511760Y-8500560D02*
X12511760Y-8652960D01*
X12435560Y-8576760D02*
X12587960Y-8576760D01*
X13070560Y-7865560D02*
X13222960Y-8017960D01*
X13222960Y-7865560D02*
X13070560Y-8017960D01*
X13146760Y-7865560D02*
X13146760Y-8017960D01*
X13070560Y-7941760D02*
X13222960Y-7941760D01*
X13070560Y-8500560D02*
X13222960Y-8652960D01*
X13222960Y-8500560D02*
X13070560Y-8652960D01*
X13146760Y-8500560D02*
X13146760Y-8652960D01*
X13070560Y-8576760D02*
X13222960Y-8576760D01*
X14630000Y-8842000D02*
X14790000Y-9002000D01*
X14790000Y-8842000D02*
X14630000Y-9002000D01*
X14766569Y-8978569D02*
X14766569Y-8865431D01*
X14653431Y-8865431D01*
X14653431Y-8978569D01*
X14766569Y-8978569D01*
X14630200Y-10416600D02*
X14790200Y-10576600D01*
X14790200Y-10416600D02*
X14630200Y-10576600D01*
X14766769Y-10553169D02*
X14766769Y-10440031D01*
X14653631Y-10440031D01*
X14653631Y-10553169D01*
X14766769Y-10553169D01*
X11579600Y-8127200D02*
X11899600Y-8447200D01*
X11899600Y-8127200D02*
X11579600Y-8447200D01*
X11739600Y-8447200D02*
X11899600Y-8287200D01*
X11739600Y-8127200D01*
X11579600Y-8287200D01*
X11739600Y-8447200D01*
X11579600Y-10707840D02*
X11899600Y-11027840D01*
X11899600Y-10707840D02*
X11579600Y-11027840D01*
X11739600Y-11027840D02*
X11899600Y-10867840D01*
X11739600Y-10707840D01*
X11579600Y-10867840D01*
X11739600Y-11027840D01*
D12*
X11413928Y-12108214D02*
X11413928Y-11808214D01*
X11485357Y-11808214D01*
X11528214Y-11822500D01*
X11556786Y-11851071D01*
X11571071Y-11879643D01*
X11585357Y-11936786D01*
X11585357Y-11979643D01*
X11571071Y-12036786D01*
X11556786Y-12065357D01*
X11528214Y-12093929D01*
X11485357Y-12108214D01*
X11413928Y-12108214D01*
X11713928Y-12108214D02*
X11713928Y-11908214D01*
X11713928Y-11965357D02*
X11728214Y-11936786D01*
X11742500Y-11922500D01*
X11771071Y-11908214D01*
X11799643Y-11908214D01*
X11899643Y-12108214D02*
X11899643Y-11908214D01*
X11899643Y-11808214D02*
X11885357Y-11822500D01*
X11899643Y-11836786D01*
X11913928Y-11822500D01*
X11899643Y-11808214D01*
X11899643Y-11836786D01*
X12085357Y-12108214D02*
X12056786Y-12093929D01*
X12042500Y-12065357D01*
X12042500Y-11808214D01*
X12242500Y-12108214D02*
X12213928Y-12093929D01*
X12199643Y-12065357D01*
X12199643Y-11808214D01*
X12585357Y-12108214D02*
X12585357Y-11808214D01*
X12685357Y-12022500D01*
X12785357Y-11808214D01*
X12785357Y-12108214D01*
X13056786Y-12108214D02*
X13056786Y-11951071D01*
X13042500Y-11922500D01*
X13013928Y-11908214D01*
X12956786Y-11908214D01*
X12928214Y-11922500D01*
X13056786Y-12093929D02*
X13028214Y-12108214D01*
X12956786Y-12108214D01*
X12928214Y-12093929D01*
X12913928Y-12065357D01*
X12913928Y-12036786D01*
X12928214Y-12008214D01*
X12956786Y-11993929D01*
X13028214Y-11993929D01*
X13056786Y-11979643D01*
X13199643Y-11908214D02*
X13199643Y-12208214D01*
X13199643Y-11922500D02*
X13228214Y-11908214D01*
X13285357Y-11908214D01*
X13313928Y-11922500D01*
X13328214Y-11936786D01*
X13342500Y-11965357D01*
X13342500Y-12051071D01*
X13328214Y-12079643D01*
X13313928Y-12093929D01*
X13285357Y-12108214D01*
X13228214Y-12108214D01*
X13199643Y-12093929D01*
X13471071Y-12079643D02*
X13485357Y-12093929D01*
X13471071Y-12108214D01*
X13456786Y-12093929D01*
X13471071Y-12079643D01*
X13471071Y-12108214D01*
X13471071Y-11922500D02*
X13485357Y-11936786D01*
X13471071Y-11951071D01*
X13456786Y-11936786D01*
X13471071Y-11922500D01*
X13471071Y-11951071D01*
X11087500Y-12582500D02*
X11127500Y-12622500D01*
X11127500Y-12582500D02*
X11087500Y-12622500D01*
X11471071Y-12438214D02*
X11499643Y-12438214D01*
X11528214Y-12452500D01*
X11542500Y-12466786D01*
X11556786Y-12495357D01*
X11571071Y-12552500D01*
X11571071Y-12623929D01*
X11556786Y-12681071D01*
X11542500Y-12709643D01*
X11528214Y-12723929D01*
X11499643Y-12738214D01*
X11471071Y-12738214D01*
X11442500Y-12723929D01*
X11428214Y-12709643D01*
X11413928Y-12681071D01*
X11399643Y-12623929D01*
X11399643Y-12552500D01*
X11413928Y-12495357D01*
X11428214Y-12466786D01*
X11442500Y-12452500D01*
X11471071Y-12438214D01*
X11699643Y-12709643D02*
X11713928Y-12723929D01*
X11699643Y-12738214D01*
X11685357Y-12723929D01*
X11699643Y-12709643D01*
X11699643Y-12738214D01*
X11971071Y-12538214D02*
X11971071Y-12738214D01*
X11899643Y-12423929D02*
X11828214Y-12638214D01*
X12013928Y-12638214D01*
X12185357Y-12438214D02*
X12213928Y-12438214D01*
X12242500Y-12452500D01*
X12256786Y-12466786D01*
X12271071Y-12495357D01*
X12285357Y-12552500D01*
X12285357Y-12623929D01*
X12271071Y-12681071D01*
X12256786Y-12709643D01*
X12242500Y-12723929D01*
X12213928Y-12738214D01*
X12185357Y-12738214D01*
X12156786Y-12723929D01*
X12142500Y-12709643D01*
X12128214Y-12681071D01*
X12113928Y-12623929D01*
X12113928Y-12552500D01*
X12128214Y-12495357D01*
X12142500Y-12466786D01*
X12156786Y-12452500D01*
X12185357Y-12438214D01*
X12471071Y-12438214D02*
X12499643Y-12438214D01*
X12528214Y-12452500D01*
X12542500Y-12466786D01*
X12556786Y-12495357D01*
X12571071Y-12552500D01*
X12571071Y-12623929D01*
X12556786Y-12681071D01*
X12542500Y-12709643D01*
X12528214Y-12723929D01*
X12499643Y-12738214D01*
X12471071Y-12738214D01*
X12442500Y-12723929D01*
X12428214Y-12709643D01*
X12413928Y-12681071D01*
X12399643Y-12623929D01*
X12399643Y-12552500D01*
X12413928Y-12495357D01*
X12428214Y-12466786D01*
X12442500Y-12452500D01*
X12471071Y-12438214D01*
X12699643Y-12738214D02*
X12699643Y-12538214D01*
X12699643Y-12566786D02*
X12713928Y-12552500D01*
X12742500Y-12538214D01*
X12785357Y-12538214D01*
X12813928Y-12552500D01*
X12828214Y-12581071D01*
X12828214Y-12738214D01*
X12828214Y-12581071D02*
X12842500Y-12552500D01*
X12871071Y-12538214D01*
X12913928Y-12538214D01*
X12942500Y-12552500D01*
X12956786Y-12581071D01*
X12956786Y-12738214D01*
X13099643Y-12738214D02*
X13099643Y-12538214D01*
X13099643Y-12566786D02*
X13113928Y-12552500D01*
X13142500Y-12538214D01*
X13185357Y-12538214D01*
X13213928Y-12552500D01*
X13228214Y-12581071D01*
X13228214Y-12738214D01*
X13228214Y-12581071D02*
X13242500Y-12552500D01*
X13271071Y-12538214D01*
X13313928Y-12538214D01*
X13342500Y-12552500D01*
X13356786Y-12581071D01*
X13356786Y-12738214D01*
X13942500Y-12423929D02*
X13685357Y-12809643D01*
X14328214Y-12438214D02*
X14356786Y-12438214D01*
X14385357Y-12452500D01*
X14399643Y-12466786D01*
X14413928Y-12495357D01*
X14428214Y-12552500D01*
X14428214Y-12623929D01*
X14413928Y-12681071D01*
X14399643Y-12709643D01*
X14385357Y-12723929D01*
X14356786Y-12738214D01*
X14328214Y-12738214D01*
X14299643Y-12723929D01*
X14285357Y-12709643D01*
X14271071Y-12681071D01*
X14256786Y-12623929D01*
X14256786Y-12552500D01*
X14271071Y-12495357D01*
X14285357Y-12466786D01*
X14299643Y-12452500D01*
X14328214Y-12438214D01*
X14556786Y-12709643D02*
X14571071Y-12723929D01*
X14556786Y-12738214D01*
X14542500Y-12723929D01*
X14556786Y-12709643D01*
X14556786Y-12738214D01*
X14756786Y-12438214D02*
X14785357Y-12438214D01*
X14813928Y-12452500D01*
X14828214Y-12466786D01*
X14842500Y-12495357D01*
X14856786Y-12552500D01*
X14856786Y-12623929D01*
X14842500Y-12681071D01*
X14828214Y-12709643D01*
X14813928Y-12723929D01*
X14785357Y-12738214D01*
X14756786Y-12738214D01*
X14728214Y-12723929D01*
X14713928Y-12709643D01*
X14699643Y-12681071D01*
X14685357Y-12623929D01*
X14685357Y-12552500D01*
X14699643Y-12495357D01*
X14713928Y-12466786D01*
X14728214Y-12452500D01*
X14756786Y-12438214D01*
X15142500Y-12738214D02*
X14971071Y-12738214D01*
X15056786Y-12738214D02*
X15056786Y-12438214D01*
X15028214Y-12481071D01*
X14999643Y-12509643D01*
X14971071Y-12523929D01*
X15413928Y-12438214D02*
X15271071Y-12438214D01*
X15256786Y-12581071D01*
X15271071Y-12566786D01*
X15299643Y-12552500D01*
X15371071Y-12552500D01*
X15399643Y-12566786D01*
X15413928Y-12581071D01*
X15428214Y-12609643D01*
X15428214Y-12681071D01*
X15413928Y-12709643D01*
X15399643Y-12723929D01*
X15371071Y-12738214D01*
X15299643Y-12738214D01*
X15271071Y-12723929D01*
X15256786Y-12709643D01*
X15528214Y-12438214D02*
X15728214Y-12438214D01*
X15599643Y-12738214D01*
X15828214Y-12438214D02*
X15828214Y-12495357D01*
X15942500Y-12438214D02*
X15942500Y-12495357D01*
X16385357Y-12852500D02*
X16371071Y-12838214D01*
X16342500Y-12795357D01*
X16328214Y-12766786D01*
X16313928Y-12723929D01*
X16299643Y-12652500D01*
X16299643Y-12595357D01*
X16313928Y-12523929D01*
X16328214Y-12481071D01*
X16342500Y-12452500D01*
X16371071Y-12409643D01*
X16385357Y-12395357D01*
X16485357Y-12466786D02*
X16499643Y-12452500D01*
X16528214Y-12438214D01*
X16599643Y-12438214D01*
X16628214Y-12452500D01*
X16642500Y-12466786D01*
X16656786Y-12495357D01*
X16656786Y-12523929D01*
X16642500Y-12566786D01*
X16471071Y-12738214D01*
X16656786Y-12738214D01*
X16799643Y-12738214D02*
X16856786Y-12738214D01*
X16885357Y-12723929D01*
X16899643Y-12709643D01*
X16928214Y-12666786D01*
X16942500Y-12609643D01*
X16942500Y-12495357D01*
X16928214Y-12466786D01*
X16913928Y-12452500D01*
X16885357Y-12438214D01*
X16828214Y-12438214D01*
X16799643Y-12452500D01*
X16785357Y-12466786D01*
X16771071Y-12495357D01*
X16771071Y-12566786D01*
X16785357Y-12595357D01*
X16799643Y-12609643D01*
X16828214Y-12623929D01*
X16885357Y-12623929D01*
X16913928Y-12609643D01*
X16928214Y-12595357D01*
X16942500Y-12566786D01*
X17299643Y-12738214D02*
X17299643Y-12438214D01*
X17428214Y-12738214D02*
X17428214Y-12581071D01*
X17413928Y-12552500D01*
X17385357Y-12538214D01*
X17342500Y-12538214D01*
X17313928Y-12552500D01*
X17299643Y-12566786D01*
X17613928Y-12738214D02*
X17585357Y-12723929D01*
X17571071Y-12709643D01*
X17556786Y-12681071D01*
X17556786Y-12595357D01*
X17571071Y-12566786D01*
X17585357Y-12552500D01*
X17613928Y-12538214D01*
X17656786Y-12538214D01*
X17685357Y-12552500D01*
X17699643Y-12566786D01*
X17713928Y-12595357D01*
X17713928Y-12681071D01*
X17699643Y-12709643D01*
X17685357Y-12723929D01*
X17656786Y-12738214D01*
X17613928Y-12738214D01*
X17885357Y-12738214D02*
X17856786Y-12723929D01*
X17842500Y-12695357D01*
X17842500Y-12438214D01*
X18113928Y-12723929D02*
X18085357Y-12738214D01*
X18028214Y-12738214D01*
X17999643Y-12723929D01*
X17985357Y-12695357D01*
X17985357Y-12581071D01*
X17999643Y-12552500D01*
X18028214Y-12538214D01*
X18085357Y-12538214D01*
X18113928Y-12552500D01*
X18128214Y-12581071D01*
X18128214Y-12609643D01*
X17985357Y-12638214D01*
X18242500Y-12723929D02*
X18271071Y-12738214D01*
X18328214Y-12738214D01*
X18356786Y-12723929D01*
X18371071Y-12695357D01*
X18371071Y-12681071D01*
X18356786Y-12652500D01*
X18328214Y-12638214D01*
X18285357Y-12638214D01*
X18256786Y-12623929D01*
X18242500Y-12595357D01*
X18242500Y-12581071D01*
X18256786Y-12552500D01*
X18285357Y-12538214D01*
X18328214Y-12538214D01*
X18356786Y-12552500D01*
X18471071Y-12852500D02*
X18485357Y-12838214D01*
X18513928Y-12795357D01*
X18528214Y-12766786D01*
X18542500Y-12723929D01*
X18556786Y-12652500D01*
X18556786Y-12595357D01*
X18542500Y-12523929D01*
X18528214Y-12481071D01*
X18513928Y-12452500D01*
X18485357Y-12409643D01*
X18471071Y-12395357D01*
X11127500Y-12998500D02*
G75*
G03*
X11127500Y-12998500I-25000J0D01*
G01*
X11471071Y-12834214D02*
X11499643Y-12834214D01*
X11528214Y-12848500D01*
X11542500Y-12862786D01*
X11556786Y-12891357D01*
X11571071Y-12948500D01*
X11571071Y-13019929D01*
X11556786Y-13077071D01*
X11542500Y-13105643D01*
X11528214Y-13119929D01*
X11499643Y-13134214D01*
X11471071Y-13134214D01*
X11442500Y-13119929D01*
X11428214Y-13105643D01*
X11413928Y-13077071D01*
X11399643Y-13019929D01*
X11399643Y-12948500D01*
X11413928Y-12891357D01*
X11428214Y-12862786D01*
X11442500Y-12848500D01*
X11471071Y-12834214D01*
X11699643Y-13105643D02*
X11713928Y-13119929D01*
X11699643Y-13134214D01*
X11685357Y-13119929D01*
X11699643Y-13105643D01*
X11699643Y-13134214D01*
X11985357Y-12834214D02*
X11842500Y-12834214D01*
X11828214Y-12977071D01*
X11842500Y-12962786D01*
X11871071Y-12948500D01*
X11942500Y-12948500D01*
X11971071Y-12962786D01*
X11985357Y-12977071D01*
X11999643Y-13005643D01*
X11999643Y-13077071D01*
X11985357Y-13105643D01*
X11971071Y-13119929D01*
X11942500Y-13134214D01*
X11871071Y-13134214D01*
X11842500Y-13119929D01*
X11828214Y-13105643D01*
X12185357Y-12834214D02*
X12213928Y-12834214D01*
X12242500Y-12848500D01*
X12256786Y-12862786D01*
X12271071Y-12891357D01*
X12285357Y-12948500D01*
X12285357Y-13019929D01*
X12271071Y-13077071D01*
X12256786Y-13105643D01*
X12242500Y-13119929D01*
X12213928Y-13134214D01*
X12185357Y-13134214D01*
X12156786Y-13119929D01*
X12142500Y-13105643D01*
X12128214Y-13077071D01*
X12113928Y-13019929D01*
X12113928Y-12948500D01*
X12128214Y-12891357D01*
X12142500Y-12862786D01*
X12156786Y-12848500D01*
X12185357Y-12834214D01*
X12471071Y-12834214D02*
X12499643Y-12834214D01*
X12528214Y-12848500D01*
X12542500Y-12862786D01*
X12556786Y-12891357D01*
X12571071Y-12948500D01*
X12571071Y-13019929D01*
X12556786Y-13077071D01*
X12542500Y-13105643D01*
X12528214Y-13119929D01*
X12499643Y-13134214D01*
X12471071Y-13134214D01*
X12442500Y-13119929D01*
X12428214Y-13105643D01*
X12413928Y-13077071D01*
X12399643Y-13019929D01*
X12399643Y-12948500D01*
X12413928Y-12891357D01*
X12428214Y-12862786D01*
X12442500Y-12848500D01*
X12471071Y-12834214D01*
X12699643Y-13134214D02*
X12699643Y-12934214D01*
X12699643Y-12962786D02*
X12713928Y-12948500D01*
X12742500Y-12934214D01*
X12785357Y-12934214D01*
X12813928Y-12948500D01*
X12828214Y-12977071D01*
X12828214Y-13134214D01*
X12828214Y-12977071D02*
X12842500Y-12948500D01*
X12871071Y-12934214D01*
X12913928Y-12934214D01*
X12942500Y-12948500D01*
X12956786Y-12977071D01*
X12956786Y-13134214D01*
X13099643Y-13134214D02*
X13099643Y-12934214D01*
X13099643Y-12962786D02*
X13113928Y-12948500D01*
X13142500Y-12934214D01*
X13185357Y-12934214D01*
X13213928Y-12948500D01*
X13228214Y-12977071D01*
X13228214Y-13134214D01*
X13228214Y-12977071D02*
X13242500Y-12948500D01*
X13271071Y-12934214D01*
X13313928Y-12934214D01*
X13342500Y-12948500D01*
X13356786Y-12977071D01*
X13356786Y-13134214D01*
X13942500Y-12819929D02*
X13685357Y-13205643D01*
X14328214Y-12834214D02*
X14356786Y-12834214D01*
X14385357Y-12848500D01*
X14399643Y-12862786D01*
X14413928Y-12891357D01*
X14428214Y-12948500D01*
X14428214Y-13019929D01*
X14413928Y-13077071D01*
X14399643Y-13105643D01*
X14385357Y-13119929D01*
X14356786Y-13134214D01*
X14328214Y-13134214D01*
X14299643Y-13119929D01*
X14285357Y-13105643D01*
X14271071Y-13077071D01*
X14256786Y-13019929D01*
X14256786Y-12948500D01*
X14271071Y-12891357D01*
X14285357Y-12862786D01*
X14299643Y-12848500D01*
X14328214Y-12834214D01*
X14556786Y-13105643D02*
X14571071Y-13119929D01*
X14556786Y-13134214D01*
X14542500Y-13119929D01*
X14556786Y-13105643D01*
X14556786Y-13134214D01*
X14756786Y-12834214D02*
X14785357Y-12834214D01*
X14813928Y-12848500D01*
X14828214Y-12862786D01*
X14842500Y-12891357D01*
X14856786Y-12948500D01*
X14856786Y-13019929D01*
X14842500Y-13077071D01*
X14828214Y-13105643D01*
X14813928Y-13119929D01*
X14785357Y-13134214D01*
X14756786Y-13134214D01*
X14728214Y-13119929D01*
X14713928Y-13105643D01*
X14699643Y-13077071D01*
X14685357Y-13019929D01*
X14685357Y-12948500D01*
X14699643Y-12891357D01*
X14713928Y-12862786D01*
X14728214Y-12848500D01*
X14756786Y-12834214D01*
X15142500Y-13134214D02*
X14971071Y-13134214D01*
X15056786Y-13134214D02*
X15056786Y-12834214D01*
X15028214Y-12877071D01*
X14999643Y-12905643D01*
X14971071Y-12919929D01*
X15285357Y-13134214D02*
X15342500Y-13134214D01*
X15371071Y-13119929D01*
X15385357Y-13105643D01*
X15413928Y-13062786D01*
X15428214Y-13005643D01*
X15428214Y-12891357D01*
X15413928Y-12862786D01*
X15399643Y-12848500D01*
X15371071Y-12834214D01*
X15313928Y-12834214D01*
X15285357Y-12848500D01*
X15271071Y-12862786D01*
X15256786Y-12891357D01*
X15256786Y-12962786D01*
X15271071Y-12991357D01*
X15285357Y-13005643D01*
X15313928Y-13019929D01*
X15371071Y-13019929D01*
X15399643Y-13005643D01*
X15413928Y-12991357D01*
X15428214Y-12962786D01*
X15528214Y-12834214D02*
X15728214Y-12834214D01*
X15599643Y-13134214D01*
X15828214Y-12834214D02*
X15828214Y-12891357D01*
X15942500Y-12834214D02*
X15942500Y-12891357D01*
X16385357Y-13248500D02*
X16371071Y-13234214D01*
X16342500Y-13191357D01*
X16328214Y-13162786D01*
X16313928Y-13119929D01*
X16299643Y-13048500D01*
X16299643Y-12991357D01*
X16313928Y-12919929D01*
X16328214Y-12877071D01*
X16342500Y-12848500D01*
X16371071Y-12805643D01*
X16385357Y-12791357D01*
X16656786Y-13134214D02*
X16485357Y-13134214D01*
X16571071Y-13134214D02*
X16571071Y-12834214D01*
X16542500Y-12877071D01*
X16513928Y-12905643D01*
X16485357Y-12919929D01*
X16913928Y-12834214D02*
X16856786Y-12834214D01*
X16828214Y-12848500D01*
X16813928Y-12862786D01*
X16785357Y-12905643D01*
X16771071Y-12962786D01*
X16771071Y-13077071D01*
X16785357Y-13105643D01*
X16799643Y-13119929D01*
X16828214Y-13134214D01*
X16885357Y-13134214D01*
X16913928Y-13119929D01*
X16928214Y-13105643D01*
X16942500Y-13077071D01*
X16942500Y-13005643D01*
X16928214Y-12977071D01*
X16913928Y-12962786D01*
X16885357Y-12948500D01*
X16828214Y-12948500D01*
X16799643Y-12962786D01*
X16785357Y-12977071D01*
X16771071Y-13005643D01*
X17299643Y-13134214D02*
X17299643Y-12834214D01*
X17428214Y-13134214D02*
X17428214Y-12977071D01*
X17413928Y-12948500D01*
X17385357Y-12934214D01*
X17342500Y-12934214D01*
X17313928Y-12948500D01*
X17299643Y-12962786D01*
X17613928Y-13134214D02*
X17585357Y-13119929D01*
X17571071Y-13105643D01*
X17556786Y-13077071D01*
X17556786Y-12991357D01*
X17571071Y-12962786D01*
X17585357Y-12948500D01*
X17613928Y-12934214D01*
X17656786Y-12934214D01*
X17685357Y-12948500D01*
X17699643Y-12962786D01*
X17713928Y-12991357D01*
X17713928Y-13077071D01*
X17699643Y-13105643D01*
X17685357Y-13119929D01*
X17656786Y-13134214D01*
X17613928Y-13134214D01*
X17885357Y-13134214D02*
X17856786Y-13119929D01*
X17842500Y-13091357D01*
X17842500Y-12834214D01*
X18113928Y-13119929D02*
X18085357Y-13134214D01*
X18028214Y-13134214D01*
X17999643Y-13119929D01*
X17985357Y-13091357D01*
X17985357Y-12977071D01*
X17999643Y-12948500D01*
X18028214Y-12934214D01*
X18085357Y-12934214D01*
X18113928Y-12948500D01*
X18128214Y-12977071D01*
X18128214Y-13005643D01*
X17985357Y-13034214D01*
X18242500Y-13119929D02*
X18271071Y-13134214D01*
X18328214Y-13134214D01*
X18356786Y-13119929D01*
X18371071Y-13091357D01*
X18371071Y-13077071D01*
X18356786Y-13048500D01*
X18328214Y-13034214D01*
X18285357Y-13034214D01*
X18256786Y-13019929D01*
X18242500Y-12991357D01*
X18242500Y-12977071D01*
X18256786Y-12948500D01*
X18285357Y-12934214D01*
X18328214Y-12934214D01*
X18356786Y-12948500D01*
X18471071Y-13248500D02*
X18485357Y-13234214D01*
X18513928Y-13191357D01*
X18528214Y-13162786D01*
X18542500Y-13119929D01*
X18556786Y-13048500D01*
X18556786Y-12991357D01*
X18542500Y-12919929D01*
X18528214Y-12877071D01*
X18513928Y-12848500D01*
X18485357Y-12805643D01*
X18471071Y-12791357D01*
X11087500Y-13354500D02*
X11087500Y-13434500D01*
X11047500Y-13394500D02*
X11127500Y-13394500D01*
X11471071Y-13230214D02*
X11499643Y-13230214D01*
X11528214Y-13244500D01*
X11542500Y-13258786D01*
X11556786Y-13287357D01*
X11571071Y-13344500D01*
X11571071Y-13415929D01*
X11556786Y-13473071D01*
X11542500Y-13501643D01*
X11528214Y-13515929D01*
X11499643Y-13530214D01*
X11471071Y-13530214D01*
X11442500Y-13515929D01*
X11428214Y-13501643D01*
X11413928Y-13473071D01*
X11399643Y-13415929D01*
X11399643Y-13344500D01*
X11413928Y-13287357D01*
X11428214Y-13258786D01*
X11442500Y-13244500D01*
X11471071Y-13230214D01*
X11699643Y-13501643D02*
X11713928Y-13515929D01*
X11699643Y-13530214D01*
X11685357Y-13515929D01*
X11699643Y-13501643D01*
X11699643Y-13530214D01*
X11885357Y-13358786D02*
X11856786Y-13344500D01*
X11842500Y-13330214D01*
X11828214Y-13301643D01*
X11828214Y-13287357D01*
X11842500Y-13258786D01*
X11856786Y-13244500D01*
X11885357Y-13230214D01*
X11942500Y-13230214D01*
X11971071Y-13244500D01*
X11985357Y-13258786D01*
X11999643Y-13287357D01*
X11999643Y-13301643D01*
X11985357Y-13330214D01*
X11971071Y-13344500D01*
X11942500Y-13358786D01*
X11885357Y-13358786D01*
X11856786Y-13373071D01*
X11842500Y-13387357D01*
X11828214Y-13415929D01*
X11828214Y-13473071D01*
X11842500Y-13501643D01*
X11856786Y-13515929D01*
X11885357Y-13530214D01*
X11942500Y-13530214D01*
X11971071Y-13515929D01*
X11985357Y-13501643D01*
X11999643Y-13473071D01*
X11999643Y-13415929D01*
X11985357Y-13387357D01*
X11971071Y-13373071D01*
X11942500Y-13358786D01*
X12185357Y-13230214D02*
X12213928Y-13230214D01*
X12242500Y-13244500D01*
X12256786Y-13258786D01*
X12271071Y-13287357D01*
X12285357Y-13344500D01*
X12285357Y-13415929D01*
X12271071Y-13473071D01*
X12256786Y-13501643D01*
X12242500Y-13515929D01*
X12213928Y-13530214D01*
X12185357Y-13530214D01*
X12156786Y-13515929D01*
X12142500Y-13501643D01*
X12128214Y-13473071D01*
X12113928Y-13415929D01*
X12113928Y-13344500D01*
X12128214Y-13287357D01*
X12142500Y-13258786D01*
X12156786Y-13244500D01*
X12185357Y-13230214D01*
X12471071Y-13230214D02*
X12499643Y-13230214D01*
X12528214Y-13244500D01*
X12542500Y-13258786D01*
X12556786Y-13287357D01*
X12571071Y-13344500D01*
X12571071Y-13415929D01*
X12556786Y-13473071D01*
X12542500Y-13501643D01*
X12528214Y-13515929D01*
X12499643Y-13530214D01*
X12471071Y-13530214D01*
X12442500Y-13515929D01*
X12428214Y-13501643D01*
X12413928Y-13473071D01*
X12399643Y-13415929D01*
X12399643Y-13344500D01*
X12413928Y-13287357D01*
X12428214Y-13258786D01*
X12442500Y-13244500D01*
X12471071Y-13230214D01*
X12699643Y-13530214D02*
X12699643Y-13330214D01*
X12699643Y-13358786D02*
X12713928Y-13344500D01*
X12742500Y-13330214D01*
X12785357Y-13330214D01*
X12813928Y-13344500D01*
X12828214Y-13373071D01*
X12828214Y-13530214D01*
X12828214Y-13373071D02*
X12842500Y-13344500D01*
X12871071Y-13330214D01*
X12913928Y-13330214D01*
X12942500Y-13344500D01*
X12956786Y-13373071D01*
X12956786Y-13530214D01*
X13099643Y-13530214D02*
X13099643Y-13330214D01*
X13099643Y-13358786D02*
X13113928Y-13344500D01*
X13142500Y-13330214D01*
X13185357Y-13330214D01*
X13213928Y-13344500D01*
X13228214Y-13373071D01*
X13228214Y-13530214D01*
X13228214Y-13373071D02*
X13242500Y-13344500D01*
X13271071Y-13330214D01*
X13313928Y-13330214D01*
X13342500Y-13344500D01*
X13356786Y-13373071D01*
X13356786Y-13530214D01*
X13942500Y-13215929D02*
X13685357Y-13601643D01*
X14328214Y-13230214D02*
X14356786Y-13230214D01*
X14385357Y-13244500D01*
X14399643Y-13258786D01*
X14413928Y-13287357D01*
X14428214Y-13344500D01*
X14428214Y-13415929D01*
X14413928Y-13473071D01*
X14399643Y-13501643D01*
X14385357Y-13515929D01*
X14356786Y-13530214D01*
X14328214Y-13530214D01*
X14299643Y-13515929D01*
X14285357Y-13501643D01*
X14271071Y-13473071D01*
X14256786Y-13415929D01*
X14256786Y-13344500D01*
X14271071Y-13287357D01*
X14285357Y-13258786D01*
X14299643Y-13244500D01*
X14328214Y-13230214D01*
X14556786Y-13501643D02*
X14571071Y-13515929D01*
X14556786Y-13530214D01*
X14542500Y-13515929D01*
X14556786Y-13501643D01*
X14556786Y-13530214D01*
X14756786Y-13230214D02*
X14785357Y-13230214D01*
X14813928Y-13244500D01*
X14828214Y-13258786D01*
X14842500Y-13287357D01*
X14856786Y-13344500D01*
X14856786Y-13415929D01*
X14842500Y-13473071D01*
X14828214Y-13501643D01*
X14813928Y-13515929D01*
X14785357Y-13530214D01*
X14756786Y-13530214D01*
X14728214Y-13515929D01*
X14713928Y-13501643D01*
X14699643Y-13473071D01*
X14685357Y-13415929D01*
X14685357Y-13344500D01*
X14699643Y-13287357D01*
X14713928Y-13258786D01*
X14728214Y-13244500D01*
X14756786Y-13230214D01*
X14956786Y-13230214D02*
X15142500Y-13230214D01*
X15042500Y-13344500D01*
X15085357Y-13344500D01*
X15113928Y-13358786D01*
X15128214Y-13373071D01*
X15142500Y-13401643D01*
X15142500Y-13473071D01*
X15128214Y-13501643D01*
X15113928Y-13515929D01*
X15085357Y-13530214D01*
X14999643Y-13530214D01*
X14971071Y-13515929D01*
X14956786Y-13501643D01*
X15428214Y-13530214D02*
X15256786Y-13530214D01*
X15342500Y-13530214D02*
X15342500Y-13230214D01*
X15313928Y-13273071D01*
X15285357Y-13301643D01*
X15256786Y-13315929D01*
X15699643Y-13230214D02*
X15556786Y-13230214D01*
X15542500Y-13373071D01*
X15556786Y-13358786D01*
X15585357Y-13344500D01*
X15656786Y-13344500D01*
X15685357Y-13358786D01*
X15699643Y-13373071D01*
X15713928Y-13401643D01*
X15713928Y-13473071D01*
X15699643Y-13501643D01*
X15685357Y-13515929D01*
X15656786Y-13530214D01*
X15585357Y-13530214D01*
X15556786Y-13515929D01*
X15542500Y-13501643D01*
X15828214Y-13230214D02*
X15828214Y-13287357D01*
X15942500Y-13230214D02*
X15942500Y-13287357D01*
X16385357Y-13644500D02*
X16371071Y-13630214D01*
X16342500Y-13587357D01*
X16328214Y-13558786D01*
X16313928Y-13515929D01*
X16299643Y-13444500D01*
X16299643Y-13387357D01*
X16313928Y-13315929D01*
X16328214Y-13273071D01*
X16342500Y-13244500D01*
X16371071Y-13201643D01*
X16385357Y-13187357D01*
X16656786Y-13530214D02*
X16485357Y-13530214D01*
X16571071Y-13530214D02*
X16571071Y-13230214D01*
X16542500Y-13273071D01*
X16513928Y-13301643D01*
X16485357Y-13315929D01*
X16756786Y-13230214D02*
X16956786Y-13230214D01*
X16828214Y-13530214D01*
X17299643Y-13530214D02*
X17299643Y-13230214D01*
X17428214Y-13530214D02*
X17428214Y-13373071D01*
X17413928Y-13344500D01*
X17385357Y-13330214D01*
X17342500Y-13330214D01*
X17313928Y-13344500D01*
X17299643Y-13358786D01*
X17613928Y-13530214D02*
X17585357Y-13515929D01*
X17571071Y-13501643D01*
X17556786Y-13473071D01*
X17556786Y-13387357D01*
X17571071Y-13358786D01*
X17585357Y-13344500D01*
X17613928Y-13330214D01*
X17656786Y-13330214D01*
X17685357Y-13344500D01*
X17699643Y-13358786D01*
X17713928Y-13387357D01*
X17713928Y-13473071D01*
X17699643Y-13501643D01*
X17685357Y-13515929D01*
X17656786Y-13530214D01*
X17613928Y-13530214D01*
X17885357Y-13530214D02*
X17856786Y-13515929D01*
X17842500Y-13487357D01*
X17842500Y-13230214D01*
X18113928Y-13515929D02*
X18085357Y-13530214D01*
X18028214Y-13530214D01*
X17999643Y-13515929D01*
X17985357Y-13487357D01*
X17985357Y-13373071D01*
X17999643Y-13344500D01*
X18028214Y-13330214D01*
X18085357Y-13330214D01*
X18113928Y-13344500D01*
X18128214Y-13373071D01*
X18128214Y-13401643D01*
X17985357Y-13430214D01*
X18242500Y-13515929D02*
X18271071Y-13530214D01*
X18328214Y-13530214D01*
X18356786Y-13515929D01*
X18371071Y-13487357D01*
X18371071Y-13473071D01*
X18356786Y-13444500D01*
X18328214Y-13430214D01*
X18285357Y-13430214D01*
X18256786Y-13415929D01*
X18242500Y-13387357D01*
X18242500Y-13373071D01*
X18256786Y-13344500D01*
X18285357Y-13330214D01*
X18328214Y-13330214D01*
X18356786Y-13344500D01*
X18471071Y-13644500D02*
X18485357Y-13630214D01*
X18513928Y-13587357D01*
X18528214Y-13558786D01*
X18542500Y-13515929D01*
X18556786Y-13444500D01*
X18556786Y-13387357D01*
X18542500Y-13315929D01*
X18528214Y-13273071D01*
X18513928Y-13244500D01*
X18485357Y-13201643D01*
X18471071Y-13187357D01*
X11114320Y-13822320D02*
X11114320Y-13758680D01*
X11050680Y-13758680D01*
X11050680Y-13822320D01*
X11114320Y-13822320D01*
X11471071Y-13626214D02*
X11499643Y-13626214D01*
X11528214Y-13640500D01*
X11542500Y-13654786D01*
X11556786Y-13683357D01*
X11571071Y-13740500D01*
X11571071Y-13811929D01*
X11556786Y-13869071D01*
X11542500Y-13897643D01*
X11528214Y-13911929D01*
X11499643Y-13926214D01*
X11471071Y-13926214D01*
X11442500Y-13911929D01*
X11428214Y-13897643D01*
X11413928Y-13869071D01*
X11399643Y-13811929D01*
X11399643Y-13740500D01*
X11413928Y-13683357D01*
X11428214Y-13654786D01*
X11442500Y-13640500D01*
X11471071Y-13626214D01*
X11699643Y-13897643D02*
X11713928Y-13911929D01*
X11699643Y-13926214D01*
X11685357Y-13911929D01*
X11699643Y-13897643D01*
X11699643Y-13926214D01*
X11856786Y-13926214D02*
X11913928Y-13926214D01*
X11942500Y-13911929D01*
X11956786Y-13897643D01*
X11985357Y-13854786D01*
X11999643Y-13797643D01*
X11999643Y-13683357D01*
X11985357Y-13654786D01*
X11971071Y-13640500D01*
X11942500Y-13626214D01*
X11885357Y-13626214D01*
X11856786Y-13640500D01*
X11842500Y-13654786D01*
X11828214Y-13683357D01*
X11828214Y-13754786D01*
X11842500Y-13783357D01*
X11856786Y-13797643D01*
X11885357Y-13811929D01*
X11942500Y-13811929D01*
X11971071Y-13797643D01*
X11985357Y-13783357D01*
X11999643Y-13754786D01*
X12185357Y-13626214D02*
X12213928Y-13626214D01*
X12242500Y-13640500D01*
X12256786Y-13654786D01*
X12271071Y-13683357D01*
X12285357Y-13740500D01*
X12285357Y-13811929D01*
X12271071Y-13869071D01*
X12256786Y-13897643D01*
X12242500Y-13911929D01*
X12213928Y-13926214D01*
X12185357Y-13926214D01*
X12156786Y-13911929D01*
X12142500Y-13897643D01*
X12128214Y-13869071D01*
X12113928Y-13811929D01*
X12113928Y-13740500D01*
X12128214Y-13683357D01*
X12142500Y-13654786D01*
X12156786Y-13640500D01*
X12185357Y-13626214D01*
X12471071Y-13626214D02*
X12499643Y-13626214D01*
X12528214Y-13640500D01*
X12542500Y-13654786D01*
X12556786Y-13683357D01*
X12571071Y-13740500D01*
X12571071Y-13811929D01*
X12556786Y-13869071D01*
X12542500Y-13897643D01*
X12528214Y-13911929D01*
X12499643Y-13926214D01*
X12471071Y-13926214D01*
X12442500Y-13911929D01*
X12428214Y-13897643D01*
X12413928Y-13869071D01*
X12399643Y-13811929D01*
X12399643Y-13740500D01*
X12413928Y-13683357D01*
X12428214Y-13654786D01*
X12442500Y-13640500D01*
X12471071Y-13626214D01*
X12699643Y-13926214D02*
X12699643Y-13726214D01*
X12699643Y-13754786D02*
X12713928Y-13740500D01*
X12742500Y-13726214D01*
X12785357Y-13726214D01*
X12813928Y-13740500D01*
X12828214Y-13769071D01*
X12828214Y-13926214D01*
X12828214Y-13769071D02*
X12842500Y-13740500D01*
X12871071Y-13726214D01*
X12913928Y-13726214D01*
X12942500Y-13740500D01*
X12956786Y-13769071D01*
X12956786Y-13926214D01*
X13099643Y-13926214D02*
X13099643Y-13726214D01*
X13099643Y-13754786D02*
X13113928Y-13740500D01*
X13142500Y-13726214D01*
X13185357Y-13726214D01*
X13213928Y-13740500D01*
X13228214Y-13769071D01*
X13228214Y-13926214D01*
X13228214Y-13769071D02*
X13242500Y-13740500D01*
X13271071Y-13726214D01*
X13313928Y-13726214D01*
X13342500Y-13740500D01*
X13356786Y-13769071D01*
X13356786Y-13926214D01*
X13942500Y-13611929D02*
X13685357Y-13997643D01*
X14328214Y-13626214D02*
X14356786Y-13626214D01*
X14385357Y-13640500D01*
X14399643Y-13654786D01*
X14413928Y-13683357D01*
X14428214Y-13740500D01*
X14428214Y-13811929D01*
X14413928Y-13869071D01*
X14399643Y-13897643D01*
X14385357Y-13911929D01*
X14356786Y-13926214D01*
X14328214Y-13926214D01*
X14299643Y-13911929D01*
X14285357Y-13897643D01*
X14271071Y-13869071D01*
X14256786Y-13811929D01*
X14256786Y-13740500D01*
X14271071Y-13683357D01*
X14285357Y-13654786D01*
X14299643Y-13640500D01*
X14328214Y-13626214D01*
X14556786Y-13897643D02*
X14571071Y-13911929D01*
X14556786Y-13926214D01*
X14542500Y-13911929D01*
X14556786Y-13897643D01*
X14556786Y-13926214D01*
X14756786Y-13626214D02*
X14785357Y-13626214D01*
X14813928Y-13640500D01*
X14828214Y-13654786D01*
X14842500Y-13683357D01*
X14856786Y-13740500D01*
X14856786Y-13811929D01*
X14842500Y-13869071D01*
X14828214Y-13897643D01*
X14813928Y-13911929D01*
X14785357Y-13926214D01*
X14756786Y-13926214D01*
X14728214Y-13911929D01*
X14713928Y-13897643D01*
X14699643Y-13869071D01*
X14685357Y-13811929D01*
X14685357Y-13740500D01*
X14699643Y-13683357D01*
X14713928Y-13654786D01*
X14728214Y-13640500D01*
X14756786Y-13626214D01*
X14956786Y-13626214D02*
X15142500Y-13626214D01*
X15042500Y-13740500D01*
X15085357Y-13740500D01*
X15113928Y-13754786D01*
X15128214Y-13769071D01*
X15142500Y-13797643D01*
X15142500Y-13869071D01*
X15128214Y-13897643D01*
X15113928Y-13911929D01*
X15085357Y-13926214D01*
X14999643Y-13926214D01*
X14971071Y-13911929D01*
X14956786Y-13897643D01*
X15413928Y-13626214D02*
X15271071Y-13626214D01*
X15256786Y-13769071D01*
X15271071Y-13754786D01*
X15299643Y-13740500D01*
X15371071Y-13740500D01*
X15399643Y-13754786D01*
X15413928Y-13769071D01*
X15428214Y-13797643D01*
X15428214Y-13869071D01*
X15413928Y-13897643D01*
X15399643Y-13911929D01*
X15371071Y-13926214D01*
X15299643Y-13926214D01*
X15271071Y-13911929D01*
X15256786Y-13897643D01*
X15685357Y-13726214D02*
X15685357Y-13926214D01*
X15613928Y-13611929D02*
X15542500Y-13826214D01*
X15728214Y-13826214D01*
X15828214Y-13626214D02*
X15828214Y-13683357D01*
X15942500Y-13626214D02*
X15942500Y-13683357D01*
X16385357Y-14040500D02*
X16371071Y-14026214D01*
X16342500Y-13983357D01*
X16328214Y-13954786D01*
X16313928Y-13911929D01*
X16299643Y-13840500D01*
X16299643Y-13783357D01*
X16313928Y-13711929D01*
X16328214Y-13669071D01*
X16342500Y-13640500D01*
X16371071Y-13597643D01*
X16385357Y-13583357D01*
X16656786Y-13926214D02*
X16485357Y-13926214D01*
X16571071Y-13926214D02*
X16571071Y-13626214D01*
X16542500Y-13669071D01*
X16513928Y-13697643D01*
X16485357Y-13711929D01*
X16842500Y-13626214D02*
X16871071Y-13626214D01*
X16899643Y-13640500D01*
X16913928Y-13654786D01*
X16928214Y-13683357D01*
X16942500Y-13740500D01*
X16942500Y-13811929D01*
X16928214Y-13869071D01*
X16913928Y-13897643D01*
X16899643Y-13911929D01*
X16871071Y-13926214D01*
X16842500Y-13926214D01*
X16813928Y-13911929D01*
X16799643Y-13897643D01*
X16785357Y-13869071D01*
X16771071Y-13811929D01*
X16771071Y-13740500D01*
X16785357Y-13683357D01*
X16799643Y-13654786D01*
X16813928Y-13640500D01*
X16842500Y-13626214D01*
X17299643Y-13926214D02*
X17299643Y-13626214D01*
X17428214Y-13926214D02*
X17428214Y-13769071D01*
X17413928Y-13740500D01*
X17385357Y-13726214D01*
X17342500Y-13726214D01*
X17313928Y-13740500D01*
X17299643Y-13754786D01*
X17613928Y-13926214D02*
X17585357Y-13911929D01*
X17571071Y-13897643D01*
X17556786Y-13869071D01*
X17556786Y-13783357D01*
X17571071Y-13754786D01*
X17585357Y-13740500D01*
X17613928Y-13726214D01*
X17656786Y-13726214D01*
X17685357Y-13740500D01*
X17699643Y-13754786D01*
X17713928Y-13783357D01*
X17713928Y-13869071D01*
X17699643Y-13897643D01*
X17685357Y-13911929D01*
X17656786Y-13926214D01*
X17613928Y-13926214D01*
X17885357Y-13926214D02*
X17856786Y-13911929D01*
X17842500Y-13883357D01*
X17842500Y-13626214D01*
X18113928Y-13911929D02*
X18085357Y-13926214D01*
X18028214Y-13926214D01*
X17999643Y-13911929D01*
X17985357Y-13883357D01*
X17985357Y-13769071D01*
X17999643Y-13740500D01*
X18028214Y-13726214D01*
X18085357Y-13726214D01*
X18113928Y-13740500D01*
X18128214Y-13769071D01*
X18128214Y-13797643D01*
X17985357Y-13826214D01*
X18242500Y-13911929D02*
X18271071Y-13926214D01*
X18328214Y-13926214D01*
X18356786Y-13911929D01*
X18371071Y-13883357D01*
X18371071Y-13869071D01*
X18356786Y-13840500D01*
X18328214Y-13826214D01*
X18285357Y-13826214D01*
X18256786Y-13811929D01*
X18242500Y-13783357D01*
X18242500Y-13769071D01*
X18256786Y-13740500D01*
X18285357Y-13726214D01*
X18328214Y-13726214D01*
X18356786Y-13740500D01*
X18471071Y-14040500D02*
X18485357Y-14026214D01*
X18513928Y-13983357D01*
X18528214Y-13954786D01*
X18542500Y-13911929D01*
X18556786Y-13840500D01*
X18556786Y-13783357D01*
X18542500Y-13711929D01*
X18528214Y-13669071D01*
X18513928Y-13640500D01*
X18485357Y-13597643D01*
X18471071Y-13583357D01*
X11076500Y-14237500D02*
X11127500Y-14186500D01*
X11076500Y-14135500D01*
X11025500Y-14186500D01*
X11076500Y-14237500D01*
X11571071Y-14322214D02*
X11399643Y-14322214D01*
X11485357Y-14322214D02*
X11485357Y-14022214D01*
X11456786Y-14065071D01*
X11428214Y-14093643D01*
X11399643Y-14107929D01*
X11699643Y-14293643D02*
X11713928Y-14307929D01*
X11699643Y-14322214D01*
X11685357Y-14307929D01*
X11699643Y-14293643D01*
X11699643Y-14322214D01*
X11899643Y-14022214D02*
X11928214Y-14022214D01*
X11956786Y-14036500D01*
X11971071Y-14050786D01*
X11985357Y-14079357D01*
X11999643Y-14136500D01*
X11999643Y-14207929D01*
X11985357Y-14265071D01*
X11971071Y-14293643D01*
X11956786Y-14307929D01*
X11928214Y-14322214D01*
X11899643Y-14322214D01*
X11871071Y-14307929D01*
X11856786Y-14293643D01*
X11842500Y-14265071D01*
X11828214Y-14207929D01*
X11828214Y-14136500D01*
X11842500Y-14079357D01*
X11856786Y-14050786D01*
X11871071Y-14036500D01*
X11899643Y-14022214D01*
X12113928Y-14050786D02*
X12128214Y-14036500D01*
X12156786Y-14022214D01*
X12228214Y-14022214D01*
X12256786Y-14036500D01*
X12271071Y-14050786D01*
X12285357Y-14079357D01*
X12285357Y-14107929D01*
X12271071Y-14150786D01*
X12099643Y-14322214D01*
X12285357Y-14322214D01*
X12471071Y-14022214D02*
X12499643Y-14022214D01*
X12528214Y-14036500D01*
X12542500Y-14050786D01*
X12556786Y-14079357D01*
X12571071Y-14136500D01*
X12571071Y-14207929D01*
X12556786Y-14265071D01*
X12542500Y-14293643D01*
X12528214Y-14307929D01*
X12499643Y-14322214D01*
X12471071Y-14322214D01*
X12442500Y-14307929D01*
X12428214Y-14293643D01*
X12413928Y-14265071D01*
X12399643Y-14207929D01*
X12399643Y-14136500D01*
X12413928Y-14079357D01*
X12428214Y-14050786D01*
X12442500Y-14036500D01*
X12471071Y-14022214D01*
X12699643Y-14322214D02*
X12699643Y-14122214D01*
X12699643Y-14150786D02*
X12713928Y-14136500D01*
X12742500Y-14122214D01*
X12785357Y-14122214D01*
X12813928Y-14136500D01*
X12828214Y-14165071D01*
X12828214Y-14322214D01*
X12828214Y-14165071D02*
X12842500Y-14136500D01*
X12871071Y-14122214D01*
X12913928Y-14122214D01*
X12942500Y-14136500D01*
X12956786Y-14165071D01*
X12956786Y-14322214D01*
X13099643Y-14322214D02*
X13099643Y-14122214D01*
X13099643Y-14150786D02*
X13113928Y-14136500D01*
X13142500Y-14122214D01*
X13185357Y-14122214D01*
X13213928Y-14136500D01*
X13228214Y-14165071D01*
X13228214Y-14322214D01*
X13228214Y-14165071D02*
X13242500Y-14136500D01*
X13271071Y-14122214D01*
X13313928Y-14122214D01*
X13342500Y-14136500D01*
X13356786Y-14165071D01*
X13356786Y-14322214D01*
X13942500Y-14007929D02*
X13685357Y-14393643D01*
X14328214Y-14022214D02*
X14356786Y-14022214D01*
X14385357Y-14036500D01*
X14399643Y-14050786D01*
X14413928Y-14079357D01*
X14428214Y-14136500D01*
X14428214Y-14207929D01*
X14413928Y-14265071D01*
X14399643Y-14293643D01*
X14385357Y-14307929D01*
X14356786Y-14322214D01*
X14328214Y-14322214D01*
X14299643Y-14307929D01*
X14285357Y-14293643D01*
X14271071Y-14265071D01*
X14256786Y-14207929D01*
X14256786Y-14136500D01*
X14271071Y-14079357D01*
X14285357Y-14050786D01*
X14299643Y-14036500D01*
X14328214Y-14022214D01*
X14556786Y-14293643D02*
X14571071Y-14307929D01*
X14556786Y-14322214D01*
X14542500Y-14307929D01*
X14556786Y-14293643D01*
X14556786Y-14322214D01*
X14756786Y-14022214D02*
X14785357Y-14022214D01*
X14813928Y-14036500D01*
X14828214Y-14050786D01*
X14842500Y-14079357D01*
X14856786Y-14136500D01*
X14856786Y-14207929D01*
X14842500Y-14265071D01*
X14828214Y-14293643D01*
X14813928Y-14307929D01*
X14785357Y-14322214D01*
X14756786Y-14322214D01*
X14728214Y-14307929D01*
X14713928Y-14293643D01*
X14699643Y-14265071D01*
X14685357Y-14207929D01*
X14685357Y-14136500D01*
X14699643Y-14079357D01*
X14713928Y-14050786D01*
X14728214Y-14036500D01*
X14756786Y-14022214D01*
X15113928Y-14122214D02*
X15113928Y-14322214D01*
X15042500Y-14007929D02*
X14971071Y-14222214D01*
X15156786Y-14222214D01*
X15328214Y-14022214D02*
X15356786Y-14022214D01*
X15385357Y-14036500D01*
X15399643Y-14050786D01*
X15413928Y-14079357D01*
X15428214Y-14136500D01*
X15428214Y-14207929D01*
X15413928Y-14265071D01*
X15399643Y-14293643D01*
X15385357Y-14307929D01*
X15356786Y-14322214D01*
X15328214Y-14322214D01*
X15299643Y-14307929D01*
X15285357Y-14293643D01*
X15271071Y-14265071D01*
X15256786Y-14207929D01*
X15256786Y-14136500D01*
X15271071Y-14079357D01*
X15285357Y-14050786D01*
X15299643Y-14036500D01*
X15328214Y-14022214D01*
X15542500Y-14050786D02*
X15556786Y-14036500D01*
X15585357Y-14022214D01*
X15656786Y-14022214D01*
X15685357Y-14036500D01*
X15699643Y-14050786D01*
X15713928Y-14079357D01*
X15713928Y-14107929D01*
X15699643Y-14150786D01*
X15528214Y-14322214D01*
X15713928Y-14322214D01*
X15828214Y-14022214D02*
X15828214Y-14079357D01*
X15942500Y-14022214D02*
X15942500Y-14079357D01*
X16385357Y-14436500D02*
X16371071Y-14422214D01*
X16342500Y-14379357D01*
X16328214Y-14350786D01*
X16313928Y-14307929D01*
X16299643Y-14236500D01*
X16299643Y-14179357D01*
X16313928Y-14107929D01*
X16328214Y-14065071D01*
X16342500Y-14036500D01*
X16371071Y-13993643D01*
X16385357Y-13979357D01*
X16628214Y-14122214D02*
X16628214Y-14322214D01*
X16556786Y-14007929D02*
X16485357Y-14222214D01*
X16671071Y-14222214D01*
X17013928Y-14322214D02*
X17013928Y-14022214D01*
X17142500Y-14322214D02*
X17142500Y-14165071D01*
X17128214Y-14136500D01*
X17099643Y-14122214D01*
X17056786Y-14122214D01*
X17028214Y-14136500D01*
X17013928Y-14150786D01*
X17328214Y-14322214D02*
X17299643Y-14307929D01*
X17285357Y-14293643D01*
X17271071Y-14265071D01*
X17271071Y-14179357D01*
X17285357Y-14150786D01*
X17299643Y-14136500D01*
X17328214Y-14122214D01*
X17371071Y-14122214D01*
X17399643Y-14136500D01*
X17413928Y-14150786D01*
X17428214Y-14179357D01*
X17428214Y-14265071D01*
X17413928Y-14293643D01*
X17399643Y-14307929D01*
X17371071Y-14322214D01*
X17328214Y-14322214D01*
X17599643Y-14322214D02*
X17571071Y-14307929D01*
X17556786Y-14279357D01*
X17556786Y-14022214D01*
X17828214Y-14307929D02*
X17799643Y-14322214D01*
X17742500Y-14322214D01*
X17713928Y-14307929D01*
X17699643Y-14279357D01*
X17699643Y-14165071D01*
X17713928Y-14136500D01*
X17742500Y-14122214D01*
X17799643Y-14122214D01*
X17828214Y-14136500D01*
X17842500Y-14165071D01*
X17842500Y-14193643D01*
X17699643Y-14222214D01*
X17956786Y-14307929D02*
X17985357Y-14322214D01*
X18042500Y-14322214D01*
X18071071Y-14307929D01*
X18085357Y-14279357D01*
X18085357Y-14265071D01*
X18071071Y-14236500D01*
X18042500Y-14222214D01*
X17999643Y-14222214D01*
X17971071Y-14207929D01*
X17956786Y-14179357D01*
X17956786Y-14165071D01*
X17971071Y-14136500D01*
X17999643Y-14122214D01*
X18042500Y-14122214D01*
X18071071Y-14136500D01*
X18185357Y-14436500D02*
X18199643Y-14422214D01*
X18228214Y-14379357D01*
X18242500Y-14350786D01*
X18256786Y-14307929D01*
X18271071Y-14236500D01*
X18271071Y-14179357D01*
X18256786Y-14107929D01*
X18242500Y-14065071D01*
X18228214Y-14036500D01*
X18199643Y-13993643D01*
X18185357Y-13979357D01*
X11000500Y-14519000D02*
X11127500Y-14646000D01*
X11127500Y-14519000D02*
X11000500Y-14646000D01*
X11127500Y-14582500D02*
G75*
G03*
X11127500Y-14582500I-63500J0D01*
G01*
X11571071Y-14718214D02*
X11399643Y-14718214D01*
X11485357Y-14718214D02*
X11485357Y-14418214D01*
X11456786Y-14461071D01*
X11428214Y-14489643D01*
X11399643Y-14503929D01*
X11699643Y-14689643D02*
X11713928Y-14703929D01*
X11699643Y-14718214D01*
X11685357Y-14703929D01*
X11699643Y-14689643D01*
X11699643Y-14718214D01*
X11828214Y-14446786D02*
X11842500Y-14432500D01*
X11871071Y-14418214D01*
X11942500Y-14418214D01*
X11971071Y-14432500D01*
X11985357Y-14446786D01*
X11999643Y-14475357D01*
X11999643Y-14503929D01*
X11985357Y-14546786D01*
X11813928Y-14718214D01*
X11999643Y-14718214D01*
X12099643Y-14418214D02*
X12299643Y-14418214D01*
X12171071Y-14718214D01*
X12471071Y-14418214D02*
X12499643Y-14418214D01*
X12528214Y-14432500D01*
X12542500Y-14446786D01*
X12556786Y-14475357D01*
X12571071Y-14532500D01*
X12571071Y-14603929D01*
X12556786Y-14661071D01*
X12542500Y-14689643D01*
X12528214Y-14703929D01*
X12499643Y-14718214D01*
X12471071Y-14718214D01*
X12442500Y-14703929D01*
X12428214Y-14689643D01*
X12413928Y-14661071D01*
X12399643Y-14603929D01*
X12399643Y-14532500D01*
X12413928Y-14475357D01*
X12428214Y-14446786D01*
X12442500Y-14432500D01*
X12471071Y-14418214D01*
X12699643Y-14718214D02*
X12699643Y-14518214D01*
X12699643Y-14546786D02*
X12713928Y-14532500D01*
X12742500Y-14518214D01*
X12785357Y-14518214D01*
X12813928Y-14532500D01*
X12828214Y-14561071D01*
X12828214Y-14718214D01*
X12828214Y-14561071D02*
X12842500Y-14532500D01*
X12871071Y-14518214D01*
X12913928Y-14518214D01*
X12942500Y-14532500D01*
X12956786Y-14561071D01*
X12956786Y-14718214D01*
X13099643Y-14718214D02*
X13099643Y-14518214D01*
X13099643Y-14546786D02*
X13113928Y-14532500D01*
X13142500Y-14518214D01*
X13185357Y-14518214D01*
X13213928Y-14532500D01*
X13228214Y-14561071D01*
X13228214Y-14718214D01*
X13228214Y-14561071D02*
X13242500Y-14532500D01*
X13271071Y-14518214D01*
X13313928Y-14518214D01*
X13342500Y-14532500D01*
X13356786Y-14561071D01*
X13356786Y-14718214D01*
X13942500Y-14403929D02*
X13685357Y-14789643D01*
X14328214Y-14418214D02*
X14356786Y-14418214D01*
X14385357Y-14432500D01*
X14399643Y-14446786D01*
X14413928Y-14475357D01*
X14428214Y-14532500D01*
X14428214Y-14603929D01*
X14413928Y-14661071D01*
X14399643Y-14689643D01*
X14385357Y-14703929D01*
X14356786Y-14718214D01*
X14328214Y-14718214D01*
X14299643Y-14703929D01*
X14285357Y-14689643D01*
X14271071Y-14661071D01*
X14256786Y-14603929D01*
X14256786Y-14532500D01*
X14271071Y-14475357D01*
X14285357Y-14446786D01*
X14299643Y-14432500D01*
X14328214Y-14418214D01*
X14556786Y-14689643D02*
X14571071Y-14703929D01*
X14556786Y-14718214D01*
X14542500Y-14703929D01*
X14556786Y-14689643D01*
X14556786Y-14718214D01*
X14756786Y-14418214D02*
X14785357Y-14418214D01*
X14813928Y-14432500D01*
X14828214Y-14446786D01*
X14842500Y-14475357D01*
X14856786Y-14532500D01*
X14856786Y-14603929D01*
X14842500Y-14661071D01*
X14828214Y-14689643D01*
X14813928Y-14703929D01*
X14785357Y-14718214D01*
X14756786Y-14718214D01*
X14728214Y-14703929D01*
X14713928Y-14689643D01*
X14699643Y-14661071D01*
X14685357Y-14603929D01*
X14685357Y-14532500D01*
X14699643Y-14475357D01*
X14713928Y-14446786D01*
X14728214Y-14432500D01*
X14756786Y-14418214D01*
X15128214Y-14418214D02*
X14985357Y-14418214D01*
X14971071Y-14561071D01*
X14985357Y-14546786D01*
X15013928Y-14532500D01*
X15085357Y-14532500D01*
X15113928Y-14546786D01*
X15128214Y-14561071D01*
X15142500Y-14589643D01*
X15142500Y-14661071D01*
X15128214Y-14689643D01*
X15113928Y-14703929D01*
X15085357Y-14718214D01*
X15013928Y-14718214D01*
X14985357Y-14703929D01*
X14971071Y-14689643D01*
X15328214Y-14418214D02*
X15356786Y-14418214D01*
X15385357Y-14432500D01*
X15399643Y-14446786D01*
X15413928Y-14475357D01*
X15428214Y-14532500D01*
X15428214Y-14603929D01*
X15413928Y-14661071D01*
X15399643Y-14689643D01*
X15385357Y-14703929D01*
X15356786Y-14718214D01*
X15328214Y-14718214D01*
X15299643Y-14703929D01*
X15285357Y-14689643D01*
X15271071Y-14661071D01*
X15256786Y-14603929D01*
X15256786Y-14532500D01*
X15271071Y-14475357D01*
X15285357Y-14446786D01*
X15299643Y-14432500D01*
X15328214Y-14418214D01*
X15613928Y-14418214D02*
X15642500Y-14418214D01*
X15671071Y-14432500D01*
X15685357Y-14446786D01*
X15699643Y-14475357D01*
X15713928Y-14532500D01*
X15713928Y-14603929D01*
X15699643Y-14661071D01*
X15685357Y-14689643D01*
X15671071Y-14703929D01*
X15642500Y-14718214D01*
X15613928Y-14718214D01*
X15585357Y-14703929D01*
X15571071Y-14689643D01*
X15556786Y-14661071D01*
X15542500Y-14603929D01*
X15542500Y-14532500D01*
X15556786Y-14475357D01*
X15571071Y-14446786D01*
X15585357Y-14432500D01*
X15613928Y-14418214D01*
X15828214Y-14418214D02*
X15828214Y-14475357D01*
X15942500Y-14418214D02*
X15942500Y-14475357D01*
X16385357Y-14832500D02*
X16371071Y-14818214D01*
X16342500Y-14775357D01*
X16328214Y-14746786D01*
X16313928Y-14703929D01*
X16299643Y-14632500D01*
X16299643Y-14575357D01*
X16313928Y-14503929D01*
X16328214Y-14461071D01*
X16342500Y-14432500D01*
X16371071Y-14389643D01*
X16385357Y-14375357D01*
X16656786Y-14718214D02*
X16485357Y-14718214D01*
X16571071Y-14718214D02*
X16571071Y-14418214D01*
X16542500Y-14461071D01*
X16513928Y-14489643D01*
X16485357Y-14503929D01*
X17013928Y-14718214D02*
X17013928Y-14418214D01*
X17142500Y-14718214D02*
X17142500Y-14561071D01*
X17128214Y-14532500D01*
X17099643Y-14518214D01*
X17056786Y-14518214D01*
X17028214Y-14532500D01*
X17013928Y-14546786D01*
X17328214Y-14718214D02*
X17299643Y-14703929D01*
X17285357Y-14689643D01*
X17271071Y-14661071D01*
X17271071Y-14575357D01*
X17285357Y-14546786D01*
X17299643Y-14532500D01*
X17328214Y-14518214D01*
X17371071Y-14518214D01*
X17399643Y-14532500D01*
X17413928Y-14546786D01*
X17428214Y-14575357D01*
X17428214Y-14661071D01*
X17413928Y-14689643D01*
X17399643Y-14703929D01*
X17371071Y-14718214D01*
X17328214Y-14718214D01*
X17599643Y-14718214D02*
X17571071Y-14703929D01*
X17556786Y-14675357D01*
X17556786Y-14418214D01*
X17828214Y-14703929D02*
X17799643Y-14718214D01*
X17742500Y-14718214D01*
X17713928Y-14703929D01*
X17699643Y-14675357D01*
X17699643Y-14561071D01*
X17713928Y-14532500D01*
X17742500Y-14518214D01*
X17799643Y-14518214D01*
X17828214Y-14532500D01*
X17842500Y-14561071D01*
X17842500Y-14589643D01*
X17699643Y-14618214D01*
X17942500Y-14832500D02*
X17956786Y-14818214D01*
X17985357Y-14775357D01*
X17999643Y-14746786D01*
X18013928Y-14703929D01*
X18028214Y-14632500D01*
X18028214Y-14575357D01*
X18013928Y-14503929D01*
X17999643Y-14461071D01*
X17985357Y-14432500D01*
X17956786Y-14389643D01*
X17942500Y-14375357D01*
X10975100Y-14902300D02*
X11127500Y-15054700D01*
X11127500Y-14902300D02*
X10975100Y-15054700D01*
X11051300Y-14902300D02*
X11051300Y-15054700D01*
X10975100Y-14978500D02*
X11127500Y-14978500D01*
X11571071Y-15114214D02*
X11399643Y-15114214D01*
X11485357Y-15114214D02*
X11485357Y-14814214D01*
X11456786Y-14857071D01*
X11428214Y-14885643D01*
X11399643Y-14899929D01*
X11699643Y-15085643D02*
X11713928Y-15099929D01*
X11699643Y-15114214D01*
X11685357Y-15099929D01*
X11699643Y-15085643D01*
X11699643Y-15114214D01*
X11985357Y-14814214D02*
X11842500Y-14814214D01*
X11828214Y-14957071D01*
X11842500Y-14942786D01*
X11871071Y-14928500D01*
X11942500Y-14928500D01*
X11971071Y-14942786D01*
X11985357Y-14957071D01*
X11999643Y-14985643D01*
X11999643Y-15057071D01*
X11985357Y-15085643D01*
X11971071Y-15099929D01*
X11942500Y-15114214D01*
X11871071Y-15114214D01*
X11842500Y-15099929D01*
X11828214Y-15085643D01*
X12113928Y-14842786D02*
X12128214Y-14828500D01*
X12156786Y-14814214D01*
X12228214Y-14814214D01*
X12256786Y-14828500D01*
X12271071Y-14842786D01*
X12285357Y-14871357D01*
X12285357Y-14899929D01*
X12271071Y-14942786D01*
X12099643Y-15114214D01*
X12285357Y-15114214D01*
X12542500Y-14914214D02*
X12542500Y-15114214D01*
X12471071Y-14799929D02*
X12399643Y-15014214D01*
X12585357Y-15014214D01*
X12699643Y-15114214D02*
X12699643Y-14914214D01*
X12699643Y-14942786D02*
X12713928Y-14928500D01*
X12742500Y-14914214D01*
X12785357Y-14914214D01*
X12813928Y-14928500D01*
X12828214Y-14957071D01*
X12828214Y-15114214D01*
X12828214Y-14957071D02*
X12842500Y-14928500D01*
X12871071Y-14914214D01*
X12913928Y-14914214D01*
X12942500Y-14928500D01*
X12956786Y-14957071D01*
X12956786Y-15114214D01*
X13099643Y-15114214D02*
X13099643Y-14914214D01*
X13099643Y-14942786D02*
X13113928Y-14928500D01*
X13142500Y-14914214D01*
X13185357Y-14914214D01*
X13213928Y-14928500D01*
X13228214Y-14957071D01*
X13228214Y-15114214D01*
X13228214Y-14957071D02*
X13242500Y-14928500D01*
X13271071Y-14914214D01*
X13313928Y-14914214D01*
X13342500Y-14928500D01*
X13356786Y-14957071D01*
X13356786Y-15114214D01*
X13942500Y-14799929D02*
X13685357Y-15185643D01*
X14328214Y-14814214D02*
X14356786Y-14814214D01*
X14385357Y-14828500D01*
X14399643Y-14842786D01*
X14413928Y-14871357D01*
X14428214Y-14928500D01*
X14428214Y-14999929D01*
X14413928Y-15057071D01*
X14399643Y-15085643D01*
X14385357Y-15099929D01*
X14356786Y-15114214D01*
X14328214Y-15114214D01*
X14299643Y-15099929D01*
X14285357Y-15085643D01*
X14271071Y-15057071D01*
X14256786Y-14999929D01*
X14256786Y-14928500D01*
X14271071Y-14871357D01*
X14285357Y-14842786D01*
X14299643Y-14828500D01*
X14328214Y-14814214D01*
X14556786Y-15085643D02*
X14571071Y-15099929D01*
X14556786Y-15114214D01*
X14542500Y-15099929D01*
X14556786Y-15085643D01*
X14556786Y-15114214D01*
X14756786Y-14814214D02*
X14785357Y-14814214D01*
X14813928Y-14828500D01*
X14828214Y-14842786D01*
X14842500Y-14871357D01*
X14856786Y-14928500D01*
X14856786Y-14999929D01*
X14842500Y-15057071D01*
X14828214Y-15085643D01*
X14813928Y-15099929D01*
X14785357Y-15114214D01*
X14756786Y-15114214D01*
X14728214Y-15099929D01*
X14713928Y-15085643D01*
X14699643Y-15057071D01*
X14685357Y-14999929D01*
X14685357Y-14928500D01*
X14699643Y-14871357D01*
X14713928Y-14842786D01*
X14728214Y-14828500D01*
X14756786Y-14814214D01*
X15113928Y-14814214D02*
X15056786Y-14814214D01*
X15028214Y-14828500D01*
X15013928Y-14842786D01*
X14985357Y-14885643D01*
X14971071Y-14942786D01*
X14971071Y-15057071D01*
X14985357Y-15085643D01*
X14999643Y-15099929D01*
X15028214Y-15114214D01*
X15085357Y-15114214D01*
X15113928Y-15099929D01*
X15128214Y-15085643D01*
X15142500Y-15057071D01*
X15142500Y-14985643D01*
X15128214Y-14957071D01*
X15113928Y-14942786D01*
X15085357Y-14928500D01*
X15028214Y-14928500D01*
X14999643Y-14942786D01*
X14985357Y-14957071D01*
X14971071Y-14985643D01*
X15328214Y-14814214D02*
X15356786Y-14814214D01*
X15385357Y-14828500D01*
X15399643Y-14842786D01*
X15413928Y-14871357D01*
X15428214Y-14928500D01*
X15428214Y-14999929D01*
X15413928Y-15057071D01*
X15399643Y-15085643D01*
X15385357Y-15099929D01*
X15356786Y-15114214D01*
X15328214Y-15114214D01*
X15299643Y-15099929D01*
X15285357Y-15085643D01*
X15271071Y-15057071D01*
X15256786Y-14999929D01*
X15256786Y-14928500D01*
X15271071Y-14871357D01*
X15285357Y-14842786D01*
X15299643Y-14828500D01*
X15328214Y-14814214D01*
X15613928Y-14814214D02*
X15642500Y-14814214D01*
X15671071Y-14828500D01*
X15685357Y-14842786D01*
X15699643Y-14871357D01*
X15713928Y-14928500D01*
X15713928Y-14999929D01*
X15699643Y-15057071D01*
X15685357Y-15085643D01*
X15671071Y-15099929D01*
X15642500Y-15114214D01*
X15613928Y-15114214D01*
X15585357Y-15099929D01*
X15571071Y-15085643D01*
X15556786Y-15057071D01*
X15542500Y-14999929D01*
X15542500Y-14928500D01*
X15556786Y-14871357D01*
X15571071Y-14842786D01*
X15585357Y-14828500D01*
X15613928Y-14814214D01*
X15828214Y-14814214D02*
X15828214Y-14871357D01*
X15942500Y-14814214D02*
X15942500Y-14871357D01*
X16385357Y-15228500D02*
X16371071Y-15214214D01*
X16342500Y-15171357D01*
X16328214Y-15142786D01*
X16313928Y-15099929D01*
X16299643Y-15028500D01*
X16299643Y-14971357D01*
X16313928Y-14899929D01*
X16328214Y-14857071D01*
X16342500Y-14828500D01*
X16371071Y-14785643D01*
X16385357Y-14771357D01*
X16628214Y-14914214D02*
X16628214Y-15114214D01*
X16556786Y-14799929D02*
X16485357Y-15014214D01*
X16671071Y-15014214D01*
X17013928Y-15114214D02*
X17013928Y-14814214D01*
X17142500Y-15114214D02*
X17142500Y-14957071D01*
X17128214Y-14928500D01*
X17099643Y-14914214D01*
X17056786Y-14914214D01*
X17028214Y-14928500D01*
X17013928Y-14942786D01*
X17328214Y-15114214D02*
X17299643Y-15099929D01*
X17285357Y-15085643D01*
X17271071Y-15057071D01*
X17271071Y-14971357D01*
X17285357Y-14942786D01*
X17299643Y-14928500D01*
X17328214Y-14914214D01*
X17371071Y-14914214D01*
X17399643Y-14928500D01*
X17413928Y-14942786D01*
X17428214Y-14971357D01*
X17428214Y-15057071D01*
X17413928Y-15085643D01*
X17399643Y-15099929D01*
X17371071Y-15114214D01*
X17328214Y-15114214D01*
X17599643Y-15114214D02*
X17571071Y-15099929D01*
X17556786Y-15071357D01*
X17556786Y-14814214D01*
X17828214Y-15099929D02*
X17799643Y-15114214D01*
X17742500Y-15114214D01*
X17713928Y-15099929D01*
X17699643Y-15071357D01*
X17699643Y-14957071D01*
X17713928Y-14928500D01*
X17742500Y-14914214D01*
X17799643Y-14914214D01*
X17828214Y-14928500D01*
X17842500Y-14957071D01*
X17842500Y-14985643D01*
X17699643Y-15014214D01*
X17956786Y-15099929D02*
X17985357Y-15114214D01*
X18042500Y-15114214D01*
X18071071Y-15099929D01*
X18085357Y-15071357D01*
X18085357Y-15057071D01*
X18071071Y-15028500D01*
X18042500Y-15014214D01*
X17999643Y-15014214D01*
X17971071Y-14999929D01*
X17956786Y-14971357D01*
X17956786Y-14957071D01*
X17971071Y-14928500D01*
X17999643Y-14914214D01*
X18042500Y-14914214D01*
X18071071Y-14928500D01*
X18185357Y-15228500D02*
X18199643Y-15214214D01*
X18228214Y-15171357D01*
X18242500Y-15142786D01*
X18256786Y-15099929D01*
X18271071Y-15028500D01*
X18271071Y-14971357D01*
X18256786Y-14899929D01*
X18242500Y-14857071D01*
X18228214Y-14828500D01*
X18199643Y-14785643D01*
X18185357Y-14771357D01*
X10967500Y-15294500D02*
X11127500Y-15454500D01*
X11127500Y-15294500D02*
X10967500Y-15454500D01*
X11104069Y-15431069D02*
X11104069Y-15317931D01*
X10990931Y-15317931D01*
X10990931Y-15431069D01*
X11104069Y-15431069D01*
X11571071Y-15510214D02*
X11399643Y-15510214D01*
X11485357Y-15510214D02*
X11485357Y-15210214D01*
X11456786Y-15253071D01*
X11428214Y-15281643D01*
X11399643Y-15295929D01*
X11699643Y-15481643D02*
X11713928Y-15495929D01*
X11699643Y-15510214D01*
X11685357Y-15495929D01*
X11699643Y-15481643D01*
X11699643Y-15510214D01*
X11971071Y-15210214D02*
X11913928Y-15210214D01*
X11885357Y-15224500D01*
X11871071Y-15238786D01*
X11842500Y-15281643D01*
X11828214Y-15338786D01*
X11828214Y-15453071D01*
X11842500Y-15481643D01*
X11856786Y-15495929D01*
X11885357Y-15510214D01*
X11942500Y-15510214D01*
X11971071Y-15495929D01*
X11985357Y-15481643D01*
X11999643Y-15453071D01*
X11999643Y-15381643D01*
X11985357Y-15353071D01*
X11971071Y-15338786D01*
X11942500Y-15324500D01*
X11885357Y-15324500D01*
X11856786Y-15338786D01*
X11842500Y-15353071D01*
X11828214Y-15381643D01*
X12185357Y-15210214D02*
X12213928Y-15210214D01*
X12242500Y-15224500D01*
X12256786Y-15238786D01*
X12271071Y-15267357D01*
X12285357Y-15324500D01*
X12285357Y-15395929D01*
X12271071Y-15453071D01*
X12256786Y-15481643D01*
X12242500Y-15495929D01*
X12213928Y-15510214D01*
X12185357Y-15510214D01*
X12156786Y-15495929D01*
X12142500Y-15481643D01*
X12128214Y-15453071D01*
X12113928Y-15395929D01*
X12113928Y-15324500D01*
X12128214Y-15267357D01*
X12142500Y-15238786D01*
X12156786Y-15224500D01*
X12185357Y-15210214D01*
X12471071Y-15210214D02*
X12499643Y-15210214D01*
X12528214Y-15224500D01*
X12542500Y-15238786D01*
X12556786Y-15267357D01*
X12571071Y-15324500D01*
X12571071Y-15395929D01*
X12556786Y-15453071D01*
X12542500Y-15481643D01*
X12528214Y-15495929D01*
X12499643Y-15510214D01*
X12471071Y-15510214D01*
X12442500Y-15495929D01*
X12428214Y-15481643D01*
X12413928Y-15453071D01*
X12399643Y-15395929D01*
X12399643Y-15324500D01*
X12413928Y-15267357D01*
X12428214Y-15238786D01*
X12442500Y-15224500D01*
X12471071Y-15210214D01*
X12699643Y-15510214D02*
X12699643Y-15310214D01*
X12699643Y-15338786D02*
X12713928Y-15324500D01*
X12742500Y-15310214D01*
X12785357Y-15310214D01*
X12813928Y-15324500D01*
X12828214Y-15353071D01*
X12828214Y-15510214D01*
X12828214Y-15353071D02*
X12842500Y-15324500D01*
X12871071Y-15310214D01*
X12913928Y-15310214D01*
X12942500Y-15324500D01*
X12956786Y-15353071D01*
X12956786Y-15510214D01*
X13099643Y-15510214D02*
X13099643Y-15310214D01*
X13099643Y-15338786D02*
X13113928Y-15324500D01*
X13142500Y-15310214D01*
X13185357Y-15310214D01*
X13213928Y-15324500D01*
X13228214Y-15353071D01*
X13228214Y-15510214D01*
X13228214Y-15353071D02*
X13242500Y-15324500D01*
X13271071Y-15310214D01*
X13313928Y-15310214D01*
X13342500Y-15324500D01*
X13356786Y-15353071D01*
X13356786Y-15510214D01*
X13942500Y-15195929D02*
X13685357Y-15581643D01*
X14328214Y-15210214D02*
X14356786Y-15210214D01*
X14385357Y-15224500D01*
X14399643Y-15238786D01*
X14413928Y-15267357D01*
X14428214Y-15324500D01*
X14428214Y-15395929D01*
X14413928Y-15453071D01*
X14399643Y-15481643D01*
X14385357Y-15495929D01*
X14356786Y-15510214D01*
X14328214Y-15510214D01*
X14299643Y-15495929D01*
X14285357Y-15481643D01*
X14271071Y-15453071D01*
X14256786Y-15395929D01*
X14256786Y-15324500D01*
X14271071Y-15267357D01*
X14285357Y-15238786D01*
X14299643Y-15224500D01*
X14328214Y-15210214D01*
X14556786Y-15481643D02*
X14571071Y-15495929D01*
X14556786Y-15510214D01*
X14542500Y-15495929D01*
X14556786Y-15481643D01*
X14556786Y-15510214D01*
X14756786Y-15210214D02*
X14785357Y-15210214D01*
X14813928Y-15224500D01*
X14828214Y-15238786D01*
X14842500Y-15267357D01*
X14856786Y-15324500D01*
X14856786Y-15395929D01*
X14842500Y-15453071D01*
X14828214Y-15481643D01*
X14813928Y-15495929D01*
X14785357Y-15510214D01*
X14756786Y-15510214D01*
X14728214Y-15495929D01*
X14713928Y-15481643D01*
X14699643Y-15453071D01*
X14685357Y-15395929D01*
X14685357Y-15324500D01*
X14699643Y-15267357D01*
X14713928Y-15238786D01*
X14728214Y-15224500D01*
X14756786Y-15210214D01*
X15113928Y-15210214D02*
X15056786Y-15210214D01*
X15028214Y-15224500D01*
X15013928Y-15238786D01*
X14985357Y-15281643D01*
X14971071Y-15338786D01*
X14971071Y-15453071D01*
X14985357Y-15481643D01*
X14999643Y-15495929D01*
X15028214Y-15510214D01*
X15085357Y-15510214D01*
X15113928Y-15495929D01*
X15128214Y-15481643D01*
X15142500Y-15453071D01*
X15142500Y-15381643D01*
X15128214Y-15353071D01*
X15113928Y-15338786D01*
X15085357Y-15324500D01*
X15028214Y-15324500D01*
X14999643Y-15338786D01*
X14985357Y-15353071D01*
X14971071Y-15381643D01*
X15242500Y-15210214D02*
X15428214Y-15210214D01*
X15328214Y-15324500D01*
X15371071Y-15324500D01*
X15399643Y-15338786D01*
X15413928Y-15353071D01*
X15428214Y-15381643D01*
X15428214Y-15453071D01*
X15413928Y-15481643D01*
X15399643Y-15495929D01*
X15371071Y-15510214D01*
X15285357Y-15510214D01*
X15256786Y-15495929D01*
X15242500Y-15481643D01*
X15613928Y-15210214D02*
X15642500Y-15210214D01*
X15671071Y-15224500D01*
X15685357Y-15238786D01*
X15699643Y-15267357D01*
X15713928Y-15324500D01*
X15713928Y-15395929D01*
X15699643Y-15453071D01*
X15685357Y-15481643D01*
X15671071Y-15495929D01*
X15642500Y-15510214D01*
X15613928Y-15510214D01*
X15585357Y-15495929D01*
X15571071Y-15481643D01*
X15556786Y-15453071D01*
X15542500Y-15395929D01*
X15542500Y-15324500D01*
X15556786Y-15267357D01*
X15571071Y-15238786D01*
X15585357Y-15224500D01*
X15613928Y-15210214D01*
X15828214Y-15210214D02*
X15828214Y-15267357D01*
X15942500Y-15210214D02*
X15942500Y-15267357D01*
X16385357Y-15624500D02*
X16371071Y-15610214D01*
X16342500Y-15567357D01*
X16328214Y-15538786D01*
X16313928Y-15495929D01*
X16299643Y-15424500D01*
X16299643Y-15367357D01*
X16313928Y-15295929D01*
X16328214Y-15253071D01*
X16342500Y-15224500D01*
X16371071Y-15181643D01*
X16385357Y-15167357D01*
X16485357Y-15238786D02*
X16499643Y-15224500D01*
X16528214Y-15210214D01*
X16599643Y-15210214D01*
X16628214Y-15224500D01*
X16642500Y-15238786D01*
X16656786Y-15267357D01*
X16656786Y-15295929D01*
X16642500Y-15338786D01*
X16471071Y-15510214D01*
X16656786Y-15510214D01*
X17013928Y-15510214D02*
X17013928Y-15210214D01*
X17142500Y-15510214D02*
X17142500Y-15353071D01*
X17128214Y-15324500D01*
X17099643Y-15310214D01*
X17056786Y-15310214D01*
X17028214Y-15324500D01*
X17013928Y-15338786D01*
X17328214Y-15510214D02*
X17299643Y-15495929D01*
X17285357Y-15481643D01*
X17271071Y-15453071D01*
X17271071Y-15367357D01*
X17285357Y-15338786D01*
X17299643Y-15324500D01*
X17328214Y-15310214D01*
X17371071Y-15310214D01*
X17399643Y-15324500D01*
X17413928Y-15338786D01*
X17428214Y-15367357D01*
X17428214Y-15453071D01*
X17413928Y-15481643D01*
X17399643Y-15495929D01*
X17371071Y-15510214D01*
X17328214Y-15510214D01*
X17599643Y-15510214D02*
X17571071Y-15495929D01*
X17556786Y-15467357D01*
X17556786Y-15210214D01*
X17828214Y-15495929D02*
X17799643Y-15510214D01*
X17742500Y-15510214D01*
X17713928Y-15495929D01*
X17699643Y-15467357D01*
X17699643Y-15353071D01*
X17713928Y-15324500D01*
X17742500Y-15310214D01*
X17799643Y-15310214D01*
X17828214Y-15324500D01*
X17842500Y-15353071D01*
X17842500Y-15381643D01*
X17699643Y-15410214D01*
X17956786Y-15495929D02*
X17985357Y-15510214D01*
X18042500Y-15510214D01*
X18071071Y-15495929D01*
X18085357Y-15467357D01*
X18085357Y-15453071D01*
X18071071Y-15424500D01*
X18042500Y-15410214D01*
X17999643Y-15410214D01*
X17971071Y-15395929D01*
X17956786Y-15367357D01*
X17956786Y-15353071D01*
X17971071Y-15324500D01*
X17999643Y-15310214D01*
X18042500Y-15310214D01*
X18071071Y-15324500D01*
X18185357Y-15624500D02*
X18199643Y-15610214D01*
X18228214Y-15567357D01*
X18242500Y-15538786D01*
X18256786Y-15495929D01*
X18271071Y-15424500D01*
X18271071Y-15367357D01*
X18256786Y-15295929D01*
X18242500Y-15253071D01*
X18228214Y-15224500D01*
X18199643Y-15181643D01*
X18185357Y-15167357D01*
X10807500Y-15610500D02*
X11127500Y-15930500D01*
X11127500Y-15610500D02*
X10807500Y-15930500D01*
X10967500Y-15930500D02*
X11127500Y-15770500D01*
X10967500Y-15610500D01*
X10807500Y-15770500D01*
X10967500Y-15930500D01*
X11385357Y-15606214D02*
X11571071Y-15606214D01*
X11471071Y-15720500D01*
X11513928Y-15720500D01*
X11542500Y-15734786D01*
X11556786Y-15749071D01*
X11571071Y-15777643D01*
X11571071Y-15849071D01*
X11556786Y-15877643D01*
X11542500Y-15891929D01*
X11513928Y-15906214D01*
X11428214Y-15906214D01*
X11399643Y-15891929D01*
X11385357Y-15877643D01*
X11699643Y-15877643D02*
X11713928Y-15891929D01*
X11699643Y-15906214D01*
X11685357Y-15891929D01*
X11699643Y-15877643D01*
X11699643Y-15906214D01*
X11828214Y-15634786D02*
X11842500Y-15620500D01*
X11871071Y-15606214D01*
X11942500Y-15606214D01*
X11971071Y-15620500D01*
X11985357Y-15634786D01*
X11999643Y-15663357D01*
X11999643Y-15691929D01*
X11985357Y-15734786D01*
X11813928Y-15906214D01*
X11999643Y-15906214D01*
X12185357Y-15606214D02*
X12213928Y-15606214D01*
X12242500Y-15620500D01*
X12256786Y-15634786D01*
X12271071Y-15663357D01*
X12285357Y-15720500D01*
X12285357Y-15791929D01*
X12271071Y-15849071D01*
X12256786Y-15877643D01*
X12242500Y-15891929D01*
X12213928Y-15906214D01*
X12185357Y-15906214D01*
X12156786Y-15891929D01*
X12142500Y-15877643D01*
X12128214Y-15849071D01*
X12113928Y-15791929D01*
X12113928Y-15720500D01*
X12128214Y-15663357D01*
X12142500Y-15634786D01*
X12156786Y-15620500D01*
X12185357Y-15606214D01*
X12471071Y-15606214D02*
X12499643Y-15606214D01*
X12528214Y-15620500D01*
X12542500Y-15634786D01*
X12556786Y-15663357D01*
X12571071Y-15720500D01*
X12571071Y-15791929D01*
X12556786Y-15849071D01*
X12542500Y-15877643D01*
X12528214Y-15891929D01*
X12499643Y-15906214D01*
X12471071Y-15906214D01*
X12442500Y-15891929D01*
X12428214Y-15877643D01*
X12413928Y-15849071D01*
X12399643Y-15791929D01*
X12399643Y-15720500D01*
X12413928Y-15663357D01*
X12428214Y-15634786D01*
X12442500Y-15620500D01*
X12471071Y-15606214D01*
X12699643Y-15906214D02*
X12699643Y-15706214D01*
X12699643Y-15734786D02*
X12713928Y-15720500D01*
X12742500Y-15706214D01*
X12785357Y-15706214D01*
X12813928Y-15720500D01*
X12828214Y-15749071D01*
X12828214Y-15906214D01*
X12828214Y-15749071D02*
X12842500Y-15720500D01*
X12871071Y-15706214D01*
X12913928Y-15706214D01*
X12942500Y-15720500D01*
X12956786Y-15749071D01*
X12956786Y-15906214D01*
X13099643Y-15906214D02*
X13099643Y-15706214D01*
X13099643Y-15734786D02*
X13113928Y-15720500D01*
X13142500Y-15706214D01*
X13185357Y-15706214D01*
X13213928Y-15720500D01*
X13228214Y-15749071D01*
X13228214Y-15906214D01*
X13228214Y-15749071D02*
X13242500Y-15720500D01*
X13271071Y-15706214D01*
X13313928Y-15706214D01*
X13342500Y-15720500D01*
X13356786Y-15749071D01*
X13356786Y-15906214D01*
X13942500Y-15591929D02*
X13685357Y-15977643D01*
X14328214Y-15606214D02*
X14356786Y-15606214D01*
X14385357Y-15620500D01*
X14399643Y-15634786D01*
X14413928Y-15663357D01*
X14428214Y-15720500D01*
X14428214Y-15791929D01*
X14413928Y-15849071D01*
X14399643Y-15877643D01*
X14385357Y-15891929D01*
X14356786Y-15906214D01*
X14328214Y-15906214D01*
X14299643Y-15891929D01*
X14285357Y-15877643D01*
X14271071Y-15849071D01*
X14256786Y-15791929D01*
X14256786Y-15720500D01*
X14271071Y-15663357D01*
X14285357Y-15634786D01*
X14299643Y-15620500D01*
X14328214Y-15606214D01*
X14556786Y-15877643D02*
X14571071Y-15891929D01*
X14556786Y-15906214D01*
X14542500Y-15891929D01*
X14556786Y-15877643D01*
X14556786Y-15906214D01*
X14856786Y-15906214D02*
X14685357Y-15906214D01*
X14771071Y-15906214D02*
X14771071Y-15606214D01*
X14742500Y-15649071D01*
X14713928Y-15677643D01*
X14685357Y-15691929D01*
X14971071Y-15634786D02*
X14985357Y-15620500D01*
X15013928Y-15606214D01*
X15085357Y-15606214D01*
X15113928Y-15620500D01*
X15128214Y-15634786D01*
X15142500Y-15663357D01*
X15142500Y-15691929D01*
X15128214Y-15734786D01*
X14956786Y-15906214D01*
X15142500Y-15906214D01*
X15399643Y-15606214D02*
X15342500Y-15606214D01*
X15313928Y-15620500D01*
X15299643Y-15634786D01*
X15271071Y-15677643D01*
X15256786Y-15734786D01*
X15256786Y-15849071D01*
X15271071Y-15877643D01*
X15285357Y-15891929D01*
X15313928Y-15906214D01*
X15371071Y-15906214D01*
X15399643Y-15891929D01*
X15413928Y-15877643D01*
X15428214Y-15849071D01*
X15428214Y-15777643D01*
X15413928Y-15749071D01*
X15399643Y-15734786D01*
X15371071Y-15720500D01*
X15313928Y-15720500D01*
X15285357Y-15734786D01*
X15271071Y-15749071D01*
X15256786Y-15777643D01*
X15613928Y-15606214D02*
X15642500Y-15606214D01*
X15671071Y-15620500D01*
X15685357Y-15634786D01*
X15699643Y-15663357D01*
X15713928Y-15720500D01*
X15713928Y-15791929D01*
X15699643Y-15849071D01*
X15685357Y-15877643D01*
X15671071Y-15891929D01*
X15642500Y-15906214D01*
X15613928Y-15906214D01*
X15585357Y-15891929D01*
X15571071Y-15877643D01*
X15556786Y-15849071D01*
X15542500Y-15791929D01*
X15542500Y-15720500D01*
X15556786Y-15663357D01*
X15571071Y-15634786D01*
X15585357Y-15620500D01*
X15613928Y-15606214D01*
X15828214Y-15606214D02*
X15828214Y-15663357D01*
X15942500Y-15606214D02*
X15942500Y-15663357D01*
X16385357Y-16020500D02*
X16371071Y-16006214D01*
X16342500Y-15963357D01*
X16328214Y-15934786D01*
X16313928Y-15891929D01*
X16299643Y-15820500D01*
X16299643Y-15763357D01*
X16313928Y-15691929D01*
X16328214Y-15649071D01*
X16342500Y-15620500D01*
X16371071Y-15577643D01*
X16385357Y-15563357D01*
X16485357Y-15634786D02*
X16499643Y-15620500D01*
X16528214Y-15606214D01*
X16599643Y-15606214D01*
X16628214Y-15620500D01*
X16642500Y-15634786D01*
X16656786Y-15663357D01*
X16656786Y-15691929D01*
X16642500Y-15734786D01*
X16471071Y-15906214D01*
X16656786Y-15906214D01*
X17013928Y-15906214D02*
X17013928Y-15606214D01*
X17142500Y-15906214D02*
X17142500Y-15749071D01*
X17128214Y-15720500D01*
X17099643Y-15706214D01*
X17056786Y-15706214D01*
X17028214Y-15720500D01*
X17013928Y-15734786D01*
X17328214Y-15906214D02*
X17299643Y-15891929D01*
X17285357Y-15877643D01*
X17271071Y-15849071D01*
X17271071Y-15763357D01*
X17285357Y-15734786D01*
X17299643Y-15720500D01*
X17328214Y-15706214D01*
X17371071Y-15706214D01*
X17399643Y-15720500D01*
X17413928Y-15734786D01*
X17428214Y-15763357D01*
X17428214Y-15849071D01*
X17413928Y-15877643D01*
X17399643Y-15891929D01*
X17371071Y-15906214D01*
X17328214Y-15906214D01*
X17599643Y-15906214D02*
X17571071Y-15891929D01*
X17556786Y-15863357D01*
X17556786Y-15606214D01*
X17828214Y-15891929D02*
X17799643Y-15906214D01*
X17742500Y-15906214D01*
X17713928Y-15891929D01*
X17699643Y-15863357D01*
X17699643Y-15749071D01*
X17713928Y-15720500D01*
X17742500Y-15706214D01*
X17799643Y-15706214D01*
X17828214Y-15720500D01*
X17842500Y-15749071D01*
X17842500Y-15777643D01*
X17699643Y-15806214D01*
X17956786Y-15891929D02*
X17985357Y-15906214D01*
X18042500Y-15906214D01*
X18071071Y-15891929D01*
X18085357Y-15863357D01*
X18085357Y-15849071D01*
X18071071Y-15820500D01*
X18042500Y-15806214D01*
X17999643Y-15806214D01*
X17971071Y-15791929D01*
X17956786Y-15763357D01*
X17956786Y-15749071D01*
X17971071Y-15720500D01*
X17999643Y-15706214D01*
X18042500Y-15706214D01*
X18071071Y-15720500D01*
X18185357Y-16020500D02*
X18199643Y-16006214D01*
X18228214Y-15963357D01*
X18242500Y-15934786D01*
X18256786Y-15891929D01*
X18271071Y-15820500D01*
X18271071Y-15763357D01*
X18256786Y-15691929D01*
X18242500Y-15649071D01*
X18228214Y-15620500D01*
X18199643Y-15577643D01*
X18185357Y-15563357D01*
M02*
