G04 #@! TF.GenerationSoftware,KiCad,Pcbnew,(5.1.12)-1*
G04 #@! TF.CreationDate,2021-12-17T13:10:56+01:00*
G04 #@! TF.ProjectId,eth_mezz_mag_rj45,6574685f-6d65-47a7-9a5f-6d61675f726a,rev?*
G04 #@! TF.SameCoordinates,Original*
G04 #@! TF.FileFunction,Soldermask,Bot*
G04 #@! TF.FilePolarity,Negative*
%FSLAX46Y46*%
G04 Gerber Fmt 4.6, Leading zero omitted, Abs format (unit mm)*
G04 Created by KiCad (PCBNEW (5.1.12)-1) date 2021-12-17 13:10:56*
%MOMM*%
%LPD*%
G01*
G04 APERTURE LIST*
%ADD10C,0.800000*%
%ADD11R,2.794000X0.609600*%
%ADD12C,6.400000*%
%ADD13C,3.810000*%
%ADD14C,3.556000*%
%ADD15C,1.600000*%
%ADD16R,1.500000X1.500000*%
%ADD17C,1.500000*%
%ADD18C,2.200000*%
%ADD19C,3.250000*%
G04 APERTURE END LIST*
D10*
X124889820Y-98307900D03*
X124889820Y-93250500D03*
D11*
X122139000Y-97779200D03*
X125441000Y-97279200D03*
X122139000Y-96779200D03*
X125441000Y-96279200D03*
X122139000Y-95779200D03*
X125441000Y-95279200D03*
X122139000Y-94779200D03*
X125441000Y-94279200D03*
X122139000Y-93779200D03*
D10*
X119093056Y-106981344D03*
X117396000Y-106278400D03*
X115698944Y-106981344D03*
X114996000Y-108678400D03*
X115698944Y-110375456D03*
X117396000Y-111078400D03*
X119093056Y-110375456D03*
X119796000Y-108678400D03*
D12*
X117396000Y-108678400D03*
D10*
X119093056Y-81174944D03*
X117396000Y-80472000D03*
X115698944Y-81174944D03*
X114996000Y-82872000D03*
X115698944Y-84569056D03*
X117396000Y-85272000D03*
X119093056Y-84569056D03*
X119796000Y-82872000D03*
D12*
X117396000Y-82872000D03*
D13*
X131467600Y-85767600D03*
X125117600Y-85767600D03*
X131467600Y-79417600D03*
D14*
X128292600Y-82592600D03*
D13*
X125117600Y-79417600D03*
D15*
X154720000Y-90366000D03*
X156750000Y-90366000D03*
X154720000Y-103816000D03*
D16*
X141260000Y-102680000D03*
D17*
X141260000Y-100140000D03*
X141260000Y-97600000D03*
X141260000Y-95060000D03*
X141260000Y-92520000D03*
X143800000Y-101410000D03*
X143800000Y-98870000D03*
X143800000Y-96330000D03*
X143800000Y-93790000D03*
D18*
X147102000Y-104966000D03*
D19*
X150150000Y-102680000D03*
X150150000Y-91250000D03*
D18*
X147100000Y-89220000D03*
D15*
X156750000Y-103816000D03*
D17*
X143800000Y-91250000D03*
M02*
