%FSLAX45Y45*%
G04 Gerber Fmt 4.5, Leading zero omitted, Abs format (unit mm)*
G04 Created by KiCad (PCBNEW (5.1.12)-1) date 2021-12-16 15:17:34*
%MOMM*%
%LPD*%
G01*
G04 APERTURE LIST*
%TA.AperFunction,Profile*%
%ADD10C,0.050000*%
%TD*%
%ADD11C,0.200000*%
%ADD12C,0.300000*%
G04 APERTURE END LIST*
D10*
X9525000Y-11772900D02*
X9525000Y-7672900D01*
X14525000Y-11772900D02*
X9525000Y-11772900D01*
X14525000Y-7672900D02*
X14525000Y-11772900D01*
X9525000Y-7672900D02*
X14525000Y-7672900D01*
D11*
X10188000Y-9121200D02*
X10513000Y-9446200D01*
X10513000Y-9121200D02*
X10188000Y-9446200D01*
X10188000Y-10264200D02*
X10513000Y-10589200D01*
X10513000Y-10264200D02*
X10188000Y-10589200D01*
D12*
X9808928Y-12241114D02*
X9808928Y-11941114D01*
X9880357Y-11941114D01*
X9923214Y-11955400D01*
X9951786Y-11983971D01*
X9966071Y-12012543D01*
X9980357Y-12069686D01*
X9980357Y-12112543D01*
X9966071Y-12169686D01*
X9951786Y-12198257D01*
X9923214Y-12226829D01*
X9880357Y-12241114D01*
X9808928Y-12241114D01*
X10108928Y-12241114D02*
X10108928Y-12041114D01*
X10108928Y-12098257D02*
X10123214Y-12069686D01*
X10137500Y-12055400D01*
X10166071Y-12041114D01*
X10194643Y-12041114D01*
X10294643Y-12241114D02*
X10294643Y-12041114D01*
X10294643Y-11941114D02*
X10280357Y-11955400D01*
X10294643Y-11969686D01*
X10308928Y-11955400D01*
X10294643Y-11941114D01*
X10294643Y-11969686D01*
X10480357Y-12241114D02*
X10451786Y-12226829D01*
X10437500Y-12198257D01*
X10437500Y-11941114D01*
X10637500Y-12241114D02*
X10608928Y-12226829D01*
X10594643Y-12198257D01*
X10594643Y-11941114D01*
X10980357Y-12241114D02*
X10980357Y-11941114D01*
X11080357Y-12155400D01*
X11180357Y-11941114D01*
X11180357Y-12241114D01*
X11451786Y-12241114D02*
X11451786Y-12083971D01*
X11437500Y-12055400D01*
X11408928Y-12041114D01*
X11351786Y-12041114D01*
X11323214Y-12055400D01*
X11451786Y-12226829D02*
X11423214Y-12241114D01*
X11351786Y-12241114D01*
X11323214Y-12226829D01*
X11308928Y-12198257D01*
X11308928Y-12169686D01*
X11323214Y-12141114D01*
X11351786Y-12126829D01*
X11423214Y-12126829D01*
X11451786Y-12112543D01*
X11594643Y-12041114D02*
X11594643Y-12341114D01*
X11594643Y-12055400D02*
X11623214Y-12041114D01*
X11680357Y-12041114D01*
X11708928Y-12055400D01*
X11723214Y-12069686D01*
X11737500Y-12098257D01*
X11737500Y-12183971D01*
X11723214Y-12212543D01*
X11708928Y-12226829D01*
X11680357Y-12241114D01*
X11623214Y-12241114D01*
X11594643Y-12226829D01*
X11866071Y-12212543D02*
X11880357Y-12226829D01*
X11866071Y-12241114D01*
X11851786Y-12226829D01*
X11866071Y-12212543D01*
X11866071Y-12241114D01*
X11866071Y-12055400D02*
X11880357Y-12069686D01*
X11866071Y-12083971D01*
X11851786Y-12069686D01*
X11866071Y-12055400D01*
X11866071Y-12083971D01*
X9197500Y-12572900D02*
X9522500Y-12897900D01*
X9522500Y-12572900D02*
X9197500Y-12897900D01*
X9780357Y-12571114D02*
X9966071Y-12571114D01*
X9866071Y-12685400D01*
X9908928Y-12685400D01*
X9937500Y-12699686D01*
X9951786Y-12713971D01*
X9966071Y-12742543D01*
X9966071Y-12813971D01*
X9951786Y-12842543D01*
X9937500Y-12856829D01*
X9908928Y-12871114D01*
X9823214Y-12871114D01*
X9794643Y-12856829D01*
X9780357Y-12842543D01*
X10094643Y-12842543D02*
X10108928Y-12856829D01*
X10094643Y-12871114D01*
X10080357Y-12856829D01*
X10094643Y-12842543D01*
X10094643Y-12871114D01*
X10223214Y-12599686D02*
X10237500Y-12585400D01*
X10266071Y-12571114D01*
X10337500Y-12571114D01*
X10366071Y-12585400D01*
X10380357Y-12599686D01*
X10394643Y-12628257D01*
X10394643Y-12656829D01*
X10380357Y-12699686D01*
X10208928Y-12871114D01*
X10394643Y-12871114D01*
X10666071Y-12571114D02*
X10523214Y-12571114D01*
X10508928Y-12713971D01*
X10523214Y-12699686D01*
X10551786Y-12685400D01*
X10623214Y-12685400D01*
X10651786Y-12699686D01*
X10666071Y-12713971D01*
X10680357Y-12742543D01*
X10680357Y-12813971D01*
X10666071Y-12842543D01*
X10651786Y-12856829D01*
X10623214Y-12871114D01*
X10551786Y-12871114D01*
X10523214Y-12856829D01*
X10508928Y-12842543D01*
X10866071Y-12571114D02*
X10894643Y-12571114D01*
X10923214Y-12585400D01*
X10937500Y-12599686D01*
X10951786Y-12628257D01*
X10966071Y-12685400D01*
X10966071Y-12756829D01*
X10951786Y-12813971D01*
X10937500Y-12842543D01*
X10923214Y-12856829D01*
X10894643Y-12871114D01*
X10866071Y-12871114D01*
X10837500Y-12856829D01*
X10823214Y-12842543D01*
X10808928Y-12813971D01*
X10794643Y-12756829D01*
X10794643Y-12685400D01*
X10808928Y-12628257D01*
X10823214Y-12599686D01*
X10837500Y-12585400D01*
X10866071Y-12571114D01*
X11094643Y-12871114D02*
X11094643Y-12671114D01*
X11094643Y-12699686D02*
X11108928Y-12685400D01*
X11137500Y-12671114D01*
X11180357Y-12671114D01*
X11208928Y-12685400D01*
X11223214Y-12713971D01*
X11223214Y-12871114D01*
X11223214Y-12713971D02*
X11237500Y-12685400D01*
X11266071Y-12671114D01*
X11308928Y-12671114D01*
X11337500Y-12685400D01*
X11351786Y-12713971D01*
X11351786Y-12871114D01*
X11494643Y-12871114D02*
X11494643Y-12671114D01*
X11494643Y-12699686D02*
X11508928Y-12685400D01*
X11537500Y-12671114D01*
X11580357Y-12671114D01*
X11608928Y-12685400D01*
X11623214Y-12713971D01*
X11623214Y-12871114D01*
X11623214Y-12713971D02*
X11637500Y-12685400D01*
X11666071Y-12671114D01*
X11708928Y-12671114D01*
X11737500Y-12685400D01*
X11751786Y-12713971D01*
X11751786Y-12871114D01*
X12337500Y-12556829D02*
X12080357Y-12942543D01*
X12723214Y-12571114D02*
X12751786Y-12571114D01*
X12780357Y-12585400D01*
X12794643Y-12599686D01*
X12808928Y-12628257D01*
X12823214Y-12685400D01*
X12823214Y-12756829D01*
X12808928Y-12813971D01*
X12794643Y-12842543D01*
X12780357Y-12856829D01*
X12751786Y-12871114D01*
X12723214Y-12871114D01*
X12694643Y-12856829D01*
X12680357Y-12842543D01*
X12666071Y-12813971D01*
X12651786Y-12756829D01*
X12651786Y-12685400D01*
X12666071Y-12628257D01*
X12680357Y-12599686D01*
X12694643Y-12585400D01*
X12723214Y-12571114D01*
X12951786Y-12842543D02*
X12966071Y-12856829D01*
X12951786Y-12871114D01*
X12937500Y-12856829D01*
X12951786Y-12842543D01*
X12951786Y-12871114D01*
X13251786Y-12871114D02*
X13080357Y-12871114D01*
X13166071Y-12871114D02*
X13166071Y-12571114D01*
X13137500Y-12613971D01*
X13108928Y-12642543D01*
X13080357Y-12656829D01*
X13366071Y-12599686D02*
X13380357Y-12585400D01*
X13408928Y-12571114D01*
X13480357Y-12571114D01*
X13508928Y-12585400D01*
X13523214Y-12599686D01*
X13537500Y-12628257D01*
X13537500Y-12656829D01*
X13523214Y-12699686D01*
X13351786Y-12871114D01*
X13537500Y-12871114D01*
X13708928Y-12699686D02*
X13680357Y-12685400D01*
X13666071Y-12671114D01*
X13651786Y-12642543D01*
X13651786Y-12628257D01*
X13666071Y-12599686D01*
X13680357Y-12585400D01*
X13708928Y-12571114D01*
X13766071Y-12571114D01*
X13794643Y-12585400D01*
X13808928Y-12599686D01*
X13823214Y-12628257D01*
X13823214Y-12642543D01*
X13808928Y-12671114D01*
X13794643Y-12685400D01*
X13766071Y-12699686D01*
X13708928Y-12699686D01*
X13680357Y-12713971D01*
X13666071Y-12728257D01*
X13651786Y-12756829D01*
X13651786Y-12813971D01*
X13666071Y-12842543D01*
X13680357Y-12856829D01*
X13708928Y-12871114D01*
X13766071Y-12871114D01*
X13794643Y-12856829D01*
X13808928Y-12842543D01*
X13823214Y-12813971D01*
X13823214Y-12756829D01*
X13808928Y-12728257D01*
X13794643Y-12713971D01*
X13766071Y-12699686D01*
X14008928Y-12571114D02*
X14037500Y-12571114D01*
X14066071Y-12585400D01*
X14080357Y-12599686D01*
X14094643Y-12628257D01*
X14108928Y-12685400D01*
X14108928Y-12756829D01*
X14094643Y-12813971D01*
X14080357Y-12842543D01*
X14066071Y-12856829D01*
X14037500Y-12871114D01*
X14008928Y-12871114D01*
X13980357Y-12856829D01*
X13966071Y-12842543D01*
X13951786Y-12813971D01*
X13937500Y-12756829D01*
X13937500Y-12685400D01*
X13951786Y-12628257D01*
X13966071Y-12599686D01*
X13980357Y-12585400D01*
X14008928Y-12571114D01*
X14223214Y-12571114D02*
X14223214Y-12628257D01*
X14337500Y-12571114D02*
X14337500Y-12628257D01*
X14780357Y-12985400D02*
X14766071Y-12971114D01*
X14737500Y-12928257D01*
X14723214Y-12899686D01*
X14708928Y-12856829D01*
X14694643Y-12785400D01*
X14694643Y-12728257D01*
X14708928Y-12656829D01*
X14723214Y-12613971D01*
X14737500Y-12585400D01*
X14766071Y-12542543D01*
X14780357Y-12528257D01*
X14880357Y-12599686D02*
X14894643Y-12585400D01*
X14923214Y-12571114D01*
X14994643Y-12571114D01*
X15023214Y-12585400D01*
X15037500Y-12599686D01*
X15051786Y-12628257D01*
X15051786Y-12656829D01*
X15037500Y-12699686D01*
X14866071Y-12871114D01*
X15051786Y-12871114D01*
X15408928Y-12871114D02*
X15408928Y-12571114D01*
X15537500Y-12871114D02*
X15537500Y-12713971D01*
X15523214Y-12685400D01*
X15494643Y-12671114D01*
X15451786Y-12671114D01*
X15423214Y-12685400D01*
X15408928Y-12699686D01*
X15723214Y-12871114D02*
X15694643Y-12856829D01*
X15680357Y-12842543D01*
X15666071Y-12813971D01*
X15666071Y-12728257D01*
X15680357Y-12699686D01*
X15694643Y-12685400D01*
X15723214Y-12671114D01*
X15766071Y-12671114D01*
X15794643Y-12685400D01*
X15808928Y-12699686D01*
X15823214Y-12728257D01*
X15823214Y-12813971D01*
X15808928Y-12842543D01*
X15794643Y-12856829D01*
X15766071Y-12871114D01*
X15723214Y-12871114D01*
X15994643Y-12871114D02*
X15966071Y-12856829D01*
X15951786Y-12828257D01*
X15951786Y-12571114D01*
X16223214Y-12856829D02*
X16194643Y-12871114D01*
X16137500Y-12871114D01*
X16108928Y-12856829D01*
X16094643Y-12828257D01*
X16094643Y-12713971D01*
X16108928Y-12685400D01*
X16137500Y-12671114D01*
X16194643Y-12671114D01*
X16223214Y-12685400D01*
X16237500Y-12713971D01*
X16237500Y-12742543D01*
X16094643Y-12771114D01*
X16351786Y-12856829D02*
X16380357Y-12871114D01*
X16437500Y-12871114D01*
X16466071Y-12856829D01*
X16480357Y-12828257D01*
X16480357Y-12813971D01*
X16466071Y-12785400D01*
X16437500Y-12771114D01*
X16394643Y-12771114D01*
X16366071Y-12756829D01*
X16351786Y-12728257D01*
X16351786Y-12713971D01*
X16366071Y-12685400D01*
X16394643Y-12671114D01*
X16437500Y-12671114D01*
X16466071Y-12685400D01*
X16580357Y-12985400D02*
X16594643Y-12971114D01*
X16623214Y-12928257D01*
X16637500Y-12899686D01*
X16651786Y-12856829D01*
X16666071Y-12785400D01*
X16666071Y-12728257D01*
X16651786Y-12656829D01*
X16637500Y-12613971D01*
X16623214Y-12585400D01*
X16594643Y-12542543D01*
X16580357Y-12528257D01*
X17123214Y-12985400D02*
X17108928Y-12971114D01*
X17080357Y-12928257D01*
X17066071Y-12899686D01*
X17051786Y-12856829D01*
X17037500Y-12785400D01*
X17037500Y-12728257D01*
X17051786Y-12656829D01*
X17066071Y-12613971D01*
X17080357Y-12585400D01*
X17108928Y-12542543D01*
X17123214Y-12528257D01*
X17237500Y-12671114D02*
X17237500Y-12871114D01*
X17237500Y-12699686D02*
X17251786Y-12685400D01*
X17280357Y-12671114D01*
X17323214Y-12671114D01*
X17351786Y-12685400D01*
X17366071Y-12713971D01*
X17366071Y-12871114D01*
X17551786Y-12871114D02*
X17523214Y-12856829D01*
X17508928Y-12842543D01*
X17494643Y-12813971D01*
X17494643Y-12728257D01*
X17508928Y-12699686D01*
X17523214Y-12685400D01*
X17551786Y-12671114D01*
X17594643Y-12671114D01*
X17623214Y-12685400D01*
X17637500Y-12699686D01*
X17651786Y-12728257D01*
X17651786Y-12813971D01*
X17637500Y-12842543D01*
X17623214Y-12856829D01*
X17594643Y-12871114D01*
X17551786Y-12871114D01*
X17737500Y-12671114D02*
X17851786Y-12671114D01*
X17780357Y-12571114D02*
X17780357Y-12828257D01*
X17794643Y-12856829D01*
X17823214Y-12871114D01*
X17851786Y-12871114D01*
X18180357Y-12671114D02*
X18180357Y-12971114D01*
X18180357Y-12685400D02*
X18208928Y-12671114D01*
X18266071Y-12671114D01*
X18294643Y-12685400D01*
X18308928Y-12699686D01*
X18323214Y-12728257D01*
X18323214Y-12813971D01*
X18308928Y-12842543D01*
X18294643Y-12856829D01*
X18266071Y-12871114D01*
X18208928Y-12871114D01*
X18180357Y-12856829D01*
X18494643Y-12871114D02*
X18466071Y-12856829D01*
X18451786Y-12828257D01*
X18451786Y-12571114D01*
X18737500Y-12871114D02*
X18737500Y-12713971D01*
X18723214Y-12685400D01*
X18694643Y-12671114D01*
X18637500Y-12671114D01*
X18608928Y-12685400D01*
X18737500Y-12856829D02*
X18708928Y-12871114D01*
X18637500Y-12871114D01*
X18608928Y-12856829D01*
X18594643Y-12828257D01*
X18594643Y-12799686D01*
X18608928Y-12771114D01*
X18637500Y-12756829D01*
X18708928Y-12756829D01*
X18737500Y-12742543D01*
X18837500Y-12671114D02*
X18951786Y-12671114D01*
X18880357Y-12571114D02*
X18880357Y-12828257D01*
X18894643Y-12856829D01*
X18923214Y-12871114D01*
X18951786Y-12871114D01*
X19166071Y-12856829D02*
X19137500Y-12871114D01*
X19080357Y-12871114D01*
X19051786Y-12856829D01*
X19037500Y-12828257D01*
X19037500Y-12713971D01*
X19051786Y-12685400D01*
X19080357Y-12671114D01*
X19137500Y-12671114D01*
X19166071Y-12685400D01*
X19180357Y-12713971D01*
X19180357Y-12742543D01*
X19037500Y-12771114D01*
X19437500Y-12871114D02*
X19437500Y-12571114D01*
X19437500Y-12856829D02*
X19408928Y-12871114D01*
X19351786Y-12871114D01*
X19323214Y-12856829D01*
X19308928Y-12842543D01*
X19294643Y-12813971D01*
X19294643Y-12728257D01*
X19308928Y-12699686D01*
X19323214Y-12685400D01*
X19351786Y-12671114D01*
X19408928Y-12671114D01*
X19437500Y-12685400D01*
X19551786Y-12985400D02*
X19566071Y-12971114D01*
X19594643Y-12928257D01*
X19608928Y-12899686D01*
X19623214Y-12856829D01*
X19637500Y-12785400D01*
X19637500Y-12728257D01*
X19623214Y-12656829D01*
X19608928Y-12613971D01*
X19594643Y-12585400D01*
X19566071Y-12542543D01*
X19551786Y-12528257D01*
M02*
