G04 #@! TF.GenerationSoftware,KiCad,Pcbnew,(5.1.12)-1*
G04 #@! TF.CreationDate,2021-12-16T15:17:12+01:00*
G04 #@! TF.ProjectId,rj45_mag_sma,726a3435-5f6d-4616-975f-736d612e6b69,rev?*
G04 #@! TF.SameCoordinates,Original*
G04 #@! TF.FileFunction,Soldermask,Top*
G04 #@! TF.FilePolarity,Negative*
%FSLAX46Y46*%
G04 Gerber Fmt 4.6, Leading zero omitted, Abs format (unit mm)*
G04 Created by KiCad (PCBNEW (5.1.12)-1) date 2021-12-16 15:17:12*
%MOMM*%
%LPD*%
G01*
G04 APERTURE LIST*
%ADD10C,1.500000*%
%ADD11C,2.350000*%
%ADD12C,2.150000*%
%ADD13C,3.350000*%
%ADD14C,3.100000*%
%ADD15C,1.600000*%
G04 APERTURE END LIST*
D10*
X129984353Y-92290325D02*
X130084464Y-92226930D01*
X131490132Y-90739851D02*
X131431725Y-90842953D01*
X129881251Y-92348731D02*
X129984353Y-92290325D01*
X131728811Y-90072789D02*
X131702848Y-90188405D01*
X129667079Y-92450027D02*
X129775408Y-92402008D01*
X131591428Y-90525679D02*
X131543409Y-90634008D01*
X131543409Y-90634008D02*
X131490132Y-90739851D01*
X129097438Y-92607668D02*
X129214189Y-92587410D01*
X129444008Y-92529843D02*
X129556523Y-92492673D01*
X130364485Y-92008399D02*
X130450306Y-91926692D01*
X131431725Y-90842953D02*
X131368331Y-90943064D01*
X131227198Y-91133359D02*
X131149800Y-91223085D01*
X128743200Y-92633800D02*
X127920200Y-92633800D01*
X129556523Y-92492673D02*
X129667079Y-92450027D01*
X133271772Y-93923000D02*
X133092321Y-94077796D01*
X131634074Y-90415123D02*
X131591428Y-90525679D01*
X130450306Y-91926692D02*
X131068093Y-91308906D01*
X130181344Y-92158699D02*
X130274759Y-92085797D01*
X129775408Y-92402008D02*
X129881251Y-92348731D01*
X131368331Y-90943064D02*
X131300100Y-91039944D01*
X131300100Y-91039944D02*
X131227198Y-91133359D01*
X131149800Y-91223085D02*
X131068093Y-91308906D01*
X128861659Y-92630891D02*
X128979834Y-92622174D01*
X129329805Y-92561448D02*
X129444008Y-92529843D01*
X130274759Y-92085797D02*
X130364485Y-92008399D01*
X128979834Y-92622174D02*
X129097438Y-92607668D01*
X133443413Y-93759586D02*
X133271772Y-93923000D01*
X131702848Y-90188405D02*
X131671244Y-90302608D01*
X129214189Y-92587410D02*
X129329805Y-92561448D01*
X131671244Y-90302608D02*
X131634074Y-90415123D01*
X131775200Y-89601800D02*
X131775200Y-83108800D01*
X131775200Y-89601800D02*
X131772291Y-89720259D01*
X131772291Y-89720259D02*
X131763574Y-89838434D01*
X131763574Y-89838434D02*
X131749069Y-89956038D01*
X130084464Y-92226930D02*
X130181344Y-92158699D01*
X131749069Y-89956038D02*
X131728811Y-90072789D01*
X128743200Y-92633800D02*
X128861659Y-92630891D01*
X134189911Y-93017198D02*
X134104092Y-93098906D01*
X135456961Y-92417929D02*
X135340209Y-92438187D01*
X136090561Y-101382669D02*
X135973810Y-101362411D01*
X136326340Y-101405891D02*
X136208165Y-101397174D01*
X135340209Y-92438187D02*
X135224593Y-92464150D01*
X133502107Y-99670746D02*
X133702329Y-99797536D01*
X131430818Y-94965889D02*
X131202411Y-95029097D01*
X132711729Y-94360062D02*
X132511507Y-94486852D01*
X135692740Y-92394707D02*
X135574565Y-92403424D01*
X131493068Y-99007050D02*
X131728277Y-99036060D01*
X130971179Y-95081022D02*
X130737677Y-95121539D01*
X134887319Y-92575570D02*
X134778989Y-92623589D01*
X133084218Y-99447380D02*
X133295904Y-99553934D01*
X132511507Y-94486852D02*
X132305304Y-94603664D01*
X130029200Y-95173800D02*
X127920200Y-95173800D01*
X134104092Y-93098906D02*
X133443413Y-93759586D01*
X131019800Y-98983800D02*
X131256719Y-98989616D01*
X131202411Y-95029097D02*
X130971179Y-95081022D01*
X132867558Y-99351342D02*
X133084218Y-99447380D01*
X133295904Y-99553934D02*
X133502107Y-99670746D01*
X132905490Y-94223601D02*
X132711729Y-94360062D01*
X134570045Y-92735272D02*
X134469933Y-92798667D01*
X134823512Y-100783400D02*
X134737693Y-100701693D01*
X135858193Y-101336449D02*
X135743990Y-101304844D01*
X135811200Y-92391800D02*
X135692740Y-92394707D01*
X131019800Y-98983800D02*
X127920200Y-98983800D01*
X135973810Y-101362411D02*
X135858193Y-101336449D01*
X135743990Y-101304844D02*
X135631475Y-101267674D01*
X135520920Y-101225028D02*
X135412590Y-101177009D01*
X135574565Y-92403424D02*
X135456961Y-92417929D01*
X131961779Y-99076576D02*
X132193011Y-99128501D01*
X134373053Y-92866897D02*
X134279637Y-92939800D01*
X132305304Y-94603664D02*
X132093618Y-94710218D01*
X131876958Y-94806257D02*
X131655847Y-94891549D01*
X130266119Y-95167983D02*
X130029200Y-95173800D01*
X131256719Y-98989616D02*
X131493068Y-99007050D01*
X135110390Y-92495754D02*
X134997875Y-92532924D01*
X134469933Y-92798667D02*
X134373053Y-92866897D01*
X136444800Y-101408800D02*
X138752200Y-101408800D01*
X135631475Y-101267674D02*
X135520920Y-101225028D01*
X134082921Y-100079802D02*
X134262372Y-100234598D01*
X134778989Y-92623589D02*
X134673146Y-92676866D01*
X132421418Y-99191710D02*
X132646447Y-99266050D01*
X135306747Y-101123732D02*
X135203645Y-101065326D01*
X134673146Y-92676866D02*
X134570045Y-92735272D01*
X134279637Y-92939800D02*
X134189911Y-93017198D01*
X131728277Y-99036060D02*
X131961779Y-99076576D01*
X132646447Y-99266050D02*
X132867558Y-99351342D01*
X134737693Y-100701693D02*
X134434013Y-100398013D01*
X132093618Y-94710218D02*
X131876958Y-94806257D01*
X131655847Y-94891549D02*
X131430818Y-94965889D01*
X136444800Y-101408800D02*
X136326340Y-101405891D01*
X130502468Y-95150549D02*
X130266119Y-95167983D01*
X135811200Y-92391800D02*
X138752200Y-92391800D01*
X134997875Y-92532924D02*
X134887319Y-92575570D01*
X134262372Y-100234598D02*
X134434013Y-100398013D01*
X130737677Y-95121539D02*
X130502468Y-95150549D01*
X135224593Y-92464150D02*
X135110390Y-92495754D01*
X132193011Y-99128501D02*
X132421418Y-99191710D01*
X133896090Y-99933997D02*
X134082921Y-100079802D01*
X135412590Y-101177009D02*
X135306747Y-101123732D01*
X133702329Y-99797536D02*
X133896090Y-99933997D01*
X136208165Y-101397174D02*
X136090561Y-101382669D01*
X133092321Y-94077796D02*
X132905490Y-94223601D01*
X135006654Y-100933700D02*
X134913238Y-100860798D01*
X134913238Y-100860798D02*
X134823512Y-100783400D01*
X129479800Y-101523800D02*
X129598259Y-101526708D01*
X131470048Y-102563250D02*
X131418875Y-102490589D01*
X129479800Y-101523800D02*
X127920200Y-101523800D01*
X131740408Y-103215957D02*
X131720936Y-103129245D01*
X129598259Y-101526708D02*
X129716434Y-101535425D01*
X129716434Y-101535425D02*
X129834038Y-101549930D01*
X130293123Y-101664925D02*
X130403678Y-101707570D01*
X130720953Y-101867273D02*
X130821064Y-101930668D01*
X130821064Y-101930668D02*
X130917944Y-101998898D01*
X131697233Y-103043592D02*
X131669356Y-102959206D01*
X131517594Y-102638333D02*
X131470048Y-102563250D01*
X131637371Y-102876289D02*
X131601357Y-102795042D01*
X131418875Y-102490589D02*
X131364198Y-102420528D01*
X129834038Y-101549930D02*
X129950789Y-101570188D01*
X129950789Y-101570188D02*
X130066405Y-101596150D01*
X130066405Y-101596150D02*
X130180608Y-101627755D01*
X130403678Y-101707570D02*
X130512008Y-101755590D01*
X130512008Y-101755590D02*
X130617851Y-101808867D01*
X130917944Y-101998898D02*
X131011359Y-102071800D01*
X131669356Y-102959206D02*
X131637371Y-102876289D01*
X131306150Y-102353233D02*
X131244869Y-102288869D01*
X131766481Y-103391724D02*
X131755602Y-103303520D01*
X131755602Y-103303520D02*
X131740408Y-103215957D01*
X131364198Y-102420528D02*
X131306150Y-102353233D01*
X131011359Y-102071800D02*
X131101085Y-102149198D01*
X131775200Y-103569200D02*
X131773018Y-103480355D01*
X131244869Y-102288869D02*
X131186906Y-102230906D01*
X131775200Y-103569200D02*
X131775200Y-110198800D01*
X131561399Y-102715659D02*
X131517594Y-102638333D01*
X131720936Y-103129245D02*
X131697233Y-103043592D01*
X130180608Y-101627755D02*
X130293123Y-101664925D01*
X131601357Y-102795042D02*
X131561399Y-102715659D01*
X130617851Y-101808867D02*
X130720953Y-101867273D01*
X131101085Y-102149198D02*
X131186906Y-102230906D01*
X131773018Y-103480355D02*
X131766481Y-103391724D01*
X135203645Y-101065326D02*
X135103534Y-101001931D01*
X135103534Y-101001931D02*
X135006654Y-100933700D01*
G36*
G01*
X118220200Y-93013800D02*
X118220200Y-92253800D01*
G75*
G02*
X118270200Y-92203800I50000J0D01*
G01*
X119970200Y-92203800D01*
G75*
G02*
X120020200Y-92253800I0J-50000D01*
G01*
X120020200Y-93013800D01*
G75*
G02*
X119970200Y-93063800I-50000J0D01*
G01*
X118270200Y-93063800D01*
G75*
G02*
X118220200Y-93013800I0J50000D01*
G01*
G37*
G36*
G01*
X118220200Y-94283800D02*
X118220200Y-93523800D01*
G75*
G02*
X118270200Y-93473800I50000J0D01*
G01*
X119970200Y-93473800D01*
G75*
G02*
X120020200Y-93523800I0J-50000D01*
G01*
X120020200Y-94283800D01*
G75*
G02*
X119970200Y-94333800I-50000J0D01*
G01*
X118270200Y-94333800D01*
G75*
G02*
X118220200Y-94283800I0J50000D01*
G01*
G37*
G36*
G01*
X118220200Y-95553800D02*
X118220200Y-94793800D01*
G75*
G02*
X118270200Y-94743800I50000J0D01*
G01*
X119970200Y-94743800D01*
G75*
G02*
X120020200Y-94793800I0J-50000D01*
G01*
X120020200Y-95553800D01*
G75*
G02*
X119970200Y-95603800I-50000J0D01*
G01*
X118270200Y-95603800D01*
G75*
G02*
X118220200Y-95553800I0J50000D01*
G01*
G37*
G36*
G01*
X118220200Y-96823800D02*
X118220200Y-96063800D01*
G75*
G02*
X118270200Y-96013800I50000J0D01*
G01*
X119970200Y-96013800D01*
G75*
G02*
X120020200Y-96063800I0J-50000D01*
G01*
X120020200Y-96823800D01*
G75*
G02*
X119970200Y-96873800I-50000J0D01*
G01*
X118270200Y-96873800D01*
G75*
G02*
X118220200Y-96823800I0J50000D01*
G01*
G37*
G36*
G01*
X118220200Y-100633800D02*
X118220200Y-99873800D01*
G75*
G02*
X118270200Y-99823800I50000J0D01*
G01*
X119970200Y-99823800D01*
G75*
G02*
X120020200Y-99873800I0J-50000D01*
G01*
X120020200Y-100633800D01*
G75*
G02*
X119970200Y-100683800I-50000J0D01*
G01*
X118270200Y-100683800D01*
G75*
G02*
X118220200Y-100633800I0J50000D01*
G01*
G37*
G36*
G01*
X118220200Y-98093800D02*
X118220200Y-97333800D01*
G75*
G02*
X118270200Y-97283800I50000J0D01*
G01*
X119970200Y-97283800D01*
G75*
G02*
X120020200Y-97333800I0J-50000D01*
G01*
X120020200Y-98093800D01*
G75*
G02*
X119970200Y-98143800I-50000J0D01*
G01*
X118270200Y-98143800D01*
G75*
G02*
X118220200Y-98093800I0J50000D01*
G01*
G37*
G36*
G01*
X118220200Y-99363800D02*
X118220200Y-98603800D01*
G75*
G02*
X118270200Y-98553800I50000J0D01*
G01*
X119970200Y-98553800D01*
G75*
G02*
X120020200Y-98603800I0J-50000D01*
G01*
X120020200Y-99363800D01*
G75*
G02*
X119970200Y-99413800I-50000J0D01*
G01*
X118270200Y-99413800D01*
G75*
G02*
X118220200Y-99363800I0J50000D01*
G01*
G37*
G36*
G01*
X118220200Y-101903800D02*
X118220200Y-101143800D01*
G75*
G02*
X118270200Y-101093800I50000J0D01*
G01*
X119970200Y-101093800D01*
G75*
G02*
X120020200Y-101143800I0J-50000D01*
G01*
X120020200Y-101903800D01*
G75*
G02*
X119970200Y-101953800I-50000J0D01*
G01*
X118270200Y-101953800D01*
G75*
G02*
X118220200Y-101903800I0J50000D01*
G01*
G37*
G36*
G01*
X127020200Y-95553800D02*
X127020200Y-94793800D01*
G75*
G02*
X127070200Y-94743800I50000J0D01*
G01*
X128770200Y-94743800D01*
G75*
G02*
X128820200Y-94793800I0J-50000D01*
G01*
X128820200Y-95553800D01*
G75*
G02*
X128770200Y-95603800I-50000J0D01*
G01*
X127070200Y-95603800D01*
G75*
G02*
X127020200Y-95553800I0J50000D01*
G01*
G37*
G36*
G01*
X127020200Y-99363800D02*
X127020200Y-98603800D01*
G75*
G02*
X127070200Y-98553800I50000J0D01*
G01*
X128770200Y-98553800D01*
G75*
G02*
X128820200Y-98603800I0J-50000D01*
G01*
X128820200Y-99363800D01*
G75*
G02*
X128770200Y-99413800I-50000J0D01*
G01*
X127070200Y-99413800D01*
G75*
G02*
X127020200Y-99363800I0J50000D01*
G01*
G37*
G36*
G01*
X127020200Y-101903800D02*
X127020200Y-101143800D01*
G75*
G02*
X127070200Y-101093800I50000J0D01*
G01*
X128770200Y-101093800D01*
G75*
G02*
X128820200Y-101143800I0J-50000D01*
G01*
X128820200Y-101903800D01*
G75*
G02*
X128770200Y-101953800I-50000J0D01*
G01*
X127070200Y-101953800D01*
G75*
G02*
X127020200Y-101903800I0J50000D01*
G01*
G37*
G36*
G01*
X127020200Y-94283800D02*
X127020200Y-93523800D01*
G75*
G02*
X127070200Y-93473800I50000J0D01*
G01*
X128770200Y-93473800D01*
G75*
G02*
X128820200Y-93523800I0J-50000D01*
G01*
X128820200Y-94283800D01*
G75*
G02*
X128770200Y-94333800I-50000J0D01*
G01*
X127070200Y-94333800D01*
G75*
G02*
X127020200Y-94283800I0J50000D01*
G01*
G37*
G36*
G01*
X127020200Y-100633800D02*
X127020200Y-99873800D01*
G75*
G02*
X127070200Y-99823800I50000J0D01*
G01*
X128770200Y-99823800D01*
G75*
G02*
X128820200Y-99873800I0J-50000D01*
G01*
X128820200Y-100633800D01*
G75*
G02*
X128770200Y-100683800I-50000J0D01*
G01*
X127070200Y-100683800D01*
G75*
G02*
X127020200Y-100633800I0J50000D01*
G01*
G37*
G36*
G01*
X127020200Y-96823800D02*
X127020200Y-96063800D01*
G75*
G02*
X127070200Y-96013800I50000J0D01*
G01*
X128770200Y-96013800D01*
G75*
G02*
X128820200Y-96063800I0J-50000D01*
G01*
X128820200Y-96823800D01*
G75*
G02*
X128770200Y-96873800I-50000J0D01*
G01*
X127070200Y-96873800D01*
G75*
G02*
X127020200Y-96823800I0J50000D01*
G01*
G37*
G36*
G01*
X127020200Y-93013800D02*
X127020200Y-92253800D01*
G75*
G02*
X127070200Y-92203800I50000J0D01*
G01*
X128770200Y-92203800D01*
G75*
G02*
X128820200Y-92253800I0J-50000D01*
G01*
X128820200Y-93013800D01*
G75*
G02*
X128770200Y-93063800I-50000J0D01*
G01*
X127070200Y-93063800D01*
G75*
G02*
X127020200Y-93013800I0J50000D01*
G01*
G37*
G36*
G01*
X127020200Y-98093800D02*
X127020200Y-97333800D01*
G75*
G02*
X127070200Y-97283800I50000J0D01*
G01*
X128770200Y-97283800D01*
G75*
G02*
X128820200Y-97333800I0J-50000D01*
G01*
X128820200Y-98093800D01*
G75*
G02*
X128770200Y-98143800I-50000J0D01*
G01*
X127070200Y-98143800D01*
G75*
G02*
X127020200Y-98093800I0J50000D01*
G01*
G37*
G36*
G01*
X119154832Y-107078000D02*
X120113168Y-107078000D01*
G75*
G02*
X120384000Y-107348832I0J-270832D01*
G01*
X120384000Y-108107168D01*
G75*
G02*
X120113168Y-108378000I-270832J0D01*
G01*
X119154832Y-108378000D01*
G75*
G02*
X118884000Y-108107168I0J270832D01*
G01*
X118884000Y-107348832D01*
G75*
G02*
X119154832Y-107078000I270832J0D01*
G01*
G37*
G36*
G01*
X119154832Y-109078000D02*
X120113168Y-109078000D01*
G75*
G02*
X120384000Y-109348832I0J-270832D01*
G01*
X120384000Y-110107168D01*
G75*
G02*
X120113168Y-110378000I-270832J0D01*
G01*
X119154832Y-110378000D01*
G75*
G02*
X118884000Y-110107168I0J270832D01*
G01*
X118884000Y-109348832D01*
G75*
G02*
X119154832Y-109078000I270832J0D01*
G01*
G37*
G36*
G01*
X116462432Y-109078000D02*
X117420768Y-109078000D01*
G75*
G02*
X117691600Y-109348832I0J-270832D01*
G01*
X117691600Y-110107168D01*
G75*
G02*
X117420768Y-110378000I-270832J0D01*
G01*
X116462432Y-110378000D01*
G75*
G02*
X116191600Y-110107168I0J270832D01*
G01*
X116191600Y-109348832D01*
G75*
G02*
X116462432Y-109078000I270832J0D01*
G01*
G37*
G36*
G01*
X116462432Y-107078000D02*
X117420768Y-107078000D01*
G75*
G02*
X117691600Y-107348832I0J-270832D01*
G01*
X117691600Y-108107168D01*
G75*
G02*
X117420768Y-108378000I-270832J0D01*
G01*
X116462432Y-108378000D01*
G75*
G02*
X116191600Y-108107168I0J270832D01*
G01*
X116191600Y-107348832D01*
G75*
G02*
X116462432Y-107078000I270832J0D01*
G01*
G37*
D11*
X136212200Y-94931800D03*
X136212200Y-89851800D03*
X141292200Y-89851800D03*
X141292200Y-94931800D03*
D12*
X138752200Y-92391800D03*
G36*
G01*
X117706543Y-111226100D02*
X119021457Y-111226100D01*
G75*
G02*
X119289000Y-111493643I0J-267543D01*
G01*
X119289000Y-112483557D01*
G75*
G02*
X119021457Y-112751100I-267543J0D01*
G01*
X117706543Y-112751100D01*
G75*
G02*
X117439000Y-112483557I0J267543D01*
G01*
X117439000Y-111493643D01*
G75*
G02*
X117706543Y-111226100I267543J0D01*
G01*
G37*
G36*
G01*
X117706543Y-114201100D02*
X119021457Y-114201100D01*
G75*
G02*
X119289000Y-114468643I0J-267543D01*
G01*
X119289000Y-115458557D01*
G75*
G02*
X119021457Y-115726100I-267543J0D01*
G01*
X117706543Y-115726100D01*
G75*
G02*
X117439000Y-115458557I0J267543D01*
G01*
X117439000Y-114468643D01*
G75*
G02*
X117706543Y-114201100I267543J0D01*
G01*
G37*
X138752200Y-101408800D03*
D11*
X141292200Y-103948800D03*
X141292200Y-98868800D03*
X136212200Y-98868800D03*
X136212200Y-103948800D03*
D12*
X131775200Y-83108800D03*
D11*
X134315200Y-85648800D03*
X134315200Y-80568800D03*
X129235200Y-80568800D03*
X129235200Y-85648800D03*
X129235200Y-112738800D03*
X129235200Y-107658800D03*
X134315200Y-107658800D03*
X134315200Y-112738800D03*
D12*
X131775200Y-110198800D03*
G36*
G01*
X126262000Y-104652276D02*
X126262000Y-105659724D01*
G75*
G02*
X125990724Y-105931000I-271276J0D01*
G01*
X125258276Y-105931000D01*
G75*
G02*
X124987000Y-105659724I0J271276D01*
G01*
X124987000Y-104652276D01*
G75*
G02*
X125258276Y-104381000I271276J0D01*
G01*
X125990724Y-104381000D01*
G75*
G02*
X126262000Y-104652276I0J-271276D01*
G01*
G37*
G36*
G01*
X124187000Y-104652276D02*
X124187000Y-105659724D01*
G75*
G02*
X123915724Y-105931000I-271276J0D01*
G01*
X123183276Y-105931000D01*
G75*
G02*
X122912000Y-105659724I0J271276D01*
G01*
X122912000Y-104652276D01*
G75*
G02*
X123183276Y-104381000I271276J0D01*
G01*
X123915724Y-104381000D01*
G75*
G02*
X124187000Y-104652276I0J-271276D01*
G01*
G37*
G36*
G01*
X124949000Y-88523276D02*
X124949000Y-89530724D01*
G75*
G02*
X124677724Y-89802000I-271276J0D01*
G01*
X123945276Y-89802000D01*
G75*
G02*
X123674000Y-89530724I0J271276D01*
G01*
X123674000Y-88523276D01*
G75*
G02*
X123945276Y-88252000I271276J0D01*
G01*
X124677724Y-88252000D01*
G75*
G02*
X124949000Y-88523276I0J-271276D01*
G01*
G37*
G36*
G01*
X127024000Y-88523276D02*
X127024000Y-89530724D01*
G75*
G02*
X126752724Y-89802000I-271276J0D01*
G01*
X126020276Y-89802000D01*
G75*
G02*
X125749000Y-89530724I0J271276D01*
G01*
X125749000Y-88523276D01*
G75*
G02*
X126020276Y-88252000I271276J0D01*
G01*
X126752724Y-88252000D01*
G75*
G02*
X127024000Y-88523276I0J-271276D01*
G01*
G37*
G36*
G01*
X119656457Y-83149000D02*
X118341543Y-83149000D01*
G75*
G02*
X118074000Y-82881457I0J267543D01*
G01*
X118074000Y-81891543D01*
G75*
G02*
X118341543Y-81624000I267543J0D01*
G01*
X119656457Y-81624000D01*
G75*
G02*
X119924000Y-81891543I0J-267543D01*
G01*
X119924000Y-82881457D01*
G75*
G02*
X119656457Y-83149000I-267543J0D01*
G01*
G37*
G36*
G01*
X119656457Y-80174000D02*
X118341543Y-80174000D01*
G75*
G02*
X118074000Y-79906457I0J267543D01*
G01*
X118074000Y-78916543D01*
G75*
G02*
X118341543Y-78649000I267543J0D01*
G01*
X119656457Y-78649000D01*
G75*
G02*
X119924000Y-78916543I0J-267543D01*
G01*
X119924000Y-79906457D01*
G75*
G02*
X119656457Y-80174000I-267543J0D01*
G01*
G37*
D13*
X103505000Y-104267000D03*
D14*
X100455000Y-106322000D03*
D13*
X103505000Y-92837000D03*
D15*
X109855000Y-96647000D03*
X109855000Y-99187000D03*
X112395000Y-97917000D03*
X109855000Y-101727000D03*
G36*
G01*
X110605000Y-94907000D02*
X109105000Y-94907000D01*
G75*
G02*
X109055000Y-94857000I0J50000D01*
G01*
X109055000Y-93357000D01*
G75*
G02*
X109105000Y-93307000I50000J0D01*
G01*
X110605000Y-93307000D01*
G75*
G02*
X110655000Y-93357000I0J-50000D01*
G01*
X110655000Y-94857000D01*
G75*
G02*
X110605000Y-94907000I-50000J0D01*
G01*
G37*
X112395000Y-95377000D03*
D14*
X100455000Y-90782000D03*
D15*
X112395000Y-102997000D03*
X112395000Y-100457000D03*
G36*
G01*
X104622000Y-82018000D02*
X104622000Y-79018000D01*
G75*
G02*
X104672000Y-78968000I50000J0D01*
G01*
X107672000Y-78968000D01*
G75*
G02*
X107722000Y-79018000I0J-50000D01*
G01*
X107722000Y-82018000D01*
G75*
G02*
X107672000Y-82068000I-50000J0D01*
G01*
X104672000Y-82068000D01*
G75*
G02*
X104622000Y-82018000I0J50000D01*
G01*
G37*
D14*
X110052000Y-80518000D03*
G36*
G01*
X118335168Y-87145999D02*
X117376832Y-87145999D01*
G75*
G02*
X117106000Y-86875167I0J270832D01*
G01*
X117106000Y-86116831D01*
G75*
G02*
X117376832Y-85845999I270832J0D01*
G01*
X118335168Y-85845999D01*
G75*
G02*
X118606000Y-86116831I0J-270832D01*
G01*
X118606000Y-86875167D01*
G75*
G02*
X118335168Y-87145999I-270832J0D01*
G01*
G37*
G36*
G01*
X118335168Y-85145999D02*
X117376832Y-85145999D01*
G75*
G02*
X117106000Y-84875167I0J270832D01*
G01*
X117106000Y-84116831D01*
G75*
G02*
X117376832Y-83845999I270832J0D01*
G01*
X118335168Y-83845999D01*
G75*
G02*
X118606000Y-84116831I0J-270832D01*
G01*
X118606000Y-84875167D01*
G75*
G02*
X118335168Y-85145999I-270832J0D01*
G01*
G37*
G36*
G01*
X120621168Y-85145999D02*
X119662832Y-85145999D01*
G75*
G02*
X119392000Y-84875167I0J270832D01*
G01*
X119392000Y-84116831D01*
G75*
G02*
X119662832Y-83845999I270832J0D01*
G01*
X120621168Y-83845999D01*
G75*
G02*
X120892000Y-84116831I0J-270832D01*
G01*
X120892000Y-84875167D01*
G75*
G02*
X120621168Y-85145999I-270832J0D01*
G01*
G37*
G36*
G01*
X120621168Y-87145999D02*
X119662832Y-87145999D01*
G75*
G02*
X119392000Y-86875167I0J270832D01*
G01*
X119392000Y-86116831D01*
G75*
G02*
X119662832Y-85845999I270832J0D01*
G01*
X120621168Y-85845999D01*
G75*
G02*
X120892000Y-86116831I0J-270832D01*
G01*
X120892000Y-86875167D01*
G75*
G02*
X120621168Y-87145999I-270832J0D01*
G01*
G37*
M02*
