M48
; DRILL file {KiCad (5.1.12)-1} date 12/16/21 15:17:33
; FORMAT={-:-/ absolute / metric / decimal}
; #@! TF.CreationDate,2021-12-16T15:17:33+01:00
; #@! TF.GenerationSoftware,Kicad,Pcbnew,(5.1.12)-1
; #@! TF.FileFunction,Plated,1,2,PTH
FMAT,2
METRIC
T1C0.400
T2C0.800
T3C0.900
T4C1.500
T5C1.600
T6C1.700
T7C1.750
%
G90
G05
T1
X114.427Y-85.471
X121.92Y-85.217
X130.135Y-90.492
X130.44Y-103.384
X130.475Y-87.979
X130.475Y-104.744
X130.509Y-100.279
X130.532Y-93.474
X130.836Y-96.419
X131.666Y-92.549
X131.818Y-101.053
X132.059Y-97.529
X132.599Y-91.421
X133.069Y-103.383
X133.075Y-87.979
X133.075Y-89.602
X133.075Y-104.746
X133.436Y-101.243
X133.53Y-95.374
X133.599Y-98.254
T2
X100.33Y-81.28
X101.6Y-112.649
X111.76Y-112.649
X112.649Y-89.789
X115.189Y-79.629
X115.926Y-97.333
X116.281Y-105.054
X122.809Y-79.629
X125.349Y-112.649
X140.589Y-82.169
X140.589Y-110.109
X140.589Y-114.554
T3
X109.855Y-94.107
X109.855Y-96.647
X109.855Y-99.187
X109.855Y-101.727
X112.395Y-95.377
X112.395Y-97.917
X112.395Y-100.457
X112.395Y-102.997
T4
X131.775Y-83.109
X131.775Y-110.199
X138.752Y-92.392
X138.752Y-101.409
T5
X100.455Y-90.782
X100.455Y-106.322
T6
X129.235Y-80.569
X129.235Y-85.649
X129.235Y-107.659
X129.235Y-112.739
X134.315Y-80.569
X134.315Y-85.649
X134.315Y-107.659
X134.315Y-112.739
X136.212Y-89.852
X136.212Y-94.932
X136.212Y-98.869
X136.212Y-103.949
X141.292Y-89.852
X141.292Y-94.932
X141.292Y-98.869
X141.292Y-103.949
T7
X106.172Y-80.518
X110.052Y-80.518
T0
M30
