G04 #@! TF.GenerationSoftware,KiCad,Pcbnew,(5.1.12)-1*
G04 #@! TF.CreationDate,2021-12-16T15:17:11+01:00*
G04 #@! TF.ProjectId,rj45_mag_sma,726a3435-5f6d-4616-975f-736d612e6b69,rev?*
G04 #@! TF.SameCoordinates,Original*
G04 #@! TF.FileFunction,Copper,L1,Top*
G04 #@! TF.FilePolarity,Positive*
%FSLAX46Y46*%
G04 Gerber Fmt 4.6, Leading zero omitted, Abs format (unit mm)*
G04 Created by KiCad (PCBNEW (5.1.12)-1) date 2021-12-16 15:17:12*
%MOMM*%
%LPD*%
G01*
G04 APERTURE LIST*
G04 #@! TA.AperFunction,SMDPad,CuDef*
%ADD10R,1.700000X0.760000*%
G04 #@! TD*
G04 #@! TA.AperFunction,ComponentPad*
%ADD11C,2.250000*%
G04 #@! TD*
G04 #@! TA.AperFunction,ComponentPad*
%ADD12C,2.050000*%
G04 #@! TD*
G04 #@! TA.AperFunction,ComponentPad*
%ADD13C,3.000000*%
G04 #@! TD*
G04 #@! TA.AperFunction,ComponentPad*
%ADD14C,1.500000*%
G04 #@! TD*
G04 #@! TA.AperFunction,ComponentPad*
%ADD15R,1.500000X1.500000*%
G04 #@! TD*
G04 #@! TA.AperFunction,ComponentPad*
%ADD16R,3.000000X3.000000*%
G04 #@! TD*
G04 #@! TA.AperFunction,ViaPad*
%ADD17C,0.800000*%
G04 #@! TD*
G04 #@! TA.AperFunction,ViaPad*
%ADD18C,1.600000*%
G04 #@! TD*
G04 #@! TA.AperFunction,Conductor*
%ADD19C,0.500000*%
G04 #@! TD*
G04 #@! TA.AperFunction,Conductor*
%ADD20C,0.250000*%
G04 #@! TD*
G04 #@! TA.AperFunction,Conductor*
%ADD21C,0.200000*%
G04 #@! TD*
G04 #@! TA.AperFunction,Conductor*
%ADD22C,0.254000*%
G04 #@! TD*
G04 #@! TA.AperFunction,Conductor*
%ADD23C,0.100000*%
G04 #@! TD*
G04 APERTURE END LIST*
D10*
X119120200Y-92633800D03*
X119120200Y-93903800D03*
X119120200Y-95173800D03*
X119120200Y-96443800D03*
X119120200Y-100253800D03*
X119120200Y-97713800D03*
X119120200Y-98983800D03*
X119120200Y-101523800D03*
X127920200Y-95173800D03*
X127920200Y-98983800D03*
X127920200Y-101523800D03*
X127920200Y-93903800D03*
X127920200Y-100253800D03*
X127920200Y-96443800D03*
X127920200Y-92633800D03*
X127920200Y-97713800D03*
G04 #@! TA.AperFunction,SMDPad,CuDef*
G36*
G01*
X119183999Y-107128000D02*
X120084001Y-107128000D01*
G75*
G02*
X120334000Y-107377999I0J-249999D01*
G01*
X120334000Y-108078001D01*
G75*
G02*
X120084001Y-108328000I-249999J0D01*
G01*
X119183999Y-108328000D01*
G75*
G02*
X118934000Y-108078001I0J249999D01*
G01*
X118934000Y-107377999D01*
G75*
G02*
X119183999Y-107128000I249999J0D01*
G01*
G37*
G04 #@! TD.AperFunction*
G04 #@! TA.AperFunction,SMDPad,CuDef*
G36*
G01*
X119183999Y-109128000D02*
X120084001Y-109128000D01*
G75*
G02*
X120334000Y-109377999I0J-249999D01*
G01*
X120334000Y-110078001D01*
G75*
G02*
X120084001Y-110328000I-249999J0D01*
G01*
X119183999Y-110328000D01*
G75*
G02*
X118934000Y-110078001I0J249999D01*
G01*
X118934000Y-109377999D01*
G75*
G02*
X119183999Y-109128000I249999J0D01*
G01*
G37*
G04 #@! TD.AperFunction*
G04 #@! TA.AperFunction,SMDPad,CuDef*
G36*
G01*
X116491599Y-109128000D02*
X117391601Y-109128000D01*
G75*
G02*
X117641600Y-109377999I0J-249999D01*
G01*
X117641600Y-110078001D01*
G75*
G02*
X117391601Y-110328000I-249999J0D01*
G01*
X116491599Y-110328000D01*
G75*
G02*
X116241600Y-110078001I0J249999D01*
G01*
X116241600Y-109377999D01*
G75*
G02*
X116491599Y-109128000I249999J0D01*
G01*
G37*
G04 #@! TD.AperFunction*
G04 #@! TA.AperFunction,SMDPad,CuDef*
G36*
G01*
X116491599Y-107128000D02*
X117391601Y-107128000D01*
G75*
G02*
X117641600Y-107377999I0J-249999D01*
G01*
X117641600Y-108078001D01*
G75*
G02*
X117391601Y-108328000I-249999J0D01*
G01*
X116491599Y-108328000D01*
G75*
G02*
X116241600Y-108078001I0J249999D01*
G01*
X116241600Y-107377999D01*
G75*
G02*
X116491599Y-107128000I249999J0D01*
G01*
G37*
G04 #@! TD.AperFunction*
D11*
X136212200Y-94931800D03*
X136212200Y-89851800D03*
X141292200Y-89851800D03*
X141292200Y-94931800D03*
D12*
X138752200Y-92391800D03*
G04 #@! TA.AperFunction,SMDPad,CuDef*
G36*
G01*
X117739000Y-111276100D02*
X118989000Y-111276100D01*
G75*
G02*
X119239000Y-111526100I0J-250000D01*
G01*
X119239000Y-112451100D01*
G75*
G02*
X118989000Y-112701100I-250000J0D01*
G01*
X117739000Y-112701100D01*
G75*
G02*
X117489000Y-112451100I0J250000D01*
G01*
X117489000Y-111526100D01*
G75*
G02*
X117739000Y-111276100I250000J0D01*
G01*
G37*
G04 #@! TD.AperFunction*
G04 #@! TA.AperFunction,SMDPad,CuDef*
G36*
G01*
X117739000Y-114251100D02*
X118989000Y-114251100D01*
G75*
G02*
X119239000Y-114501100I0J-250000D01*
G01*
X119239000Y-115426100D01*
G75*
G02*
X118989000Y-115676100I-250000J0D01*
G01*
X117739000Y-115676100D01*
G75*
G02*
X117489000Y-115426100I0J250000D01*
G01*
X117489000Y-114501100D01*
G75*
G02*
X117739000Y-114251100I250000J0D01*
G01*
G37*
G04 #@! TD.AperFunction*
X138752200Y-101408800D03*
D11*
X141292200Y-103948800D03*
X141292200Y-98868800D03*
X136212200Y-98868800D03*
X136212200Y-103948800D03*
D12*
X131775200Y-83108800D03*
D11*
X134315200Y-85648800D03*
X134315200Y-80568800D03*
X129235200Y-80568800D03*
X129235200Y-85648800D03*
X129235200Y-112738800D03*
X129235200Y-107658800D03*
X134315200Y-107658800D03*
X134315200Y-112738800D03*
D12*
X131775200Y-110198800D03*
G04 #@! TA.AperFunction,SMDPad,CuDef*
G36*
G01*
X126212000Y-104681000D02*
X126212000Y-105631000D01*
G75*
G02*
X125962000Y-105881000I-250000J0D01*
G01*
X125287000Y-105881000D01*
G75*
G02*
X125037000Y-105631000I0J250000D01*
G01*
X125037000Y-104681000D01*
G75*
G02*
X125287000Y-104431000I250000J0D01*
G01*
X125962000Y-104431000D01*
G75*
G02*
X126212000Y-104681000I0J-250000D01*
G01*
G37*
G04 #@! TD.AperFunction*
G04 #@! TA.AperFunction,SMDPad,CuDef*
G36*
G01*
X124137000Y-104681000D02*
X124137000Y-105631000D01*
G75*
G02*
X123887000Y-105881000I-250000J0D01*
G01*
X123212000Y-105881000D01*
G75*
G02*
X122962000Y-105631000I0J250000D01*
G01*
X122962000Y-104681000D01*
G75*
G02*
X123212000Y-104431000I250000J0D01*
G01*
X123887000Y-104431000D01*
G75*
G02*
X124137000Y-104681000I0J-250000D01*
G01*
G37*
G04 #@! TD.AperFunction*
G04 #@! TA.AperFunction,SMDPad,CuDef*
G36*
G01*
X124899000Y-88552000D02*
X124899000Y-89502000D01*
G75*
G02*
X124649000Y-89752000I-250000J0D01*
G01*
X123974000Y-89752000D01*
G75*
G02*
X123724000Y-89502000I0J250000D01*
G01*
X123724000Y-88552000D01*
G75*
G02*
X123974000Y-88302000I250000J0D01*
G01*
X124649000Y-88302000D01*
G75*
G02*
X124899000Y-88552000I0J-250000D01*
G01*
G37*
G04 #@! TD.AperFunction*
G04 #@! TA.AperFunction,SMDPad,CuDef*
G36*
G01*
X126974000Y-88552000D02*
X126974000Y-89502000D01*
G75*
G02*
X126724000Y-89752000I-250000J0D01*
G01*
X126049000Y-89752000D01*
G75*
G02*
X125799000Y-89502000I0J250000D01*
G01*
X125799000Y-88552000D01*
G75*
G02*
X126049000Y-88302000I250000J0D01*
G01*
X126724000Y-88302000D01*
G75*
G02*
X126974000Y-88552000I0J-250000D01*
G01*
G37*
G04 #@! TD.AperFunction*
G04 #@! TA.AperFunction,SMDPad,CuDef*
G36*
G01*
X119624000Y-83099000D02*
X118374000Y-83099000D01*
G75*
G02*
X118124000Y-82849000I0J250000D01*
G01*
X118124000Y-81924000D01*
G75*
G02*
X118374000Y-81674000I250000J0D01*
G01*
X119624000Y-81674000D01*
G75*
G02*
X119874000Y-81924000I0J-250000D01*
G01*
X119874000Y-82849000D01*
G75*
G02*
X119624000Y-83099000I-250000J0D01*
G01*
G37*
G04 #@! TD.AperFunction*
G04 #@! TA.AperFunction,SMDPad,CuDef*
G36*
G01*
X119624000Y-80124000D02*
X118374000Y-80124000D01*
G75*
G02*
X118124000Y-79874000I0J250000D01*
G01*
X118124000Y-78949000D01*
G75*
G02*
X118374000Y-78699000I250000J0D01*
G01*
X119624000Y-78699000D01*
G75*
G02*
X119874000Y-78949000I0J-250000D01*
G01*
X119874000Y-79874000D01*
G75*
G02*
X119624000Y-80124000I-250000J0D01*
G01*
G37*
G04 #@! TD.AperFunction*
D13*
X100455000Y-106322000D03*
D14*
X109855000Y-96647000D03*
X109855000Y-99187000D03*
X112395000Y-97917000D03*
X109855000Y-101727000D03*
D15*
X109855000Y-94107000D03*
D14*
X112395000Y-95377000D03*
D13*
X100455000Y-90782000D03*
D14*
X112395000Y-102997000D03*
X112395000Y-100457000D03*
D16*
X106172000Y-80518000D03*
D13*
X110052000Y-80518000D03*
G04 #@! TA.AperFunction,SMDPad,CuDef*
G36*
G01*
X118306001Y-87095999D02*
X117405999Y-87095999D01*
G75*
G02*
X117156000Y-86846000I0J249999D01*
G01*
X117156000Y-86145998D01*
G75*
G02*
X117405999Y-85895999I249999J0D01*
G01*
X118306001Y-85895999D01*
G75*
G02*
X118556000Y-86145998I0J-249999D01*
G01*
X118556000Y-86846000D01*
G75*
G02*
X118306001Y-87095999I-249999J0D01*
G01*
G37*
G04 #@! TD.AperFunction*
G04 #@! TA.AperFunction,SMDPad,CuDef*
G36*
G01*
X118306001Y-85095999D02*
X117405999Y-85095999D01*
G75*
G02*
X117156000Y-84846000I0J249999D01*
G01*
X117156000Y-84145998D01*
G75*
G02*
X117405999Y-83895999I249999J0D01*
G01*
X118306001Y-83895999D01*
G75*
G02*
X118556000Y-84145998I0J-249999D01*
G01*
X118556000Y-84846000D01*
G75*
G02*
X118306001Y-85095999I-249999J0D01*
G01*
G37*
G04 #@! TD.AperFunction*
G04 #@! TA.AperFunction,SMDPad,CuDef*
G36*
G01*
X120592001Y-85095999D02*
X119691999Y-85095999D01*
G75*
G02*
X119442000Y-84846000I0J249999D01*
G01*
X119442000Y-84145998D01*
G75*
G02*
X119691999Y-83895999I249999J0D01*
G01*
X120592001Y-83895999D01*
G75*
G02*
X120842000Y-84145998I0J-249999D01*
G01*
X120842000Y-84846000D01*
G75*
G02*
X120592001Y-85095999I-249999J0D01*
G01*
G37*
G04 #@! TD.AperFunction*
G04 #@! TA.AperFunction,SMDPad,CuDef*
G36*
G01*
X120592001Y-87095999D02*
X119691999Y-87095999D01*
G75*
G02*
X119442000Y-86846000I0J249999D01*
G01*
X119442000Y-86145998D01*
G75*
G02*
X119691999Y-85895999I249999J0D01*
G01*
X120592001Y-85895999D01*
G75*
G02*
X120842000Y-86145998I0J-249999D01*
G01*
X120842000Y-86846000D01*
G75*
G02*
X120592001Y-87095999I-249999J0D01*
G01*
G37*
G04 #@! TD.AperFunction*
D17*
X114427000Y-85471000D03*
D18*
X122809000Y-79629000D03*
X140589000Y-82169000D03*
D17*
X133075200Y-87978550D03*
X133075200Y-89601800D03*
D18*
X112649000Y-89789000D03*
D17*
X133069395Y-103383375D03*
X133075200Y-104746366D03*
X131818475Y-101052700D03*
X130439907Y-103384146D03*
D18*
X140589000Y-110109000D03*
D17*
X131666334Y-92549142D03*
X133436126Y-101242914D03*
X130475200Y-87978550D03*
X130475200Y-104743587D03*
X130532115Y-93474124D03*
X130835749Y-96419293D03*
X133530105Y-95373745D03*
D18*
X125349000Y-112649000D03*
D17*
X130135145Y-90491786D03*
X132059000Y-97529000D03*
D18*
X115189000Y-79629000D03*
D17*
X133599233Y-98253677D03*
D18*
X140589000Y-114554000D03*
D17*
X132598650Y-91420504D03*
X130509000Y-100279000D03*
D18*
X111760000Y-112649000D03*
X101600000Y-112649000D03*
X100330000Y-81280000D03*
X115925600Y-97332800D03*
X116281200Y-105054400D03*
D17*
X121920000Y-85217000D03*
D19*
X125624500Y-101199500D02*
X125624500Y-105156000D01*
X126570200Y-100253800D02*
X125624500Y-101199500D01*
X127920200Y-100253800D02*
X126570200Y-100253800D01*
X118364000Y-109855000D02*
X118491000Y-109728000D01*
X118364000Y-111988600D02*
X118364000Y-109855000D01*
X118491000Y-109728000D02*
X119634000Y-109728000D01*
X116941600Y-109728000D02*
X118491000Y-109728000D01*
D20*
X113461800Y-101523800D02*
X112395000Y-100457000D01*
X114829800Y-101523800D02*
X113461800Y-101523800D01*
X114890993Y-101530695D02*
X114829800Y-101523800D01*
X114949118Y-101551034D02*
X114890993Y-101530695D01*
X115001259Y-101583797D02*
X114949118Y-101551034D01*
X115044803Y-101627341D02*
X115001259Y-101583797D01*
X115077566Y-101679482D02*
X115044803Y-101627341D01*
X115097905Y-101737607D02*
X115077566Y-101679482D01*
X115111694Y-101859994D02*
X115097905Y-101737607D01*
X115132033Y-101918119D02*
X115111694Y-101859994D01*
X115164796Y-101970260D02*
X115132033Y-101918119D01*
X115208340Y-102013804D02*
X115164796Y-101970260D01*
X115260481Y-102046567D02*
X115208340Y-102013804D01*
X115318606Y-102066906D02*
X115260481Y-102046567D01*
X115379800Y-102073800D02*
X115318606Y-102066906D01*
X115429800Y-102073800D02*
X115379800Y-102073800D01*
X115490993Y-102066906D02*
X115429800Y-102073800D01*
X115549118Y-102046567D02*
X115490993Y-102066906D01*
X115601259Y-102013804D02*
X115549118Y-102046567D01*
X116801259Y-102013804D02*
X116749118Y-102046567D01*
X116844803Y-101970260D02*
X116801259Y-102013804D01*
X116877566Y-101918119D02*
X116844803Y-101970260D01*
X116904800Y-101798800D02*
X116897905Y-101859994D01*
X116904800Y-101248800D02*
X116904800Y-101798800D01*
X116932033Y-101129481D02*
X116911694Y-101187606D01*
X116964796Y-101077340D02*
X116932033Y-101129481D01*
X117608340Y-101463803D02*
X117564796Y-101420259D01*
X116749118Y-102046567D02*
X116690993Y-102066906D01*
X117008340Y-101033796D02*
X116964796Y-101077340D01*
X117060481Y-101001033D02*
X117008340Y-101033796D01*
X117179800Y-100973800D02*
X117118606Y-100980694D01*
X117229800Y-100973800D02*
X117179800Y-100973800D01*
X117290993Y-100980694D02*
X117229800Y-100973800D01*
X116911694Y-101187606D02*
X116904800Y-101248800D01*
X119120200Y-101523800D02*
X117779800Y-101523800D01*
X117779800Y-101523800D02*
X117718606Y-101516905D01*
X117532033Y-101368118D02*
X117511694Y-101309993D01*
X117511694Y-101309993D02*
X117497905Y-101187606D01*
X115677566Y-101918119D02*
X115644803Y-101970260D01*
X117564796Y-101420259D02*
X117532033Y-101368118D01*
X117718606Y-101516905D02*
X117660481Y-101496566D01*
X117118606Y-100980694D02*
X117060481Y-101001033D01*
X117660481Y-101496566D02*
X117608340Y-101463803D01*
X116897905Y-101859994D02*
X116877566Y-101918119D01*
X117444803Y-101077340D02*
X117401259Y-101033796D01*
X117477566Y-101129481D02*
X117444803Y-101077340D01*
X117497905Y-101187606D02*
X117477566Y-101129481D01*
X117349118Y-101001033D02*
X117290993Y-100980694D01*
X115644803Y-101970260D02*
X115601259Y-102013804D01*
X117401259Y-101033796D02*
X117349118Y-101001033D01*
X116690993Y-102066906D02*
X116629800Y-102073800D01*
X116629800Y-102073800D02*
X116579800Y-102073800D01*
X116579800Y-102073800D02*
X116518606Y-102066906D01*
X116518606Y-102066906D02*
X116460481Y-102046567D01*
X116460481Y-102046567D02*
X116408340Y-102013804D01*
X116304800Y-101798800D02*
X116304800Y-101248800D01*
X116408340Y-102013804D02*
X116364796Y-101970260D01*
X116364796Y-101970260D02*
X116332033Y-101918119D01*
X116332033Y-101918119D02*
X116311694Y-101859994D01*
X116311694Y-101859994D02*
X116304800Y-101798800D01*
X116304800Y-101248800D02*
X116297905Y-101187606D01*
X116297905Y-101187606D02*
X116277566Y-101129481D01*
X116277566Y-101129481D02*
X116244803Y-101077340D01*
X116244803Y-101077340D02*
X116201259Y-101033796D01*
X116201259Y-101033796D02*
X116149118Y-101001033D01*
X116149118Y-101001033D02*
X116090993Y-100980694D01*
X116090993Y-100980694D02*
X116029800Y-100973800D01*
X116029800Y-100973800D02*
X115979800Y-100973800D01*
X115979800Y-100973800D02*
X115918606Y-100980694D01*
X115918606Y-100980694D02*
X115860481Y-101001033D01*
X115860481Y-101001033D02*
X115808340Y-101033796D01*
X115808340Y-101033796D02*
X115764796Y-101077340D01*
X115764796Y-101077340D02*
X115732033Y-101129481D01*
X115732033Y-101129481D02*
X115711694Y-101187606D01*
X115711694Y-101187606D02*
X115704800Y-101248800D01*
X115704800Y-101248800D02*
X115704800Y-101798800D01*
X115704800Y-101798800D02*
X115697905Y-101859994D01*
X115697905Y-101859994D02*
X115677566Y-101918119D01*
D21*
X111907798Y-98983800D02*
X119120200Y-98983800D01*
X109855000Y-96931002D02*
X111907798Y-98983800D01*
X109855000Y-96647000D02*
X109855000Y-96931002D01*
D19*
X111125000Y-101727000D02*
X112395000Y-102997000D01*
X109855000Y-101727000D02*
X111125000Y-101727000D01*
X112395000Y-102997000D02*
X116586000Y-102997000D01*
X119634000Y-106045000D02*
X119634000Y-107728000D01*
X116586000Y-102997000D02*
X119634000Y-106045000D01*
X111665000Y-107728000D02*
X116941600Y-107728000D01*
X108077000Y-104140000D02*
X111665000Y-107728000D01*
X108077000Y-100965000D02*
X108077000Y-104140000D01*
X109855000Y-99187000D02*
X108077000Y-100965000D01*
D20*
X112598200Y-95173800D02*
X112395000Y-95377000D01*
X114330861Y-95173800D02*
X112598200Y-95173800D01*
X114538780Y-95273929D02*
X114496671Y-95231820D01*
X114570463Y-95324353D02*
X114538780Y-95273929D01*
X114623136Y-95555126D02*
X114603467Y-95498916D01*
X114696928Y-95647659D02*
X114654819Y-95605550D01*
X114747352Y-95679342D02*
X114696928Y-95647659D01*
X114803562Y-95699011D02*
X114747352Y-95679342D01*
X114930861Y-95705678D02*
X114862739Y-95705678D01*
X114990037Y-95699011D02*
X114930861Y-95705678D01*
X115046247Y-95679342D02*
X114990037Y-95699011D01*
X115096671Y-95647659D02*
X115046247Y-95679342D01*
X115170463Y-95555126D02*
X115138780Y-95605550D01*
X116370463Y-95555126D02*
X116338780Y-95605550D01*
X116390132Y-95498916D02*
X116370463Y-95555126D01*
X116396800Y-95439739D02*
X116390132Y-95498916D01*
X115138780Y-95605550D02*
X115096671Y-95647659D01*
X115796800Y-94907861D02*
X115790132Y-94848684D01*
X116396800Y-95173800D02*
X116396800Y-95439739D01*
X116405861Y-94907861D02*
X116405861Y-95173800D01*
X115462739Y-94641922D02*
X115403562Y-94648589D01*
X116412528Y-94848684D02*
X116405861Y-94907861D01*
X114603467Y-95498916D02*
X114590132Y-95380563D01*
X115803467Y-95498916D02*
X115796800Y-95439739D01*
X116432197Y-94792474D02*
X116412528Y-94848684D01*
X116338780Y-95605550D02*
X116296671Y-95647659D01*
X116463880Y-94742050D02*
X116432197Y-94792474D01*
X115696671Y-94699941D02*
X115646247Y-94668258D01*
X116505989Y-94699941D02*
X116463880Y-94742050D01*
X116612623Y-94648589D02*
X116556413Y-94668258D01*
X116739922Y-94641922D02*
X116671800Y-94641922D01*
X119120200Y-95173800D02*
X117271800Y-95173800D01*
X117212623Y-95167132D02*
X117156413Y-95147463D01*
X116405861Y-95173800D02*
X116396800Y-95173800D01*
X117105989Y-95115780D02*
X117063880Y-95073671D01*
X114390037Y-95180468D02*
X114330861Y-95173800D01*
X117156413Y-95147463D02*
X117105989Y-95115780D01*
X117271800Y-95173800D02*
X117212623Y-95167132D01*
X115738780Y-94742050D02*
X115696671Y-94699941D01*
X116999193Y-94848684D02*
X116979524Y-94792474D01*
X116947841Y-94742050D02*
X116905732Y-94699941D01*
X114862739Y-95705678D02*
X114803562Y-95699011D01*
X115823136Y-95555126D02*
X115803467Y-95498916D01*
X115403562Y-94648589D02*
X115347352Y-94668258D01*
X116799098Y-94648589D02*
X116739922Y-94641922D01*
X115296928Y-94699941D02*
X115254819Y-94742050D01*
X115203467Y-94848684D02*
X115196800Y-94907861D01*
X114446247Y-95200137D02*
X114390037Y-95180468D01*
X117032197Y-95023247D02*
X117012528Y-94967037D01*
X117012528Y-94967037D02*
X116999193Y-94848684D01*
X116979524Y-94792474D02*
X116947841Y-94742050D01*
X115590037Y-94648589D02*
X115530861Y-94641922D01*
X115196800Y-94907861D02*
X115196800Y-95439739D01*
X117063880Y-95073671D02*
X117032197Y-95023247D01*
X115530861Y-94641922D02*
X115462739Y-94641922D01*
X115223136Y-94792474D02*
X115203467Y-94848684D01*
X114654819Y-95605550D02*
X114623136Y-95555126D01*
X116905732Y-94699941D02*
X116855308Y-94668258D01*
X115347352Y-94668258D02*
X115296928Y-94699941D01*
X116296671Y-95647659D02*
X116246247Y-95679342D01*
X116246247Y-95679342D02*
X116190037Y-95699011D01*
X116190037Y-95699011D02*
X116130861Y-95705678D01*
X116855308Y-94668258D02*
X116799098Y-94648589D01*
X115896928Y-95647659D02*
X115854819Y-95605550D01*
X115770463Y-94792474D02*
X115738780Y-94742050D01*
X116130861Y-95705678D02*
X116062739Y-95705678D01*
X115196800Y-95439739D02*
X115190132Y-95498916D01*
X116062739Y-95705678D02*
X116003562Y-95699011D01*
X116556413Y-94668258D02*
X116505989Y-94699941D01*
X115854819Y-95605550D02*
X115823136Y-95555126D01*
X116003562Y-95699011D02*
X115947352Y-95679342D01*
X116671800Y-94641922D02*
X116612623Y-94648589D01*
X115947352Y-95679342D02*
X115896928Y-95647659D01*
X114590132Y-95380563D02*
X114570463Y-95324353D01*
X115796800Y-95439739D02*
X115796800Y-94907861D01*
X115790132Y-94848684D02*
X115770463Y-94792474D01*
X114496671Y-95231820D02*
X114446247Y-95200137D01*
X115646247Y-94668258D02*
X115590037Y-94648589D01*
X115254819Y-94742050D02*
X115223136Y-94792474D01*
X115190132Y-95498916D02*
X115170463Y-95555126D01*
D21*
X109855000Y-94107000D02*
X116586000Y-94107000D01*
X118059200Y-92633800D02*
X119120200Y-92633800D01*
X116586000Y-94107000D02*
X118059200Y-92633800D01*
D19*
X130737677Y-95121539D02*
X130502468Y-95150549D01*
X135456961Y-92417929D02*
X135340209Y-92438187D01*
X135340209Y-92438187D02*
X135224593Y-92464150D01*
X135224593Y-92464150D02*
X135110390Y-92495754D01*
X135110390Y-92495754D02*
X134997875Y-92532924D01*
X130029200Y-95173800D02*
X127920200Y-95173800D01*
X130502468Y-95150549D02*
X130266119Y-95167983D01*
X134997875Y-92532924D02*
X134887319Y-92575570D01*
X133092321Y-94077796D02*
X132905490Y-94223601D01*
X133443413Y-93759586D02*
X133271772Y-93923000D01*
X133271772Y-93923000D02*
X133092321Y-94077796D01*
X132511507Y-94486852D02*
X132305304Y-94603664D01*
X132093618Y-94710218D02*
X131876958Y-94806257D01*
X131876958Y-94806257D02*
X131655847Y-94891549D01*
X131430818Y-94965889D02*
X131202411Y-95029097D01*
X131202411Y-95029097D02*
X130971179Y-95081022D01*
X131655847Y-94891549D02*
X131430818Y-94965889D01*
X130971179Y-95081022D02*
X130737677Y-95121539D01*
X130266119Y-95167983D02*
X130029200Y-95173800D01*
X135811200Y-92391800D02*
X135692740Y-92394707D01*
X135692740Y-92394707D02*
X135574565Y-92403424D01*
X135574565Y-92403424D02*
X135456961Y-92417929D01*
X132711729Y-94360062D02*
X132511507Y-94486852D01*
X132305304Y-94603664D02*
X132093618Y-94710218D01*
X132905490Y-94223601D02*
X132711729Y-94360062D01*
X134469933Y-92798667D02*
X134373053Y-92866897D01*
X134279637Y-92939800D02*
X134189911Y-93017198D01*
X134373053Y-92866897D02*
X134279637Y-92939800D01*
X134189911Y-93017198D02*
X134104092Y-93098906D01*
X134104092Y-93098906D02*
X133443413Y-93759586D01*
X134778989Y-92623589D02*
X134673146Y-92676866D01*
X134887319Y-92575570D02*
X134778989Y-92623589D01*
X134673146Y-92676866D02*
X134570045Y-92735272D01*
X134570045Y-92735272D02*
X134469933Y-92798667D01*
X135811200Y-92391800D02*
X138752200Y-92391800D01*
X133084218Y-99447380D02*
X133295904Y-99553934D01*
X131493068Y-99007050D02*
X131728277Y-99036060D01*
X133502107Y-99670746D02*
X133702329Y-99797536D01*
X133896090Y-99933997D02*
X134082921Y-100079802D01*
X134082921Y-100079802D02*
X134262372Y-100234598D01*
X134262372Y-100234598D02*
X134434013Y-100398013D01*
X131256719Y-98989616D02*
X131493068Y-99007050D01*
X131961779Y-99076576D02*
X132193011Y-99128501D01*
X131728277Y-99036060D02*
X131961779Y-99076576D01*
X132421418Y-99191710D02*
X132646447Y-99266050D01*
X133295904Y-99553934D02*
X133502107Y-99670746D01*
X133702329Y-99797536D02*
X133896090Y-99933997D01*
X131019800Y-98983800D02*
X131256719Y-98989616D01*
X132193011Y-99128501D02*
X132421418Y-99191710D01*
X132646447Y-99266050D02*
X132867558Y-99351342D01*
X132867558Y-99351342D02*
X133084218Y-99447380D01*
X135203645Y-101065326D02*
X135103534Y-101001931D01*
X136444800Y-101408800D02*
X136326340Y-101405891D01*
X135306747Y-101123732D02*
X135203645Y-101065326D01*
X136208165Y-101397174D02*
X136090561Y-101382669D01*
X135520920Y-101225028D02*
X135412590Y-101177009D01*
X135006654Y-100933700D02*
X134913238Y-100860798D01*
X134737693Y-100701693D02*
X134434013Y-100398013D01*
X135631475Y-101267674D02*
X135520920Y-101225028D01*
X135412590Y-101177009D02*
X135306747Y-101123732D01*
X135973810Y-101362411D02*
X135858193Y-101336449D01*
X135743990Y-101304844D02*
X135631475Y-101267674D01*
X134913238Y-100860798D02*
X134823512Y-100783400D01*
X135103534Y-101001931D02*
X135006654Y-100933700D01*
X134823512Y-100783400D02*
X134737693Y-100701693D01*
X136090561Y-101382669D02*
X135973810Y-101362411D01*
X135858193Y-101336449D02*
X135743990Y-101304844D01*
X136326340Y-101405891D02*
X136208165Y-101397174D01*
X131019800Y-98983800D02*
X127920200Y-98983800D01*
X136444800Y-101408800D02*
X138752200Y-101408800D01*
X131244869Y-102288869D02*
X131186906Y-102230906D01*
X131364198Y-102420528D02*
X131306150Y-102353233D01*
X131418875Y-102490589D02*
X131364198Y-102420528D01*
X131517594Y-102638333D02*
X131470048Y-102563250D01*
X131561399Y-102715659D02*
X131517594Y-102638333D01*
X131601357Y-102795042D02*
X131561399Y-102715659D01*
X131306150Y-102353233D02*
X131244869Y-102288869D01*
X131637371Y-102876289D02*
X131601357Y-102795042D01*
X131470048Y-102563250D02*
X131418875Y-102490589D01*
X129598259Y-101526708D02*
X129716434Y-101535425D01*
X129479800Y-101523800D02*
X129598259Y-101526708D01*
X130720953Y-101867273D02*
X130821064Y-101930668D01*
X131101085Y-102149198D02*
X131186906Y-102230906D01*
X130403678Y-101707570D02*
X130512008Y-101755590D01*
X130293123Y-101664925D02*
X130403678Y-101707570D01*
X130066405Y-101596150D02*
X130180608Y-101627755D01*
X129950789Y-101570188D02*
X130066405Y-101596150D01*
X130821064Y-101930668D02*
X130917944Y-101998898D01*
X129834038Y-101549930D02*
X129950789Y-101570188D01*
X131669356Y-102959206D02*
X131637371Y-102876289D01*
X131720936Y-103129245D02*
X131697233Y-103043592D01*
X130917944Y-101998898D02*
X131011359Y-102071800D01*
X131755602Y-103303520D02*
X131740408Y-103215957D01*
X130617851Y-101808867D02*
X130720953Y-101867273D01*
X131740408Y-103215957D02*
X131720936Y-103129245D01*
X131766481Y-103391724D02*
X131755602Y-103303520D01*
X131773018Y-103480355D02*
X131766481Y-103391724D01*
X131697233Y-103043592D02*
X131669356Y-102959206D01*
X130180608Y-101627755D02*
X130293123Y-101664925D01*
X131775200Y-103569200D02*
X131773018Y-103480355D01*
X131011359Y-102071800D02*
X131101085Y-102149198D01*
X129716434Y-101535425D02*
X129834038Y-101549930D01*
X130512008Y-101755590D02*
X130617851Y-101808867D01*
X131775200Y-103569200D02*
X131775200Y-110198800D01*
X129479800Y-101523800D02*
X127920200Y-101523800D01*
X130274759Y-92085797D02*
X130364485Y-92008399D01*
X128743200Y-92633800D02*
X127920200Y-92633800D01*
X129984353Y-92290325D02*
X130084464Y-92226930D01*
X131149800Y-91223085D02*
X131068093Y-91308906D01*
X129667079Y-92450027D02*
X129775408Y-92402008D01*
X131634074Y-90415123D02*
X131591428Y-90525679D01*
X131591428Y-90525679D02*
X131543409Y-90634008D01*
X131490132Y-90739851D02*
X131431725Y-90842953D01*
X131763574Y-89838434D02*
X131749069Y-89956038D01*
X131728811Y-90072789D02*
X131702848Y-90188405D01*
X130364485Y-92008399D02*
X130450306Y-91926692D01*
X131749069Y-89956038D02*
X131728811Y-90072789D01*
X131775200Y-89601800D02*
X131772291Y-89720259D01*
X128861659Y-92630891D02*
X128979834Y-92622174D01*
X130181344Y-92158699D02*
X130274759Y-92085797D01*
X131300100Y-91039944D02*
X131227198Y-91133359D01*
X128979834Y-92622174D02*
X129097438Y-92607668D01*
X129329805Y-92561448D02*
X129444008Y-92529843D01*
X129775408Y-92402008D02*
X129881251Y-92348731D01*
X129097438Y-92607668D02*
X129214189Y-92587410D01*
X131702848Y-90188405D02*
X131671244Y-90302608D01*
X129444008Y-92529843D02*
X129556523Y-92492673D01*
X131431725Y-90842953D02*
X131368331Y-90943064D01*
X131772291Y-89720259D02*
X131763574Y-89838434D01*
X131368331Y-90943064D02*
X131300100Y-91039944D01*
X128743200Y-92633800D02*
X128861659Y-92630891D01*
X129214189Y-92587410D02*
X129329805Y-92561448D01*
X131227198Y-91133359D02*
X131149800Y-91223085D01*
X131543409Y-90634008D02*
X131490132Y-90739851D01*
X131671244Y-90302608D02*
X131634074Y-90415123D01*
X129881251Y-92348731D02*
X129984353Y-92290325D01*
X130084464Y-92226930D02*
X130181344Y-92158699D01*
X129556523Y-92492673D02*
X129667079Y-92450027D01*
X130450306Y-91926692D02*
X131068093Y-91308906D01*
X131775200Y-89601800D02*
X131775200Y-83108800D01*
X118999000Y-84455000D02*
X118958001Y-84495999D01*
X118999000Y-82386500D02*
X118999000Y-84455000D01*
X118958001Y-84495999D02*
X120142000Y-84495999D01*
X117856000Y-84495999D02*
X118958001Y-84495999D01*
X127150198Y-93903800D02*
X125476000Y-92229602D01*
X127920200Y-93903800D02*
X127150198Y-93903800D01*
X125476000Y-89937500D02*
X126386500Y-89027000D01*
X125476000Y-92229602D02*
X125476000Y-89937500D01*
X119890202Y-93903800D02*
X120904000Y-92890002D01*
X119120200Y-93903800D02*
X119890202Y-93903800D01*
X120904000Y-92890002D02*
X120904000Y-90932000D01*
X117856000Y-87884000D02*
X117856000Y-86495999D01*
X120904000Y-90932000D02*
X117856000Y-87884000D01*
X117856000Y-86495999D02*
X110117999Y-86495999D01*
X106172000Y-82550000D02*
X106172000Y-80518000D01*
X110117999Y-86495999D02*
X106172000Y-82550000D01*
X120470200Y-100253800D02*
X121666000Y-99058000D01*
X119120200Y-100253800D02*
X120470200Y-100253800D01*
X121666000Y-88019999D02*
X120142000Y-86495999D01*
X121666000Y-99058000D02*
X121666000Y-88019999D01*
X121420999Y-85217000D02*
X120142000Y-86495999D01*
X121920000Y-85217000D02*
X121420999Y-85217000D01*
D22*
X144590001Y-117069000D02*
X95910000Y-117069000D01*
X95910000Y-115676100D01*
X116850928Y-115676100D01*
X116863188Y-115800582D01*
X116899498Y-115920280D01*
X116958463Y-116030594D01*
X117037815Y-116127285D01*
X117134506Y-116206637D01*
X117244820Y-116265602D01*
X117364518Y-116301912D01*
X117489000Y-116314172D01*
X118078250Y-116311100D01*
X118237000Y-116152350D01*
X118237000Y-115090600D01*
X118491000Y-115090600D01*
X118491000Y-116152350D01*
X118649750Y-116311100D01*
X119239000Y-116314172D01*
X119363482Y-116301912D01*
X119483180Y-116265602D01*
X119593494Y-116206637D01*
X119690185Y-116127285D01*
X119769537Y-116030594D01*
X119828502Y-115920280D01*
X119864812Y-115800582D01*
X119877072Y-115676100D01*
X119874000Y-115249350D01*
X119715250Y-115090600D01*
X118491000Y-115090600D01*
X118237000Y-115090600D01*
X117012750Y-115090600D01*
X116854000Y-115249350D01*
X116850928Y-115676100D01*
X95910000Y-115676100D01*
X95910000Y-114251100D01*
X116850928Y-114251100D01*
X116854000Y-114677850D01*
X117012750Y-114836600D01*
X118237000Y-114836600D01*
X118237000Y-113774850D01*
X118491000Y-113774850D01*
X118491000Y-114836600D01*
X119715250Y-114836600D01*
X119874000Y-114677850D01*
X119877072Y-114251100D01*
X119864812Y-114126618D01*
X119828502Y-114006920D01*
X119805203Y-113963331D01*
X128190274Y-113963331D01*
X128301121Y-114240514D01*
X128612040Y-114393889D01*
X128946905Y-114483660D01*
X129292850Y-114506376D01*
X129636580Y-114461166D01*
X129964885Y-114349766D01*
X130169279Y-114240514D01*
X130280126Y-113963331D01*
X133270274Y-113963331D01*
X133381121Y-114240514D01*
X133692040Y-114393889D01*
X134026905Y-114483660D01*
X134372850Y-114506376D01*
X134716580Y-114461166D01*
X135044885Y-114349766D01*
X135249279Y-114240514D01*
X135360126Y-113963331D01*
X134315200Y-112918405D01*
X133270274Y-113963331D01*
X130280126Y-113963331D01*
X129235200Y-112918405D01*
X128190274Y-113963331D01*
X119805203Y-113963331D01*
X119769537Y-113896606D01*
X119690185Y-113799915D01*
X119593494Y-113720563D01*
X119483180Y-113661598D01*
X119363482Y-113625288D01*
X119239000Y-113613028D01*
X118649750Y-113616100D01*
X118491000Y-113774850D01*
X118237000Y-113774850D01*
X118078250Y-113616100D01*
X117489000Y-113613028D01*
X117364518Y-113625288D01*
X117244820Y-113661598D01*
X117134506Y-113720563D01*
X117037815Y-113799915D01*
X116958463Y-113896606D01*
X116899498Y-114006920D01*
X116863188Y-114126618D01*
X116850928Y-114251100D01*
X95910000Y-114251100D01*
X95910000Y-107813653D01*
X99142952Y-107813653D01*
X99298962Y-108129214D01*
X99673745Y-108320020D01*
X100078551Y-108434044D01*
X100497824Y-108466902D01*
X100915451Y-108417334D01*
X101315383Y-108287243D01*
X101611038Y-108129214D01*
X101767048Y-107813653D01*
X100455000Y-106501605D01*
X99142952Y-107813653D01*
X95910000Y-107813653D01*
X95910000Y-106364824D01*
X98310098Y-106364824D01*
X98359666Y-106782451D01*
X98489757Y-107182383D01*
X98647786Y-107478038D01*
X98963347Y-107634048D01*
X100275395Y-106322000D01*
X98963347Y-105009952D01*
X98647786Y-105165962D01*
X98456980Y-105540745D01*
X98342956Y-105945551D01*
X98310098Y-106364824D01*
X95910000Y-106364824D01*
X95910000Y-104830347D01*
X99142952Y-104830347D01*
X100455000Y-106142395D01*
X100469143Y-106128253D01*
X100648748Y-106307858D01*
X100634605Y-106322000D01*
X101946653Y-107634048D01*
X102262214Y-107478038D01*
X102453020Y-107103255D01*
X102567044Y-106698449D01*
X102595414Y-106336443D01*
X102845782Y-106440149D01*
X103282409Y-106527000D01*
X103727591Y-106527000D01*
X104164218Y-106440149D01*
X104575511Y-106269786D01*
X104945666Y-106022456D01*
X105260456Y-105707666D01*
X105507786Y-105337511D01*
X105678149Y-104926218D01*
X105765000Y-104489591D01*
X105765000Y-104044409D01*
X105678149Y-103607782D01*
X105507786Y-103196489D01*
X105260456Y-102826334D01*
X104945666Y-102511544D01*
X104575511Y-102264214D01*
X104164218Y-102093851D01*
X103727591Y-102007000D01*
X103282409Y-102007000D01*
X102845782Y-102093851D01*
X102434489Y-102264214D01*
X102064334Y-102511544D01*
X101749544Y-102826334D01*
X101502214Y-103196489D01*
X101331851Y-103607782D01*
X101245000Y-104044409D01*
X101245000Y-104328432D01*
X101236255Y-104323980D01*
X100831449Y-104209956D01*
X100412176Y-104177098D01*
X99994549Y-104226666D01*
X99594617Y-104356757D01*
X99298962Y-104514786D01*
X99142952Y-104830347D01*
X95910000Y-104830347D01*
X95910000Y-92273653D01*
X99142952Y-92273653D01*
X99298962Y-92589214D01*
X99673745Y-92780020D01*
X100078551Y-92894044D01*
X100497824Y-92926902D01*
X100915451Y-92877334D01*
X101245000Y-92770137D01*
X101245000Y-93059591D01*
X101331851Y-93496218D01*
X101502214Y-93907511D01*
X101749544Y-94277666D01*
X102064334Y-94592456D01*
X102434489Y-94839786D01*
X102845782Y-95010149D01*
X103282409Y-95097000D01*
X103727591Y-95097000D01*
X104164218Y-95010149D01*
X104575511Y-94839786D01*
X104945666Y-94592456D01*
X105260456Y-94277666D01*
X105507786Y-93907511D01*
X105678149Y-93496218D01*
X105765000Y-93059591D01*
X105765000Y-92614409D01*
X105678149Y-92177782D01*
X105507786Y-91766489D01*
X105260456Y-91396334D01*
X104945666Y-91081544D01*
X104575511Y-90834214D01*
X104164218Y-90663851D01*
X103727591Y-90577000D01*
X103282409Y-90577000D01*
X102845782Y-90663851D01*
X102597754Y-90766588D01*
X102599902Y-90739176D01*
X102550334Y-90321549D01*
X102420243Y-89921617D01*
X102262214Y-89625962D01*
X101946653Y-89469952D01*
X100634605Y-90782000D01*
X100648748Y-90796143D01*
X100469143Y-90975748D01*
X100455000Y-90961605D01*
X99142952Y-92273653D01*
X95910000Y-92273653D01*
X95910000Y-90824824D01*
X98310098Y-90824824D01*
X98359666Y-91242451D01*
X98489757Y-91642383D01*
X98647786Y-91938038D01*
X98963347Y-92094048D01*
X100275395Y-90782000D01*
X98963347Y-89469952D01*
X98647786Y-89625962D01*
X98456980Y-90000745D01*
X98342956Y-90405551D01*
X98310098Y-90824824D01*
X95910000Y-90824824D01*
X95910000Y-89290347D01*
X99142952Y-89290347D01*
X100455000Y-90602395D01*
X101767048Y-89290347D01*
X101611038Y-88974786D01*
X101236255Y-88783980D01*
X100831449Y-88669956D01*
X100412176Y-88637098D01*
X99994549Y-88686666D01*
X99594617Y-88816757D01*
X99298962Y-88974786D01*
X99142952Y-89290347D01*
X95910000Y-89290347D01*
X95910000Y-79018000D01*
X104033928Y-79018000D01*
X104033928Y-82018000D01*
X104046188Y-82142482D01*
X104082498Y-82262180D01*
X104141463Y-82372494D01*
X104220815Y-82469185D01*
X104317506Y-82548537D01*
X104427820Y-82607502D01*
X104547518Y-82643812D01*
X104672000Y-82656072D01*
X105293165Y-82656072D01*
X105299805Y-82723489D01*
X105350411Y-82890312D01*
X105432589Y-83044058D01*
X105543183Y-83178817D01*
X105576956Y-83206534D01*
X109461469Y-87091048D01*
X109489182Y-87124816D01*
X109522950Y-87152529D01*
X109522952Y-87152531D01*
X109563551Y-87185850D01*
X109623940Y-87235410D01*
X109777686Y-87317588D01*
X109944509Y-87368194D01*
X110074522Y-87380999D01*
X110074532Y-87380999D01*
X110117998Y-87385280D01*
X110161464Y-87380999D01*
X116701746Y-87380999D01*
X116778038Y-87473961D01*
X116912613Y-87584404D01*
X116971000Y-87615613D01*
X116971000Y-87840530D01*
X116966719Y-87884000D01*
X116971000Y-87927469D01*
X116971000Y-87927476D01*
X116983805Y-88057489D01*
X117034411Y-88224312D01*
X117116589Y-88378058D01*
X117227183Y-88512817D01*
X117260956Y-88540534D01*
X120019001Y-91298580D01*
X120019001Y-91620534D01*
X119970200Y-91615728D01*
X118270200Y-91615728D01*
X118145718Y-91627988D01*
X118026020Y-91664298D01*
X117915706Y-91723263D01*
X117819015Y-91802615D01*
X117739663Y-91899306D01*
X117685872Y-91999940D01*
X117648880Y-92019713D01*
X117536962Y-92111562D01*
X117513946Y-92139607D01*
X116281554Y-93372000D01*
X111243072Y-93372000D01*
X111243072Y-93357000D01*
X111230812Y-93232518D01*
X111194502Y-93112820D01*
X111135537Y-93002506D01*
X111056185Y-92905815D01*
X110959494Y-92826463D01*
X110849180Y-92767498D01*
X110729482Y-92731188D01*
X110605000Y-92718928D01*
X109105000Y-92718928D01*
X108980518Y-92731188D01*
X108860820Y-92767498D01*
X108750506Y-92826463D01*
X108653815Y-92905815D01*
X108574463Y-93002506D01*
X108515498Y-93112820D01*
X108479188Y-93232518D01*
X108466928Y-93357000D01*
X108466928Y-94857000D01*
X108479188Y-94981482D01*
X108515498Y-95101180D01*
X108574463Y-95211494D01*
X108653815Y-95308185D01*
X108750506Y-95387537D01*
X108860820Y-95446502D01*
X108980518Y-95482812D01*
X109088483Y-95493445D01*
X108972114Y-95571201D01*
X108779201Y-95764114D01*
X108627629Y-95990957D01*
X108523225Y-96243011D01*
X108470000Y-96510589D01*
X108470000Y-96783411D01*
X108523225Y-97050989D01*
X108627629Y-97303043D01*
X108779201Y-97529886D01*
X108972114Y-97722799D01*
X109198957Y-97874371D01*
X109301873Y-97917000D01*
X109198957Y-97959629D01*
X108972114Y-98111201D01*
X108779201Y-98304114D01*
X108627629Y-98530957D01*
X108523225Y-98783011D01*
X108470000Y-99050589D01*
X108470000Y-99320421D01*
X107481956Y-100308466D01*
X107448183Y-100336183D01*
X107337589Y-100470942D01*
X107255411Y-100624688D01*
X107230914Y-100705442D01*
X107204805Y-100791510D01*
X107204152Y-100798137D01*
X107192000Y-100921524D01*
X107192000Y-100921531D01*
X107187719Y-100965000D01*
X107192000Y-101008469D01*
X107192001Y-104096521D01*
X107187719Y-104140000D01*
X107204805Y-104313490D01*
X107255412Y-104480313D01*
X107337590Y-104634059D01*
X107420468Y-104735046D01*
X107420471Y-104735049D01*
X107448184Y-104768817D01*
X107481951Y-104796529D01*
X111008470Y-108323049D01*
X111036183Y-108356817D01*
X111069951Y-108384530D01*
X111069953Y-108384532D01*
X111141452Y-108443210D01*
X111170941Y-108467411D01*
X111324687Y-108549589D01*
X111491510Y-108600195D01*
X111621523Y-108613000D01*
X111621533Y-108613000D01*
X111664999Y-108617281D01*
X111708465Y-108613000D01*
X115787346Y-108613000D01*
X115863638Y-108705962D01*
X115890491Y-108728000D01*
X115863638Y-108750038D01*
X115753195Y-108884613D01*
X115671128Y-109038149D01*
X115620592Y-109204745D01*
X115603528Y-109377999D01*
X115603528Y-110078001D01*
X115620592Y-110251255D01*
X115671128Y-110417851D01*
X115753195Y-110571387D01*
X115863638Y-110705962D01*
X115998213Y-110816405D01*
X116151749Y-110898472D01*
X116318345Y-110949008D01*
X116491599Y-110966072D01*
X117055286Y-110966072D01*
X117000595Y-111032714D01*
X116918528Y-111186250D01*
X116867992Y-111352846D01*
X116850928Y-111526100D01*
X116850928Y-112451100D01*
X116867992Y-112624354D01*
X116918528Y-112790950D01*
X117000595Y-112944486D01*
X117111038Y-113079062D01*
X117245614Y-113189505D01*
X117399150Y-113271572D01*
X117565746Y-113322108D01*
X117739000Y-113339172D01*
X118989000Y-113339172D01*
X119162254Y-113322108D01*
X119328850Y-113271572D01*
X119482386Y-113189505D01*
X119616962Y-113079062D01*
X119727405Y-112944486D01*
X119806532Y-112796450D01*
X127467624Y-112796450D01*
X127512834Y-113140180D01*
X127624234Y-113468485D01*
X127733486Y-113672879D01*
X128010669Y-113783726D01*
X129055595Y-112738800D01*
X129414805Y-112738800D01*
X130459731Y-113783726D01*
X130736914Y-113672879D01*
X130890289Y-113361960D01*
X130980060Y-113027095D01*
X130995204Y-112796450D01*
X132547624Y-112796450D01*
X132592834Y-113140180D01*
X132704234Y-113468485D01*
X132813486Y-113672879D01*
X133090669Y-113783726D01*
X134135595Y-112738800D01*
X134494805Y-112738800D01*
X135539731Y-113783726D01*
X135816914Y-113672879D01*
X135970289Y-113361960D01*
X136060060Y-113027095D01*
X136082776Y-112681150D01*
X136037566Y-112337420D01*
X135926166Y-112009115D01*
X135816914Y-111804721D01*
X135539731Y-111693874D01*
X134494805Y-112738800D01*
X134135595Y-112738800D01*
X133090669Y-111693874D01*
X132813486Y-111804721D01*
X132660111Y-112115640D01*
X132570340Y-112450505D01*
X132547624Y-112796450D01*
X130995204Y-112796450D01*
X131002776Y-112681150D01*
X130957566Y-112337420D01*
X130846166Y-112009115D01*
X130736914Y-111804721D01*
X130459731Y-111693874D01*
X129414805Y-112738800D01*
X129055595Y-112738800D01*
X128010669Y-111693874D01*
X127733486Y-111804721D01*
X127580111Y-112115640D01*
X127490340Y-112450505D01*
X127467624Y-112796450D01*
X119806532Y-112796450D01*
X119809472Y-112790950D01*
X119860008Y-112624354D01*
X119877072Y-112451100D01*
X119877072Y-111526100D01*
X119875907Y-111514269D01*
X128190274Y-111514269D01*
X129235200Y-112559195D01*
X130280126Y-111514269D01*
X130169279Y-111237086D01*
X129858360Y-111083711D01*
X129523495Y-110993940D01*
X129177550Y-110971224D01*
X128833820Y-111016434D01*
X128505515Y-111127834D01*
X128301121Y-111237086D01*
X128190274Y-111514269D01*
X119875907Y-111514269D01*
X119860008Y-111352846D01*
X119809472Y-111186250D01*
X119727405Y-111032714D01*
X119672714Y-110966072D01*
X120084001Y-110966072D01*
X120257255Y-110949008D01*
X120423851Y-110898472D01*
X120577387Y-110816405D01*
X120711962Y-110705962D01*
X120822405Y-110571387D01*
X120904472Y-110417851D01*
X120955008Y-110251255D01*
X120972072Y-110078001D01*
X120972072Y-109377999D01*
X120955008Y-109204745D01*
X120904472Y-109038149D01*
X120822405Y-108884613D01*
X120821353Y-108883331D01*
X128190274Y-108883331D01*
X128301121Y-109160514D01*
X128612040Y-109313889D01*
X128946905Y-109403660D01*
X129292850Y-109426376D01*
X129636580Y-109381166D01*
X129964885Y-109269766D01*
X130169279Y-109160514D01*
X130280126Y-108883331D01*
X129235200Y-107838405D01*
X128190274Y-108883331D01*
X120821353Y-108883331D01*
X120711962Y-108750038D01*
X120685109Y-108728000D01*
X120711962Y-108705962D01*
X120822405Y-108571387D01*
X120904472Y-108417851D01*
X120955008Y-108251255D01*
X120972072Y-108078001D01*
X120972072Y-107716450D01*
X127467624Y-107716450D01*
X127512834Y-108060180D01*
X127624234Y-108388485D01*
X127733486Y-108592879D01*
X128010669Y-108703726D01*
X129055595Y-107658800D01*
X128010669Y-106613874D01*
X127733486Y-106724721D01*
X127580111Y-107035640D01*
X127490340Y-107370505D01*
X127467624Y-107716450D01*
X120972072Y-107716450D01*
X120972072Y-107377999D01*
X120955008Y-107204745D01*
X120904472Y-107038149D01*
X120822405Y-106884613D01*
X120711962Y-106750038D01*
X120577387Y-106639595D01*
X120519000Y-106608386D01*
X120519000Y-106088469D01*
X120523281Y-106045000D01*
X120519000Y-106001531D01*
X120519000Y-106001523D01*
X120507130Y-105881000D01*
X122323928Y-105881000D01*
X122336188Y-106005482D01*
X122372498Y-106125180D01*
X122431463Y-106235494D01*
X122510815Y-106332185D01*
X122607506Y-106411537D01*
X122717820Y-106470502D01*
X122837518Y-106506812D01*
X122962000Y-106519072D01*
X123263750Y-106516000D01*
X123422500Y-106357250D01*
X123422500Y-105283000D01*
X122485750Y-105283000D01*
X122327000Y-105441750D01*
X122323928Y-105881000D01*
X120507130Y-105881000D01*
X120506195Y-105871510D01*
X120503174Y-105861549D01*
X120485793Y-105804254D01*
X120455589Y-105704687D01*
X120373411Y-105550941D01*
X120262817Y-105416183D01*
X120229050Y-105388471D01*
X119271579Y-104431000D01*
X122323928Y-104431000D01*
X122327000Y-104870250D01*
X122485750Y-105029000D01*
X123422500Y-105029000D01*
X123422500Y-103954750D01*
X123676500Y-103954750D01*
X123676500Y-105029000D01*
X123696500Y-105029000D01*
X123696500Y-105283000D01*
X123676500Y-105283000D01*
X123676500Y-106357250D01*
X123835250Y-106516000D01*
X124137000Y-106519072D01*
X124261482Y-106506812D01*
X124381180Y-106470502D01*
X124491494Y-106411537D01*
X124588185Y-106332185D01*
X124653658Y-106252406D01*
X124659038Y-106258962D01*
X124793614Y-106369405D01*
X124947150Y-106451472D01*
X125113746Y-106502008D01*
X125287000Y-106519072D01*
X125962000Y-106519072D01*
X126135254Y-106502008D01*
X126301850Y-106451472D01*
X126334034Y-106434269D01*
X128190274Y-106434269D01*
X129235200Y-107479195D01*
X130280126Y-106434269D01*
X130169279Y-106157086D01*
X129858360Y-106003711D01*
X129523495Y-105913940D01*
X129177550Y-105891224D01*
X128833820Y-105936434D01*
X128505515Y-106047834D01*
X128301121Y-106157086D01*
X128190274Y-106434269D01*
X126334034Y-106434269D01*
X126455386Y-106369405D01*
X126589962Y-106258962D01*
X126700405Y-106124386D01*
X126782472Y-105970850D01*
X126833008Y-105804254D01*
X126850072Y-105631000D01*
X126850072Y-104681000D01*
X126833008Y-104507746D01*
X126782472Y-104341150D01*
X126700405Y-104187614D01*
X126589962Y-104053038D01*
X126509500Y-103987005D01*
X126509500Y-102201864D01*
X126539663Y-102258294D01*
X126619015Y-102354985D01*
X126715706Y-102434337D01*
X126826020Y-102493302D01*
X126945718Y-102529612D01*
X127070200Y-102541872D01*
X128770200Y-102541872D01*
X128894682Y-102529612D01*
X129014380Y-102493302D01*
X129124694Y-102434337D01*
X129155811Y-102408800D01*
X129468959Y-102408800D01*
X129554826Y-102410908D01*
X129629662Y-102416428D01*
X129704143Y-102425615D01*
X129778086Y-102438445D01*
X129851294Y-102454884D01*
X129923624Y-102474900D01*
X129994893Y-102498444D01*
X130064898Y-102525448D01*
X130133505Y-102555859D01*
X130200537Y-102589601D01*
X130265840Y-102626593D01*
X130329238Y-102666740D01*
X130390591Y-102709950D01*
X130449757Y-102756124D01*
X130506568Y-102805129D01*
X130568805Y-102864383D01*
X130611403Y-102906981D01*
X130650214Y-102947744D01*
X130679879Y-102982136D01*
X130707825Y-103017943D01*
X130733974Y-103055073D01*
X130758276Y-103093450D01*
X130780663Y-103132969D01*
X130801087Y-103173545D01*
X130819493Y-103215067D01*
X130835839Y-103257443D01*
X130850083Y-103300561D01*
X130862202Y-103344355D01*
X130872151Y-103388658D01*
X130879918Y-103433423D01*
X130885478Y-103478497D01*
X130888819Y-103523795D01*
X130890200Y-103580036D01*
X130890201Y-107058888D01*
X130846166Y-106929115D01*
X130736914Y-106724721D01*
X130459731Y-106613874D01*
X129414805Y-107658800D01*
X130459731Y-108703726D01*
X130736914Y-108592879D01*
X130890201Y-108282139D01*
X130890201Y-108793673D01*
X130717012Y-108909394D01*
X130485794Y-109140612D01*
X130304127Y-109412495D01*
X130178993Y-109714596D01*
X130115200Y-110035304D01*
X130115200Y-110362296D01*
X130178993Y-110683004D01*
X130304127Y-110985105D01*
X130485794Y-111256988D01*
X130717012Y-111488206D01*
X130988895Y-111669873D01*
X131290996Y-111795007D01*
X131611704Y-111858800D01*
X131938696Y-111858800D01*
X132259404Y-111795007D01*
X132561505Y-111669873D01*
X132794382Y-111514269D01*
X133270274Y-111514269D01*
X134315200Y-112559195D01*
X135360126Y-111514269D01*
X135249279Y-111237086D01*
X134938360Y-111083711D01*
X134603495Y-110993940D01*
X134257550Y-110971224D01*
X133913820Y-111016434D01*
X133585515Y-111127834D01*
X133381121Y-111237086D01*
X133270274Y-111514269D01*
X132794382Y-111514269D01*
X132833388Y-111488206D01*
X133064606Y-111256988D01*
X133246273Y-110985105D01*
X133371407Y-110683004D01*
X133435200Y-110362296D01*
X133435200Y-110035304D01*
X133371407Y-109714596D01*
X133246273Y-109412495D01*
X133064606Y-109140612D01*
X132833388Y-108909394D01*
X132794383Y-108883331D01*
X133270274Y-108883331D01*
X133381121Y-109160514D01*
X133692040Y-109313889D01*
X134026905Y-109403660D01*
X134372850Y-109426376D01*
X134716580Y-109381166D01*
X135044885Y-109269766D01*
X135249279Y-109160514D01*
X135360126Y-108883331D01*
X134315200Y-107838405D01*
X133270274Y-108883331D01*
X132794383Y-108883331D01*
X132660200Y-108793673D01*
X132660200Y-108258713D01*
X132704234Y-108388485D01*
X132813486Y-108592879D01*
X133090669Y-108703726D01*
X134135595Y-107658800D01*
X134494805Y-107658800D01*
X135539731Y-108703726D01*
X135816914Y-108592879D01*
X135970289Y-108281960D01*
X136060060Y-107947095D01*
X136082776Y-107601150D01*
X136037566Y-107257420D01*
X135926166Y-106929115D01*
X135816914Y-106724721D01*
X135539731Y-106613874D01*
X134494805Y-107658800D01*
X134135595Y-107658800D01*
X133090669Y-106613874D01*
X132813486Y-106724721D01*
X132660200Y-107035460D01*
X132660200Y-106434269D01*
X133270274Y-106434269D01*
X134315200Y-107479195D01*
X135360126Y-106434269D01*
X135249279Y-106157086D01*
X134938360Y-106003711D01*
X134603495Y-105913940D01*
X134257550Y-105891224D01*
X133913820Y-105936434D01*
X133585515Y-106047834D01*
X133381121Y-106157086D01*
X133270274Y-106434269D01*
X132660200Y-106434269D01*
X132660200Y-105173331D01*
X135167274Y-105173331D01*
X135278121Y-105450514D01*
X135589040Y-105603889D01*
X135923905Y-105693660D01*
X136269850Y-105716376D01*
X136613580Y-105671166D01*
X136941885Y-105559766D01*
X137146279Y-105450514D01*
X137257126Y-105173331D01*
X140247274Y-105173331D01*
X140358121Y-105450514D01*
X140669040Y-105603889D01*
X141003905Y-105693660D01*
X141349850Y-105716376D01*
X141693580Y-105671166D01*
X142021885Y-105559766D01*
X142226279Y-105450514D01*
X142337126Y-105173331D01*
X141292200Y-104128405D01*
X140247274Y-105173331D01*
X137257126Y-105173331D01*
X136212200Y-104128405D01*
X135167274Y-105173331D01*
X132660200Y-105173331D01*
X132660200Y-104006450D01*
X134444624Y-104006450D01*
X134489834Y-104350180D01*
X134601234Y-104678485D01*
X134710486Y-104882879D01*
X134987669Y-104993726D01*
X136032595Y-103948800D01*
X136391805Y-103948800D01*
X137436731Y-104993726D01*
X137713914Y-104882879D01*
X137867289Y-104571960D01*
X137957060Y-104237095D01*
X137972204Y-104006450D01*
X139524624Y-104006450D01*
X139569834Y-104350180D01*
X139681234Y-104678485D01*
X139790486Y-104882879D01*
X140067669Y-104993726D01*
X141112595Y-103948800D01*
X141471805Y-103948800D01*
X142516731Y-104993726D01*
X142793914Y-104882879D01*
X142947289Y-104571960D01*
X143037060Y-104237095D01*
X143059776Y-103891150D01*
X143014566Y-103547420D01*
X142903166Y-103219115D01*
X142793914Y-103014721D01*
X142516731Y-102903874D01*
X141471805Y-103948800D01*
X141112595Y-103948800D01*
X140067669Y-102903874D01*
X139790486Y-103014721D01*
X139637111Y-103325640D01*
X139547340Y-103660505D01*
X139524624Y-104006450D01*
X137972204Y-104006450D01*
X137979776Y-103891150D01*
X137934566Y-103547420D01*
X137823166Y-103219115D01*
X137713914Y-103014721D01*
X137436731Y-102903874D01*
X136391805Y-103948800D01*
X136032595Y-103948800D01*
X134987669Y-102903874D01*
X134710486Y-103014721D01*
X134557111Y-103325640D01*
X134467340Y-103660505D01*
X134444624Y-104006450D01*
X132660200Y-104006450D01*
X132660200Y-103601782D01*
X132661000Y-103590935D01*
X132660200Y-103558362D01*
X132660200Y-103525723D01*
X132659132Y-103514880D01*
X132658284Y-103480357D01*
X132658818Y-103458617D01*
X132657217Y-103436913D01*
X132656683Y-103415163D01*
X132654022Y-103393586D01*
X132650681Y-103348295D01*
X132650147Y-103326539D01*
X132647484Y-103304947D01*
X132645885Y-103283269D01*
X132642167Y-103261841D01*
X132636605Y-103216747D01*
X132635005Y-103195052D01*
X132631287Y-103173623D01*
X132628624Y-103152036D01*
X132623857Y-103130807D01*
X132616092Y-103086058D01*
X132613429Y-103064471D01*
X132608662Y-103043243D01*
X132604944Y-103021816D01*
X132599145Y-103000862D01*
X132589192Y-102956538D01*
X132585474Y-102935110D01*
X132579673Y-102914147D01*
X132574906Y-102892919D01*
X132568083Y-102872267D01*
X132555969Y-102828490D01*
X132551204Y-102807270D01*
X132544382Y-102786621D01*
X132538580Y-102765653D01*
X132530749Y-102745352D01*
X132516502Y-102702227D01*
X132510700Y-102681260D01*
X132502872Y-102660967D01*
X132496051Y-102640319D01*
X132487238Y-102620436D01*
X132470887Y-102578049D01*
X132464066Y-102557401D01*
X132455253Y-102537520D01*
X132447421Y-102517215D01*
X132437639Y-102497783D01*
X132419237Y-102456266D01*
X132411408Y-102435971D01*
X132401630Y-102416546D01*
X132392815Y-102396659D01*
X132382090Y-102377727D01*
X132361670Y-102337160D01*
X132352854Y-102317271D01*
X132342131Y-102298342D01*
X132332354Y-102278919D01*
X132320720Y-102260547D01*
X132298327Y-102221018D01*
X132288548Y-102201591D01*
X132276912Y-102183216D01*
X132266189Y-102164287D01*
X132253664Y-102146503D01*
X132229362Y-102108126D01*
X132218647Y-102089211D01*
X132206128Y-102071434D01*
X132194482Y-102053044D01*
X132181095Y-102035890D01*
X132154942Y-101998755D01*
X132143305Y-101980379D01*
X132129934Y-101963246D01*
X132117406Y-101945457D01*
X132103187Y-101928973D01*
X132075249Y-101893175D01*
X132062730Y-101875398D01*
X132048520Y-101858924D01*
X132035131Y-101841768D01*
X132020135Y-101826017D01*
X131990467Y-101791623D01*
X131977081Y-101774471D01*
X131962091Y-101758727D01*
X131947887Y-101742260D01*
X131932124Y-101727252D01*
X131908300Y-101702229D01*
X131901401Y-101693823D01*
X131878340Y-101670762D01*
X131855841Y-101647131D01*
X131847603Y-101640025D01*
X131835743Y-101628165D01*
X131828636Y-101619926D01*
X131805015Y-101597437D01*
X131781952Y-101574374D01*
X131773540Y-101567471D01*
X131727061Y-101523219D01*
X131712063Y-101507466D01*
X131695593Y-101493259D01*
X131679838Y-101478259D01*
X131662687Y-101464874D01*
X131605868Y-101415862D01*
X131590114Y-101400863D01*
X131572962Y-101387478D01*
X131556494Y-101373272D01*
X131538715Y-101360750D01*
X131479548Y-101314576D01*
X131463077Y-101300368D01*
X131445301Y-101287849D01*
X131428150Y-101274464D01*
X131409766Y-101262823D01*
X131348410Y-101219612D01*
X131331270Y-101206235D01*
X131312895Y-101194599D01*
X131295105Y-101182070D01*
X131276181Y-101171350D01*
X131212781Y-101131202D01*
X131194993Y-101118674D01*
X131176070Y-101107955D01*
X131157696Y-101096319D01*
X131138262Y-101086537D01*
X131072961Y-101049545D01*
X131054591Y-101037912D01*
X131035166Y-101028134D01*
X131016233Y-101017409D01*
X130996342Y-101008592D01*
X130929338Y-100974865D01*
X130910397Y-100964135D01*
X130890492Y-100955312D01*
X130871079Y-100945540D01*
X130850801Y-100937718D01*
X130782181Y-100907300D01*
X130762744Y-100897517D01*
X130742450Y-100889689D01*
X130722573Y-100880878D01*
X130701920Y-100874055D01*
X130631897Y-100847045D01*
X130612014Y-100838231D01*
X130591356Y-100831406D01*
X130571061Y-100823578D01*
X130550103Y-100817778D01*
X130478850Y-100794239D01*
X130458556Y-100786411D01*
X130437589Y-100780609D01*
X130416934Y-100773785D01*
X130395713Y-100769020D01*
X130323383Y-100749003D01*
X130302727Y-100742179D01*
X130281508Y-100737414D01*
X130260549Y-100731614D01*
X130239111Y-100727894D01*
X130165896Y-100711453D01*
X130144925Y-100705650D01*
X130123482Y-100701929D01*
X130102269Y-100697166D01*
X130080689Y-100694504D01*
X130006745Y-100681674D01*
X129985520Y-100676908D01*
X129963926Y-100674245D01*
X129942500Y-100670527D01*
X129920813Y-100668927D01*
X129846323Y-100659740D01*
X129824896Y-100656022D01*
X129803210Y-100654422D01*
X129781616Y-100651759D01*
X129759867Y-100651225D01*
X129685032Y-100645705D01*
X129663442Y-100643042D01*
X129641695Y-100642508D01*
X129620003Y-100640908D01*
X129598258Y-100641442D01*
X129534111Y-100639867D01*
X129523277Y-100638800D01*
X129490644Y-100638800D01*
X129458056Y-100638000D01*
X129447211Y-100638800D01*
X129407780Y-100638800D01*
X129408272Y-100633800D01*
X129408272Y-99873800D01*
X129407780Y-99868800D01*
X131008959Y-99868800D01*
X131213287Y-99873816D01*
X131406300Y-99888054D01*
X131598381Y-99911744D01*
X131789068Y-99944831D01*
X131977920Y-99987240D01*
X132164448Y-100038860D01*
X132348199Y-100099563D01*
X132528773Y-100169218D01*
X132705727Y-100247655D01*
X132878579Y-100334661D01*
X133046995Y-100430067D01*
X133210504Y-100533609D01*
X133368748Y-100645057D01*
X133521308Y-100764117D01*
X133667865Y-100890537D01*
X133815907Y-101031485D01*
X134088853Y-101304431D01*
X134095960Y-101312670D01*
X134119584Y-101335162D01*
X134142647Y-101358225D01*
X134151058Y-101365127D01*
X134197531Y-101409374D01*
X134212534Y-101425132D01*
X134229007Y-101439342D01*
X134244755Y-101454335D01*
X134261901Y-101467716D01*
X134318727Y-101516735D01*
X134334486Y-101531738D01*
X134351641Y-101545126D01*
X134368103Y-101559326D01*
X134385879Y-101571845D01*
X134445055Y-101618026D01*
X134461516Y-101632226D01*
X134479292Y-101644745D01*
X134496452Y-101658137D01*
X134514837Y-101669779D01*
X134576180Y-101712981D01*
X134593328Y-101726364D01*
X134611707Y-101738003D01*
X134629489Y-101750526D01*
X134648411Y-101761245D01*
X134711816Y-101801397D01*
X134729605Y-101813925D01*
X134748528Y-101824644D01*
X134766902Y-101836280D01*
X134786336Y-101846062D01*
X134851629Y-101883050D01*
X134870006Y-101894687D01*
X134889440Y-101904469D01*
X134908365Y-101915190D01*
X134928247Y-101924003D01*
X134995272Y-101957740D01*
X135014207Y-101968467D01*
X135034100Y-101977285D01*
X135053518Y-101987059D01*
X135073806Y-101994885D01*
X135142427Y-102025302D01*
X135161848Y-102035078D01*
X135182140Y-102042906D01*
X135202032Y-102051723D01*
X135222686Y-102058546D01*
X135292700Y-102085554D01*
X135312584Y-102094368D01*
X135333234Y-102101190D01*
X135353530Y-102109019D01*
X135374498Y-102114822D01*
X135445744Y-102138358D01*
X135466042Y-102146188D01*
X135487014Y-102151992D01*
X135507665Y-102158814D01*
X135528884Y-102163579D01*
X135601219Y-102183597D01*
X135621873Y-102190420D01*
X135643088Y-102195184D01*
X135664050Y-102200985D01*
X135685488Y-102204705D01*
X135758711Y-102221148D01*
X135779674Y-102226949D01*
X135799278Y-102230351D01*
X135482515Y-102337834D01*
X135278121Y-102447086D01*
X135167274Y-102724269D01*
X136212200Y-103769195D01*
X137257126Y-102724269D01*
X137146279Y-102447086D01*
X136835540Y-102293800D01*
X137347073Y-102293800D01*
X137462794Y-102466988D01*
X137694012Y-102698206D01*
X137965895Y-102879873D01*
X138267996Y-103005007D01*
X138588704Y-103068800D01*
X138915696Y-103068800D01*
X139236404Y-103005007D01*
X139538505Y-102879873D01*
X139771382Y-102724269D01*
X140247274Y-102724269D01*
X141292200Y-103769195D01*
X142337126Y-102724269D01*
X142226279Y-102447086D01*
X141915360Y-102293711D01*
X141580495Y-102203940D01*
X141234550Y-102181224D01*
X140890820Y-102226434D01*
X140562515Y-102337834D01*
X140358121Y-102447086D01*
X140247274Y-102724269D01*
X139771382Y-102724269D01*
X139810388Y-102698206D01*
X140041606Y-102466988D01*
X140223273Y-102195105D01*
X140348407Y-101893004D01*
X140412200Y-101572296D01*
X140412200Y-101245304D01*
X140348407Y-100924596D01*
X140223273Y-100622495D01*
X140041606Y-100350612D01*
X139810388Y-100119394D01*
X139771383Y-100093331D01*
X140247274Y-100093331D01*
X140358121Y-100370514D01*
X140669040Y-100523889D01*
X141003905Y-100613660D01*
X141349850Y-100636376D01*
X141693580Y-100591166D01*
X142021885Y-100479766D01*
X142226279Y-100370514D01*
X142337126Y-100093331D01*
X141292200Y-99048405D01*
X140247274Y-100093331D01*
X139771383Y-100093331D01*
X139538505Y-99937727D01*
X139236404Y-99812593D01*
X138915696Y-99748800D01*
X138588704Y-99748800D01*
X138267996Y-99812593D01*
X137965895Y-99937727D01*
X137694012Y-100119394D01*
X137462794Y-100350612D01*
X137347073Y-100523800D01*
X136812113Y-100523800D01*
X136941885Y-100479766D01*
X137146279Y-100370514D01*
X137257126Y-100093331D01*
X136212200Y-99048405D01*
X136198058Y-99062548D01*
X136018453Y-98882943D01*
X136032595Y-98868800D01*
X136391805Y-98868800D01*
X137436731Y-99913726D01*
X137713914Y-99802879D01*
X137867289Y-99491960D01*
X137957060Y-99157095D01*
X137972204Y-98926450D01*
X139524624Y-98926450D01*
X139569834Y-99270180D01*
X139681234Y-99598485D01*
X139790486Y-99802879D01*
X140067669Y-99913726D01*
X141112595Y-98868800D01*
X141471805Y-98868800D01*
X142516731Y-99913726D01*
X142793914Y-99802879D01*
X142947289Y-99491960D01*
X143037060Y-99157095D01*
X143059776Y-98811150D01*
X143014566Y-98467420D01*
X142903166Y-98139115D01*
X142793914Y-97934721D01*
X142516731Y-97823874D01*
X141471805Y-98868800D01*
X141112595Y-98868800D01*
X140067669Y-97823874D01*
X139790486Y-97934721D01*
X139637111Y-98245640D01*
X139547340Y-98580505D01*
X139524624Y-98926450D01*
X137972204Y-98926450D01*
X137979776Y-98811150D01*
X137934566Y-98467420D01*
X137823166Y-98139115D01*
X137713914Y-97934721D01*
X137436731Y-97823874D01*
X136391805Y-98868800D01*
X136032595Y-98868800D01*
X134987669Y-97823874D01*
X134710486Y-97934721D01*
X134557111Y-98245640D01*
X134467340Y-98580505D01*
X134444624Y-98926450D01*
X134489834Y-99270180D01*
X134491947Y-99276406D01*
X134457699Y-99249679D01*
X134441223Y-99235467D01*
X134423435Y-99222939D01*
X134406296Y-99209564D01*
X134387924Y-99197930D01*
X134229687Y-99086488D01*
X134212536Y-99073103D01*
X134194152Y-99061461D01*
X134176370Y-99048938D01*
X134157451Y-99038221D01*
X133993936Y-98934675D01*
X133976149Y-98922148D01*
X133957223Y-98911426D01*
X133938850Y-98899792D01*
X133919421Y-98890012D01*
X133751023Y-98794616D01*
X133732645Y-98782979D01*
X133713213Y-98773198D01*
X133694288Y-98762477D01*
X133674402Y-98753662D01*
X133501543Y-98666653D01*
X133482601Y-98655922D01*
X133462699Y-98647100D01*
X133443289Y-98637330D01*
X133423012Y-98629508D01*
X133246047Y-98551066D01*
X133226628Y-98541291D01*
X133206343Y-98533466D01*
X133186447Y-98524647D01*
X133165784Y-98517821D01*
X132985237Y-98448176D01*
X132965339Y-98439356D01*
X132944671Y-98432528D01*
X132924390Y-98424705D01*
X132903439Y-98418907D01*
X132719657Y-98358194D01*
X132699361Y-98350365D01*
X132678396Y-98344563D01*
X132657745Y-98337741D01*
X132636523Y-98332975D01*
X132449992Y-98281355D01*
X132429336Y-98274531D01*
X132408111Y-98269765D01*
X132387150Y-98263964D01*
X132365721Y-98260246D01*
X132176879Y-98217840D01*
X132155915Y-98212038D01*
X132134486Y-98208320D01*
X132113263Y-98203554D01*
X132091671Y-98200891D01*
X131900985Y-98167804D01*
X131879759Y-98163038D01*
X131858165Y-98160375D01*
X131836739Y-98156657D01*
X131815051Y-98155057D01*
X131622960Y-98131365D01*
X131601531Y-98127647D01*
X131579842Y-98126047D01*
X131558250Y-98123384D01*
X131536501Y-98122850D01*
X131343489Y-98108613D01*
X131321901Y-98105950D01*
X131300156Y-98105416D01*
X131278463Y-98103816D01*
X131256717Y-98104350D01*
X131074111Y-98099867D01*
X131063277Y-98098800D01*
X131030643Y-98098800D01*
X130998055Y-98098000D01*
X130987210Y-98098800D01*
X129407780Y-98098800D01*
X129408272Y-98093800D01*
X129408272Y-97644269D01*
X135167274Y-97644269D01*
X136212200Y-98689195D01*
X137257126Y-97644269D01*
X140247274Y-97644269D01*
X141292200Y-98689195D01*
X142337126Y-97644269D01*
X142226279Y-97367086D01*
X141915360Y-97213711D01*
X141580495Y-97123940D01*
X141234550Y-97101224D01*
X140890820Y-97146434D01*
X140562515Y-97257834D01*
X140358121Y-97367086D01*
X140247274Y-97644269D01*
X137257126Y-97644269D01*
X137146279Y-97367086D01*
X136835360Y-97213711D01*
X136500495Y-97123940D01*
X136154550Y-97101224D01*
X135810820Y-97146434D01*
X135482515Y-97257834D01*
X135278121Y-97367086D01*
X135167274Y-97644269D01*
X129408272Y-97644269D01*
X129408272Y-97333800D01*
X129396012Y-97209318D01*
X129359702Y-97089620D01*
X129353918Y-97078800D01*
X129359702Y-97067980D01*
X129396012Y-96948282D01*
X129408272Y-96823800D01*
X129408272Y-96156331D01*
X135167274Y-96156331D01*
X135278121Y-96433514D01*
X135589040Y-96586889D01*
X135923905Y-96676660D01*
X136269850Y-96699376D01*
X136613580Y-96654166D01*
X136941885Y-96542766D01*
X137146279Y-96433514D01*
X137257126Y-96156331D01*
X140247274Y-96156331D01*
X140358121Y-96433514D01*
X140669040Y-96586889D01*
X141003905Y-96676660D01*
X141349850Y-96699376D01*
X141693580Y-96654166D01*
X142021885Y-96542766D01*
X142226279Y-96433514D01*
X142337126Y-96156331D01*
X141292200Y-95111405D01*
X140247274Y-96156331D01*
X137257126Y-96156331D01*
X136212200Y-95111405D01*
X135167274Y-96156331D01*
X129408272Y-96156331D01*
X129408272Y-96063800D01*
X129407780Y-96058800D01*
X129996613Y-96058800D01*
X130007459Y-96059600D01*
X130040043Y-96058800D01*
X130072677Y-96058800D01*
X130083513Y-96057733D01*
X130266123Y-96053249D01*
X130287863Y-96053783D01*
X130309553Y-96052183D01*
X130331305Y-96051649D01*
X130352895Y-96048986D01*
X130545901Y-96034749D01*
X130567650Y-96034215D01*
X130589242Y-96031552D01*
X130610931Y-96029952D01*
X130632360Y-96026234D01*
X130824445Y-96002543D01*
X130846143Y-96000942D01*
X130867576Y-95997223D01*
X130889159Y-95994561D01*
X130910379Y-95989796D01*
X131101073Y-95956707D01*
X131122663Y-95954044D01*
X131143889Y-95949277D01*
X131165319Y-95945559D01*
X131186280Y-95939758D01*
X131375115Y-95897354D01*
X131396547Y-95893635D01*
X131417516Y-95887832D01*
X131438736Y-95883067D01*
X131459385Y-95876245D01*
X131645922Y-95824624D01*
X131667145Y-95819858D01*
X131687794Y-95813036D01*
X131708758Y-95807235D01*
X131729054Y-95799406D01*
X131912839Y-95738692D01*
X131933790Y-95732894D01*
X131954071Y-95725071D01*
X131974739Y-95718243D01*
X131994637Y-95709423D01*
X132175184Y-95639778D01*
X132195850Y-95632951D01*
X132215746Y-95624132D01*
X132236028Y-95616308D01*
X132255448Y-95606533D01*
X132432407Y-95528092D01*
X132452689Y-95520268D01*
X132472108Y-95510493D01*
X132492004Y-95501674D01*
X132510939Y-95490948D01*
X132683802Y-95403936D01*
X132703688Y-95395121D01*
X132722613Y-95384400D01*
X132742045Y-95374619D01*
X132760423Y-95362982D01*
X132928821Y-95267586D01*
X132948250Y-95257806D01*
X132966623Y-95246172D01*
X132985549Y-95235450D01*
X133003336Y-95222923D01*
X133166851Y-95119377D01*
X133185770Y-95108660D01*
X133203552Y-95096137D01*
X133221936Y-95084495D01*
X133239087Y-95071110D01*
X133355036Y-94989450D01*
X134444624Y-94989450D01*
X134489834Y-95333180D01*
X134601234Y-95661485D01*
X134710486Y-95865879D01*
X134987669Y-95976726D01*
X136032595Y-94931800D01*
X136391805Y-94931800D01*
X137436731Y-95976726D01*
X137713914Y-95865879D01*
X137867289Y-95554960D01*
X137957060Y-95220095D01*
X137972204Y-94989450D01*
X139524624Y-94989450D01*
X139569834Y-95333180D01*
X139681234Y-95661485D01*
X139790486Y-95865879D01*
X140067669Y-95976726D01*
X141112595Y-94931800D01*
X141471805Y-94931800D01*
X142516731Y-95976726D01*
X142793914Y-95865879D01*
X142947289Y-95554960D01*
X143037060Y-95220095D01*
X143059776Y-94874150D01*
X143014566Y-94530420D01*
X142903166Y-94202115D01*
X142793914Y-93997721D01*
X142516731Y-93886874D01*
X141471805Y-94931800D01*
X141112595Y-94931800D01*
X140067669Y-93886874D01*
X139790486Y-93997721D01*
X139637111Y-94308640D01*
X139547340Y-94643505D01*
X139524624Y-94989450D01*
X137972204Y-94989450D01*
X137979776Y-94874150D01*
X137934566Y-94530420D01*
X137823166Y-94202115D01*
X137713914Y-93997721D01*
X137436731Y-93886874D01*
X136391805Y-94931800D01*
X136032595Y-94931800D01*
X134987669Y-93886874D01*
X134710486Y-93997721D01*
X134557111Y-94308640D01*
X134467340Y-94643505D01*
X134444624Y-94989450D01*
X133355036Y-94989450D01*
X133397324Y-94959668D01*
X133415696Y-94948034D01*
X133432835Y-94934659D01*
X133450623Y-94922131D01*
X133467099Y-94907919D01*
X133619687Y-94788838D01*
X133637458Y-94776322D01*
X133653912Y-94762129D01*
X133671077Y-94748733D01*
X133686846Y-94733720D01*
X133833372Y-94607326D01*
X133850523Y-94593941D01*
X133866284Y-94578936D01*
X133882751Y-94564731D01*
X133897742Y-94548986D01*
X134030053Y-94423017D01*
X134038460Y-94416117D01*
X134061504Y-94393073D01*
X134085141Y-94370569D01*
X134092255Y-94362322D01*
X134722223Y-93732354D01*
X134784427Y-93673130D01*
X134841242Y-93624121D01*
X134900404Y-93577950D01*
X134961757Y-93534741D01*
X135025166Y-93494588D01*
X135090469Y-93457595D01*
X135157478Y-93423865D01*
X135226087Y-93393452D01*
X135296102Y-93366445D01*
X135367365Y-93342902D01*
X135439700Y-93322884D01*
X135512922Y-93306442D01*
X135537497Y-93302177D01*
X135482515Y-93320834D01*
X135278121Y-93430086D01*
X135167274Y-93707269D01*
X136212200Y-94752195D01*
X137257126Y-93707269D01*
X137146279Y-93430086D01*
X136835540Y-93276800D01*
X137347073Y-93276800D01*
X137462794Y-93449988D01*
X137694012Y-93681206D01*
X137965895Y-93862873D01*
X138267996Y-93988007D01*
X138588704Y-94051800D01*
X138915696Y-94051800D01*
X139236404Y-93988007D01*
X139538505Y-93862873D01*
X139771382Y-93707269D01*
X140247274Y-93707269D01*
X141292200Y-94752195D01*
X142337126Y-93707269D01*
X142226279Y-93430086D01*
X141915360Y-93276711D01*
X141580495Y-93186940D01*
X141234550Y-93164224D01*
X140890820Y-93209434D01*
X140562515Y-93320834D01*
X140358121Y-93430086D01*
X140247274Y-93707269D01*
X139771382Y-93707269D01*
X139810388Y-93681206D01*
X140041606Y-93449988D01*
X140223273Y-93178105D01*
X140348407Y-92876004D01*
X140412200Y-92555296D01*
X140412200Y-92228304D01*
X140348407Y-91907596D01*
X140223273Y-91605495D01*
X140041606Y-91333612D01*
X139810388Y-91102394D01*
X139771383Y-91076331D01*
X140247274Y-91076331D01*
X140358121Y-91353514D01*
X140669040Y-91506889D01*
X141003905Y-91596660D01*
X141349850Y-91619376D01*
X141693580Y-91574166D01*
X142021885Y-91462766D01*
X142226279Y-91353514D01*
X142337126Y-91076331D01*
X141292200Y-90031405D01*
X140247274Y-91076331D01*
X139771383Y-91076331D01*
X139538505Y-90920727D01*
X139236404Y-90795593D01*
X138915696Y-90731800D01*
X138588704Y-90731800D01*
X138267996Y-90795593D01*
X137965895Y-90920727D01*
X137694012Y-91102394D01*
X137462794Y-91333612D01*
X137347073Y-91506800D01*
X136812113Y-91506800D01*
X136941885Y-91462766D01*
X137146279Y-91353514D01*
X137257126Y-91076331D01*
X136212200Y-90031405D01*
X135167274Y-91076331D01*
X135278121Y-91353514D01*
X135589040Y-91506889D01*
X135611784Y-91512986D01*
X135605965Y-91513704D01*
X135531132Y-91519224D01*
X135509381Y-91519758D01*
X135487787Y-91522421D01*
X135466102Y-91524021D01*
X135444676Y-91527739D01*
X135370184Y-91536926D01*
X135348499Y-91538526D01*
X135327074Y-91542244D01*
X135305479Y-91544907D01*
X135284254Y-91549673D01*
X135210315Y-91562502D01*
X135188721Y-91565166D01*
X135167502Y-91569931D01*
X135146074Y-91573649D01*
X135125105Y-91579452D01*
X135051875Y-91595896D01*
X135030456Y-91599613D01*
X135009500Y-91605412D01*
X134988264Y-91610181D01*
X134967606Y-91617006D01*
X134895293Y-91637017D01*
X134874065Y-91641784D01*
X134853411Y-91648607D01*
X134832449Y-91654408D01*
X134812153Y-91662237D01*
X134740902Y-91685775D01*
X134719933Y-91691578D01*
X134699636Y-91699408D01*
X134678984Y-91706230D01*
X134659099Y-91715044D01*
X134589090Y-91742050D01*
X134568431Y-91748875D01*
X134548536Y-91757694D01*
X134528250Y-91765519D01*
X134508830Y-91775294D01*
X134440205Y-91805713D01*
X134419917Y-91813539D01*
X134400499Y-91823313D01*
X134380606Y-91832131D01*
X134361671Y-91842858D01*
X134294645Y-91876595D01*
X134274760Y-91885410D01*
X134255836Y-91896130D01*
X134236405Y-91905911D01*
X134218026Y-91917549D01*
X134152741Y-91954533D01*
X134133305Y-91964316D01*
X134114921Y-91975958D01*
X134096002Y-91986675D01*
X134078225Y-91999195D01*
X134014807Y-92039354D01*
X133995892Y-92050069D01*
X133978115Y-92062589D01*
X133959730Y-92074231D01*
X133942578Y-92087617D01*
X133881227Y-92130824D01*
X133862846Y-92142464D01*
X133845700Y-92155845D01*
X133827920Y-92168367D01*
X133811446Y-92182578D01*
X133752282Y-92228750D01*
X133734502Y-92241272D01*
X133718031Y-92255480D01*
X133700881Y-92268864D01*
X133685129Y-92283862D01*
X133628303Y-92332879D01*
X133611150Y-92346266D01*
X133595399Y-92361262D01*
X133578933Y-92375466D01*
X133563932Y-92391222D01*
X133517457Y-92435470D01*
X133509044Y-92442375D01*
X133485966Y-92465453D01*
X133462355Y-92487933D01*
X133455254Y-92496165D01*
X132825296Y-93126125D01*
X132677259Y-93267065D01*
X132530708Y-93393481D01*
X132378148Y-93512541D01*
X132219904Y-93623989D01*
X132056395Y-93727531D01*
X131887979Y-93822937D01*
X131715120Y-93909946D01*
X131538179Y-93988379D01*
X131357599Y-94058036D01*
X131173851Y-94118739D01*
X130987322Y-94170358D01*
X130798474Y-94212766D01*
X130607779Y-94245855D01*
X130415700Y-94269545D01*
X130222685Y-94283783D01*
X130018348Y-94288800D01*
X129407780Y-94288800D01*
X129408272Y-94283800D01*
X129408272Y-93523800D01*
X129401315Y-93453164D01*
X129408325Y-93451948D01*
X129429296Y-93446145D01*
X129502511Y-93429704D01*
X129523949Y-93425984D01*
X129544908Y-93420184D01*
X129566127Y-93415419D01*
X129586783Y-93408595D01*
X129659113Y-93388578D01*
X129680334Y-93383813D01*
X129700989Y-93376989D01*
X129721956Y-93371187D01*
X129742250Y-93363359D01*
X129813498Y-93339821D01*
X129834465Y-93334019D01*
X129854762Y-93326190D01*
X129875414Y-93319367D01*
X129895299Y-93310553D01*
X129965308Y-93283547D01*
X129985970Y-93276721D01*
X130005865Y-93267902D01*
X130026148Y-93260078D01*
X130045570Y-93250302D01*
X130114195Y-93219882D01*
X130134479Y-93212058D01*
X130153898Y-93202283D01*
X130173794Y-93193464D01*
X130192729Y-93182737D01*
X130259742Y-93149006D01*
X130279633Y-93140189D01*
X130298566Y-93129464D01*
X130317991Y-93119686D01*
X130336361Y-93108053D01*
X130401662Y-93071061D01*
X130421096Y-93061279D01*
X130439470Y-93049643D01*
X130458393Y-93038924D01*
X130476181Y-93026396D01*
X130539580Y-92986249D01*
X130558510Y-92975525D01*
X130576299Y-92962996D01*
X130594670Y-92951363D01*
X130611812Y-92937985D01*
X130673168Y-92894773D01*
X130691550Y-92883133D01*
X130708704Y-92869746D01*
X130726482Y-92857225D01*
X130742948Y-92843021D01*
X130802115Y-92796847D01*
X130819894Y-92784325D01*
X130836362Y-92770119D01*
X130853514Y-92756734D01*
X130869268Y-92741735D01*
X130926090Y-92692720D01*
X130943234Y-92679341D01*
X130958986Y-92664344D01*
X130975463Y-92650131D01*
X130990463Y-92634376D01*
X131036936Y-92590131D01*
X131045352Y-92583224D01*
X131068419Y-92560157D01*
X131092032Y-92537676D01*
X131099139Y-92529437D01*
X131670843Y-91957735D01*
X131679077Y-91950632D01*
X131701541Y-91927037D01*
X131724624Y-91903954D01*
X131731537Y-91895531D01*
X131775777Y-91849063D01*
X131791532Y-91834063D01*
X131805745Y-91817586D01*
X131820742Y-91801834D01*
X131834121Y-91784690D01*
X131883136Y-91727868D01*
X131898135Y-91712114D01*
X131911520Y-91694962D01*
X131925726Y-91678494D01*
X131938247Y-91660716D01*
X131984422Y-91601548D01*
X131998626Y-91585082D01*
X132011146Y-91567305D01*
X132024534Y-91550150D01*
X132036176Y-91531765D01*
X132079379Y-91470421D01*
X132092768Y-91453265D01*
X132104408Y-91434883D01*
X132116926Y-91417109D01*
X132127645Y-91398187D01*
X132167797Y-91334781D01*
X132180320Y-91316999D01*
X132191045Y-91298068D01*
X132202682Y-91279690D01*
X132212458Y-91260267D01*
X132249451Y-91194967D01*
X132261087Y-91176592D01*
X132270864Y-91157169D01*
X132281587Y-91138240D01*
X132290405Y-91118346D01*
X132324143Y-91051321D01*
X132334865Y-91032394D01*
X132343681Y-91012506D01*
X132353459Y-90993080D01*
X132361286Y-90972789D01*
X132391703Y-90904170D01*
X132401479Y-90884748D01*
X132409303Y-90864465D01*
X132418122Y-90844570D01*
X132424948Y-90823908D01*
X132451954Y-90753899D01*
X132460768Y-90734014D01*
X132467590Y-90713362D01*
X132475420Y-90693065D01*
X132481223Y-90672096D01*
X132504761Y-90600845D01*
X132512590Y-90580549D01*
X132518391Y-90559587D01*
X132525214Y-90538933D01*
X132529981Y-90517705D01*
X132549992Y-90445392D01*
X132556817Y-90424734D01*
X132561586Y-90403498D01*
X132567385Y-90382542D01*
X132571102Y-90361123D01*
X132587546Y-90287895D01*
X132593349Y-90266925D01*
X132597068Y-90245492D01*
X132601832Y-90224277D01*
X132604495Y-90202688D01*
X132617326Y-90128740D01*
X132622091Y-90107520D01*
X132624754Y-90085932D01*
X132628472Y-90064502D01*
X132630072Y-90042812D01*
X132639259Y-89968323D01*
X132642977Y-89946897D01*
X132644577Y-89925212D01*
X132646520Y-89909450D01*
X134444624Y-89909450D01*
X134489834Y-90253180D01*
X134601234Y-90581485D01*
X134710486Y-90785879D01*
X134987669Y-90896726D01*
X136032595Y-89851800D01*
X136391805Y-89851800D01*
X137436731Y-90896726D01*
X137713914Y-90785879D01*
X137867289Y-90474960D01*
X137957060Y-90140095D01*
X137972204Y-89909450D01*
X139524624Y-89909450D01*
X139569834Y-90253180D01*
X139681234Y-90581485D01*
X139790486Y-90785879D01*
X140067669Y-90896726D01*
X141112595Y-89851800D01*
X141471805Y-89851800D01*
X142516731Y-90896726D01*
X142793914Y-90785879D01*
X142947289Y-90474960D01*
X143037060Y-90140095D01*
X143059776Y-89794150D01*
X143014566Y-89450420D01*
X142903166Y-89122115D01*
X142793914Y-88917721D01*
X142516731Y-88806874D01*
X141471805Y-89851800D01*
X141112595Y-89851800D01*
X140067669Y-88806874D01*
X139790486Y-88917721D01*
X139637111Y-89228640D01*
X139547340Y-89563505D01*
X139524624Y-89909450D01*
X137972204Y-89909450D01*
X137979776Y-89794150D01*
X137934566Y-89450420D01*
X137823166Y-89122115D01*
X137713914Y-88917721D01*
X137436731Y-88806874D01*
X136391805Y-89851800D01*
X136032595Y-89851800D01*
X134987669Y-88806874D01*
X134710486Y-88917721D01*
X134557111Y-89228640D01*
X134467340Y-89563505D01*
X134444624Y-89909450D01*
X132646520Y-89909450D01*
X132647240Y-89903618D01*
X132647774Y-89881867D01*
X132653295Y-89807028D01*
X132655956Y-89785449D01*
X132656490Y-89763709D01*
X132658091Y-89742004D01*
X132657557Y-89720254D01*
X132659132Y-89656119D01*
X132660200Y-89645277D01*
X132660200Y-89612638D01*
X132661000Y-89580063D01*
X132660200Y-89569216D01*
X132660200Y-88627269D01*
X135167274Y-88627269D01*
X136212200Y-89672195D01*
X137257126Y-88627269D01*
X140247274Y-88627269D01*
X141292200Y-89672195D01*
X142337126Y-88627269D01*
X142226279Y-88350086D01*
X141915360Y-88196711D01*
X141580495Y-88106940D01*
X141234550Y-88084224D01*
X140890820Y-88129434D01*
X140562515Y-88240834D01*
X140358121Y-88350086D01*
X140247274Y-88627269D01*
X137257126Y-88627269D01*
X137146279Y-88350086D01*
X136835360Y-88196711D01*
X136500495Y-88106940D01*
X136154550Y-88084224D01*
X135810820Y-88129434D01*
X135482515Y-88240834D01*
X135278121Y-88350086D01*
X135167274Y-88627269D01*
X132660200Y-88627269D01*
X132660200Y-86873331D01*
X133270274Y-86873331D01*
X133381121Y-87150514D01*
X133692040Y-87303889D01*
X134026905Y-87393660D01*
X134372850Y-87416376D01*
X134716580Y-87371166D01*
X135044885Y-87259766D01*
X135249279Y-87150514D01*
X135360126Y-86873331D01*
X134315200Y-85828405D01*
X133270274Y-86873331D01*
X132660200Y-86873331D01*
X132660200Y-86248713D01*
X132704234Y-86378485D01*
X132813486Y-86582879D01*
X133090669Y-86693726D01*
X134135595Y-85648800D01*
X134494805Y-85648800D01*
X135539731Y-86693726D01*
X135816914Y-86582879D01*
X135970289Y-86271960D01*
X136060060Y-85937095D01*
X136082776Y-85591150D01*
X136037566Y-85247420D01*
X135926166Y-84919115D01*
X135816914Y-84714721D01*
X135539731Y-84603874D01*
X134494805Y-85648800D01*
X134135595Y-85648800D01*
X133090669Y-84603874D01*
X132813486Y-84714721D01*
X132660200Y-85025460D01*
X132660200Y-84513927D01*
X132794382Y-84424269D01*
X133270274Y-84424269D01*
X134315200Y-85469195D01*
X135360126Y-84424269D01*
X135249279Y-84147086D01*
X134938360Y-83993711D01*
X134603495Y-83903940D01*
X134257550Y-83881224D01*
X133913820Y-83926434D01*
X133585515Y-84037834D01*
X133381121Y-84147086D01*
X133270274Y-84424269D01*
X132794382Y-84424269D01*
X132833388Y-84398206D01*
X133064606Y-84166988D01*
X133246273Y-83895105D01*
X133371407Y-83593004D01*
X133435200Y-83272296D01*
X133435200Y-82945304D01*
X133371407Y-82624596D01*
X133246273Y-82322495D01*
X133064606Y-82050612D01*
X132833388Y-81819394D01*
X132794383Y-81793331D01*
X133270274Y-81793331D01*
X133381121Y-82070514D01*
X133692040Y-82223889D01*
X134026905Y-82313660D01*
X134372850Y-82336376D01*
X134716580Y-82291166D01*
X135044885Y-82179766D01*
X135249279Y-82070514D01*
X135360126Y-81793331D01*
X134315200Y-80748405D01*
X133270274Y-81793331D01*
X132794383Y-81793331D01*
X132561505Y-81637727D01*
X132259404Y-81512593D01*
X131938696Y-81448800D01*
X131611704Y-81448800D01*
X131290996Y-81512593D01*
X130988895Y-81637727D01*
X130717012Y-81819394D01*
X130485794Y-82050612D01*
X130304127Y-82322495D01*
X130178993Y-82624596D01*
X130115200Y-82945304D01*
X130115200Y-83272296D01*
X130178993Y-83593004D01*
X130304127Y-83895105D01*
X130485794Y-84166988D01*
X130717012Y-84398206D01*
X130890201Y-84513927D01*
X130890201Y-85048889D01*
X130846166Y-84919115D01*
X130736914Y-84714721D01*
X130459731Y-84603874D01*
X129414805Y-85648800D01*
X130459731Y-86693726D01*
X130736914Y-86582879D01*
X130890201Y-86272139D01*
X130890200Y-89590969D01*
X130888092Y-89676818D01*
X130882571Y-89751662D01*
X130873385Y-89826142D01*
X130860556Y-89900079D01*
X130844114Y-89973298D01*
X130824096Y-90045633D01*
X130800553Y-90116896D01*
X130773548Y-90186905D01*
X130743134Y-90255517D01*
X130709400Y-90322535D01*
X130672408Y-90387833D01*
X130632260Y-90451236D01*
X130589049Y-90512589D01*
X130542874Y-90571757D01*
X130493858Y-90628580D01*
X130434648Y-90690772D01*
X129832193Y-91293227D01*
X129769980Y-91352457D01*
X129713157Y-91401473D01*
X129653983Y-91447653D01*
X129592639Y-91490857D01*
X129529240Y-91531005D01*
X129463937Y-91567997D01*
X129396909Y-91601737D01*
X129328305Y-91632147D01*
X129258292Y-91659154D01*
X129187024Y-91682698D01*
X129114694Y-91702714D01*
X129094665Y-91707212D01*
X129014380Y-91664298D01*
X128894682Y-91627988D01*
X128770200Y-91615728D01*
X127070200Y-91615728D01*
X126945718Y-91627988D01*
X126826020Y-91664298D01*
X126715706Y-91723263D01*
X126619015Y-91802615D01*
X126539663Y-91899306D01*
X126490067Y-91992091D01*
X126361000Y-91863024D01*
X126361000Y-90390072D01*
X126724000Y-90390072D01*
X126897254Y-90373008D01*
X127063850Y-90322472D01*
X127217386Y-90240405D01*
X127351962Y-90129962D01*
X127462405Y-89995386D01*
X127544472Y-89841850D01*
X127595008Y-89675254D01*
X127612072Y-89502000D01*
X127612072Y-88552000D01*
X127595008Y-88378746D01*
X127544472Y-88212150D01*
X127462405Y-88058614D01*
X127351962Y-87924038D01*
X127217386Y-87813595D01*
X127063850Y-87731528D01*
X126897254Y-87680992D01*
X126724000Y-87663928D01*
X126049000Y-87663928D01*
X125875746Y-87680992D01*
X125709150Y-87731528D01*
X125555614Y-87813595D01*
X125421038Y-87924038D01*
X125415658Y-87930594D01*
X125350185Y-87850815D01*
X125253494Y-87771463D01*
X125143180Y-87712498D01*
X125023482Y-87676188D01*
X124899000Y-87663928D01*
X124597250Y-87667000D01*
X124438500Y-87825750D01*
X124438500Y-88900000D01*
X124458500Y-88900000D01*
X124458500Y-89154000D01*
X124438500Y-89154000D01*
X124438500Y-90228250D01*
X124591001Y-90380751D01*
X124591000Y-92186133D01*
X124586719Y-92229602D01*
X124591000Y-92273071D01*
X124591000Y-92273078D01*
X124600212Y-92366609D01*
X124603805Y-92403092D01*
X124614485Y-92438297D01*
X124654411Y-92569914D01*
X124736589Y-92723660D01*
X124847183Y-92858419D01*
X124880956Y-92886136D01*
X126462366Y-94467547D01*
X126480698Y-94527980D01*
X126486482Y-94538800D01*
X126480698Y-94549620D01*
X126444388Y-94669318D01*
X126432128Y-94793800D01*
X126432128Y-95553800D01*
X126444388Y-95678282D01*
X126480698Y-95797980D01*
X126486482Y-95808800D01*
X126480698Y-95819620D01*
X126444388Y-95939318D01*
X126432128Y-96063800D01*
X126432128Y-96823800D01*
X126444388Y-96948282D01*
X126480698Y-97067980D01*
X126486482Y-97078800D01*
X126480698Y-97089620D01*
X126444388Y-97209318D01*
X126432128Y-97333800D01*
X126432128Y-98093800D01*
X126444388Y-98218282D01*
X126480698Y-98337980D01*
X126486482Y-98348800D01*
X126480698Y-98359620D01*
X126444388Y-98479318D01*
X126432128Y-98603800D01*
X126432128Y-99363800D01*
X126433524Y-99377979D01*
X126396710Y-99381605D01*
X126229887Y-99432211D01*
X126099933Y-99501672D01*
X126076141Y-99514389D01*
X125975153Y-99597268D01*
X125975151Y-99597270D01*
X125941383Y-99624983D01*
X125913670Y-99658751D01*
X125029456Y-100542966D01*
X124995683Y-100570683D01*
X124885089Y-100705442D01*
X124802911Y-100859188D01*
X124773636Y-100955694D01*
X124752305Y-101026010D01*
X124750764Y-101041654D01*
X124739500Y-101156024D01*
X124739500Y-101156031D01*
X124735219Y-101199500D01*
X124739500Y-101242969D01*
X124739501Y-103987004D01*
X124659038Y-104053038D01*
X124653658Y-104059594D01*
X124588185Y-103979815D01*
X124491494Y-103900463D01*
X124381180Y-103841498D01*
X124261482Y-103805188D01*
X124137000Y-103792928D01*
X123835250Y-103796000D01*
X123676500Y-103954750D01*
X123422500Y-103954750D01*
X123263750Y-103796000D01*
X122962000Y-103792928D01*
X122837518Y-103805188D01*
X122717820Y-103841498D01*
X122607506Y-103900463D01*
X122510815Y-103979815D01*
X122431463Y-104076506D01*
X122372498Y-104186820D01*
X122336188Y-104306518D01*
X122323928Y-104431000D01*
X119271579Y-104431000D01*
X117365352Y-102524774D01*
X117399732Y-102494908D01*
X117439059Y-102444150D01*
X117479777Y-102394535D01*
X117502493Y-102352037D01*
X117506892Y-102345036D01*
X117535329Y-102306126D01*
X117556880Y-102259722D01*
X117611850Y-102273083D01*
X117649941Y-102274687D01*
X117699981Y-102279615D01*
X117731803Y-102283201D01*
X117737146Y-102283276D01*
X117742467Y-102283800D01*
X117760595Y-102283800D01*
X117819015Y-102354985D01*
X117915706Y-102434337D01*
X118026020Y-102493302D01*
X118145718Y-102529612D01*
X118270200Y-102541872D01*
X119970200Y-102541872D01*
X120094682Y-102529612D01*
X120214380Y-102493302D01*
X120324694Y-102434337D01*
X120421385Y-102354985D01*
X120500737Y-102258294D01*
X120559702Y-102147980D01*
X120596012Y-102028282D01*
X120608272Y-101903800D01*
X120608272Y-101143800D01*
X120606876Y-101129621D01*
X120643690Y-101125995D01*
X120810513Y-101075389D01*
X120964259Y-100993211D01*
X121099017Y-100882617D01*
X121126734Y-100848844D01*
X122261050Y-99714529D01*
X122294817Y-99686817D01*
X122331418Y-99642220D01*
X122405411Y-99552059D01*
X122487589Y-99398314D01*
X122538195Y-99231490D01*
X122545522Y-99157095D01*
X122551000Y-99101477D01*
X122551000Y-99101469D01*
X122555281Y-99058000D01*
X122551000Y-99014531D01*
X122551000Y-89752000D01*
X123085928Y-89752000D01*
X123098188Y-89876482D01*
X123134498Y-89996180D01*
X123193463Y-90106494D01*
X123272815Y-90203185D01*
X123369506Y-90282537D01*
X123479820Y-90341502D01*
X123599518Y-90377812D01*
X123724000Y-90390072D01*
X124025750Y-90387000D01*
X124184500Y-90228250D01*
X124184500Y-89154000D01*
X123247750Y-89154000D01*
X123089000Y-89312750D01*
X123085928Y-89752000D01*
X122551000Y-89752000D01*
X122551000Y-88302000D01*
X123085928Y-88302000D01*
X123089000Y-88741250D01*
X123247750Y-88900000D01*
X124184500Y-88900000D01*
X124184500Y-87825750D01*
X124025750Y-87667000D01*
X123724000Y-87663928D01*
X123599518Y-87676188D01*
X123479820Y-87712498D01*
X123369506Y-87771463D01*
X123272815Y-87850815D01*
X123193463Y-87947506D01*
X123134498Y-88057820D01*
X123098188Y-88177518D01*
X123085928Y-88302000D01*
X122551000Y-88302000D01*
X122551000Y-88063464D01*
X122555281Y-88019998D01*
X122551000Y-87976532D01*
X122551000Y-87976522D01*
X122538195Y-87846509D01*
X122487589Y-87679686D01*
X122405411Y-87525940D01*
X122294817Y-87391182D01*
X122261049Y-87363469D01*
X121770911Y-86873331D01*
X128190274Y-86873331D01*
X128301121Y-87150514D01*
X128612040Y-87303889D01*
X128946905Y-87393660D01*
X129292850Y-87416376D01*
X129636580Y-87371166D01*
X129964885Y-87259766D01*
X130169279Y-87150514D01*
X130280126Y-86873331D01*
X129235200Y-85828405D01*
X128190274Y-86873331D01*
X121770911Y-86873331D01*
X121480072Y-86582493D01*
X121480072Y-86409506D01*
X121667522Y-86222056D01*
X121818061Y-86252000D01*
X122021939Y-86252000D01*
X122221898Y-86212226D01*
X122410256Y-86134205D01*
X122579774Y-86020937D01*
X122723937Y-85876774D01*
X122837205Y-85707256D01*
X122837538Y-85706450D01*
X127467624Y-85706450D01*
X127512834Y-86050180D01*
X127624234Y-86378485D01*
X127733486Y-86582879D01*
X128010669Y-86693726D01*
X129055595Y-85648800D01*
X128010669Y-84603874D01*
X127733486Y-84714721D01*
X127580111Y-85025640D01*
X127490340Y-85360505D01*
X127467624Y-85706450D01*
X122837538Y-85706450D01*
X122915226Y-85518898D01*
X122955000Y-85318939D01*
X122955000Y-85115061D01*
X122915226Y-84915102D01*
X122837205Y-84726744D01*
X122723937Y-84557226D01*
X122590980Y-84424269D01*
X128190274Y-84424269D01*
X129235200Y-85469195D01*
X130280126Y-84424269D01*
X130169279Y-84147086D01*
X129858360Y-83993711D01*
X129523495Y-83903940D01*
X129177550Y-83881224D01*
X128833820Y-83926434D01*
X128505515Y-84037834D01*
X128301121Y-84147086D01*
X128190274Y-84424269D01*
X122590980Y-84424269D01*
X122579774Y-84413063D01*
X122410256Y-84299795D01*
X122221898Y-84221774D01*
X122021939Y-84182000D01*
X121818061Y-84182000D01*
X121618102Y-84221774D01*
X121480072Y-84278948D01*
X121480072Y-84145998D01*
X121463008Y-83972744D01*
X121412472Y-83806148D01*
X121330405Y-83652612D01*
X121219962Y-83518037D01*
X121085387Y-83407594D01*
X120931851Y-83325527D01*
X120765255Y-83274991D01*
X120592001Y-83257927D01*
X120407549Y-83257927D01*
X120444472Y-83188850D01*
X120495008Y-83022254D01*
X120512072Y-82849000D01*
X120512072Y-81924000D01*
X120499203Y-81793331D01*
X128190274Y-81793331D01*
X128301121Y-82070514D01*
X128612040Y-82223889D01*
X128946905Y-82313660D01*
X129292850Y-82336376D01*
X129636580Y-82291166D01*
X129964885Y-82179766D01*
X130169279Y-82070514D01*
X130280126Y-81793331D01*
X129235200Y-80748405D01*
X128190274Y-81793331D01*
X120499203Y-81793331D01*
X120495008Y-81750746D01*
X120444472Y-81584150D01*
X120362405Y-81430614D01*
X120251962Y-81296038D01*
X120117386Y-81185595D01*
X119963850Y-81103528D01*
X119797254Y-81052992D01*
X119624000Y-81035928D01*
X118374000Y-81035928D01*
X118200746Y-81052992D01*
X118034150Y-81103528D01*
X117880614Y-81185595D01*
X117746038Y-81296038D01*
X117635595Y-81430614D01*
X117553528Y-81584150D01*
X117502992Y-81750746D01*
X117485928Y-81924000D01*
X117485928Y-82849000D01*
X117502992Y-83022254D01*
X117553528Y-83188850D01*
X117590451Y-83257927D01*
X117405999Y-83257927D01*
X117232745Y-83274991D01*
X117066149Y-83325527D01*
X116912613Y-83407594D01*
X116778038Y-83518037D01*
X116667595Y-83652612D01*
X116585528Y-83806148D01*
X116534992Y-83972744D01*
X116517928Y-84145998D01*
X116517928Y-84846000D01*
X116534992Y-85019254D01*
X116585528Y-85185850D01*
X116667595Y-85339386D01*
X116778038Y-85473961D01*
X116804891Y-85495999D01*
X116778038Y-85518037D01*
X116701746Y-85610999D01*
X110484578Y-85610999D01*
X107529650Y-82656072D01*
X107672000Y-82656072D01*
X107796482Y-82643812D01*
X107916180Y-82607502D01*
X108026494Y-82548537D01*
X108123185Y-82469185D01*
X108202537Y-82372494D01*
X108261502Y-82262180D01*
X108297812Y-82142482D01*
X108310072Y-82018000D01*
X108310072Y-81753919D01*
X108393637Y-81878983D01*
X108691017Y-82176363D01*
X109040698Y-82410012D01*
X109429244Y-82570953D01*
X109841721Y-82653000D01*
X110262279Y-82653000D01*
X110674756Y-82570953D01*
X111063302Y-82410012D01*
X111412983Y-82176363D01*
X111710363Y-81878983D01*
X111944012Y-81529302D01*
X112104953Y-81140756D01*
X112187000Y-80728279D01*
X112187000Y-80307721D01*
X112150456Y-80124000D01*
X117485928Y-80124000D01*
X117498188Y-80248482D01*
X117534498Y-80368180D01*
X117593463Y-80478494D01*
X117672815Y-80575185D01*
X117769506Y-80654537D01*
X117879820Y-80713502D01*
X117999518Y-80749812D01*
X118124000Y-80762072D01*
X118713250Y-80759000D01*
X118872000Y-80600250D01*
X118872000Y-79538500D01*
X119126000Y-79538500D01*
X119126000Y-80600250D01*
X119284750Y-80759000D01*
X119874000Y-80762072D01*
X119998482Y-80749812D01*
X120118180Y-80713502D01*
X120228494Y-80654537D01*
X120262718Y-80626450D01*
X127467624Y-80626450D01*
X127512834Y-80970180D01*
X127624234Y-81298485D01*
X127733486Y-81502879D01*
X128010669Y-81613726D01*
X129055595Y-80568800D01*
X129414805Y-80568800D01*
X130459731Y-81613726D01*
X130736914Y-81502879D01*
X130890289Y-81191960D01*
X130980060Y-80857095D01*
X130995204Y-80626450D01*
X132547624Y-80626450D01*
X132592834Y-80970180D01*
X132704234Y-81298485D01*
X132813486Y-81502879D01*
X133090669Y-81613726D01*
X134135595Y-80568800D01*
X134494805Y-80568800D01*
X135539731Y-81613726D01*
X135816914Y-81502879D01*
X135970289Y-81191960D01*
X136060060Y-80857095D01*
X136082776Y-80511150D01*
X136037566Y-80167420D01*
X135926166Y-79839115D01*
X135816914Y-79634721D01*
X135539731Y-79523874D01*
X134494805Y-80568800D01*
X134135595Y-80568800D01*
X133090669Y-79523874D01*
X132813486Y-79634721D01*
X132660111Y-79945640D01*
X132570340Y-80280505D01*
X132547624Y-80626450D01*
X130995204Y-80626450D01*
X131002776Y-80511150D01*
X130957566Y-80167420D01*
X130846166Y-79839115D01*
X130736914Y-79634721D01*
X130459731Y-79523874D01*
X129414805Y-80568800D01*
X129055595Y-80568800D01*
X128010669Y-79523874D01*
X127733486Y-79634721D01*
X127580111Y-79945640D01*
X127490340Y-80280505D01*
X127467624Y-80626450D01*
X120262718Y-80626450D01*
X120325185Y-80575185D01*
X120404537Y-80478494D01*
X120463502Y-80368180D01*
X120499812Y-80248482D01*
X120512072Y-80124000D01*
X120509000Y-79697250D01*
X120350250Y-79538500D01*
X119126000Y-79538500D01*
X118872000Y-79538500D01*
X117647750Y-79538500D01*
X117489000Y-79697250D01*
X117485928Y-80124000D01*
X112150456Y-80124000D01*
X112104953Y-79895244D01*
X111944012Y-79506698D01*
X111835481Y-79344269D01*
X128190274Y-79344269D01*
X129235200Y-80389195D01*
X130280126Y-79344269D01*
X133270274Y-79344269D01*
X134315200Y-80389195D01*
X135360126Y-79344269D01*
X135249279Y-79067086D01*
X134938360Y-78913711D01*
X134603495Y-78823940D01*
X134257550Y-78801224D01*
X133913820Y-78846434D01*
X133585515Y-78957834D01*
X133381121Y-79067086D01*
X133270274Y-79344269D01*
X130280126Y-79344269D01*
X130169279Y-79067086D01*
X129858360Y-78913711D01*
X129523495Y-78823940D01*
X129177550Y-78801224D01*
X128833820Y-78846434D01*
X128505515Y-78957834D01*
X128301121Y-79067086D01*
X128190274Y-79344269D01*
X111835481Y-79344269D01*
X111710363Y-79157017D01*
X111412983Y-78859637D01*
X111172573Y-78699000D01*
X117485928Y-78699000D01*
X117489000Y-79125750D01*
X117647750Y-79284500D01*
X118872000Y-79284500D01*
X118872000Y-78222750D01*
X119126000Y-78222750D01*
X119126000Y-79284500D01*
X120350250Y-79284500D01*
X120509000Y-79125750D01*
X120512072Y-78699000D01*
X120499812Y-78574518D01*
X120463502Y-78454820D01*
X120404537Y-78344506D01*
X120325185Y-78247815D01*
X120228494Y-78168463D01*
X120118180Y-78109498D01*
X119998482Y-78073188D01*
X119874000Y-78060928D01*
X119284750Y-78064000D01*
X119126000Y-78222750D01*
X118872000Y-78222750D01*
X118713250Y-78064000D01*
X118124000Y-78060928D01*
X117999518Y-78073188D01*
X117879820Y-78109498D01*
X117769506Y-78168463D01*
X117672815Y-78247815D01*
X117593463Y-78344506D01*
X117534498Y-78454820D01*
X117498188Y-78574518D01*
X117485928Y-78699000D01*
X111172573Y-78699000D01*
X111063302Y-78625988D01*
X110674756Y-78465047D01*
X110262279Y-78383000D01*
X109841721Y-78383000D01*
X109429244Y-78465047D01*
X109040698Y-78625988D01*
X108691017Y-78859637D01*
X108393637Y-79157017D01*
X108310072Y-79282081D01*
X108310072Y-79018000D01*
X108297812Y-78893518D01*
X108261502Y-78773820D01*
X108202537Y-78663506D01*
X108123185Y-78566815D01*
X108026494Y-78487463D01*
X107916180Y-78428498D01*
X107796482Y-78392188D01*
X107672000Y-78379928D01*
X104672000Y-78379928D01*
X104547518Y-78392188D01*
X104427820Y-78428498D01*
X104317506Y-78487463D01*
X104220815Y-78566815D01*
X104141463Y-78663506D01*
X104082498Y-78773820D01*
X104046188Y-78893518D01*
X104033928Y-79018000D01*
X95910000Y-79018000D01*
X95910000Y-77389000D01*
X144590000Y-77389000D01*
X144590001Y-117069000D01*
G04 #@! TA.AperFunction,Conductor*
D23*
G36*
X144590001Y-117069000D02*
G01*
X95910000Y-117069000D01*
X95910000Y-115676100D01*
X116850928Y-115676100D01*
X116863188Y-115800582D01*
X116899498Y-115920280D01*
X116958463Y-116030594D01*
X117037815Y-116127285D01*
X117134506Y-116206637D01*
X117244820Y-116265602D01*
X117364518Y-116301912D01*
X117489000Y-116314172D01*
X118078250Y-116311100D01*
X118237000Y-116152350D01*
X118237000Y-115090600D01*
X118491000Y-115090600D01*
X118491000Y-116152350D01*
X118649750Y-116311100D01*
X119239000Y-116314172D01*
X119363482Y-116301912D01*
X119483180Y-116265602D01*
X119593494Y-116206637D01*
X119690185Y-116127285D01*
X119769537Y-116030594D01*
X119828502Y-115920280D01*
X119864812Y-115800582D01*
X119877072Y-115676100D01*
X119874000Y-115249350D01*
X119715250Y-115090600D01*
X118491000Y-115090600D01*
X118237000Y-115090600D01*
X117012750Y-115090600D01*
X116854000Y-115249350D01*
X116850928Y-115676100D01*
X95910000Y-115676100D01*
X95910000Y-114251100D01*
X116850928Y-114251100D01*
X116854000Y-114677850D01*
X117012750Y-114836600D01*
X118237000Y-114836600D01*
X118237000Y-113774850D01*
X118491000Y-113774850D01*
X118491000Y-114836600D01*
X119715250Y-114836600D01*
X119874000Y-114677850D01*
X119877072Y-114251100D01*
X119864812Y-114126618D01*
X119828502Y-114006920D01*
X119805203Y-113963331D01*
X128190274Y-113963331D01*
X128301121Y-114240514D01*
X128612040Y-114393889D01*
X128946905Y-114483660D01*
X129292850Y-114506376D01*
X129636580Y-114461166D01*
X129964885Y-114349766D01*
X130169279Y-114240514D01*
X130280126Y-113963331D01*
X133270274Y-113963331D01*
X133381121Y-114240514D01*
X133692040Y-114393889D01*
X134026905Y-114483660D01*
X134372850Y-114506376D01*
X134716580Y-114461166D01*
X135044885Y-114349766D01*
X135249279Y-114240514D01*
X135360126Y-113963331D01*
X134315200Y-112918405D01*
X133270274Y-113963331D01*
X130280126Y-113963331D01*
X129235200Y-112918405D01*
X128190274Y-113963331D01*
X119805203Y-113963331D01*
X119769537Y-113896606D01*
X119690185Y-113799915D01*
X119593494Y-113720563D01*
X119483180Y-113661598D01*
X119363482Y-113625288D01*
X119239000Y-113613028D01*
X118649750Y-113616100D01*
X118491000Y-113774850D01*
X118237000Y-113774850D01*
X118078250Y-113616100D01*
X117489000Y-113613028D01*
X117364518Y-113625288D01*
X117244820Y-113661598D01*
X117134506Y-113720563D01*
X117037815Y-113799915D01*
X116958463Y-113896606D01*
X116899498Y-114006920D01*
X116863188Y-114126618D01*
X116850928Y-114251100D01*
X95910000Y-114251100D01*
X95910000Y-107813653D01*
X99142952Y-107813653D01*
X99298962Y-108129214D01*
X99673745Y-108320020D01*
X100078551Y-108434044D01*
X100497824Y-108466902D01*
X100915451Y-108417334D01*
X101315383Y-108287243D01*
X101611038Y-108129214D01*
X101767048Y-107813653D01*
X100455000Y-106501605D01*
X99142952Y-107813653D01*
X95910000Y-107813653D01*
X95910000Y-106364824D01*
X98310098Y-106364824D01*
X98359666Y-106782451D01*
X98489757Y-107182383D01*
X98647786Y-107478038D01*
X98963347Y-107634048D01*
X100275395Y-106322000D01*
X98963347Y-105009952D01*
X98647786Y-105165962D01*
X98456980Y-105540745D01*
X98342956Y-105945551D01*
X98310098Y-106364824D01*
X95910000Y-106364824D01*
X95910000Y-104830347D01*
X99142952Y-104830347D01*
X100455000Y-106142395D01*
X100469143Y-106128253D01*
X100648748Y-106307858D01*
X100634605Y-106322000D01*
X101946653Y-107634048D01*
X102262214Y-107478038D01*
X102453020Y-107103255D01*
X102567044Y-106698449D01*
X102595414Y-106336443D01*
X102845782Y-106440149D01*
X103282409Y-106527000D01*
X103727591Y-106527000D01*
X104164218Y-106440149D01*
X104575511Y-106269786D01*
X104945666Y-106022456D01*
X105260456Y-105707666D01*
X105507786Y-105337511D01*
X105678149Y-104926218D01*
X105765000Y-104489591D01*
X105765000Y-104044409D01*
X105678149Y-103607782D01*
X105507786Y-103196489D01*
X105260456Y-102826334D01*
X104945666Y-102511544D01*
X104575511Y-102264214D01*
X104164218Y-102093851D01*
X103727591Y-102007000D01*
X103282409Y-102007000D01*
X102845782Y-102093851D01*
X102434489Y-102264214D01*
X102064334Y-102511544D01*
X101749544Y-102826334D01*
X101502214Y-103196489D01*
X101331851Y-103607782D01*
X101245000Y-104044409D01*
X101245000Y-104328432D01*
X101236255Y-104323980D01*
X100831449Y-104209956D01*
X100412176Y-104177098D01*
X99994549Y-104226666D01*
X99594617Y-104356757D01*
X99298962Y-104514786D01*
X99142952Y-104830347D01*
X95910000Y-104830347D01*
X95910000Y-92273653D01*
X99142952Y-92273653D01*
X99298962Y-92589214D01*
X99673745Y-92780020D01*
X100078551Y-92894044D01*
X100497824Y-92926902D01*
X100915451Y-92877334D01*
X101245000Y-92770137D01*
X101245000Y-93059591D01*
X101331851Y-93496218D01*
X101502214Y-93907511D01*
X101749544Y-94277666D01*
X102064334Y-94592456D01*
X102434489Y-94839786D01*
X102845782Y-95010149D01*
X103282409Y-95097000D01*
X103727591Y-95097000D01*
X104164218Y-95010149D01*
X104575511Y-94839786D01*
X104945666Y-94592456D01*
X105260456Y-94277666D01*
X105507786Y-93907511D01*
X105678149Y-93496218D01*
X105765000Y-93059591D01*
X105765000Y-92614409D01*
X105678149Y-92177782D01*
X105507786Y-91766489D01*
X105260456Y-91396334D01*
X104945666Y-91081544D01*
X104575511Y-90834214D01*
X104164218Y-90663851D01*
X103727591Y-90577000D01*
X103282409Y-90577000D01*
X102845782Y-90663851D01*
X102597754Y-90766588D01*
X102599902Y-90739176D01*
X102550334Y-90321549D01*
X102420243Y-89921617D01*
X102262214Y-89625962D01*
X101946653Y-89469952D01*
X100634605Y-90782000D01*
X100648748Y-90796143D01*
X100469143Y-90975748D01*
X100455000Y-90961605D01*
X99142952Y-92273653D01*
X95910000Y-92273653D01*
X95910000Y-90824824D01*
X98310098Y-90824824D01*
X98359666Y-91242451D01*
X98489757Y-91642383D01*
X98647786Y-91938038D01*
X98963347Y-92094048D01*
X100275395Y-90782000D01*
X98963347Y-89469952D01*
X98647786Y-89625962D01*
X98456980Y-90000745D01*
X98342956Y-90405551D01*
X98310098Y-90824824D01*
X95910000Y-90824824D01*
X95910000Y-89290347D01*
X99142952Y-89290347D01*
X100455000Y-90602395D01*
X101767048Y-89290347D01*
X101611038Y-88974786D01*
X101236255Y-88783980D01*
X100831449Y-88669956D01*
X100412176Y-88637098D01*
X99994549Y-88686666D01*
X99594617Y-88816757D01*
X99298962Y-88974786D01*
X99142952Y-89290347D01*
X95910000Y-89290347D01*
X95910000Y-79018000D01*
X104033928Y-79018000D01*
X104033928Y-82018000D01*
X104046188Y-82142482D01*
X104082498Y-82262180D01*
X104141463Y-82372494D01*
X104220815Y-82469185D01*
X104317506Y-82548537D01*
X104427820Y-82607502D01*
X104547518Y-82643812D01*
X104672000Y-82656072D01*
X105293165Y-82656072D01*
X105299805Y-82723489D01*
X105350411Y-82890312D01*
X105432589Y-83044058D01*
X105543183Y-83178817D01*
X105576956Y-83206534D01*
X109461469Y-87091048D01*
X109489182Y-87124816D01*
X109522950Y-87152529D01*
X109522952Y-87152531D01*
X109563551Y-87185850D01*
X109623940Y-87235410D01*
X109777686Y-87317588D01*
X109944509Y-87368194D01*
X110074522Y-87380999D01*
X110074532Y-87380999D01*
X110117998Y-87385280D01*
X110161464Y-87380999D01*
X116701746Y-87380999D01*
X116778038Y-87473961D01*
X116912613Y-87584404D01*
X116971000Y-87615613D01*
X116971000Y-87840530D01*
X116966719Y-87884000D01*
X116971000Y-87927469D01*
X116971000Y-87927476D01*
X116983805Y-88057489D01*
X117034411Y-88224312D01*
X117116589Y-88378058D01*
X117227183Y-88512817D01*
X117260956Y-88540534D01*
X120019001Y-91298580D01*
X120019001Y-91620534D01*
X119970200Y-91615728D01*
X118270200Y-91615728D01*
X118145718Y-91627988D01*
X118026020Y-91664298D01*
X117915706Y-91723263D01*
X117819015Y-91802615D01*
X117739663Y-91899306D01*
X117685872Y-91999940D01*
X117648880Y-92019713D01*
X117536962Y-92111562D01*
X117513946Y-92139607D01*
X116281554Y-93372000D01*
X111243072Y-93372000D01*
X111243072Y-93357000D01*
X111230812Y-93232518D01*
X111194502Y-93112820D01*
X111135537Y-93002506D01*
X111056185Y-92905815D01*
X110959494Y-92826463D01*
X110849180Y-92767498D01*
X110729482Y-92731188D01*
X110605000Y-92718928D01*
X109105000Y-92718928D01*
X108980518Y-92731188D01*
X108860820Y-92767498D01*
X108750506Y-92826463D01*
X108653815Y-92905815D01*
X108574463Y-93002506D01*
X108515498Y-93112820D01*
X108479188Y-93232518D01*
X108466928Y-93357000D01*
X108466928Y-94857000D01*
X108479188Y-94981482D01*
X108515498Y-95101180D01*
X108574463Y-95211494D01*
X108653815Y-95308185D01*
X108750506Y-95387537D01*
X108860820Y-95446502D01*
X108980518Y-95482812D01*
X109088483Y-95493445D01*
X108972114Y-95571201D01*
X108779201Y-95764114D01*
X108627629Y-95990957D01*
X108523225Y-96243011D01*
X108470000Y-96510589D01*
X108470000Y-96783411D01*
X108523225Y-97050989D01*
X108627629Y-97303043D01*
X108779201Y-97529886D01*
X108972114Y-97722799D01*
X109198957Y-97874371D01*
X109301873Y-97917000D01*
X109198957Y-97959629D01*
X108972114Y-98111201D01*
X108779201Y-98304114D01*
X108627629Y-98530957D01*
X108523225Y-98783011D01*
X108470000Y-99050589D01*
X108470000Y-99320421D01*
X107481956Y-100308466D01*
X107448183Y-100336183D01*
X107337589Y-100470942D01*
X107255411Y-100624688D01*
X107230914Y-100705442D01*
X107204805Y-100791510D01*
X107204152Y-100798137D01*
X107192000Y-100921524D01*
X107192000Y-100921531D01*
X107187719Y-100965000D01*
X107192000Y-101008469D01*
X107192001Y-104096521D01*
X107187719Y-104140000D01*
X107204805Y-104313490D01*
X107255412Y-104480313D01*
X107337590Y-104634059D01*
X107420468Y-104735046D01*
X107420471Y-104735049D01*
X107448184Y-104768817D01*
X107481951Y-104796529D01*
X111008470Y-108323049D01*
X111036183Y-108356817D01*
X111069951Y-108384530D01*
X111069953Y-108384532D01*
X111141452Y-108443210D01*
X111170941Y-108467411D01*
X111324687Y-108549589D01*
X111491510Y-108600195D01*
X111621523Y-108613000D01*
X111621533Y-108613000D01*
X111664999Y-108617281D01*
X111708465Y-108613000D01*
X115787346Y-108613000D01*
X115863638Y-108705962D01*
X115890491Y-108728000D01*
X115863638Y-108750038D01*
X115753195Y-108884613D01*
X115671128Y-109038149D01*
X115620592Y-109204745D01*
X115603528Y-109377999D01*
X115603528Y-110078001D01*
X115620592Y-110251255D01*
X115671128Y-110417851D01*
X115753195Y-110571387D01*
X115863638Y-110705962D01*
X115998213Y-110816405D01*
X116151749Y-110898472D01*
X116318345Y-110949008D01*
X116491599Y-110966072D01*
X117055286Y-110966072D01*
X117000595Y-111032714D01*
X116918528Y-111186250D01*
X116867992Y-111352846D01*
X116850928Y-111526100D01*
X116850928Y-112451100D01*
X116867992Y-112624354D01*
X116918528Y-112790950D01*
X117000595Y-112944486D01*
X117111038Y-113079062D01*
X117245614Y-113189505D01*
X117399150Y-113271572D01*
X117565746Y-113322108D01*
X117739000Y-113339172D01*
X118989000Y-113339172D01*
X119162254Y-113322108D01*
X119328850Y-113271572D01*
X119482386Y-113189505D01*
X119616962Y-113079062D01*
X119727405Y-112944486D01*
X119806532Y-112796450D01*
X127467624Y-112796450D01*
X127512834Y-113140180D01*
X127624234Y-113468485D01*
X127733486Y-113672879D01*
X128010669Y-113783726D01*
X129055595Y-112738800D01*
X129414805Y-112738800D01*
X130459731Y-113783726D01*
X130736914Y-113672879D01*
X130890289Y-113361960D01*
X130980060Y-113027095D01*
X130995204Y-112796450D01*
X132547624Y-112796450D01*
X132592834Y-113140180D01*
X132704234Y-113468485D01*
X132813486Y-113672879D01*
X133090669Y-113783726D01*
X134135595Y-112738800D01*
X134494805Y-112738800D01*
X135539731Y-113783726D01*
X135816914Y-113672879D01*
X135970289Y-113361960D01*
X136060060Y-113027095D01*
X136082776Y-112681150D01*
X136037566Y-112337420D01*
X135926166Y-112009115D01*
X135816914Y-111804721D01*
X135539731Y-111693874D01*
X134494805Y-112738800D01*
X134135595Y-112738800D01*
X133090669Y-111693874D01*
X132813486Y-111804721D01*
X132660111Y-112115640D01*
X132570340Y-112450505D01*
X132547624Y-112796450D01*
X130995204Y-112796450D01*
X131002776Y-112681150D01*
X130957566Y-112337420D01*
X130846166Y-112009115D01*
X130736914Y-111804721D01*
X130459731Y-111693874D01*
X129414805Y-112738800D01*
X129055595Y-112738800D01*
X128010669Y-111693874D01*
X127733486Y-111804721D01*
X127580111Y-112115640D01*
X127490340Y-112450505D01*
X127467624Y-112796450D01*
X119806532Y-112796450D01*
X119809472Y-112790950D01*
X119860008Y-112624354D01*
X119877072Y-112451100D01*
X119877072Y-111526100D01*
X119875907Y-111514269D01*
X128190274Y-111514269D01*
X129235200Y-112559195D01*
X130280126Y-111514269D01*
X130169279Y-111237086D01*
X129858360Y-111083711D01*
X129523495Y-110993940D01*
X129177550Y-110971224D01*
X128833820Y-111016434D01*
X128505515Y-111127834D01*
X128301121Y-111237086D01*
X128190274Y-111514269D01*
X119875907Y-111514269D01*
X119860008Y-111352846D01*
X119809472Y-111186250D01*
X119727405Y-111032714D01*
X119672714Y-110966072D01*
X120084001Y-110966072D01*
X120257255Y-110949008D01*
X120423851Y-110898472D01*
X120577387Y-110816405D01*
X120711962Y-110705962D01*
X120822405Y-110571387D01*
X120904472Y-110417851D01*
X120955008Y-110251255D01*
X120972072Y-110078001D01*
X120972072Y-109377999D01*
X120955008Y-109204745D01*
X120904472Y-109038149D01*
X120822405Y-108884613D01*
X120821353Y-108883331D01*
X128190274Y-108883331D01*
X128301121Y-109160514D01*
X128612040Y-109313889D01*
X128946905Y-109403660D01*
X129292850Y-109426376D01*
X129636580Y-109381166D01*
X129964885Y-109269766D01*
X130169279Y-109160514D01*
X130280126Y-108883331D01*
X129235200Y-107838405D01*
X128190274Y-108883331D01*
X120821353Y-108883331D01*
X120711962Y-108750038D01*
X120685109Y-108728000D01*
X120711962Y-108705962D01*
X120822405Y-108571387D01*
X120904472Y-108417851D01*
X120955008Y-108251255D01*
X120972072Y-108078001D01*
X120972072Y-107716450D01*
X127467624Y-107716450D01*
X127512834Y-108060180D01*
X127624234Y-108388485D01*
X127733486Y-108592879D01*
X128010669Y-108703726D01*
X129055595Y-107658800D01*
X128010669Y-106613874D01*
X127733486Y-106724721D01*
X127580111Y-107035640D01*
X127490340Y-107370505D01*
X127467624Y-107716450D01*
X120972072Y-107716450D01*
X120972072Y-107377999D01*
X120955008Y-107204745D01*
X120904472Y-107038149D01*
X120822405Y-106884613D01*
X120711962Y-106750038D01*
X120577387Y-106639595D01*
X120519000Y-106608386D01*
X120519000Y-106088469D01*
X120523281Y-106045000D01*
X120519000Y-106001531D01*
X120519000Y-106001523D01*
X120507130Y-105881000D01*
X122323928Y-105881000D01*
X122336188Y-106005482D01*
X122372498Y-106125180D01*
X122431463Y-106235494D01*
X122510815Y-106332185D01*
X122607506Y-106411537D01*
X122717820Y-106470502D01*
X122837518Y-106506812D01*
X122962000Y-106519072D01*
X123263750Y-106516000D01*
X123422500Y-106357250D01*
X123422500Y-105283000D01*
X122485750Y-105283000D01*
X122327000Y-105441750D01*
X122323928Y-105881000D01*
X120507130Y-105881000D01*
X120506195Y-105871510D01*
X120503174Y-105861549D01*
X120485793Y-105804254D01*
X120455589Y-105704687D01*
X120373411Y-105550941D01*
X120262817Y-105416183D01*
X120229050Y-105388471D01*
X119271579Y-104431000D01*
X122323928Y-104431000D01*
X122327000Y-104870250D01*
X122485750Y-105029000D01*
X123422500Y-105029000D01*
X123422500Y-103954750D01*
X123676500Y-103954750D01*
X123676500Y-105029000D01*
X123696500Y-105029000D01*
X123696500Y-105283000D01*
X123676500Y-105283000D01*
X123676500Y-106357250D01*
X123835250Y-106516000D01*
X124137000Y-106519072D01*
X124261482Y-106506812D01*
X124381180Y-106470502D01*
X124491494Y-106411537D01*
X124588185Y-106332185D01*
X124653658Y-106252406D01*
X124659038Y-106258962D01*
X124793614Y-106369405D01*
X124947150Y-106451472D01*
X125113746Y-106502008D01*
X125287000Y-106519072D01*
X125962000Y-106519072D01*
X126135254Y-106502008D01*
X126301850Y-106451472D01*
X126334034Y-106434269D01*
X128190274Y-106434269D01*
X129235200Y-107479195D01*
X130280126Y-106434269D01*
X130169279Y-106157086D01*
X129858360Y-106003711D01*
X129523495Y-105913940D01*
X129177550Y-105891224D01*
X128833820Y-105936434D01*
X128505515Y-106047834D01*
X128301121Y-106157086D01*
X128190274Y-106434269D01*
X126334034Y-106434269D01*
X126455386Y-106369405D01*
X126589962Y-106258962D01*
X126700405Y-106124386D01*
X126782472Y-105970850D01*
X126833008Y-105804254D01*
X126850072Y-105631000D01*
X126850072Y-104681000D01*
X126833008Y-104507746D01*
X126782472Y-104341150D01*
X126700405Y-104187614D01*
X126589962Y-104053038D01*
X126509500Y-103987005D01*
X126509500Y-102201864D01*
X126539663Y-102258294D01*
X126619015Y-102354985D01*
X126715706Y-102434337D01*
X126826020Y-102493302D01*
X126945718Y-102529612D01*
X127070200Y-102541872D01*
X128770200Y-102541872D01*
X128894682Y-102529612D01*
X129014380Y-102493302D01*
X129124694Y-102434337D01*
X129155811Y-102408800D01*
X129468959Y-102408800D01*
X129554826Y-102410908D01*
X129629662Y-102416428D01*
X129704143Y-102425615D01*
X129778086Y-102438445D01*
X129851294Y-102454884D01*
X129923624Y-102474900D01*
X129994893Y-102498444D01*
X130064898Y-102525448D01*
X130133505Y-102555859D01*
X130200537Y-102589601D01*
X130265840Y-102626593D01*
X130329238Y-102666740D01*
X130390591Y-102709950D01*
X130449757Y-102756124D01*
X130506568Y-102805129D01*
X130568805Y-102864383D01*
X130611403Y-102906981D01*
X130650214Y-102947744D01*
X130679879Y-102982136D01*
X130707825Y-103017943D01*
X130733974Y-103055073D01*
X130758276Y-103093450D01*
X130780663Y-103132969D01*
X130801087Y-103173545D01*
X130819493Y-103215067D01*
X130835839Y-103257443D01*
X130850083Y-103300561D01*
X130862202Y-103344355D01*
X130872151Y-103388658D01*
X130879918Y-103433423D01*
X130885478Y-103478497D01*
X130888819Y-103523795D01*
X130890200Y-103580036D01*
X130890201Y-107058888D01*
X130846166Y-106929115D01*
X130736914Y-106724721D01*
X130459731Y-106613874D01*
X129414805Y-107658800D01*
X130459731Y-108703726D01*
X130736914Y-108592879D01*
X130890201Y-108282139D01*
X130890201Y-108793673D01*
X130717012Y-108909394D01*
X130485794Y-109140612D01*
X130304127Y-109412495D01*
X130178993Y-109714596D01*
X130115200Y-110035304D01*
X130115200Y-110362296D01*
X130178993Y-110683004D01*
X130304127Y-110985105D01*
X130485794Y-111256988D01*
X130717012Y-111488206D01*
X130988895Y-111669873D01*
X131290996Y-111795007D01*
X131611704Y-111858800D01*
X131938696Y-111858800D01*
X132259404Y-111795007D01*
X132561505Y-111669873D01*
X132794382Y-111514269D01*
X133270274Y-111514269D01*
X134315200Y-112559195D01*
X135360126Y-111514269D01*
X135249279Y-111237086D01*
X134938360Y-111083711D01*
X134603495Y-110993940D01*
X134257550Y-110971224D01*
X133913820Y-111016434D01*
X133585515Y-111127834D01*
X133381121Y-111237086D01*
X133270274Y-111514269D01*
X132794382Y-111514269D01*
X132833388Y-111488206D01*
X133064606Y-111256988D01*
X133246273Y-110985105D01*
X133371407Y-110683004D01*
X133435200Y-110362296D01*
X133435200Y-110035304D01*
X133371407Y-109714596D01*
X133246273Y-109412495D01*
X133064606Y-109140612D01*
X132833388Y-108909394D01*
X132794383Y-108883331D01*
X133270274Y-108883331D01*
X133381121Y-109160514D01*
X133692040Y-109313889D01*
X134026905Y-109403660D01*
X134372850Y-109426376D01*
X134716580Y-109381166D01*
X135044885Y-109269766D01*
X135249279Y-109160514D01*
X135360126Y-108883331D01*
X134315200Y-107838405D01*
X133270274Y-108883331D01*
X132794383Y-108883331D01*
X132660200Y-108793673D01*
X132660200Y-108258713D01*
X132704234Y-108388485D01*
X132813486Y-108592879D01*
X133090669Y-108703726D01*
X134135595Y-107658800D01*
X134494805Y-107658800D01*
X135539731Y-108703726D01*
X135816914Y-108592879D01*
X135970289Y-108281960D01*
X136060060Y-107947095D01*
X136082776Y-107601150D01*
X136037566Y-107257420D01*
X135926166Y-106929115D01*
X135816914Y-106724721D01*
X135539731Y-106613874D01*
X134494805Y-107658800D01*
X134135595Y-107658800D01*
X133090669Y-106613874D01*
X132813486Y-106724721D01*
X132660200Y-107035460D01*
X132660200Y-106434269D01*
X133270274Y-106434269D01*
X134315200Y-107479195D01*
X135360126Y-106434269D01*
X135249279Y-106157086D01*
X134938360Y-106003711D01*
X134603495Y-105913940D01*
X134257550Y-105891224D01*
X133913820Y-105936434D01*
X133585515Y-106047834D01*
X133381121Y-106157086D01*
X133270274Y-106434269D01*
X132660200Y-106434269D01*
X132660200Y-105173331D01*
X135167274Y-105173331D01*
X135278121Y-105450514D01*
X135589040Y-105603889D01*
X135923905Y-105693660D01*
X136269850Y-105716376D01*
X136613580Y-105671166D01*
X136941885Y-105559766D01*
X137146279Y-105450514D01*
X137257126Y-105173331D01*
X140247274Y-105173331D01*
X140358121Y-105450514D01*
X140669040Y-105603889D01*
X141003905Y-105693660D01*
X141349850Y-105716376D01*
X141693580Y-105671166D01*
X142021885Y-105559766D01*
X142226279Y-105450514D01*
X142337126Y-105173331D01*
X141292200Y-104128405D01*
X140247274Y-105173331D01*
X137257126Y-105173331D01*
X136212200Y-104128405D01*
X135167274Y-105173331D01*
X132660200Y-105173331D01*
X132660200Y-104006450D01*
X134444624Y-104006450D01*
X134489834Y-104350180D01*
X134601234Y-104678485D01*
X134710486Y-104882879D01*
X134987669Y-104993726D01*
X136032595Y-103948800D01*
X136391805Y-103948800D01*
X137436731Y-104993726D01*
X137713914Y-104882879D01*
X137867289Y-104571960D01*
X137957060Y-104237095D01*
X137972204Y-104006450D01*
X139524624Y-104006450D01*
X139569834Y-104350180D01*
X139681234Y-104678485D01*
X139790486Y-104882879D01*
X140067669Y-104993726D01*
X141112595Y-103948800D01*
X141471805Y-103948800D01*
X142516731Y-104993726D01*
X142793914Y-104882879D01*
X142947289Y-104571960D01*
X143037060Y-104237095D01*
X143059776Y-103891150D01*
X143014566Y-103547420D01*
X142903166Y-103219115D01*
X142793914Y-103014721D01*
X142516731Y-102903874D01*
X141471805Y-103948800D01*
X141112595Y-103948800D01*
X140067669Y-102903874D01*
X139790486Y-103014721D01*
X139637111Y-103325640D01*
X139547340Y-103660505D01*
X139524624Y-104006450D01*
X137972204Y-104006450D01*
X137979776Y-103891150D01*
X137934566Y-103547420D01*
X137823166Y-103219115D01*
X137713914Y-103014721D01*
X137436731Y-102903874D01*
X136391805Y-103948800D01*
X136032595Y-103948800D01*
X134987669Y-102903874D01*
X134710486Y-103014721D01*
X134557111Y-103325640D01*
X134467340Y-103660505D01*
X134444624Y-104006450D01*
X132660200Y-104006450D01*
X132660200Y-103601782D01*
X132661000Y-103590935D01*
X132660200Y-103558362D01*
X132660200Y-103525723D01*
X132659132Y-103514880D01*
X132658284Y-103480357D01*
X132658818Y-103458617D01*
X132657217Y-103436913D01*
X132656683Y-103415163D01*
X132654022Y-103393586D01*
X132650681Y-103348295D01*
X132650147Y-103326539D01*
X132647484Y-103304947D01*
X132645885Y-103283269D01*
X132642167Y-103261841D01*
X132636605Y-103216747D01*
X132635005Y-103195052D01*
X132631287Y-103173623D01*
X132628624Y-103152036D01*
X132623857Y-103130807D01*
X132616092Y-103086058D01*
X132613429Y-103064471D01*
X132608662Y-103043243D01*
X132604944Y-103021816D01*
X132599145Y-103000862D01*
X132589192Y-102956538D01*
X132585474Y-102935110D01*
X132579673Y-102914147D01*
X132574906Y-102892919D01*
X132568083Y-102872267D01*
X132555969Y-102828490D01*
X132551204Y-102807270D01*
X132544382Y-102786621D01*
X132538580Y-102765653D01*
X132530749Y-102745352D01*
X132516502Y-102702227D01*
X132510700Y-102681260D01*
X132502872Y-102660967D01*
X132496051Y-102640319D01*
X132487238Y-102620436D01*
X132470887Y-102578049D01*
X132464066Y-102557401D01*
X132455253Y-102537520D01*
X132447421Y-102517215D01*
X132437639Y-102497783D01*
X132419237Y-102456266D01*
X132411408Y-102435971D01*
X132401630Y-102416546D01*
X132392815Y-102396659D01*
X132382090Y-102377727D01*
X132361670Y-102337160D01*
X132352854Y-102317271D01*
X132342131Y-102298342D01*
X132332354Y-102278919D01*
X132320720Y-102260547D01*
X132298327Y-102221018D01*
X132288548Y-102201591D01*
X132276912Y-102183216D01*
X132266189Y-102164287D01*
X132253664Y-102146503D01*
X132229362Y-102108126D01*
X132218647Y-102089211D01*
X132206128Y-102071434D01*
X132194482Y-102053044D01*
X132181095Y-102035890D01*
X132154942Y-101998755D01*
X132143305Y-101980379D01*
X132129934Y-101963246D01*
X132117406Y-101945457D01*
X132103187Y-101928973D01*
X132075249Y-101893175D01*
X132062730Y-101875398D01*
X132048520Y-101858924D01*
X132035131Y-101841768D01*
X132020135Y-101826017D01*
X131990467Y-101791623D01*
X131977081Y-101774471D01*
X131962091Y-101758727D01*
X131947887Y-101742260D01*
X131932124Y-101727252D01*
X131908300Y-101702229D01*
X131901401Y-101693823D01*
X131878340Y-101670762D01*
X131855841Y-101647131D01*
X131847603Y-101640025D01*
X131835743Y-101628165D01*
X131828636Y-101619926D01*
X131805015Y-101597437D01*
X131781952Y-101574374D01*
X131773540Y-101567471D01*
X131727061Y-101523219D01*
X131712063Y-101507466D01*
X131695593Y-101493259D01*
X131679838Y-101478259D01*
X131662687Y-101464874D01*
X131605868Y-101415862D01*
X131590114Y-101400863D01*
X131572962Y-101387478D01*
X131556494Y-101373272D01*
X131538715Y-101360750D01*
X131479548Y-101314576D01*
X131463077Y-101300368D01*
X131445301Y-101287849D01*
X131428150Y-101274464D01*
X131409766Y-101262823D01*
X131348410Y-101219612D01*
X131331270Y-101206235D01*
X131312895Y-101194599D01*
X131295105Y-101182070D01*
X131276181Y-101171350D01*
X131212781Y-101131202D01*
X131194993Y-101118674D01*
X131176070Y-101107955D01*
X131157696Y-101096319D01*
X131138262Y-101086537D01*
X131072961Y-101049545D01*
X131054591Y-101037912D01*
X131035166Y-101028134D01*
X131016233Y-101017409D01*
X130996342Y-101008592D01*
X130929338Y-100974865D01*
X130910397Y-100964135D01*
X130890492Y-100955312D01*
X130871079Y-100945540D01*
X130850801Y-100937718D01*
X130782181Y-100907300D01*
X130762744Y-100897517D01*
X130742450Y-100889689D01*
X130722573Y-100880878D01*
X130701920Y-100874055D01*
X130631897Y-100847045D01*
X130612014Y-100838231D01*
X130591356Y-100831406D01*
X130571061Y-100823578D01*
X130550103Y-100817778D01*
X130478850Y-100794239D01*
X130458556Y-100786411D01*
X130437589Y-100780609D01*
X130416934Y-100773785D01*
X130395713Y-100769020D01*
X130323383Y-100749003D01*
X130302727Y-100742179D01*
X130281508Y-100737414D01*
X130260549Y-100731614D01*
X130239111Y-100727894D01*
X130165896Y-100711453D01*
X130144925Y-100705650D01*
X130123482Y-100701929D01*
X130102269Y-100697166D01*
X130080689Y-100694504D01*
X130006745Y-100681674D01*
X129985520Y-100676908D01*
X129963926Y-100674245D01*
X129942500Y-100670527D01*
X129920813Y-100668927D01*
X129846323Y-100659740D01*
X129824896Y-100656022D01*
X129803210Y-100654422D01*
X129781616Y-100651759D01*
X129759867Y-100651225D01*
X129685032Y-100645705D01*
X129663442Y-100643042D01*
X129641695Y-100642508D01*
X129620003Y-100640908D01*
X129598258Y-100641442D01*
X129534111Y-100639867D01*
X129523277Y-100638800D01*
X129490644Y-100638800D01*
X129458056Y-100638000D01*
X129447211Y-100638800D01*
X129407780Y-100638800D01*
X129408272Y-100633800D01*
X129408272Y-99873800D01*
X129407780Y-99868800D01*
X131008959Y-99868800D01*
X131213287Y-99873816D01*
X131406300Y-99888054D01*
X131598381Y-99911744D01*
X131789068Y-99944831D01*
X131977920Y-99987240D01*
X132164448Y-100038860D01*
X132348199Y-100099563D01*
X132528773Y-100169218D01*
X132705727Y-100247655D01*
X132878579Y-100334661D01*
X133046995Y-100430067D01*
X133210504Y-100533609D01*
X133368748Y-100645057D01*
X133521308Y-100764117D01*
X133667865Y-100890537D01*
X133815907Y-101031485D01*
X134088853Y-101304431D01*
X134095960Y-101312670D01*
X134119584Y-101335162D01*
X134142647Y-101358225D01*
X134151058Y-101365127D01*
X134197531Y-101409374D01*
X134212534Y-101425132D01*
X134229007Y-101439342D01*
X134244755Y-101454335D01*
X134261901Y-101467716D01*
X134318727Y-101516735D01*
X134334486Y-101531738D01*
X134351641Y-101545126D01*
X134368103Y-101559326D01*
X134385879Y-101571845D01*
X134445055Y-101618026D01*
X134461516Y-101632226D01*
X134479292Y-101644745D01*
X134496452Y-101658137D01*
X134514837Y-101669779D01*
X134576180Y-101712981D01*
X134593328Y-101726364D01*
X134611707Y-101738003D01*
X134629489Y-101750526D01*
X134648411Y-101761245D01*
X134711816Y-101801397D01*
X134729605Y-101813925D01*
X134748528Y-101824644D01*
X134766902Y-101836280D01*
X134786336Y-101846062D01*
X134851629Y-101883050D01*
X134870006Y-101894687D01*
X134889440Y-101904469D01*
X134908365Y-101915190D01*
X134928247Y-101924003D01*
X134995272Y-101957740D01*
X135014207Y-101968467D01*
X135034100Y-101977285D01*
X135053518Y-101987059D01*
X135073806Y-101994885D01*
X135142427Y-102025302D01*
X135161848Y-102035078D01*
X135182140Y-102042906D01*
X135202032Y-102051723D01*
X135222686Y-102058546D01*
X135292700Y-102085554D01*
X135312584Y-102094368D01*
X135333234Y-102101190D01*
X135353530Y-102109019D01*
X135374498Y-102114822D01*
X135445744Y-102138358D01*
X135466042Y-102146188D01*
X135487014Y-102151992D01*
X135507665Y-102158814D01*
X135528884Y-102163579D01*
X135601219Y-102183597D01*
X135621873Y-102190420D01*
X135643088Y-102195184D01*
X135664050Y-102200985D01*
X135685488Y-102204705D01*
X135758711Y-102221148D01*
X135779674Y-102226949D01*
X135799278Y-102230351D01*
X135482515Y-102337834D01*
X135278121Y-102447086D01*
X135167274Y-102724269D01*
X136212200Y-103769195D01*
X137257126Y-102724269D01*
X137146279Y-102447086D01*
X136835540Y-102293800D01*
X137347073Y-102293800D01*
X137462794Y-102466988D01*
X137694012Y-102698206D01*
X137965895Y-102879873D01*
X138267996Y-103005007D01*
X138588704Y-103068800D01*
X138915696Y-103068800D01*
X139236404Y-103005007D01*
X139538505Y-102879873D01*
X139771382Y-102724269D01*
X140247274Y-102724269D01*
X141292200Y-103769195D01*
X142337126Y-102724269D01*
X142226279Y-102447086D01*
X141915360Y-102293711D01*
X141580495Y-102203940D01*
X141234550Y-102181224D01*
X140890820Y-102226434D01*
X140562515Y-102337834D01*
X140358121Y-102447086D01*
X140247274Y-102724269D01*
X139771382Y-102724269D01*
X139810388Y-102698206D01*
X140041606Y-102466988D01*
X140223273Y-102195105D01*
X140348407Y-101893004D01*
X140412200Y-101572296D01*
X140412200Y-101245304D01*
X140348407Y-100924596D01*
X140223273Y-100622495D01*
X140041606Y-100350612D01*
X139810388Y-100119394D01*
X139771383Y-100093331D01*
X140247274Y-100093331D01*
X140358121Y-100370514D01*
X140669040Y-100523889D01*
X141003905Y-100613660D01*
X141349850Y-100636376D01*
X141693580Y-100591166D01*
X142021885Y-100479766D01*
X142226279Y-100370514D01*
X142337126Y-100093331D01*
X141292200Y-99048405D01*
X140247274Y-100093331D01*
X139771383Y-100093331D01*
X139538505Y-99937727D01*
X139236404Y-99812593D01*
X138915696Y-99748800D01*
X138588704Y-99748800D01*
X138267996Y-99812593D01*
X137965895Y-99937727D01*
X137694012Y-100119394D01*
X137462794Y-100350612D01*
X137347073Y-100523800D01*
X136812113Y-100523800D01*
X136941885Y-100479766D01*
X137146279Y-100370514D01*
X137257126Y-100093331D01*
X136212200Y-99048405D01*
X136198058Y-99062548D01*
X136018453Y-98882943D01*
X136032595Y-98868800D01*
X136391805Y-98868800D01*
X137436731Y-99913726D01*
X137713914Y-99802879D01*
X137867289Y-99491960D01*
X137957060Y-99157095D01*
X137972204Y-98926450D01*
X139524624Y-98926450D01*
X139569834Y-99270180D01*
X139681234Y-99598485D01*
X139790486Y-99802879D01*
X140067669Y-99913726D01*
X141112595Y-98868800D01*
X141471805Y-98868800D01*
X142516731Y-99913726D01*
X142793914Y-99802879D01*
X142947289Y-99491960D01*
X143037060Y-99157095D01*
X143059776Y-98811150D01*
X143014566Y-98467420D01*
X142903166Y-98139115D01*
X142793914Y-97934721D01*
X142516731Y-97823874D01*
X141471805Y-98868800D01*
X141112595Y-98868800D01*
X140067669Y-97823874D01*
X139790486Y-97934721D01*
X139637111Y-98245640D01*
X139547340Y-98580505D01*
X139524624Y-98926450D01*
X137972204Y-98926450D01*
X137979776Y-98811150D01*
X137934566Y-98467420D01*
X137823166Y-98139115D01*
X137713914Y-97934721D01*
X137436731Y-97823874D01*
X136391805Y-98868800D01*
X136032595Y-98868800D01*
X134987669Y-97823874D01*
X134710486Y-97934721D01*
X134557111Y-98245640D01*
X134467340Y-98580505D01*
X134444624Y-98926450D01*
X134489834Y-99270180D01*
X134491947Y-99276406D01*
X134457699Y-99249679D01*
X134441223Y-99235467D01*
X134423435Y-99222939D01*
X134406296Y-99209564D01*
X134387924Y-99197930D01*
X134229687Y-99086488D01*
X134212536Y-99073103D01*
X134194152Y-99061461D01*
X134176370Y-99048938D01*
X134157451Y-99038221D01*
X133993936Y-98934675D01*
X133976149Y-98922148D01*
X133957223Y-98911426D01*
X133938850Y-98899792D01*
X133919421Y-98890012D01*
X133751023Y-98794616D01*
X133732645Y-98782979D01*
X133713213Y-98773198D01*
X133694288Y-98762477D01*
X133674402Y-98753662D01*
X133501543Y-98666653D01*
X133482601Y-98655922D01*
X133462699Y-98647100D01*
X133443289Y-98637330D01*
X133423012Y-98629508D01*
X133246047Y-98551066D01*
X133226628Y-98541291D01*
X133206343Y-98533466D01*
X133186447Y-98524647D01*
X133165784Y-98517821D01*
X132985237Y-98448176D01*
X132965339Y-98439356D01*
X132944671Y-98432528D01*
X132924390Y-98424705D01*
X132903439Y-98418907D01*
X132719657Y-98358194D01*
X132699361Y-98350365D01*
X132678396Y-98344563D01*
X132657745Y-98337741D01*
X132636523Y-98332975D01*
X132449992Y-98281355D01*
X132429336Y-98274531D01*
X132408111Y-98269765D01*
X132387150Y-98263964D01*
X132365721Y-98260246D01*
X132176879Y-98217840D01*
X132155915Y-98212038D01*
X132134486Y-98208320D01*
X132113263Y-98203554D01*
X132091671Y-98200891D01*
X131900985Y-98167804D01*
X131879759Y-98163038D01*
X131858165Y-98160375D01*
X131836739Y-98156657D01*
X131815051Y-98155057D01*
X131622960Y-98131365D01*
X131601531Y-98127647D01*
X131579842Y-98126047D01*
X131558250Y-98123384D01*
X131536501Y-98122850D01*
X131343489Y-98108613D01*
X131321901Y-98105950D01*
X131300156Y-98105416D01*
X131278463Y-98103816D01*
X131256717Y-98104350D01*
X131074111Y-98099867D01*
X131063277Y-98098800D01*
X131030643Y-98098800D01*
X130998055Y-98098000D01*
X130987210Y-98098800D01*
X129407780Y-98098800D01*
X129408272Y-98093800D01*
X129408272Y-97644269D01*
X135167274Y-97644269D01*
X136212200Y-98689195D01*
X137257126Y-97644269D01*
X140247274Y-97644269D01*
X141292200Y-98689195D01*
X142337126Y-97644269D01*
X142226279Y-97367086D01*
X141915360Y-97213711D01*
X141580495Y-97123940D01*
X141234550Y-97101224D01*
X140890820Y-97146434D01*
X140562515Y-97257834D01*
X140358121Y-97367086D01*
X140247274Y-97644269D01*
X137257126Y-97644269D01*
X137146279Y-97367086D01*
X136835360Y-97213711D01*
X136500495Y-97123940D01*
X136154550Y-97101224D01*
X135810820Y-97146434D01*
X135482515Y-97257834D01*
X135278121Y-97367086D01*
X135167274Y-97644269D01*
X129408272Y-97644269D01*
X129408272Y-97333800D01*
X129396012Y-97209318D01*
X129359702Y-97089620D01*
X129353918Y-97078800D01*
X129359702Y-97067980D01*
X129396012Y-96948282D01*
X129408272Y-96823800D01*
X129408272Y-96156331D01*
X135167274Y-96156331D01*
X135278121Y-96433514D01*
X135589040Y-96586889D01*
X135923905Y-96676660D01*
X136269850Y-96699376D01*
X136613580Y-96654166D01*
X136941885Y-96542766D01*
X137146279Y-96433514D01*
X137257126Y-96156331D01*
X140247274Y-96156331D01*
X140358121Y-96433514D01*
X140669040Y-96586889D01*
X141003905Y-96676660D01*
X141349850Y-96699376D01*
X141693580Y-96654166D01*
X142021885Y-96542766D01*
X142226279Y-96433514D01*
X142337126Y-96156331D01*
X141292200Y-95111405D01*
X140247274Y-96156331D01*
X137257126Y-96156331D01*
X136212200Y-95111405D01*
X135167274Y-96156331D01*
X129408272Y-96156331D01*
X129408272Y-96063800D01*
X129407780Y-96058800D01*
X129996613Y-96058800D01*
X130007459Y-96059600D01*
X130040043Y-96058800D01*
X130072677Y-96058800D01*
X130083513Y-96057733D01*
X130266123Y-96053249D01*
X130287863Y-96053783D01*
X130309553Y-96052183D01*
X130331305Y-96051649D01*
X130352895Y-96048986D01*
X130545901Y-96034749D01*
X130567650Y-96034215D01*
X130589242Y-96031552D01*
X130610931Y-96029952D01*
X130632360Y-96026234D01*
X130824445Y-96002543D01*
X130846143Y-96000942D01*
X130867576Y-95997223D01*
X130889159Y-95994561D01*
X130910379Y-95989796D01*
X131101073Y-95956707D01*
X131122663Y-95954044D01*
X131143889Y-95949277D01*
X131165319Y-95945559D01*
X131186280Y-95939758D01*
X131375115Y-95897354D01*
X131396547Y-95893635D01*
X131417516Y-95887832D01*
X131438736Y-95883067D01*
X131459385Y-95876245D01*
X131645922Y-95824624D01*
X131667145Y-95819858D01*
X131687794Y-95813036D01*
X131708758Y-95807235D01*
X131729054Y-95799406D01*
X131912839Y-95738692D01*
X131933790Y-95732894D01*
X131954071Y-95725071D01*
X131974739Y-95718243D01*
X131994637Y-95709423D01*
X132175184Y-95639778D01*
X132195850Y-95632951D01*
X132215746Y-95624132D01*
X132236028Y-95616308D01*
X132255448Y-95606533D01*
X132432407Y-95528092D01*
X132452689Y-95520268D01*
X132472108Y-95510493D01*
X132492004Y-95501674D01*
X132510939Y-95490948D01*
X132683802Y-95403936D01*
X132703688Y-95395121D01*
X132722613Y-95384400D01*
X132742045Y-95374619D01*
X132760423Y-95362982D01*
X132928821Y-95267586D01*
X132948250Y-95257806D01*
X132966623Y-95246172D01*
X132985549Y-95235450D01*
X133003336Y-95222923D01*
X133166851Y-95119377D01*
X133185770Y-95108660D01*
X133203552Y-95096137D01*
X133221936Y-95084495D01*
X133239087Y-95071110D01*
X133355036Y-94989450D01*
X134444624Y-94989450D01*
X134489834Y-95333180D01*
X134601234Y-95661485D01*
X134710486Y-95865879D01*
X134987669Y-95976726D01*
X136032595Y-94931800D01*
X136391805Y-94931800D01*
X137436731Y-95976726D01*
X137713914Y-95865879D01*
X137867289Y-95554960D01*
X137957060Y-95220095D01*
X137972204Y-94989450D01*
X139524624Y-94989450D01*
X139569834Y-95333180D01*
X139681234Y-95661485D01*
X139790486Y-95865879D01*
X140067669Y-95976726D01*
X141112595Y-94931800D01*
X141471805Y-94931800D01*
X142516731Y-95976726D01*
X142793914Y-95865879D01*
X142947289Y-95554960D01*
X143037060Y-95220095D01*
X143059776Y-94874150D01*
X143014566Y-94530420D01*
X142903166Y-94202115D01*
X142793914Y-93997721D01*
X142516731Y-93886874D01*
X141471805Y-94931800D01*
X141112595Y-94931800D01*
X140067669Y-93886874D01*
X139790486Y-93997721D01*
X139637111Y-94308640D01*
X139547340Y-94643505D01*
X139524624Y-94989450D01*
X137972204Y-94989450D01*
X137979776Y-94874150D01*
X137934566Y-94530420D01*
X137823166Y-94202115D01*
X137713914Y-93997721D01*
X137436731Y-93886874D01*
X136391805Y-94931800D01*
X136032595Y-94931800D01*
X134987669Y-93886874D01*
X134710486Y-93997721D01*
X134557111Y-94308640D01*
X134467340Y-94643505D01*
X134444624Y-94989450D01*
X133355036Y-94989450D01*
X133397324Y-94959668D01*
X133415696Y-94948034D01*
X133432835Y-94934659D01*
X133450623Y-94922131D01*
X133467099Y-94907919D01*
X133619687Y-94788838D01*
X133637458Y-94776322D01*
X133653912Y-94762129D01*
X133671077Y-94748733D01*
X133686846Y-94733720D01*
X133833372Y-94607326D01*
X133850523Y-94593941D01*
X133866284Y-94578936D01*
X133882751Y-94564731D01*
X133897742Y-94548986D01*
X134030053Y-94423017D01*
X134038460Y-94416117D01*
X134061504Y-94393073D01*
X134085141Y-94370569D01*
X134092255Y-94362322D01*
X134722223Y-93732354D01*
X134784427Y-93673130D01*
X134841242Y-93624121D01*
X134900404Y-93577950D01*
X134961757Y-93534741D01*
X135025166Y-93494588D01*
X135090469Y-93457595D01*
X135157478Y-93423865D01*
X135226087Y-93393452D01*
X135296102Y-93366445D01*
X135367365Y-93342902D01*
X135439700Y-93322884D01*
X135512922Y-93306442D01*
X135537497Y-93302177D01*
X135482515Y-93320834D01*
X135278121Y-93430086D01*
X135167274Y-93707269D01*
X136212200Y-94752195D01*
X137257126Y-93707269D01*
X137146279Y-93430086D01*
X136835540Y-93276800D01*
X137347073Y-93276800D01*
X137462794Y-93449988D01*
X137694012Y-93681206D01*
X137965895Y-93862873D01*
X138267996Y-93988007D01*
X138588704Y-94051800D01*
X138915696Y-94051800D01*
X139236404Y-93988007D01*
X139538505Y-93862873D01*
X139771382Y-93707269D01*
X140247274Y-93707269D01*
X141292200Y-94752195D01*
X142337126Y-93707269D01*
X142226279Y-93430086D01*
X141915360Y-93276711D01*
X141580495Y-93186940D01*
X141234550Y-93164224D01*
X140890820Y-93209434D01*
X140562515Y-93320834D01*
X140358121Y-93430086D01*
X140247274Y-93707269D01*
X139771382Y-93707269D01*
X139810388Y-93681206D01*
X140041606Y-93449988D01*
X140223273Y-93178105D01*
X140348407Y-92876004D01*
X140412200Y-92555296D01*
X140412200Y-92228304D01*
X140348407Y-91907596D01*
X140223273Y-91605495D01*
X140041606Y-91333612D01*
X139810388Y-91102394D01*
X139771383Y-91076331D01*
X140247274Y-91076331D01*
X140358121Y-91353514D01*
X140669040Y-91506889D01*
X141003905Y-91596660D01*
X141349850Y-91619376D01*
X141693580Y-91574166D01*
X142021885Y-91462766D01*
X142226279Y-91353514D01*
X142337126Y-91076331D01*
X141292200Y-90031405D01*
X140247274Y-91076331D01*
X139771383Y-91076331D01*
X139538505Y-90920727D01*
X139236404Y-90795593D01*
X138915696Y-90731800D01*
X138588704Y-90731800D01*
X138267996Y-90795593D01*
X137965895Y-90920727D01*
X137694012Y-91102394D01*
X137462794Y-91333612D01*
X137347073Y-91506800D01*
X136812113Y-91506800D01*
X136941885Y-91462766D01*
X137146279Y-91353514D01*
X137257126Y-91076331D01*
X136212200Y-90031405D01*
X135167274Y-91076331D01*
X135278121Y-91353514D01*
X135589040Y-91506889D01*
X135611784Y-91512986D01*
X135605965Y-91513704D01*
X135531132Y-91519224D01*
X135509381Y-91519758D01*
X135487787Y-91522421D01*
X135466102Y-91524021D01*
X135444676Y-91527739D01*
X135370184Y-91536926D01*
X135348499Y-91538526D01*
X135327074Y-91542244D01*
X135305479Y-91544907D01*
X135284254Y-91549673D01*
X135210315Y-91562502D01*
X135188721Y-91565166D01*
X135167502Y-91569931D01*
X135146074Y-91573649D01*
X135125105Y-91579452D01*
X135051875Y-91595896D01*
X135030456Y-91599613D01*
X135009500Y-91605412D01*
X134988264Y-91610181D01*
X134967606Y-91617006D01*
X134895293Y-91637017D01*
X134874065Y-91641784D01*
X134853411Y-91648607D01*
X134832449Y-91654408D01*
X134812153Y-91662237D01*
X134740902Y-91685775D01*
X134719933Y-91691578D01*
X134699636Y-91699408D01*
X134678984Y-91706230D01*
X134659099Y-91715044D01*
X134589090Y-91742050D01*
X134568431Y-91748875D01*
X134548536Y-91757694D01*
X134528250Y-91765519D01*
X134508830Y-91775294D01*
X134440205Y-91805713D01*
X134419917Y-91813539D01*
X134400499Y-91823313D01*
X134380606Y-91832131D01*
X134361671Y-91842858D01*
X134294645Y-91876595D01*
X134274760Y-91885410D01*
X134255836Y-91896130D01*
X134236405Y-91905911D01*
X134218026Y-91917549D01*
X134152741Y-91954533D01*
X134133305Y-91964316D01*
X134114921Y-91975958D01*
X134096002Y-91986675D01*
X134078225Y-91999195D01*
X134014807Y-92039354D01*
X133995892Y-92050069D01*
X133978115Y-92062589D01*
X133959730Y-92074231D01*
X133942578Y-92087617D01*
X133881227Y-92130824D01*
X133862846Y-92142464D01*
X133845700Y-92155845D01*
X133827920Y-92168367D01*
X133811446Y-92182578D01*
X133752282Y-92228750D01*
X133734502Y-92241272D01*
X133718031Y-92255480D01*
X133700881Y-92268864D01*
X133685129Y-92283862D01*
X133628303Y-92332879D01*
X133611150Y-92346266D01*
X133595399Y-92361262D01*
X133578933Y-92375466D01*
X133563932Y-92391222D01*
X133517457Y-92435470D01*
X133509044Y-92442375D01*
X133485966Y-92465453D01*
X133462355Y-92487933D01*
X133455254Y-92496165D01*
X132825296Y-93126125D01*
X132677259Y-93267065D01*
X132530708Y-93393481D01*
X132378148Y-93512541D01*
X132219904Y-93623989D01*
X132056395Y-93727531D01*
X131887979Y-93822937D01*
X131715120Y-93909946D01*
X131538179Y-93988379D01*
X131357599Y-94058036D01*
X131173851Y-94118739D01*
X130987322Y-94170358D01*
X130798474Y-94212766D01*
X130607779Y-94245855D01*
X130415700Y-94269545D01*
X130222685Y-94283783D01*
X130018348Y-94288800D01*
X129407780Y-94288800D01*
X129408272Y-94283800D01*
X129408272Y-93523800D01*
X129401315Y-93453164D01*
X129408325Y-93451948D01*
X129429296Y-93446145D01*
X129502511Y-93429704D01*
X129523949Y-93425984D01*
X129544908Y-93420184D01*
X129566127Y-93415419D01*
X129586783Y-93408595D01*
X129659113Y-93388578D01*
X129680334Y-93383813D01*
X129700989Y-93376989D01*
X129721956Y-93371187D01*
X129742250Y-93363359D01*
X129813498Y-93339821D01*
X129834465Y-93334019D01*
X129854762Y-93326190D01*
X129875414Y-93319367D01*
X129895299Y-93310553D01*
X129965308Y-93283547D01*
X129985970Y-93276721D01*
X130005865Y-93267902D01*
X130026148Y-93260078D01*
X130045570Y-93250302D01*
X130114195Y-93219882D01*
X130134479Y-93212058D01*
X130153898Y-93202283D01*
X130173794Y-93193464D01*
X130192729Y-93182737D01*
X130259742Y-93149006D01*
X130279633Y-93140189D01*
X130298566Y-93129464D01*
X130317991Y-93119686D01*
X130336361Y-93108053D01*
X130401662Y-93071061D01*
X130421096Y-93061279D01*
X130439470Y-93049643D01*
X130458393Y-93038924D01*
X130476181Y-93026396D01*
X130539580Y-92986249D01*
X130558510Y-92975525D01*
X130576299Y-92962996D01*
X130594670Y-92951363D01*
X130611812Y-92937985D01*
X130673168Y-92894773D01*
X130691550Y-92883133D01*
X130708704Y-92869746D01*
X130726482Y-92857225D01*
X130742948Y-92843021D01*
X130802115Y-92796847D01*
X130819894Y-92784325D01*
X130836362Y-92770119D01*
X130853514Y-92756734D01*
X130869268Y-92741735D01*
X130926090Y-92692720D01*
X130943234Y-92679341D01*
X130958986Y-92664344D01*
X130975463Y-92650131D01*
X130990463Y-92634376D01*
X131036936Y-92590131D01*
X131045352Y-92583224D01*
X131068419Y-92560157D01*
X131092032Y-92537676D01*
X131099139Y-92529437D01*
X131670843Y-91957735D01*
X131679077Y-91950632D01*
X131701541Y-91927037D01*
X131724624Y-91903954D01*
X131731537Y-91895531D01*
X131775777Y-91849063D01*
X131791532Y-91834063D01*
X131805745Y-91817586D01*
X131820742Y-91801834D01*
X131834121Y-91784690D01*
X131883136Y-91727868D01*
X131898135Y-91712114D01*
X131911520Y-91694962D01*
X131925726Y-91678494D01*
X131938247Y-91660716D01*
X131984422Y-91601548D01*
X131998626Y-91585082D01*
X132011146Y-91567305D01*
X132024534Y-91550150D01*
X132036176Y-91531765D01*
X132079379Y-91470421D01*
X132092768Y-91453265D01*
X132104408Y-91434883D01*
X132116926Y-91417109D01*
X132127645Y-91398187D01*
X132167797Y-91334781D01*
X132180320Y-91316999D01*
X132191045Y-91298068D01*
X132202682Y-91279690D01*
X132212458Y-91260267D01*
X132249451Y-91194967D01*
X132261087Y-91176592D01*
X132270864Y-91157169D01*
X132281587Y-91138240D01*
X132290405Y-91118346D01*
X132324143Y-91051321D01*
X132334865Y-91032394D01*
X132343681Y-91012506D01*
X132353459Y-90993080D01*
X132361286Y-90972789D01*
X132391703Y-90904170D01*
X132401479Y-90884748D01*
X132409303Y-90864465D01*
X132418122Y-90844570D01*
X132424948Y-90823908D01*
X132451954Y-90753899D01*
X132460768Y-90734014D01*
X132467590Y-90713362D01*
X132475420Y-90693065D01*
X132481223Y-90672096D01*
X132504761Y-90600845D01*
X132512590Y-90580549D01*
X132518391Y-90559587D01*
X132525214Y-90538933D01*
X132529981Y-90517705D01*
X132549992Y-90445392D01*
X132556817Y-90424734D01*
X132561586Y-90403498D01*
X132567385Y-90382542D01*
X132571102Y-90361123D01*
X132587546Y-90287895D01*
X132593349Y-90266925D01*
X132597068Y-90245492D01*
X132601832Y-90224277D01*
X132604495Y-90202688D01*
X132617326Y-90128740D01*
X132622091Y-90107520D01*
X132624754Y-90085932D01*
X132628472Y-90064502D01*
X132630072Y-90042812D01*
X132639259Y-89968323D01*
X132642977Y-89946897D01*
X132644577Y-89925212D01*
X132646520Y-89909450D01*
X134444624Y-89909450D01*
X134489834Y-90253180D01*
X134601234Y-90581485D01*
X134710486Y-90785879D01*
X134987669Y-90896726D01*
X136032595Y-89851800D01*
X136391805Y-89851800D01*
X137436731Y-90896726D01*
X137713914Y-90785879D01*
X137867289Y-90474960D01*
X137957060Y-90140095D01*
X137972204Y-89909450D01*
X139524624Y-89909450D01*
X139569834Y-90253180D01*
X139681234Y-90581485D01*
X139790486Y-90785879D01*
X140067669Y-90896726D01*
X141112595Y-89851800D01*
X141471805Y-89851800D01*
X142516731Y-90896726D01*
X142793914Y-90785879D01*
X142947289Y-90474960D01*
X143037060Y-90140095D01*
X143059776Y-89794150D01*
X143014566Y-89450420D01*
X142903166Y-89122115D01*
X142793914Y-88917721D01*
X142516731Y-88806874D01*
X141471805Y-89851800D01*
X141112595Y-89851800D01*
X140067669Y-88806874D01*
X139790486Y-88917721D01*
X139637111Y-89228640D01*
X139547340Y-89563505D01*
X139524624Y-89909450D01*
X137972204Y-89909450D01*
X137979776Y-89794150D01*
X137934566Y-89450420D01*
X137823166Y-89122115D01*
X137713914Y-88917721D01*
X137436731Y-88806874D01*
X136391805Y-89851800D01*
X136032595Y-89851800D01*
X134987669Y-88806874D01*
X134710486Y-88917721D01*
X134557111Y-89228640D01*
X134467340Y-89563505D01*
X134444624Y-89909450D01*
X132646520Y-89909450D01*
X132647240Y-89903618D01*
X132647774Y-89881867D01*
X132653295Y-89807028D01*
X132655956Y-89785449D01*
X132656490Y-89763709D01*
X132658091Y-89742004D01*
X132657557Y-89720254D01*
X132659132Y-89656119D01*
X132660200Y-89645277D01*
X132660200Y-89612638D01*
X132661000Y-89580063D01*
X132660200Y-89569216D01*
X132660200Y-88627269D01*
X135167274Y-88627269D01*
X136212200Y-89672195D01*
X137257126Y-88627269D01*
X140247274Y-88627269D01*
X141292200Y-89672195D01*
X142337126Y-88627269D01*
X142226279Y-88350086D01*
X141915360Y-88196711D01*
X141580495Y-88106940D01*
X141234550Y-88084224D01*
X140890820Y-88129434D01*
X140562515Y-88240834D01*
X140358121Y-88350086D01*
X140247274Y-88627269D01*
X137257126Y-88627269D01*
X137146279Y-88350086D01*
X136835360Y-88196711D01*
X136500495Y-88106940D01*
X136154550Y-88084224D01*
X135810820Y-88129434D01*
X135482515Y-88240834D01*
X135278121Y-88350086D01*
X135167274Y-88627269D01*
X132660200Y-88627269D01*
X132660200Y-86873331D01*
X133270274Y-86873331D01*
X133381121Y-87150514D01*
X133692040Y-87303889D01*
X134026905Y-87393660D01*
X134372850Y-87416376D01*
X134716580Y-87371166D01*
X135044885Y-87259766D01*
X135249279Y-87150514D01*
X135360126Y-86873331D01*
X134315200Y-85828405D01*
X133270274Y-86873331D01*
X132660200Y-86873331D01*
X132660200Y-86248713D01*
X132704234Y-86378485D01*
X132813486Y-86582879D01*
X133090669Y-86693726D01*
X134135595Y-85648800D01*
X134494805Y-85648800D01*
X135539731Y-86693726D01*
X135816914Y-86582879D01*
X135970289Y-86271960D01*
X136060060Y-85937095D01*
X136082776Y-85591150D01*
X136037566Y-85247420D01*
X135926166Y-84919115D01*
X135816914Y-84714721D01*
X135539731Y-84603874D01*
X134494805Y-85648800D01*
X134135595Y-85648800D01*
X133090669Y-84603874D01*
X132813486Y-84714721D01*
X132660200Y-85025460D01*
X132660200Y-84513927D01*
X132794382Y-84424269D01*
X133270274Y-84424269D01*
X134315200Y-85469195D01*
X135360126Y-84424269D01*
X135249279Y-84147086D01*
X134938360Y-83993711D01*
X134603495Y-83903940D01*
X134257550Y-83881224D01*
X133913820Y-83926434D01*
X133585515Y-84037834D01*
X133381121Y-84147086D01*
X133270274Y-84424269D01*
X132794382Y-84424269D01*
X132833388Y-84398206D01*
X133064606Y-84166988D01*
X133246273Y-83895105D01*
X133371407Y-83593004D01*
X133435200Y-83272296D01*
X133435200Y-82945304D01*
X133371407Y-82624596D01*
X133246273Y-82322495D01*
X133064606Y-82050612D01*
X132833388Y-81819394D01*
X132794383Y-81793331D01*
X133270274Y-81793331D01*
X133381121Y-82070514D01*
X133692040Y-82223889D01*
X134026905Y-82313660D01*
X134372850Y-82336376D01*
X134716580Y-82291166D01*
X135044885Y-82179766D01*
X135249279Y-82070514D01*
X135360126Y-81793331D01*
X134315200Y-80748405D01*
X133270274Y-81793331D01*
X132794383Y-81793331D01*
X132561505Y-81637727D01*
X132259404Y-81512593D01*
X131938696Y-81448800D01*
X131611704Y-81448800D01*
X131290996Y-81512593D01*
X130988895Y-81637727D01*
X130717012Y-81819394D01*
X130485794Y-82050612D01*
X130304127Y-82322495D01*
X130178993Y-82624596D01*
X130115200Y-82945304D01*
X130115200Y-83272296D01*
X130178993Y-83593004D01*
X130304127Y-83895105D01*
X130485794Y-84166988D01*
X130717012Y-84398206D01*
X130890201Y-84513927D01*
X130890201Y-85048889D01*
X130846166Y-84919115D01*
X130736914Y-84714721D01*
X130459731Y-84603874D01*
X129414805Y-85648800D01*
X130459731Y-86693726D01*
X130736914Y-86582879D01*
X130890201Y-86272139D01*
X130890200Y-89590969D01*
X130888092Y-89676818D01*
X130882571Y-89751662D01*
X130873385Y-89826142D01*
X130860556Y-89900079D01*
X130844114Y-89973298D01*
X130824096Y-90045633D01*
X130800553Y-90116896D01*
X130773548Y-90186905D01*
X130743134Y-90255517D01*
X130709400Y-90322535D01*
X130672408Y-90387833D01*
X130632260Y-90451236D01*
X130589049Y-90512589D01*
X130542874Y-90571757D01*
X130493858Y-90628580D01*
X130434648Y-90690772D01*
X129832193Y-91293227D01*
X129769980Y-91352457D01*
X129713157Y-91401473D01*
X129653983Y-91447653D01*
X129592639Y-91490857D01*
X129529240Y-91531005D01*
X129463937Y-91567997D01*
X129396909Y-91601737D01*
X129328305Y-91632147D01*
X129258292Y-91659154D01*
X129187024Y-91682698D01*
X129114694Y-91702714D01*
X129094665Y-91707212D01*
X129014380Y-91664298D01*
X128894682Y-91627988D01*
X128770200Y-91615728D01*
X127070200Y-91615728D01*
X126945718Y-91627988D01*
X126826020Y-91664298D01*
X126715706Y-91723263D01*
X126619015Y-91802615D01*
X126539663Y-91899306D01*
X126490067Y-91992091D01*
X126361000Y-91863024D01*
X126361000Y-90390072D01*
X126724000Y-90390072D01*
X126897254Y-90373008D01*
X127063850Y-90322472D01*
X127217386Y-90240405D01*
X127351962Y-90129962D01*
X127462405Y-89995386D01*
X127544472Y-89841850D01*
X127595008Y-89675254D01*
X127612072Y-89502000D01*
X127612072Y-88552000D01*
X127595008Y-88378746D01*
X127544472Y-88212150D01*
X127462405Y-88058614D01*
X127351962Y-87924038D01*
X127217386Y-87813595D01*
X127063850Y-87731528D01*
X126897254Y-87680992D01*
X126724000Y-87663928D01*
X126049000Y-87663928D01*
X125875746Y-87680992D01*
X125709150Y-87731528D01*
X125555614Y-87813595D01*
X125421038Y-87924038D01*
X125415658Y-87930594D01*
X125350185Y-87850815D01*
X125253494Y-87771463D01*
X125143180Y-87712498D01*
X125023482Y-87676188D01*
X124899000Y-87663928D01*
X124597250Y-87667000D01*
X124438500Y-87825750D01*
X124438500Y-88900000D01*
X124458500Y-88900000D01*
X124458500Y-89154000D01*
X124438500Y-89154000D01*
X124438500Y-90228250D01*
X124591001Y-90380751D01*
X124591000Y-92186133D01*
X124586719Y-92229602D01*
X124591000Y-92273071D01*
X124591000Y-92273078D01*
X124600212Y-92366609D01*
X124603805Y-92403092D01*
X124614485Y-92438297D01*
X124654411Y-92569914D01*
X124736589Y-92723660D01*
X124847183Y-92858419D01*
X124880956Y-92886136D01*
X126462366Y-94467547D01*
X126480698Y-94527980D01*
X126486482Y-94538800D01*
X126480698Y-94549620D01*
X126444388Y-94669318D01*
X126432128Y-94793800D01*
X126432128Y-95553800D01*
X126444388Y-95678282D01*
X126480698Y-95797980D01*
X126486482Y-95808800D01*
X126480698Y-95819620D01*
X126444388Y-95939318D01*
X126432128Y-96063800D01*
X126432128Y-96823800D01*
X126444388Y-96948282D01*
X126480698Y-97067980D01*
X126486482Y-97078800D01*
X126480698Y-97089620D01*
X126444388Y-97209318D01*
X126432128Y-97333800D01*
X126432128Y-98093800D01*
X126444388Y-98218282D01*
X126480698Y-98337980D01*
X126486482Y-98348800D01*
X126480698Y-98359620D01*
X126444388Y-98479318D01*
X126432128Y-98603800D01*
X126432128Y-99363800D01*
X126433524Y-99377979D01*
X126396710Y-99381605D01*
X126229887Y-99432211D01*
X126099933Y-99501672D01*
X126076141Y-99514389D01*
X125975153Y-99597268D01*
X125975151Y-99597270D01*
X125941383Y-99624983D01*
X125913670Y-99658751D01*
X125029456Y-100542966D01*
X124995683Y-100570683D01*
X124885089Y-100705442D01*
X124802911Y-100859188D01*
X124773636Y-100955694D01*
X124752305Y-101026010D01*
X124750764Y-101041654D01*
X124739500Y-101156024D01*
X124739500Y-101156031D01*
X124735219Y-101199500D01*
X124739500Y-101242969D01*
X124739501Y-103987004D01*
X124659038Y-104053038D01*
X124653658Y-104059594D01*
X124588185Y-103979815D01*
X124491494Y-103900463D01*
X124381180Y-103841498D01*
X124261482Y-103805188D01*
X124137000Y-103792928D01*
X123835250Y-103796000D01*
X123676500Y-103954750D01*
X123422500Y-103954750D01*
X123263750Y-103796000D01*
X122962000Y-103792928D01*
X122837518Y-103805188D01*
X122717820Y-103841498D01*
X122607506Y-103900463D01*
X122510815Y-103979815D01*
X122431463Y-104076506D01*
X122372498Y-104186820D01*
X122336188Y-104306518D01*
X122323928Y-104431000D01*
X119271579Y-104431000D01*
X117365352Y-102524774D01*
X117399732Y-102494908D01*
X117439059Y-102444150D01*
X117479777Y-102394535D01*
X117502493Y-102352037D01*
X117506892Y-102345036D01*
X117535329Y-102306126D01*
X117556880Y-102259722D01*
X117611850Y-102273083D01*
X117649941Y-102274687D01*
X117699981Y-102279615D01*
X117731803Y-102283201D01*
X117737146Y-102283276D01*
X117742467Y-102283800D01*
X117760595Y-102283800D01*
X117819015Y-102354985D01*
X117915706Y-102434337D01*
X118026020Y-102493302D01*
X118145718Y-102529612D01*
X118270200Y-102541872D01*
X119970200Y-102541872D01*
X120094682Y-102529612D01*
X120214380Y-102493302D01*
X120324694Y-102434337D01*
X120421385Y-102354985D01*
X120500737Y-102258294D01*
X120559702Y-102147980D01*
X120596012Y-102028282D01*
X120608272Y-101903800D01*
X120608272Y-101143800D01*
X120606876Y-101129621D01*
X120643690Y-101125995D01*
X120810513Y-101075389D01*
X120964259Y-100993211D01*
X121099017Y-100882617D01*
X121126734Y-100848844D01*
X122261050Y-99714529D01*
X122294817Y-99686817D01*
X122331418Y-99642220D01*
X122405411Y-99552059D01*
X122487589Y-99398314D01*
X122538195Y-99231490D01*
X122545522Y-99157095D01*
X122551000Y-99101477D01*
X122551000Y-99101469D01*
X122555281Y-99058000D01*
X122551000Y-99014531D01*
X122551000Y-89752000D01*
X123085928Y-89752000D01*
X123098188Y-89876482D01*
X123134498Y-89996180D01*
X123193463Y-90106494D01*
X123272815Y-90203185D01*
X123369506Y-90282537D01*
X123479820Y-90341502D01*
X123599518Y-90377812D01*
X123724000Y-90390072D01*
X124025750Y-90387000D01*
X124184500Y-90228250D01*
X124184500Y-89154000D01*
X123247750Y-89154000D01*
X123089000Y-89312750D01*
X123085928Y-89752000D01*
X122551000Y-89752000D01*
X122551000Y-88302000D01*
X123085928Y-88302000D01*
X123089000Y-88741250D01*
X123247750Y-88900000D01*
X124184500Y-88900000D01*
X124184500Y-87825750D01*
X124025750Y-87667000D01*
X123724000Y-87663928D01*
X123599518Y-87676188D01*
X123479820Y-87712498D01*
X123369506Y-87771463D01*
X123272815Y-87850815D01*
X123193463Y-87947506D01*
X123134498Y-88057820D01*
X123098188Y-88177518D01*
X123085928Y-88302000D01*
X122551000Y-88302000D01*
X122551000Y-88063464D01*
X122555281Y-88019998D01*
X122551000Y-87976532D01*
X122551000Y-87976522D01*
X122538195Y-87846509D01*
X122487589Y-87679686D01*
X122405411Y-87525940D01*
X122294817Y-87391182D01*
X122261049Y-87363469D01*
X121770911Y-86873331D01*
X128190274Y-86873331D01*
X128301121Y-87150514D01*
X128612040Y-87303889D01*
X128946905Y-87393660D01*
X129292850Y-87416376D01*
X129636580Y-87371166D01*
X129964885Y-87259766D01*
X130169279Y-87150514D01*
X130280126Y-86873331D01*
X129235200Y-85828405D01*
X128190274Y-86873331D01*
X121770911Y-86873331D01*
X121480072Y-86582493D01*
X121480072Y-86409506D01*
X121667522Y-86222056D01*
X121818061Y-86252000D01*
X122021939Y-86252000D01*
X122221898Y-86212226D01*
X122410256Y-86134205D01*
X122579774Y-86020937D01*
X122723937Y-85876774D01*
X122837205Y-85707256D01*
X122837538Y-85706450D01*
X127467624Y-85706450D01*
X127512834Y-86050180D01*
X127624234Y-86378485D01*
X127733486Y-86582879D01*
X128010669Y-86693726D01*
X129055595Y-85648800D01*
X128010669Y-84603874D01*
X127733486Y-84714721D01*
X127580111Y-85025640D01*
X127490340Y-85360505D01*
X127467624Y-85706450D01*
X122837538Y-85706450D01*
X122915226Y-85518898D01*
X122955000Y-85318939D01*
X122955000Y-85115061D01*
X122915226Y-84915102D01*
X122837205Y-84726744D01*
X122723937Y-84557226D01*
X122590980Y-84424269D01*
X128190274Y-84424269D01*
X129235200Y-85469195D01*
X130280126Y-84424269D01*
X130169279Y-84147086D01*
X129858360Y-83993711D01*
X129523495Y-83903940D01*
X129177550Y-83881224D01*
X128833820Y-83926434D01*
X128505515Y-84037834D01*
X128301121Y-84147086D01*
X128190274Y-84424269D01*
X122590980Y-84424269D01*
X122579774Y-84413063D01*
X122410256Y-84299795D01*
X122221898Y-84221774D01*
X122021939Y-84182000D01*
X121818061Y-84182000D01*
X121618102Y-84221774D01*
X121480072Y-84278948D01*
X121480072Y-84145998D01*
X121463008Y-83972744D01*
X121412472Y-83806148D01*
X121330405Y-83652612D01*
X121219962Y-83518037D01*
X121085387Y-83407594D01*
X120931851Y-83325527D01*
X120765255Y-83274991D01*
X120592001Y-83257927D01*
X120407549Y-83257927D01*
X120444472Y-83188850D01*
X120495008Y-83022254D01*
X120512072Y-82849000D01*
X120512072Y-81924000D01*
X120499203Y-81793331D01*
X128190274Y-81793331D01*
X128301121Y-82070514D01*
X128612040Y-82223889D01*
X128946905Y-82313660D01*
X129292850Y-82336376D01*
X129636580Y-82291166D01*
X129964885Y-82179766D01*
X130169279Y-82070514D01*
X130280126Y-81793331D01*
X129235200Y-80748405D01*
X128190274Y-81793331D01*
X120499203Y-81793331D01*
X120495008Y-81750746D01*
X120444472Y-81584150D01*
X120362405Y-81430614D01*
X120251962Y-81296038D01*
X120117386Y-81185595D01*
X119963850Y-81103528D01*
X119797254Y-81052992D01*
X119624000Y-81035928D01*
X118374000Y-81035928D01*
X118200746Y-81052992D01*
X118034150Y-81103528D01*
X117880614Y-81185595D01*
X117746038Y-81296038D01*
X117635595Y-81430614D01*
X117553528Y-81584150D01*
X117502992Y-81750746D01*
X117485928Y-81924000D01*
X117485928Y-82849000D01*
X117502992Y-83022254D01*
X117553528Y-83188850D01*
X117590451Y-83257927D01*
X117405999Y-83257927D01*
X117232745Y-83274991D01*
X117066149Y-83325527D01*
X116912613Y-83407594D01*
X116778038Y-83518037D01*
X116667595Y-83652612D01*
X116585528Y-83806148D01*
X116534992Y-83972744D01*
X116517928Y-84145998D01*
X116517928Y-84846000D01*
X116534992Y-85019254D01*
X116585528Y-85185850D01*
X116667595Y-85339386D01*
X116778038Y-85473961D01*
X116804891Y-85495999D01*
X116778038Y-85518037D01*
X116701746Y-85610999D01*
X110484578Y-85610999D01*
X107529650Y-82656072D01*
X107672000Y-82656072D01*
X107796482Y-82643812D01*
X107916180Y-82607502D01*
X108026494Y-82548537D01*
X108123185Y-82469185D01*
X108202537Y-82372494D01*
X108261502Y-82262180D01*
X108297812Y-82142482D01*
X108310072Y-82018000D01*
X108310072Y-81753919D01*
X108393637Y-81878983D01*
X108691017Y-82176363D01*
X109040698Y-82410012D01*
X109429244Y-82570953D01*
X109841721Y-82653000D01*
X110262279Y-82653000D01*
X110674756Y-82570953D01*
X111063302Y-82410012D01*
X111412983Y-82176363D01*
X111710363Y-81878983D01*
X111944012Y-81529302D01*
X112104953Y-81140756D01*
X112187000Y-80728279D01*
X112187000Y-80307721D01*
X112150456Y-80124000D01*
X117485928Y-80124000D01*
X117498188Y-80248482D01*
X117534498Y-80368180D01*
X117593463Y-80478494D01*
X117672815Y-80575185D01*
X117769506Y-80654537D01*
X117879820Y-80713502D01*
X117999518Y-80749812D01*
X118124000Y-80762072D01*
X118713250Y-80759000D01*
X118872000Y-80600250D01*
X118872000Y-79538500D01*
X119126000Y-79538500D01*
X119126000Y-80600250D01*
X119284750Y-80759000D01*
X119874000Y-80762072D01*
X119998482Y-80749812D01*
X120118180Y-80713502D01*
X120228494Y-80654537D01*
X120262718Y-80626450D01*
X127467624Y-80626450D01*
X127512834Y-80970180D01*
X127624234Y-81298485D01*
X127733486Y-81502879D01*
X128010669Y-81613726D01*
X129055595Y-80568800D01*
X129414805Y-80568800D01*
X130459731Y-81613726D01*
X130736914Y-81502879D01*
X130890289Y-81191960D01*
X130980060Y-80857095D01*
X130995204Y-80626450D01*
X132547624Y-80626450D01*
X132592834Y-80970180D01*
X132704234Y-81298485D01*
X132813486Y-81502879D01*
X133090669Y-81613726D01*
X134135595Y-80568800D01*
X134494805Y-80568800D01*
X135539731Y-81613726D01*
X135816914Y-81502879D01*
X135970289Y-81191960D01*
X136060060Y-80857095D01*
X136082776Y-80511150D01*
X136037566Y-80167420D01*
X135926166Y-79839115D01*
X135816914Y-79634721D01*
X135539731Y-79523874D01*
X134494805Y-80568800D01*
X134135595Y-80568800D01*
X133090669Y-79523874D01*
X132813486Y-79634721D01*
X132660111Y-79945640D01*
X132570340Y-80280505D01*
X132547624Y-80626450D01*
X130995204Y-80626450D01*
X131002776Y-80511150D01*
X130957566Y-80167420D01*
X130846166Y-79839115D01*
X130736914Y-79634721D01*
X130459731Y-79523874D01*
X129414805Y-80568800D01*
X129055595Y-80568800D01*
X128010669Y-79523874D01*
X127733486Y-79634721D01*
X127580111Y-79945640D01*
X127490340Y-80280505D01*
X127467624Y-80626450D01*
X120262718Y-80626450D01*
X120325185Y-80575185D01*
X120404537Y-80478494D01*
X120463502Y-80368180D01*
X120499812Y-80248482D01*
X120512072Y-80124000D01*
X120509000Y-79697250D01*
X120350250Y-79538500D01*
X119126000Y-79538500D01*
X118872000Y-79538500D01*
X117647750Y-79538500D01*
X117489000Y-79697250D01*
X117485928Y-80124000D01*
X112150456Y-80124000D01*
X112104953Y-79895244D01*
X111944012Y-79506698D01*
X111835481Y-79344269D01*
X128190274Y-79344269D01*
X129235200Y-80389195D01*
X130280126Y-79344269D01*
X133270274Y-79344269D01*
X134315200Y-80389195D01*
X135360126Y-79344269D01*
X135249279Y-79067086D01*
X134938360Y-78913711D01*
X134603495Y-78823940D01*
X134257550Y-78801224D01*
X133913820Y-78846434D01*
X133585515Y-78957834D01*
X133381121Y-79067086D01*
X133270274Y-79344269D01*
X130280126Y-79344269D01*
X130169279Y-79067086D01*
X129858360Y-78913711D01*
X129523495Y-78823940D01*
X129177550Y-78801224D01*
X128833820Y-78846434D01*
X128505515Y-78957834D01*
X128301121Y-79067086D01*
X128190274Y-79344269D01*
X111835481Y-79344269D01*
X111710363Y-79157017D01*
X111412983Y-78859637D01*
X111172573Y-78699000D01*
X117485928Y-78699000D01*
X117489000Y-79125750D01*
X117647750Y-79284500D01*
X118872000Y-79284500D01*
X118872000Y-78222750D01*
X119126000Y-78222750D01*
X119126000Y-79284500D01*
X120350250Y-79284500D01*
X120509000Y-79125750D01*
X120512072Y-78699000D01*
X120499812Y-78574518D01*
X120463502Y-78454820D01*
X120404537Y-78344506D01*
X120325185Y-78247815D01*
X120228494Y-78168463D01*
X120118180Y-78109498D01*
X119998482Y-78073188D01*
X119874000Y-78060928D01*
X119284750Y-78064000D01*
X119126000Y-78222750D01*
X118872000Y-78222750D01*
X118713250Y-78064000D01*
X118124000Y-78060928D01*
X117999518Y-78073188D01*
X117879820Y-78109498D01*
X117769506Y-78168463D01*
X117672815Y-78247815D01*
X117593463Y-78344506D01*
X117534498Y-78454820D01*
X117498188Y-78574518D01*
X117485928Y-78699000D01*
X111172573Y-78699000D01*
X111063302Y-78625988D01*
X110674756Y-78465047D01*
X110262279Y-78383000D01*
X109841721Y-78383000D01*
X109429244Y-78465047D01*
X109040698Y-78625988D01*
X108691017Y-78859637D01*
X108393637Y-79157017D01*
X108310072Y-79282081D01*
X108310072Y-79018000D01*
X108297812Y-78893518D01*
X108261502Y-78773820D01*
X108202537Y-78663506D01*
X108123185Y-78566815D01*
X108026494Y-78487463D01*
X107916180Y-78428498D01*
X107796482Y-78392188D01*
X107672000Y-78379928D01*
X104672000Y-78379928D01*
X104547518Y-78392188D01*
X104427820Y-78428498D01*
X104317506Y-78487463D01*
X104220815Y-78566815D01*
X104141463Y-78663506D01*
X104082498Y-78773820D01*
X104046188Y-78893518D01*
X104033928Y-79018000D01*
X95910000Y-79018000D01*
X95910000Y-77389000D01*
X144590000Y-77389000D01*
X144590001Y-117069000D01*
G37*
G04 #@! TD.AperFunction*
D22*
X111010000Y-102863578D02*
X111010000Y-103133411D01*
X111063225Y-103400989D01*
X111167629Y-103653043D01*
X111319201Y-103879886D01*
X111512114Y-104072799D01*
X111738957Y-104224371D01*
X111991011Y-104328775D01*
X112258589Y-104382000D01*
X112531411Y-104382000D01*
X112798989Y-104328775D01*
X113051043Y-104224371D01*
X113277886Y-104072799D01*
X113468685Y-103882000D01*
X116219422Y-103882000D01*
X118749000Y-106411579D01*
X118749000Y-106608386D01*
X118690613Y-106639595D01*
X118556038Y-106750038D01*
X118445595Y-106884613D01*
X118363528Y-107038149D01*
X118312992Y-107204745D01*
X118295928Y-107377999D01*
X118295928Y-108078001D01*
X118312992Y-108251255D01*
X118363528Y-108417851D01*
X118445595Y-108571387D01*
X118556038Y-108705962D01*
X118582891Y-108728000D01*
X118556038Y-108750038D01*
X118482579Y-108839548D01*
X118447533Y-108843000D01*
X118095854Y-108843000D01*
X118019562Y-108750038D01*
X117992709Y-108728000D01*
X118019562Y-108705962D01*
X118130005Y-108571387D01*
X118212072Y-108417851D01*
X118262608Y-108251255D01*
X118279672Y-108078001D01*
X118279672Y-107377999D01*
X118262608Y-107204745D01*
X118212072Y-107038149D01*
X118130005Y-106884613D01*
X118019562Y-106750038D01*
X117884987Y-106639595D01*
X117731451Y-106557528D01*
X117564855Y-106506992D01*
X117391601Y-106489928D01*
X116491599Y-106489928D01*
X116318345Y-106506992D01*
X116151749Y-106557528D01*
X115998213Y-106639595D01*
X115863638Y-106750038D01*
X115787346Y-106843000D01*
X112031579Y-106843000D01*
X108962000Y-103773422D01*
X108962000Y-102792685D01*
X108972114Y-102802799D01*
X109198957Y-102954371D01*
X109451011Y-103058775D01*
X109718589Y-103112000D01*
X109991411Y-103112000D01*
X110258989Y-103058775D01*
X110511043Y-102954371D01*
X110737886Y-102802799D01*
X110843553Y-102697132D01*
X111010000Y-102863578D01*
G04 #@! TA.AperFunction,Conductor*
D23*
G36*
X111010000Y-102863578D02*
G01*
X111010000Y-103133411D01*
X111063225Y-103400989D01*
X111167629Y-103653043D01*
X111319201Y-103879886D01*
X111512114Y-104072799D01*
X111738957Y-104224371D01*
X111991011Y-104328775D01*
X112258589Y-104382000D01*
X112531411Y-104382000D01*
X112798989Y-104328775D01*
X113051043Y-104224371D01*
X113277886Y-104072799D01*
X113468685Y-103882000D01*
X116219422Y-103882000D01*
X118749000Y-106411579D01*
X118749000Y-106608386D01*
X118690613Y-106639595D01*
X118556038Y-106750038D01*
X118445595Y-106884613D01*
X118363528Y-107038149D01*
X118312992Y-107204745D01*
X118295928Y-107377999D01*
X118295928Y-108078001D01*
X118312992Y-108251255D01*
X118363528Y-108417851D01*
X118445595Y-108571387D01*
X118556038Y-108705962D01*
X118582891Y-108728000D01*
X118556038Y-108750038D01*
X118482579Y-108839548D01*
X118447533Y-108843000D01*
X118095854Y-108843000D01*
X118019562Y-108750038D01*
X117992709Y-108728000D01*
X118019562Y-108705962D01*
X118130005Y-108571387D01*
X118212072Y-108417851D01*
X118262608Y-108251255D01*
X118279672Y-108078001D01*
X118279672Y-107377999D01*
X118262608Y-107204745D01*
X118212072Y-107038149D01*
X118130005Y-106884613D01*
X118019562Y-106750038D01*
X117884987Y-106639595D01*
X117731451Y-106557528D01*
X117564855Y-106506992D01*
X117391601Y-106489928D01*
X116491599Y-106489928D01*
X116318345Y-106506992D01*
X116151749Y-106557528D01*
X115998213Y-106639595D01*
X115863638Y-106750038D01*
X115787346Y-106843000D01*
X112031579Y-106843000D01*
X108962000Y-103773422D01*
X108962000Y-102792685D01*
X108972114Y-102802799D01*
X109198957Y-102954371D01*
X109451011Y-103058775D01*
X109718589Y-103112000D01*
X109991411Y-103112000D01*
X110258989Y-103058775D01*
X110511043Y-102954371D01*
X110737886Y-102802799D01*
X110843553Y-102697132D01*
X111010000Y-102863578D01*
G37*
G04 #@! TD.AperFunction*
D22*
X117105866Y-95923309D02*
X117144448Y-95924934D01*
X117192032Y-95929620D01*
X117223800Y-95933200D01*
X117229135Y-95933275D01*
X117234467Y-95933800D01*
X117266563Y-95933800D01*
X117335982Y-95934774D01*
X117341265Y-95933800D01*
X117646062Y-95933800D01*
X117644388Y-95939318D01*
X117632128Y-96063800D01*
X117632128Y-96823800D01*
X117644388Y-96948282D01*
X117680698Y-97067980D01*
X117686482Y-97078800D01*
X117680698Y-97089620D01*
X117644388Y-97209318D01*
X117632128Y-97333800D01*
X117632128Y-98093800D01*
X117644388Y-98218282D01*
X117653646Y-98248800D01*
X113741134Y-98248800D01*
X113780000Y-98053411D01*
X113780000Y-97780589D01*
X113726775Y-97513011D01*
X113622371Y-97260957D01*
X113470799Y-97034114D01*
X113277886Y-96841201D01*
X113051043Y-96689629D01*
X112948127Y-96647000D01*
X113051043Y-96604371D01*
X113277886Y-96452799D01*
X113470799Y-96259886D01*
X113622371Y-96033043D01*
X113663479Y-95933800D01*
X113961039Y-95933800D01*
X113965374Y-95943134D01*
X113993806Y-95982038D01*
X113997122Y-95987315D01*
X114019845Y-96029826D01*
X114060565Y-96079443D01*
X114099882Y-96130190D01*
X114136271Y-96161803D01*
X114140680Y-96166212D01*
X114172289Y-96202596D01*
X114223031Y-96241909D01*
X114272652Y-96282633D01*
X114315161Y-96305355D01*
X114320442Y-96308673D01*
X114359344Y-96337104D01*
X114417564Y-96364142D01*
X114475014Y-96392808D01*
X114521504Y-96405498D01*
X114527392Y-96407558D01*
X114571659Y-96426625D01*
X114634439Y-96440030D01*
X114696805Y-96455188D01*
X114735405Y-96456814D01*
X114782968Y-96461498D01*
X114814752Y-96465079D01*
X114820083Y-96465154D01*
X114825406Y-96465678D01*
X114857498Y-96465678D01*
X114861710Y-96465737D01*
X114866667Y-96466651D01*
X114896800Y-96466229D01*
X114926934Y-96466651D01*
X114931891Y-96465737D01*
X114936102Y-96465678D01*
X114968194Y-96465678D01*
X114973517Y-96465154D01*
X114978848Y-96465079D01*
X115010632Y-96461498D01*
X115058196Y-96456814D01*
X115096794Y-96455188D01*
X115159153Y-96440032D01*
X115221941Y-96426625D01*
X115266208Y-96407558D01*
X115272094Y-96405498D01*
X115318585Y-96392808D01*
X115376035Y-96364142D01*
X115434255Y-96337104D01*
X115473159Y-96308672D01*
X115478436Y-96305356D01*
X115496800Y-96295540D01*
X115515161Y-96305355D01*
X115520442Y-96308673D01*
X115559344Y-96337104D01*
X115617564Y-96364142D01*
X115675014Y-96392808D01*
X115721504Y-96405498D01*
X115727392Y-96407558D01*
X115771659Y-96426625D01*
X115834439Y-96440030D01*
X115896805Y-96455188D01*
X115935405Y-96456814D01*
X115982968Y-96461498D01*
X116014752Y-96465079D01*
X116020083Y-96465154D01*
X116025406Y-96465678D01*
X116057498Y-96465678D01*
X116061710Y-96465737D01*
X116066667Y-96466651D01*
X116096800Y-96466229D01*
X116126934Y-96466651D01*
X116131891Y-96465737D01*
X116136102Y-96465678D01*
X116168194Y-96465678D01*
X116173517Y-96465154D01*
X116178848Y-96465079D01*
X116210632Y-96461498D01*
X116258196Y-96456814D01*
X116296794Y-96455188D01*
X116359153Y-96440032D01*
X116421941Y-96426625D01*
X116466208Y-96407558D01*
X116472094Y-96405498D01*
X116518585Y-96392808D01*
X116576035Y-96364142D01*
X116634255Y-96337104D01*
X116673159Y-96308672D01*
X116678436Y-96305356D01*
X116720947Y-96282633D01*
X116770564Y-96241913D01*
X116821311Y-96202596D01*
X116852924Y-96166207D01*
X116857333Y-96161798D01*
X116893717Y-96130189D01*
X116933030Y-96079447D01*
X116973754Y-96029826D01*
X116996476Y-95987317D01*
X116999794Y-95982036D01*
X117028225Y-95943134D01*
X117044373Y-95908363D01*
X117105866Y-95923309D01*
G04 #@! TA.AperFunction,Conductor*
D23*
G36*
X117105866Y-95923309D02*
G01*
X117144448Y-95924934D01*
X117192032Y-95929620D01*
X117223800Y-95933200D01*
X117229135Y-95933275D01*
X117234467Y-95933800D01*
X117266563Y-95933800D01*
X117335982Y-95934774D01*
X117341265Y-95933800D01*
X117646062Y-95933800D01*
X117644388Y-95939318D01*
X117632128Y-96063800D01*
X117632128Y-96823800D01*
X117644388Y-96948282D01*
X117680698Y-97067980D01*
X117686482Y-97078800D01*
X117680698Y-97089620D01*
X117644388Y-97209318D01*
X117632128Y-97333800D01*
X117632128Y-98093800D01*
X117644388Y-98218282D01*
X117653646Y-98248800D01*
X113741134Y-98248800D01*
X113780000Y-98053411D01*
X113780000Y-97780589D01*
X113726775Y-97513011D01*
X113622371Y-97260957D01*
X113470799Y-97034114D01*
X113277886Y-96841201D01*
X113051043Y-96689629D01*
X112948127Y-96647000D01*
X113051043Y-96604371D01*
X113277886Y-96452799D01*
X113470799Y-96259886D01*
X113622371Y-96033043D01*
X113663479Y-95933800D01*
X113961039Y-95933800D01*
X113965374Y-95943134D01*
X113993806Y-95982038D01*
X113997122Y-95987315D01*
X114019845Y-96029826D01*
X114060565Y-96079443D01*
X114099882Y-96130190D01*
X114136271Y-96161803D01*
X114140680Y-96166212D01*
X114172289Y-96202596D01*
X114223031Y-96241909D01*
X114272652Y-96282633D01*
X114315161Y-96305355D01*
X114320442Y-96308673D01*
X114359344Y-96337104D01*
X114417564Y-96364142D01*
X114475014Y-96392808D01*
X114521504Y-96405498D01*
X114527392Y-96407558D01*
X114571659Y-96426625D01*
X114634439Y-96440030D01*
X114696805Y-96455188D01*
X114735405Y-96456814D01*
X114782968Y-96461498D01*
X114814752Y-96465079D01*
X114820083Y-96465154D01*
X114825406Y-96465678D01*
X114857498Y-96465678D01*
X114861710Y-96465737D01*
X114866667Y-96466651D01*
X114896800Y-96466229D01*
X114926934Y-96466651D01*
X114931891Y-96465737D01*
X114936102Y-96465678D01*
X114968194Y-96465678D01*
X114973517Y-96465154D01*
X114978848Y-96465079D01*
X115010632Y-96461498D01*
X115058196Y-96456814D01*
X115096794Y-96455188D01*
X115159153Y-96440032D01*
X115221941Y-96426625D01*
X115266208Y-96407558D01*
X115272094Y-96405498D01*
X115318585Y-96392808D01*
X115376035Y-96364142D01*
X115434255Y-96337104D01*
X115473159Y-96308672D01*
X115478436Y-96305356D01*
X115496800Y-96295540D01*
X115515161Y-96305355D01*
X115520442Y-96308673D01*
X115559344Y-96337104D01*
X115617564Y-96364142D01*
X115675014Y-96392808D01*
X115721504Y-96405498D01*
X115727392Y-96407558D01*
X115771659Y-96426625D01*
X115834439Y-96440030D01*
X115896805Y-96455188D01*
X115935405Y-96456814D01*
X115982968Y-96461498D01*
X116014752Y-96465079D01*
X116020083Y-96465154D01*
X116025406Y-96465678D01*
X116057498Y-96465678D01*
X116061710Y-96465737D01*
X116066667Y-96466651D01*
X116096800Y-96466229D01*
X116126934Y-96466651D01*
X116131891Y-96465737D01*
X116136102Y-96465678D01*
X116168194Y-96465678D01*
X116173517Y-96465154D01*
X116178848Y-96465079D01*
X116210632Y-96461498D01*
X116258196Y-96456814D01*
X116296794Y-96455188D01*
X116359153Y-96440032D01*
X116421941Y-96426625D01*
X116466208Y-96407558D01*
X116472094Y-96405498D01*
X116518585Y-96392808D01*
X116576035Y-96364142D01*
X116634255Y-96337104D01*
X116673159Y-96308672D01*
X116678436Y-96305356D01*
X116720947Y-96282633D01*
X116770564Y-96241913D01*
X116821311Y-96202596D01*
X116852924Y-96166207D01*
X116857333Y-96161798D01*
X116893717Y-96130189D01*
X116933030Y-96079447D01*
X116973754Y-96029826D01*
X116996476Y-95987317D01*
X116999794Y-95982036D01*
X117028225Y-95943134D01*
X117044373Y-95908363D01*
X117105866Y-95923309D01*
G37*
G04 #@! TD.AperFunction*
M02*
