G04 #@! TF.GenerationSoftware,KiCad,Pcbnew,(5.1.12)-1*
G04 #@! TF.CreationDate,2021-12-16T15:17:12+01:00*
G04 #@! TF.ProjectId,rj45_mag_sma,726a3435-5f6d-4616-975f-736d612e6b69,rev?*
G04 #@! TF.SameCoordinates,Original*
G04 #@! TF.FileFunction,Paste,Top*
G04 #@! TF.FilePolarity,Positive*
%FSLAX46Y46*%
G04 Gerber Fmt 4.6, Leading zero omitted, Abs format (unit mm)*
G04 Created by KiCad (PCBNEW (5.1.12)-1) date 2021-12-16 15:17:12*
%MOMM*%
%LPD*%
G01*
G04 APERTURE LIST*
%ADD10R,1.700000X0.760000*%
G04 APERTURE END LIST*
D10*
X119120200Y-92633800D03*
X119120200Y-93903800D03*
X119120200Y-95173800D03*
X119120200Y-96443800D03*
X119120200Y-100253800D03*
X119120200Y-97713800D03*
X119120200Y-98983800D03*
X119120200Y-101523800D03*
X127920200Y-95173800D03*
X127920200Y-98983800D03*
X127920200Y-101523800D03*
X127920200Y-93903800D03*
X127920200Y-100253800D03*
X127920200Y-96443800D03*
X127920200Y-92633800D03*
X127920200Y-97713800D03*
G36*
G01*
X119183999Y-107128000D02*
X120084001Y-107128000D01*
G75*
G02*
X120334000Y-107377999I0J-249999D01*
G01*
X120334000Y-108078001D01*
G75*
G02*
X120084001Y-108328000I-249999J0D01*
G01*
X119183999Y-108328000D01*
G75*
G02*
X118934000Y-108078001I0J249999D01*
G01*
X118934000Y-107377999D01*
G75*
G02*
X119183999Y-107128000I249999J0D01*
G01*
G37*
G36*
G01*
X119183999Y-109128000D02*
X120084001Y-109128000D01*
G75*
G02*
X120334000Y-109377999I0J-249999D01*
G01*
X120334000Y-110078001D01*
G75*
G02*
X120084001Y-110328000I-249999J0D01*
G01*
X119183999Y-110328000D01*
G75*
G02*
X118934000Y-110078001I0J249999D01*
G01*
X118934000Y-109377999D01*
G75*
G02*
X119183999Y-109128000I249999J0D01*
G01*
G37*
G36*
G01*
X116491599Y-109128000D02*
X117391601Y-109128000D01*
G75*
G02*
X117641600Y-109377999I0J-249999D01*
G01*
X117641600Y-110078001D01*
G75*
G02*
X117391601Y-110328000I-249999J0D01*
G01*
X116491599Y-110328000D01*
G75*
G02*
X116241600Y-110078001I0J249999D01*
G01*
X116241600Y-109377999D01*
G75*
G02*
X116491599Y-109128000I249999J0D01*
G01*
G37*
G36*
G01*
X116491599Y-107128000D02*
X117391601Y-107128000D01*
G75*
G02*
X117641600Y-107377999I0J-249999D01*
G01*
X117641600Y-108078001D01*
G75*
G02*
X117391601Y-108328000I-249999J0D01*
G01*
X116491599Y-108328000D01*
G75*
G02*
X116241600Y-108078001I0J249999D01*
G01*
X116241600Y-107377999D01*
G75*
G02*
X116491599Y-107128000I249999J0D01*
G01*
G37*
G36*
G01*
X117739000Y-111276100D02*
X118989000Y-111276100D01*
G75*
G02*
X119239000Y-111526100I0J-250000D01*
G01*
X119239000Y-112451100D01*
G75*
G02*
X118989000Y-112701100I-250000J0D01*
G01*
X117739000Y-112701100D01*
G75*
G02*
X117489000Y-112451100I0J250000D01*
G01*
X117489000Y-111526100D01*
G75*
G02*
X117739000Y-111276100I250000J0D01*
G01*
G37*
G36*
G01*
X117739000Y-114251100D02*
X118989000Y-114251100D01*
G75*
G02*
X119239000Y-114501100I0J-250000D01*
G01*
X119239000Y-115426100D01*
G75*
G02*
X118989000Y-115676100I-250000J0D01*
G01*
X117739000Y-115676100D01*
G75*
G02*
X117489000Y-115426100I0J250000D01*
G01*
X117489000Y-114501100D01*
G75*
G02*
X117739000Y-114251100I250000J0D01*
G01*
G37*
G36*
G01*
X126212000Y-104681000D02*
X126212000Y-105631000D01*
G75*
G02*
X125962000Y-105881000I-250000J0D01*
G01*
X125287000Y-105881000D01*
G75*
G02*
X125037000Y-105631000I0J250000D01*
G01*
X125037000Y-104681000D01*
G75*
G02*
X125287000Y-104431000I250000J0D01*
G01*
X125962000Y-104431000D01*
G75*
G02*
X126212000Y-104681000I0J-250000D01*
G01*
G37*
G36*
G01*
X124137000Y-104681000D02*
X124137000Y-105631000D01*
G75*
G02*
X123887000Y-105881000I-250000J0D01*
G01*
X123212000Y-105881000D01*
G75*
G02*
X122962000Y-105631000I0J250000D01*
G01*
X122962000Y-104681000D01*
G75*
G02*
X123212000Y-104431000I250000J0D01*
G01*
X123887000Y-104431000D01*
G75*
G02*
X124137000Y-104681000I0J-250000D01*
G01*
G37*
G36*
G01*
X124899000Y-88552000D02*
X124899000Y-89502000D01*
G75*
G02*
X124649000Y-89752000I-250000J0D01*
G01*
X123974000Y-89752000D01*
G75*
G02*
X123724000Y-89502000I0J250000D01*
G01*
X123724000Y-88552000D01*
G75*
G02*
X123974000Y-88302000I250000J0D01*
G01*
X124649000Y-88302000D01*
G75*
G02*
X124899000Y-88552000I0J-250000D01*
G01*
G37*
G36*
G01*
X126974000Y-88552000D02*
X126974000Y-89502000D01*
G75*
G02*
X126724000Y-89752000I-250000J0D01*
G01*
X126049000Y-89752000D01*
G75*
G02*
X125799000Y-89502000I0J250000D01*
G01*
X125799000Y-88552000D01*
G75*
G02*
X126049000Y-88302000I250000J0D01*
G01*
X126724000Y-88302000D01*
G75*
G02*
X126974000Y-88552000I0J-250000D01*
G01*
G37*
G36*
G01*
X119624000Y-83099000D02*
X118374000Y-83099000D01*
G75*
G02*
X118124000Y-82849000I0J250000D01*
G01*
X118124000Y-81924000D01*
G75*
G02*
X118374000Y-81674000I250000J0D01*
G01*
X119624000Y-81674000D01*
G75*
G02*
X119874000Y-81924000I0J-250000D01*
G01*
X119874000Y-82849000D01*
G75*
G02*
X119624000Y-83099000I-250000J0D01*
G01*
G37*
G36*
G01*
X119624000Y-80124000D02*
X118374000Y-80124000D01*
G75*
G02*
X118124000Y-79874000I0J250000D01*
G01*
X118124000Y-78949000D01*
G75*
G02*
X118374000Y-78699000I250000J0D01*
G01*
X119624000Y-78699000D01*
G75*
G02*
X119874000Y-78949000I0J-250000D01*
G01*
X119874000Y-79874000D01*
G75*
G02*
X119624000Y-80124000I-250000J0D01*
G01*
G37*
G36*
G01*
X118306001Y-87095999D02*
X117405999Y-87095999D01*
G75*
G02*
X117156000Y-86846000I0J249999D01*
G01*
X117156000Y-86145998D01*
G75*
G02*
X117405999Y-85895999I249999J0D01*
G01*
X118306001Y-85895999D01*
G75*
G02*
X118556000Y-86145998I0J-249999D01*
G01*
X118556000Y-86846000D01*
G75*
G02*
X118306001Y-87095999I-249999J0D01*
G01*
G37*
G36*
G01*
X118306001Y-85095999D02*
X117405999Y-85095999D01*
G75*
G02*
X117156000Y-84846000I0J249999D01*
G01*
X117156000Y-84145998D01*
G75*
G02*
X117405999Y-83895999I249999J0D01*
G01*
X118306001Y-83895999D01*
G75*
G02*
X118556000Y-84145998I0J-249999D01*
G01*
X118556000Y-84846000D01*
G75*
G02*
X118306001Y-85095999I-249999J0D01*
G01*
G37*
G36*
G01*
X120592001Y-85095999D02*
X119691999Y-85095999D01*
G75*
G02*
X119442000Y-84846000I0J249999D01*
G01*
X119442000Y-84145998D01*
G75*
G02*
X119691999Y-83895999I249999J0D01*
G01*
X120592001Y-83895999D01*
G75*
G02*
X120842000Y-84145998I0J-249999D01*
G01*
X120842000Y-84846000D01*
G75*
G02*
X120592001Y-85095999I-249999J0D01*
G01*
G37*
G36*
G01*
X120592001Y-87095999D02*
X119691999Y-87095999D01*
G75*
G02*
X119442000Y-86846000I0J249999D01*
G01*
X119442000Y-86145998D01*
G75*
G02*
X119691999Y-85895999I249999J0D01*
G01*
X120592001Y-85895999D01*
G75*
G02*
X120842000Y-86145998I0J-249999D01*
G01*
X120842000Y-86846000D01*
G75*
G02*
X120592001Y-87095999I-249999J0D01*
G01*
G37*
M02*
