%FSLAX45Y45*%
G04 Gerber Fmt 4.5, Leading zero omitted, Abs format (unit mm)*
G04 Created by KiCad (PCBNEW (5.1.12)-1) date 2021-12-16 15:17:34*
%MOMM*%
%LPD*%
G01*
G04 APERTURE LIST*
%TA.AperFunction,Profile*%
%ADD10C,0.050000*%
%TD*%
%ADD11C,0.200000*%
%ADD12C,0.300000*%
G04 APERTURE END LIST*
D10*
X9525000Y-11772900D02*
X9525000Y-7672900D01*
X14525000Y-11772900D02*
X9525000Y-11772900D01*
X14525000Y-7672900D02*
X14525000Y-11772900D01*
X9525000Y-7672900D02*
X14525000Y-7672900D01*
D11*
X11422700Y-8527100D02*
X11462700Y-8567100D01*
X11462700Y-8527100D02*
X11422700Y-8567100D01*
X12172000Y-8501700D02*
X12212000Y-8541700D01*
X12212000Y-8501700D02*
X12172000Y-8541700D01*
X12993514Y-9029179D02*
X13033514Y-9069179D01*
X13033514Y-9029179D02*
X12993514Y-9069179D01*
X13023991Y-10318415D02*
X13063991Y-10358415D01*
X13063991Y-10318415D02*
X13023991Y-10358415D01*
X13027520Y-8777855D02*
X13067520Y-8817855D01*
X13067520Y-8777855D02*
X13027520Y-8817855D01*
X13027520Y-10454359D02*
X13067520Y-10494359D01*
X13067520Y-10454359D02*
X13027520Y-10494359D01*
X13030900Y-10007900D02*
X13070900Y-10047900D01*
X13070900Y-10007900D02*
X13030900Y-10047900D01*
X13033211Y-9327412D02*
X13073211Y-9367412D01*
X13073211Y-9327412D02*
X13033211Y-9367412D01*
X13063575Y-9621929D02*
X13103575Y-9661929D01*
X13103575Y-9621929D02*
X13063575Y-9661929D01*
X13146633Y-9234914D02*
X13186633Y-9274914D01*
X13186633Y-9234914D02*
X13146633Y-9274914D01*
X13161847Y-10085270D02*
X13201847Y-10125270D01*
X13201847Y-10085270D02*
X13161847Y-10125270D01*
X13185900Y-9732900D02*
X13225900Y-9772900D01*
X13225900Y-9732900D02*
X13185900Y-9772900D01*
X13239865Y-9122050D02*
X13279865Y-9162050D01*
X13279865Y-9122050D02*
X13239865Y-9162050D01*
X13286939Y-10318338D02*
X13326939Y-10358338D01*
X13326939Y-10318338D02*
X13286939Y-10358338D01*
X13287520Y-8777855D02*
X13327520Y-8817855D01*
X13327520Y-8777855D02*
X13287520Y-8817855D01*
X13287520Y-8940180D02*
X13327520Y-8980180D01*
X13327520Y-8940180D02*
X13287520Y-8980180D01*
X13287520Y-10454637D02*
X13327520Y-10494637D01*
X13327520Y-10454637D02*
X13287520Y-10494637D01*
X13323613Y-10104291D02*
X13363613Y-10144291D01*
X13363613Y-10104291D02*
X13323613Y-10144291D01*
X13333010Y-9517375D02*
X13373010Y-9557375D01*
X13373010Y-9517375D02*
X13333010Y-9557375D01*
X13339923Y-9805368D02*
X13379923Y-9845368D01*
X13379923Y-9805368D02*
X13339923Y-9845368D01*
X10073000Y-8128000D02*
G75*
G03*
X10073000Y-8128000I-40000J0D01*
G01*
X10200000Y-11264900D02*
G75*
G03*
X10200000Y-11264900I-40000J0D01*
G01*
X11216000Y-11264900D02*
G75*
G03*
X11216000Y-11264900I-40000J0D01*
G01*
X11304900Y-8978900D02*
G75*
G03*
X11304900Y-8978900I-40000J0D01*
G01*
X11558900Y-7962900D02*
G75*
G03*
X11558900Y-7962900I-40000J0D01*
G01*
X11632560Y-9733280D02*
G75*
G03*
X11632560Y-9733280I-40000J0D01*
G01*
X11668120Y-10505440D02*
G75*
G03*
X11668120Y-10505440I-40000J0D01*
G01*
X12320900Y-7962900D02*
G75*
G03*
X12320900Y-7962900I-40000J0D01*
G01*
X12574900Y-11264900D02*
G75*
G03*
X12574900Y-11264900I-40000J0D01*
G01*
X14098900Y-8216900D02*
G75*
G03*
X14098900Y-8216900I-40000J0D01*
G01*
X14098900Y-11010900D02*
G75*
G03*
X14098900Y-11010900I-40000J0D01*
G01*
X14098900Y-11455400D02*
G75*
G03*
X14098900Y-11455400I-40000J0D01*
G01*
X10985500Y-9365700D02*
X10985500Y-9455700D01*
X10940500Y-9410700D02*
X11030500Y-9410700D01*
X10985500Y-9619700D02*
X10985500Y-9709700D01*
X10940500Y-9664700D02*
X11030500Y-9664700D01*
X10985500Y-9873700D02*
X10985500Y-9963700D01*
X10940500Y-9918700D02*
X11030500Y-9918700D01*
X10985500Y-10127700D02*
X10985500Y-10217700D01*
X10940500Y-10172700D02*
X11030500Y-10172700D01*
X11239500Y-9492700D02*
X11239500Y-9582700D01*
X11194500Y-9537700D02*
X11284500Y-9537700D01*
X11239500Y-9746700D02*
X11239500Y-9836700D01*
X11194500Y-9791700D02*
X11284500Y-9791700D01*
X11239500Y-10000700D02*
X11239500Y-10090700D01*
X11194500Y-10045700D02*
X11284500Y-10045700D01*
X11239500Y-10254700D02*
X11239500Y-10344700D01*
X11194500Y-10299700D02*
X11284500Y-10299700D01*
X13230553Y-8363913D02*
X13230553Y-8257846D01*
X13124486Y-8257846D01*
X13124486Y-8363913D01*
X13230553Y-8363913D01*
X13230553Y-11072914D02*
X13230553Y-10966847D01*
X13124486Y-10966847D01*
X13124486Y-11072914D01*
X13230553Y-11072914D01*
X13928253Y-9292214D02*
X13928253Y-9186147D01*
X13822186Y-9186147D01*
X13822186Y-9292214D01*
X13928253Y-9292214D01*
X13928253Y-10193914D02*
X13928253Y-10087847D01*
X13822186Y-10087847D01*
X13822186Y-10193914D01*
X13928253Y-10193914D01*
X10045500Y-9158200D02*
X10125500Y-9078200D01*
X10045500Y-8998200D01*
X9965500Y-9078200D01*
X10045500Y-9158200D01*
X10045500Y-10712200D02*
X10125500Y-10632200D01*
X10045500Y-10552200D01*
X9965500Y-10632200D01*
X10045500Y-10712200D01*
X12838520Y-7971880D02*
X13008520Y-8141880D01*
X13008520Y-7971880D02*
X12838520Y-8141880D01*
X13008520Y-8056880D02*
G75*
G03*
X13008520Y-8056880I-85000J0D01*
G01*
X12838520Y-8479880D02*
X13008520Y-8649880D01*
X13008520Y-8479880D02*
X12838520Y-8649880D01*
X13008520Y-8564880D02*
G75*
G03*
X13008520Y-8564880I-85000J0D01*
G01*
X12838520Y-10680880D02*
X13008520Y-10850880D01*
X13008520Y-10680880D02*
X12838520Y-10850880D01*
X13008520Y-10765880D02*
G75*
G03*
X13008520Y-10765880I-85000J0D01*
G01*
X12838520Y-11188880D02*
X13008520Y-11358880D01*
X13008520Y-11188880D02*
X12838520Y-11358880D01*
X13008520Y-11273880D02*
G75*
G03*
X13008520Y-11273880I-85000J0D01*
G01*
X13346520Y-7971880D02*
X13516520Y-8141880D01*
X13516520Y-7971880D02*
X13346520Y-8141880D01*
X13516520Y-8056880D02*
G75*
G03*
X13516520Y-8056880I-85000J0D01*
G01*
X13346520Y-8479880D02*
X13516520Y-8649880D01*
X13516520Y-8479880D02*
X13346520Y-8649880D01*
X13516520Y-8564880D02*
G75*
G03*
X13516520Y-8564880I-85000J0D01*
G01*
X13346520Y-10680880D02*
X13516520Y-10850880D01*
X13516520Y-10680880D02*
X13346520Y-10850880D01*
X13516520Y-10765880D02*
G75*
G03*
X13516520Y-10765880I-85000J0D01*
G01*
X13346520Y-11188880D02*
X13516520Y-11358880D01*
X13516520Y-11188880D02*
X13346520Y-11358880D01*
X13516520Y-11273880D02*
G75*
G03*
X13516520Y-11273880I-85000J0D01*
G01*
X13536220Y-8900180D02*
X13706220Y-9070180D01*
X13706220Y-8900180D02*
X13536220Y-9070180D01*
X13706220Y-8985180D02*
G75*
G03*
X13706220Y-8985180I-85000J0D01*
G01*
X13536220Y-9408180D02*
X13706220Y-9578180D01*
X13706220Y-9408180D02*
X13536220Y-9578180D01*
X13706220Y-9493180D02*
G75*
G03*
X13706220Y-9493180I-85000J0D01*
G01*
X13536220Y-9801880D02*
X13706220Y-9971880D01*
X13706220Y-9801880D02*
X13536220Y-9971880D01*
X13706220Y-9886880D02*
G75*
G03*
X13706220Y-9886880I-85000J0D01*
G01*
X13536220Y-10309880D02*
X13706220Y-10479880D01*
X13706220Y-10309880D02*
X13536220Y-10479880D01*
X13706220Y-10394880D02*
G75*
G03*
X13706220Y-10394880I-85000J0D01*
G01*
X14044220Y-8900180D02*
X14214220Y-9070180D01*
X14214220Y-8900180D02*
X14044220Y-9070180D01*
X14214220Y-8985180D02*
G75*
G03*
X14214220Y-8985180I-85000J0D01*
G01*
X14044220Y-9408180D02*
X14214220Y-9578180D01*
X14214220Y-9408180D02*
X14044220Y-9578180D01*
X14214220Y-9493180D02*
G75*
G03*
X14214220Y-9493180I-85000J0D01*
G01*
X14044220Y-9801880D02*
X14214220Y-9971880D01*
X14214220Y-9801880D02*
X14044220Y-9971880D01*
X14214220Y-9886880D02*
G75*
G03*
X14214220Y-9886880I-85000J0D01*
G01*
X14044220Y-10309880D02*
X14214220Y-10479880D01*
X14214220Y-10309880D02*
X14044220Y-10479880D01*
X14214220Y-10394880D02*
G75*
G03*
X14214220Y-10394880I-85000J0D01*
G01*
X10529700Y-7964300D02*
X10704700Y-8139300D01*
X10704700Y-7964300D02*
X10529700Y-8139300D01*
X10617200Y-7964300D02*
X10617200Y-8139300D01*
X10529700Y-8051800D02*
X10704700Y-8051800D01*
X10917700Y-7964300D02*
X11092700Y-8139300D01*
X11092700Y-7964300D02*
X10917700Y-8139300D01*
X11005200Y-7964300D02*
X11005200Y-8139300D01*
X10917700Y-8051800D02*
X11092700Y-8051800D01*
D12*
X9808928Y-12241114D02*
X9808928Y-11941114D01*
X9880357Y-11941114D01*
X9923214Y-11955400D01*
X9951786Y-11983971D01*
X9966071Y-12012543D01*
X9980357Y-12069686D01*
X9980357Y-12112543D01*
X9966071Y-12169686D01*
X9951786Y-12198257D01*
X9923214Y-12226829D01*
X9880357Y-12241114D01*
X9808928Y-12241114D01*
X10108928Y-12241114D02*
X10108928Y-12041114D01*
X10108928Y-12098257D02*
X10123214Y-12069686D01*
X10137500Y-12055400D01*
X10166071Y-12041114D01*
X10194643Y-12041114D01*
X10294643Y-12241114D02*
X10294643Y-12041114D01*
X10294643Y-11941114D02*
X10280357Y-11955400D01*
X10294643Y-11969686D01*
X10308928Y-11955400D01*
X10294643Y-11941114D01*
X10294643Y-11969686D01*
X10480357Y-12241114D02*
X10451786Y-12226829D01*
X10437500Y-12198257D01*
X10437500Y-11941114D01*
X10637500Y-12241114D02*
X10608928Y-12226829D01*
X10594643Y-12198257D01*
X10594643Y-11941114D01*
X10980357Y-12241114D02*
X10980357Y-11941114D01*
X11080357Y-12155400D01*
X11180357Y-11941114D01*
X11180357Y-12241114D01*
X11451786Y-12241114D02*
X11451786Y-12083971D01*
X11437500Y-12055400D01*
X11408928Y-12041114D01*
X11351786Y-12041114D01*
X11323214Y-12055400D01*
X11451786Y-12226829D02*
X11423214Y-12241114D01*
X11351786Y-12241114D01*
X11323214Y-12226829D01*
X11308928Y-12198257D01*
X11308928Y-12169686D01*
X11323214Y-12141114D01*
X11351786Y-12126829D01*
X11423214Y-12126829D01*
X11451786Y-12112543D01*
X11594643Y-12041114D02*
X11594643Y-12341114D01*
X11594643Y-12055400D02*
X11623214Y-12041114D01*
X11680357Y-12041114D01*
X11708928Y-12055400D01*
X11723214Y-12069686D01*
X11737500Y-12098257D01*
X11737500Y-12183971D01*
X11723214Y-12212543D01*
X11708928Y-12226829D01*
X11680357Y-12241114D01*
X11623214Y-12241114D01*
X11594643Y-12226829D01*
X11866071Y-12212543D02*
X11880357Y-12226829D01*
X11866071Y-12241114D01*
X11851786Y-12226829D01*
X11866071Y-12212543D01*
X11866071Y-12241114D01*
X11866071Y-12055400D02*
X11880357Y-12069686D01*
X11866071Y-12083971D01*
X11851786Y-12069686D01*
X11866071Y-12055400D01*
X11866071Y-12083971D01*
X9482500Y-12715400D02*
X9522500Y-12755400D01*
X9522500Y-12715400D02*
X9482500Y-12755400D01*
X9866071Y-12571114D02*
X9894643Y-12571114D01*
X9923214Y-12585400D01*
X9937500Y-12599686D01*
X9951786Y-12628257D01*
X9966071Y-12685400D01*
X9966071Y-12756829D01*
X9951786Y-12813971D01*
X9937500Y-12842543D01*
X9923214Y-12856829D01*
X9894643Y-12871114D01*
X9866071Y-12871114D01*
X9837500Y-12856829D01*
X9823214Y-12842543D01*
X9808928Y-12813971D01*
X9794643Y-12756829D01*
X9794643Y-12685400D01*
X9808928Y-12628257D01*
X9823214Y-12599686D01*
X9837500Y-12585400D01*
X9866071Y-12571114D01*
X10094643Y-12842543D02*
X10108928Y-12856829D01*
X10094643Y-12871114D01*
X10080357Y-12856829D01*
X10094643Y-12842543D01*
X10094643Y-12871114D01*
X10366071Y-12671114D02*
X10366071Y-12871114D01*
X10294643Y-12556829D02*
X10223214Y-12771114D01*
X10408928Y-12771114D01*
X10580357Y-12571114D02*
X10608928Y-12571114D01*
X10637500Y-12585400D01*
X10651786Y-12599686D01*
X10666071Y-12628257D01*
X10680357Y-12685400D01*
X10680357Y-12756829D01*
X10666071Y-12813971D01*
X10651786Y-12842543D01*
X10637500Y-12856829D01*
X10608928Y-12871114D01*
X10580357Y-12871114D01*
X10551786Y-12856829D01*
X10537500Y-12842543D01*
X10523214Y-12813971D01*
X10508928Y-12756829D01*
X10508928Y-12685400D01*
X10523214Y-12628257D01*
X10537500Y-12599686D01*
X10551786Y-12585400D01*
X10580357Y-12571114D01*
X10866071Y-12571114D02*
X10894643Y-12571114D01*
X10923214Y-12585400D01*
X10937500Y-12599686D01*
X10951786Y-12628257D01*
X10966071Y-12685400D01*
X10966071Y-12756829D01*
X10951786Y-12813971D01*
X10937500Y-12842543D01*
X10923214Y-12856829D01*
X10894643Y-12871114D01*
X10866071Y-12871114D01*
X10837500Y-12856829D01*
X10823214Y-12842543D01*
X10808928Y-12813971D01*
X10794643Y-12756829D01*
X10794643Y-12685400D01*
X10808928Y-12628257D01*
X10823214Y-12599686D01*
X10837500Y-12585400D01*
X10866071Y-12571114D01*
X11094643Y-12871114D02*
X11094643Y-12671114D01*
X11094643Y-12699686D02*
X11108928Y-12685400D01*
X11137500Y-12671114D01*
X11180357Y-12671114D01*
X11208928Y-12685400D01*
X11223214Y-12713971D01*
X11223214Y-12871114D01*
X11223214Y-12713971D02*
X11237500Y-12685400D01*
X11266071Y-12671114D01*
X11308928Y-12671114D01*
X11337500Y-12685400D01*
X11351786Y-12713971D01*
X11351786Y-12871114D01*
X11494643Y-12871114D02*
X11494643Y-12671114D01*
X11494643Y-12699686D02*
X11508928Y-12685400D01*
X11537500Y-12671114D01*
X11580357Y-12671114D01*
X11608928Y-12685400D01*
X11623214Y-12713971D01*
X11623214Y-12871114D01*
X11623214Y-12713971D02*
X11637500Y-12685400D01*
X11666071Y-12671114D01*
X11708928Y-12671114D01*
X11737500Y-12685400D01*
X11751786Y-12713971D01*
X11751786Y-12871114D01*
X12337500Y-12556829D02*
X12080357Y-12942543D01*
X12723214Y-12571114D02*
X12751786Y-12571114D01*
X12780357Y-12585400D01*
X12794643Y-12599686D01*
X12808928Y-12628257D01*
X12823214Y-12685400D01*
X12823214Y-12756829D01*
X12808928Y-12813971D01*
X12794643Y-12842543D01*
X12780357Y-12856829D01*
X12751786Y-12871114D01*
X12723214Y-12871114D01*
X12694643Y-12856829D01*
X12680357Y-12842543D01*
X12666071Y-12813971D01*
X12651786Y-12756829D01*
X12651786Y-12685400D01*
X12666071Y-12628257D01*
X12680357Y-12599686D01*
X12694643Y-12585400D01*
X12723214Y-12571114D01*
X12951786Y-12842543D02*
X12966071Y-12856829D01*
X12951786Y-12871114D01*
X12937500Y-12856829D01*
X12951786Y-12842543D01*
X12951786Y-12871114D01*
X13151786Y-12571114D02*
X13180357Y-12571114D01*
X13208928Y-12585400D01*
X13223214Y-12599686D01*
X13237500Y-12628257D01*
X13251786Y-12685400D01*
X13251786Y-12756829D01*
X13237500Y-12813971D01*
X13223214Y-12842543D01*
X13208928Y-12856829D01*
X13180357Y-12871114D01*
X13151786Y-12871114D01*
X13123214Y-12856829D01*
X13108928Y-12842543D01*
X13094643Y-12813971D01*
X13080357Y-12756829D01*
X13080357Y-12685400D01*
X13094643Y-12628257D01*
X13108928Y-12599686D01*
X13123214Y-12585400D01*
X13151786Y-12571114D01*
X13537500Y-12871114D02*
X13366071Y-12871114D01*
X13451786Y-12871114D02*
X13451786Y-12571114D01*
X13423214Y-12613971D01*
X13394643Y-12642543D01*
X13366071Y-12656829D01*
X13808928Y-12571114D02*
X13666071Y-12571114D01*
X13651786Y-12713971D01*
X13666071Y-12699686D01*
X13694643Y-12685400D01*
X13766071Y-12685400D01*
X13794643Y-12699686D01*
X13808928Y-12713971D01*
X13823214Y-12742543D01*
X13823214Y-12813971D01*
X13808928Y-12842543D01*
X13794643Y-12856829D01*
X13766071Y-12871114D01*
X13694643Y-12871114D01*
X13666071Y-12856829D01*
X13651786Y-12842543D01*
X13923214Y-12571114D02*
X14123214Y-12571114D01*
X13994643Y-12871114D01*
X14223214Y-12571114D02*
X14223214Y-12628257D01*
X14337500Y-12571114D02*
X14337500Y-12628257D01*
X14780357Y-12985400D02*
X14766071Y-12971114D01*
X14737500Y-12928257D01*
X14723214Y-12899686D01*
X14708928Y-12856829D01*
X14694643Y-12785400D01*
X14694643Y-12728257D01*
X14708928Y-12656829D01*
X14723214Y-12613971D01*
X14737500Y-12585400D01*
X14766071Y-12542543D01*
X14780357Y-12528257D01*
X14880357Y-12599686D02*
X14894643Y-12585400D01*
X14923214Y-12571114D01*
X14994643Y-12571114D01*
X15023214Y-12585400D01*
X15037500Y-12599686D01*
X15051786Y-12628257D01*
X15051786Y-12656829D01*
X15037500Y-12699686D01*
X14866071Y-12871114D01*
X15051786Y-12871114D01*
X15237500Y-12571114D02*
X15266071Y-12571114D01*
X15294643Y-12585400D01*
X15308928Y-12599686D01*
X15323214Y-12628257D01*
X15337500Y-12685400D01*
X15337500Y-12756829D01*
X15323214Y-12813971D01*
X15308928Y-12842543D01*
X15294643Y-12856829D01*
X15266071Y-12871114D01*
X15237500Y-12871114D01*
X15208928Y-12856829D01*
X15194643Y-12842543D01*
X15180357Y-12813971D01*
X15166071Y-12756829D01*
X15166071Y-12685400D01*
X15180357Y-12628257D01*
X15194643Y-12599686D01*
X15208928Y-12585400D01*
X15237500Y-12571114D01*
X15694643Y-12871114D02*
X15694643Y-12571114D01*
X15823214Y-12871114D02*
X15823214Y-12713971D01*
X15808928Y-12685400D01*
X15780357Y-12671114D01*
X15737500Y-12671114D01*
X15708928Y-12685400D01*
X15694643Y-12699686D01*
X16008928Y-12871114D02*
X15980357Y-12856829D01*
X15966071Y-12842543D01*
X15951786Y-12813971D01*
X15951786Y-12728257D01*
X15966071Y-12699686D01*
X15980357Y-12685400D01*
X16008928Y-12671114D01*
X16051786Y-12671114D01*
X16080357Y-12685400D01*
X16094643Y-12699686D01*
X16108928Y-12728257D01*
X16108928Y-12813971D01*
X16094643Y-12842543D01*
X16080357Y-12856829D01*
X16051786Y-12871114D01*
X16008928Y-12871114D01*
X16280357Y-12871114D02*
X16251786Y-12856829D01*
X16237500Y-12828257D01*
X16237500Y-12571114D01*
X16508928Y-12856829D02*
X16480357Y-12871114D01*
X16423214Y-12871114D01*
X16394643Y-12856829D01*
X16380357Y-12828257D01*
X16380357Y-12713971D01*
X16394643Y-12685400D01*
X16423214Y-12671114D01*
X16480357Y-12671114D01*
X16508928Y-12685400D01*
X16523214Y-12713971D01*
X16523214Y-12742543D01*
X16380357Y-12771114D01*
X16637500Y-12856829D02*
X16666071Y-12871114D01*
X16723214Y-12871114D01*
X16751786Y-12856829D01*
X16766071Y-12828257D01*
X16766071Y-12813971D01*
X16751786Y-12785400D01*
X16723214Y-12771114D01*
X16680357Y-12771114D01*
X16651786Y-12756829D01*
X16637500Y-12728257D01*
X16637500Y-12713971D01*
X16651786Y-12685400D01*
X16680357Y-12671114D01*
X16723214Y-12671114D01*
X16751786Y-12685400D01*
X16866071Y-12985400D02*
X16880357Y-12971114D01*
X16908928Y-12928257D01*
X16923214Y-12899686D01*
X16937500Y-12856829D01*
X16951786Y-12785400D01*
X16951786Y-12728257D01*
X16937500Y-12656829D01*
X16923214Y-12613971D01*
X16908928Y-12585400D01*
X16880357Y-12542543D01*
X16866071Y-12528257D01*
X9522500Y-13131400D02*
G75*
G03*
X9522500Y-13131400I-40000J0D01*
G01*
X9866071Y-12967114D02*
X9894643Y-12967114D01*
X9923214Y-12981400D01*
X9937500Y-12995686D01*
X9951786Y-13024257D01*
X9966071Y-13081400D01*
X9966071Y-13152829D01*
X9951786Y-13209971D01*
X9937500Y-13238543D01*
X9923214Y-13252829D01*
X9894643Y-13267114D01*
X9866071Y-13267114D01*
X9837500Y-13252829D01*
X9823214Y-13238543D01*
X9808928Y-13209971D01*
X9794643Y-13152829D01*
X9794643Y-13081400D01*
X9808928Y-13024257D01*
X9823214Y-12995686D01*
X9837500Y-12981400D01*
X9866071Y-12967114D01*
X10094643Y-13238543D02*
X10108928Y-13252829D01*
X10094643Y-13267114D01*
X10080357Y-13252829D01*
X10094643Y-13238543D01*
X10094643Y-13267114D01*
X10280357Y-13095686D02*
X10251786Y-13081400D01*
X10237500Y-13067114D01*
X10223214Y-13038543D01*
X10223214Y-13024257D01*
X10237500Y-12995686D01*
X10251786Y-12981400D01*
X10280357Y-12967114D01*
X10337500Y-12967114D01*
X10366071Y-12981400D01*
X10380357Y-12995686D01*
X10394643Y-13024257D01*
X10394643Y-13038543D01*
X10380357Y-13067114D01*
X10366071Y-13081400D01*
X10337500Y-13095686D01*
X10280357Y-13095686D01*
X10251786Y-13109971D01*
X10237500Y-13124257D01*
X10223214Y-13152829D01*
X10223214Y-13209971D01*
X10237500Y-13238543D01*
X10251786Y-13252829D01*
X10280357Y-13267114D01*
X10337500Y-13267114D01*
X10366071Y-13252829D01*
X10380357Y-13238543D01*
X10394643Y-13209971D01*
X10394643Y-13152829D01*
X10380357Y-13124257D01*
X10366071Y-13109971D01*
X10337500Y-13095686D01*
X10580357Y-12967114D02*
X10608928Y-12967114D01*
X10637500Y-12981400D01*
X10651786Y-12995686D01*
X10666071Y-13024257D01*
X10680357Y-13081400D01*
X10680357Y-13152829D01*
X10666071Y-13209971D01*
X10651786Y-13238543D01*
X10637500Y-13252829D01*
X10608928Y-13267114D01*
X10580357Y-13267114D01*
X10551786Y-13252829D01*
X10537500Y-13238543D01*
X10523214Y-13209971D01*
X10508928Y-13152829D01*
X10508928Y-13081400D01*
X10523214Y-13024257D01*
X10537500Y-12995686D01*
X10551786Y-12981400D01*
X10580357Y-12967114D01*
X10866071Y-12967114D02*
X10894643Y-12967114D01*
X10923214Y-12981400D01*
X10937500Y-12995686D01*
X10951786Y-13024257D01*
X10966071Y-13081400D01*
X10966071Y-13152829D01*
X10951786Y-13209971D01*
X10937500Y-13238543D01*
X10923214Y-13252829D01*
X10894643Y-13267114D01*
X10866071Y-13267114D01*
X10837500Y-13252829D01*
X10823214Y-13238543D01*
X10808928Y-13209971D01*
X10794643Y-13152829D01*
X10794643Y-13081400D01*
X10808928Y-13024257D01*
X10823214Y-12995686D01*
X10837500Y-12981400D01*
X10866071Y-12967114D01*
X11094643Y-13267114D02*
X11094643Y-13067114D01*
X11094643Y-13095686D02*
X11108928Y-13081400D01*
X11137500Y-13067114D01*
X11180357Y-13067114D01*
X11208928Y-13081400D01*
X11223214Y-13109971D01*
X11223214Y-13267114D01*
X11223214Y-13109971D02*
X11237500Y-13081400D01*
X11266071Y-13067114D01*
X11308928Y-13067114D01*
X11337500Y-13081400D01*
X11351786Y-13109971D01*
X11351786Y-13267114D01*
X11494643Y-13267114D02*
X11494643Y-13067114D01*
X11494643Y-13095686D02*
X11508928Y-13081400D01*
X11537500Y-13067114D01*
X11580357Y-13067114D01*
X11608928Y-13081400D01*
X11623214Y-13109971D01*
X11623214Y-13267114D01*
X11623214Y-13109971D02*
X11637500Y-13081400D01*
X11666071Y-13067114D01*
X11708928Y-13067114D01*
X11737500Y-13081400D01*
X11751786Y-13109971D01*
X11751786Y-13267114D01*
X12337500Y-12952829D02*
X12080357Y-13338543D01*
X12723214Y-12967114D02*
X12751786Y-12967114D01*
X12780357Y-12981400D01*
X12794643Y-12995686D01*
X12808928Y-13024257D01*
X12823214Y-13081400D01*
X12823214Y-13152829D01*
X12808928Y-13209971D01*
X12794643Y-13238543D01*
X12780357Y-13252829D01*
X12751786Y-13267114D01*
X12723214Y-13267114D01*
X12694643Y-13252829D01*
X12680357Y-13238543D01*
X12666071Y-13209971D01*
X12651786Y-13152829D01*
X12651786Y-13081400D01*
X12666071Y-13024257D01*
X12680357Y-12995686D01*
X12694643Y-12981400D01*
X12723214Y-12967114D01*
X12951786Y-13238543D02*
X12966071Y-13252829D01*
X12951786Y-13267114D01*
X12937500Y-13252829D01*
X12951786Y-13238543D01*
X12951786Y-13267114D01*
X13151786Y-12967114D02*
X13180357Y-12967114D01*
X13208928Y-12981400D01*
X13223214Y-12995686D01*
X13237500Y-13024257D01*
X13251786Y-13081400D01*
X13251786Y-13152829D01*
X13237500Y-13209971D01*
X13223214Y-13238543D01*
X13208928Y-13252829D01*
X13180357Y-13267114D01*
X13151786Y-13267114D01*
X13123214Y-13252829D01*
X13108928Y-13238543D01*
X13094643Y-13209971D01*
X13080357Y-13152829D01*
X13080357Y-13081400D01*
X13094643Y-13024257D01*
X13108928Y-12995686D01*
X13123214Y-12981400D01*
X13151786Y-12967114D01*
X13351786Y-12967114D02*
X13537500Y-12967114D01*
X13437500Y-13081400D01*
X13480357Y-13081400D01*
X13508928Y-13095686D01*
X13523214Y-13109971D01*
X13537500Y-13138543D01*
X13537500Y-13209971D01*
X13523214Y-13238543D01*
X13508928Y-13252829D01*
X13480357Y-13267114D01*
X13394643Y-13267114D01*
X13366071Y-13252829D01*
X13351786Y-13238543D01*
X13823214Y-13267114D02*
X13651786Y-13267114D01*
X13737500Y-13267114D02*
X13737500Y-12967114D01*
X13708928Y-13009971D01*
X13680357Y-13038543D01*
X13651786Y-13052829D01*
X14094643Y-12967114D02*
X13951786Y-12967114D01*
X13937500Y-13109971D01*
X13951786Y-13095686D01*
X13980357Y-13081400D01*
X14051786Y-13081400D01*
X14080357Y-13095686D01*
X14094643Y-13109971D01*
X14108928Y-13138543D01*
X14108928Y-13209971D01*
X14094643Y-13238543D01*
X14080357Y-13252829D01*
X14051786Y-13267114D01*
X13980357Y-13267114D01*
X13951786Y-13252829D01*
X13937500Y-13238543D01*
X14223214Y-12967114D02*
X14223214Y-13024257D01*
X14337500Y-12967114D02*
X14337500Y-13024257D01*
X14780357Y-13381400D02*
X14766071Y-13367114D01*
X14737500Y-13324257D01*
X14723214Y-13295686D01*
X14708928Y-13252829D01*
X14694643Y-13181400D01*
X14694643Y-13124257D01*
X14708928Y-13052829D01*
X14723214Y-13009971D01*
X14737500Y-12981400D01*
X14766071Y-12938543D01*
X14780357Y-12924257D01*
X15051786Y-13267114D02*
X14880357Y-13267114D01*
X14966071Y-13267114D02*
X14966071Y-12967114D01*
X14937500Y-13009971D01*
X14908928Y-13038543D01*
X14880357Y-13052829D01*
X15166071Y-12995686D02*
X15180357Y-12981400D01*
X15208928Y-12967114D01*
X15280357Y-12967114D01*
X15308928Y-12981400D01*
X15323214Y-12995686D01*
X15337500Y-13024257D01*
X15337500Y-13052829D01*
X15323214Y-13095686D01*
X15151786Y-13267114D01*
X15337500Y-13267114D01*
X15694643Y-13267114D02*
X15694643Y-12967114D01*
X15823214Y-13267114D02*
X15823214Y-13109971D01*
X15808928Y-13081400D01*
X15780357Y-13067114D01*
X15737500Y-13067114D01*
X15708928Y-13081400D01*
X15694643Y-13095686D01*
X16008928Y-13267114D02*
X15980357Y-13252829D01*
X15966071Y-13238543D01*
X15951786Y-13209971D01*
X15951786Y-13124257D01*
X15966071Y-13095686D01*
X15980357Y-13081400D01*
X16008928Y-13067114D01*
X16051786Y-13067114D01*
X16080357Y-13081400D01*
X16094643Y-13095686D01*
X16108928Y-13124257D01*
X16108928Y-13209971D01*
X16094643Y-13238543D01*
X16080357Y-13252829D01*
X16051786Y-13267114D01*
X16008928Y-13267114D01*
X16280357Y-13267114D02*
X16251786Y-13252829D01*
X16237500Y-13224257D01*
X16237500Y-12967114D01*
X16508928Y-13252829D02*
X16480357Y-13267114D01*
X16423214Y-13267114D01*
X16394643Y-13252829D01*
X16380357Y-13224257D01*
X16380357Y-13109971D01*
X16394643Y-13081400D01*
X16423214Y-13067114D01*
X16480357Y-13067114D01*
X16508928Y-13081400D01*
X16523214Y-13109971D01*
X16523214Y-13138543D01*
X16380357Y-13167114D01*
X16637500Y-13252829D02*
X16666071Y-13267114D01*
X16723214Y-13267114D01*
X16751786Y-13252829D01*
X16766071Y-13224257D01*
X16766071Y-13209971D01*
X16751786Y-13181400D01*
X16723214Y-13167114D01*
X16680357Y-13167114D01*
X16651786Y-13152829D01*
X16637500Y-13124257D01*
X16637500Y-13109971D01*
X16651786Y-13081400D01*
X16680357Y-13067114D01*
X16723214Y-13067114D01*
X16751786Y-13081400D01*
X16866071Y-13381400D02*
X16880357Y-13367114D01*
X16908928Y-13324257D01*
X16923214Y-13295686D01*
X16937500Y-13252829D01*
X16951786Y-13181400D01*
X16951786Y-13124257D01*
X16937500Y-13052829D01*
X16923214Y-13009971D01*
X16908928Y-12981400D01*
X16880357Y-12938543D01*
X16866071Y-12924257D01*
X9477500Y-13482400D02*
X9477500Y-13572400D01*
X9432500Y-13527400D02*
X9522500Y-13527400D01*
X9866071Y-13363114D02*
X9894643Y-13363114D01*
X9923214Y-13377400D01*
X9937500Y-13391686D01*
X9951786Y-13420257D01*
X9966071Y-13477400D01*
X9966071Y-13548829D01*
X9951786Y-13605971D01*
X9937500Y-13634543D01*
X9923214Y-13648829D01*
X9894643Y-13663114D01*
X9866071Y-13663114D01*
X9837500Y-13648829D01*
X9823214Y-13634543D01*
X9808928Y-13605971D01*
X9794643Y-13548829D01*
X9794643Y-13477400D01*
X9808928Y-13420257D01*
X9823214Y-13391686D01*
X9837500Y-13377400D01*
X9866071Y-13363114D01*
X10094643Y-13634543D02*
X10108928Y-13648829D01*
X10094643Y-13663114D01*
X10080357Y-13648829D01*
X10094643Y-13634543D01*
X10094643Y-13663114D01*
X10251786Y-13663114D02*
X10308928Y-13663114D01*
X10337500Y-13648829D01*
X10351786Y-13634543D01*
X10380357Y-13591686D01*
X10394643Y-13534543D01*
X10394643Y-13420257D01*
X10380357Y-13391686D01*
X10366071Y-13377400D01*
X10337500Y-13363114D01*
X10280357Y-13363114D01*
X10251786Y-13377400D01*
X10237500Y-13391686D01*
X10223214Y-13420257D01*
X10223214Y-13491686D01*
X10237500Y-13520257D01*
X10251786Y-13534543D01*
X10280357Y-13548829D01*
X10337500Y-13548829D01*
X10366071Y-13534543D01*
X10380357Y-13520257D01*
X10394643Y-13491686D01*
X10580357Y-13363114D02*
X10608928Y-13363114D01*
X10637500Y-13377400D01*
X10651786Y-13391686D01*
X10666071Y-13420257D01*
X10680357Y-13477400D01*
X10680357Y-13548829D01*
X10666071Y-13605971D01*
X10651786Y-13634543D01*
X10637500Y-13648829D01*
X10608928Y-13663114D01*
X10580357Y-13663114D01*
X10551786Y-13648829D01*
X10537500Y-13634543D01*
X10523214Y-13605971D01*
X10508928Y-13548829D01*
X10508928Y-13477400D01*
X10523214Y-13420257D01*
X10537500Y-13391686D01*
X10551786Y-13377400D01*
X10580357Y-13363114D01*
X10866071Y-13363114D02*
X10894643Y-13363114D01*
X10923214Y-13377400D01*
X10937500Y-13391686D01*
X10951786Y-13420257D01*
X10966071Y-13477400D01*
X10966071Y-13548829D01*
X10951786Y-13605971D01*
X10937500Y-13634543D01*
X10923214Y-13648829D01*
X10894643Y-13663114D01*
X10866071Y-13663114D01*
X10837500Y-13648829D01*
X10823214Y-13634543D01*
X10808928Y-13605971D01*
X10794643Y-13548829D01*
X10794643Y-13477400D01*
X10808928Y-13420257D01*
X10823214Y-13391686D01*
X10837500Y-13377400D01*
X10866071Y-13363114D01*
X11094643Y-13663114D02*
X11094643Y-13463114D01*
X11094643Y-13491686D02*
X11108928Y-13477400D01*
X11137500Y-13463114D01*
X11180357Y-13463114D01*
X11208928Y-13477400D01*
X11223214Y-13505971D01*
X11223214Y-13663114D01*
X11223214Y-13505971D02*
X11237500Y-13477400D01*
X11266071Y-13463114D01*
X11308928Y-13463114D01*
X11337500Y-13477400D01*
X11351786Y-13505971D01*
X11351786Y-13663114D01*
X11494643Y-13663114D02*
X11494643Y-13463114D01*
X11494643Y-13491686D02*
X11508928Y-13477400D01*
X11537500Y-13463114D01*
X11580357Y-13463114D01*
X11608928Y-13477400D01*
X11623214Y-13505971D01*
X11623214Y-13663114D01*
X11623214Y-13505971D02*
X11637500Y-13477400D01*
X11666071Y-13463114D01*
X11708928Y-13463114D01*
X11737500Y-13477400D01*
X11751786Y-13505971D01*
X11751786Y-13663114D01*
X12337500Y-13348829D02*
X12080357Y-13734543D01*
X12723214Y-13363114D02*
X12751786Y-13363114D01*
X12780357Y-13377400D01*
X12794643Y-13391686D01*
X12808928Y-13420257D01*
X12823214Y-13477400D01*
X12823214Y-13548829D01*
X12808928Y-13605971D01*
X12794643Y-13634543D01*
X12780357Y-13648829D01*
X12751786Y-13663114D01*
X12723214Y-13663114D01*
X12694643Y-13648829D01*
X12680357Y-13634543D01*
X12666071Y-13605971D01*
X12651786Y-13548829D01*
X12651786Y-13477400D01*
X12666071Y-13420257D01*
X12680357Y-13391686D01*
X12694643Y-13377400D01*
X12723214Y-13363114D01*
X12951786Y-13634543D02*
X12966071Y-13648829D01*
X12951786Y-13663114D01*
X12937500Y-13648829D01*
X12951786Y-13634543D01*
X12951786Y-13663114D01*
X13151786Y-13363114D02*
X13180357Y-13363114D01*
X13208928Y-13377400D01*
X13223214Y-13391686D01*
X13237500Y-13420257D01*
X13251786Y-13477400D01*
X13251786Y-13548829D01*
X13237500Y-13605971D01*
X13223214Y-13634543D01*
X13208928Y-13648829D01*
X13180357Y-13663114D01*
X13151786Y-13663114D01*
X13123214Y-13648829D01*
X13108928Y-13634543D01*
X13094643Y-13605971D01*
X13080357Y-13548829D01*
X13080357Y-13477400D01*
X13094643Y-13420257D01*
X13108928Y-13391686D01*
X13123214Y-13377400D01*
X13151786Y-13363114D01*
X13351786Y-13363114D02*
X13537500Y-13363114D01*
X13437500Y-13477400D01*
X13480357Y-13477400D01*
X13508928Y-13491686D01*
X13523214Y-13505971D01*
X13537500Y-13534543D01*
X13537500Y-13605971D01*
X13523214Y-13634543D01*
X13508928Y-13648829D01*
X13480357Y-13663114D01*
X13394643Y-13663114D01*
X13366071Y-13648829D01*
X13351786Y-13634543D01*
X13808928Y-13363114D02*
X13666071Y-13363114D01*
X13651786Y-13505971D01*
X13666071Y-13491686D01*
X13694643Y-13477400D01*
X13766071Y-13477400D01*
X13794643Y-13491686D01*
X13808928Y-13505971D01*
X13823214Y-13534543D01*
X13823214Y-13605971D01*
X13808928Y-13634543D01*
X13794643Y-13648829D01*
X13766071Y-13663114D01*
X13694643Y-13663114D01*
X13666071Y-13648829D01*
X13651786Y-13634543D01*
X14080357Y-13463114D02*
X14080357Y-13663114D01*
X14008928Y-13348829D02*
X13937500Y-13563114D01*
X14123214Y-13563114D01*
X14223214Y-13363114D02*
X14223214Y-13420257D01*
X14337500Y-13363114D02*
X14337500Y-13420257D01*
X14780357Y-13777400D02*
X14766071Y-13763114D01*
X14737500Y-13720257D01*
X14723214Y-13691686D01*
X14708928Y-13648829D01*
X14694643Y-13577400D01*
X14694643Y-13520257D01*
X14708928Y-13448829D01*
X14723214Y-13405971D01*
X14737500Y-13377400D01*
X14766071Y-13334543D01*
X14780357Y-13320257D01*
X14937500Y-13491686D02*
X14908928Y-13477400D01*
X14894643Y-13463114D01*
X14880357Y-13434543D01*
X14880357Y-13420257D01*
X14894643Y-13391686D01*
X14908928Y-13377400D01*
X14937500Y-13363114D01*
X14994643Y-13363114D01*
X15023214Y-13377400D01*
X15037500Y-13391686D01*
X15051786Y-13420257D01*
X15051786Y-13434543D01*
X15037500Y-13463114D01*
X15023214Y-13477400D01*
X14994643Y-13491686D01*
X14937500Y-13491686D01*
X14908928Y-13505971D01*
X14894643Y-13520257D01*
X14880357Y-13548829D01*
X14880357Y-13605971D01*
X14894643Y-13634543D01*
X14908928Y-13648829D01*
X14937500Y-13663114D01*
X14994643Y-13663114D01*
X15023214Y-13648829D01*
X15037500Y-13634543D01*
X15051786Y-13605971D01*
X15051786Y-13548829D01*
X15037500Y-13520257D01*
X15023214Y-13505971D01*
X14994643Y-13491686D01*
X15408928Y-13663114D02*
X15408928Y-13363114D01*
X15537500Y-13663114D02*
X15537500Y-13505971D01*
X15523214Y-13477400D01*
X15494643Y-13463114D01*
X15451786Y-13463114D01*
X15423214Y-13477400D01*
X15408928Y-13491686D01*
X15723214Y-13663114D02*
X15694643Y-13648829D01*
X15680357Y-13634543D01*
X15666071Y-13605971D01*
X15666071Y-13520257D01*
X15680357Y-13491686D01*
X15694643Y-13477400D01*
X15723214Y-13463114D01*
X15766071Y-13463114D01*
X15794643Y-13477400D01*
X15808928Y-13491686D01*
X15823214Y-13520257D01*
X15823214Y-13605971D01*
X15808928Y-13634543D01*
X15794643Y-13648829D01*
X15766071Y-13663114D01*
X15723214Y-13663114D01*
X15994643Y-13663114D02*
X15966071Y-13648829D01*
X15951786Y-13620257D01*
X15951786Y-13363114D01*
X16223214Y-13648829D02*
X16194643Y-13663114D01*
X16137500Y-13663114D01*
X16108928Y-13648829D01*
X16094643Y-13620257D01*
X16094643Y-13505971D01*
X16108928Y-13477400D01*
X16137500Y-13463114D01*
X16194643Y-13463114D01*
X16223214Y-13477400D01*
X16237500Y-13505971D01*
X16237500Y-13534543D01*
X16094643Y-13563114D01*
X16351786Y-13648829D02*
X16380357Y-13663114D01*
X16437500Y-13663114D01*
X16466071Y-13648829D01*
X16480357Y-13620257D01*
X16480357Y-13605971D01*
X16466071Y-13577400D01*
X16437500Y-13563114D01*
X16394643Y-13563114D01*
X16366071Y-13548829D01*
X16351786Y-13520257D01*
X16351786Y-13505971D01*
X16366071Y-13477400D01*
X16394643Y-13463114D01*
X16437500Y-13463114D01*
X16466071Y-13477400D01*
X16580357Y-13777400D02*
X16594643Y-13763114D01*
X16623214Y-13720257D01*
X16637500Y-13691686D01*
X16651786Y-13648829D01*
X16666071Y-13577400D01*
X16666071Y-13520257D01*
X16651786Y-13448829D01*
X16637500Y-13405971D01*
X16623214Y-13377400D01*
X16594643Y-13334543D01*
X16580357Y-13320257D01*
X9500533Y-13976434D02*
X9500533Y-13870367D01*
X9394466Y-13870367D01*
X9394466Y-13976434D01*
X9500533Y-13976434D01*
X9966071Y-14059114D02*
X9794643Y-14059114D01*
X9880357Y-14059114D02*
X9880357Y-13759114D01*
X9851786Y-13801971D01*
X9823214Y-13830543D01*
X9794643Y-13844829D01*
X10094643Y-14030543D02*
X10108928Y-14044829D01*
X10094643Y-14059114D01*
X10080357Y-14044829D01*
X10094643Y-14030543D01*
X10094643Y-14059114D01*
X10380357Y-13759114D02*
X10237500Y-13759114D01*
X10223214Y-13901971D01*
X10237500Y-13887686D01*
X10266071Y-13873400D01*
X10337500Y-13873400D01*
X10366071Y-13887686D01*
X10380357Y-13901971D01*
X10394643Y-13930543D01*
X10394643Y-14001971D01*
X10380357Y-14030543D01*
X10366071Y-14044829D01*
X10337500Y-14059114D01*
X10266071Y-14059114D01*
X10237500Y-14044829D01*
X10223214Y-14030543D01*
X10580357Y-13759114D02*
X10608928Y-13759114D01*
X10637500Y-13773400D01*
X10651786Y-13787686D01*
X10666071Y-13816257D01*
X10680357Y-13873400D01*
X10680357Y-13944829D01*
X10666071Y-14001971D01*
X10651786Y-14030543D01*
X10637500Y-14044829D01*
X10608928Y-14059114D01*
X10580357Y-14059114D01*
X10551786Y-14044829D01*
X10537500Y-14030543D01*
X10523214Y-14001971D01*
X10508928Y-13944829D01*
X10508928Y-13873400D01*
X10523214Y-13816257D01*
X10537500Y-13787686D01*
X10551786Y-13773400D01*
X10580357Y-13759114D01*
X10866071Y-13759114D02*
X10894643Y-13759114D01*
X10923214Y-13773400D01*
X10937500Y-13787686D01*
X10951786Y-13816257D01*
X10966071Y-13873400D01*
X10966071Y-13944829D01*
X10951786Y-14001971D01*
X10937500Y-14030543D01*
X10923214Y-14044829D01*
X10894643Y-14059114D01*
X10866071Y-14059114D01*
X10837500Y-14044829D01*
X10823214Y-14030543D01*
X10808928Y-14001971D01*
X10794643Y-13944829D01*
X10794643Y-13873400D01*
X10808928Y-13816257D01*
X10823214Y-13787686D01*
X10837500Y-13773400D01*
X10866071Y-13759114D01*
X11094643Y-14059114D02*
X11094643Y-13859114D01*
X11094643Y-13887686D02*
X11108928Y-13873400D01*
X11137500Y-13859114D01*
X11180357Y-13859114D01*
X11208928Y-13873400D01*
X11223214Y-13901971D01*
X11223214Y-14059114D01*
X11223214Y-13901971D02*
X11237500Y-13873400D01*
X11266071Y-13859114D01*
X11308928Y-13859114D01*
X11337500Y-13873400D01*
X11351786Y-13901971D01*
X11351786Y-14059114D01*
X11494643Y-14059114D02*
X11494643Y-13859114D01*
X11494643Y-13887686D02*
X11508928Y-13873400D01*
X11537500Y-13859114D01*
X11580357Y-13859114D01*
X11608928Y-13873400D01*
X11623214Y-13901971D01*
X11623214Y-14059114D01*
X11623214Y-13901971D02*
X11637500Y-13873400D01*
X11666071Y-13859114D01*
X11708928Y-13859114D01*
X11737500Y-13873400D01*
X11751786Y-13901971D01*
X11751786Y-14059114D01*
X12337500Y-13744829D02*
X12080357Y-14130543D01*
X12723214Y-13759114D02*
X12751786Y-13759114D01*
X12780357Y-13773400D01*
X12794643Y-13787686D01*
X12808928Y-13816257D01*
X12823214Y-13873400D01*
X12823214Y-13944829D01*
X12808928Y-14001971D01*
X12794643Y-14030543D01*
X12780357Y-14044829D01*
X12751786Y-14059114D01*
X12723214Y-14059114D01*
X12694643Y-14044829D01*
X12680357Y-14030543D01*
X12666071Y-14001971D01*
X12651786Y-13944829D01*
X12651786Y-13873400D01*
X12666071Y-13816257D01*
X12680357Y-13787686D01*
X12694643Y-13773400D01*
X12723214Y-13759114D01*
X12951786Y-14030543D02*
X12966071Y-14044829D01*
X12951786Y-14059114D01*
X12937500Y-14044829D01*
X12951786Y-14030543D01*
X12951786Y-14059114D01*
X13151786Y-13759114D02*
X13180357Y-13759114D01*
X13208928Y-13773400D01*
X13223214Y-13787686D01*
X13237500Y-13816257D01*
X13251786Y-13873400D01*
X13251786Y-13944829D01*
X13237500Y-14001971D01*
X13223214Y-14030543D01*
X13208928Y-14044829D01*
X13180357Y-14059114D01*
X13151786Y-14059114D01*
X13123214Y-14044829D01*
X13108928Y-14030543D01*
X13094643Y-14001971D01*
X13080357Y-13944829D01*
X13080357Y-13873400D01*
X13094643Y-13816257D01*
X13108928Y-13787686D01*
X13123214Y-13773400D01*
X13151786Y-13759114D01*
X13523214Y-13759114D02*
X13380357Y-13759114D01*
X13366071Y-13901971D01*
X13380357Y-13887686D01*
X13408928Y-13873400D01*
X13480357Y-13873400D01*
X13508928Y-13887686D01*
X13523214Y-13901971D01*
X13537500Y-13930543D01*
X13537500Y-14001971D01*
X13523214Y-14030543D01*
X13508928Y-14044829D01*
X13480357Y-14059114D01*
X13408928Y-14059114D01*
X13380357Y-14044829D01*
X13366071Y-14030543D01*
X13680357Y-14059114D02*
X13737500Y-14059114D01*
X13766071Y-14044829D01*
X13780357Y-14030543D01*
X13808928Y-13987686D01*
X13823214Y-13930543D01*
X13823214Y-13816257D01*
X13808928Y-13787686D01*
X13794643Y-13773400D01*
X13766071Y-13759114D01*
X13708928Y-13759114D01*
X13680357Y-13773400D01*
X13666071Y-13787686D01*
X13651786Y-13816257D01*
X13651786Y-13887686D01*
X13666071Y-13916257D01*
X13680357Y-13930543D01*
X13708928Y-13944829D01*
X13766071Y-13944829D01*
X13794643Y-13930543D01*
X13808928Y-13916257D01*
X13823214Y-13887686D01*
X14108928Y-14059114D02*
X13937500Y-14059114D01*
X14023214Y-14059114D02*
X14023214Y-13759114D01*
X13994643Y-13801971D01*
X13966071Y-13830543D01*
X13937500Y-13844829D01*
X14223214Y-13759114D02*
X14223214Y-13816257D01*
X14337500Y-13759114D02*
X14337500Y-13816257D01*
X14780357Y-14173400D02*
X14766071Y-14159114D01*
X14737500Y-14116257D01*
X14723214Y-14087686D01*
X14708928Y-14044829D01*
X14694643Y-13973400D01*
X14694643Y-13916257D01*
X14708928Y-13844829D01*
X14723214Y-13801971D01*
X14737500Y-13773400D01*
X14766071Y-13730543D01*
X14780357Y-13716257D01*
X15023214Y-13859114D02*
X15023214Y-14059114D01*
X14951786Y-13744829D02*
X14880357Y-13959114D01*
X15066071Y-13959114D01*
X15408928Y-14059114D02*
X15408928Y-13759114D01*
X15537500Y-14059114D02*
X15537500Y-13901971D01*
X15523214Y-13873400D01*
X15494643Y-13859114D01*
X15451786Y-13859114D01*
X15423214Y-13873400D01*
X15408928Y-13887686D01*
X15723214Y-14059114D02*
X15694643Y-14044829D01*
X15680357Y-14030543D01*
X15666071Y-14001971D01*
X15666071Y-13916257D01*
X15680357Y-13887686D01*
X15694643Y-13873400D01*
X15723214Y-13859114D01*
X15766071Y-13859114D01*
X15794643Y-13873400D01*
X15808928Y-13887686D01*
X15823214Y-13916257D01*
X15823214Y-14001971D01*
X15808928Y-14030543D01*
X15794643Y-14044829D01*
X15766071Y-14059114D01*
X15723214Y-14059114D01*
X15994643Y-14059114D02*
X15966071Y-14044829D01*
X15951786Y-14016257D01*
X15951786Y-13759114D01*
X16223214Y-14044829D02*
X16194643Y-14059114D01*
X16137500Y-14059114D01*
X16108928Y-14044829D01*
X16094643Y-14016257D01*
X16094643Y-13901971D01*
X16108928Y-13873400D01*
X16137500Y-13859114D01*
X16194643Y-13859114D01*
X16223214Y-13873400D01*
X16237500Y-13901971D01*
X16237500Y-13930543D01*
X16094643Y-13959114D01*
X16351786Y-14044829D02*
X16380357Y-14059114D01*
X16437500Y-14059114D01*
X16466071Y-14044829D01*
X16480357Y-14016257D01*
X16480357Y-14001971D01*
X16466071Y-13973400D01*
X16437500Y-13959114D01*
X16394643Y-13959114D01*
X16366071Y-13944829D01*
X16351786Y-13916257D01*
X16351786Y-13901971D01*
X16366071Y-13873400D01*
X16394643Y-13859114D01*
X16437500Y-13859114D01*
X16466071Y-13873400D01*
X16580357Y-14173400D02*
X16594643Y-14159114D01*
X16623214Y-14116257D01*
X16637500Y-14087686D01*
X16651786Y-14044829D01*
X16666071Y-13973400D01*
X16666071Y-13916257D01*
X16651786Y-13844829D01*
X16637500Y-13801971D01*
X16623214Y-13773400D01*
X16594643Y-13730543D01*
X16580357Y-13716257D01*
X9442500Y-14399400D02*
X9522500Y-14319400D01*
X9442500Y-14239400D01*
X9362500Y-14319400D01*
X9442500Y-14399400D01*
X9966071Y-14455114D02*
X9794643Y-14455114D01*
X9880357Y-14455114D02*
X9880357Y-14155114D01*
X9851786Y-14197971D01*
X9823214Y-14226543D01*
X9794643Y-14240829D01*
X10094643Y-14426543D02*
X10108928Y-14440829D01*
X10094643Y-14455114D01*
X10080357Y-14440829D01*
X10094643Y-14426543D01*
X10094643Y-14455114D01*
X10366071Y-14155114D02*
X10308928Y-14155114D01*
X10280357Y-14169400D01*
X10266071Y-14183686D01*
X10237500Y-14226543D01*
X10223214Y-14283686D01*
X10223214Y-14397971D01*
X10237500Y-14426543D01*
X10251786Y-14440829D01*
X10280357Y-14455114D01*
X10337500Y-14455114D01*
X10366071Y-14440829D01*
X10380357Y-14426543D01*
X10394643Y-14397971D01*
X10394643Y-14326543D01*
X10380357Y-14297971D01*
X10366071Y-14283686D01*
X10337500Y-14269400D01*
X10280357Y-14269400D01*
X10251786Y-14283686D01*
X10237500Y-14297971D01*
X10223214Y-14326543D01*
X10580357Y-14155114D02*
X10608928Y-14155114D01*
X10637500Y-14169400D01*
X10651786Y-14183686D01*
X10666071Y-14212257D01*
X10680357Y-14269400D01*
X10680357Y-14340829D01*
X10666071Y-14397971D01*
X10651786Y-14426543D01*
X10637500Y-14440829D01*
X10608928Y-14455114D01*
X10580357Y-14455114D01*
X10551786Y-14440829D01*
X10537500Y-14426543D01*
X10523214Y-14397971D01*
X10508928Y-14340829D01*
X10508928Y-14269400D01*
X10523214Y-14212257D01*
X10537500Y-14183686D01*
X10551786Y-14169400D01*
X10580357Y-14155114D01*
X10866071Y-14155114D02*
X10894643Y-14155114D01*
X10923214Y-14169400D01*
X10937500Y-14183686D01*
X10951786Y-14212257D01*
X10966071Y-14269400D01*
X10966071Y-14340829D01*
X10951786Y-14397971D01*
X10937500Y-14426543D01*
X10923214Y-14440829D01*
X10894643Y-14455114D01*
X10866071Y-14455114D01*
X10837500Y-14440829D01*
X10823214Y-14426543D01*
X10808928Y-14397971D01*
X10794643Y-14340829D01*
X10794643Y-14269400D01*
X10808928Y-14212257D01*
X10823214Y-14183686D01*
X10837500Y-14169400D01*
X10866071Y-14155114D01*
X11094643Y-14455114D02*
X11094643Y-14255114D01*
X11094643Y-14283686D02*
X11108928Y-14269400D01*
X11137500Y-14255114D01*
X11180357Y-14255114D01*
X11208928Y-14269400D01*
X11223214Y-14297971D01*
X11223214Y-14455114D01*
X11223214Y-14297971D02*
X11237500Y-14269400D01*
X11266071Y-14255114D01*
X11308928Y-14255114D01*
X11337500Y-14269400D01*
X11351786Y-14297971D01*
X11351786Y-14455114D01*
X11494643Y-14455114D02*
X11494643Y-14255114D01*
X11494643Y-14283686D02*
X11508928Y-14269400D01*
X11537500Y-14255114D01*
X11580357Y-14255114D01*
X11608928Y-14269400D01*
X11623214Y-14297971D01*
X11623214Y-14455114D01*
X11623214Y-14297971D02*
X11637500Y-14269400D01*
X11666071Y-14255114D01*
X11708928Y-14255114D01*
X11737500Y-14269400D01*
X11751786Y-14297971D01*
X11751786Y-14455114D01*
X12337500Y-14140829D02*
X12080357Y-14526543D01*
X12723214Y-14155114D02*
X12751786Y-14155114D01*
X12780357Y-14169400D01*
X12794643Y-14183686D01*
X12808928Y-14212257D01*
X12823214Y-14269400D01*
X12823214Y-14340829D01*
X12808928Y-14397971D01*
X12794643Y-14426543D01*
X12780357Y-14440829D01*
X12751786Y-14455114D01*
X12723214Y-14455114D01*
X12694643Y-14440829D01*
X12680357Y-14426543D01*
X12666071Y-14397971D01*
X12651786Y-14340829D01*
X12651786Y-14269400D01*
X12666071Y-14212257D01*
X12680357Y-14183686D01*
X12694643Y-14169400D01*
X12723214Y-14155114D01*
X12951786Y-14426543D02*
X12966071Y-14440829D01*
X12951786Y-14455114D01*
X12937500Y-14440829D01*
X12951786Y-14426543D01*
X12951786Y-14455114D01*
X13151786Y-14155114D02*
X13180357Y-14155114D01*
X13208928Y-14169400D01*
X13223214Y-14183686D01*
X13237500Y-14212257D01*
X13251786Y-14269400D01*
X13251786Y-14340829D01*
X13237500Y-14397971D01*
X13223214Y-14426543D01*
X13208928Y-14440829D01*
X13180357Y-14455114D01*
X13151786Y-14455114D01*
X13123214Y-14440829D01*
X13108928Y-14426543D01*
X13094643Y-14397971D01*
X13080357Y-14340829D01*
X13080357Y-14269400D01*
X13094643Y-14212257D01*
X13108928Y-14183686D01*
X13123214Y-14169400D01*
X13151786Y-14155114D01*
X13508928Y-14155114D02*
X13451786Y-14155114D01*
X13423214Y-14169400D01*
X13408928Y-14183686D01*
X13380357Y-14226543D01*
X13366071Y-14283686D01*
X13366071Y-14397971D01*
X13380357Y-14426543D01*
X13394643Y-14440829D01*
X13423214Y-14455114D01*
X13480357Y-14455114D01*
X13508928Y-14440829D01*
X13523214Y-14426543D01*
X13537500Y-14397971D01*
X13537500Y-14326543D01*
X13523214Y-14297971D01*
X13508928Y-14283686D01*
X13480357Y-14269400D01*
X13423214Y-14269400D01*
X13394643Y-14283686D01*
X13380357Y-14297971D01*
X13366071Y-14326543D01*
X13637500Y-14155114D02*
X13823214Y-14155114D01*
X13723214Y-14269400D01*
X13766071Y-14269400D01*
X13794643Y-14283686D01*
X13808928Y-14297971D01*
X13823214Y-14326543D01*
X13823214Y-14397971D01*
X13808928Y-14426543D01*
X13794643Y-14440829D01*
X13766071Y-14455114D01*
X13680357Y-14455114D01*
X13651786Y-14440829D01*
X13637500Y-14426543D01*
X14008928Y-14155114D02*
X14037500Y-14155114D01*
X14066071Y-14169400D01*
X14080357Y-14183686D01*
X14094643Y-14212257D01*
X14108928Y-14269400D01*
X14108928Y-14340829D01*
X14094643Y-14397971D01*
X14080357Y-14426543D01*
X14066071Y-14440829D01*
X14037500Y-14455114D01*
X14008928Y-14455114D01*
X13980357Y-14440829D01*
X13966071Y-14426543D01*
X13951786Y-14397971D01*
X13937500Y-14340829D01*
X13937500Y-14269400D01*
X13951786Y-14212257D01*
X13966071Y-14183686D01*
X13980357Y-14169400D01*
X14008928Y-14155114D01*
X14223214Y-14155114D02*
X14223214Y-14212257D01*
X14337500Y-14155114D02*
X14337500Y-14212257D01*
X14780357Y-14569400D02*
X14766071Y-14555114D01*
X14737500Y-14512257D01*
X14723214Y-14483686D01*
X14708928Y-14440829D01*
X14694643Y-14369400D01*
X14694643Y-14312257D01*
X14708928Y-14240829D01*
X14723214Y-14197971D01*
X14737500Y-14169400D01*
X14766071Y-14126543D01*
X14780357Y-14112257D01*
X14880357Y-14183686D02*
X14894643Y-14169400D01*
X14923214Y-14155114D01*
X14994643Y-14155114D01*
X15023214Y-14169400D01*
X15037500Y-14183686D01*
X15051786Y-14212257D01*
X15051786Y-14240829D01*
X15037500Y-14283686D01*
X14866071Y-14455114D01*
X15051786Y-14455114D01*
X15408928Y-14455114D02*
X15408928Y-14155114D01*
X15537500Y-14455114D02*
X15537500Y-14297971D01*
X15523214Y-14269400D01*
X15494643Y-14255114D01*
X15451786Y-14255114D01*
X15423214Y-14269400D01*
X15408928Y-14283686D01*
X15723214Y-14455114D02*
X15694643Y-14440829D01*
X15680357Y-14426543D01*
X15666071Y-14397971D01*
X15666071Y-14312257D01*
X15680357Y-14283686D01*
X15694643Y-14269400D01*
X15723214Y-14255114D01*
X15766071Y-14255114D01*
X15794643Y-14269400D01*
X15808928Y-14283686D01*
X15823214Y-14312257D01*
X15823214Y-14397971D01*
X15808928Y-14426543D01*
X15794643Y-14440829D01*
X15766071Y-14455114D01*
X15723214Y-14455114D01*
X15994643Y-14455114D02*
X15966071Y-14440829D01*
X15951786Y-14412257D01*
X15951786Y-14155114D01*
X16223214Y-14440829D02*
X16194643Y-14455114D01*
X16137500Y-14455114D01*
X16108928Y-14440829D01*
X16094643Y-14412257D01*
X16094643Y-14297971D01*
X16108928Y-14269400D01*
X16137500Y-14255114D01*
X16194643Y-14255114D01*
X16223214Y-14269400D01*
X16237500Y-14297971D01*
X16237500Y-14326543D01*
X16094643Y-14355114D01*
X16351786Y-14440829D02*
X16380357Y-14455114D01*
X16437500Y-14455114D01*
X16466071Y-14440829D01*
X16480357Y-14412257D01*
X16480357Y-14397971D01*
X16466071Y-14369400D01*
X16437500Y-14355114D01*
X16394643Y-14355114D01*
X16366071Y-14340829D01*
X16351786Y-14312257D01*
X16351786Y-14297971D01*
X16366071Y-14269400D01*
X16394643Y-14255114D01*
X16437500Y-14255114D01*
X16466071Y-14269400D01*
X16580357Y-14569400D02*
X16594643Y-14555114D01*
X16623214Y-14512257D01*
X16637500Y-14483686D01*
X16651786Y-14440829D01*
X16666071Y-14369400D01*
X16666071Y-14312257D01*
X16651786Y-14240829D01*
X16637500Y-14197971D01*
X16623214Y-14169400D01*
X16594643Y-14126543D01*
X16580357Y-14112257D01*
X9352500Y-14630400D02*
X9522500Y-14800400D01*
X9522500Y-14630400D02*
X9352500Y-14800400D01*
X9522500Y-14715400D02*
G75*
G03*
X9522500Y-14715400I-85000J0D01*
G01*
X9966071Y-14851114D02*
X9794643Y-14851114D01*
X9880357Y-14851114D02*
X9880357Y-14551114D01*
X9851786Y-14593971D01*
X9823214Y-14622543D01*
X9794643Y-14636829D01*
X10094643Y-14822543D02*
X10108928Y-14836829D01*
X10094643Y-14851114D01*
X10080357Y-14836829D01*
X10094643Y-14822543D01*
X10094643Y-14851114D01*
X10208928Y-14551114D02*
X10408928Y-14551114D01*
X10280357Y-14851114D01*
X10580357Y-14551114D02*
X10608928Y-14551114D01*
X10637500Y-14565400D01*
X10651786Y-14579686D01*
X10666071Y-14608257D01*
X10680357Y-14665400D01*
X10680357Y-14736829D01*
X10666071Y-14793971D01*
X10651786Y-14822543D01*
X10637500Y-14836829D01*
X10608928Y-14851114D01*
X10580357Y-14851114D01*
X10551786Y-14836829D01*
X10537500Y-14822543D01*
X10523214Y-14793971D01*
X10508928Y-14736829D01*
X10508928Y-14665400D01*
X10523214Y-14608257D01*
X10537500Y-14579686D01*
X10551786Y-14565400D01*
X10580357Y-14551114D01*
X10866071Y-14551114D02*
X10894643Y-14551114D01*
X10923214Y-14565400D01*
X10937500Y-14579686D01*
X10951786Y-14608257D01*
X10966071Y-14665400D01*
X10966071Y-14736829D01*
X10951786Y-14793971D01*
X10937500Y-14822543D01*
X10923214Y-14836829D01*
X10894643Y-14851114D01*
X10866071Y-14851114D01*
X10837500Y-14836829D01*
X10823214Y-14822543D01*
X10808928Y-14793971D01*
X10794643Y-14736829D01*
X10794643Y-14665400D01*
X10808928Y-14608257D01*
X10823214Y-14579686D01*
X10837500Y-14565400D01*
X10866071Y-14551114D01*
X11094643Y-14851114D02*
X11094643Y-14651114D01*
X11094643Y-14679686D02*
X11108928Y-14665400D01*
X11137500Y-14651114D01*
X11180357Y-14651114D01*
X11208928Y-14665400D01*
X11223214Y-14693971D01*
X11223214Y-14851114D01*
X11223214Y-14693971D02*
X11237500Y-14665400D01*
X11266071Y-14651114D01*
X11308928Y-14651114D01*
X11337500Y-14665400D01*
X11351786Y-14693971D01*
X11351786Y-14851114D01*
X11494643Y-14851114D02*
X11494643Y-14651114D01*
X11494643Y-14679686D02*
X11508928Y-14665400D01*
X11537500Y-14651114D01*
X11580357Y-14651114D01*
X11608928Y-14665400D01*
X11623214Y-14693971D01*
X11623214Y-14851114D01*
X11623214Y-14693971D02*
X11637500Y-14665400D01*
X11666071Y-14651114D01*
X11708928Y-14651114D01*
X11737500Y-14665400D01*
X11751786Y-14693971D01*
X11751786Y-14851114D01*
X12337500Y-14536829D02*
X12080357Y-14922543D01*
X12723214Y-14551114D02*
X12751786Y-14551114D01*
X12780357Y-14565400D01*
X12794643Y-14579686D01*
X12808928Y-14608257D01*
X12823214Y-14665400D01*
X12823214Y-14736829D01*
X12808928Y-14793971D01*
X12794643Y-14822543D01*
X12780357Y-14836829D01*
X12751786Y-14851114D01*
X12723214Y-14851114D01*
X12694643Y-14836829D01*
X12680357Y-14822543D01*
X12666071Y-14793971D01*
X12651786Y-14736829D01*
X12651786Y-14665400D01*
X12666071Y-14608257D01*
X12680357Y-14579686D01*
X12694643Y-14565400D01*
X12723214Y-14551114D01*
X12951786Y-14822543D02*
X12966071Y-14836829D01*
X12951786Y-14851114D01*
X12937500Y-14836829D01*
X12951786Y-14822543D01*
X12951786Y-14851114D01*
X13151786Y-14551114D02*
X13180357Y-14551114D01*
X13208928Y-14565400D01*
X13223214Y-14579686D01*
X13237500Y-14608257D01*
X13251786Y-14665400D01*
X13251786Y-14736829D01*
X13237500Y-14793971D01*
X13223214Y-14822543D01*
X13208928Y-14836829D01*
X13180357Y-14851114D01*
X13151786Y-14851114D01*
X13123214Y-14836829D01*
X13108928Y-14822543D01*
X13094643Y-14793971D01*
X13080357Y-14736829D01*
X13080357Y-14665400D01*
X13094643Y-14608257D01*
X13108928Y-14579686D01*
X13123214Y-14565400D01*
X13151786Y-14551114D01*
X13508928Y-14551114D02*
X13451786Y-14551114D01*
X13423214Y-14565400D01*
X13408928Y-14579686D01*
X13380357Y-14622543D01*
X13366071Y-14679686D01*
X13366071Y-14793971D01*
X13380357Y-14822543D01*
X13394643Y-14836829D01*
X13423214Y-14851114D01*
X13480357Y-14851114D01*
X13508928Y-14836829D01*
X13523214Y-14822543D01*
X13537500Y-14793971D01*
X13537500Y-14722543D01*
X13523214Y-14693971D01*
X13508928Y-14679686D01*
X13480357Y-14665400D01*
X13423214Y-14665400D01*
X13394643Y-14679686D01*
X13380357Y-14693971D01*
X13366071Y-14722543D01*
X13794643Y-14551114D02*
X13737500Y-14551114D01*
X13708928Y-14565400D01*
X13694643Y-14579686D01*
X13666071Y-14622543D01*
X13651786Y-14679686D01*
X13651786Y-14793971D01*
X13666071Y-14822543D01*
X13680357Y-14836829D01*
X13708928Y-14851114D01*
X13766071Y-14851114D01*
X13794643Y-14836829D01*
X13808928Y-14822543D01*
X13823214Y-14793971D01*
X13823214Y-14722543D01*
X13808928Y-14693971D01*
X13794643Y-14679686D01*
X13766071Y-14665400D01*
X13708928Y-14665400D01*
X13680357Y-14679686D01*
X13666071Y-14693971D01*
X13651786Y-14722543D01*
X13966071Y-14851114D02*
X14023214Y-14851114D01*
X14051786Y-14836829D01*
X14066071Y-14822543D01*
X14094643Y-14779686D01*
X14108928Y-14722543D01*
X14108928Y-14608257D01*
X14094643Y-14579686D01*
X14080357Y-14565400D01*
X14051786Y-14551114D01*
X13994643Y-14551114D01*
X13966071Y-14565400D01*
X13951786Y-14579686D01*
X13937500Y-14608257D01*
X13937500Y-14679686D01*
X13951786Y-14708257D01*
X13966071Y-14722543D01*
X13994643Y-14736829D01*
X14051786Y-14736829D01*
X14080357Y-14722543D01*
X14094643Y-14708257D01*
X14108928Y-14679686D01*
X14223214Y-14551114D02*
X14223214Y-14608257D01*
X14337500Y-14551114D02*
X14337500Y-14608257D01*
X14780357Y-14965400D02*
X14766071Y-14951114D01*
X14737500Y-14908257D01*
X14723214Y-14879686D01*
X14708928Y-14836829D01*
X14694643Y-14765400D01*
X14694643Y-14708257D01*
X14708928Y-14636829D01*
X14723214Y-14593971D01*
X14737500Y-14565400D01*
X14766071Y-14522543D01*
X14780357Y-14508257D01*
X15051786Y-14851114D02*
X14880357Y-14851114D01*
X14966071Y-14851114D02*
X14966071Y-14551114D01*
X14937500Y-14593971D01*
X14908928Y-14622543D01*
X14880357Y-14636829D01*
X15308928Y-14551114D02*
X15251786Y-14551114D01*
X15223214Y-14565400D01*
X15208928Y-14579686D01*
X15180357Y-14622543D01*
X15166071Y-14679686D01*
X15166071Y-14793971D01*
X15180357Y-14822543D01*
X15194643Y-14836829D01*
X15223214Y-14851114D01*
X15280357Y-14851114D01*
X15308928Y-14836829D01*
X15323214Y-14822543D01*
X15337500Y-14793971D01*
X15337500Y-14722543D01*
X15323214Y-14693971D01*
X15308928Y-14679686D01*
X15280357Y-14665400D01*
X15223214Y-14665400D01*
X15194643Y-14679686D01*
X15180357Y-14693971D01*
X15166071Y-14722543D01*
X15694643Y-14851114D02*
X15694643Y-14551114D01*
X15823214Y-14851114D02*
X15823214Y-14693971D01*
X15808928Y-14665400D01*
X15780357Y-14651114D01*
X15737500Y-14651114D01*
X15708928Y-14665400D01*
X15694643Y-14679686D01*
X16008928Y-14851114D02*
X15980357Y-14836829D01*
X15966071Y-14822543D01*
X15951786Y-14793971D01*
X15951786Y-14708257D01*
X15966071Y-14679686D01*
X15980357Y-14665400D01*
X16008928Y-14651114D01*
X16051786Y-14651114D01*
X16080357Y-14665400D01*
X16094643Y-14679686D01*
X16108928Y-14708257D01*
X16108928Y-14793971D01*
X16094643Y-14822543D01*
X16080357Y-14836829D01*
X16051786Y-14851114D01*
X16008928Y-14851114D01*
X16280357Y-14851114D02*
X16251786Y-14836829D01*
X16237500Y-14808257D01*
X16237500Y-14551114D01*
X16508928Y-14836829D02*
X16480357Y-14851114D01*
X16423214Y-14851114D01*
X16394643Y-14836829D01*
X16380357Y-14808257D01*
X16380357Y-14693971D01*
X16394643Y-14665400D01*
X16423214Y-14651114D01*
X16480357Y-14651114D01*
X16508928Y-14665400D01*
X16523214Y-14693971D01*
X16523214Y-14722543D01*
X16380357Y-14751114D01*
X16637500Y-14836829D02*
X16666071Y-14851114D01*
X16723214Y-14851114D01*
X16751786Y-14836829D01*
X16766071Y-14808257D01*
X16766071Y-14793971D01*
X16751786Y-14765400D01*
X16723214Y-14751114D01*
X16680357Y-14751114D01*
X16651786Y-14736829D01*
X16637500Y-14708257D01*
X16637500Y-14693971D01*
X16651786Y-14665400D01*
X16680357Y-14651114D01*
X16723214Y-14651114D01*
X16751786Y-14665400D01*
X16866071Y-14965400D02*
X16880357Y-14951114D01*
X16908928Y-14908257D01*
X16923214Y-14879686D01*
X16937500Y-14836829D01*
X16951786Y-14765400D01*
X16951786Y-14708257D01*
X16937500Y-14636829D01*
X16923214Y-14593971D01*
X16908928Y-14565400D01*
X16880357Y-14522543D01*
X16866071Y-14508257D01*
X9347500Y-15023900D02*
X9522500Y-15198900D01*
X9522500Y-15023900D02*
X9347500Y-15198900D01*
X9435000Y-15023900D02*
X9435000Y-15198900D01*
X9347500Y-15111400D02*
X9522500Y-15111400D01*
X9966071Y-15247114D02*
X9794643Y-15247114D01*
X9880357Y-15247114D02*
X9880357Y-14947114D01*
X9851786Y-14989971D01*
X9823214Y-15018543D01*
X9794643Y-15032829D01*
X10094643Y-15218543D02*
X10108928Y-15232829D01*
X10094643Y-15247114D01*
X10080357Y-15232829D01*
X10094643Y-15218543D01*
X10094643Y-15247114D01*
X10208928Y-14947114D02*
X10408928Y-14947114D01*
X10280357Y-15247114D01*
X10666071Y-14947114D02*
X10523214Y-14947114D01*
X10508928Y-15089971D01*
X10523214Y-15075686D01*
X10551786Y-15061400D01*
X10623214Y-15061400D01*
X10651786Y-15075686D01*
X10666071Y-15089971D01*
X10680357Y-15118543D01*
X10680357Y-15189971D01*
X10666071Y-15218543D01*
X10651786Y-15232829D01*
X10623214Y-15247114D01*
X10551786Y-15247114D01*
X10523214Y-15232829D01*
X10508928Y-15218543D01*
X10866071Y-14947114D02*
X10894643Y-14947114D01*
X10923214Y-14961400D01*
X10937500Y-14975686D01*
X10951786Y-15004257D01*
X10966071Y-15061400D01*
X10966071Y-15132829D01*
X10951786Y-15189971D01*
X10937500Y-15218543D01*
X10923214Y-15232829D01*
X10894643Y-15247114D01*
X10866071Y-15247114D01*
X10837500Y-15232829D01*
X10823214Y-15218543D01*
X10808928Y-15189971D01*
X10794643Y-15132829D01*
X10794643Y-15061400D01*
X10808928Y-15004257D01*
X10823214Y-14975686D01*
X10837500Y-14961400D01*
X10866071Y-14947114D01*
X11094643Y-15247114D02*
X11094643Y-15047114D01*
X11094643Y-15075686D02*
X11108928Y-15061400D01*
X11137500Y-15047114D01*
X11180357Y-15047114D01*
X11208928Y-15061400D01*
X11223214Y-15089971D01*
X11223214Y-15247114D01*
X11223214Y-15089971D02*
X11237500Y-15061400D01*
X11266071Y-15047114D01*
X11308928Y-15047114D01*
X11337500Y-15061400D01*
X11351786Y-15089971D01*
X11351786Y-15247114D01*
X11494643Y-15247114D02*
X11494643Y-15047114D01*
X11494643Y-15075686D02*
X11508928Y-15061400D01*
X11537500Y-15047114D01*
X11580357Y-15047114D01*
X11608928Y-15061400D01*
X11623214Y-15089971D01*
X11623214Y-15247114D01*
X11623214Y-15089971D02*
X11637500Y-15061400D01*
X11666071Y-15047114D01*
X11708928Y-15047114D01*
X11737500Y-15061400D01*
X11751786Y-15089971D01*
X11751786Y-15247114D01*
X12337500Y-14932829D02*
X12080357Y-15318543D01*
X12723214Y-14947114D02*
X12751786Y-14947114D01*
X12780357Y-14961400D01*
X12794643Y-14975686D01*
X12808928Y-15004257D01*
X12823214Y-15061400D01*
X12823214Y-15132829D01*
X12808928Y-15189971D01*
X12794643Y-15218543D01*
X12780357Y-15232829D01*
X12751786Y-15247114D01*
X12723214Y-15247114D01*
X12694643Y-15232829D01*
X12680357Y-15218543D01*
X12666071Y-15189971D01*
X12651786Y-15132829D01*
X12651786Y-15061400D01*
X12666071Y-15004257D01*
X12680357Y-14975686D01*
X12694643Y-14961400D01*
X12723214Y-14947114D01*
X12951786Y-15218543D02*
X12966071Y-15232829D01*
X12951786Y-15247114D01*
X12937500Y-15232829D01*
X12951786Y-15218543D01*
X12951786Y-15247114D01*
X13151786Y-14947114D02*
X13180357Y-14947114D01*
X13208928Y-14961400D01*
X13223214Y-14975686D01*
X13237500Y-15004257D01*
X13251786Y-15061400D01*
X13251786Y-15132829D01*
X13237500Y-15189971D01*
X13223214Y-15218543D01*
X13208928Y-15232829D01*
X13180357Y-15247114D01*
X13151786Y-15247114D01*
X13123214Y-15232829D01*
X13108928Y-15218543D01*
X13094643Y-15189971D01*
X13080357Y-15132829D01*
X13080357Y-15061400D01*
X13094643Y-15004257D01*
X13108928Y-14975686D01*
X13123214Y-14961400D01*
X13151786Y-14947114D01*
X13508928Y-14947114D02*
X13451786Y-14947114D01*
X13423214Y-14961400D01*
X13408928Y-14975686D01*
X13380357Y-15018543D01*
X13366071Y-15075686D01*
X13366071Y-15189971D01*
X13380357Y-15218543D01*
X13394643Y-15232829D01*
X13423214Y-15247114D01*
X13480357Y-15247114D01*
X13508928Y-15232829D01*
X13523214Y-15218543D01*
X13537500Y-15189971D01*
X13537500Y-15118543D01*
X13523214Y-15089971D01*
X13508928Y-15075686D01*
X13480357Y-15061400D01*
X13423214Y-15061400D01*
X13394643Y-15075686D01*
X13380357Y-15089971D01*
X13366071Y-15118543D01*
X13708928Y-15075686D02*
X13680357Y-15061400D01*
X13666071Y-15047114D01*
X13651786Y-15018543D01*
X13651786Y-15004257D01*
X13666071Y-14975686D01*
X13680357Y-14961400D01*
X13708928Y-14947114D01*
X13766071Y-14947114D01*
X13794643Y-14961400D01*
X13808928Y-14975686D01*
X13823214Y-15004257D01*
X13823214Y-15018543D01*
X13808928Y-15047114D01*
X13794643Y-15061400D01*
X13766071Y-15075686D01*
X13708928Y-15075686D01*
X13680357Y-15089971D01*
X13666071Y-15104257D01*
X13651786Y-15132829D01*
X13651786Y-15189971D01*
X13666071Y-15218543D01*
X13680357Y-15232829D01*
X13708928Y-15247114D01*
X13766071Y-15247114D01*
X13794643Y-15232829D01*
X13808928Y-15218543D01*
X13823214Y-15189971D01*
X13823214Y-15132829D01*
X13808928Y-15104257D01*
X13794643Y-15089971D01*
X13766071Y-15075686D01*
X13966071Y-15247114D02*
X14023214Y-15247114D01*
X14051786Y-15232829D01*
X14066071Y-15218543D01*
X14094643Y-15175686D01*
X14108928Y-15118543D01*
X14108928Y-15004257D01*
X14094643Y-14975686D01*
X14080357Y-14961400D01*
X14051786Y-14947114D01*
X13994643Y-14947114D01*
X13966071Y-14961400D01*
X13951786Y-14975686D01*
X13937500Y-15004257D01*
X13937500Y-15075686D01*
X13951786Y-15104257D01*
X13966071Y-15118543D01*
X13994643Y-15132829D01*
X14051786Y-15132829D01*
X14080357Y-15118543D01*
X14094643Y-15104257D01*
X14108928Y-15075686D01*
X14223214Y-14947114D02*
X14223214Y-15004257D01*
X14337500Y-14947114D02*
X14337500Y-15004257D01*
X14780357Y-15361400D02*
X14766071Y-15347114D01*
X14737500Y-15304257D01*
X14723214Y-15275686D01*
X14708928Y-15232829D01*
X14694643Y-15161400D01*
X14694643Y-15104257D01*
X14708928Y-15032829D01*
X14723214Y-14989971D01*
X14737500Y-14961400D01*
X14766071Y-14918543D01*
X14780357Y-14904257D01*
X14880357Y-14975686D02*
X14894643Y-14961400D01*
X14923214Y-14947114D01*
X14994643Y-14947114D01*
X15023214Y-14961400D01*
X15037500Y-14975686D01*
X15051786Y-15004257D01*
X15051786Y-15032829D01*
X15037500Y-15075686D01*
X14866071Y-15247114D01*
X15051786Y-15247114D01*
X15408928Y-15247114D02*
X15408928Y-14947114D01*
X15537500Y-15247114D02*
X15537500Y-15089971D01*
X15523214Y-15061400D01*
X15494643Y-15047114D01*
X15451786Y-15047114D01*
X15423214Y-15061400D01*
X15408928Y-15075686D01*
X15723214Y-15247114D02*
X15694643Y-15232829D01*
X15680357Y-15218543D01*
X15666071Y-15189971D01*
X15666071Y-15104257D01*
X15680357Y-15075686D01*
X15694643Y-15061400D01*
X15723214Y-15047114D01*
X15766071Y-15047114D01*
X15794643Y-15061400D01*
X15808928Y-15075686D01*
X15823214Y-15104257D01*
X15823214Y-15189971D01*
X15808928Y-15218543D01*
X15794643Y-15232829D01*
X15766071Y-15247114D01*
X15723214Y-15247114D01*
X15994643Y-15247114D02*
X15966071Y-15232829D01*
X15951786Y-15204257D01*
X15951786Y-14947114D01*
X16223214Y-15232829D02*
X16194643Y-15247114D01*
X16137500Y-15247114D01*
X16108928Y-15232829D01*
X16094643Y-15204257D01*
X16094643Y-15089971D01*
X16108928Y-15061400D01*
X16137500Y-15047114D01*
X16194643Y-15047114D01*
X16223214Y-15061400D01*
X16237500Y-15089971D01*
X16237500Y-15118543D01*
X16094643Y-15147114D01*
X16351786Y-15232829D02*
X16380357Y-15247114D01*
X16437500Y-15247114D01*
X16466071Y-15232829D01*
X16480357Y-15204257D01*
X16480357Y-15189971D01*
X16466071Y-15161400D01*
X16437500Y-15147114D01*
X16394643Y-15147114D01*
X16366071Y-15132829D01*
X16351786Y-15104257D01*
X16351786Y-15089971D01*
X16366071Y-15061400D01*
X16394643Y-15047114D01*
X16437500Y-15047114D01*
X16466071Y-15061400D01*
X16580357Y-15361400D02*
X16594643Y-15347114D01*
X16623214Y-15304257D01*
X16637500Y-15275686D01*
X16651786Y-15232829D01*
X16666071Y-15161400D01*
X16666071Y-15104257D01*
X16651786Y-15032829D01*
X16637500Y-14989971D01*
X16623214Y-14961400D01*
X16594643Y-14918543D01*
X16580357Y-14904257D01*
M02*
