G04 #@! TF.GenerationSoftware,KiCad,Pcbnew,(5.1.12)-1*
G04 #@! TF.CreationDate,2021-12-16T15:17:12+01:00*
G04 #@! TF.ProjectId,rj45_mag_sma,726a3435-5f6d-4616-975f-736d612e6b69,rev?*
G04 #@! TF.SameCoordinates,Original*
G04 #@! TF.FileFunction,Soldermask,Bot*
G04 #@! TF.FilePolarity,Negative*
%FSLAX46Y46*%
G04 Gerber Fmt 4.6, Leading zero omitted, Abs format (unit mm)*
G04 Created by KiCad (PCBNEW (5.1.12)-1) date 2021-12-16 15:17:12*
%MOMM*%
%LPD*%
G01*
G04 APERTURE LIST*
%ADD10C,2.350000*%
%ADD11C,2.150000*%
%ADD12C,3.350000*%
%ADD13C,3.100000*%
%ADD14C,1.600000*%
G04 APERTURE END LIST*
D10*
X136212200Y-94931800D03*
X136212200Y-89851800D03*
X141292200Y-89851800D03*
X141292200Y-94931800D03*
D11*
X138752200Y-92391800D03*
X138752200Y-101408800D03*
D10*
X141292200Y-103948800D03*
X141292200Y-98868800D03*
X136212200Y-98868800D03*
X136212200Y-103948800D03*
D11*
X131775200Y-83108800D03*
D10*
X134315200Y-85648800D03*
X134315200Y-80568800D03*
X129235200Y-80568800D03*
X129235200Y-85648800D03*
X129235200Y-112738800D03*
X129235200Y-107658800D03*
X134315200Y-107658800D03*
X134315200Y-112738800D03*
D11*
X131775200Y-110198800D03*
D12*
X103505000Y-104267000D03*
D13*
X100455000Y-106322000D03*
D12*
X103505000Y-92837000D03*
D14*
X109855000Y-96647000D03*
X109855000Y-99187000D03*
X112395000Y-97917000D03*
X109855000Y-101727000D03*
G36*
G01*
X110605000Y-94907000D02*
X109105000Y-94907000D01*
G75*
G02*
X109055000Y-94857000I0J50000D01*
G01*
X109055000Y-93357000D01*
G75*
G02*
X109105000Y-93307000I50000J0D01*
G01*
X110605000Y-93307000D01*
G75*
G02*
X110655000Y-93357000I0J-50000D01*
G01*
X110655000Y-94857000D01*
G75*
G02*
X110605000Y-94907000I-50000J0D01*
G01*
G37*
X112395000Y-95377000D03*
D13*
X100455000Y-90782000D03*
D14*
X112395000Y-102997000D03*
X112395000Y-100457000D03*
G36*
G01*
X104622000Y-82018000D02*
X104622000Y-79018000D01*
G75*
G02*
X104672000Y-78968000I50000J0D01*
G01*
X107672000Y-78968000D01*
G75*
G02*
X107722000Y-79018000I0J-50000D01*
G01*
X107722000Y-82018000D01*
G75*
G02*
X107672000Y-82068000I-50000J0D01*
G01*
X104672000Y-82068000D01*
G75*
G02*
X104622000Y-82018000I0J50000D01*
G01*
G37*
D13*
X110052000Y-80518000D03*
M02*
