M48
; DRILL file {KiCad (5.1.12)-1} date 12/17/21 11:46:12
; FORMAT={-:-/ absolute / metric / decimal}
; #@! TF.CreationDate,2021-12-17T11:46:12+01:00
; #@! TF.GenerationSoftware,Kicad,Pcbnew,(5.1.12)-1
; #@! TF.FileFunction,Plated,1,2,PTH
FMAT,2
METRIC
T1C0.400
T2C0.500
T3C0.800
T4C1.000
T5C3.200
%
G90
G05
T1
X97.155Y-101.194
X103.383Y-104.5
X103.669Y-111.608
X103.886Y-98.908
X104.394Y-109.068
X104.394Y-116.18
X104.394Y-117.196
X104.907Y-102.976
X105.156Y-106.528
X106.426Y-104.496
X107.188Y-102.972
X107.442Y-115.164
X108.712Y-96.368
X109.22Y-113.64
X109.474Y-93.828
X111.506Y-111.354
X111.76Y-101.829
X111.76Y-103.734
X113.03Y-110.084
X113.792Y-109.322
X114.3Y-103.734
X114.351Y-106.629
X114.554Y-108.56
X115.824Y-93.828
X115.824Y-96.368
X117.348Y-110.338
X117.348Y-112.116
X118.617Y-106.526
X118.745Y-93.828
X118.745Y-96.368
X119.888Y-100.94
X120.142Y-110.338
X120.142Y-112.116
X120.904Y-102.21
X121.666Y-100.94
X121.92Y-93.828
X121.92Y-96.368
X121.92Y-119.609
X123.19Y-103.734
X123.19Y-106.274
X123.19Y-108.814
X124.46Y-117.704
X125.73Y-103.734
X125.73Y-106.274
X125.73Y-108.724
X126.746Y-118.212
X127.22Y-113.724
X128.27Y-103.734
X128.27Y-106.274
X128.27Y-108.814
X130.175Y-101.829
X130.175Y-110.719
X132.08Y-116.688
X134.62Y-94.844
X136.652Y-110.592
X137.149Y-100.7
X137.261Y-127.358
X137.337Y-119.915
X138.176Y-107.29
X138.524Y-100.7
X139.898Y-100.7
X141.12Y-106.074
X141.139Y-103.424
X141.272Y-100.7
X142.521Y-103.424
X142.646Y-100.7
X143.762Y-106.891
X143.902Y-103.424
X144.021Y-100.7
X145.283Y-103.424
X145.395Y-100.7
X146.016Y-106.507
X146.664Y-103.424
X146.769Y-100.7
X147.405Y-106.507
X148.045Y-103.424
X148.649Y-98.819
X149.076Y-102.393
X149.589Y-97.879
X150.106Y-101.363
X151.137Y-100.332
X151.469Y-95.999
X152.167Y-99.302
X153.82Y-104.624
X154.17Y-101.424
X154.512Y-97.974
X155.893Y-97.974
X156.418Y-94.974
X157.274Y-97.974
X157.748Y-94.974
X158.655Y-97.974
X159.077Y-94.974
X160.037Y-97.974
X160.407Y-94.974
X161.418Y-97.974
X161.736Y-94.974
X162.682Y-101.024
X162.799Y-97.974
X163.066Y-94.974
X163.306Y-107.514
X164.395Y-94.974
X164.866Y-107.514
X165.128Y-99.157
X165.721Y-95.012
X165.87Y-103.324
X165.937Y-100.247
X165.97Y-101.626
X166.425Y-107.512
X166.769Y-95.797
X167.709Y-96.738
X168.485Y-105.933
X168.649Y-97.678
X169.97Y-99.845
X169.97Y-101.175
X169.97Y-102.504
X169.97Y-103.834
T2
X93.82Y-80.724
X93.82Y-128.724
X94.523Y-79.027
X94.523Y-82.421
X94.523Y-127.027
X94.523Y-130.421
X96.22Y-78.324
X96.22Y-83.124
X96.22Y-126.324
X96.22Y-131.124
X97.917Y-79.027
X97.917Y-82.421
X97.917Y-127.027
X97.917Y-130.421
X98.62Y-80.724
X98.62Y-128.724
X149.745Y-91.82
X149.745Y-117.627
X150.448Y-90.123
X150.448Y-93.517
X150.448Y-115.93
X150.448Y-119.324
X152.145Y-89.42
X152.145Y-94.22
X152.145Y-115.227
X152.145Y-120.027
X153.842Y-90.123
X153.842Y-93.517
X153.842Y-115.93
X153.842Y-119.324
X154.545Y-91.82
X154.545Y-117.627
X171.82Y-80.724
X171.82Y-128.724
X172.523Y-79.027
X172.523Y-82.421
X172.523Y-127.027
X172.523Y-130.421
X174.22Y-78.324
X174.22Y-83.124
X174.22Y-126.324
X174.22Y-131.124
X175.917Y-79.027
X175.917Y-82.421
X175.917Y-127.027
X175.917Y-130.421
X176.62Y-80.724
X176.62Y-128.724
T3
X94.72Y-86.224
X96.22Y-120.724
X106.22Y-130.724
X107.22Y-78.724
X114.173Y-88.621
X114.3Y-101.194
X119.72Y-78.724
X132.22Y-78.724
X137.22Y-86.224
X138.049Y-108.814
X142.22Y-93.724
X144.72Y-78.724
X144.72Y-86.224
X144.72Y-116.224
X152.22Y-86.224
X152.958Y-129.136
X158.673Y-86.337
X161.22Y-109.724
X166.22Y-119.724
X174.22Y-89.724
X174.22Y-100.724
X174.22Y-109.724
T4
X99.06Y-90.018
X99.06Y-92.558
X99.06Y-95.098
X99.06Y-97.638
X99.06Y-100.178
X99.06Y-102.718
X99.06Y-105.258
X99.06Y-107.798
X99.06Y-110.338
X99.06Y-112.878
X99.06Y-115.418
X99.06Y-117.958
X101.6Y-90.018
X101.6Y-92.558
X101.6Y-95.098
X101.6Y-97.638
X101.6Y-100.178
X101.6Y-102.718
X101.6Y-105.258
X101.6Y-107.798
X101.6Y-110.338
X101.6Y-112.878
X101.6Y-115.418
X101.6Y-117.958
T5
X96.22Y-80.724
X96.22Y-128.724
X152.145Y-91.82
X152.145Y-117.627
X174.22Y-80.724
X174.22Y-128.724
T0
M30
