%FSLAX45Y45*%
G04 Gerber Fmt 4.5, Leading zero omitted, Abs format (unit mm)*
G04 Created by KiCad (PCBNEW (5.1.12)-1) date 2021-12-17 11:46:13*
%MOMM*%
%LPD*%
G01*
G04 APERTURE LIST*
%TA.AperFunction,Profile*%
%ADD10C,0.050000*%
%TD*%
%ADD11C,0.200000*%
%ADD12C,0.300000*%
G04 APERTURE END LIST*
D10*
X9022000Y-7472360D02*
X18022000Y-7472360D01*
X18022000Y-7472360D02*
X18022000Y-13472360D01*
X9022000Y-13472360D02*
X9022000Y-7472360D01*
X18022000Y-13472360D02*
X9022000Y-13472360D01*
D11*
X15923682Y-10178490D02*
X16003682Y-10258490D01*
X16003682Y-10178490D02*
X15923682Y-10258490D01*
X15923682Y-10684230D02*
X16003682Y-10764230D01*
X16003682Y-10684230D02*
X15923682Y-10764230D01*
D12*
X9305928Y-13940574D02*
X9305928Y-13640574D01*
X9377357Y-13640574D01*
X9420214Y-13654860D01*
X9448786Y-13683431D01*
X9463071Y-13712003D01*
X9477357Y-13769146D01*
X9477357Y-13812003D01*
X9463071Y-13869146D01*
X9448786Y-13897717D01*
X9420214Y-13926289D01*
X9377357Y-13940574D01*
X9305928Y-13940574D01*
X9605928Y-13940574D02*
X9605928Y-13740574D01*
X9605928Y-13797717D02*
X9620214Y-13769146D01*
X9634500Y-13754860D01*
X9663071Y-13740574D01*
X9691643Y-13740574D01*
X9791643Y-13940574D02*
X9791643Y-13740574D01*
X9791643Y-13640574D02*
X9777357Y-13654860D01*
X9791643Y-13669146D01*
X9805928Y-13654860D01*
X9791643Y-13640574D01*
X9791643Y-13669146D01*
X9977357Y-13940574D02*
X9948786Y-13926289D01*
X9934500Y-13897717D01*
X9934500Y-13640574D01*
X10134500Y-13940574D02*
X10105928Y-13926289D01*
X10091643Y-13897717D01*
X10091643Y-13640574D01*
X10477357Y-13940574D02*
X10477357Y-13640574D01*
X10577357Y-13854860D01*
X10677357Y-13640574D01*
X10677357Y-13940574D01*
X10948786Y-13940574D02*
X10948786Y-13783431D01*
X10934500Y-13754860D01*
X10905928Y-13740574D01*
X10848786Y-13740574D01*
X10820214Y-13754860D01*
X10948786Y-13926289D02*
X10920214Y-13940574D01*
X10848786Y-13940574D01*
X10820214Y-13926289D01*
X10805928Y-13897717D01*
X10805928Y-13869146D01*
X10820214Y-13840574D01*
X10848786Y-13826289D01*
X10920214Y-13826289D01*
X10948786Y-13812003D01*
X11091643Y-13740574D02*
X11091643Y-14040574D01*
X11091643Y-13754860D02*
X11120214Y-13740574D01*
X11177357Y-13740574D01*
X11205928Y-13754860D01*
X11220214Y-13769146D01*
X11234500Y-13797717D01*
X11234500Y-13883431D01*
X11220214Y-13912003D01*
X11205928Y-13926289D01*
X11177357Y-13940574D01*
X11120214Y-13940574D01*
X11091643Y-13926289D01*
X11363071Y-13912003D02*
X11377357Y-13926289D01*
X11363071Y-13940574D01*
X11348786Y-13926289D01*
X11363071Y-13912003D01*
X11363071Y-13940574D01*
X11363071Y-13754860D02*
X11377357Y-13769146D01*
X11363071Y-13783431D01*
X11348786Y-13769146D01*
X11363071Y-13754860D01*
X11363071Y-13783431D01*
X8939500Y-14394860D02*
X9019500Y-14474860D01*
X9019500Y-14394860D02*
X8939500Y-14474860D01*
X9363071Y-14270574D02*
X9391643Y-14270574D01*
X9420214Y-14284860D01*
X9434500Y-14299146D01*
X9448786Y-14327717D01*
X9463071Y-14384860D01*
X9463071Y-14456289D01*
X9448786Y-14513431D01*
X9434500Y-14542003D01*
X9420214Y-14556289D01*
X9391643Y-14570574D01*
X9363071Y-14570574D01*
X9334500Y-14556289D01*
X9320214Y-14542003D01*
X9305928Y-14513431D01*
X9291643Y-14456289D01*
X9291643Y-14384860D01*
X9305928Y-14327717D01*
X9320214Y-14299146D01*
X9334500Y-14284860D01*
X9363071Y-14270574D01*
X9591643Y-14542003D02*
X9605928Y-14556289D01*
X9591643Y-14570574D01*
X9577357Y-14556289D01*
X9591643Y-14542003D01*
X9591643Y-14570574D01*
X9777357Y-14399146D02*
X9748786Y-14384860D01*
X9734500Y-14370574D01*
X9720214Y-14342003D01*
X9720214Y-14327717D01*
X9734500Y-14299146D01*
X9748786Y-14284860D01*
X9777357Y-14270574D01*
X9834500Y-14270574D01*
X9863071Y-14284860D01*
X9877357Y-14299146D01*
X9891643Y-14327717D01*
X9891643Y-14342003D01*
X9877357Y-14370574D01*
X9863071Y-14384860D01*
X9834500Y-14399146D01*
X9777357Y-14399146D01*
X9748786Y-14413431D01*
X9734500Y-14427717D01*
X9720214Y-14456289D01*
X9720214Y-14513431D01*
X9734500Y-14542003D01*
X9748786Y-14556289D01*
X9777357Y-14570574D01*
X9834500Y-14570574D01*
X9863071Y-14556289D01*
X9877357Y-14542003D01*
X9891643Y-14513431D01*
X9891643Y-14456289D01*
X9877357Y-14427717D01*
X9863071Y-14413431D01*
X9834500Y-14399146D01*
X10077357Y-14270574D02*
X10105928Y-14270574D01*
X10134500Y-14284860D01*
X10148786Y-14299146D01*
X10163071Y-14327717D01*
X10177357Y-14384860D01*
X10177357Y-14456289D01*
X10163071Y-14513431D01*
X10148786Y-14542003D01*
X10134500Y-14556289D01*
X10105928Y-14570574D01*
X10077357Y-14570574D01*
X10048786Y-14556289D01*
X10034500Y-14542003D01*
X10020214Y-14513431D01*
X10005928Y-14456289D01*
X10005928Y-14384860D01*
X10020214Y-14327717D01*
X10034500Y-14299146D01*
X10048786Y-14284860D01*
X10077357Y-14270574D01*
X10363071Y-14270574D02*
X10391643Y-14270574D01*
X10420214Y-14284860D01*
X10434500Y-14299146D01*
X10448786Y-14327717D01*
X10463071Y-14384860D01*
X10463071Y-14456289D01*
X10448786Y-14513431D01*
X10434500Y-14542003D01*
X10420214Y-14556289D01*
X10391643Y-14570574D01*
X10363071Y-14570574D01*
X10334500Y-14556289D01*
X10320214Y-14542003D01*
X10305928Y-14513431D01*
X10291643Y-14456289D01*
X10291643Y-14384860D01*
X10305928Y-14327717D01*
X10320214Y-14299146D01*
X10334500Y-14284860D01*
X10363071Y-14270574D01*
X10591643Y-14570574D02*
X10591643Y-14370574D01*
X10591643Y-14399146D02*
X10605928Y-14384860D01*
X10634500Y-14370574D01*
X10677357Y-14370574D01*
X10705928Y-14384860D01*
X10720214Y-14413431D01*
X10720214Y-14570574D01*
X10720214Y-14413431D02*
X10734500Y-14384860D01*
X10763071Y-14370574D01*
X10805928Y-14370574D01*
X10834500Y-14384860D01*
X10848786Y-14413431D01*
X10848786Y-14570574D01*
X10991643Y-14570574D02*
X10991643Y-14370574D01*
X10991643Y-14399146D02*
X11005928Y-14384860D01*
X11034500Y-14370574D01*
X11077357Y-14370574D01*
X11105928Y-14384860D01*
X11120214Y-14413431D01*
X11120214Y-14570574D01*
X11120214Y-14413431D02*
X11134500Y-14384860D01*
X11163071Y-14370574D01*
X11205928Y-14370574D01*
X11234500Y-14384860D01*
X11248786Y-14413431D01*
X11248786Y-14570574D01*
X11834500Y-14256289D02*
X11577357Y-14642003D01*
X12220214Y-14270574D02*
X12248786Y-14270574D01*
X12277357Y-14284860D01*
X12291643Y-14299146D01*
X12305928Y-14327717D01*
X12320214Y-14384860D01*
X12320214Y-14456289D01*
X12305928Y-14513431D01*
X12291643Y-14542003D01*
X12277357Y-14556289D01*
X12248786Y-14570574D01*
X12220214Y-14570574D01*
X12191643Y-14556289D01*
X12177357Y-14542003D01*
X12163071Y-14513431D01*
X12148786Y-14456289D01*
X12148786Y-14384860D01*
X12163071Y-14327717D01*
X12177357Y-14299146D01*
X12191643Y-14284860D01*
X12220214Y-14270574D01*
X12448786Y-14542003D02*
X12463071Y-14556289D01*
X12448786Y-14570574D01*
X12434500Y-14556289D01*
X12448786Y-14542003D01*
X12448786Y-14570574D01*
X12648786Y-14270574D02*
X12677357Y-14270574D01*
X12705928Y-14284860D01*
X12720214Y-14299146D01*
X12734500Y-14327717D01*
X12748786Y-14384860D01*
X12748786Y-14456289D01*
X12734500Y-14513431D01*
X12720214Y-14542003D01*
X12705928Y-14556289D01*
X12677357Y-14570574D01*
X12648786Y-14570574D01*
X12620214Y-14556289D01*
X12605928Y-14542003D01*
X12591643Y-14513431D01*
X12577357Y-14456289D01*
X12577357Y-14384860D01*
X12591643Y-14327717D01*
X12605928Y-14299146D01*
X12620214Y-14284860D01*
X12648786Y-14270574D01*
X12848786Y-14270574D02*
X13034500Y-14270574D01*
X12934500Y-14384860D01*
X12977357Y-14384860D01*
X13005928Y-14399146D01*
X13020214Y-14413431D01*
X13034500Y-14442003D01*
X13034500Y-14513431D01*
X13020214Y-14542003D01*
X13005928Y-14556289D01*
X12977357Y-14570574D01*
X12891643Y-14570574D01*
X12863071Y-14556289D01*
X12848786Y-14542003D01*
X13320214Y-14570574D02*
X13148786Y-14570574D01*
X13234500Y-14570574D02*
X13234500Y-14270574D01*
X13205928Y-14313431D01*
X13177357Y-14342003D01*
X13148786Y-14356289D01*
X13591643Y-14270574D02*
X13448786Y-14270574D01*
X13434500Y-14413431D01*
X13448786Y-14399146D01*
X13477357Y-14384860D01*
X13548786Y-14384860D01*
X13577357Y-14399146D01*
X13591643Y-14413431D01*
X13605928Y-14442003D01*
X13605928Y-14513431D01*
X13591643Y-14542003D01*
X13577357Y-14556289D01*
X13548786Y-14570574D01*
X13477357Y-14570574D01*
X13448786Y-14556289D01*
X13434500Y-14542003D01*
X13720214Y-14270574D02*
X13720214Y-14327717D01*
X13834500Y-14270574D02*
X13834500Y-14327717D01*
X14277357Y-14684860D02*
X14263071Y-14670574D01*
X14234500Y-14627717D01*
X14220214Y-14599146D01*
X14205928Y-14556289D01*
X14191643Y-14484860D01*
X14191643Y-14427717D01*
X14205928Y-14356289D01*
X14220214Y-14313431D01*
X14234500Y-14284860D01*
X14263071Y-14242003D01*
X14277357Y-14227717D01*
X14377357Y-14299146D02*
X14391643Y-14284860D01*
X14420214Y-14270574D01*
X14491643Y-14270574D01*
X14520214Y-14284860D01*
X14534500Y-14299146D01*
X14548786Y-14327717D01*
X14548786Y-14356289D01*
X14534500Y-14399146D01*
X14363071Y-14570574D01*
X14548786Y-14570574D01*
X14905928Y-14570574D02*
X14905928Y-14270574D01*
X15034500Y-14570574D02*
X15034500Y-14413431D01*
X15020214Y-14384860D01*
X14991643Y-14370574D01*
X14948786Y-14370574D01*
X14920214Y-14384860D01*
X14905928Y-14399146D01*
X15220214Y-14570574D02*
X15191643Y-14556289D01*
X15177357Y-14542003D01*
X15163071Y-14513431D01*
X15163071Y-14427717D01*
X15177357Y-14399146D01*
X15191643Y-14384860D01*
X15220214Y-14370574D01*
X15263071Y-14370574D01*
X15291643Y-14384860D01*
X15305928Y-14399146D01*
X15320214Y-14427717D01*
X15320214Y-14513431D01*
X15305928Y-14542003D01*
X15291643Y-14556289D01*
X15263071Y-14570574D01*
X15220214Y-14570574D01*
X15491643Y-14570574D02*
X15463071Y-14556289D01*
X15448786Y-14527717D01*
X15448786Y-14270574D01*
X15720214Y-14556289D02*
X15691643Y-14570574D01*
X15634500Y-14570574D01*
X15605928Y-14556289D01*
X15591643Y-14527717D01*
X15591643Y-14413431D01*
X15605928Y-14384860D01*
X15634500Y-14370574D01*
X15691643Y-14370574D01*
X15720214Y-14384860D01*
X15734500Y-14413431D01*
X15734500Y-14442003D01*
X15591643Y-14470574D01*
X15848786Y-14556289D02*
X15877357Y-14570574D01*
X15934500Y-14570574D01*
X15963071Y-14556289D01*
X15977357Y-14527717D01*
X15977357Y-14513431D01*
X15963071Y-14484860D01*
X15934500Y-14470574D01*
X15891643Y-14470574D01*
X15863071Y-14456289D01*
X15848786Y-14427717D01*
X15848786Y-14413431D01*
X15863071Y-14384860D01*
X15891643Y-14370574D01*
X15934500Y-14370574D01*
X15963071Y-14384860D01*
X16077357Y-14684860D02*
X16091643Y-14670574D01*
X16120214Y-14627717D01*
X16134500Y-14599146D01*
X16148786Y-14556289D01*
X16163071Y-14484860D01*
X16163071Y-14427717D01*
X16148786Y-14356289D01*
X16134500Y-14313431D01*
X16120214Y-14284860D01*
X16091643Y-14242003D01*
X16077357Y-14227717D01*
X16620214Y-14684860D02*
X16605928Y-14670574D01*
X16577357Y-14627717D01*
X16563071Y-14599146D01*
X16548786Y-14556289D01*
X16534500Y-14484860D01*
X16534500Y-14427717D01*
X16548786Y-14356289D01*
X16563071Y-14313431D01*
X16577357Y-14284860D01*
X16605928Y-14242003D01*
X16620214Y-14227717D01*
X16734500Y-14370574D02*
X16734500Y-14570574D01*
X16734500Y-14399146D02*
X16748786Y-14384860D01*
X16777357Y-14370574D01*
X16820214Y-14370574D01*
X16848786Y-14384860D01*
X16863071Y-14413431D01*
X16863071Y-14570574D01*
X17048786Y-14570574D02*
X17020214Y-14556289D01*
X17005928Y-14542003D01*
X16991643Y-14513431D01*
X16991643Y-14427717D01*
X17005928Y-14399146D01*
X17020214Y-14384860D01*
X17048786Y-14370574D01*
X17091643Y-14370574D01*
X17120214Y-14384860D01*
X17134500Y-14399146D01*
X17148786Y-14427717D01*
X17148786Y-14513431D01*
X17134500Y-14542003D01*
X17120214Y-14556289D01*
X17091643Y-14570574D01*
X17048786Y-14570574D01*
X17234500Y-14370574D02*
X17348786Y-14370574D01*
X17277357Y-14270574D02*
X17277357Y-14527717D01*
X17291643Y-14556289D01*
X17320214Y-14570574D01*
X17348786Y-14570574D01*
X17677357Y-14370574D02*
X17677357Y-14670574D01*
X17677357Y-14384860D02*
X17705928Y-14370574D01*
X17763071Y-14370574D01*
X17791643Y-14384860D01*
X17805928Y-14399146D01*
X17820214Y-14427717D01*
X17820214Y-14513431D01*
X17805928Y-14542003D01*
X17791643Y-14556289D01*
X17763071Y-14570574D01*
X17705928Y-14570574D01*
X17677357Y-14556289D01*
X17991643Y-14570574D02*
X17963071Y-14556289D01*
X17948786Y-14527717D01*
X17948786Y-14270574D01*
X18234500Y-14570574D02*
X18234500Y-14413431D01*
X18220214Y-14384860D01*
X18191643Y-14370574D01*
X18134500Y-14370574D01*
X18105928Y-14384860D01*
X18234500Y-14556289D02*
X18205928Y-14570574D01*
X18134500Y-14570574D01*
X18105928Y-14556289D01*
X18091643Y-14527717D01*
X18091643Y-14499146D01*
X18105928Y-14470574D01*
X18134500Y-14456289D01*
X18205928Y-14456289D01*
X18234500Y-14442003D01*
X18334500Y-14370574D02*
X18448786Y-14370574D01*
X18377357Y-14270574D02*
X18377357Y-14527717D01*
X18391643Y-14556289D01*
X18420214Y-14570574D01*
X18448786Y-14570574D01*
X18663071Y-14556289D02*
X18634500Y-14570574D01*
X18577357Y-14570574D01*
X18548786Y-14556289D01*
X18534500Y-14527717D01*
X18534500Y-14413431D01*
X18548786Y-14384860D01*
X18577357Y-14370574D01*
X18634500Y-14370574D01*
X18663071Y-14384860D01*
X18677357Y-14413431D01*
X18677357Y-14442003D01*
X18534500Y-14470574D01*
X18934500Y-14570574D02*
X18934500Y-14270574D01*
X18934500Y-14556289D02*
X18905928Y-14570574D01*
X18848786Y-14570574D01*
X18820214Y-14556289D01*
X18805928Y-14542003D01*
X18791643Y-14513431D01*
X18791643Y-14427717D01*
X18805928Y-14399146D01*
X18820214Y-14384860D01*
X18848786Y-14370574D01*
X18905928Y-14370574D01*
X18934500Y-14384860D01*
X19048786Y-14684860D02*
X19063071Y-14670574D01*
X19091643Y-14627717D01*
X19105928Y-14599146D01*
X19120214Y-14556289D01*
X19134500Y-14484860D01*
X19134500Y-14427717D01*
X19120214Y-14356289D01*
X19105928Y-14313431D01*
X19091643Y-14284860D01*
X19063071Y-14242003D01*
X19048786Y-14227717D01*
M02*
