G04 #@! TF.GenerationSoftware,KiCad,Pcbnew,(5.1.12)-1*
G04 #@! TF.CreationDate,2021-12-17T11:46:06+01:00*
G04 #@! TF.ProjectId,eth_phy_KSZ8041MLL_mezzanine,6574685f-7068-4795-9f4b-535a38303431,rev?*
G04 #@! TF.SameCoordinates,Original*
G04 #@! TF.FileFunction,Soldermask,Bot*
G04 #@! TF.FilePolarity,Negative*
%FSLAX46Y46*%
G04 Gerber Fmt 4.6, Leading zero omitted, Abs format (unit mm)*
G04 Created by KiCad (PCBNEW (5.1.12)-1) date 2021-12-17 11:46:06*
%MOMM*%
%LPD*%
G01*
G04 APERTURE LIST*
%ADD10C,0.800000*%
%ADD11O,1.700000X1.700000*%
%ADD12R,1.700000X1.700000*%
%ADD13C,6.400000*%
G04 APERTURE END LIST*
D10*
X159636820Y-102184900D03*
X159636820Y-107242300D03*
D11*
X101600000Y-117957600D03*
X99060000Y-117957600D03*
X101600000Y-115417600D03*
X99060000Y-115417600D03*
X101600000Y-112877600D03*
X99060000Y-112877600D03*
X101600000Y-110337600D03*
X99060000Y-110337600D03*
X101600000Y-107797600D03*
X99060000Y-107797600D03*
X101600000Y-105257600D03*
X99060000Y-105257600D03*
X101600000Y-102717600D03*
X99060000Y-102717600D03*
X101600000Y-100177600D03*
X99060000Y-100177600D03*
X101600000Y-97637600D03*
X99060000Y-97637600D03*
X101600000Y-95097600D03*
X99060000Y-95097600D03*
X101600000Y-92557600D03*
X99060000Y-92557600D03*
X101600000Y-90017600D03*
D12*
X99060000Y-90017600D03*
D10*
X97917056Y-79026544D03*
X96220000Y-78323600D03*
X94522944Y-79026544D03*
X93820000Y-80723600D03*
X94522944Y-82420656D03*
X96220000Y-83123600D03*
X97917056Y-82420656D03*
X98620000Y-80723600D03*
D13*
X96220000Y-80723600D03*
D10*
X175917056Y-79026544D03*
X174220000Y-78323600D03*
X172522944Y-79026544D03*
X171820000Y-80723600D03*
X172522944Y-82420656D03*
X174220000Y-83123600D03*
X175917056Y-82420656D03*
X176620000Y-80723600D03*
D13*
X174220000Y-80723600D03*
D10*
X97917056Y-127026544D03*
X96220000Y-126323600D03*
X94522944Y-127026544D03*
X93820000Y-128723600D03*
X94522944Y-130420656D03*
X96220000Y-131123600D03*
X97917056Y-130420656D03*
X98620000Y-128723600D03*
D13*
X96220000Y-128723600D03*
D10*
X175917056Y-127026544D03*
X174220000Y-126323600D03*
X172522944Y-127026544D03*
X171820000Y-128723600D03*
X172522944Y-130420656D03*
X174220000Y-131123600D03*
X175917056Y-130420656D03*
X176620000Y-128723600D03*
D13*
X174220000Y-128723600D03*
D10*
X153842256Y-90123344D03*
X152145200Y-89420400D03*
X150448144Y-90123344D03*
X149745200Y-91820400D03*
X150448144Y-93517456D03*
X152145200Y-94220400D03*
X153842256Y-93517456D03*
X154545200Y-91820400D03*
D13*
X152145200Y-91820400D03*
D10*
X153842256Y-115929744D03*
X152145200Y-115226800D03*
X150448144Y-115929744D03*
X149745200Y-117626800D03*
X150448144Y-119323856D03*
X152145200Y-120026800D03*
X153842256Y-119323856D03*
X154545200Y-117626800D03*
D13*
X152145200Y-117626800D03*
M02*
