G04 #@! TF.GenerationSoftware,KiCad,Pcbnew,(5.1.12)-1*
G04 #@! TF.CreationDate,2021-12-17T11:46:06+01:00*
G04 #@! TF.ProjectId,eth_phy_KSZ8041MLL_mezzanine,6574685f-7068-4795-9f4b-535a38303431,rev?*
G04 #@! TF.SameCoordinates,Original*
G04 #@! TF.FileFunction,Soldermask,Top*
G04 #@! TF.FilePolarity,Negative*
%FSLAX46Y46*%
G04 Gerber Fmt 4.6, Leading zero omitted, Abs format (unit mm)*
G04 Created by KiCad (PCBNEW (5.1.12)-1) date 2021-12-17 11:46:06*
%MOMM*%
%LPD*%
G01*
G04 APERTURE LIST*
%ADD10C,0.800000*%
%ADD11R,2.794000X0.609600*%
%ADD12O,1.700000X1.700000*%
%ADD13R,1.700000X1.700000*%
%ADD14R,3.300000X1.700000*%
%ADD15C,6.400000*%
G04 APERTURE END LIST*
G36*
G01*
X140479400Y-120314601D02*
X140479400Y-119414599D01*
G75*
G02*
X140729399Y-119164600I249999J0D01*
G01*
X141379401Y-119164600D01*
G75*
G02*
X141629400Y-119414599I0J-249999D01*
G01*
X141629400Y-120314601D01*
G75*
G02*
X141379401Y-120564600I-249999J0D01*
G01*
X140729399Y-120564600D01*
G75*
G02*
X140479400Y-120314601I0J249999D01*
G01*
G37*
G36*
G01*
X138429400Y-120314601D02*
X138429400Y-119414599D01*
G75*
G02*
X138679399Y-119164600I249999J0D01*
G01*
X139329401Y-119164600D01*
G75*
G02*
X139579400Y-119414599I0J-249999D01*
G01*
X139579400Y-120314601D01*
G75*
G02*
X139329401Y-120564600I-249999J0D01*
G01*
X138679399Y-120564600D01*
G75*
G02*
X138429400Y-120314601I0J249999D01*
G01*
G37*
D10*
X159636820Y-102184900D03*
X159636820Y-107242300D03*
D11*
X156886000Y-102713600D03*
X160188000Y-103213600D03*
X156886000Y-103713600D03*
X160188000Y-104213600D03*
X156886000Y-104713600D03*
X160188000Y-105213600D03*
X156886000Y-105713600D03*
X160188000Y-106213600D03*
X156886000Y-106713600D03*
G36*
G01*
X128630000Y-109773600D02*
X128630000Y-111098600D01*
G75*
G02*
X128555000Y-111173600I-75000J0D01*
G01*
X128405000Y-111173600D01*
G75*
G02*
X128330000Y-111098600I0J75000D01*
G01*
X128330000Y-109773600D01*
G75*
G02*
X128405000Y-109698600I75000J0D01*
G01*
X128555000Y-109698600D01*
G75*
G02*
X128630000Y-109773600I0J-75000D01*
G01*
G37*
G36*
G01*
X128130000Y-109773600D02*
X128130000Y-111098600D01*
G75*
G02*
X128055000Y-111173600I-75000J0D01*
G01*
X127905000Y-111173600D01*
G75*
G02*
X127830000Y-111098600I0J75000D01*
G01*
X127830000Y-109773600D01*
G75*
G02*
X127905000Y-109698600I75000J0D01*
G01*
X128055000Y-109698600D01*
G75*
G02*
X128130000Y-109773600I0J-75000D01*
G01*
G37*
G36*
G01*
X127630000Y-109773600D02*
X127630000Y-111098600D01*
G75*
G02*
X127555000Y-111173600I-75000J0D01*
G01*
X127405000Y-111173600D01*
G75*
G02*
X127330000Y-111098600I0J75000D01*
G01*
X127330000Y-109773600D01*
G75*
G02*
X127405000Y-109698600I75000J0D01*
G01*
X127555000Y-109698600D01*
G75*
G02*
X127630000Y-109773600I0J-75000D01*
G01*
G37*
G36*
G01*
X127130000Y-109773600D02*
X127130000Y-111098600D01*
G75*
G02*
X127055000Y-111173600I-75000J0D01*
G01*
X126905000Y-111173600D01*
G75*
G02*
X126830000Y-111098600I0J75000D01*
G01*
X126830000Y-109773600D01*
G75*
G02*
X126905000Y-109698600I75000J0D01*
G01*
X127055000Y-109698600D01*
G75*
G02*
X127130000Y-109773600I0J-75000D01*
G01*
G37*
G36*
G01*
X126630000Y-109773600D02*
X126630000Y-111098600D01*
G75*
G02*
X126555000Y-111173600I-75000J0D01*
G01*
X126405000Y-111173600D01*
G75*
G02*
X126330000Y-111098600I0J75000D01*
G01*
X126330000Y-109773600D01*
G75*
G02*
X126405000Y-109698600I75000J0D01*
G01*
X126555000Y-109698600D01*
G75*
G02*
X126630000Y-109773600I0J-75000D01*
G01*
G37*
G36*
G01*
X126130000Y-109773600D02*
X126130000Y-111098600D01*
G75*
G02*
X126055000Y-111173600I-75000J0D01*
G01*
X125905000Y-111173600D01*
G75*
G02*
X125830000Y-111098600I0J75000D01*
G01*
X125830000Y-109773600D01*
G75*
G02*
X125905000Y-109698600I75000J0D01*
G01*
X126055000Y-109698600D01*
G75*
G02*
X126130000Y-109773600I0J-75000D01*
G01*
G37*
G36*
G01*
X125630000Y-109773600D02*
X125630000Y-111098600D01*
G75*
G02*
X125555000Y-111173600I-75000J0D01*
G01*
X125405000Y-111173600D01*
G75*
G02*
X125330000Y-111098600I0J75000D01*
G01*
X125330000Y-109773600D01*
G75*
G02*
X125405000Y-109698600I75000J0D01*
G01*
X125555000Y-109698600D01*
G75*
G02*
X125630000Y-109773600I0J-75000D01*
G01*
G37*
G36*
G01*
X125130000Y-109773600D02*
X125130000Y-111098600D01*
G75*
G02*
X125055000Y-111173600I-75000J0D01*
G01*
X124905000Y-111173600D01*
G75*
G02*
X124830000Y-111098600I0J75000D01*
G01*
X124830000Y-109773600D01*
G75*
G02*
X124905000Y-109698600I75000J0D01*
G01*
X125055000Y-109698600D01*
G75*
G02*
X125130000Y-109773600I0J-75000D01*
G01*
G37*
G36*
G01*
X124630000Y-109773600D02*
X124630000Y-111098600D01*
G75*
G02*
X124555000Y-111173600I-75000J0D01*
G01*
X124405000Y-111173600D01*
G75*
G02*
X124330000Y-111098600I0J75000D01*
G01*
X124330000Y-109773600D01*
G75*
G02*
X124405000Y-109698600I75000J0D01*
G01*
X124555000Y-109698600D01*
G75*
G02*
X124630000Y-109773600I0J-75000D01*
G01*
G37*
G36*
G01*
X124130000Y-109773600D02*
X124130000Y-111098600D01*
G75*
G02*
X124055000Y-111173600I-75000J0D01*
G01*
X123905000Y-111173600D01*
G75*
G02*
X123830000Y-111098600I0J75000D01*
G01*
X123830000Y-109773600D01*
G75*
G02*
X123905000Y-109698600I75000J0D01*
G01*
X124055000Y-109698600D01*
G75*
G02*
X124130000Y-109773600I0J-75000D01*
G01*
G37*
G36*
G01*
X123630000Y-109773600D02*
X123630000Y-111098600D01*
G75*
G02*
X123555000Y-111173600I-75000J0D01*
G01*
X123405000Y-111173600D01*
G75*
G02*
X123330000Y-111098600I0J75000D01*
G01*
X123330000Y-109773600D01*
G75*
G02*
X123405000Y-109698600I75000J0D01*
G01*
X123555000Y-109698600D01*
G75*
G02*
X123630000Y-109773600I0J-75000D01*
G01*
G37*
G36*
G01*
X123130000Y-109773600D02*
X123130000Y-111098600D01*
G75*
G02*
X123055000Y-111173600I-75000J0D01*
G01*
X122905000Y-111173600D01*
G75*
G02*
X122830000Y-111098600I0J75000D01*
G01*
X122830000Y-109773600D01*
G75*
G02*
X122905000Y-109698600I75000J0D01*
G01*
X123055000Y-109698600D01*
G75*
G02*
X123130000Y-109773600I0J-75000D01*
G01*
G37*
G36*
G01*
X122305000Y-108948600D02*
X122305000Y-109098600D01*
G75*
G02*
X122230000Y-109173600I-75000J0D01*
G01*
X120905000Y-109173600D01*
G75*
G02*
X120830000Y-109098600I0J75000D01*
G01*
X120830000Y-108948600D01*
G75*
G02*
X120905000Y-108873600I75000J0D01*
G01*
X122230000Y-108873600D01*
G75*
G02*
X122305000Y-108948600I0J-75000D01*
G01*
G37*
G36*
G01*
X122305000Y-108448600D02*
X122305000Y-108598600D01*
G75*
G02*
X122230000Y-108673600I-75000J0D01*
G01*
X120905000Y-108673600D01*
G75*
G02*
X120830000Y-108598600I0J75000D01*
G01*
X120830000Y-108448600D01*
G75*
G02*
X120905000Y-108373600I75000J0D01*
G01*
X122230000Y-108373600D01*
G75*
G02*
X122305000Y-108448600I0J-75000D01*
G01*
G37*
G36*
G01*
X122305000Y-107948600D02*
X122305000Y-108098600D01*
G75*
G02*
X122230000Y-108173600I-75000J0D01*
G01*
X120905000Y-108173600D01*
G75*
G02*
X120830000Y-108098600I0J75000D01*
G01*
X120830000Y-107948600D01*
G75*
G02*
X120905000Y-107873600I75000J0D01*
G01*
X122230000Y-107873600D01*
G75*
G02*
X122305000Y-107948600I0J-75000D01*
G01*
G37*
G36*
G01*
X122305000Y-107448600D02*
X122305000Y-107598600D01*
G75*
G02*
X122230000Y-107673600I-75000J0D01*
G01*
X120905000Y-107673600D01*
G75*
G02*
X120830000Y-107598600I0J75000D01*
G01*
X120830000Y-107448600D01*
G75*
G02*
X120905000Y-107373600I75000J0D01*
G01*
X122230000Y-107373600D01*
G75*
G02*
X122305000Y-107448600I0J-75000D01*
G01*
G37*
G36*
G01*
X122305000Y-106948600D02*
X122305000Y-107098600D01*
G75*
G02*
X122230000Y-107173600I-75000J0D01*
G01*
X120905000Y-107173600D01*
G75*
G02*
X120830000Y-107098600I0J75000D01*
G01*
X120830000Y-106948600D01*
G75*
G02*
X120905000Y-106873600I75000J0D01*
G01*
X122230000Y-106873600D01*
G75*
G02*
X122305000Y-106948600I0J-75000D01*
G01*
G37*
G36*
G01*
X122305000Y-106448600D02*
X122305000Y-106598600D01*
G75*
G02*
X122230000Y-106673600I-75000J0D01*
G01*
X120905000Y-106673600D01*
G75*
G02*
X120830000Y-106598600I0J75000D01*
G01*
X120830000Y-106448600D01*
G75*
G02*
X120905000Y-106373600I75000J0D01*
G01*
X122230000Y-106373600D01*
G75*
G02*
X122305000Y-106448600I0J-75000D01*
G01*
G37*
G36*
G01*
X122305000Y-105948600D02*
X122305000Y-106098600D01*
G75*
G02*
X122230000Y-106173600I-75000J0D01*
G01*
X120905000Y-106173600D01*
G75*
G02*
X120830000Y-106098600I0J75000D01*
G01*
X120830000Y-105948600D01*
G75*
G02*
X120905000Y-105873600I75000J0D01*
G01*
X122230000Y-105873600D01*
G75*
G02*
X122305000Y-105948600I0J-75000D01*
G01*
G37*
G36*
G01*
X122305000Y-105448600D02*
X122305000Y-105598600D01*
G75*
G02*
X122230000Y-105673600I-75000J0D01*
G01*
X120905000Y-105673600D01*
G75*
G02*
X120830000Y-105598600I0J75000D01*
G01*
X120830000Y-105448600D01*
G75*
G02*
X120905000Y-105373600I75000J0D01*
G01*
X122230000Y-105373600D01*
G75*
G02*
X122305000Y-105448600I0J-75000D01*
G01*
G37*
G36*
G01*
X122305000Y-104948600D02*
X122305000Y-105098600D01*
G75*
G02*
X122230000Y-105173600I-75000J0D01*
G01*
X120905000Y-105173600D01*
G75*
G02*
X120830000Y-105098600I0J75000D01*
G01*
X120830000Y-104948600D01*
G75*
G02*
X120905000Y-104873600I75000J0D01*
G01*
X122230000Y-104873600D01*
G75*
G02*
X122305000Y-104948600I0J-75000D01*
G01*
G37*
G36*
G01*
X122305000Y-104448600D02*
X122305000Y-104598600D01*
G75*
G02*
X122230000Y-104673600I-75000J0D01*
G01*
X120905000Y-104673600D01*
G75*
G02*
X120830000Y-104598600I0J75000D01*
G01*
X120830000Y-104448600D01*
G75*
G02*
X120905000Y-104373600I75000J0D01*
G01*
X122230000Y-104373600D01*
G75*
G02*
X122305000Y-104448600I0J-75000D01*
G01*
G37*
G36*
G01*
X122305000Y-103948600D02*
X122305000Y-104098600D01*
G75*
G02*
X122230000Y-104173600I-75000J0D01*
G01*
X120905000Y-104173600D01*
G75*
G02*
X120830000Y-104098600I0J75000D01*
G01*
X120830000Y-103948600D01*
G75*
G02*
X120905000Y-103873600I75000J0D01*
G01*
X122230000Y-103873600D01*
G75*
G02*
X122305000Y-103948600I0J-75000D01*
G01*
G37*
G36*
G01*
X122305000Y-103448600D02*
X122305000Y-103598600D01*
G75*
G02*
X122230000Y-103673600I-75000J0D01*
G01*
X120905000Y-103673600D01*
G75*
G02*
X120830000Y-103598600I0J75000D01*
G01*
X120830000Y-103448600D01*
G75*
G02*
X120905000Y-103373600I75000J0D01*
G01*
X122230000Y-103373600D01*
G75*
G02*
X122305000Y-103448600I0J-75000D01*
G01*
G37*
G36*
G01*
X123130000Y-101448600D02*
X123130000Y-102773600D01*
G75*
G02*
X123055000Y-102848600I-75000J0D01*
G01*
X122905000Y-102848600D01*
G75*
G02*
X122830000Y-102773600I0J75000D01*
G01*
X122830000Y-101448600D01*
G75*
G02*
X122905000Y-101373600I75000J0D01*
G01*
X123055000Y-101373600D01*
G75*
G02*
X123130000Y-101448600I0J-75000D01*
G01*
G37*
G36*
G01*
X123630000Y-101448600D02*
X123630000Y-102773600D01*
G75*
G02*
X123555000Y-102848600I-75000J0D01*
G01*
X123405000Y-102848600D01*
G75*
G02*
X123330000Y-102773600I0J75000D01*
G01*
X123330000Y-101448600D01*
G75*
G02*
X123405000Y-101373600I75000J0D01*
G01*
X123555000Y-101373600D01*
G75*
G02*
X123630000Y-101448600I0J-75000D01*
G01*
G37*
G36*
G01*
X124130000Y-101448600D02*
X124130000Y-102773600D01*
G75*
G02*
X124055000Y-102848600I-75000J0D01*
G01*
X123905000Y-102848600D01*
G75*
G02*
X123830000Y-102773600I0J75000D01*
G01*
X123830000Y-101448600D01*
G75*
G02*
X123905000Y-101373600I75000J0D01*
G01*
X124055000Y-101373600D01*
G75*
G02*
X124130000Y-101448600I0J-75000D01*
G01*
G37*
G36*
G01*
X124630000Y-101448600D02*
X124630000Y-102773600D01*
G75*
G02*
X124555000Y-102848600I-75000J0D01*
G01*
X124405000Y-102848600D01*
G75*
G02*
X124330000Y-102773600I0J75000D01*
G01*
X124330000Y-101448600D01*
G75*
G02*
X124405000Y-101373600I75000J0D01*
G01*
X124555000Y-101373600D01*
G75*
G02*
X124630000Y-101448600I0J-75000D01*
G01*
G37*
G36*
G01*
X125130000Y-101448600D02*
X125130000Y-102773600D01*
G75*
G02*
X125055000Y-102848600I-75000J0D01*
G01*
X124905000Y-102848600D01*
G75*
G02*
X124830000Y-102773600I0J75000D01*
G01*
X124830000Y-101448600D01*
G75*
G02*
X124905000Y-101373600I75000J0D01*
G01*
X125055000Y-101373600D01*
G75*
G02*
X125130000Y-101448600I0J-75000D01*
G01*
G37*
G36*
G01*
X125630000Y-101448600D02*
X125630000Y-102773600D01*
G75*
G02*
X125555000Y-102848600I-75000J0D01*
G01*
X125405000Y-102848600D01*
G75*
G02*
X125330000Y-102773600I0J75000D01*
G01*
X125330000Y-101448600D01*
G75*
G02*
X125405000Y-101373600I75000J0D01*
G01*
X125555000Y-101373600D01*
G75*
G02*
X125630000Y-101448600I0J-75000D01*
G01*
G37*
G36*
G01*
X126130000Y-101448600D02*
X126130000Y-102773600D01*
G75*
G02*
X126055000Y-102848600I-75000J0D01*
G01*
X125905000Y-102848600D01*
G75*
G02*
X125830000Y-102773600I0J75000D01*
G01*
X125830000Y-101448600D01*
G75*
G02*
X125905000Y-101373600I75000J0D01*
G01*
X126055000Y-101373600D01*
G75*
G02*
X126130000Y-101448600I0J-75000D01*
G01*
G37*
G36*
G01*
X126630000Y-101448600D02*
X126630000Y-102773600D01*
G75*
G02*
X126555000Y-102848600I-75000J0D01*
G01*
X126405000Y-102848600D01*
G75*
G02*
X126330000Y-102773600I0J75000D01*
G01*
X126330000Y-101448600D01*
G75*
G02*
X126405000Y-101373600I75000J0D01*
G01*
X126555000Y-101373600D01*
G75*
G02*
X126630000Y-101448600I0J-75000D01*
G01*
G37*
G36*
G01*
X127130000Y-101448600D02*
X127130000Y-102773600D01*
G75*
G02*
X127055000Y-102848600I-75000J0D01*
G01*
X126905000Y-102848600D01*
G75*
G02*
X126830000Y-102773600I0J75000D01*
G01*
X126830000Y-101448600D01*
G75*
G02*
X126905000Y-101373600I75000J0D01*
G01*
X127055000Y-101373600D01*
G75*
G02*
X127130000Y-101448600I0J-75000D01*
G01*
G37*
G36*
G01*
X127630000Y-101448600D02*
X127630000Y-102773600D01*
G75*
G02*
X127555000Y-102848600I-75000J0D01*
G01*
X127405000Y-102848600D01*
G75*
G02*
X127330000Y-102773600I0J75000D01*
G01*
X127330000Y-101448600D01*
G75*
G02*
X127405000Y-101373600I75000J0D01*
G01*
X127555000Y-101373600D01*
G75*
G02*
X127630000Y-101448600I0J-75000D01*
G01*
G37*
G36*
G01*
X128130000Y-101448600D02*
X128130000Y-102773600D01*
G75*
G02*
X128055000Y-102848600I-75000J0D01*
G01*
X127905000Y-102848600D01*
G75*
G02*
X127830000Y-102773600I0J75000D01*
G01*
X127830000Y-101448600D01*
G75*
G02*
X127905000Y-101373600I75000J0D01*
G01*
X128055000Y-101373600D01*
G75*
G02*
X128130000Y-101448600I0J-75000D01*
G01*
G37*
G36*
G01*
X128630000Y-101448600D02*
X128630000Y-102773600D01*
G75*
G02*
X128555000Y-102848600I-75000J0D01*
G01*
X128405000Y-102848600D01*
G75*
G02*
X128330000Y-102773600I0J75000D01*
G01*
X128330000Y-101448600D01*
G75*
G02*
X128405000Y-101373600I75000J0D01*
G01*
X128555000Y-101373600D01*
G75*
G02*
X128630000Y-101448600I0J-75000D01*
G01*
G37*
G36*
G01*
X130630000Y-103448600D02*
X130630000Y-103598600D01*
G75*
G02*
X130555000Y-103673600I-75000J0D01*
G01*
X129230000Y-103673600D01*
G75*
G02*
X129155000Y-103598600I0J75000D01*
G01*
X129155000Y-103448600D01*
G75*
G02*
X129230000Y-103373600I75000J0D01*
G01*
X130555000Y-103373600D01*
G75*
G02*
X130630000Y-103448600I0J-75000D01*
G01*
G37*
G36*
G01*
X130630000Y-103948600D02*
X130630000Y-104098600D01*
G75*
G02*
X130555000Y-104173600I-75000J0D01*
G01*
X129230000Y-104173600D01*
G75*
G02*
X129155000Y-104098600I0J75000D01*
G01*
X129155000Y-103948600D01*
G75*
G02*
X129230000Y-103873600I75000J0D01*
G01*
X130555000Y-103873600D01*
G75*
G02*
X130630000Y-103948600I0J-75000D01*
G01*
G37*
G36*
G01*
X130630000Y-104448600D02*
X130630000Y-104598600D01*
G75*
G02*
X130555000Y-104673600I-75000J0D01*
G01*
X129230000Y-104673600D01*
G75*
G02*
X129155000Y-104598600I0J75000D01*
G01*
X129155000Y-104448600D01*
G75*
G02*
X129230000Y-104373600I75000J0D01*
G01*
X130555000Y-104373600D01*
G75*
G02*
X130630000Y-104448600I0J-75000D01*
G01*
G37*
G36*
G01*
X130630000Y-104948600D02*
X130630000Y-105098600D01*
G75*
G02*
X130555000Y-105173600I-75000J0D01*
G01*
X129230000Y-105173600D01*
G75*
G02*
X129155000Y-105098600I0J75000D01*
G01*
X129155000Y-104948600D01*
G75*
G02*
X129230000Y-104873600I75000J0D01*
G01*
X130555000Y-104873600D01*
G75*
G02*
X130630000Y-104948600I0J-75000D01*
G01*
G37*
G36*
G01*
X130630000Y-105448600D02*
X130630000Y-105598600D01*
G75*
G02*
X130555000Y-105673600I-75000J0D01*
G01*
X129230000Y-105673600D01*
G75*
G02*
X129155000Y-105598600I0J75000D01*
G01*
X129155000Y-105448600D01*
G75*
G02*
X129230000Y-105373600I75000J0D01*
G01*
X130555000Y-105373600D01*
G75*
G02*
X130630000Y-105448600I0J-75000D01*
G01*
G37*
G36*
G01*
X130630000Y-105948600D02*
X130630000Y-106098600D01*
G75*
G02*
X130555000Y-106173600I-75000J0D01*
G01*
X129230000Y-106173600D01*
G75*
G02*
X129155000Y-106098600I0J75000D01*
G01*
X129155000Y-105948600D01*
G75*
G02*
X129230000Y-105873600I75000J0D01*
G01*
X130555000Y-105873600D01*
G75*
G02*
X130630000Y-105948600I0J-75000D01*
G01*
G37*
G36*
G01*
X130630000Y-106448600D02*
X130630000Y-106598600D01*
G75*
G02*
X130555000Y-106673600I-75000J0D01*
G01*
X129230000Y-106673600D01*
G75*
G02*
X129155000Y-106598600I0J75000D01*
G01*
X129155000Y-106448600D01*
G75*
G02*
X129230000Y-106373600I75000J0D01*
G01*
X130555000Y-106373600D01*
G75*
G02*
X130630000Y-106448600I0J-75000D01*
G01*
G37*
G36*
G01*
X130630000Y-106948600D02*
X130630000Y-107098600D01*
G75*
G02*
X130555000Y-107173600I-75000J0D01*
G01*
X129230000Y-107173600D01*
G75*
G02*
X129155000Y-107098600I0J75000D01*
G01*
X129155000Y-106948600D01*
G75*
G02*
X129230000Y-106873600I75000J0D01*
G01*
X130555000Y-106873600D01*
G75*
G02*
X130630000Y-106948600I0J-75000D01*
G01*
G37*
G36*
G01*
X130630000Y-107448600D02*
X130630000Y-107598600D01*
G75*
G02*
X130555000Y-107673600I-75000J0D01*
G01*
X129230000Y-107673600D01*
G75*
G02*
X129155000Y-107598600I0J75000D01*
G01*
X129155000Y-107448600D01*
G75*
G02*
X129230000Y-107373600I75000J0D01*
G01*
X130555000Y-107373600D01*
G75*
G02*
X130630000Y-107448600I0J-75000D01*
G01*
G37*
G36*
G01*
X130630000Y-107948600D02*
X130630000Y-108098600D01*
G75*
G02*
X130555000Y-108173600I-75000J0D01*
G01*
X129230000Y-108173600D01*
G75*
G02*
X129155000Y-108098600I0J75000D01*
G01*
X129155000Y-107948600D01*
G75*
G02*
X129230000Y-107873600I75000J0D01*
G01*
X130555000Y-107873600D01*
G75*
G02*
X130630000Y-107948600I0J-75000D01*
G01*
G37*
G36*
G01*
X130630000Y-108448600D02*
X130630000Y-108598600D01*
G75*
G02*
X130555000Y-108673600I-75000J0D01*
G01*
X129230000Y-108673600D01*
G75*
G02*
X129155000Y-108598600I0J75000D01*
G01*
X129155000Y-108448600D01*
G75*
G02*
X129230000Y-108373600I75000J0D01*
G01*
X130555000Y-108373600D01*
G75*
G02*
X130630000Y-108448600I0J-75000D01*
G01*
G37*
G36*
G01*
X130630000Y-108948600D02*
X130630000Y-109098600D01*
G75*
G02*
X130555000Y-109173600I-75000J0D01*
G01*
X129230000Y-109173600D01*
G75*
G02*
X129155000Y-109098600I0J75000D01*
G01*
X129155000Y-108948600D01*
G75*
G02*
X129230000Y-108873600I75000J0D01*
G01*
X130555000Y-108873600D01*
G75*
G02*
X130630000Y-108948600I0J-75000D01*
G01*
G37*
G36*
G01*
X104461000Y-122587599D02*
X104461000Y-123487601D01*
G75*
G02*
X104211001Y-123737600I-249999J0D01*
G01*
X103560999Y-123737600D01*
G75*
G02*
X103311000Y-123487601I0J249999D01*
G01*
X103311000Y-122587599D01*
G75*
G02*
X103560999Y-122337600I249999J0D01*
G01*
X104211001Y-122337600D01*
G75*
G02*
X104461000Y-122587599I0J-249999D01*
G01*
G37*
G36*
G01*
X106511000Y-122587599D02*
X106511000Y-123487601D01*
G75*
G02*
X106261001Y-123737600I-249999J0D01*
G01*
X105610999Y-123737600D01*
G75*
G02*
X105361000Y-123487601I0J249999D01*
G01*
X105361000Y-122587599D01*
G75*
G02*
X105610999Y-122337600I249999J0D01*
G01*
X106261001Y-122337600D01*
G75*
G02*
X106511000Y-122587599I0J-249999D01*
G01*
G37*
G36*
G01*
X135185999Y-114394400D02*
X136086001Y-114394400D01*
G75*
G02*
X136336000Y-114644399I0J-249999D01*
G01*
X136336000Y-115294401D01*
G75*
G02*
X136086001Y-115544400I-249999J0D01*
G01*
X135185999Y-115544400D01*
G75*
G02*
X134936000Y-115294401I0J249999D01*
G01*
X134936000Y-114644399D01*
G75*
G02*
X135185999Y-114394400I249999J0D01*
G01*
G37*
G36*
G01*
X135185999Y-112344400D02*
X136086001Y-112344400D01*
G75*
G02*
X136336000Y-112594399I0J-249999D01*
G01*
X136336000Y-113244401D01*
G75*
G02*
X136086001Y-113494400I-249999J0D01*
G01*
X135185999Y-113494400D01*
G75*
G02*
X134936000Y-113244401I0J249999D01*
G01*
X134936000Y-112594399D01*
G75*
G02*
X135185999Y-112344400I249999J0D01*
G01*
G37*
D12*
X101600000Y-117957600D03*
X99060000Y-117957600D03*
X101600000Y-115417600D03*
X99060000Y-115417600D03*
X101600000Y-112877600D03*
X99060000Y-112877600D03*
X101600000Y-110337600D03*
X99060000Y-110337600D03*
X101600000Y-107797600D03*
X99060000Y-107797600D03*
X101600000Y-105257600D03*
X99060000Y-105257600D03*
X101600000Y-102717600D03*
X99060000Y-102717600D03*
X101600000Y-100177600D03*
X99060000Y-100177600D03*
X101600000Y-97637600D03*
X99060000Y-97637600D03*
X101600000Y-95097600D03*
X99060000Y-95097600D03*
X101600000Y-92557600D03*
X99060000Y-92557600D03*
X101600000Y-90017600D03*
D13*
X99060000Y-90017600D03*
G36*
G01*
X129851999Y-114343600D02*
X130752001Y-114343600D01*
G75*
G02*
X131002000Y-114593599I0J-249999D01*
G01*
X131002000Y-115243601D01*
G75*
G02*
X130752001Y-115493600I-249999J0D01*
G01*
X129851999Y-115493600D01*
G75*
G02*
X129602000Y-115243601I0J249999D01*
G01*
X129602000Y-114593599D01*
G75*
G02*
X129851999Y-114343600I249999J0D01*
G01*
G37*
G36*
G01*
X129851999Y-112293600D02*
X130752001Y-112293600D01*
G75*
G02*
X131002000Y-112543599I0J-249999D01*
G01*
X131002000Y-113193601D01*
G75*
G02*
X130752001Y-113443600I-249999J0D01*
G01*
X129851999Y-113443600D01*
G75*
G02*
X129602000Y-113193601I0J249999D01*
G01*
X129602000Y-112543599D01*
G75*
G02*
X129851999Y-112293600I249999J0D01*
G01*
G37*
D14*
X117050000Y-125831600D03*
X111550000Y-125831600D03*
G36*
G01*
X131334500Y-110408600D02*
X131809500Y-110408600D01*
G75*
G02*
X132047000Y-110646100I0J-237500D01*
G01*
X132047000Y-111246100D01*
G75*
G02*
X131809500Y-111483600I-237500J0D01*
G01*
X131334500Y-111483600D01*
G75*
G02*
X131097000Y-111246100I0J237500D01*
G01*
X131097000Y-110646100D01*
G75*
G02*
X131334500Y-110408600I237500J0D01*
G01*
G37*
G36*
G01*
X131334500Y-108683600D02*
X131809500Y-108683600D01*
G75*
G02*
X132047000Y-108921100I0J-237500D01*
G01*
X132047000Y-109521100D01*
G75*
G02*
X131809500Y-109758600I-237500J0D01*
G01*
X131334500Y-109758600D01*
G75*
G02*
X131097000Y-109521100I0J237500D01*
G01*
X131097000Y-108921100D01*
G75*
G02*
X131334500Y-108683600I237500J0D01*
G01*
G37*
G36*
G01*
X129727000Y-117391601D02*
X129727000Y-116491599D01*
G75*
G02*
X129976999Y-116241600I249999J0D01*
G01*
X130627001Y-116241600D01*
G75*
G02*
X130877000Y-116491599I0J-249999D01*
G01*
X130877000Y-117391601D01*
G75*
G02*
X130627001Y-117641600I-249999J0D01*
G01*
X129976999Y-117641600D01*
G75*
G02*
X129727000Y-117391601I0J249999D01*
G01*
G37*
G36*
G01*
X127677000Y-117391601D02*
X127677000Y-116491599D01*
G75*
G02*
X127926999Y-116241600I249999J0D01*
G01*
X128577001Y-116241600D01*
G75*
G02*
X128827000Y-116491599I0J-249999D01*
G01*
X128827000Y-117391601D01*
G75*
G02*
X128577001Y-117641600I-249999J0D01*
G01*
X127926999Y-117641600D01*
G75*
G02*
X127677000Y-117391601I0J249999D01*
G01*
G37*
X117050000Y-122783600D03*
X111550000Y-122783600D03*
G36*
G01*
X116007000Y-106290100D02*
X116007000Y-106765100D01*
G75*
G02*
X115769500Y-107002600I-237500J0D01*
G01*
X115169500Y-107002600D01*
G75*
G02*
X114932000Y-106765100I0J237500D01*
G01*
X114932000Y-106290100D01*
G75*
G02*
X115169500Y-106052600I237500J0D01*
G01*
X115769500Y-106052600D01*
G75*
G02*
X116007000Y-106290100I0J-237500D01*
G01*
G37*
G36*
G01*
X117732000Y-106290100D02*
X117732000Y-106765100D01*
G75*
G02*
X117494500Y-107002600I-237500J0D01*
G01*
X116894500Y-107002600D01*
G75*
G02*
X116657000Y-106765100I0J237500D01*
G01*
X116657000Y-106290100D01*
G75*
G02*
X116894500Y-106052600I237500J0D01*
G01*
X117494500Y-106052600D01*
G75*
G02*
X117732000Y-106290100I0J-237500D01*
G01*
G37*
G36*
G01*
X134437000Y-107908100D02*
X134437000Y-107433100D01*
G75*
G02*
X134674500Y-107195600I237500J0D01*
G01*
X135274500Y-107195600D01*
G75*
G02*
X135512000Y-107433100I0J-237500D01*
G01*
X135512000Y-107908100D01*
G75*
G02*
X135274500Y-108145600I-237500J0D01*
G01*
X134674500Y-108145600D01*
G75*
G02*
X134437000Y-107908100I0J237500D01*
G01*
G37*
G36*
G01*
X132712000Y-107908100D02*
X132712000Y-107433100D01*
G75*
G02*
X132949500Y-107195600I237500J0D01*
G01*
X133549500Y-107195600D01*
G75*
G02*
X133787000Y-107433100I0J-237500D01*
G01*
X133787000Y-107908100D01*
G75*
G02*
X133549500Y-108145600I-237500J0D01*
G01*
X132949500Y-108145600D01*
G75*
G02*
X132712000Y-107908100I0J237500D01*
G01*
G37*
G36*
G01*
X134437000Y-111210100D02*
X134437000Y-110735100D01*
G75*
G02*
X134674500Y-110497600I237500J0D01*
G01*
X135274500Y-110497600D01*
G75*
G02*
X135512000Y-110735100I0J-237500D01*
G01*
X135512000Y-111210100D01*
G75*
G02*
X135274500Y-111447600I-237500J0D01*
G01*
X134674500Y-111447600D01*
G75*
G02*
X134437000Y-111210100I0J237500D01*
G01*
G37*
G36*
G01*
X132712000Y-111210100D02*
X132712000Y-110735100D01*
G75*
G02*
X132949500Y-110497600I237500J0D01*
G01*
X133549500Y-110497600D01*
G75*
G02*
X133787000Y-110735100I0J-237500D01*
G01*
X133787000Y-111210100D01*
G75*
G02*
X133549500Y-111447600I-237500J0D01*
G01*
X132949500Y-111447600D01*
G75*
G02*
X132712000Y-111210100I0J237500D01*
G01*
G37*
G36*
G01*
X129315500Y-96638100D02*
X129315500Y-97113100D01*
G75*
G02*
X129078000Y-97350600I-237500J0D01*
G01*
X128478000Y-97350600D01*
G75*
G02*
X128240500Y-97113100I0J237500D01*
G01*
X128240500Y-96638100D01*
G75*
G02*
X128478000Y-96400600I237500J0D01*
G01*
X129078000Y-96400600D01*
G75*
G02*
X129315500Y-96638100I0J-237500D01*
G01*
G37*
G36*
G01*
X131040500Y-96638100D02*
X131040500Y-97113100D01*
G75*
G02*
X130803000Y-97350600I-237500J0D01*
G01*
X130203000Y-97350600D01*
G75*
G02*
X129965500Y-97113100I0J237500D01*
G01*
X129965500Y-96638100D01*
G75*
G02*
X130203000Y-96400600I237500J0D01*
G01*
X130803000Y-96400600D01*
G75*
G02*
X131040500Y-96638100I0J-237500D01*
G01*
G37*
G36*
G01*
X112156001Y-86108100D02*
X110855999Y-86108100D01*
G75*
G02*
X110606000Y-85858101I0J249999D01*
G01*
X110606000Y-85033099D01*
G75*
G02*
X110855999Y-84783100I249999J0D01*
G01*
X112156001Y-84783100D01*
G75*
G02*
X112406000Y-85033099I0J-249999D01*
G01*
X112406000Y-85858101D01*
G75*
G02*
X112156001Y-86108100I-249999J0D01*
G01*
G37*
G36*
G01*
X112156001Y-89233100D02*
X110855999Y-89233100D01*
G75*
G02*
X110606000Y-88983101I0J249999D01*
G01*
X110606000Y-88158099D01*
G75*
G02*
X110855999Y-87908100I249999J0D01*
G01*
X112156001Y-87908100D01*
G75*
G02*
X112406000Y-88158099I0J-249999D01*
G01*
X112406000Y-88983101D01*
G75*
G02*
X112156001Y-89233100I-249999J0D01*
G01*
G37*
G36*
G01*
X132096500Y-113964600D02*
X132571500Y-113964600D01*
G75*
G02*
X132809000Y-114202100I0J-237500D01*
G01*
X132809000Y-114802100D01*
G75*
G02*
X132571500Y-115039600I-237500J0D01*
G01*
X132096500Y-115039600D01*
G75*
G02*
X131859000Y-114802100I0J237500D01*
G01*
X131859000Y-114202100D01*
G75*
G02*
X132096500Y-113964600I237500J0D01*
G01*
G37*
G36*
G01*
X132096500Y-112239600D02*
X132571500Y-112239600D01*
G75*
G02*
X132809000Y-112477100I0J-237500D01*
G01*
X132809000Y-113077100D01*
G75*
G02*
X132571500Y-113314600I-237500J0D01*
G01*
X132096500Y-113314600D01*
G75*
G02*
X131859000Y-113077100I0J237500D01*
G01*
X131859000Y-112477100D01*
G75*
G02*
X132096500Y-112239600I237500J0D01*
G01*
G37*
G36*
G01*
X134437000Y-106257100D02*
X134437000Y-105782100D01*
G75*
G02*
X134674500Y-105544600I237500J0D01*
G01*
X135274500Y-105544600D01*
G75*
G02*
X135512000Y-105782100I0J-237500D01*
G01*
X135512000Y-106257100D01*
G75*
G02*
X135274500Y-106494600I-237500J0D01*
G01*
X134674500Y-106494600D01*
G75*
G02*
X134437000Y-106257100I0J237500D01*
G01*
G37*
G36*
G01*
X132712000Y-106257100D02*
X132712000Y-105782100D01*
G75*
G02*
X132949500Y-105544600I237500J0D01*
G01*
X133549500Y-105544600D01*
G75*
G02*
X133787000Y-105782100I0J-237500D01*
G01*
X133787000Y-106257100D01*
G75*
G02*
X133549500Y-106494600I-237500J0D01*
G01*
X132949500Y-106494600D01*
G75*
G02*
X132712000Y-106257100I0J237500D01*
G01*
G37*
G36*
G01*
X137398600Y-115176600D02*
X138648600Y-115176600D01*
G75*
G02*
X138898600Y-115426600I0J-250000D01*
G01*
X138898600Y-116351600D01*
G75*
G02*
X138648600Y-116601600I-250000J0D01*
G01*
X137398600Y-116601600D01*
G75*
G02*
X137148600Y-116351600I0J250000D01*
G01*
X137148600Y-115426600D01*
G75*
G02*
X137398600Y-115176600I250000J0D01*
G01*
G37*
G36*
G01*
X137398600Y-112201600D02*
X138648600Y-112201600D01*
G75*
G02*
X138898600Y-112451600I0J-250000D01*
G01*
X138898600Y-113376600D01*
G75*
G02*
X138648600Y-113626600I-250000J0D01*
G01*
X137398600Y-113626600D01*
G75*
G02*
X137148600Y-113376600I0J250000D01*
G01*
X137148600Y-112451600D01*
G75*
G02*
X137398600Y-112201600I250000J0D01*
G01*
G37*
G36*
G01*
X117277000Y-103750100D02*
X117277000Y-104225100D01*
G75*
G02*
X117039500Y-104462600I-237500J0D01*
G01*
X116439500Y-104462600D01*
G75*
G02*
X116202000Y-104225100I0J237500D01*
G01*
X116202000Y-103750100D01*
G75*
G02*
X116439500Y-103512600I237500J0D01*
G01*
X117039500Y-103512600D01*
G75*
G02*
X117277000Y-103750100I0J-237500D01*
G01*
G37*
G36*
G01*
X119002000Y-103750100D02*
X119002000Y-104225100D01*
G75*
G02*
X118764500Y-104462600I-237500J0D01*
G01*
X118164500Y-104462600D01*
G75*
G02*
X117927000Y-104225100I0J237500D01*
G01*
X117927000Y-103750100D01*
G75*
G02*
X118164500Y-103512600I237500J0D01*
G01*
X118764500Y-103512600D01*
G75*
G02*
X119002000Y-103750100I0J-237500D01*
G01*
G37*
G36*
G01*
X117277000Y-102226100D02*
X117277000Y-102701100D01*
G75*
G02*
X117039500Y-102938600I-237500J0D01*
G01*
X116439500Y-102938600D01*
G75*
G02*
X116202000Y-102701100I0J237500D01*
G01*
X116202000Y-102226100D01*
G75*
G02*
X116439500Y-101988600I237500J0D01*
G01*
X117039500Y-101988600D01*
G75*
G02*
X117277000Y-102226100I0J-237500D01*
G01*
G37*
G36*
G01*
X119002000Y-102226100D02*
X119002000Y-102701100D01*
G75*
G02*
X118764500Y-102938600I-237500J0D01*
G01*
X118164500Y-102938600D01*
G75*
G02*
X117927000Y-102701100I0J237500D01*
G01*
X117927000Y-102226100D01*
G75*
G02*
X118164500Y-101988600I237500J0D01*
G01*
X118764500Y-101988600D01*
G75*
G02*
X119002000Y-102226100I0J-237500D01*
G01*
G37*
G36*
G01*
X134437000Y-109559100D02*
X134437000Y-109084100D01*
G75*
G02*
X134674500Y-108846600I237500J0D01*
G01*
X135274500Y-108846600D01*
G75*
G02*
X135512000Y-109084100I0J-237500D01*
G01*
X135512000Y-109559100D01*
G75*
G02*
X135274500Y-109796600I-237500J0D01*
G01*
X134674500Y-109796600D01*
G75*
G02*
X134437000Y-109559100I0J237500D01*
G01*
G37*
G36*
G01*
X132712000Y-109559100D02*
X132712000Y-109084100D01*
G75*
G02*
X132949500Y-108846600I237500J0D01*
G01*
X133549500Y-108846600D01*
G75*
G02*
X133787000Y-109084100I0J-237500D01*
G01*
X133787000Y-109559100D01*
G75*
G02*
X133549500Y-109796600I-237500J0D01*
G01*
X132949500Y-109796600D01*
G75*
G02*
X132712000Y-109559100I0J237500D01*
G01*
G37*
G36*
G01*
X120787000Y-125590600D02*
X122037000Y-125590600D01*
G75*
G02*
X122287000Y-125840600I0J-250000D01*
G01*
X122287000Y-126765600D01*
G75*
G02*
X122037000Y-127015600I-250000J0D01*
G01*
X120787000Y-127015600D01*
G75*
G02*
X120537000Y-126765600I0J250000D01*
G01*
X120537000Y-125840600D01*
G75*
G02*
X120787000Y-125590600I250000J0D01*
G01*
G37*
G36*
G01*
X120787000Y-122615600D02*
X122037000Y-122615600D01*
G75*
G02*
X122287000Y-122865600I0J-250000D01*
G01*
X122287000Y-123790600D01*
G75*
G02*
X122037000Y-124040600I-250000J0D01*
G01*
X120787000Y-124040600D01*
G75*
G02*
X120537000Y-123790600I0J250000D01*
G01*
X120537000Y-122865600D01*
G75*
G02*
X120787000Y-122615600I250000J0D01*
G01*
G37*
G36*
G01*
X134603500Y-101224600D02*
X134128500Y-101224600D01*
G75*
G02*
X133891000Y-100987100I0J237500D01*
G01*
X133891000Y-100412100D01*
G75*
G02*
X134128500Y-100174600I237500J0D01*
G01*
X134603500Y-100174600D01*
G75*
G02*
X134841000Y-100412100I0J-237500D01*
G01*
X134841000Y-100987100D01*
G75*
G02*
X134603500Y-101224600I-237500J0D01*
G01*
G37*
G36*
G01*
X134603500Y-102974600D02*
X134128500Y-102974600D01*
G75*
G02*
X133891000Y-102737100I0J237500D01*
G01*
X133891000Y-102162100D01*
G75*
G02*
X134128500Y-101924600I237500J0D01*
G01*
X134603500Y-101924600D01*
G75*
G02*
X134841000Y-102162100I0J-237500D01*
G01*
X134841000Y-102737100D01*
G75*
G02*
X134603500Y-102974600I-237500J0D01*
G01*
G37*
G36*
G01*
X124443500Y-123957600D02*
X123968500Y-123957600D01*
G75*
G02*
X123731000Y-123720100I0J237500D01*
G01*
X123731000Y-123145100D01*
G75*
G02*
X123968500Y-122907600I237500J0D01*
G01*
X124443500Y-122907600D01*
G75*
G02*
X124681000Y-123145100I0J-237500D01*
G01*
X124681000Y-123720100D01*
G75*
G02*
X124443500Y-123957600I-237500J0D01*
G01*
G37*
G36*
G01*
X124443500Y-125707600D02*
X123968500Y-125707600D01*
G75*
G02*
X123731000Y-125470100I0J237500D01*
G01*
X123731000Y-124895100D01*
G75*
G02*
X123968500Y-124657600I237500J0D01*
G01*
X124443500Y-124657600D01*
G75*
G02*
X124681000Y-124895100I0J-237500D01*
G01*
X124681000Y-125470100D01*
G75*
G02*
X124443500Y-125707600I-237500J0D01*
G01*
G37*
G36*
G01*
X101583000Y-123275100D02*
X101583000Y-122800100D01*
G75*
G02*
X101820500Y-122562600I237500J0D01*
G01*
X102395500Y-122562600D01*
G75*
G02*
X102633000Y-122800100I0J-237500D01*
G01*
X102633000Y-123275100D01*
G75*
G02*
X102395500Y-123512600I-237500J0D01*
G01*
X101820500Y-123512600D01*
G75*
G02*
X101583000Y-123275100I0J237500D01*
G01*
G37*
G36*
G01*
X99833000Y-123275100D02*
X99833000Y-122800100D01*
G75*
G02*
X100070500Y-122562600I237500J0D01*
G01*
X100645500Y-122562600D01*
G75*
G02*
X100883000Y-122800100I0J-237500D01*
G01*
X100883000Y-123275100D01*
G75*
G02*
X100645500Y-123512600I-237500J0D01*
G01*
X100070500Y-123512600D01*
G75*
G02*
X99833000Y-123275100I0J237500D01*
G01*
G37*
G36*
G01*
X139462500Y-108911100D02*
X139937500Y-108911100D01*
G75*
G02*
X140175000Y-109148600I0J-237500D01*
G01*
X140175000Y-109748600D01*
G75*
G02*
X139937500Y-109986100I-237500J0D01*
G01*
X139462500Y-109986100D01*
G75*
G02*
X139225000Y-109748600I0J237500D01*
G01*
X139225000Y-109148600D01*
G75*
G02*
X139462500Y-108911100I237500J0D01*
G01*
G37*
G36*
G01*
X139462500Y-107186100D02*
X139937500Y-107186100D01*
G75*
G02*
X140175000Y-107423600I0J-237500D01*
G01*
X140175000Y-108023600D01*
G75*
G02*
X139937500Y-108261100I-237500J0D01*
G01*
X139462500Y-108261100D01*
G75*
G02*
X139225000Y-108023600I0J237500D01*
G01*
X139225000Y-107423600D01*
G75*
G02*
X139462500Y-107186100I237500J0D01*
G01*
G37*
G36*
G01*
X137913100Y-105582200D02*
X138388100Y-105582200D01*
G75*
G02*
X138625600Y-105819700I0J-237500D01*
G01*
X138625600Y-106394700D01*
G75*
G02*
X138388100Y-106632200I-237500J0D01*
G01*
X137913100Y-106632200D01*
G75*
G02*
X137675600Y-106394700I0J237500D01*
G01*
X137675600Y-105819700D01*
G75*
G02*
X137913100Y-105582200I237500J0D01*
G01*
G37*
G36*
G01*
X137913100Y-103832200D02*
X138388100Y-103832200D01*
G75*
G02*
X138625600Y-104069700I0J-237500D01*
G01*
X138625600Y-104644700D01*
G75*
G02*
X138388100Y-104882200I-237500J0D01*
G01*
X137913100Y-104882200D01*
G75*
G02*
X137675600Y-104644700I0J237500D01*
G01*
X137675600Y-104069700D01*
G75*
G02*
X137913100Y-103832200I237500J0D01*
G01*
G37*
G36*
G01*
X132952500Y-101210600D02*
X132477500Y-101210600D01*
G75*
G02*
X132240000Y-100973100I0J237500D01*
G01*
X132240000Y-100398100D01*
G75*
G02*
X132477500Y-100160600I237500J0D01*
G01*
X132952500Y-100160600D01*
G75*
G02*
X133190000Y-100398100I0J-237500D01*
G01*
X133190000Y-100973100D01*
G75*
G02*
X132952500Y-101210600I-237500J0D01*
G01*
G37*
G36*
G01*
X132952500Y-102960600D02*
X132477500Y-102960600D01*
G75*
G02*
X132240000Y-102723100I0J237500D01*
G01*
X132240000Y-102148100D01*
G75*
G02*
X132477500Y-101910600I237500J0D01*
G01*
X132952500Y-101910600D01*
G75*
G02*
X133190000Y-102148100I0J-237500D01*
G01*
X133190000Y-102723100D01*
G75*
G02*
X132952500Y-102960600I-237500J0D01*
G01*
G37*
G36*
G01*
X136414500Y-106293400D02*
X136889500Y-106293400D01*
G75*
G02*
X137127000Y-106530900I0J-237500D01*
G01*
X137127000Y-107105900D01*
G75*
G02*
X136889500Y-107343400I-237500J0D01*
G01*
X136414500Y-107343400D01*
G75*
G02*
X136177000Y-107105900I0J237500D01*
G01*
X136177000Y-106530900D01*
G75*
G02*
X136414500Y-106293400I237500J0D01*
G01*
G37*
G36*
G01*
X136414500Y-104543400D02*
X136889500Y-104543400D01*
G75*
G02*
X137127000Y-104780900I0J-237500D01*
G01*
X137127000Y-105355900D01*
G75*
G02*
X136889500Y-105593400I-237500J0D01*
G01*
X136414500Y-105593400D01*
G75*
G02*
X136177000Y-105355900I0J237500D01*
G01*
X136177000Y-104780900D01*
G75*
G02*
X136414500Y-104543400I237500J0D01*
G01*
G37*
G36*
G01*
X132825500Y-97566600D02*
X132350500Y-97566600D01*
G75*
G02*
X132113000Y-97329100I0J237500D01*
G01*
X132113000Y-96729100D01*
G75*
G02*
X132350500Y-96491600I237500J0D01*
G01*
X132825500Y-96491600D01*
G75*
G02*
X133063000Y-96729100I0J-237500D01*
G01*
X133063000Y-97329100D01*
G75*
G02*
X132825500Y-97566600I-237500J0D01*
G01*
G37*
G36*
G01*
X132825500Y-99291600D02*
X132350500Y-99291600D01*
G75*
G02*
X132113000Y-99054100I0J237500D01*
G01*
X132113000Y-98454100D01*
G75*
G02*
X132350500Y-98216600I237500J0D01*
G01*
X132825500Y-98216600D01*
G75*
G02*
X133063000Y-98454100I0J-237500D01*
G01*
X133063000Y-99054100D01*
G75*
G02*
X132825500Y-99291600I-237500J0D01*
G01*
G37*
G36*
G01*
X127491500Y-93985600D02*
X127016500Y-93985600D01*
G75*
G02*
X126779000Y-93748100I0J237500D01*
G01*
X126779000Y-93173100D01*
G75*
G02*
X127016500Y-92935600I237500J0D01*
G01*
X127491500Y-92935600D01*
G75*
G02*
X127729000Y-93173100I0J-237500D01*
G01*
X127729000Y-93748100D01*
G75*
G02*
X127491500Y-93985600I-237500J0D01*
G01*
G37*
G36*
G01*
X127491500Y-95735600D02*
X127016500Y-95735600D01*
G75*
G02*
X126779000Y-95498100I0J237500D01*
G01*
X126779000Y-94923100D01*
G75*
G02*
X127016500Y-94685600I237500J0D01*
G01*
X127491500Y-94685600D01*
G75*
G02*
X127729000Y-94923100I0J-237500D01*
G01*
X127729000Y-95498100D01*
G75*
G02*
X127491500Y-95735600I-237500J0D01*
G01*
G37*
G36*
G01*
X128365000Y-99386600D02*
X128865000Y-99386600D01*
G75*
G02*
X129115000Y-99636600I0J-250000D01*
G01*
X129115000Y-100136600D01*
G75*
G02*
X128865000Y-100386600I-250000J0D01*
G01*
X128365000Y-100386600D01*
G75*
G02*
X128115000Y-100136600I0J250000D01*
G01*
X128115000Y-99636600D01*
G75*
G02*
X128365000Y-99386600I250000J0D01*
G01*
G37*
G36*
G01*
X128365000Y-97936600D02*
X128865000Y-97936600D01*
G75*
G02*
X129115000Y-98186600I0J-250000D01*
G01*
X129115000Y-98686600D01*
G75*
G02*
X128865000Y-98936600I-250000J0D01*
G01*
X128365000Y-98936600D01*
G75*
G02*
X128115000Y-98686600I0J250000D01*
G01*
X128115000Y-98186600D01*
G75*
G02*
X128365000Y-97936600I250000J0D01*
G01*
G37*
G36*
G01*
X130215000Y-99386600D02*
X130715000Y-99386600D01*
G75*
G02*
X130965000Y-99636600I0J-250000D01*
G01*
X130965000Y-100136600D01*
G75*
G02*
X130715000Y-100386600I-250000J0D01*
G01*
X130215000Y-100386600D01*
G75*
G02*
X129965000Y-100136600I0J250000D01*
G01*
X129965000Y-99636600D01*
G75*
G02*
X130215000Y-99386600I250000J0D01*
G01*
G37*
G36*
G01*
X130215000Y-97936600D02*
X130715000Y-97936600D01*
G75*
G02*
X130965000Y-98186600I0J-250000D01*
G01*
X130965000Y-98686600D01*
G75*
G02*
X130715000Y-98936600I-250000J0D01*
G01*
X130215000Y-98936600D01*
G75*
G02*
X129965000Y-98686600I0J250000D01*
G01*
X129965000Y-98186600D01*
G75*
G02*
X130215000Y-97936600I250000J0D01*
G01*
G37*
G36*
G01*
X141132500Y-114098600D02*
X141607500Y-114098600D01*
G75*
G02*
X141845000Y-114336100I0J-237500D01*
G01*
X141845000Y-114936100D01*
G75*
G02*
X141607500Y-115173600I-237500J0D01*
G01*
X141132500Y-115173600D01*
G75*
G02*
X140895000Y-114936100I0J237500D01*
G01*
X140895000Y-114336100D01*
G75*
G02*
X141132500Y-114098600I237500J0D01*
G01*
G37*
G36*
G01*
X141132500Y-112373600D02*
X141607500Y-112373600D01*
G75*
G02*
X141845000Y-112611100I0J-237500D01*
G01*
X141845000Y-113211100D01*
G75*
G02*
X141607500Y-113448600I-237500J0D01*
G01*
X141132500Y-113448600D01*
G75*
G02*
X140895000Y-113211100I0J237500D01*
G01*
X140895000Y-112611100D01*
G75*
G02*
X141132500Y-112373600I237500J0D01*
G01*
G37*
G36*
G01*
X150645000Y-106436100D02*
X150645000Y-106911100D01*
G75*
G02*
X150407500Y-107148600I-237500J0D01*
G01*
X149807500Y-107148600D01*
G75*
G02*
X149570000Y-106911100I0J237500D01*
G01*
X149570000Y-106436100D01*
G75*
G02*
X149807500Y-106198600I237500J0D01*
G01*
X150407500Y-106198600D01*
G75*
G02*
X150645000Y-106436100I0J-237500D01*
G01*
G37*
G36*
G01*
X152370000Y-106436100D02*
X152370000Y-106911100D01*
G75*
G02*
X152132500Y-107148600I-237500J0D01*
G01*
X151532500Y-107148600D01*
G75*
G02*
X151295000Y-106911100I0J237500D01*
G01*
X151295000Y-106436100D01*
G75*
G02*
X151532500Y-106198600I237500J0D01*
G01*
X152132500Y-106198600D01*
G75*
G02*
X152370000Y-106436100I0J-237500D01*
G01*
G37*
D10*
X97917056Y-79026544D03*
X96220000Y-78323600D03*
X94522944Y-79026544D03*
X93820000Y-80723600D03*
X94522944Y-82420656D03*
X96220000Y-83123600D03*
X97917056Y-82420656D03*
X98620000Y-80723600D03*
D15*
X96220000Y-80723600D03*
D10*
X175917056Y-79026544D03*
X174220000Y-78323600D03*
X172522944Y-79026544D03*
X171820000Y-80723600D03*
X172522944Y-82420656D03*
X174220000Y-83123600D03*
X175917056Y-82420656D03*
X176620000Y-80723600D03*
D15*
X174220000Y-80723600D03*
D10*
X97917056Y-127026544D03*
X96220000Y-126323600D03*
X94522944Y-127026544D03*
X93820000Y-128723600D03*
X94522944Y-130420656D03*
X96220000Y-131123600D03*
X97917056Y-130420656D03*
X98620000Y-128723600D03*
D15*
X96220000Y-128723600D03*
D10*
X175917056Y-127026544D03*
X174220000Y-126323600D03*
X172522944Y-127026544D03*
X171820000Y-128723600D03*
X172522944Y-130420656D03*
X174220000Y-131123600D03*
X175917056Y-130420656D03*
X176620000Y-128723600D03*
D15*
X174220000Y-128723600D03*
D10*
X153842256Y-90123344D03*
X152145200Y-89420400D03*
X150448144Y-90123344D03*
X149745200Y-91820400D03*
X150448144Y-93517456D03*
X152145200Y-94220400D03*
X153842256Y-93517456D03*
X154545200Y-91820400D03*
D15*
X152145200Y-91820400D03*
D10*
X153842256Y-115929744D03*
X152145200Y-115226800D03*
X150448144Y-115929744D03*
X149745200Y-117626800D03*
X150448144Y-119323856D03*
X152145200Y-120026800D03*
X153842256Y-119323856D03*
X154545200Y-117626800D03*
D15*
X152145200Y-117626800D03*
G36*
G01*
X138404000Y-127807601D02*
X138404000Y-126907599D01*
G75*
G02*
X138653999Y-126657600I249999J0D01*
G01*
X139304001Y-126657600D01*
G75*
G02*
X139554000Y-126907599I0J-249999D01*
G01*
X139554000Y-127807601D01*
G75*
G02*
X139304001Y-128057600I-249999J0D01*
G01*
X138653999Y-128057600D01*
G75*
G02*
X138404000Y-127807601I0J249999D01*
G01*
G37*
G36*
G01*
X140454000Y-127807601D02*
X140454000Y-126907599D01*
G75*
G02*
X140703999Y-126657600I249999J0D01*
G01*
X141354001Y-126657600D01*
G75*
G02*
X141604000Y-126907599I0J-249999D01*
G01*
X141604000Y-127807601D01*
G75*
G02*
X141354001Y-128057600I-249999J0D01*
G01*
X140703999Y-128057600D01*
G75*
G02*
X140454000Y-127807601I0J249999D01*
G01*
G37*
G36*
G01*
X134943000Y-127807601D02*
X134943000Y-126907599D01*
G75*
G02*
X135192999Y-126657600I249999J0D01*
G01*
X135893001Y-126657600D01*
G75*
G02*
X136143000Y-126907599I0J-249999D01*
G01*
X136143000Y-127807601D01*
G75*
G02*
X135893001Y-128057600I-249999J0D01*
G01*
X135192999Y-128057600D01*
G75*
G02*
X134943000Y-127807601I0J249999D01*
G01*
G37*
G36*
G01*
X132943000Y-127807601D02*
X132943000Y-126907599D01*
G75*
G02*
X133192999Y-126657600I249999J0D01*
G01*
X133893001Y-126657600D01*
G75*
G02*
X134143000Y-126907599I0J-249999D01*
G01*
X134143000Y-127807601D01*
G75*
G02*
X133893001Y-128057600I-249999J0D01*
G01*
X133192999Y-128057600D01*
G75*
G02*
X132943000Y-127807601I0J249999D01*
G01*
G37*
G36*
G01*
X134959000Y-125394601D02*
X134959000Y-124494599D01*
G75*
G02*
X135208999Y-124244600I249999J0D01*
G01*
X135909001Y-124244600D01*
G75*
G02*
X136159000Y-124494599I0J-249999D01*
G01*
X136159000Y-125394601D01*
G75*
G02*
X135909001Y-125644600I-249999J0D01*
G01*
X135208999Y-125644600D01*
G75*
G02*
X134959000Y-125394601I0J249999D01*
G01*
G37*
G36*
G01*
X132959000Y-125394601D02*
X132959000Y-124494599D01*
G75*
G02*
X133208999Y-124244600I249999J0D01*
G01*
X133909001Y-124244600D01*
G75*
G02*
X134159000Y-124494599I0J-249999D01*
G01*
X134159000Y-125394601D01*
G75*
G02*
X133909001Y-125644600I-249999J0D01*
G01*
X133208999Y-125644600D01*
G75*
G02*
X132959000Y-125394601I0J249999D01*
G01*
G37*
G36*
G01*
X132943000Y-120314601D02*
X132943000Y-119414599D01*
G75*
G02*
X133192999Y-119164600I249999J0D01*
G01*
X133893001Y-119164600D01*
G75*
G02*
X134143000Y-119414599I0J-249999D01*
G01*
X134143000Y-120314601D01*
G75*
G02*
X133893001Y-120564600I-249999J0D01*
G01*
X133192999Y-120564600D01*
G75*
G02*
X132943000Y-120314601I0J249999D01*
G01*
G37*
G36*
G01*
X134943000Y-120314601D02*
X134943000Y-119414599D01*
G75*
G02*
X135192999Y-119164600I249999J0D01*
G01*
X135893001Y-119164600D01*
G75*
G02*
X136143000Y-119414599I0J-249999D01*
G01*
X136143000Y-120314601D01*
G75*
G02*
X135893001Y-120564600I-249999J0D01*
G01*
X135192999Y-120564600D01*
G75*
G02*
X134943000Y-120314601I0J249999D01*
G01*
G37*
G36*
G01*
X132943000Y-122854601D02*
X132943000Y-121954599D01*
G75*
G02*
X133192999Y-121704600I249999J0D01*
G01*
X133893001Y-121704600D01*
G75*
G02*
X134143000Y-121954599I0J-249999D01*
G01*
X134143000Y-122854601D01*
G75*
G02*
X133893001Y-123104600I-249999J0D01*
G01*
X133192999Y-123104600D01*
G75*
G02*
X132943000Y-122854601I0J249999D01*
G01*
G37*
G36*
G01*
X134943000Y-122854601D02*
X134943000Y-121954599D01*
G75*
G02*
X135192999Y-121704600I249999J0D01*
G01*
X135893001Y-121704600D01*
G75*
G02*
X136143000Y-121954599I0J-249999D01*
G01*
X136143000Y-122854601D01*
G75*
G02*
X135893001Y-123104600I-249999J0D01*
G01*
X135192999Y-123104600D01*
G75*
G02*
X134943000Y-122854601I0J249999D01*
G01*
G37*
G36*
G01*
X131977000Y-123072600D02*
X131977000Y-124022600D01*
G75*
G02*
X131727000Y-124272600I-250000J0D01*
G01*
X131052000Y-124272600D01*
G75*
G02*
X130802000Y-124022600I0J250000D01*
G01*
X130802000Y-123072600D01*
G75*
G02*
X131052000Y-122822600I250000J0D01*
G01*
X131727000Y-122822600D01*
G75*
G02*
X131977000Y-123072600I0J-250000D01*
G01*
G37*
G36*
G01*
X129902000Y-123072600D02*
X129902000Y-124022600D01*
G75*
G02*
X129652000Y-124272600I-250000J0D01*
G01*
X128977000Y-124272600D01*
G75*
G02*
X128727000Y-124022600I0J250000D01*
G01*
X128727000Y-123072600D01*
G75*
G02*
X128977000Y-122822600I250000J0D01*
G01*
X129652000Y-122822600D01*
G75*
G02*
X129902000Y-123072600I0J-250000D01*
G01*
G37*
M02*
