G04 #@! TF.GenerationSoftware,KiCad,Pcbnew,(5.1.12)-1*
G04 #@! TF.CreationDate,2021-12-17T11:46:06+01:00*
G04 #@! TF.ProjectId,eth_phy_KSZ8041MLL_mezzanine,6574685f-7068-4795-9f4b-535a38303431,rev?*
G04 #@! TF.SameCoordinates,Original*
G04 #@! TF.FileFunction,Copper,L2,Bot*
G04 #@! TF.FilePolarity,Positive*
%FSLAX46Y46*%
G04 Gerber Fmt 4.6, Leading zero omitted, Abs format (unit mm)*
G04 Created by KiCad (PCBNEW (5.1.12)-1) date 2021-12-17 11:46:06*
%MOMM*%
%LPD*%
G01*
G04 APERTURE LIST*
G04 #@! TA.AperFunction,ComponentPad*
%ADD10O,1.700000X1.700000*%
G04 #@! TD*
G04 #@! TA.AperFunction,ComponentPad*
%ADD11R,1.700000X1.700000*%
G04 #@! TD*
G04 #@! TA.AperFunction,ComponentPad*
%ADD12C,0.800000*%
G04 #@! TD*
G04 #@! TA.AperFunction,ComponentPad*
%ADD13C,6.400000*%
G04 #@! TD*
G04 #@! TA.AperFunction,ViaPad*
%ADD14C,0.800000*%
G04 #@! TD*
G04 #@! TA.AperFunction,ViaPad*
%ADD15C,1.600000*%
G04 #@! TD*
G04 #@! TA.AperFunction,Conductor*
%ADD16C,0.250000*%
G04 #@! TD*
G04 #@! TA.AperFunction,Conductor*
%ADD17C,1.000000*%
G04 #@! TD*
G04 #@! TA.AperFunction,Conductor*
%ADD18C,0.500000*%
G04 #@! TD*
G04 #@! TA.AperFunction,Conductor*
%ADD19C,0.254000*%
G04 #@! TD*
G04 #@! TA.AperFunction,Conductor*
%ADD20C,0.100000*%
G04 #@! TD*
G04 APERTURE END LIST*
D10*
X101600000Y-117957600D03*
X99060000Y-117957600D03*
X101600000Y-115417600D03*
X99060000Y-115417600D03*
X101600000Y-112877600D03*
X99060000Y-112877600D03*
X101600000Y-110337600D03*
X99060000Y-110337600D03*
X101600000Y-107797600D03*
X99060000Y-107797600D03*
X101600000Y-105257600D03*
X99060000Y-105257600D03*
X101600000Y-102717600D03*
X99060000Y-102717600D03*
X101600000Y-100177600D03*
X99060000Y-100177600D03*
X101600000Y-97637600D03*
X99060000Y-97637600D03*
X101600000Y-95097600D03*
X99060000Y-95097600D03*
X101600000Y-92557600D03*
X99060000Y-92557600D03*
X101600000Y-90017600D03*
D11*
X99060000Y-90017600D03*
D12*
X97917056Y-79026544D03*
X96220000Y-78323600D03*
X94522944Y-79026544D03*
X93820000Y-80723600D03*
X94522944Y-82420656D03*
X96220000Y-83123600D03*
X97917056Y-82420656D03*
X98620000Y-80723600D03*
D13*
X96220000Y-80723600D03*
D12*
X175917056Y-79026544D03*
X174220000Y-78323600D03*
X172522944Y-79026544D03*
X171820000Y-80723600D03*
X172522944Y-82420656D03*
X174220000Y-83123600D03*
X175917056Y-82420656D03*
X176620000Y-80723600D03*
D13*
X174220000Y-80723600D03*
D12*
X97917056Y-127026544D03*
X96220000Y-126323600D03*
X94522944Y-127026544D03*
X93820000Y-128723600D03*
X94522944Y-130420656D03*
X96220000Y-131123600D03*
X97917056Y-130420656D03*
X98620000Y-128723600D03*
D13*
X96220000Y-128723600D03*
D12*
X175917056Y-127026544D03*
X174220000Y-126323600D03*
X172522944Y-127026544D03*
X171820000Y-128723600D03*
X172522944Y-130420656D03*
X174220000Y-131123600D03*
X175917056Y-130420656D03*
X176620000Y-128723600D03*
D13*
X174220000Y-128723600D03*
D12*
X153842256Y-90123344D03*
X152145200Y-89420400D03*
X150448144Y-90123344D03*
X149745200Y-91820400D03*
X150448144Y-93517456D03*
X152145200Y-94220400D03*
X153842256Y-93517456D03*
X154545200Y-91820400D03*
D13*
X152145200Y-91820400D03*
D12*
X153842256Y-115929744D03*
X152145200Y-115226800D03*
X150448144Y-115929744D03*
X149745200Y-117626800D03*
X150448144Y-119323856D03*
X152145200Y-120026800D03*
X153842256Y-119323856D03*
X154545200Y-117626800D03*
D13*
X152145200Y-117626800D03*
D14*
X121920000Y-119608600D03*
X124460000Y-117703600D03*
X163306396Y-107513600D03*
X164865595Y-107513600D03*
X168485096Y-105933391D03*
X169970009Y-103833607D03*
X169970009Y-102504148D03*
X169970009Y-101174689D03*
X169970009Y-99845231D03*
X168648889Y-97677601D03*
X167708820Y-96737532D03*
X166768751Y-95797463D03*
X165721445Y-95012342D03*
X164395154Y-94973590D03*
X163065696Y-94973590D03*
X161736237Y-94973590D03*
X160406778Y-94973590D03*
X159077319Y-94973590D03*
X157747860Y-94973590D03*
X156418402Y-94973590D03*
X151469468Y-95999243D03*
X149589330Y-97879381D03*
X148649260Y-98819451D03*
X145394854Y-100699590D03*
X144020586Y-100699590D03*
X142646318Y-100699590D03*
X141272050Y-100699590D03*
X139897782Y-100699590D03*
X138523514Y-100699590D03*
X137149246Y-100699590D03*
X166424774Y-107512289D03*
X146769122Y-100699590D03*
X146016103Y-106507210D03*
X147405438Y-106507210D03*
X143761974Y-106890579D03*
X162681522Y-101023600D03*
X165970009Y-101626269D03*
X165937304Y-100247430D03*
X165127862Y-99156574D03*
X162799345Y-97973590D03*
X161418052Y-97973590D03*
X160036758Y-97973590D03*
X158655465Y-97973590D03*
X157274171Y-97973590D03*
X155892878Y-97973590D03*
X154511585Y-97973590D03*
X152167097Y-99301614D03*
X151136601Y-100332110D03*
X150106104Y-101362607D03*
X149075608Y-102393103D03*
X146663968Y-103423600D03*
X145282824Y-103423600D03*
X143901681Y-103423600D03*
X142520537Y-103423600D03*
X141139393Y-103423600D03*
X148045112Y-103423600D03*
X120904000Y-102209600D03*
X115824000Y-93827600D03*
X118745000Y-96367600D03*
X97155000Y-101193600D03*
X115824000Y-96367600D03*
X125730000Y-103733600D03*
X128270000Y-103733600D03*
X121666000Y-100939600D03*
X128270000Y-108813600D03*
X117348000Y-112115600D03*
X123190000Y-108813600D03*
X125730000Y-106273600D03*
X123190000Y-103733600D03*
X119888000Y-100939600D03*
X123190000Y-106273600D03*
X118745000Y-93827600D03*
X121920000Y-93827600D03*
X121920000Y-96367600D03*
X125730000Y-108723600D03*
X130175000Y-110718600D03*
X130175000Y-101828600D03*
X114300000Y-103733600D03*
X111760000Y-103733600D03*
X111760000Y-101828600D03*
X128270000Y-106273600D03*
X114350800Y-106629200D03*
X120142000Y-110337600D03*
X120142000Y-112115600D03*
X117348000Y-110337600D03*
D15*
X144720000Y-116223600D03*
X152958000Y-129135600D03*
D14*
X134620000Y-94843600D03*
X138176000Y-107289600D03*
D15*
X152220000Y-86223600D03*
X144720000Y-86223600D03*
X144720000Y-78723600D03*
X96220000Y-120723600D03*
X94720000Y-86223600D03*
X158673000Y-86336600D03*
D14*
X136652000Y-110591600D03*
D15*
X137220000Y-86223600D03*
D14*
X132080000Y-116687600D03*
D15*
X132220000Y-78723600D03*
X107220000Y-78723600D03*
X119720000Y-78723600D03*
D14*
X165870000Y-103323600D03*
X154170000Y-101423600D03*
X153820000Y-104623600D03*
X141120000Y-106073600D03*
D15*
X174220000Y-89723600D03*
X174220000Y-100723600D03*
X174220000Y-109723600D03*
D14*
X127220000Y-113723600D03*
D15*
X161220000Y-109723600D03*
X166220000Y-119723600D03*
X106220000Y-130723600D03*
X142220000Y-93723600D03*
X114300000Y-101193600D03*
X114173000Y-88620600D03*
X138049000Y-108813600D03*
D14*
X118616700Y-106526300D03*
X126746000Y-118211600D03*
X103669000Y-111607600D03*
X104394000Y-117195600D03*
X104394000Y-109067600D03*
X104394000Y-116179600D03*
X105156000Y-106527600D03*
X107442000Y-115163600D03*
X106426000Y-104495600D03*
X103382653Y-104500253D03*
X109220000Y-113639600D03*
X107188000Y-102971600D03*
X111506000Y-111353600D03*
X104906653Y-102976253D03*
X103886000Y-98907600D03*
X113030000Y-110083600D03*
X108712000Y-96367600D03*
X113792000Y-109321600D03*
X109474000Y-93827600D03*
X114554000Y-108559600D03*
X137260800Y-127357600D03*
X137337000Y-119915400D03*
D16*
X125730000Y-118973600D02*
X124460000Y-117703600D01*
D17*
X114173000Y-88620600D02*
X114173000Y-101066600D01*
X114173000Y-101066600D02*
X114300000Y-101193600D01*
D18*
X118872000Y-118465600D02*
X122936000Y-118465600D01*
X123444000Y-117957600D02*
X123444000Y-117195600D01*
X123444000Y-117195600D02*
X123786001Y-116853599D01*
X123786001Y-116853599D02*
X124206000Y-116433600D01*
X124968000Y-116433600D02*
X126746000Y-118211600D01*
X118616700Y-118210300D02*
X118872000Y-118465600D01*
X118616700Y-106526300D02*
X118616700Y-118210300D01*
X122936000Y-118465600D02*
X123444000Y-117957600D01*
X124206000Y-116433600D02*
X124968000Y-116433600D01*
D16*
X103668999Y-116527601D02*
X104336998Y-117195600D01*
X104336998Y-117195600D02*
X104394000Y-117195600D01*
X103669000Y-111607600D02*
X103668999Y-116527601D01*
X104394000Y-109067600D02*
X104394000Y-116179600D01*
X105156000Y-106527600D02*
X105156000Y-112877600D01*
X105156000Y-112877600D02*
X107442000Y-115163600D01*
X102362000Y-103987600D02*
X102870000Y-104495600D01*
X102874653Y-104500253D02*
X103382653Y-104500253D01*
X106426000Y-104495600D02*
X106426000Y-110845600D01*
X106426000Y-110845600D02*
X109220000Y-113639600D01*
X100330000Y-103987600D02*
X102362000Y-103987600D01*
X102870000Y-104495600D02*
X102874653Y-104500253D01*
X99060000Y-102717600D02*
X100330000Y-103987600D01*
X99060000Y-100177600D02*
X100235001Y-101352601D01*
X107188000Y-102971600D02*
X107188000Y-108559600D01*
X103283001Y-101352601D02*
X104906653Y-102976253D01*
X107188000Y-108559600D02*
X107696000Y-109067600D01*
X109220000Y-109067600D02*
X111506000Y-111353600D01*
X107696000Y-109067600D02*
X108712000Y-109067600D01*
X100235001Y-101352601D02*
X103283001Y-101352601D01*
X108712000Y-109067600D02*
X109220000Y-109067600D01*
X107950000Y-102209600D02*
X107950000Y-105003600D01*
X104648000Y-98907600D02*
X107950000Y-102209600D01*
X107950000Y-105003600D02*
X113030000Y-110083600D01*
X103886000Y-98907600D02*
X104648000Y-98907600D01*
X108712000Y-104241600D02*
X113792000Y-109321600D01*
X108712000Y-96367600D02*
X108712000Y-104241600D01*
X109474000Y-93827600D02*
X109474000Y-103479600D01*
X109474000Y-103479600D02*
X114554000Y-108559600D01*
X121920000Y-119608600D02*
X123293600Y-120982200D01*
X123293600Y-120982200D02*
X124814800Y-120982200D01*
X124814800Y-120982200D02*
X130555200Y-126722600D01*
X131190200Y-127357600D02*
X137260800Y-127357600D01*
X130555200Y-126722600D02*
X131190200Y-127357600D01*
X125730000Y-118973600D02*
X125730000Y-118976400D01*
X126669000Y-119915400D02*
X137337000Y-119915400D01*
X125730000Y-118976400D02*
X126669000Y-119915400D01*
D19*
X179093000Y-133596600D02*
X91347000Y-133596600D01*
X91347000Y-128345885D01*
X92385000Y-128345885D01*
X92385000Y-129101315D01*
X92532377Y-129842228D01*
X92821467Y-130540154D01*
X93241161Y-131168270D01*
X93775330Y-131702439D01*
X94403446Y-132122133D01*
X95101372Y-132411223D01*
X95842285Y-132558600D01*
X96597715Y-132558600D01*
X97338628Y-132411223D01*
X98036554Y-132122133D01*
X98664670Y-131702439D01*
X99198839Y-131168270D01*
X99618533Y-130540154D01*
X99907623Y-129842228D01*
X100055000Y-129101315D01*
X100055000Y-128345885D01*
X99907623Y-127604972D01*
X99618533Y-126907046D01*
X99198839Y-126278930D01*
X98664670Y-125744761D01*
X98036554Y-125325067D01*
X97338628Y-125035977D01*
X96597715Y-124888600D01*
X95842285Y-124888600D01*
X95101372Y-125035977D01*
X94403446Y-125325067D01*
X93775330Y-125744761D01*
X93241161Y-126278930D01*
X92821467Y-126907046D01*
X92532377Y-127604972D01*
X92385000Y-128345885D01*
X91347000Y-128345885D01*
X91347000Y-89167600D01*
X97571928Y-89167600D01*
X97571928Y-90867600D01*
X97584188Y-90992082D01*
X97620498Y-91111780D01*
X97679463Y-91222094D01*
X97758815Y-91318785D01*
X97855506Y-91398137D01*
X97965820Y-91457102D01*
X98038380Y-91479113D01*
X97906525Y-91610968D01*
X97744010Y-91854189D01*
X97632068Y-92124442D01*
X97575000Y-92411340D01*
X97575000Y-92703860D01*
X97632068Y-92990758D01*
X97744010Y-93261011D01*
X97906525Y-93504232D01*
X98113368Y-93711075D01*
X98287760Y-93827600D01*
X98113368Y-93944125D01*
X97906525Y-94150968D01*
X97744010Y-94394189D01*
X97632068Y-94664442D01*
X97575000Y-94951340D01*
X97575000Y-95243860D01*
X97632068Y-95530758D01*
X97744010Y-95801011D01*
X97906525Y-96044232D01*
X98113368Y-96251075D01*
X98287760Y-96367600D01*
X98113368Y-96484125D01*
X97906525Y-96690968D01*
X97744010Y-96934189D01*
X97632068Y-97204442D01*
X97575000Y-97491340D01*
X97575000Y-97783860D01*
X97632068Y-98070758D01*
X97744010Y-98341011D01*
X97906525Y-98584232D01*
X98113368Y-98791075D01*
X98287760Y-98907600D01*
X98113368Y-99024125D01*
X97906525Y-99230968D01*
X97744010Y-99474189D01*
X97632068Y-99744442D01*
X97575000Y-100031340D01*
X97575000Y-100323860D01*
X97632068Y-100610758D01*
X97744010Y-100881011D01*
X97906525Y-101124232D01*
X98113368Y-101331075D01*
X98287760Y-101447600D01*
X98113368Y-101564125D01*
X97906525Y-101770968D01*
X97744010Y-102014189D01*
X97632068Y-102284442D01*
X97575000Y-102571340D01*
X97575000Y-102863860D01*
X97632068Y-103150758D01*
X97744010Y-103421011D01*
X97906525Y-103664232D01*
X98113368Y-103871075D01*
X98287760Y-103987600D01*
X98113368Y-104104125D01*
X97906525Y-104310968D01*
X97744010Y-104554189D01*
X97632068Y-104824442D01*
X97575000Y-105111340D01*
X97575000Y-105403860D01*
X97632068Y-105690758D01*
X97744010Y-105961011D01*
X97906525Y-106204232D01*
X98113368Y-106411075D01*
X98287760Y-106527600D01*
X98113368Y-106644125D01*
X97906525Y-106850968D01*
X97744010Y-107094189D01*
X97632068Y-107364442D01*
X97575000Y-107651340D01*
X97575000Y-107943860D01*
X97632068Y-108230758D01*
X97744010Y-108501011D01*
X97906525Y-108744232D01*
X98113368Y-108951075D01*
X98287760Y-109067600D01*
X98113368Y-109184125D01*
X97906525Y-109390968D01*
X97744010Y-109634189D01*
X97632068Y-109904442D01*
X97575000Y-110191340D01*
X97575000Y-110483860D01*
X97632068Y-110770758D01*
X97744010Y-111041011D01*
X97906525Y-111284232D01*
X98113368Y-111491075D01*
X98287760Y-111607600D01*
X98113368Y-111724125D01*
X97906525Y-111930968D01*
X97744010Y-112174189D01*
X97632068Y-112444442D01*
X97575000Y-112731340D01*
X97575000Y-113023860D01*
X97632068Y-113310758D01*
X97744010Y-113581011D01*
X97906525Y-113824232D01*
X98113368Y-114031075D01*
X98287760Y-114147600D01*
X98113368Y-114264125D01*
X97906525Y-114470968D01*
X97744010Y-114714189D01*
X97632068Y-114984442D01*
X97575000Y-115271340D01*
X97575000Y-115563860D01*
X97632068Y-115850758D01*
X97744010Y-116121011D01*
X97906525Y-116364232D01*
X98113368Y-116571075D01*
X98287760Y-116687600D01*
X98113368Y-116804125D01*
X97906525Y-117010968D01*
X97744010Y-117254189D01*
X97632068Y-117524442D01*
X97575000Y-117811340D01*
X97575000Y-118103860D01*
X97632068Y-118390758D01*
X97744010Y-118661011D01*
X97906525Y-118904232D01*
X98113368Y-119111075D01*
X98356589Y-119273590D01*
X98626842Y-119385532D01*
X98913740Y-119442600D01*
X99206260Y-119442600D01*
X99493158Y-119385532D01*
X99763411Y-119273590D01*
X100006632Y-119111075D01*
X100213475Y-118904232D01*
X100331100Y-118728194D01*
X100502412Y-118957869D01*
X100718645Y-119152778D01*
X100968748Y-119301757D01*
X101243109Y-119399081D01*
X101473000Y-119278414D01*
X101473000Y-118084600D01*
X101727000Y-118084600D01*
X101727000Y-119278414D01*
X101956891Y-119399081D01*
X102231252Y-119301757D01*
X102481355Y-119152778D01*
X102697588Y-118957869D01*
X102871641Y-118724520D01*
X102996825Y-118461699D01*
X103041476Y-118314490D01*
X102920155Y-118084600D01*
X101727000Y-118084600D01*
X101473000Y-118084600D01*
X101453000Y-118084600D01*
X101453000Y-117830600D01*
X101473000Y-117830600D01*
X101473000Y-117810600D01*
X101727000Y-117810600D01*
X101727000Y-117830600D01*
X102920155Y-117830600D01*
X103041476Y-117600710D01*
X102996825Y-117453501D01*
X102871641Y-117190680D01*
X102697588Y-116957331D01*
X102481355Y-116762422D01*
X102364466Y-116692795D01*
X102546632Y-116571075D01*
X102753475Y-116364232D01*
X102908999Y-116131474D01*
X102908999Y-116490278D01*
X102905323Y-116527601D01*
X102908999Y-116564923D01*
X102908999Y-116564933D01*
X102919996Y-116676586D01*
X102963453Y-116819847D01*
X103034025Y-116951877D01*
X103097028Y-117028646D01*
X103128998Y-117067601D01*
X103157996Y-117091399D01*
X103359000Y-117292403D01*
X103359000Y-117297539D01*
X103398774Y-117497498D01*
X103476795Y-117685856D01*
X103590063Y-117855374D01*
X103734226Y-117999537D01*
X103903744Y-118112805D01*
X104092102Y-118190826D01*
X104292061Y-118230600D01*
X104495939Y-118230600D01*
X104695898Y-118190826D01*
X104884256Y-118112805D01*
X105053774Y-117999537D01*
X105197937Y-117855374D01*
X105311205Y-117685856D01*
X105389226Y-117497498D01*
X105429000Y-117297539D01*
X105429000Y-117093661D01*
X105389226Y-116893702D01*
X105311205Y-116705344D01*
X105299349Y-116687600D01*
X105311205Y-116669856D01*
X105389226Y-116481498D01*
X105429000Y-116281539D01*
X105429000Y-116077661D01*
X105389226Y-115877702D01*
X105311205Y-115689344D01*
X105197937Y-115519826D01*
X105154000Y-115475889D01*
X105154000Y-113950401D01*
X106407000Y-115203402D01*
X106407000Y-115265539D01*
X106446774Y-115465498D01*
X106524795Y-115653856D01*
X106638063Y-115823374D01*
X106782226Y-115967537D01*
X106951744Y-116080805D01*
X107140102Y-116158826D01*
X107340061Y-116198600D01*
X107543939Y-116198600D01*
X107743898Y-116158826D01*
X107932256Y-116080805D01*
X108101774Y-115967537D01*
X108245937Y-115823374D01*
X108359205Y-115653856D01*
X108437226Y-115465498D01*
X108477000Y-115265539D01*
X108477000Y-115061661D01*
X108437226Y-114861702D01*
X108359205Y-114673344D01*
X108245937Y-114503826D01*
X108101774Y-114359663D01*
X107932256Y-114246395D01*
X107743898Y-114168374D01*
X107543939Y-114128600D01*
X107481802Y-114128600D01*
X105916000Y-112562799D01*
X105916000Y-111410401D01*
X108185000Y-113679402D01*
X108185000Y-113741539D01*
X108224774Y-113941498D01*
X108302795Y-114129856D01*
X108416063Y-114299374D01*
X108560226Y-114443537D01*
X108729744Y-114556805D01*
X108918102Y-114634826D01*
X109118061Y-114674600D01*
X109321939Y-114674600D01*
X109521898Y-114634826D01*
X109710256Y-114556805D01*
X109879774Y-114443537D01*
X110023937Y-114299374D01*
X110137205Y-114129856D01*
X110215226Y-113941498D01*
X110255000Y-113741539D01*
X110255000Y-113537661D01*
X110215226Y-113337702D01*
X110137205Y-113149344D01*
X110023937Y-112979826D01*
X109879774Y-112835663D01*
X109710256Y-112722395D01*
X109521898Y-112644374D01*
X109321939Y-112604600D01*
X109259802Y-112604600D01*
X107186000Y-110530799D01*
X107186000Y-109632222D01*
X107271724Y-109702574D01*
X107403753Y-109773146D01*
X107547014Y-109816603D01*
X107658667Y-109827600D01*
X107658676Y-109827600D01*
X107695999Y-109831276D01*
X107733322Y-109827600D01*
X108905199Y-109827600D01*
X110471000Y-111393402D01*
X110471000Y-111455539D01*
X110510774Y-111655498D01*
X110588795Y-111843856D01*
X110702063Y-112013374D01*
X110846226Y-112157537D01*
X111015744Y-112270805D01*
X111204102Y-112348826D01*
X111404061Y-112388600D01*
X111607939Y-112388600D01*
X111807898Y-112348826D01*
X111996256Y-112270805D01*
X112165774Y-112157537D01*
X112309937Y-112013374D01*
X112423205Y-111843856D01*
X112501226Y-111655498D01*
X112541000Y-111455539D01*
X112541000Y-111251661D01*
X112501226Y-111051702D01*
X112457335Y-110945741D01*
X112539744Y-111000805D01*
X112728102Y-111078826D01*
X112928061Y-111118600D01*
X113131939Y-111118600D01*
X113331898Y-111078826D01*
X113520256Y-111000805D01*
X113689774Y-110887537D01*
X113833937Y-110743374D01*
X113947205Y-110573856D01*
X114025226Y-110385498D01*
X114036619Y-110328219D01*
X114093898Y-110316826D01*
X114282256Y-110238805D01*
X114451774Y-110125537D01*
X114595937Y-109981374D01*
X114709205Y-109811856D01*
X114787226Y-109623498D01*
X114798619Y-109566219D01*
X114855898Y-109554826D01*
X115044256Y-109476805D01*
X115213774Y-109363537D01*
X115357937Y-109219374D01*
X115471205Y-109049856D01*
X115549226Y-108861498D01*
X115589000Y-108661539D01*
X115589000Y-108457661D01*
X115549226Y-108257702D01*
X115471205Y-108069344D01*
X115357937Y-107899826D01*
X115213774Y-107755663D01*
X115044256Y-107642395D01*
X114855898Y-107564374D01*
X114655939Y-107524600D01*
X114593802Y-107524600D01*
X113493563Y-106424361D01*
X117581700Y-106424361D01*
X117581700Y-106628239D01*
X117621474Y-106828198D01*
X117699495Y-107016556D01*
X117731700Y-107064754D01*
X117731701Y-118166821D01*
X117727419Y-118210300D01*
X117744505Y-118383790D01*
X117795112Y-118550613D01*
X117877290Y-118704359D01*
X117960168Y-118805346D01*
X117960171Y-118805349D01*
X117987884Y-118839117D01*
X118021652Y-118866830D01*
X118215466Y-119060644D01*
X118243183Y-119094417D01*
X118377941Y-119205011D01*
X118531687Y-119287189D01*
X118698510Y-119337795D01*
X118828523Y-119350600D01*
X118828531Y-119350600D01*
X118872000Y-119354881D01*
X118915469Y-119350600D01*
X120916042Y-119350600D01*
X120885000Y-119506661D01*
X120885000Y-119710539D01*
X120924774Y-119910498D01*
X121002795Y-120098856D01*
X121116063Y-120268374D01*
X121260226Y-120412537D01*
X121429744Y-120525805D01*
X121618102Y-120603826D01*
X121818061Y-120643600D01*
X121880199Y-120643600D01*
X122729800Y-121493202D01*
X122753599Y-121522201D01*
X122869324Y-121617174D01*
X123001353Y-121687746D01*
X123144614Y-121731203D01*
X123256267Y-121742200D01*
X123256275Y-121742200D01*
X123293600Y-121745876D01*
X123330925Y-121742200D01*
X124499999Y-121742200D01*
X130044197Y-127286399D01*
X130044202Y-127286403D01*
X130626400Y-127868602D01*
X130650199Y-127897601D01*
X130679197Y-127921399D01*
X130765924Y-127992574D01*
X130897953Y-128063146D01*
X131041214Y-128106603D01*
X131190200Y-128121277D01*
X131227533Y-128117600D01*
X136557089Y-128117600D01*
X136601026Y-128161537D01*
X136770544Y-128274805D01*
X136958902Y-128352826D01*
X137158861Y-128392600D01*
X137362739Y-128392600D01*
X137562698Y-128352826D01*
X137579454Y-128345885D01*
X170385000Y-128345885D01*
X170385000Y-129101315D01*
X170532377Y-129842228D01*
X170821467Y-130540154D01*
X171241161Y-131168270D01*
X171775330Y-131702439D01*
X172403446Y-132122133D01*
X173101372Y-132411223D01*
X173842285Y-132558600D01*
X174597715Y-132558600D01*
X175338628Y-132411223D01*
X176036554Y-132122133D01*
X176664670Y-131702439D01*
X177198839Y-131168270D01*
X177618533Y-130540154D01*
X177907623Y-129842228D01*
X178055000Y-129101315D01*
X178055000Y-128345885D01*
X177907623Y-127604972D01*
X177618533Y-126907046D01*
X177198839Y-126278930D01*
X176664670Y-125744761D01*
X176036554Y-125325067D01*
X175338628Y-125035977D01*
X174597715Y-124888600D01*
X173842285Y-124888600D01*
X173101372Y-125035977D01*
X172403446Y-125325067D01*
X171775330Y-125744761D01*
X171241161Y-126278930D01*
X170821467Y-126907046D01*
X170532377Y-127604972D01*
X170385000Y-128345885D01*
X137579454Y-128345885D01*
X137751056Y-128274805D01*
X137920574Y-128161537D01*
X138064737Y-128017374D01*
X138178005Y-127847856D01*
X138256026Y-127659498D01*
X138295800Y-127459539D01*
X138295800Y-127255661D01*
X138256026Y-127055702D01*
X138178005Y-126867344D01*
X138064737Y-126697826D01*
X137920574Y-126553663D01*
X137751056Y-126440395D01*
X137562698Y-126362374D01*
X137362739Y-126322600D01*
X137158861Y-126322600D01*
X136958902Y-126362374D01*
X136770544Y-126440395D01*
X136601026Y-126553663D01*
X136557089Y-126597600D01*
X131505002Y-126597600D01*
X131119003Y-126211602D01*
X131118999Y-126211597D01*
X125378604Y-120471203D01*
X125354801Y-120442199D01*
X125239076Y-120347226D01*
X125107047Y-120276654D01*
X124963786Y-120233197D01*
X124852133Y-120222200D01*
X124852122Y-120222200D01*
X124814800Y-120218524D01*
X124777478Y-120222200D01*
X123608402Y-120222200D01*
X122955000Y-119568799D01*
X122955000Y-119506661D01*
X122924586Y-119353757D01*
X122936000Y-119354881D01*
X122979469Y-119350600D01*
X122979477Y-119350600D01*
X123109490Y-119337795D01*
X123276313Y-119287189D01*
X123430059Y-119205011D01*
X123564817Y-119094417D01*
X123592534Y-119060644D01*
X124014029Y-118639149D01*
X124158102Y-118698826D01*
X124358061Y-118738600D01*
X124420199Y-118738600D01*
X125153386Y-119471788D01*
X125189999Y-119516401D01*
X125219001Y-119540202D01*
X126105201Y-120426403D01*
X126128999Y-120455401D01*
X126157997Y-120479199D01*
X126244724Y-120550374D01*
X126376753Y-120620946D01*
X126520014Y-120664403D01*
X126669000Y-120679077D01*
X126706333Y-120675400D01*
X136633289Y-120675400D01*
X136677226Y-120719337D01*
X136846744Y-120832605D01*
X137035102Y-120910626D01*
X137235061Y-120950400D01*
X137438939Y-120950400D01*
X137638898Y-120910626D01*
X137827256Y-120832605D01*
X137996774Y-120719337D01*
X138140937Y-120575174D01*
X138254205Y-120405656D01*
X138286503Y-120327681D01*
X149623924Y-120327681D01*
X149984112Y-120817348D01*
X150648082Y-121177649D01*
X151369585Y-121401494D01*
X152120895Y-121480280D01*
X152873138Y-121410978D01*
X153597408Y-121196252D01*
X154265870Y-120844355D01*
X154306288Y-120817348D01*
X154666476Y-120327681D01*
X152145200Y-117806405D01*
X149623924Y-120327681D01*
X138286503Y-120327681D01*
X138332226Y-120217298D01*
X138372000Y-120017339D01*
X138372000Y-119813461D01*
X138332226Y-119613502D01*
X138254205Y-119425144D01*
X138140937Y-119255626D01*
X137996774Y-119111463D01*
X137827256Y-118998195D01*
X137638898Y-118920174D01*
X137438939Y-118880400D01*
X137235061Y-118880400D01*
X137035102Y-118920174D01*
X136846744Y-118998195D01*
X136677226Y-119111463D01*
X136633289Y-119155400D01*
X127172050Y-119155400D01*
X127236256Y-119128805D01*
X127405774Y-119015537D01*
X127549937Y-118871374D01*
X127663205Y-118701856D01*
X127741226Y-118513498D01*
X127781000Y-118313539D01*
X127781000Y-118109661D01*
X127741226Y-117909702D01*
X127663205Y-117721344D01*
X127583793Y-117602495D01*
X148291720Y-117602495D01*
X148361022Y-118354738D01*
X148575748Y-119079008D01*
X148927645Y-119747470D01*
X148954652Y-119787888D01*
X149444319Y-120148076D01*
X151965595Y-117626800D01*
X152324805Y-117626800D01*
X154846081Y-120148076D01*
X155335748Y-119787888D01*
X155696049Y-119123918D01*
X155919894Y-118402415D01*
X155998680Y-117651105D01*
X155929378Y-116898862D01*
X155714652Y-116174592D01*
X155362755Y-115506130D01*
X155335748Y-115465712D01*
X154846081Y-115105524D01*
X152324805Y-117626800D01*
X151965595Y-117626800D01*
X149444319Y-115105524D01*
X148954652Y-115465712D01*
X148594351Y-116129682D01*
X148370506Y-116851185D01*
X148291720Y-117602495D01*
X127583793Y-117602495D01*
X127549937Y-117551826D01*
X127405774Y-117407663D01*
X127236256Y-117294395D01*
X127047898Y-117216374D01*
X126991044Y-117205065D01*
X125624534Y-115838556D01*
X125596817Y-115804783D01*
X125462059Y-115694189D01*
X125308313Y-115612011D01*
X125141490Y-115561405D01*
X125011477Y-115548600D01*
X125011469Y-115548600D01*
X124968000Y-115544319D01*
X124924531Y-115548600D01*
X124249465Y-115548600D01*
X124205999Y-115544319D01*
X124162533Y-115548600D01*
X124162523Y-115548600D01*
X124032510Y-115561405D01*
X123865687Y-115612011D01*
X123711941Y-115694189D01*
X123577183Y-115804783D01*
X123549466Y-115838556D01*
X122848952Y-116539070D01*
X122815184Y-116566783D01*
X122787471Y-116600551D01*
X122787468Y-116600554D01*
X122742294Y-116655599D01*
X122704590Y-116701541D01*
X122622412Y-116855287D01*
X122571805Y-117022110D01*
X122559000Y-117152123D01*
X122559000Y-117152131D01*
X122554719Y-117195600D01*
X122559000Y-117239069D01*
X122559000Y-117580600D01*
X119501700Y-117580600D01*
X119501700Y-114925919D01*
X149623924Y-114925919D01*
X152145200Y-117447195D01*
X154666476Y-114925919D01*
X154306288Y-114436252D01*
X153642318Y-114075951D01*
X152920815Y-113852106D01*
X152169505Y-113773320D01*
X151417262Y-113842622D01*
X150692992Y-114057348D01*
X150024530Y-114409245D01*
X149984112Y-114436252D01*
X149623924Y-114925919D01*
X119501700Y-114925919D01*
X119501700Y-108672265D01*
X136614000Y-108672265D01*
X136614000Y-108954935D01*
X136669147Y-109232174D01*
X136777320Y-109493327D01*
X136934363Y-109728359D01*
X137134241Y-109928237D01*
X137369273Y-110085280D01*
X137630426Y-110193453D01*
X137907665Y-110248600D01*
X138190335Y-110248600D01*
X138467574Y-110193453D01*
X138728727Y-110085280D01*
X138963759Y-109928237D01*
X139163637Y-109728359D01*
X139320680Y-109493327D01*
X139428853Y-109232174D01*
X139484000Y-108954935D01*
X139484000Y-108672265D01*
X139428853Y-108395026D01*
X139320680Y-108133873D01*
X139163637Y-107898841D01*
X138963759Y-107698963D01*
X138728727Y-107541920D01*
X138467574Y-107433747D01*
X138190335Y-107378600D01*
X137907665Y-107378600D01*
X137630426Y-107433747D01*
X137369273Y-107541920D01*
X137134241Y-107698963D01*
X136934363Y-107898841D01*
X136777320Y-108133873D01*
X136669147Y-108395026D01*
X136614000Y-108672265D01*
X119501700Y-108672265D01*
X119501700Y-107140361D01*
X158601820Y-107140361D01*
X158601820Y-107344239D01*
X158641594Y-107544198D01*
X158719615Y-107732556D01*
X158832883Y-107902074D01*
X158977046Y-108046237D01*
X159146564Y-108159505D01*
X159334922Y-108237526D01*
X159534881Y-108277300D01*
X159738759Y-108277300D01*
X159938718Y-108237526D01*
X160127076Y-108159505D01*
X160296594Y-108046237D01*
X160440757Y-107902074D01*
X160554025Y-107732556D01*
X160632046Y-107544198D01*
X160671820Y-107344239D01*
X160671820Y-107140361D01*
X160632046Y-106940402D01*
X160554025Y-106752044D01*
X160440757Y-106582526D01*
X160296594Y-106438363D01*
X160127076Y-106325095D01*
X159938718Y-106247074D01*
X159738759Y-106207300D01*
X159534881Y-106207300D01*
X159334922Y-106247074D01*
X159146564Y-106325095D01*
X158977046Y-106438363D01*
X158832883Y-106582526D01*
X158719615Y-106752044D01*
X158641594Y-106940402D01*
X158601820Y-107140361D01*
X119501700Y-107140361D01*
X119501700Y-107064754D01*
X119533905Y-107016556D01*
X119611926Y-106828198D01*
X119651700Y-106628239D01*
X119651700Y-106424361D01*
X119611926Y-106224402D01*
X119533905Y-106036044D01*
X119420637Y-105866526D01*
X119276474Y-105722363D01*
X119106956Y-105609095D01*
X118918598Y-105531074D01*
X118718639Y-105491300D01*
X118514761Y-105491300D01*
X118314802Y-105531074D01*
X118126444Y-105609095D01*
X117956926Y-105722363D01*
X117812763Y-105866526D01*
X117699495Y-106036044D01*
X117621474Y-106224402D01*
X117581700Y-106424361D01*
X113493563Y-106424361D01*
X110234000Y-103164799D01*
X110234000Y-94531311D01*
X110277937Y-94487374D01*
X110391205Y-94317856D01*
X110469226Y-94129498D01*
X110509000Y-93929539D01*
X110509000Y-93725661D01*
X110469226Y-93525702D01*
X110391205Y-93337344D01*
X110277937Y-93167826D01*
X110133774Y-93023663D01*
X109964256Y-92910395D01*
X109775898Y-92832374D01*
X109575939Y-92792600D01*
X109372061Y-92792600D01*
X109172102Y-92832374D01*
X108983744Y-92910395D01*
X108814226Y-93023663D01*
X108670063Y-93167826D01*
X108556795Y-93337344D01*
X108478774Y-93525702D01*
X108439000Y-93725661D01*
X108439000Y-93929539D01*
X108478774Y-94129498D01*
X108556795Y-94317856D01*
X108670063Y-94487374D01*
X108714000Y-94531311D01*
X108714000Y-95332600D01*
X108610061Y-95332600D01*
X108410102Y-95372374D01*
X108221744Y-95450395D01*
X108052226Y-95563663D01*
X107908063Y-95707826D01*
X107794795Y-95877344D01*
X107716774Y-96065702D01*
X107677000Y-96265661D01*
X107677000Y-96469539D01*
X107716774Y-96669498D01*
X107794795Y-96857856D01*
X107908063Y-97027374D01*
X107952000Y-97071311D01*
X107952001Y-101136799D01*
X105211804Y-98396603D01*
X105188001Y-98367599D01*
X105072276Y-98272626D01*
X104940247Y-98202054D01*
X104796986Y-98158597D01*
X104685333Y-98147600D01*
X104685322Y-98147600D01*
X104648000Y-98143924D01*
X104610678Y-98147600D01*
X104589711Y-98147600D01*
X104545774Y-98103663D01*
X104376256Y-97990395D01*
X104187898Y-97912374D01*
X103987939Y-97872600D01*
X103784061Y-97872600D01*
X103584102Y-97912374D01*
X103395744Y-97990395D01*
X103226226Y-98103663D01*
X103082063Y-98247826D01*
X102968795Y-98417344D01*
X102890774Y-98605702D01*
X102851000Y-98805661D01*
X102851000Y-99009539D01*
X102890774Y-99209498D01*
X102968795Y-99397856D01*
X103082063Y-99567374D01*
X103226226Y-99711537D01*
X103395744Y-99824805D01*
X103584102Y-99902826D01*
X103784061Y-99942600D01*
X103987939Y-99942600D01*
X104187898Y-99902826D01*
X104376256Y-99824805D01*
X104444683Y-99779084D01*
X106713477Y-102047878D01*
X106697744Y-102054395D01*
X106528226Y-102167663D01*
X106384063Y-102311826D01*
X106270795Y-102481344D01*
X106192774Y-102669702D01*
X106153000Y-102869661D01*
X106153000Y-103073539D01*
X106192774Y-103273498D01*
X106270795Y-103461856D01*
X106276303Y-103470100D01*
X106124102Y-103500374D01*
X105935744Y-103578395D01*
X105766226Y-103691663D01*
X105622063Y-103835826D01*
X105508795Y-104005344D01*
X105430774Y-104193702D01*
X105391000Y-104393661D01*
X105391000Y-104597539D01*
X105430774Y-104797498D01*
X105508795Y-104985856D01*
X105622063Y-105155374D01*
X105666000Y-105199311D01*
X105666000Y-105623588D01*
X105646256Y-105610395D01*
X105457898Y-105532374D01*
X105257939Y-105492600D01*
X105054061Y-105492600D01*
X104854102Y-105532374D01*
X104665744Y-105610395D01*
X104496226Y-105723663D01*
X104352063Y-105867826D01*
X104238795Y-106037344D01*
X104160774Y-106225702D01*
X104121000Y-106425661D01*
X104121000Y-106629539D01*
X104160774Y-106829498D01*
X104238795Y-107017856D01*
X104352063Y-107187374D01*
X104396000Y-107231311D01*
X104396000Y-108032600D01*
X104292061Y-108032600D01*
X104092102Y-108072374D01*
X103903744Y-108150395D01*
X103734226Y-108263663D01*
X103590063Y-108407826D01*
X103476795Y-108577344D01*
X103398774Y-108765702D01*
X103359000Y-108965661D01*
X103359000Y-109169539D01*
X103398774Y-109369498D01*
X103476795Y-109557856D01*
X103590063Y-109727374D01*
X103634000Y-109771311D01*
X103634000Y-110572600D01*
X103567061Y-110572600D01*
X103367102Y-110612374D01*
X103178744Y-110690395D01*
X103016245Y-110798973D01*
X103027932Y-110770758D01*
X103085000Y-110483860D01*
X103085000Y-110191340D01*
X103027932Y-109904442D01*
X102915990Y-109634189D01*
X102753475Y-109390968D01*
X102546632Y-109184125D01*
X102372240Y-109067600D01*
X102546632Y-108951075D01*
X102753475Y-108744232D01*
X102915990Y-108501011D01*
X103027932Y-108230758D01*
X103085000Y-107943860D01*
X103085000Y-107651340D01*
X103027932Y-107364442D01*
X102915990Y-107094189D01*
X102753475Y-106850968D01*
X102546632Y-106644125D01*
X102372240Y-106527600D01*
X102546632Y-106411075D01*
X102753475Y-106204232D01*
X102915990Y-105961011D01*
X103027932Y-105690758D01*
X103067840Y-105490129D01*
X103080755Y-105495479D01*
X103280714Y-105535253D01*
X103484592Y-105535253D01*
X103684551Y-105495479D01*
X103872909Y-105417458D01*
X104042427Y-105304190D01*
X104186590Y-105160027D01*
X104299858Y-104990509D01*
X104377879Y-104802151D01*
X104417653Y-104602192D01*
X104417653Y-104398314D01*
X104377879Y-104198355D01*
X104299858Y-104009997D01*
X104186590Y-103840479D01*
X104042427Y-103696316D01*
X103872909Y-103583048D01*
X103684551Y-103505027D01*
X103484592Y-103465253D01*
X103280714Y-103465253D01*
X103080755Y-103505027D01*
X102991287Y-103542086D01*
X102925803Y-103476602D01*
X102902001Y-103447599D01*
X102899562Y-103445597D01*
X102915990Y-103421011D01*
X103027932Y-103150758D01*
X103085000Y-102863860D01*
X103085000Y-102571340D01*
X103027932Y-102284442D01*
X102956753Y-102112601D01*
X102968200Y-102112601D01*
X103871653Y-103016055D01*
X103871653Y-103078192D01*
X103911427Y-103278151D01*
X103989448Y-103466509D01*
X104102716Y-103636027D01*
X104246879Y-103780190D01*
X104416397Y-103893458D01*
X104604755Y-103971479D01*
X104804714Y-104011253D01*
X105008592Y-104011253D01*
X105208551Y-103971479D01*
X105396909Y-103893458D01*
X105566427Y-103780190D01*
X105710590Y-103636027D01*
X105823858Y-103466509D01*
X105901879Y-103278151D01*
X105941653Y-103078192D01*
X105941653Y-102874314D01*
X105901879Y-102674355D01*
X105823858Y-102485997D01*
X105710590Y-102316479D01*
X105566427Y-102172316D01*
X105396909Y-102059048D01*
X105208551Y-101981027D01*
X105008592Y-101941253D01*
X104946455Y-101941253D01*
X103846805Y-100841604D01*
X103823002Y-100812600D01*
X103707277Y-100717627D01*
X103575248Y-100647055D01*
X103431987Y-100603598D01*
X103320334Y-100592601D01*
X103320323Y-100592601D01*
X103283001Y-100588925D01*
X103245679Y-100592601D01*
X103031544Y-100592601D01*
X103085000Y-100323860D01*
X103085000Y-100031340D01*
X103027932Y-99744442D01*
X102915990Y-99474189D01*
X102753475Y-99230968D01*
X102546632Y-99024125D01*
X102372240Y-98907600D01*
X102546632Y-98791075D01*
X102753475Y-98584232D01*
X102915990Y-98341011D01*
X103027932Y-98070758D01*
X103085000Y-97783860D01*
X103085000Y-97491340D01*
X103027932Y-97204442D01*
X102915990Y-96934189D01*
X102753475Y-96690968D01*
X102546632Y-96484125D01*
X102372240Y-96367600D01*
X102546632Y-96251075D01*
X102753475Y-96044232D01*
X102915990Y-95801011D01*
X103027932Y-95530758D01*
X103085000Y-95243860D01*
X103085000Y-94951340D01*
X103027932Y-94664442D01*
X102915990Y-94394189D01*
X102753475Y-94150968D01*
X102546632Y-93944125D01*
X102372240Y-93827600D01*
X102546632Y-93711075D01*
X102753475Y-93504232D01*
X102915990Y-93261011D01*
X103027932Y-92990758D01*
X103085000Y-92703860D01*
X103085000Y-92411340D01*
X103027932Y-92124442D01*
X102915990Y-91854189D01*
X102753475Y-91610968D01*
X102546632Y-91404125D01*
X102364466Y-91282405D01*
X102481355Y-91212778D01*
X102697588Y-91017869D01*
X102871641Y-90784520D01*
X102996825Y-90521699D01*
X103041476Y-90374490D01*
X102920155Y-90144600D01*
X101727000Y-90144600D01*
X101727000Y-90164600D01*
X101473000Y-90164600D01*
X101473000Y-90144600D01*
X101453000Y-90144600D01*
X101453000Y-89890600D01*
X101473000Y-89890600D01*
X101473000Y-88696786D01*
X101727000Y-88696786D01*
X101727000Y-89890600D01*
X102920155Y-89890600D01*
X103041476Y-89660710D01*
X102996825Y-89513501D01*
X102871641Y-89250680D01*
X102697588Y-89017331D01*
X102481355Y-88822422D01*
X102231252Y-88673443D01*
X101956891Y-88576119D01*
X101727000Y-88696786D01*
X101473000Y-88696786D01*
X101243109Y-88576119D01*
X100968748Y-88673443D01*
X100718645Y-88822422D01*
X100522498Y-88999226D01*
X100499502Y-88923420D01*
X100440537Y-88813106D01*
X100361185Y-88716415D01*
X100264494Y-88637063D01*
X100154180Y-88578098D01*
X100034482Y-88541788D01*
X99910000Y-88529528D01*
X98210000Y-88529528D01*
X98085518Y-88541788D01*
X97965820Y-88578098D01*
X97855506Y-88637063D01*
X97758815Y-88716415D01*
X97679463Y-88813106D01*
X97620498Y-88923420D01*
X97584188Y-89043118D01*
X97571928Y-89167600D01*
X91347000Y-89167600D01*
X91347000Y-88479265D01*
X112738000Y-88479265D01*
X112738000Y-88761935D01*
X112793147Y-89039174D01*
X112901320Y-89300327D01*
X113038000Y-89504884D01*
X113038001Y-100499384D01*
X113028320Y-100513873D01*
X112920147Y-100775026D01*
X112865000Y-101052265D01*
X112865000Y-101334935D01*
X112920147Y-101612174D01*
X113028320Y-101873327D01*
X113185363Y-102108359D01*
X113385241Y-102308237D01*
X113620273Y-102465280D01*
X113881426Y-102573453D01*
X114158665Y-102628600D01*
X114441335Y-102628600D01*
X114718574Y-102573453D01*
X114979727Y-102465280D01*
X115214759Y-102308237D01*
X115414637Y-102108359D01*
X115431607Y-102082961D01*
X158601820Y-102082961D01*
X158601820Y-102286839D01*
X158641594Y-102486798D01*
X158719615Y-102675156D01*
X158832883Y-102844674D01*
X158977046Y-102988837D01*
X159146564Y-103102105D01*
X159334922Y-103180126D01*
X159534881Y-103219900D01*
X159738759Y-103219900D01*
X159938718Y-103180126D01*
X160127076Y-103102105D01*
X160296594Y-102988837D01*
X160440757Y-102844674D01*
X160554025Y-102675156D01*
X160632046Y-102486798D01*
X160671820Y-102286839D01*
X160671820Y-102082961D01*
X160632046Y-101883002D01*
X160554025Y-101694644D01*
X160440757Y-101525126D01*
X160296594Y-101380963D01*
X160127076Y-101267695D01*
X159938718Y-101189674D01*
X159738759Y-101149900D01*
X159534881Y-101149900D01*
X159334922Y-101189674D01*
X159146564Y-101267695D01*
X158977046Y-101380963D01*
X158832883Y-101525126D01*
X158719615Y-101694644D01*
X158641594Y-101883002D01*
X158601820Y-102082961D01*
X115431607Y-102082961D01*
X115571680Y-101873327D01*
X115679853Y-101612174D01*
X115735000Y-101334935D01*
X115735000Y-101052265D01*
X115679853Y-100775026D01*
X115571680Y-100513873D01*
X115414637Y-100278841D01*
X115308000Y-100172204D01*
X115308000Y-94521281D01*
X149623924Y-94521281D01*
X149984112Y-95010948D01*
X150648082Y-95371249D01*
X151369585Y-95595094D01*
X152120895Y-95673880D01*
X152873138Y-95604578D01*
X153597408Y-95389852D01*
X154265870Y-95037955D01*
X154306288Y-95010948D01*
X154666476Y-94521281D01*
X152145200Y-92000005D01*
X149623924Y-94521281D01*
X115308000Y-94521281D01*
X115308000Y-91796095D01*
X148291720Y-91796095D01*
X148361022Y-92548338D01*
X148575748Y-93272608D01*
X148927645Y-93941070D01*
X148954652Y-93981488D01*
X149444319Y-94341676D01*
X151965595Y-91820400D01*
X152324805Y-91820400D01*
X154846081Y-94341676D01*
X155335748Y-93981488D01*
X155696049Y-93317518D01*
X155919894Y-92596015D01*
X155998680Y-91844705D01*
X155929378Y-91092462D01*
X155714652Y-90368192D01*
X155362755Y-89699730D01*
X155335748Y-89659312D01*
X154846081Y-89299124D01*
X152324805Y-91820400D01*
X151965595Y-91820400D01*
X149444319Y-89299124D01*
X148954652Y-89659312D01*
X148594351Y-90323282D01*
X148370506Y-91044785D01*
X148291720Y-91796095D01*
X115308000Y-91796095D01*
X115308000Y-89504884D01*
X115444680Y-89300327D01*
X115519573Y-89119519D01*
X149623924Y-89119519D01*
X152145200Y-91640795D01*
X154666476Y-89119519D01*
X154306288Y-88629852D01*
X153642318Y-88269551D01*
X152920815Y-88045706D01*
X152169505Y-87966920D01*
X151417262Y-88036222D01*
X150692992Y-88250948D01*
X150024530Y-88602845D01*
X149984112Y-88629852D01*
X149623924Y-89119519D01*
X115519573Y-89119519D01*
X115552853Y-89039174D01*
X115608000Y-88761935D01*
X115608000Y-88479265D01*
X115552853Y-88202026D01*
X115444680Y-87940873D01*
X115287637Y-87705841D01*
X115087759Y-87505963D01*
X114852727Y-87348920D01*
X114591574Y-87240747D01*
X114314335Y-87185600D01*
X114031665Y-87185600D01*
X113754426Y-87240747D01*
X113493273Y-87348920D01*
X113258241Y-87505963D01*
X113058363Y-87705841D01*
X112901320Y-87940873D01*
X112793147Y-88202026D01*
X112738000Y-88479265D01*
X91347000Y-88479265D01*
X91347000Y-80345885D01*
X92385000Y-80345885D01*
X92385000Y-81101315D01*
X92532377Y-81842228D01*
X92821467Y-82540154D01*
X93241161Y-83168270D01*
X93775330Y-83702439D01*
X94403446Y-84122133D01*
X95101372Y-84411223D01*
X95842285Y-84558600D01*
X96597715Y-84558600D01*
X97338628Y-84411223D01*
X98036554Y-84122133D01*
X98664670Y-83702439D01*
X99198839Y-83168270D01*
X99618533Y-82540154D01*
X99907623Y-81842228D01*
X100055000Y-81101315D01*
X100055000Y-80345885D01*
X170385000Y-80345885D01*
X170385000Y-81101315D01*
X170532377Y-81842228D01*
X170821467Y-82540154D01*
X171241161Y-83168270D01*
X171775330Y-83702439D01*
X172403446Y-84122133D01*
X173101372Y-84411223D01*
X173842285Y-84558600D01*
X174597715Y-84558600D01*
X175338628Y-84411223D01*
X176036554Y-84122133D01*
X176664670Y-83702439D01*
X177198839Y-83168270D01*
X177618533Y-82540154D01*
X177907623Y-81842228D01*
X178055000Y-81101315D01*
X178055000Y-80345885D01*
X177907623Y-79604972D01*
X177618533Y-78907046D01*
X177198839Y-78278930D01*
X176664670Y-77744761D01*
X176036554Y-77325067D01*
X175338628Y-77035977D01*
X174597715Y-76888600D01*
X173842285Y-76888600D01*
X173101372Y-77035977D01*
X172403446Y-77325067D01*
X171775330Y-77744761D01*
X171241161Y-78278930D01*
X170821467Y-78907046D01*
X170532377Y-79604972D01*
X170385000Y-80345885D01*
X100055000Y-80345885D01*
X99907623Y-79604972D01*
X99618533Y-78907046D01*
X99198839Y-78278930D01*
X98664670Y-77744761D01*
X98036554Y-77325067D01*
X97338628Y-77035977D01*
X96597715Y-76888600D01*
X95842285Y-76888600D01*
X95101372Y-77035977D01*
X94403446Y-77325067D01*
X93775330Y-77744761D01*
X93241161Y-78278930D01*
X92821467Y-78907046D01*
X92532377Y-79604972D01*
X92385000Y-80345885D01*
X91347000Y-80345885D01*
X91347000Y-75850600D01*
X179093000Y-75850600D01*
X179093000Y-133596600D01*
G04 #@! TA.AperFunction,Conductor*
D20*
G36*
X179093000Y-133596600D02*
G01*
X91347000Y-133596600D01*
X91347000Y-128345885D01*
X92385000Y-128345885D01*
X92385000Y-129101315D01*
X92532377Y-129842228D01*
X92821467Y-130540154D01*
X93241161Y-131168270D01*
X93775330Y-131702439D01*
X94403446Y-132122133D01*
X95101372Y-132411223D01*
X95842285Y-132558600D01*
X96597715Y-132558600D01*
X97338628Y-132411223D01*
X98036554Y-132122133D01*
X98664670Y-131702439D01*
X99198839Y-131168270D01*
X99618533Y-130540154D01*
X99907623Y-129842228D01*
X100055000Y-129101315D01*
X100055000Y-128345885D01*
X99907623Y-127604972D01*
X99618533Y-126907046D01*
X99198839Y-126278930D01*
X98664670Y-125744761D01*
X98036554Y-125325067D01*
X97338628Y-125035977D01*
X96597715Y-124888600D01*
X95842285Y-124888600D01*
X95101372Y-125035977D01*
X94403446Y-125325067D01*
X93775330Y-125744761D01*
X93241161Y-126278930D01*
X92821467Y-126907046D01*
X92532377Y-127604972D01*
X92385000Y-128345885D01*
X91347000Y-128345885D01*
X91347000Y-89167600D01*
X97571928Y-89167600D01*
X97571928Y-90867600D01*
X97584188Y-90992082D01*
X97620498Y-91111780D01*
X97679463Y-91222094D01*
X97758815Y-91318785D01*
X97855506Y-91398137D01*
X97965820Y-91457102D01*
X98038380Y-91479113D01*
X97906525Y-91610968D01*
X97744010Y-91854189D01*
X97632068Y-92124442D01*
X97575000Y-92411340D01*
X97575000Y-92703860D01*
X97632068Y-92990758D01*
X97744010Y-93261011D01*
X97906525Y-93504232D01*
X98113368Y-93711075D01*
X98287760Y-93827600D01*
X98113368Y-93944125D01*
X97906525Y-94150968D01*
X97744010Y-94394189D01*
X97632068Y-94664442D01*
X97575000Y-94951340D01*
X97575000Y-95243860D01*
X97632068Y-95530758D01*
X97744010Y-95801011D01*
X97906525Y-96044232D01*
X98113368Y-96251075D01*
X98287760Y-96367600D01*
X98113368Y-96484125D01*
X97906525Y-96690968D01*
X97744010Y-96934189D01*
X97632068Y-97204442D01*
X97575000Y-97491340D01*
X97575000Y-97783860D01*
X97632068Y-98070758D01*
X97744010Y-98341011D01*
X97906525Y-98584232D01*
X98113368Y-98791075D01*
X98287760Y-98907600D01*
X98113368Y-99024125D01*
X97906525Y-99230968D01*
X97744010Y-99474189D01*
X97632068Y-99744442D01*
X97575000Y-100031340D01*
X97575000Y-100323860D01*
X97632068Y-100610758D01*
X97744010Y-100881011D01*
X97906525Y-101124232D01*
X98113368Y-101331075D01*
X98287760Y-101447600D01*
X98113368Y-101564125D01*
X97906525Y-101770968D01*
X97744010Y-102014189D01*
X97632068Y-102284442D01*
X97575000Y-102571340D01*
X97575000Y-102863860D01*
X97632068Y-103150758D01*
X97744010Y-103421011D01*
X97906525Y-103664232D01*
X98113368Y-103871075D01*
X98287760Y-103987600D01*
X98113368Y-104104125D01*
X97906525Y-104310968D01*
X97744010Y-104554189D01*
X97632068Y-104824442D01*
X97575000Y-105111340D01*
X97575000Y-105403860D01*
X97632068Y-105690758D01*
X97744010Y-105961011D01*
X97906525Y-106204232D01*
X98113368Y-106411075D01*
X98287760Y-106527600D01*
X98113368Y-106644125D01*
X97906525Y-106850968D01*
X97744010Y-107094189D01*
X97632068Y-107364442D01*
X97575000Y-107651340D01*
X97575000Y-107943860D01*
X97632068Y-108230758D01*
X97744010Y-108501011D01*
X97906525Y-108744232D01*
X98113368Y-108951075D01*
X98287760Y-109067600D01*
X98113368Y-109184125D01*
X97906525Y-109390968D01*
X97744010Y-109634189D01*
X97632068Y-109904442D01*
X97575000Y-110191340D01*
X97575000Y-110483860D01*
X97632068Y-110770758D01*
X97744010Y-111041011D01*
X97906525Y-111284232D01*
X98113368Y-111491075D01*
X98287760Y-111607600D01*
X98113368Y-111724125D01*
X97906525Y-111930968D01*
X97744010Y-112174189D01*
X97632068Y-112444442D01*
X97575000Y-112731340D01*
X97575000Y-113023860D01*
X97632068Y-113310758D01*
X97744010Y-113581011D01*
X97906525Y-113824232D01*
X98113368Y-114031075D01*
X98287760Y-114147600D01*
X98113368Y-114264125D01*
X97906525Y-114470968D01*
X97744010Y-114714189D01*
X97632068Y-114984442D01*
X97575000Y-115271340D01*
X97575000Y-115563860D01*
X97632068Y-115850758D01*
X97744010Y-116121011D01*
X97906525Y-116364232D01*
X98113368Y-116571075D01*
X98287760Y-116687600D01*
X98113368Y-116804125D01*
X97906525Y-117010968D01*
X97744010Y-117254189D01*
X97632068Y-117524442D01*
X97575000Y-117811340D01*
X97575000Y-118103860D01*
X97632068Y-118390758D01*
X97744010Y-118661011D01*
X97906525Y-118904232D01*
X98113368Y-119111075D01*
X98356589Y-119273590D01*
X98626842Y-119385532D01*
X98913740Y-119442600D01*
X99206260Y-119442600D01*
X99493158Y-119385532D01*
X99763411Y-119273590D01*
X100006632Y-119111075D01*
X100213475Y-118904232D01*
X100331100Y-118728194D01*
X100502412Y-118957869D01*
X100718645Y-119152778D01*
X100968748Y-119301757D01*
X101243109Y-119399081D01*
X101473000Y-119278414D01*
X101473000Y-118084600D01*
X101727000Y-118084600D01*
X101727000Y-119278414D01*
X101956891Y-119399081D01*
X102231252Y-119301757D01*
X102481355Y-119152778D01*
X102697588Y-118957869D01*
X102871641Y-118724520D01*
X102996825Y-118461699D01*
X103041476Y-118314490D01*
X102920155Y-118084600D01*
X101727000Y-118084600D01*
X101473000Y-118084600D01*
X101453000Y-118084600D01*
X101453000Y-117830600D01*
X101473000Y-117830600D01*
X101473000Y-117810600D01*
X101727000Y-117810600D01*
X101727000Y-117830600D01*
X102920155Y-117830600D01*
X103041476Y-117600710D01*
X102996825Y-117453501D01*
X102871641Y-117190680D01*
X102697588Y-116957331D01*
X102481355Y-116762422D01*
X102364466Y-116692795D01*
X102546632Y-116571075D01*
X102753475Y-116364232D01*
X102908999Y-116131474D01*
X102908999Y-116490278D01*
X102905323Y-116527601D01*
X102908999Y-116564923D01*
X102908999Y-116564933D01*
X102919996Y-116676586D01*
X102963453Y-116819847D01*
X103034025Y-116951877D01*
X103097028Y-117028646D01*
X103128998Y-117067601D01*
X103157996Y-117091399D01*
X103359000Y-117292403D01*
X103359000Y-117297539D01*
X103398774Y-117497498D01*
X103476795Y-117685856D01*
X103590063Y-117855374D01*
X103734226Y-117999537D01*
X103903744Y-118112805D01*
X104092102Y-118190826D01*
X104292061Y-118230600D01*
X104495939Y-118230600D01*
X104695898Y-118190826D01*
X104884256Y-118112805D01*
X105053774Y-117999537D01*
X105197937Y-117855374D01*
X105311205Y-117685856D01*
X105389226Y-117497498D01*
X105429000Y-117297539D01*
X105429000Y-117093661D01*
X105389226Y-116893702D01*
X105311205Y-116705344D01*
X105299349Y-116687600D01*
X105311205Y-116669856D01*
X105389226Y-116481498D01*
X105429000Y-116281539D01*
X105429000Y-116077661D01*
X105389226Y-115877702D01*
X105311205Y-115689344D01*
X105197937Y-115519826D01*
X105154000Y-115475889D01*
X105154000Y-113950401D01*
X106407000Y-115203402D01*
X106407000Y-115265539D01*
X106446774Y-115465498D01*
X106524795Y-115653856D01*
X106638063Y-115823374D01*
X106782226Y-115967537D01*
X106951744Y-116080805D01*
X107140102Y-116158826D01*
X107340061Y-116198600D01*
X107543939Y-116198600D01*
X107743898Y-116158826D01*
X107932256Y-116080805D01*
X108101774Y-115967537D01*
X108245937Y-115823374D01*
X108359205Y-115653856D01*
X108437226Y-115465498D01*
X108477000Y-115265539D01*
X108477000Y-115061661D01*
X108437226Y-114861702D01*
X108359205Y-114673344D01*
X108245937Y-114503826D01*
X108101774Y-114359663D01*
X107932256Y-114246395D01*
X107743898Y-114168374D01*
X107543939Y-114128600D01*
X107481802Y-114128600D01*
X105916000Y-112562799D01*
X105916000Y-111410401D01*
X108185000Y-113679402D01*
X108185000Y-113741539D01*
X108224774Y-113941498D01*
X108302795Y-114129856D01*
X108416063Y-114299374D01*
X108560226Y-114443537D01*
X108729744Y-114556805D01*
X108918102Y-114634826D01*
X109118061Y-114674600D01*
X109321939Y-114674600D01*
X109521898Y-114634826D01*
X109710256Y-114556805D01*
X109879774Y-114443537D01*
X110023937Y-114299374D01*
X110137205Y-114129856D01*
X110215226Y-113941498D01*
X110255000Y-113741539D01*
X110255000Y-113537661D01*
X110215226Y-113337702D01*
X110137205Y-113149344D01*
X110023937Y-112979826D01*
X109879774Y-112835663D01*
X109710256Y-112722395D01*
X109521898Y-112644374D01*
X109321939Y-112604600D01*
X109259802Y-112604600D01*
X107186000Y-110530799D01*
X107186000Y-109632222D01*
X107271724Y-109702574D01*
X107403753Y-109773146D01*
X107547014Y-109816603D01*
X107658667Y-109827600D01*
X107658676Y-109827600D01*
X107695999Y-109831276D01*
X107733322Y-109827600D01*
X108905199Y-109827600D01*
X110471000Y-111393402D01*
X110471000Y-111455539D01*
X110510774Y-111655498D01*
X110588795Y-111843856D01*
X110702063Y-112013374D01*
X110846226Y-112157537D01*
X111015744Y-112270805D01*
X111204102Y-112348826D01*
X111404061Y-112388600D01*
X111607939Y-112388600D01*
X111807898Y-112348826D01*
X111996256Y-112270805D01*
X112165774Y-112157537D01*
X112309937Y-112013374D01*
X112423205Y-111843856D01*
X112501226Y-111655498D01*
X112541000Y-111455539D01*
X112541000Y-111251661D01*
X112501226Y-111051702D01*
X112457335Y-110945741D01*
X112539744Y-111000805D01*
X112728102Y-111078826D01*
X112928061Y-111118600D01*
X113131939Y-111118600D01*
X113331898Y-111078826D01*
X113520256Y-111000805D01*
X113689774Y-110887537D01*
X113833937Y-110743374D01*
X113947205Y-110573856D01*
X114025226Y-110385498D01*
X114036619Y-110328219D01*
X114093898Y-110316826D01*
X114282256Y-110238805D01*
X114451774Y-110125537D01*
X114595937Y-109981374D01*
X114709205Y-109811856D01*
X114787226Y-109623498D01*
X114798619Y-109566219D01*
X114855898Y-109554826D01*
X115044256Y-109476805D01*
X115213774Y-109363537D01*
X115357937Y-109219374D01*
X115471205Y-109049856D01*
X115549226Y-108861498D01*
X115589000Y-108661539D01*
X115589000Y-108457661D01*
X115549226Y-108257702D01*
X115471205Y-108069344D01*
X115357937Y-107899826D01*
X115213774Y-107755663D01*
X115044256Y-107642395D01*
X114855898Y-107564374D01*
X114655939Y-107524600D01*
X114593802Y-107524600D01*
X113493563Y-106424361D01*
X117581700Y-106424361D01*
X117581700Y-106628239D01*
X117621474Y-106828198D01*
X117699495Y-107016556D01*
X117731700Y-107064754D01*
X117731701Y-118166821D01*
X117727419Y-118210300D01*
X117744505Y-118383790D01*
X117795112Y-118550613D01*
X117877290Y-118704359D01*
X117960168Y-118805346D01*
X117960171Y-118805349D01*
X117987884Y-118839117D01*
X118021652Y-118866830D01*
X118215466Y-119060644D01*
X118243183Y-119094417D01*
X118377941Y-119205011D01*
X118531687Y-119287189D01*
X118698510Y-119337795D01*
X118828523Y-119350600D01*
X118828531Y-119350600D01*
X118872000Y-119354881D01*
X118915469Y-119350600D01*
X120916042Y-119350600D01*
X120885000Y-119506661D01*
X120885000Y-119710539D01*
X120924774Y-119910498D01*
X121002795Y-120098856D01*
X121116063Y-120268374D01*
X121260226Y-120412537D01*
X121429744Y-120525805D01*
X121618102Y-120603826D01*
X121818061Y-120643600D01*
X121880199Y-120643600D01*
X122729800Y-121493202D01*
X122753599Y-121522201D01*
X122869324Y-121617174D01*
X123001353Y-121687746D01*
X123144614Y-121731203D01*
X123256267Y-121742200D01*
X123256275Y-121742200D01*
X123293600Y-121745876D01*
X123330925Y-121742200D01*
X124499999Y-121742200D01*
X130044197Y-127286399D01*
X130044202Y-127286403D01*
X130626400Y-127868602D01*
X130650199Y-127897601D01*
X130679197Y-127921399D01*
X130765924Y-127992574D01*
X130897953Y-128063146D01*
X131041214Y-128106603D01*
X131190200Y-128121277D01*
X131227533Y-128117600D01*
X136557089Y-128117600D01*
X136601026Y-128161537D01*
X136770544Y-128274805D01*
X136958902Y-128352826D01*
X137158861Y-128392600D01*
X137362739Y-128392600D01*
X137562698Y-128352826D01*
X137579454Y-128345885D01*
X170385000Y-128345885D01*
X170385000Y-129101315D01*
X170532377Y-129842228D01*
X170821467Y-130540154D01*
X171241161Y-131168270D01*
X171775330Y-131702439D01*
X172403446Y-132122133D01*
X173101372Y-132411223D01*
X173842285Y-132558600D01*
X174597715Y-132558600D01*
X175338628Y-132411223D01*
X176036554Y-132122133D01*
X176664670Y-131702439D01*
X177198839Y-131168270D01*
X177618533Y-130540154D01*
X177907623Y-129842228D01*
X178055000Y-129101315D01*
X178055000Y-128345885D01*
X177907623Y-127604972D01*
X177618533Y-126907046D01*
X177198839Y-126278930D01*
X176664670Y-125744761D01*
X176036554Y-125325067D01*
X175338628Y-125035977D01*
X174597715Y-124888600D01*
X173842285Y-124888600D01*
X173101372Y-125035977D01*
X172403446Y-125325067D01*
X171775330Y-125744761D01*
X171241161Y-126278930D01*
X170821467Y-126907046D01*
X170532377Y-127604972D01*
X170385000Y-128345885D01*
X137579454Y-128345885D01*
X137751056Y-128274805D01*
X137920574Y-128161537D01*
X138064737Y-128017374D01*
X138178005Y-127847856D01*
X138256026Y-127659498D01*
X138295800Y-127459539D01*
X138295800Y-127255661D01*
X138256026Y-127055702D01*
X138178005Y-126867344D01*
X138064737Y-126697826D01*
X137920574Y-126553663D01*
X137751056Y-126440395D01*
X137562698Y-126362374D01*
X137362739Y-126322600D01*
X137158861Y-126322600D01*
X136958902Y-126362374D01*
X136770544Y-126440395D01*
X136601026Y-126553663D01*
X136557089Y-126597600D01*
X131505002Y-126597600D01*
X131119003Y-126211602D01*
X131118999Y-126211597D01*
X125378604Y-120471203D01*
X125354801Y-120442199D01*
X125239076Y-120347226D01*
X125107047Y-120276654D01*
X124963786Y-120233197D01*
X124852133Y-120222200D01*
X124852122Y-120222200D01*
X124814800Y-120218524D01*
X124777478Y-120222200D01*
X123608402Y-120222200D01*
X122955000Y-119568799D01*
X122955000Y-119506661D01*
X122924586Y-119353757D01*
X122936000Y-119354881D01*
X122979469Y-119350600D01*
X122979477Y-119350600D01*
X123109490Y-119337795D01*
X123276313Y-119287189D01*
X123430059Y-119205011D01*
X123564817Y-119094417D01*
X123592534Y-119060644D01*
X124014029Y-118639149D01*
X124158102Y-118698826D01*
X124358061Y-118738600D01*
X124420199Y-118738600D01*
X125153386Y-119471788D01*
X125189999Y-119516401D01*
X125219001Y-119540202D01*
X126105201Y-120426403D01*
X126128999Y-120455401D01*
X126157997Y-120479199D01*
X126244724Y-120550374D01*
X126376753Y-120620946D01*
X126520014Y-120664403D01*
X126669000Y-120679077D01*
X126706333Y-120675400D01*
X136633289Y-120675400D01*
X136677226Y-120719337D01*
X136846744Y-120832605D01*
X137035102Y-120910626D01*
X137235061Y-120950400D01*
X137438939Y-120950400D01*
X137638898Y-120910626D01*
X137827256Y-120832605D01*
X137996774Y-120719337D01*
X138140937Y-120575174D01*
X138254205Y-120405656D01*
X138286503Y-120327681D01*
X149623924Y-120327681D01*
X149984112Y-120817348D01*
X150648082Y-121177649D01*
X151369585Y-121401494D01*
X152120895Y-121480280D01*
X152873138Y-121410978D01*
X153597408Y-121196252D01*
X154265870Y-120844355D01*
X154306288Y-120817348D01*
X154666476Y-120327681D01*
X152145200Y-117806405D01*
X149623924Y-120327681D01*
X138286503Y-120327681D01*
X138332226Y-120217298D01*
X138372000Y-120017339D01*
X138372000Y-119813461D01*
X138332226Y-119613502D01*
X138254205Y-119425144D01*
X138140937Y-119255626D01*
X137996774Y-119111463D01*
X137827256Y-118998195D01*
X137638898Y-118920174D01*
X137438939Y-118880400D01*
X137235061Y-118880400D01*
X137035102Y-118920174D01*
X136846744Y-118998195D01*
X136677226Y-119111463D01*
X136633289Y-119155400D01*
X127172050Y-119155400D01*
X127236256Y-119128805D01*
X127405774Y-119015537D01*
X127549937Y-118871374D01*
X127663205Y-118701856D01*
X127741226Y-118513498D01*
X127781000Y-118313539D01*
X127781000Y-118109661D01*
X127741226Y-117909702D01*
X127663205Y-117721344D01*
X127583793Y-117602495D01*
X148291720Y-117602495D01*
X148361022Y-118354738D01*
X148575748Y-119079008D01*
X148927645Y-119747470D01*
X148954652Y-119787888D01*
X149444319Y-120148076D01*
X151965595Y-117626800D01*
X152324805Y-117626800D01*
X154846081Y-120148076D01*
X155335748Y-119787888D01*
X155696049Y-119123918D01*
X155919894Y-118402415D01*
X155998680Y-117651105D01*
X155929378Y-116898862D01*
X155714652Y-116174592D01*
X155362755Y-115506130D01*
X155335748Y-115465712D01*
X154846081Y-115105524D01*
X152324805Y-117626800D01*
X151965595Y-117626800D01*
X149444319Y-115105524D01*
X148954652Y-115465712D01*
X148594351Y-116129682D01*
X148370506Y-116851185D01*
X148291720Y-117602495D01*
X127583793Y-117602495D01*
X127549937Y-117551826D01*
X127405774Y-117407663D01*
X127236256Y-117294395D01*
X127047898Y-117216374D01*
X126991044Y-117205065D01*
X125624534Y-115838556D01*
X125596817Y-115804783D01*
X125462059Y-115694189D01*
X125308313Y-115612011D01*
X125141490Y-115561405D01*
X125011477Y-115548600D01*
X125011469Y-115548600D01*
X124968000Y-115544319D01*
X124924531Y-115548600D01*
X124249465Y-115548600D01*
X124205999Y-115544319D01*
X124162533Y-115548600D01*
X124162523Y-115548600D01*
X124032510Y-115561405D01*
X123865687Y-115612011D01*
X123711941Y-115694189D01*
X123577183Y-115804783D01*
X123549466Y-115838556D01*
X122848952Y-116539070D01*
X122815184Y-116566783D01*
X122787471Y-116600551D01*
X122787468Y-116600554D01*
X122742294Y-116655599D01*
X122704590Y-116701541D01*
X122622412Y-116855287D01*
X122571805Y-117022110D01*
X122559000Y-117152123D01*
X122559000Y-117152131D01*
X122554719Y-117195600D01*
X122559000Y-117239069D01*
X122559000Y-117580600D01*
X119501700Y-117580600D01*
X119501700Y-114925919D01*
X149623924Y-114925919D01*
X152145200Y-117447195D01*
X154666476Y-114925919D01*
X154306288Y-114436252D01*
X153642318Y-114075951D01*
X152920815Y-113852106D01*
X152169505Y-113773320D01*
X151417262Y-113842622D01*
X150692992Y-114057348D01*
X150024530Y-114409245D01*
X149984112Y-114436252D01*
X149623924Y-114925919D01*
X119501700Y-114925919D01*
X119501700Y-108672265D01*
X136614000Y-108672265D01*
X136614000Y-108954935D01*
X136669147Y-109232174D01*
X136777320Y-109493327D01*
X136934363Y-109728359D01*
X137134241Y-109928237D01*
X137369273Y-110085280D01*
X137630426Y-110193453D01*
X137907665Y-110248600D01*
X138190335Y-110248600D01*
X138467574Y-110193453D01*
X138728727Y-110085280D01*
X138963759Y-109928237D01*
X139163637Y-109728359D01*
X139320680Y-109493327D01*
X139428853Y-109232174D01*
X139484000Y-108954935D01*
X139484000Y-108672265D01*
X139428853Y-108395026D01*
X139320680Y-108133873D01*
X139163637Y-107898841D01*
X138963759Y-107698963D01*
X138728727Y-107541920D01*
X138467574Y-107433747D01*
X138190335Y-107378600D01*
X137907665Y-107378600D01*
X137630426Y-107433747D01*
X137369273Y-107541920D01*
X137134241Y-107698963D01*
X136934363Y-107898841D01*
X136777320Y-108133873D01*
X136669147Y-108395026D01*
X136614000Y-108672265D01*
X119501700Y-108672265D01*
X119501700Y-107140361D01*
X158601820Y-107140361D01*
X158601820Y-107344239D01*
X158641594Y-107544198D01*
X158719615Y-107732556D01*
X158832883Y-107902074D01*
X158977046Y-108046237D01*
X159146564Y-108159505D01*
X159334922Y-108237526D01*
X159534881Y-108277300D01*
X159738759Y-108277300D01*
X159938718Y-108237526D01*
X160127076Y-108159505D01*
X160296594Y-108046237D01*
X160440757Y-107902074D01*
X160554025Y-107732556D01*
X160632046Y-107544198D01*
X160671820Y-107344239D01*
X160671820Y-107140361D01*
X160632046Y-106940402D01*
X160554025Y-106752044D01*
X160440757Y-106582526D01*
X160296594Y-106438363D01*
X160127076Y-106325095D01*
X159938718Y-106247074D01*
X159738759Y-106207300D01*
X159534881Y-106207300D01*
X159334922Y-106247074D01*
X159146564Y-106325095D01*
X158977046Y-106438363D01*
X158832883Y-106582526D01*
X158719615Y-106752044D01*
X158641594Y-106940402D01*
X158601820Y-107140361D01*
X119501700Y-107140361D01*
X119501700Y-107064754D01*
X119533905Y-107016556D01*
X119611926Y-106828198D01*
X119651700Y-106628239D01*
X119651700Y-106424361D01*
X119611926Y-106224402D01*
X119533905Y-106036044D01*
X119420637Y-105866526D01*
X119276474Y-105722363D01*
X119106956Y-105609095D01*
X118918598Y-105531074D01*
X118718639Y-105491300D01*
X118514761Y-105491300D01*
X118314802Y-105531074D01*
X118126444Y-105609095D01*
X117956926Y-105722363D01*
X117812763Y-105866526D01*
X117699495Y-106036044D01*
X117621474Y-106224402D01*
X117581700Y-106424361D01*
X113493563Y-106424361D01*
X110234000Y-103164799D01*
X110234000Y-94531311D01*
X110277937Y-94487374D01*
X110391205Y-94317856D01*
X110469226Y-94129498D01*
X110509000Y-93929539D01*
X110509000Y-93725661D01*
X110469226Y-93525702D01*
X110391205Y-93337344D01*
X110277937Y-93167826D01*
X110133774Y-93023663D01*
X109964256Y-92910395D01*
X109775898Y-92832374D01*
X109575939Y-92792600D01*
X109372061Y-92792600D01*
X109172102Y-92832374D01*
X108983744Y-92910395D01*
X108814226Y-93023663D01*
X108670063Y-93167826D01*
X108556795Y-93337344D01*
X108478774Y-93525702D01*
X108439000Y-93725661D01*
X108439000Y-93929539D01*
X108478774Y-94129498D01*
X108556795Y-94317856D01*
X108670063Y-94487374D01*
X108714000Y-94531311D01*
X108714000Y-95332600D01*
X108610061Y-95332600D01*
X108410102Y-95372374D01*
X108221744Y-95450395D01*
X108052226Y-95563663D01*
X107908063Y-95707826D01*
X107794795Y-95877344D01*
X107716774Y-96065702D01*
X107677000Y-96265661D01*
X107677000Y-96469539D01*
X107716774Y-96669498D01*
X107794795Y-96857856D01*
X107908063Y-97027374D01*
X107952000Y-97071311D01*
X107952001Y-101136799D01*
X105211804Y-98396603D01*
X105188001Y-98367599D01*
X105072276Y-98272626D01*
X104940247Y-98202054D01*
X104796986Y-98158597D01*
X104685333Y-98147600D01*
X104685322Y-98147600D01*
X104648000Y-98143924D01*
X104610678Y-98147600D01*
X104589711Y-98147600D01*
X104545774Y-98103663D01*
X104376256Y-97990395D01*
X104187898Y-97912374D01*
X103987939Y-97872600D01*
X103784061Y-97872600D01*
X103584102Y-97912374D01*
X103395744Y-97990395D01*
X103226226Y-98103663D01*
X103082063Y-98247826D01*
X102968795Y-98417344D01*
X102890774Y-98605702D01*
X102851000Y-98805661D01*
X102851000Y-99009539D01*
X102890774Y-99209498D01*
X102968795Y-99397856D01*
X103082063Y-99567374D01*
X103226226Y-99711537D01*
X103395744Y-99824805D01*
X103584102Y-99902826D01*
X103784061Y-99942600D01*
X103987939Y-99942600D01*
X104187898Y-99902826D01*
X104376256Y-99824805D01*
X104444683Y-99779084D01*
X106713477Y-102047878D01*
X106697744Y-102054395D01*
X106528226Y-102167663D01*
X106384063Y-102311826D01*
X106270795Y-102481344D01*
X106192774Y-102669702D01*
X106153000Y-102869661D01*
X106153000Y-103073539D01*
X106192774Y-103273498D01*
X106270795Y-103461856D01*
X106276303Y-103470100D01*
X106124102Y-103500374D01*
X105935744Y-103578395D01*
X105766226Y-103691663D01*
X105622063Y-103835826D01*
X105508795Y-104005344D01*
X105430774Y-104193702D01*
X105391000Y-104393661D01*
X105391000Y-104597539D01*
X105430774Y-104797498D01*
X105508795Y-104985856D01*
X105622063Y-105155374D01*
X105666000Y-105199311D01*
X105666000Y-105623588D01*
X105646256Y-105610395D01*
X105457898Y-105532374D01*
X105257939Y-105492600D01*
X105054061Y-105492600D01*
X104854102Y-105532374D01*
X104665744Y-105610395D01*
X104496226Y-105723663D01*
X104352063Y-105867826D01*
X104238795Y-106037344D01*
X104160774Y-106225702D01*
X104121000Y-106425661D01*
X104121000Y-106629539D01*
X104160774Y-106829498D01*
X104238795Y-107017856D01*
X104352063Y-107187374D01*
X104396000Y-107231311D01*
X104396000Y-108032600D01*
X104292061Y-108032600D01*
X104092102Y-108072374D01*
X103903744Y-108150395D01*
X103734226Y-108263663D01*
X103590063Y-108407826D01*
X103476795Y-108577344D01*
X103398774Y-108765702D01*
X103359000Y-108965661D01*
X103359000Y-109169539D01*
X103398774Y-109369498D01*
X103476795Y-109557856D01*
X103590063Y-109727374D01*
X103634000Y-109771311D01*
X103634000Y-110572600D01*
X103567061Y-110572600D01*
X103367102Y-110612374D01*
X103178744Y-110690395D01*
X103016245Y-110798973D01*
X103027932Y-110770758D01*
X103085000Y-110483860D01*
X103085000Y-110191340D01*
X103027932Y-109904442D01*
X102915990Y-109634189D01*
X102753475Y-109390968D01*
X102546632Y-109184125D01*
X102372240Y-109067600D01*
X102546632Y-108951075D01*
X102753475Y-108744232D01*
X102915990Y-108501011D01*
X103027932Y-108230758D01*
X103085000Y-107943860D01*
X103085000Y-107651340D01*
X103027932Y-107364442D01*
X102915990Y-107094189D01*
X102753475Y-106850968D01*
X102546632Y-106644125D01*
X102372240Y-106527600D01*
X102546632Y-106411075D01*
X102753475Y-106204232D01*
X102915990Y-105961011D01*
X103027932Y-105690758D01*
X103067840Y-105490129D01*
X103080755Y-105495479D01*
X103280714Y-105535253D01*
X103484592Y-105535253D01*
X103684551Y-105495479D01*
X103872909Y-105417458D01*
X104042427Y-105304190D01*
X104186590Y-105160027D01*
X104299858Y-104990509D01*
X104377879Y-104802151D01*
X104417653Y-104602192D01*
X104417653Y-104398314D01*
X104377879Y-104198355D01*
X104299858Y-104009997D01*
X104186590Y-103840479D01*
X104042427Y-103696316D01*
X103872909Y-103583048D01*
X103684551Y-103505027D01*
X103484592Y-103465253D01*
X103280714Y-103465253D01*
X103080755Y-103505027D01*
X102991287Y-103542086D01*
X102925803Y-103476602D01*
X102902001Y-103447599D01*
X102899562Y-103445597D01*
X102915990Y-103421011D01*
X103027932Y-103150758D01*
X103085000Y-102863860D01*
X103085000Y-102571340D01*
X103027932Y-102284442D01*
X102956753Y-102112601D01*
X102968200Y-102112601D01*
X103871653Y-103016055D01*
X103871653Y-103078192D01*
X103911427Y-103278151D01*
X103989448Y-103466509D01*
X104102716Y-103636027D01*
X104246879Y-103780190D01*
X104416397Y-103893458D01*
X104604755Y-103971479D01*
X104804714Y-104011253D01*
X105008592Y-104011253D01*
X105208551Y-103971479D01*
X105396909Y-103893458D01*
X105566427Y-103780190D01*
X105710590Y-103636027D01*
X105823858Y-103466509D01*
X105901879Y-103278151D01*
X105941653Y-103078192D01*
X105941653Y-102874314D01*
X105901879Y-102674355D01*
X105823858Y-102485997D01*
X105710590Y-102316479D01*
X105566427Y-102172316D01*
X105396909Y-102059048D01*
X105208551Y-101981027D01*
X105008592Y-101941253D01*
X104946455Y-101941253D01*
X103846805Y-100841604D01*
X103823002Y-100812600D01*
X103707277Y-100717627D01*
X103575248Y-100647055D01*
X103431987Y-100603598D01*
X103320334Y-100592601D01*
X103320323Y-100592601D01*
X103283001Y-100588925D01*
X103245679Y-100592601D01*
X103031544Y-100592601D01*
X103085000Y-100323860D01*
X103085000Y-100031340D01*
X103027932Y-99744442D01*
X102915990Y-99474189D01*
X102753475Y-99230968D01*
X102546632Y-99024125D01*
X102372240Y-98907600D01*
X102546632Y-98791075D01*
X102753475Y-98584232D01*
X102915990Y-98341011D01*
X103027932Y-98070758D01*
X103085000Y-97783860D01*
X103085000Y-97491340D01*
X103027932Y-97204442D01*
X102915990Y-96934189D01*
X102753475Y-96690968D01*
X102546632Y-96484125D01*
X102372240Y-96367600D01*
X102546632Y-96251075D01*
X102753475Y-96044232D01*
X102915990Y-95801011D01*
X103027932Y-95530758D01*
X103085000Y-95243860D01*
X103085000Y-94951340D01*
X103027932Y-94664442D01*
X102915990Y-94394189D01*
X102753475Y-94150968D01*
X102546632Y-93944125D01*
X102372240Y-93827600D01*
X102546632Y-93711075D01*
X102753475Y-93504232D01*
X102915990Y-93261011D01*
X103027932Y-92990758D01*
X103085000Y-92703860D01*
X103085000Y-92411340D01*
X103027932Y-92124442D01*
X102915990Y-91854189D01*
X102753475Y-91610968D01*
X102546632Y-91404125D01*
X102364466Y-91282405D01*
X102481355Y-91212778D01*
X102697588Y-91017869D01*
X102871641Y-90784520D01*
X102996825Y-90521699D01*
X103041476Y-90374490D01*
X102920155Y-90144600D01*
X101727000Y-90144600D01*
X101727000Y-90164600D01*
X101473000Y-90164600D01*
X101473000Y-90144600D01*
X101453000Y-90144600D01*
X101453000Y-89890600D01*
X101473000Y-89890600D01*
X101473000Y-88696786D01*
X101727000Y-88696786D01*
X101727000Y-89890600D01*
X102920155Y-89890600D01*
X103041476Y-89660710D01*
X102996825Y-89513501D01*
X102871641Y-89250680D01*
X102697588Y-89017331D01*
X102481355Y-88822422D01*
X102231252Y-88673443D01*
X101956891Y-88576119D01*
X101727000Y-88696786D01*
X101473000Y-88696786D01*
X101243109Y-88576119D01*
X100968748Y-88673443D01*
X100718645Y-88822422D01*
X100522498Y-88999226D01*
X100499502Y-88923420D01*
X100440537Y-88813106D01*
X100361185Y-88716415D01*
X100264494Y-88637063D01*
X100154180Y-88578098D01*
X100034482Y-88541788D01*
X99910000Y-88529528D01*
X98210000Y-88529528D01*
X98085518Y-88541788D01*
X97965820Y-88578098D01*
X97855506Y-88637063D01*
X97758815Y-88716415D01*
X97679463Y-88813106D01*
X97620498Y-88923420D01*
X97584188Y-89043118D01*
X97571928Y-89167600D01*
X91347000Y-89167600D01*
X91347000Y-88479265D01*
X112738000Y-88479265D01*
X112738000Y-88761935D01*
X112793147Y-89039174D01*
X112901320Y-89300327D01*
X113038000Y-89504884D01*
X113038001Y-100499384D01*
X113028320Y-100513873D01*
X112920147Y-100775026D01*
X112865000Y-101052265D01*
X112865000Y-101334935D01*
X112920147Y-101612174D01*
X113028320Y-101873327D01*
X113185363Y-102108359D01*
X113385241Y-102308237D01*
X113620273Y-102465280D01*
X113881426Y-102573453D01*
X114158665Y-102628600D01*
X114441335Y-102628600D01*
X114718574Y-102573453D01*
X114979727Y-102465280D01*
X115214759Y-102308237D01*
X115414637Y-102108359D01*
X115431607Y-102082961D01*
X158601820Y-102082961D01*
X158601820Y-102286839D01*
X158641594Y-102486798D01*
X158719615Y-102675156D01*
X158832883Y-102844674D01*
X158977046Y-102988837D01*
X159146564Y-103102105D01*
X159334922Y-103180126D01*
X159534881Y-103219900D01*
X159738759Y-103219900D01*
X159938718Y-103180126D01*
X160127076Y-103102105D01*
X160296594Y-102988837D01*
X160440757Y-102844674D01*
X160554025Y-102675156D01*
X160632046Y-102486798D01*
X160671820Y-102286839D01*
X160671820Y-102082961D01*
X160632046Y-101883002D01*
X160554025Y-101694644D01*
X160440757Y-101525126D01*
X160296594Y-101380963D01*
X160127076Y-101267695D01*
X159938718Y-101189674D01*
X159738759Y-101149900D01*
X159534881Y-101149900D01*
X159334922Y-101189674D01*
X159146564Y-101267695D01*
X158977046Y-101380963D01*
X158832883Y-101525126D01*
X158719615Y-101694644D01*
X158641594Y-101883002D01*
X158601820Y-102082961D01*
X115431607Y-102082961D01*
X115571680Y-101873327D01*
X115679853Y-101612174D01*
X115735000Y-101334935D01*
X115735000Y-101052265D01*
X115679853Y-100775026D01*
X115571680Y-100513873D01*
X115414637Y-100278841D01*
X115308000Y-100172204D01*
X115308000Y-94521281D01*
X149623924Y-94521281D01*
X149984112Y-95010948D01*
X150648082Y-95371249D01*
X151369585Y-95595094D01*
X152120895Y-95673880D01*
X152873138Y-95604578D01*
X153597408Y-95389852D01*
X154265870Y-95037955D01*
X154306288Y-95010948D01*
X154666476Y-94521281D01*
X152145200Y-92000005D01*
X149623924Y-94521281D01*
X115308000Y-94521281D01*
X115308000Y-91796095D01*
X148291720Y-91796095D01*
X148361022Y-92548338D01*
X148575748Y-93272608D01*
X148927645Y-93941070D01*
X148954652Y-93981488D01*
X149444319Y-94341676D01*
X151965595Y-91820400D01*
X152324805Y-91820400D01*
X154846081Y-94341676D01*
X155335748Y-93981488D01*
X155696049Y-93317518D01*
X155919894Y-92596015D01*
X155998680Y-91844705D01*
X155929378Y-91092462D01*
X155714652Y-90368192D01*
X155362755Y-89699730D01*
X155335748Y-89659312D01*
X154846081Y-89299124D01*
X152324805Y-91820400D01*
X151965595Y-91820400D01*
X149444319Y-89299124D01*
X148954652Y-89659312D01*
X148594351Y-90323282D01*
X148370506Y-91044785D01*
X148291720Y-91796095D01*
X115308000Y-91796095D01*
X115308000Y-89504884D01*
X115444680Y-89300327D01*
X115519573Y-89119519D01*
X149623924Y-89119519D01*
X152145200Y-91640795D01*
X154666476Y-89119519D01*
X154306288Y-88629852D01*
X153642318Y-88269551D01*
X152920815Y-88045706D01*
X152169505Y-87966920D01*
X151417262Y-88036222D01*
X150692992Y-88250948D01*
X150024530Y-88602845D01*
X149984112Y-88629852D01*
X149623924Y-89119519D01*
X115519573Y-89119519D01*
X115552853Y-89039174D01*
X115608000Y-88761935D01*
X115608000Y-88479265D01*
X115552853Y-88202026D01*
X115444680Y-87940873D01*
X115287637Y-87705841D01*
X115087759Y-87505963D01*
X114852727Y-87348920D01*
X114591574Y-87240747D01*
X114314335Y-87185600D01*
X114031665Y-87185600D01*
X113754426Y-87240747D01*
X113493273Y-87348920D01*
X113258241Y-87505963D01*
X113058363Y-87705841D01*
X112901320Y-87940873D01*
X112793147Y-88202026D01*
X112738000Y-88479265D01*
X91347000Y-88479265D01*
X91347000Y-80345885D01*
X92385000Y-80345885D01*
X92385000Y-81101315D01*
X92532377Y-81842228D01*
X92821467Y-82540154D01*
X93241161Y-83168270D01*
X93775330Y-83702439D01*
X94403446Y-84122133D01*
X95101372Y-84411223D01*
X95842285Y-84558600D01*
X96597715Y-84558600D01*
X97338628Y-84411223D01*
X98036554Y-84122133D01*
X98664670Y-83702439D01*
X99198839Y-83168270D01*
X99618533Y-82540154D01*
X99907623Y-81842228D01*
X100055000Y-81101315D01*
X100055000Y-80345885D01*
X170385000Y-80345885D01*
X170385000Y-81101315D01*
X170532377Y-81842228D01*
X170821467Y-82540154D01*
X171241161Y-83168270D01*
X171775330Y-83702439D01*
X172403446Y-84122133D01*
X173101372Y-84411223D01*
X173842285Y-84558600D01*
X174597715Y-84558600D01*
X175338628Y-84411223D01*
X176036554Y-84122133D01*
X176664670Y-83702439D01*
X177198839Y-83168270D01*
X177618533Y-82540154D01*
X177907623Y-81842228D01*
X178055000Y-81101315D01*
X178055000Y-80345885D01*
X177907623Y-79604972D01*
X177618533Y-78907046D01*
X177198839Y-78278930D01*
X176664670Y-77744761D01*
X176036554Y-77325067D01*
X175338628Y-77035977D01*
X174597715Y-76888600D01*
X173842285Y-76888600D01*
X173101372Y-77035977D01*
X172403446Y-77325067D01*
X171775330Y-77744761D01*
X171241161Y-78278930D01*
X170821467Y-78907046D01*
X170532377Y-79604972D01*
X170385000Y-80345885D01*
X100055000Y-80345885D01*
X99907623Y-79604972D01*
X99618533Y-78907046D01*
X99198839Y-78278930D01*
X98664670Y-77744761D01*
X98036554Y-77325067D01*
X97338628Y-77035977D01*
X96597715Y-76888600D01*
X95842285Y-76888600D01*
X95101372Y-77035977D01*
X94403446Y-77325067D01*
X93775330Y-77744761D01*
X93241161Y-78278930D01*
X92821467Y-78907046D01*
X92532377Y-79604972D01*
X92385000Y-80345885D01*
X91347000Y-80345885D01*
X91347000Y-75850600D01*
X179093000Y-75850600D01*
X179093000Y-133596600D01*
G37*
G04 #@! TD.AperFunction*
M02*
