%FSLAX45Y45*%
G04 Gerber Fmt 4.5, Leading zero omitted, Abs format (unit mm)*
G04 Created by KiCad (PCBNEW (5.1.12)-1) date 2021-12-17 11:46:13*
%MOMM*%
%LPD*%
G01*
G04 APERTURE LIST*
%TA.AperFunction,Profile*%
%ADD10C,0.050000*%
%TD*%
%ADD11C,0.200000*%
%ADD12C,0.300000*%
G04 APERTURE END LIST*
D10*
X9022000Y-7472360D02*
X18022000Y-7472360D01*
X18022000Y-7472360D02*
X18022000Y-13472360D01*
X9022000Y-13472360D02*
X9022000Y-7472360D01*
X18022000Y-13472360D02*
X9022000Y-13472360D01*
D11*
X9695500Y-10099360D02*
X9735500Y-10139360D01*
X9735500Y-10099360D02*
X9695500Y-10139360D01*
X10318265Y-10430025D02*
X10358265Y-10470025D01*
X10358265Y-10430025D02*
X10318265Y-10470025D01*
X10346900Y-11140760D02*
X10386900Y-11180760D01*
X10386900Y-11140760D02*
X10346900Y-11180760D01*
X10368600Y-9870760D02*
X10408600Y-9910760D01*
X10408600Y-9870760D02*
X10368600Y-9910760D01*
X10419400Y-10886760D02*
X10459400Y-10926760D01*
X10459400Y-10886760D02*
X10419400Y-10926760D01*
X10419400Y-11597960D02*
X10459400Y-11637960D01*
X10459400Y-11597960D02*
X10419400Y-11637960D01*
X10419400Y-11699560D02*
X10459400Y-11739560D01*
X10459400Y-11699560D02*
X10419400Y-11739560D01*
X10470665Y-10277625D02*
X10510665Y-10317625D01*
X10510665Y-10277625D02*
X10470665Y-10317625D01*
X10495600Y-10632760D02*
X10535600Y-10672760D01*
X10535600Y-10632760D02*
X10495600Y-10672760D01*
X10622600Y-10429560D02*
X10662600Y-10469560D01*
X10662600Y-10429560D02*
X10622600Y-10469560D01*
X10698800Y-10277160D02*
X10738800Y-10317160D01*
X10738800Y-10277160D02*
X10698800Y-10317160D01*
X10724200Y-11496360D02*
X10764200Y-11536360D01*
X10764200Y-11496360D02*
X10724200Y-11536360D01*
X10851200Y-9616760D02*
X10891200Y-9656760D01*
X10891200Y-9616760D02*
X10851200Y-9656760D01*
X10902000Y-11343960D02*
X10942000Y-11383960D01*
X10942000Y-11343960D02*
X10902000Y-11383960D01*
X10927400Y-9362760D02*
X10967400Y-9402760D01*
X10967400Y-9362760D02*
X10927400Y-9402760D01*
X11130600Y-11115360D02*
X11170600Y-11155360D01*
X11170600Y-11115360D02*
X11130600Y-11155360D01*
X11156000Y-10162860D02*
X11196000Y-10202860D01*
X11196000Y-10162860D02*
X11156000Y-10202860D01*
X11156000Y-10353360D02*
X11196000Y-10393360D01*
X11196000Y-10353360D02*
X11156000Y-10393360D01*
X11283000Y-10988360D02*
X11323000Y-11028360D01*
X11323000Y-10988360D02*
X11283000Y-11028360D01*
X11359200Y-10912160D02*
X11399200Y-10952160D01*
X11399200Y-10912160D02*
X11359200Y-10952160D01*
X11410000Y-10353360D02*
X11450000Y-10393360D01*
X11450000Y-10353360D02*
X11410000Y-10393360D01*
X11415080Y-10642920D02*
X11455080Y-10682920D01*
X11455080Y-10642920D02*
X11415080Y-10682920D01*
X11435400Y-10835960D02*
X11475400Y-10875960D01*
X11475400Y-10835960D02*
X11435400Y-10875960D01*
X11562400Y-9362760D02*
X11602400Y-9402760D01*
X11602400Y-9362760D02*
X11562400Y-9402760D01*
X11562400Y-9616760D02*
X11602400Y-9656760D01*
X11602400Y-9616760D02*
X11562400Y-9656760D01*
X11714800Y-11013760D02*
X11754800Y-11053760D01*
X11754800Y-11013760D02*
X11714800Y-11053760D01*
X11714800Y-11191560D02*
X11754800Y-11231560D01*
X11754800Y-11191560D02*
X11714800Y-11231560D01*
X11841670Y-10632630D02*
X11881670Y-10672630D01*
X11881670Y-10632630D02*
X11841670Y-10672630D01*
X11854500Y-9362760D02*
X11894500Y-9402760D01*
X11894500Y-9362760D02*
X11854500Y-9402760D01*
X11854500Y-9616760D02*
X11894500Y-9656760D01*
X11894500Y-9616760D02*
X11854500Y-9656760D01*
X11968800Y-10073960D02*
X12008800Y-10113960D01*
X12008800Y-10073960D02*
X11968800Y-10113960D01*
X11994200Y-11013760D02*
X12034200Y-11053760D01*
X12034200Y-11013760D02*
X11994200Y-11053760D01*
X11994200Y-11191560D02*
X12034200Y-11231560D01*
X12034200Y-11191560D02*
X11994200Y-11231560D01*
X12070400Y-10200960D02*
X12110400Y-10240960D01*
X12110400Y-10200960D02*
X12070400Y-10240960D01*
X12146600Y-10073960D02*
X12186600Y-10113960D01*
X12186600Y-10073960D02*
X12146600Y-10113960D01*
X12172000Y-9362760D02*
X12212000Y-9402760D01*
X12212000Y-9362760D02*
X12172000Y-9402760D01*
X12172000Y-9616760D02*
X12212000Y-9656760D01*
X12212000Y-9616760D02*
X12172000Y-9656760D01*
X12172000Y-11940860D02*
X12212000Y-11980860D01*
X12212000Y-11940860D02*
X12172000Y-11980860D01*
X12299000Y-10353360D02*
X12339000Y-10393360D01*
X12339000Y-10353360D02*
X12299000Y-10393360D01*
X12299000Y-10607360D02*
X12339000Y-10647360D01*
X12339000Y-10607360D02*
X12299000Y-10647360D01*
X12299000Y-10861360D02*
X12339000Y-10901360D01*
X12339000Y-10861360D02*
X12299000Y-10901360D01*
X12426000Y-11750360D02*
X12466000Y-11790360D01*
X12466000Y-11750360D02*
X12426000Y-11790360D01*
X12553000Y-10353360D02*
X12593000Y-10393360D01*
X12593000Y-10353360D02*
X12553000Y-10393360D01*
X12553000Y-10607360D02*
X12593000Y-10647360D01*
X12593000Y-10607360D02*
X12553000Y-10647360D01*
X12553000Y-10852360D02*
X12593000Y-10892360D01*
X12593000Y-10852360D02*
X12553000Y-10892360D01*
X12654600Y-11801160D02*
X12694600Y-11841160D01*
X12694600Y-11801160D02*
X12654600Y-11841160D01*
X12702000Y-11352360D02*
X12742000Y-11392360D01*
X12742000Y-11352360D02*
X12702000Y-11392360D01*
X12807000Y-10353360D02*
X12847000Y-10393360D01*
X12847000Y-10353360D02*
X12807000Y-10393360D01*
X12807000Y-10607360D02*
X12847000Y-10647360D01*
X12847000Y-10607360D02*
X12807000Y-10647360D01*
X12807000Y-10861360D02*
X12847000Y-10901360D01*
X12847000Y-10861360D02*
X12807000Y-10901360D01*
X12997500Y-10162860D02*
X13037500Y-10202860D01*
X13037500Y-10162860D02*
X12997500Y-10202860D01*
X12997500Y-11051860D02*
X13037500Y-11091860D01*
X13037500Y-11051860D02*
X12997500Y-11091860D01*
X13188000Y-11648760D02*
X13228000Y-11688760D01*
X13228000Y-11648760D02*
X13188000Y-11688760D01*
X13442000Y-9464360D02*
X13482000Y-9504360D01*
X13482000Y-9464360D02*
X13442000Y-9504360D01*
X13645200Y-11039160D02*
X13685200Y-11079160D01*
X13685200Y-11039160D02*
X13645200Y-11079160D01*
X13694925Y-10049959D02*
X13734925Y-10089959D01*
X13734925Y-10049959D02*
X13694925Y-10089959D01*
X13706080Y-12715760D02*
X13746080Y-12755760D01*
X13746080Y-12715760D02*
X13706080Y-12755760D01*
X13713700Y-11971540D02*
X13753700Y-12011540D01*
X13753700Y-11971540D02*
X13713700Y-12011540D01*
X13797600Y-10708960D02*
X13837600Y-10748960D01*
X13837600Y-10708960D02*
X13797600Y-10748960D01*
X13832351Y-10049959D02*
X13872351Y-10089959D01*
X13872351Y-10049959D02*
X13832351Y-10089959D01*
X13969778Y-10049959D02*
X14009778Y-10089959D01*
X14009778Y-10049959D02*
X13969778Y-10089959D01*
X14092000Y-10587360D02*
X14132000Y-10627360D01*
X14132000Y-10587360D02*
X14092000Y-10627360D01*
X14093939Y-10322360D02*
X14133939Y-10362360D01*
X14133939Y-10322360D02*
X14093939Y-10362360D01*
X14107205Y-10049959D02*
X14147205Y-10089959D01*
X14147205Y-10049959D02*
X14107205Y-10089959D01*
X14232054Y-10322360D02*
X14272054Y-10362360D01*
X14272054Y-10322360D02*
X14232054Y-10362360D01*
X14244632Y-10049959D02*
X14284632Y-10089959D01*
X14284632Y-10049959D02*
X14244632Y-10089959D01*
X14356197Y-10669058D02*
X14396197Y-10709058D01*
X14396197Y-10669058D02*
X14356197Y-10709058D01*
X14370168Y-10322360D02*
X14410168Y-10362360D01*
X14410168Y-10322360D02*
X14370168Y-10362360D01*
X14382059Y-10049959D02*
X14422059Y-10089959D01*
X14422059Y-10049959D02*
X14382059Y-10089959D01*
X14508282Y-10322360D02*
X14548282Y-10362360D01*
X14548282Y-10322360D02*
X14508282Y-10362360D01*
X14519485Y-10049959D02*
X14559485Y-10089959D01*
X14559485Y-10049959D02*
X14519485Y-10089959D01*
X14581610Y-10630721D02*
X14621610Y-10670721D01*
X14621610Y-10630721D02*
X14581610Y-10670721D01*
X14646397Y-10322360D02*
X14686397Y-10362360D01*
X14686397Y-10322360D02*
X14646397Y-10362360D01*
X14656912Y-10049959D02*
X14696912Y-10089959D01*
X14696912Y-10049959D02*
X14656912Y-10089959D01*
X14720544Y-10630721D02*
X14760544Y-10670721D01*
X14760544Y-10630721D02*
X14720544Y-10670721D01*
X14784511Y-10322360D02*
X14824511Y-10362360D01*
X14824511Y-10322360D02*
X14784511Y-10362360D01*
X14844926Y-9861945D02*
X14884926Y-9901945D01*
X14884926Y-9861945D02*
X14844926Y-9901945D01*
X14887561Y-10219310D02*
X14927561Y-10259310D01*
X14927561Y-10219310D02*
X14887561Y-10259310D01*
X14938933Y-9767938D02*
X14978933Y-9807938D01*
X14978933Y-9767938D02*
X14938933Y-9807938D01*
X14990610Y-10116261D02*
X15030610Y-10156261D01*
X15030610Y-10116261D02*
X14990610Y-10156261D01*
X15093660Y-10013211D02*
X15133660Y-10053211D01*
X15133660Y-10013211D02*
X15093660Y-10053211D01*
X15126947Y-9579924D02*
X15166947Y-9619924D01*
X15166947Y-9579924D02*
X15126947Y-9619924D01*
X15196710Y-9910161D02*
X15236710Y-9950161D01*
X15236710Y-9910161D02*
X15196710Y-9950161D01*
X15362000Y-10442360D02*
X15402000Y-10482360D01*
X15402000Y-10442360D02*
X15362000Y-10482360D01*
X15397000Y-10122360D02*
X15437000Y-10162360D01*
X15437000Y-10122360D02*
X15397000Y-10162360D01*
X15431158Y-9777359D02*
X15471158Y-9817359D01*
X15471158Y-9777359D02*
X15431158Y-9817359D01*
X15569288Y-9777359D02*
X15609288Y-9817359D01*
X15609288Y-9777359D02*
X15569288Y-9817359D01*
X15621840Y-9477359D02*
X15661840Y-9517359D01*
X15661840Y-9477359D02*
X15621840Y-9517359D01*
X15707417Y-9777359D02*
X15747417Y-9817359D01*
X15747417Y-9777359D02*
X15707417Y-9817359D01*
X15754786Y-9477359D02*
X15794786Y-9517359D01*
X15794786Y-9477359D02*
X15754786Y-9517359D01*
X15845546Y-9777359D02*
X15885546Y-9817359D01*
X15885546Y-9777359D02*
X15845546Y-9817359D01*
X15887732Y-9477359D02*
X15927732Y-9517359D01*
X15927732Y-9477359D02*
X15887732Y-9517359D01*
X15983676Y-9777359D02*
X16023676Y-9817359D01*
X16023676Y-9777359D02*
X15983676Y-9817359D01*
X16020678Y-9477359D02*
X16060678Y-9517359D01*
X16060678Y-9477359D02*
X16020678Y-9517359D01*
X16121805Y-9777359D02*
X16161805Y-9817359D01*
X16161805Y-9777359D02*
X16121805Y-9817359D01*
X16153624Y-9477359D02*
X16193624Y-9517359D01*
X16193624Y-9477359D02*
X16153624Y-9517359D01*
X16248152Y-10082360D02*
X16288152Y-10122360D01*
X16288152Y-10082360D02*
X16248152Y-10122360D01*
X16259934Y-9777359D02*
X16299934Y-9817359D01*
X16299934Y-9777359D02*
X16259934Y-9817359D01*
X16286570Y-9477359D02*
X16326570Y-9517359D01*
X16326570Y-9477359D02*
X16286570Y-9517359D01*
X16310640Y-10731360D02*
X16350640Y-10771360D01*
X16350640Y-10731360D02*
X16310640Y-10771360D01*
X16419515Y-9477359D02*
X16459515Y-9517359D01*
X16459515Y-9477359D02*
X16419515Y-9517359D01*
X16466559Y-10731360D02*
X16506559Y-10771360D01*
X16506559Y-10731360D02*
X16466559Y-10771360D01*
X16492786Y-9895657D02*
X16532786Y-9935657D01*
X16532786Y-9895657D02*
X16492786Y-9935657D01*
X16552144Y-9481234D02*
X16592144Y-9521234D01*
X16592144Y-9481234D02*
X16552144Y-9521234D01*
X16567000Y-10312360D02*
X16607000Y-10352360D01*
X16607000Y-10312360D02*
X16567000Y-10352360D01*
X16573730Y-10004743D02*
X16613730Y-10044743D01*
X16613730Y-10004743D02*
X16573730Y-10044743D01*
X16577001Y-10142627D02*
X16617001Y-10182627D01*
X16617001Y-10142627D02*
X16577001Y-10182627D01*
X16622477Y-10731229D02*
X16662477Y-10771229D01*
X16662477Y-10731229D02*
X16622477Y-10771229D01*
X16656875Y-9559746D02*
X16696875Y-9599746D01*
X16696875Y-9559746D02*
X16656875Y-9599746D01*
X16750882Y-9653753D02*
X16790882Y-9693753D01*
X16790882Y-9653753D02*
X16750882Y-9693753D01*
X16828510Y-10573339D02*
X16868510Y-10613339D01*
X16868510Y-10573339D02*
X16828510Y-10613339D01*
X16844889Y-9747760D02*
X16884889Y-9787760D01*
X16884889Y-9747760D02*
X16844889Y-9787760D01*
X16977001Y-9964523D02*
X17017001Y-10004523D01*
X17017001Y-9964523D02*
X16977001Y-10004523D01*
X16977001Y-10097469D02*
X17017001Y-10137469D01*
X17017001Y-10097469D02*
X16977001Y-10137469D01*
X16977001Y-10230415D02*
X17017001Y-10270415D01*
X17017001Y-10230415D02*
X16977001Y-10270415D01*
X16977001Y-10363361D02*
X17017001Y-10403361D01*
X17017001Y-10363361D02*
X16977001Y-10403361D01*
X9407000Y-8072360D02*
G75*
G03*
X9407000Y-8072360I-25000J0D01*
G01*
X9407000Y-12872360D02*
G75*
G03*
X9407000Y-12872360I-25000J0D01*
G01*
X9477294Y-7902654D02*
G75*
G03*
X9477294Y-7902654I-25000J0D01*
G01*
X9477294Y-8242066D02*
G75*
G03*
X9477294Y-8242066I-25000J0D01*
G01*
X9477294Y-12702654D02*
G75*
G03*
X9477294Y-12702654I-25000J0D01*
G01*
X9477294Y-13042066D02*
G75*
G03*
X9477294Y-13042066I-25000J0D01*
G01*
X9647000Y-7832360D02*
G75*
G03*
X9647000Y-7832360I-25000J0D01*
G01*
X9647000Y-8312360D02*
G75*
G03*
X9647000Y-8312360I-25000J0D01*
G01*
X9647000Y-12632360D02*
G75*
G03*
X9647000Y-12632360I-25000J0D01*
G01*
X9647000Y-13112360D02*
G75*
G03*
X9647000Y-13112360I-25000J0D01*
G01*
X9816706Y-7902654D02*
G75*
G03*
X9816706Y-7902654I-25000J0D01*
G01*
X9816706Y-8242066D02*
G75*
G03*
X9816706Y-8242066I-25000J0D01*
G01*
X9816706Y-12702654D02*
G75*
G03*
X9816706Y-12702654I-25000J0D01*
G01*
X9816706Y-13042066D02*
G75*
G03*
X9816706Y-13042066I-25000J0D01*
G01*
X9887000Y-8072360D02*
G75*
G03*
X9887000Y-8072360I-25000J0D01*
G01*
X9887000Y-12872360D02*
G75*
G03*
X9887000Y-12872360I-25000J0D01*
G01*
X14999520Y-9182040D02*
G75*
G03*
X14999520Y-9182040I-25000J0D01*
G01*
X14999520Y-11762680D02*
G75*
G03*
X14999520Y-11762680I-25000J0D01*
G01*
X15069814Y-9012334D02*
G75*
G03*
X15069814Y-9012334I-25000J0D01*
G01*
X15069814Y-9351746D02*
G75*
G03*
X15069814Y-9351746I-25000J0D01*
G01*
X15069814Y-11592974D02*
G75*
G03*
X15069814Y-11592974I-25000J0D01*
G01*
X15069814Y-11932386D02*
G75*
G03*
X15069814Y-11932386I-25000J0D01*
G01*
X15239520Y-8942040D02*
G75*
G03*
X15239520Y-8942040I-25000J0D01*
G01*
X15239520Y-9422040D02*
G75*
G03*
X15239520Y-9422040I-25000J0D01*
G01*
X15239520Y-11522680D02*
G75*
G03*
X15239520Y-11522680I-25000J0D01*
G01*
X15239520Y-12002680D02*
G75*
G03*
X15239520Y-12002680I-25000J0D01*
G01*
X15409226Y-9012334D02*
G75*
G03*
X15409226Y-9012334I-25000J0D01*
G01*
X15409226Y-9351746D02*
G75*
G03*
X15409226Y-9351746I-25000J0D01*
G01*
X15409226Y-11592974D02*
G75*
G03*
X15409226Y-11592974I-25000J0D01*
G01*
X15409226Y-11932386D02*
G75*
G03*
X15409226Y-11932386I-25000J0D01*
G01*
X15479520Y-9182040D02*
G75*
G03*
X15479520Y-9182040I-25000J0D01*
G01*
X15479520Y-11762680D02*
G75*
G03*
X15479520Y-11762680I-25000J0D01*
G01*
X17207000Y-8072360D02*
G75*
G03*
X17207000Y-8072360I-25000J0D01*
G01*
X17207000Y-12872360D02*
G75*
G03*
X17207000Y-12872360I-25000J0D01*
G01*
X17277294Y-7902654D02*
G75*
G03*
X17277294Y-7902654I-25000J0D01*
G01*
X17277294Y-8242066D02*
G75*
G03*
X17277294Y-8242066I-25000J0D01*
G01*
X17277294Y-12702654D02*
G75*
G03*
X17277294Y-12702654I-25000J0D01*
G01*
X17277294Y-13042066D02*
G75*
G03*
X17277294Y-13042066I-25000J0D01*
G01*
X17447000Y-7832360D02*
G75*
G03*
X17447000Y-7832360I-25000J0D01*
G01*
X17447000Y-8312360D02*
G75*
G03*
X17447000Y-8312360I-25000J0D01*
G01*
X17447000Y-12632360D02*
G75*
G03*
X17447000Y-12632360I-25000J0D01*
G01*
X17447000Y-13112360D02*
G75*
G03*
X17447000Y-13112360I-25000J0D01*
G01*
X17616706Y-7902654D02*
G75*
G03*
X17616706Y-7902654I-25000J0D01*
G01*
X17616706Y-8242066D02*
G75*
G03*
X17616706Y-8242066I-25000J0D01*
G01*
X17616706Y-12702654D02*
G75*
G03*
X17616706Y-12702654I-25000J0D01*
G01*
X17616706Y-13042066D02*
G75*
G03*
X17616706Y-13042066I-25000J0D01*
G01*
X17687000Y-8072360D02*
G75*
G03*
X17687000Y-8072360I-25000J0D01*
G01*
X17687000Y-12872360D02*
G75*
G03*
X17687000Y-12872360I-25000J0D01*
G01*
X9472000Y-8582360D02*
X9472000Y-8662360D01*
X9432000Y-8622360D02*
X9512000Y-8622360D01*
X9622000Y-12032360D02*
X9622000Y-12112360D01*
X9582000Y-12072360D02*
X9662000Y-12072360D01*
X10622000Y-13032360D02*
X10622000Y-13112360D01*
X10582000Y-13072360D02*
X10662000Y-13072360D01*
X10722000Y-7832360D02*
X10722000Y-7912360D01*
X10682000Y-7872360D02*
X10762000Y-7872360D01*
X11417300Y-8822060D02*
X11417300Y-8902060D01*
X11377300Y-8862060D02*
X11457300Y-8862060D01*
X11430000Y-10079360D02*
X11430000Y-10159360D01*
X11390000Y-10119360D02*
X11470000Y-10119360D01*
X11972000Y-7832360D02*
X11972000Y-7912360D01*
X11932000Y-7872360D02*
X12012000Y-7872360D01*
X13222000Y-7832360D02*
X13222000Y-7912360D01*
X13182000Y-7872360D02*
X13262000Y-7872360D01*
X13722000Y-8582360D02*
X13722000Y-8662360D01*
X13682000Y-8622360D02*
X13762000Y-8622360D01*
X13804900Y-10841360D02*
X13804900Y-10921360D01*
X13764900Y-10881360D02*
X13844900Y-10881360D01*
X14222000Y-9332360D02*
X14222000Y-9412360D01*
X14182000Y-9372360D02*
X14262000Y-9372360D01*
X14472000Y-7832360D02*
X14472000Y-7912360D01*
X14432000Y-7872360D02*
X14512000Y-7872360D01*
X14472000Y-8582360D02*
X14472000Y-8662360D01*
X14432000Y-8622360D02*
X14512000Y-8622360D01*
X14472000Y-11582360D02*
X14472000Y-11662360D01*
X14432000Y-11622360D02*
X14512000Y-11622360D01*
X15222000Y-8582360D02*
X15222000Y-8662360D01*
X15182000Y-8622360D02*
X15262000Y-8622360D01*
X15295800Y-12873560D02*
X15295800Y-12953560D01*
X15255800Y-12913560D02*
X15335800Y-12913560D01*
X15867300Y-8593660D02*
X15867300Y-8673660D01*
X15827300Y-8633660D02*
X15907300Y-8633660D01*
X16122000Y-10932360D02*
X16122000Y-11012360D01*
X16082000Y-10972360D02*
X16162000Y-10972360D01*
X16622000Y-11932360D02*
X16622000Y-12012360D01*
X16582000Y-11972360D02*
X16662000Y-11972360D01*
X17422000Y-8932360D02*
X17422000Y-9012360D01*
X17382000Y-8972360D02*
X17462000Y-8972360D01*
X17422000Y-10032360D02*
X17422000Y-10112360D01*
X17382000Y-10072360D02*
X17462000Y-10072360D01*
X17422000Y-10932360D02*
X17422000Y-11012360D01*
X17382000Y-10972360D02*
X17462000Y-10972360D01*
X9941356Y-9037116D02*
X9941356Y-8966404D01*
X9870644Y-8966404D01*
X9870644Y-9037116D01*
X9941356Y-9037116D01*
X9941356Y-9291116D02*
X9941356Y-9220404D01*
X9870644Y-9220404D01*
X9870644Y-9291116D01*
X9941356Y-9291116D01*
X9941356Y-9545116D02*
X9941356Y-9474404D01*
X9870644Y-9474404D01*
X9870644Y-9545116D01*
X9941356Y-9545116D01*
X9941356Y-9799116D02*
X9941356Y-9728404D01*
X9870644Y-9728404D01*
X9870644Y-9799116D01*
X9941356Y-9799116D01*
X9941356Y-10053116D02*
X9941356Y-9982404D01*
X9870644Y-9982404D01*
X9870644Y-10053116D01*
X9941356Y-10053116D01*
X9941356Y-10307116D02*
X9941356Y-10236404D01*
X9870644Y-10236404D01*
X9870644Y-10307116D01*
X9941356Y-10307116D01*
X9941356Y-10561116D02*
X9941356Y-10490404D01*
X9870644Y-10490404D01*
X9870644Y-10561116D01*
X9941356Y-10561116D01*
X9941356Y-10815116D02*
X9941356Y-10744404D01*
X9870644Y-10744404D01*
X9870644Y-10815116D01*
X9941356Y-10815116D01*
X9941356Y-11069116D02*
X9941356Y-10998404D01*
X9870644Y-10998404D01*
X9870644Y-11069116D01*
X9941356Y-11069116D01*
X9941356Y-11323116D02*
X9941356Y-11252404D01*
X9870644Y-11252404D01*
X9870644Y-11323116D01*
X9941356Y-11323116D01*
X9941356Y-11577116D02*
X9941356Y-11506404D01*
X9870644Y-11506404D01*
X9870644Y-11577116D01*
X9941356Y-11577116D01*
X9941356Y-11831116D02*
X9941356Y-11760404D01*
X9870644Y-11760404D01*
X9870644Y-11831116D01*
X9941356Y-11831116D01*
X10195356Y-9037116D02*
X10195356Y-8966404D01*
X10124644Y-8966404D01*
X10124644Y-9037116D01*
X10195356Y-9037116D01*
X10195356Y-9291116D02*
X10195356Y-9220404D01*
X10124644Y-9220404D01*
X10124644Y-9291116D01*
X10195356Y-9291116D01*
X10195356Y-9545116D02*
X10195356Y-9474404D01*
X10124644Y-9474404D01*
X10124644Y-9545116D01*
X10195356Y-9545116D01*
X10195356Y-9799116D02*
X10195356Y-9728404D01*
X10124644Y-9728404D01*
X10124644Y-9799116D01*
X10195356Y-9799116D01*
X10195356Y-10053116D02*
X10195356Y-9982404D01*
X10124644Y-9982404D01*
X10124644Y-10053116D01*
X10195356Y-10053116D01*
X10195356Y-10307116D02*
X10195356Y-10236404D01*
X10124644Y-10236404D01*
X10124644Y-10307116D01*
X10195356Y-10307116D01*
X10195356Y-10561116D02*
X10195356Y-10490404D01*
X10124644Y-10490404D01*
X10124644Y-10561116D01*
X10195356Y-10561116D01*
X10195356Y-10815116D02*
X10195356Y-10744404D01*
X10124644Y-10744404D01*
X10124644Y-10815116D01*
X10195356Y-10815116D01*
X10195356Y-11069116D02*
X10195356Y-10998404D01*
X10124644Y-10998404D01*
X10124644Y-11069116D01*
X10195356Y-11069116D01*
X10195356Y-11323116D02*
X10195356Y-11252404D01*
X10124644Y-11252404D01*
X10124644Y-11323116D01*
X10195356Y-11323116D01*
X10195356Y-11577116D02*
X10195356Y-11506404D01*
X10124644Y-11506404D01*
X10124644Y-11577116D01*
X10195356Y-11577116D01*
X10195356Y-11831116D02*
X10195356Y-11760404D01*
X10124644Y-11760404D01*
X10124644Y-11831116D01*
X10195356Y-11831116D01*
X9622000Y-8232360D02*
X9782000Y-8072360D01*
X9622000Y-7912360D01*
X9462000Y-8072360D01*
X9622000Y-8232360D01*
X9622000Y-13032360D02*
X9782000Y-12872360D01*
X9622000Y-12712360D01*
X9462000Y-12872360D01*
X9622000Y-13032360D01*
X15214520Y-9342040D02*
X15374520Y-9182040D01*
X15214520Y-9022040D01*
X15054520Y-9182040D01*
X15214520Y-9342040D01*
X15214520Y-11922680D02*
X15374520Y-11762680D01*
X15214520Y-11602680D01*
X15054520Y-11762680D01*
X15214520Y-11922680D01*
X17422000Y-8232360D02*
X17582000Y-8072360D01*
X17422000Y-7912360D01*
X17262000Y-8072360D01*
X17422000Y-8232360D01*
X17422000Y-13032360D02*
X17582000Y-12872360D01*
X17422000Y-12712360D01*
X17262000Y-12872360D01*
X17422000Y-13032360D01*
D12*
X9305928Y-13940574D02*
X9305928Y-13640574D01*
X9377357Y-13640574D01*
X9420214Y-13654860D01*
X9448786Y-13683431D01*
X9463071Y-13712003D01*
X9477357Y-13769146D01*
X9477357Y-13812003D01*
X9463071Y-13869146D01*
X9448786Y-13897717D01*
X9420214Y-13926289D01*
X9377357Y-13940574D01*
X9305928Y-13940574D01*
X9605928Y-13940574D02*
X9605928Y-13740574D01*
X9605928Y-13797717D02*
X9620214Y-13769146D01*
X9634500Y-13754860D01*
X9663071Y-13740574D01*
X9691643Y-13740574D01*
X9791643Y-13940574D02*
X9791643Y-13740574D01*
X9791643Y-13640574D02*
X9777357Y-13654860D01*
X9791643Y-13669146D01*
X9805928Y-13654860D01*
X9791643Y-13640574D01*
X9791643Y-13669146D01*
X9977357Y-13940574D02*
X9948786Y-13926289D01*
X9934500Y-13897717D01*
X9934500Y-13640574D01*
X10134500Y-13940574D02*
X10105928Y-13926289D01*
X10091643Y-13897717D01*
X10091643Y-13640574D01*
X10477357Y-13940574D02*
X10477357Y-13640574D01*
X10577357Y-13854860D01*
X10677357Y-13640574D01*
X10677357Y-13940574D01*
X10948786Y-13940574D02*
X10948786Y-13783431D01*
X10934500Y-13754860D01*
X10905928Y-13740574D01*
X10848786Y-13740574D01*
X10820214Y-13754860D01*
X10948786Y-13926289D02*
X10920214Y-13940574D01*
X10848786Y-13940574D01*
X10820214Y-13926289D01*
X10805928Y-13897717D01*
X10805928Y-13869146D01*
X10820214Y-13840574D01*
X10848786Y-13826289D01*
X10920214Y-13826289D01*
X10948786Y-13812003D01*
X11091643Y-13740574D02*
X11091643Y-14040574D01*
X11091643Y-13754860D02*
X11120214Y-13740574D01*
X11177357Y-13740574D01*
X11205928Y-13754860D01*
X11220214Y-13769146D01*
X11234500Y-13797717D01*
X11234500Y-13883431D01*
X11220214Y-13912003D01*
X11205928Y-13926289D01*
X11177357Y-13940574D01*
X11120214Y-13940574D01*
X11091643Y-13926289D01*
X11363071Y-13912003D02*
X11377357Y-13926289D01*
X11363071Y-13940574D01*
X11348786Y-13926289D01*
X11363071Y-13912003D01*
X11363071Y-13940574D01*
X11363071Y-13754860D02*
X11377357Y-13769146D01*
X11363071Y-13783431D01*
X11348786Y-13769146D01*
X11363071Y-13754860D01*
X11363071Y-13783431D01*
X8979500Y-14414860D02*
X9019500Y-14454860D01*
X9019500Y-14414860D02*
X8979500Y-14454860D01*
X9363071Y-14270574D02*
X9391643Y-14270574D01*
X9420214Y-14284860D01*
X9434500Y-14299146D01*
X9448786Y-14327717D01*
X9463071Y-14384860D01*
X9463071Y-14456289D01*
X9448786Y-14513431D01*
X9434500Y-14542003D01*
X9420214Y-14556289D01*
X9391643Y-14570574D01*
X9363071Y-14570574D01*
X9334500Y-14556289D01*
X9320214Y-14542003D01*
X9305928Y-14513431D01*
X9291643Y-14456289D01*
X9291643Y-14384860D01*
X9305928Y-14327717D01*
X9320214Y-14299146D01*
X9334500Y-14284860D01*
X9363071Y-14270574D01*
X9591643Y-14542003D02*
X9605928Y-14556289D01*
X9591643Y-14570574D01*
X9577357Y-14556289D01*
X9591643Y-14542003D01*
X9591643Y-14570574D01*
X9863071Y-14370574D02*
X9863071Y-14570574D01*
X9791643Y-14256289D02*
X9720214Y-14470574D01*
X9905928Y-14470574D01*
X10077357Y-14270574D02*
X10105928Y-14270574D01*
X10134500Y-14284860D01*
X10148786Y-14299146D01*
X10163071Y-14327717D01*
X10177357Y-14384860D01*
X10177357Y-14456289D01*
X10163071Y-14513431D01*
X10148786Y-14542003D01*
X10134500Y-14556289D01*
X10105928Y-14570574D01*
X10077357Y-14570574D01*
X10048786Y-14556289D01*
X10034500Y-14542003D01*
X10020214Y-14513431D01*
X10005928Y-14456289D01*
X10005928Y-14384860D01*
X10020214Y-14327717D01*
X10034500Y-14299146D01*
X10048786Y-14284860D01*
X10077357Y-14270574D01*
X10363071Y-14270574D02*
X10391643Y-14270574D01*
X10420214Y-14284860D01*
X10434500Y-14299146D01*
X10448786Y-14327717D01*
X10463071Y-14384860D01*
X10463071Y-14456289D01*
X10448786Y-14513431D01*
X10434500Y-14542003D01*
X10420214Y-14556289D01*
X10391643Y-14570574D01*
X10363071Y-14570574D01*
X10334500Y-14556289D01*
X10320214Y-14542003D01*
X10305928Y-14513431D01*
X10291643Y-14456289D01*
X10291643Y-14384860D01*
X10305928Y-14327717D01*
X10320214Y-14299146D01*
X10334500Y-14284860D01*
X10363071Y-14270574D01*
X10591643Y-14570574D02*
X10591643Y-14370574D01*
X10591643Y-14399146D02*
X10605928Y-14384860D01*
X10634500Y-14370574D01*
X10677357Y-14370574D01*
X10705928Y-14384860D01*
X10720214Y-14413431D01*
X10720214Y-14570574D01*
X10720214Y-14413431D02*
X10734500Y-14384860D01*
X10763071Y-14370574D01*
X10805928Y-14370574D01*
X10834500Y-14384860D01*
X10848786Y-14413431D01*
X10848786Y-14570574D01*
X10991643Y-14570574D02*
X10991643Y-14370574D01*
X10991643Y-14399146D02*
X11005928Y-14384860D01*
X11034500Y-14370574D01*
X11077357Y-14370574D01*
X11105928Y-14384860D01*
X11120214Y-14413431D01*
X11120214Y-14570574D01*
X11120214Y-14413431D02*
X11134500Y-14384860D01*
X11163071Y-14370574D01*
X11205928Y-14370574D01*
X11234500Y-14384860D01*
X11248786Y-14413431D01*
X11248786Y-14570574D01*
X11834500Y-14256289D02*
X11577357Y-14642003D01*
X12220214Y-14270574D02*
X12248786Y-14270574D01*
X12277357Y-14284860D01*
X12291643Y-14299146D01*
X12305928Y-14327717D01*
X12320214Y-14384860D01*
X12320214Y-14456289D01*
X12305928Y-14513431D01*
X12291643Y-14542003D01*
X12277357Y-14556289D01*
X12248786Y-14570574D01*
X12220214Y-14570574D01*
X12191643Y-14556289D01*
X12177357Y-14542003D01*
X12163071Y-14513431D01*
X12148786Y-14456289D01*
X12148786Y-14384860D01*
X12163071Y-14327717D01*
X12177357Y-14299146D01*
X12191643Y-14284860D01*
X12220214Y-14270574D01*
X12448786Y-14542003D02*
X12463071Y-14556289D01*
X12448786Y-14570574D01*
X12434500Y-14556289D01*
X12448786Y-14542003D01*
X12448786Y-14570574D01*
X12648786Y-14270574D02*
X12677357Y-14270574D01*
X12705928Y-14284860D01*
X12720214Y-14299146D01*
X12734500Y-14327717D01*
X12748786Y-14384860D01*
X12748786Y-14456289D01*
X12734500Y-14513431D01*
X12720214Y-14542003D01*
X12705928Y-14556289D01*
X12677357Y-14570574D01*
X12648786Y-14570574D01*
X12620214Y-14556289D01*
X12605928Y-14542003D01*
X12591643Y-14513431D01*
X12577357Y-14456289D01*
X12577357Y-14384860D01*
X12591643Y-14327717D01*
X12605928Y-14299146D01*
X12620214Y-14284860D01*
X12648786Y-14270574D01*
X13034500Y-14570574D02*
X12863071Y-14570574D01*
X12948786Y-14570574D02*
X12948786Y-14270574D01*
X12920214Y-14313431D01*
X12891643Y-14342003D01*
X12863071Y-14356289D01*
X13305928Y-14270574D02*
X13163071Y-14270574D01*
X13148786Y-14413431D01*
X13163071Y-14399146D01*
X13191643Y-14384860D01*
X13263071Y-14384860D01*
X13291643Y-14399146D01*
X13305928Y-14413431D01*
X13320214Y-14442003D01*
X13320214Y-14513431D01*
X13305928Y-14542003D01*
X13291643Y-14556289D01*
X13263071Y-14570574D01*
X13191643Y-14570574D01*
X13163071Y-14556289D01*
X13148786Y-14542003D01*
X13420214Y-14270574D02*
X13620214Y-14270574D01*
X13491643Y-14570574D01*
X13720214Y-14270574D02*
X13720214Y-14327717D01*
X13834500Y-14270574D02*
X13834500Y-14327717D01*
X14277357Y-14684860D02*
X14263071Y-14670574D01*
X14234500Y-14627717D01*
X14220214Y-14599146D01*
X14205928Y-14556289D01*
X14191643Y-14484860D01*
X14191643Y-14427717D01*
X14205928Y-14356289D01*
X14220214Y-14313431D01*
X14234500Y-14284860D01*
X14263071Y-14242003D01*
X14277357Y-14227717D01*
X14548786Y-14570574D02*
X14377357Y-14570574D01*
X14463071Y-14570574D02*
X14463071Y-14270574D01*
X14434500Y-14313431D01*
X14405928Y-14342003D01*
X14377357Y-14356289D01*
X14834500Y-14570574D02*
X14663071Y-14570574D01*
X14748786Y-14570574D02*
X14748786Y-14270574D01*
X14720214Y-14313431D01*
X14691643Y-14342003D01*
X14663071Y-14356289D01*
X15091643Y-14270574D02*
X15034500Y-14270574D01*
X15005928Y-14284860D01*
X14991643Y-14299146D01*
X14963071Y-14342003D01*
X14948786Y-14399146D01*
X14948786Y-14513431D01*
X14963071Y-14542003D01*
X14977357Y-14556289D01*
X15005928Y-14570574D01*
X15063071Y-14570574D01*
X15091643Y-14556289D01*
X15105928Y-14542003D01*
X15120214Y-14513431D01*
X15120214Y-14442003D01*
X15105928Y-14413431D01*
X15091643Y-14399146D01*
X15063071Y-14384860D01*
X15005928Y-14384860D01*
X14977357Y-14399146D01*
X14963071Y-14413431D01*
X14948786Y-14442003D01*
X15477357Y-14570574D02*
X15477357Y-14270574D01*
X15605928Y-14570574D02*
X15605928Y-14413431D01*
X15591643Y-14384860D01*
X15563071Y-14370574D01*
X15520214Y-14370574D01*
X15491643Y-14384860D01*
X15477357Y-14399146D01*
X15791643Y-14570574D02*
X15763071Y-14556289D01*
X15748786Y-14542003D01*
X15734500Y-14513431D01*
X15734500Y-14427717D01*
X15748786Y-14399146D01*
X15763071Y-14384860D01*
X15791643Y-14370574D01*
X15834500Y-14370574D01*
X15863071Y-14384860D01*
X15877357Y-14399146D01*
X15891643Y-14427717D01*
X15891643Y-14513431D01*
X15877357Y-14542003D01*
X15863071Y-14556289D01*
X15834500Y-14570574D01*
X15791643Y-14570574D01*
X16063071Y-14570574D02*
X16034500Y-14556289D01*
X16020214Y-14527717D01*
X16020214Y-14270574D01*
X16291643Y-14556289D02*
X16263071Y-14570574D01*
X16205928Y-14570574D01*
X16177357Y-14556289D01*
X16163071Y-14527717D01*
X16163071Y-14413431D01*
X16177357Y-14384860D01*
X16205928Y-14370574D01*
X16263071Y-14370574D01*
X16291643Y-14384860D01*
X16305928Y-14413431D01*
X16305928Y-14442003D01*
X16163071Y-14470574D01*
X16420214Y-14556289D02*
X16448786Y-14570574D01*
X16505928Y-14570574D01*
X16534500Y-14556289D01*
X16548786Y-14527717D01*
X16548786Y-14513431D01*
X16534500Y-14484860D01*
X16505928Y-14470574D01*
X16463071Y-14470574D01*
X16434500Y-14456289D01*
X16420214Y-14427717D01*
X16420214Y-14413431D01*
X16434500Y-14384860D01*
X16463071Y-14370574D01*
X16505928Y-14370574D01*
X16534500Y-14384860D01*
X16648786Y-14684860D02*
X16663071Y-14670574D01*
X16691643Y-14627717D01*
X16705928Y-14599146D01*
X16720214Y-14556289D01*
X16734500Y-14484860D01*
X16734500Y-14427717D01*
X16720214Y-14356289D01*
X16705928Y-14313431D01*
X16691643Y-14284860D01*
X16663071Y-14242003D01*
X16648786Y-14227717D01*
X9019500Y-14830860D02*
G75*
G03*
X9019500Y-14830860I-25000J0D01*
G01*
X9363071Y-14666574D02*
X9391643Y-14666574D01*
X9420214Y-14680860D01*
X9434500Y-14695146D01*
X9448786Y-14723717D01*
X9463071Y-14780860D01*
X9463071Y-14852289D01*
X9448786Y-14909431D01*
X9434500Y-14938003D01*
X9420214Y-14952289D01*
X9391643Y-14966574D01*
X9363071Y-14966574D01*
X9334500Y-14952289D01*
X9320214Y-14938003D01*
X9305928Y-14909431D01*
X9291643Y-14852289D01*
X9291643Y-14780860D01*
X9305928Y-14723717D01*
X9320214Y-14695146D01*
X9334500Y-14680860D01*
X9363071Y-14666574D01*
X9591643Y-14938003D02*
X9605928Y-14952289D01*
X9591643Y-14966574D01*
X9577357Y-14952289D01*
X9591643Y-14938003D01*
X9591643Y-14966574D01*
X9877357Y-14666574D02*
X9734500Y-14666574D01*
X9720214Y-14809431D01*
X9734500Y-14795146D01*
X9763071Y-14780860D01*
X9834500Y-14780860D01*
X9863071Y-14795146D01*
X9877357Y-14809431D01*
X9891643Y-14838003D01*
X9891643Y-14909431D01*
X9877357Y-14938003D01*
X9863071Y-14952289D01*
X9834500Y-14966574D01*
X9763071Y-14966574D01*
X9734500Y-14952289D01*
X9720214Y-14938003D01*
X10077357Y-14666574D02*
X10105928Y-14666574D01*
X10134500Y-14680860D01*
X10148786Y-14695146D01*
X10163071Y-14723717D01*
X10177357Y-14780860D01*
X10177357Y-14852289D01*
X10163071Y-14909431D01*
X10148786Y-14938003D01*
X10134500Y-14952289D01*
X10105928Y-14966574D01*
X10077357Y-14966574D01*
X10048786Y-14952289D01*
X10034500Y-14938003D01*
X10020214Y-14909431D01*
X10005928Y-14852289D01*
X10005928Y-14780860D01*
X10020214Y-14723717D01*
X10034500Y-14695146D01*
X10048786Y-14680860D01*
X10077357Y-14666574D01*
X10363071Y-14666574D02*
X10391643Y-14666574D01*
X10420214Y-14680860D01*
X10434500Y-14695146D01*
X10448786Y-14723717D01*
X10463071Y-14780860D01*
X10463071Y-14852289D01*
X10448786Y-14909431D01*
X10434500Y-14938003D01*
X10420214Y-14952289D01*
X10391643Y-14966574D01*
X10363071Y-14966574D01*
X10334500Y-14952289D01*
X10320214Y-14938003D01*
X10305928Y-14909431D01*
X10291643Y-14852289D01*
X10291643Y-14780860D01*
X10305928Y-14723717D01*
X10320214Y-14695146D01*
X10334500Y-14680860D01*
X10363071Y-14666574D01*
X10591643Y-14966574D02*
X10591643Y-14766574D01*
X10591643Y-14795146D02*
X10605928Y-14780860D01*
X10634500Y-14766574D01*
X10677357Y-14766574D01*
X10705928Y-14780860D01*
X10720214Y-14809431D01*
X10720214Y-14966574D01*
X10720214Y-14809431D02*
X10734500Y-14780860D01*
X10763071Y-14766574D01*
X10805928Y-14766574D01*
X10834500Y-14780860D01*
X10848786Y-14809431D01*
X10848786Y-14966574D01*
X10991643Y-14966574D02*
X10991643Y-14766574D01*
X10991643Y-14795146D02*
X11005928Y-14780860D01*
X11034500Y-14766574D01*
X11077357Y-14766574D01*
X11105928Y-14780860D01*
X11120214Y-14809431D01*
X11120214Y-14966574D01*
X11120214Y-14809431D02*
X11134500Y-14780860D01*
X11163071Y-14766574D01*
X11205928Y-14766574D01*
X11234500Y-14780860D01*
X11248786Y-14809431D01*
X11248786Y-14966574D01*
X11834500Y-14652289D02*
X11577357Y-15038003D01*
X12220214Y-14666574D02*
X12248786Y-14666574D01*
X12277357Y-14680860D01*
X12291643Y-14695146D01*
X12305928Y-14723717D01*
X12320214Y-14780860D01*
X12320214Y-14852289D01*
X12305928Y-14909431D01*
X12291643Y-14938003D01*
X12277357Y-14952289D01*
X12248786Y-14966574D01*
X12220214Y-14966574D01*
X12191643Y-14952289D01*
X12177357Y-14938003D01*
X12163071Y-14909431D01*
X12148786Y-14852289D01*
X12148786Y-14780860D01*
X12163071Y-14723717D01*
X12177357Y-14695146D01*
X12191643Y-14680860D01*
X12220214Y-14666574D01*
X12448786Y-14938003D02*
X12463071Y-14952289D01*
X12448786Y-14966574D01*
X12434500Y-14952289D01*
X12448786Y-14938003D01*
X12448786Y-14966574D01*
X12648786Y-14666574D02*
X12677357Y-14666574D01*
X12705928Y-14680860D01*
X12720214Y-14695146D01*
X12734500Y-14723717D01*
X12748786Y-14780860D01*
X12748786Y-14852289D01*
X12734500Y-14909431D01*
X12720214Y-14938003D01*
X12705928Y-14952289D01*
X12677357Y-14966574D01*
X12648786Y-14966574D01*
X12620214Y-14952289D01*
X12605928Y-14938003D01*
X12591643Y-14909431D01*
X12577357Y-14852289D01*
X12577357Y-14780860D01*
X12591643Y-14723717D01*
X12605928Y-14695146D01*
X12620214Y-14680860D01*
X12648786Y-14666574D01*
X13034500Y-14966574D02*
X12863071Y-14966574D01*
X12948786Y-14966574D02*
X12948786Y-14666574D01*
X12920214Y-14709431D01*
X12891643Y-14738003D01*
X12863071Y-14752289D01*
X13177357Y-14966574D02*
X13234500Y-14966574D01*
X13263071Y-14952289D01*
X13277357Y-14938003D01*
X13305928Y-14895146D01*
X13320214Y-14838003D01*
X13320214Y-14723717D01*
X13305928Y-14695146D01*
X13291643Y-14680860D01*
X13263071Y-14666574D01*
X13205928Y-14666574D01*
X13177357Y-14680860D01*
X13163071Y-14695146D01*
X13148786Y-14723717D01*
X13148786Y-14795146D01*
X13163071Y-14823717D01*
X13177357Y-14838003D01*
X13205928Y-14852289D01*
X13263071Y-14852289D01*
X13291643Y-14838003D01*
X13305928Y-14823717D01*
X13320214Y-14795146D01*
X13420214Y-14666574D02*
X13620214Y-14666574D01*
X13491643Y-14966574D01*
X13720214Y-14666574D02*
X13720214Y-14723717D01*
X13834500Y-14666574D02*
X13834500Y-14723717D01*
X14277357Y-15080860D02*
X14263071Y-15066574D01*
X14234500Y-15023717D01*
X14220214Y-14995146D01*
X14205928Y-14952289D01*
X14191643Y-14880860D01*
X14191643Y-14823717D01*
X14205928Y-14752289D01*
X14220214Y-14709431D01*
X14234500Y-14680860D01*
X14263071Y-14638003D01*
X14277357Y-14623717D01*
X14520214Y-14766574D02*
X14520214Y-14966574D01*
X14448786Y-14652289D02*
X14377357Y-14866574D01*
X14563071Y-14866574D01*
X14720214Y-14795146D02*
X14691643Y-14780860D01*
X14677357Y-14766574D01*
X14663071Y-14738003D01*
X14663071Y-14723717D01*
X14677357Y-14695146D01*
X14691643Y-14680860D01*
X14720214Y-14666574D01*
X14777357Y-14666574D01*
X14805928Y-14680860D01*
X14820214Y-14695146D01*
X14834500Y-14723717D01*
X14834500Y-14738003D01*
X14820214Y-14766574D01*
X14805928Y-14780860D01*
X14777357Y-14795146D01*
X14720214Y-14795146D01*
X14691643Y-14809431D01*
X14677357Y-14823717D01*
X14663071Y-14852289D01*
X14663071Y-14909431D01*
X14677357Y-14938003D01*
X14691643Y-14952289D01*
X14720214Y-14966574D01*
X14777357Y-14966574D01*
X14805928Y-14952289D01*
X14820214Y-14938003D01*
X14834500Y-14909431D01*
X14834500Y-14852289D01*
X14820214Y-14823717D01*
X14805928Y-14809431D01*
X14777357Y-14795146D01*
X15191643Y-14966574D02*
X15191643Y-14666574D01*
X15320214Y-14966574D02*
X15320214Y-14809431D01*
X15305928Y-14780860D01*
X15277357Y-14766574D01*
X15234500Y-14766574D01*
X15205928Y-14780860D01*
X15191643Y-14795146D01*
X15505928Y-14966574D02*
X15477357Y-14952289D01*
X15463071Y-14938003D01*
X15448786Y-14909431D01*
X15448786Y-14823717D01*
X15463071Y-14795146D01*
X15477357Y-14780860D01*
X15505928Y-14766574D01*
X15548786Y-14766574D01*
X15577357Y-14780860D01*
X15591643Y-14795146D01*
X15605928Y-14823717D01*
X15605928Y-14909431D01*
X15591643Y-14938003D01*
X15577357Y-14952289D01*
X15548786Y-14966574D01*
X15505928Y-14966574D01*
X15777357Y-14966574D02*
X15748786Y-14952289D01*
X15734500Y-14923717D01*
X15734500Y-14666574D01*
X16005928Y-14952289D02*
X15977357Y-14966574D01*
X15920214Y-14966574D01*
X15891643Y-14952289D01*
X15877357Y-14923717D01*
X15877357Y-14809431D01*
X15891643Y-14780860D01*
X15920214Y-14766574D01*
X15977357Y-14766574D01*
X16005928Y-14780860D01*
X16020214Y-14809431D01*
X16020214Y-14838003D01*
X15877357Y-14866574D01*
X16134500Y-14952289D02*
X16163071Y-14966574D01*
X16220214Y-14966574D01*
X16248786Y-14952289D01*
X16263071Y-14923717D01*
X16263071Y-14909431D01*
X16248786Y-14880860D01*
X16220214Y-14866574D01*
X16177357Y-14866574D01*
X16148786Y-14852289D01*
X16134500Y-14823717D01*
X16134500Y-14809431D01*
X16148786Y-14780860D01*
X16177357Y-14766574D01*
X16220214Y-14766574D01*
X16248786Y-14780860D01*
X16363071Y-15080860D02*
X16377357Y-15066574D01*
X16405928Y-15023717D01*
X16420214Y-14995146D01*
X16434500Y-14952289D01*
X16448786Y-14880860D01*
X16448786Y-14823717D01*
X16434500Y-14752289D01*
X16420214Y-14709431D01*
X16405928Y-14680860D01*
X16377357Y-14638003D01*
X16363071Y-14623717D01*
X8979500Y-15186860D02*
X8979500Y-15266860D01*
X8939500Y-15226860D02*
X9019500Y-15226860D01*
X9363071Y-15062574D02*
X9391643Y-15062574D01*
X9420214Y-15076860D01*
X9434500Y-15091146D01*
X9448786Y-15119717D01*
X9463071Y-15176860D01*
X9463071Y-15248289D01*
X9448786Y-15305431D01*
X9434500Y-15334003D01*
X9420214Y-15348289D01*
X9391643Y-15362574D01*
X9363071Y-15362574D01*
X9334500Y-15348289D01*
X9320214Y-15334003D01*
X9305928Y-15305431D01*
X9291643Y-15248289D01*
X9291643Y-15176860D01*
X9305928Y-15119717D01*
X9320214Y-15091146D01*
X9334500Y-15076860D01*
X9363071Y-15062574D01*
X9591643Y-15334003D02*
X9605928Y-15348289D01*
X9591643Y-15362574D01*
X9577357Y-15348289D01*
X9591643Y-15334003D01*
X9591643Y-15362574D01*
X9777357Y-15191146D02*
X9748786Y-15176860D01*
X9734500Y-15162574D01*
X9720214Y-15134003D01*
X9720214Y-15119717D01*
X9734500Y-15091146D01*
X9748786Y-15076860D01*
X9777357Y-15062574D01*
X9834500Y-15062574D01*
X9863071Y-15076860D01*
X9877357Y-15091146D01*
X9891643Y-15119717D01*
X9891643Y-15134003D01*
X9877357Y-15162574D01*
X9863071Y-15176860D01*
X9834500Y-15191146D01*
X9777357Y-15191146D01*
X9748786Y-15205431D01*
X9734500Y-15219717D01*
X9720214Y-15248289D01*
X9720214Y-15305431D01*
X9734500Y-15334003D01*
X9748786Y-15348289D01*
X9777357Y-15362574D01*
X9834500Y-15362574D01*
X9863071Y-15348289D01*
X9877357Y-15334003D01*
X9891643Y-15305431D01*
X9891643Y-15248289D01*
X9877357Y-15219717D01*
X9863071Y-15205431D01*
X9834500Y-15191146D01*
X10077357Y-15062574D02*
X10105928Y-15062574D01*
X10134500Y-15076860D01*
X10148786Y-15091146D01*
X10163071Y-15119717D01*
X10177357Y-15176860D01*
X10177357Y-15248289D01*
X10163071Y-15305431D01*
X10148786Y-15334003D01*
X10134500Y-15348289D01*
X10105928Y-15362574D01*
X10077357Y-15362574D01*
X10048786Y-15348289D01*
X10034500Y-15334003D01*
X10020214Y-15305431D01*
X10005928Y-15248289D01*
X10005928Y-15176860D01*
X10020214Y-15119717D01*
X10034500Y-15091146D01*
X10048786Y-15076860D01*
X10077357Y-15062574D01*
X10363071Y-15062574D02*
X10391643Y-15062574D01*
X10420214Y-15076860D01*
X10434500Y-15091146D01*
X10448786Y-15119717D01*
X10463071Y-15176860D01*
X10463071Y-15248289D01*
X10448786Y-15305431D01*
X10434500Y-15334003D01*
X10420214Y-15348289D01*
X10391643Y-15362574D01*
X10363071Y-15362574D01*
X10334500Y-15348289D01*
X10320214Y-15334003D01*
X10305928Y-15305431D01*
X10291643Y-15248289D01*
X10291643Y-15176860D01*
X10305928Y-15119717D01*
X10320214Y-15091146D01*
X10334500Y-15076860D01*
X10363071Y-15062574D01*
X10591643Y-15362574D02*
X10591643Y-15162574D01*
X10591643Y-15191146D02*
X10605928Y-15176860D01*
X10634500Y-15162574D01*
X10677357Y-15162574D01*
X10705928Y-15176860D01*
X10720214Y-15205431D01*
X10720214Y-15362574D01*
X10720214Y-15205431D02*
X10734500Y-15176860D01*
X10763071Y-15162574D01*
X10805928Y-15162574D01*
X10834500Y-15176860D01*
X10848786Y-15205431D01*
X10848786Y-15362574D01*
X10991643Y-15362574D02*
X10991643Y-15162574D01*
X10991643Y-15191146D02*
X11005928Y-15176860D01*
X11034500Y-15162574D01*
X11077357Y-15162574D01*
X11105928Y-15176860D01*
X11120214Y-15205431D01*
X11120214Y-15362574D01*
X11120214Y-15205431D02*
X11134500Y-15176860D01*
X11163071Y-15162574D01*
X11205928Y-15162574D01*
X11234500Y-15176860D01*
X11248786Y-15205431D01*
X11248786Y-15362574D01*
X11834500Y-15048289D02*
X11577357Y-15434003D01*
X12220214Y-15062574D02*
X12248786Y-15062574D01*
X12277357Y-15076860D01*
X12291643Y-15091146D01*
X12305928Y-15119717D01*
X12320214Y-15176860D01*
X12320214Y-15248289D01*
X12305928Y-15305431D01*
X12291643Y-15334003D01*
X12277357Y-15348289D01*
X12248786Y-15362574D01*
X12220214Y-15362574D01*
X12191643Y-15348289D01*
X12177357Y-15334003D01*
X12163071Y-15305431D01*
X12148786Y-15248289D01*
X12148786Y-15176860D01*
X12163071Y-15119717D01*
X12177357Y-15091146D01*
X12191643Y-15076860D01*
X12220214Y-15062574D01*
X12448786Y-15334003D02*
X12463071Y-15348289D01*
X12448786Y-15362574D01*
X12434500Y-15348289D01*
X12448786Y-15334003D01*
X12448786Y-15362574D01*
X12648786Y-15062574D02*
X12677357Y-15062574D01*
X12705928Y-15076860D01*
X12720214Y-15091146D01*
X12734500Y-15119717D01*
X12748786Y-15176860D01*
X12748786Y-15248289D01*
X12734500Y-15305431D01*
X12720214Y-15334003D01*
X12705928Y-15348289D01*
X12677357Y-15362574D01*
X12648786Y-15362574D01*
X12620214Y-15348289D01*
X12605928Y-15334003D01*
X12591643Y-15305431D01*
X12577357Y-15248289D01*
X12577357Y-15176860D01*
X12591643Y-15119717D01*
X12605928Y-15091146D01*
X12620214Y-15076860D01*
X12648786Y-15062574D01*
X12848786Y-15062574D02*
X13034500Y-15062574D01*
X12934500Y-15176860D01*
X12977357Y-15176860D01*
X13005928Y-15191146D01*
X13020214Y-15205431D01*
X13034500Y-15234003D01*
X13034500Y-15305431D01*
X13020214Y-15334003D01*
X13005928Y-15348289D01*
X12977357Y-15362574D01*
X12891643Y-15362574D01*
X12863071Y-15348289D01*
X12848786Y-15334003D01*
X13320214Y-15362574D02*
X13148786Y-15362574D01*
X13234500Y-15362574D02*
X13234500Y-15062574D01*
X13205928Y-15105431D01*
X13177357Y-15134003D01*
X13148786Y-15148289D01*
X13591643Y-15062574D02*
X13448786Y-15062574D01*
X13434500Y-15205431D01*
X13448786Y-15191146D01*
X13477357Y-15176860D01*
X13548786Y-15176860D01*
X13577357Y-15191146D01*
X13591643Y-15205431D01*
X13605928Y-15234003D01*
X13605928Y-15305431D01*
X13591643Y-15334003D01*
X13577357Y-15348289D01*
X13548786Y-15362574D01*
X13477357Y-15362574D01*
X13448786Y-15348289D01*
X13434500Y-15334003D01*
X13720214Y-15062574D02*
X13720214Y-15119717D01*
X13834500Y-15062574D02*
X13834500Y-15119717D01*
X14277357Y-15476860D02*
X14263071Y-15462574D01*
X14234500Y-15419717D01*
X14220214Y-15391146D01*
X14205928Y-15348289D01*
X14191643Y-15276860D01*
X14191643Y-15219717D01*
X14205928Y-15148289D01*
X14220214Y-15105431D01*
X14234500Y-15076860D01*
X14263071Y-15034003D01*
X14277357Y-15019717D01*
X14377357Y-15091146D02*
X14391643Y-15076860D01*
X14420214Y-15062574D01*
X14491643Y-15062574D01*
X14520214Y-15076860D01*
X14534500Y-15091146D01*
X14548786Y-15119717D01*
X14548786Y-15148289D01*
X14534500Y-15191146D01*
X14363071Y-15362574D01*
X14548786Y-15362574D01*
X14663071Y-15091146D02*
X14677357Y-15076860D01*
X14705928Y-15062574D01*
X14777357Y-15062574D01*
X14805928Y-15076860D01*
X14820214Y-15091146D01*
X14834500Y-15119717D01*
X14834500Y-15148289D01*
X14820214Y-15191146D01*
X14648786Y-15362574D01*
X14834500Y-15362574D01*
X15191643Y-15362574D02*
X15191643Y-15062574D01*
X15320214Y-15362574D02*
X15320214Y-15205431D01*
X15305928Y-15176860D01*
X15277357Y-15162574D01*
X15234500Y-15162574D01*
X15205928Y-15176860D01*
X15191643Y-15191146D01*
X15505928Y-15362574D02*
X15477357Y-15348289D01*
X15463071Y-15334003D01*
X15448786Y-15305431D01*
X15448786Y-15219717D01*
X15463071Y-15191146D01*
X15477357Y-15176860D01*
X15505928Y-15162574D01*
X15548786Y-15162574D01*
X15577357Y-15176860D01*
X15591643Y-15191146D01*
X15605928Y-15219717D01*
X15605928Y-15305431D01*
X15591643Y-15334003D01*
X15577357Y-15348289D01*
X15548786Y-15362574D01*
X15505928Y-15362574D01*
X15777357Y-15362574D02*
X15748786Y-15348289D01*
X15734500Y-15319717D01*
X15734500Y-15062574D01*
X16005928Y-15348289D02*
X15977357Y-15362574D01*
X15920214Y-15362574D01*
X15891643Y-15348289D01*
X15877357Y-15319717D01*
X15877357Y-15205431D01*
X15891643Y-15176860D01*
X15920214Y-15162574D01*
X15977357Y-15162574D01*
X16005928Y-15176860D01*
X16020214Y-15205431D01*
X16020214Y-15234003D01*
X15877357Y-15262574D01*
X16134500Y-15348289D02*
X16163071Y-15362574D01*
X16220214Y-15362574D01*
X16248786Y-15348289D01*
X16263071Y-15319717D01*
X16263071Y-15305431D01*
X16248786Y-15276860D01*
X16220214Y-15262574D01*
X16177357Y-15262574D01*
X16148786Y-15248289D01*
X16134500Y-15219717D01*
X16134500Y-15205431D01*
X16148786Y-15176860D01*
X16177357Y-15162574D01*
X16220214Y-15162574D01*
X16248786Y-15176860D01*
X16363071Y-15476860D02*
X16377357Y-15462574D01*
X16405928Y-15419717D01*
X16420214Y-15391146D01*
X16434500Y-15348289D01*
X16448786Y-15276860D01*
X16448786Y-15219717D01*
X16434500Y-15148289D01*
X16420214Y-15105431D01*
X16405928Y-15076860D01*
X16377357Y-15034003D01*
X16363071Y-15019717D01*
X9004856Y-15658216D02*
X9004856Y-15587504D01*
X8934144Y-15587504D01*
X8934144Y-15658216D01*
X9004856Y-15658216D01*
X9463071Y-15758574D02*
X9291643Y-15758574D01*
X9377357Y-15758574D02*
X9377357Y-15458574D01*
X9348786Y-15501431D01*
X9320214Y-15530003D01*
X9291643Y-15544289D01*
X9591643Y-15730003D02*
X9605928Y-15744289D01*
X9591643Y-15758574D01*
X9577357Y-15744289D01*
X9591643Y-15730003D01*
X9591643Y-15758574D01*
X9791643Y-15458574D02*
X9820214Y-15458574D01*
X9848786Y-15472860D01*
X9863071Y-15487146D01*
X9877357Y-15515717D01*
X9891643Y-15572860D01*
X9891643Y-15644289D01*
X9877357Y-15701431D01*
X9863071Y-15730003D01*
X9848786Y-15744289D01*
X9820214Y-15758574D01*
X9791643Y-15758574D01*
X9763071Y-15744289D01*
X9748786Y-15730003D01*
X9734500Y-15701431D01*
X9720214Y-15644289D01*
X9720214Y-15572860D01*
X9734500Y-15515717D01*
X9748786Y-15487146D01*
X9763071Y-15472860D01*
X9791643Y-15458574D01*
X10077357Y-15458574D02*
X10105928Y-15458574D01*
X10134500Y-15472860D01*
X10148786Y-15487146D01*
X10163071Y-15515717D01*
X10177357Y-15572860D01*
X10177357Y-15644289D01*
X10163071Y-15701431D01*
X10148786Y-15730003D01*
X10134500Y-15744289D01*
X10105928Y-15758574D01*
X10077357Y-15758574D01*
X10048786Y-15744289D01*
X10034500Y-15730003D01*
X10020214Y-15701431D01*
X10005928Y-15644289D01*
X10005928Y-15572860D01*
X10020214Y-15515717D01*
X10034500Y-15487146D01*
X10048786Y-15472860D01*
X10077357Y-15458574D01*
X10363071Y-15458574D02*
X10391643Y-15458574D01*
X10420214Y-15472860D01*
X10434500Y-15487146D01*
X10448786Y-15515717D01*
X10463071Y-15572860D01*
X10463071Y-15644289D01*
X10448786Y-15701431D01*
X10434500Y-15730003D01*
X10420214Y-15744289D01*
X10391643Y-15758574D01*
X10363071Y-15758574D01*
X10334500Y-15744289D01*
X10320214Y-15730003D01*
X10305928Y-15701431D01*
X10291643Y-15644289D01*
X10291643Y-15572860D01*
X10305928Y-15515717D01*
X10320214Y-15487146D01*
X10334500Y-15472860D01*
X10363071Y-15458574D01*
X10591643Y-15758574D02*
X10591643Y-15558574D01*
X10591643Y-15587146D02*
X10605928Y-15572860D01*
X10634500Y-15558574D01*
X10677357Y-15558574D01*
X10705928Y-15572860D01*
X10720214Y-15601431D01*
X10720214Y-15758574D01*
X10720214Y-15601431D02*
X10734500Y-15572860D01*
X10763071Y-15558574D01*
X10805928Y-15558574D01*
X10834500Y-15572860D01*
X10848786Y-15601431D01*
X10848786Y-15758574D01*
X10991643Y-15758574D02*
X10991643Y-15558574D01*
X10991643Y-15587146D02*
X11005928Y-15572860D01*
X11034500Y-15558574D01*
X11077357Y-15558574D01*
X11105928Y-15572860D01*
X11120214Y-15601431D01*
X11120214Y-15758574D01*
X11120214Y-15601431D02*
X11134500Y-15572860D01*
X11163071Y-15558574D01*
X11205928Y-15558574D01*
X11234500Y-15572860D01*
X11248786Y-15601431D01*
X11248786Y-15758574D01*
X11834500Y-15444289D02*
X11577357Y-15830003D01*
X12220214Y-15458574D02*
X12248786Y-15458574D01*
X12277357Y-15472860D01*
X12291643Y-15487146D01*
X12305928Y-15515717D01*
X12320214Y-15572860D01*
X12320214Y-15644289D01*
X12305928Y-15701431D01*
X12291643Y-15730003D01*
X12277357Y-15744289D01*
X12248786Y-15758574D01*
X12220214Y-15758574D01*
X12191643Y-15744289D01*
X12177357Y-15730003D01*
X12163071Y-15701431D01*
X12148786Y-15644289D01*
X12148786Y-15572860D01*
X12163071Y-15515717D01*
X12177357Y-15487146D01*
X12191643Y-15472860D01*
X12220214Y-15458574D01*
X12448786Y-15730003D02*
X12463071Y-15744289D01*
X12448786Y-15758574D01*
X12434500Y-15744289D01*
X12448786Y-15730003D01*
X12448786Y-15758574D01*
X12648786Y-15458574D02*
X12677357Y-15458574D01*
X12705928Y-15472860D01*
X12720214Y-15487146D01*
X12734500Y-15515717D01*
X12748786Y-15572860D01*
X12748786Y-15644289D01*
X12734500Y-15701431D01*
X12720214Y-15730003D01*
X12705928Y-15744289D01*
X12677357Y-15758574D01*
X12648786Y-15758574D01*
X12620214Y-15744289D01*
X12605928Y-15730003D01*
X12591643Y-15701431D01*
X12577357Y-15644289D01*
X12577357Y-15572860D01*
X12591643Y-15515717D01*
X12605928Y-15487146D01*
X12620214Y-15472860D01*
X12648786Y-15458574D01*
X12848786Y-15458574D02*
X13034500Y-15458574D01*
X12934500Y-15572860D01*
X12977357Y-15572860D01*
X13005928Y-15587146D01*
X13020214Y-15601431D01*
X13034500Y-15630003D01*
X13034500Y-15701431D01*
X13020214Y-15730003D01*
X13005928Y-15744289D01*
X12977357Y-15758574D01*
X12891643Y-15758574D01*
X12863071Y-15744289D01*
X12848786Y-15730003D01*
X13177357Y-15758574D02*
X13234500Y-15758574D01*
X13263071Y-15744289D01*
X13277357Y-15730003D01*
X13305928Y-15687146D01*
X13320214Y-15630003D01*
X13320214Y-15515717D01*
X13305928Y-15487146D01*
X13291643Y-15472860D01*
X13263071Y-15458574D01*
X13205928Y-15458574D01*
X13177357Y-15472860D01*
X13163071Y-15487146D01*
X13148786Y-15515717D01*
X13148786Y-15587146D01*
X13163071Y-15615717D01*
X13177357Y-15630003D01*
X13205928Y-15644289D01*
X13263071Y-15644289D01*
X13291643Y-15630003D01*
X13305928Y-15615717D01*
X13320214Y-15587146D01*
X13577357Y-15558574D02*
X13577357Y-15758574D01*
X13505928Y-15444289D02*
X13434500Y-15658574D01*
X13620214Y-15658574D01*
X13720214Y-15458574D02*
X13720214Y-15515717D01*
X13834500Y-15458574D02*
X13834500Y-15515717D01*
X14277357Y-15872860D02*
X14263071Y-15858574D01*
X14234500Y-15815717D01*
X14220214Y-15787146D01*
X14205928Y-15744289D01*
X14191643Y-15672860D01*
X14191643Y-15615717D01*
X14205928Y-15544289D01*
X14220214Y-15501431D01*
X14234500Y-15472860D01*
X14263071Y-15430003D01*
X14277357Y-15415717D01*
X14377357Y-15487146D02*
X14391643Y-15472860D01*
X14420214Y-15458574D01*
X14491643Y-15458574D01*
X14520214Y-15472860D01*
X14534500Y-15487146D01*
X14548786Y-15515717D01*
X14548786Y-15544289D01*
X14534500Y-15587146D01*
X14363071Y-15758574D01*
X14548786Y-15758574D01*
X14805928Y-15558574D02*
X14805928Y-15758574D01*
X14734500Y-15444289D02*
X14663071Y-15658574D01*
X14848786Y-15658574D01*
X15191643Y-15758574D02*
X15191643Y-15458574D01*
X15320214Y-15758574D02*
X15320214Y-15601431D01*
X15305928Y-15572860D01*
X15277357Y-15558574D01*
X15234500Y-15558574D01*
X15205928Y-15572860D01*
X15191643Y-15587146D01*
X15505928Y-15758574D02*
X15477357Y-15744289D01*
X15463071Y-15730003D01*
X15448786Y-15701431D01*
X15448786Y-15615717D01*
X15463071Y-15587146D01*
X15477357Y-15572860D01*
X15505928Y-15558574D01*
X15548786Y-15558574D01*
X15577357Y-15572860D01*
X15591643Y-15587146D01*
X15605928Y-15615717D01*
X15605928Y-15701431D01*
X15591643Y-15730003D01*
X15577357Y-15744289D01*
X15548786Y-15758574D01*
X15505928Y-15758574D01*
X15777357Y-15758574D02*
X15748786Y-15744289D01*
X15734500Y-15715717D01*
X15734500Y-15458574D01*
X16005928Y-15744289D02*
X15977357Y-15758574D01*
X15920214Y-15758574D01*
X15891643Y-15744289D01*
X15877357Y-15715717D01*
X15877357Y-15601431D01*
X15891643Y-15572860D01*
X15920214Y-15558574D01*
X15977357Y-15558574D01*
X16005928Y-15572860D01*
X16020214Y-15601431D01*
X16020214Y-15630003D01*
X15877357Y-15658574D01*
X16134500Y-15744289D02*
X16163071Y-15758574D01*
X16220214Y-15758574D01*
X16248786Y-15744289D01*
X16263071Y-15715717D01*
X16263071Y-15701431D01*
X16248786Y-15672860D01*
X16220214Y-15658574D01*
X16177357Y-15658574D01*
X16148786Y-15644289D01*
X16134500Y-15615717D01*
X16134500Y-15601431D01*
X16148786Y-15572860D01*
X16177357Y-15558574D01*
X16220214Y-15558574D01*
X16248786Y-15572860D01*
X16363071Y-15872860D02*
X16377357Y-15858574D01*
X16405928Y-15815717D01*
X16420214Y-15787146D01*
X16434500Y-15744289D01*
X16448786Y-15672860D01*
X16448786Y-15615717D01*
X16434500Y-15544289D01*
X16420214Y-15501431D01*
X16405928Y-15472860D01*
X16377357Y-15430003D01*
X16363071Y-15415717D01*
X8859500Y-16178860D02*
X9019500Y-16018860D01*
X8859500Y-15858860D01*
X8699500Y-16018860D01*
X8859500Y-16178860D01*
X9277357Y-15854574D02*
X9463071Y-15854574D01*
X9363071Y-15968860D01*
X9405928Y-15968860D01*
X9434500Y-15983146D01*
X9448786Y-15997431D01*
X9463071Y-16026003D01*
X9463071Y-16097431D01*
X9448786Y-16126003D01*
X9434500Y-16140289D01*
X9405928Y-16154574D01*
X9320214Y-16154574D01*
X9291643Y-16140289D01*
X9277357Y-16126003D01*
X9591643Y-16126003D02*
X9605928Y-16140289D01*
X9591643Y-16154574D01*
X9577357Y-16140289D01*
X9591643Y-16126003D01*
X9591643Y-16154574D01*
X9720214Y-15883146D02*
X9734500Y-15868860D01*
X9763071Y-15854574D01*
X9834500Y-15854574D01*
X9863071Y-15868860D01*
X9877357Y-15883146D01*
X9891643Y-15911717D01*
X9891643Y-15940289D01*
X9877357Y-15983146D01*
X9705928Y-16154574D01*
X9891643Y-16154574D01*
X10077357Y-15854574D02*
X10105928Y-15854574D01*
X10134500Y-15868860D01*
X10148786Y-15883146D01*
X10163071Y-15911717D01*
X10177357Y-15968860D01*
X10177357Y-16040289D01*
X10163071Y-16097431D01*
X10148786Y-16126003D01*
X10134500Y-16140289D01*
X10105928Y-16154574D01*
X10077357Y-16154574D01*
X10048786Y-16140289D01*
X10034500Y-16126003D01*
X10020214Y-16097431D01*
X10005928Y-16040289D01*
X10005928Y-15968860D01*
X10020214Y-15911717D01*
X10034500Y-15883146D01*
X10048786Y-15868860D01*
X10077357Y-15854574D01*
X10363071Y-15854574D02*
X10391643Y-15854574D01*
X10420214Y-15868860D01*
X10434500Y-15883146D01*
X10448786Y-15911717D01*
X10463071Y-15968860D01*
X10463071Y-16040289D01*
X10448786Y-16097431D01*
X10434500Y-16126003D01*
X10420214Y-16140289D01*
X10391643Y-16154574D01*
X10363071Y-16154574D01*
X10334500Y-16140289D01*
X10320214Y-16126003D01*
X10305928Y-16097431D01*
X10291643Y-16040289D01*
X10291643Y-15968860D01*
X10305928Y-15911717D01*
X10320214Y-15883146D01*
X10334500Y-15868860D01*
X10363071Y-15854574D01*
X10591643Y-16154574D02*
X10591643Y-15954574D01*
X10591643Y-15983146D02*
X10605928Y-15968860D01*
X10634500Y-15954574D01*
X10677357Y-15954574D01*
X10705928Y-15968860D01*
X10720214Y-15997431D01*
X10720214Y-16154574D01*
X10720214Y-15997431D02*
X10734500Y-15968860D01*
X10763071Y-15954574D01*
X10805928Y-15954574D01*
X10834500Y-15968860D01*
X10848786Y-15997431D01*
X10848786Y-16154574D01*
X10991643Y-16154574D02*
X10991643Y-15954574D01*
X10991643Y-15983146D02*
X11005928Y-15968860D01*
X11034500Y-15954574D01*
X11077357Y-15954574D01*
X11105928Y-15968860D01*
X11120214Y-15997431D01*
X11120214Y-16154574D01*
X11120214Y-15997431D02*
X11134500Y-15968860D01*
X11163071Y-15954574D01*
X11205928Y-15954574D01*
X11234500Y-15968860D01*
X11248786Y-15997431D01*
X11248786Y-16154574D01*
X11834500Y-15840289D02*
X11577357Y-16226003D01*
X12220214Y-15854574D02*
X12248786Y-15854574D01*
X12277357Y-15868860D01*
X12291643Y-15883146D01*
X12305928Y-15911717D01*
X12320214Y-15968860D01*
X12320214Y-16040289D01*
X12305928Y-16097431D01*
X12291643Y-16126003D01*
X12277357Y-16140289D01*
X12248786Y-16154574D01*
X12220214Y-16154574D01*
X12191643Y-16140289D01*
X12177357Y-16126003D01*
X12163071Y-16097431D01*
X12148786Y-16040289D01*
X12148786Y-15968860D01*
X12163071Y-15911717D01*
X12177357Y-15883146D01*
X12191643Y-15868860D01*
X12220214Y-15854574D01*
X12448786Y-16126003D02*
X12463071Y-16140289D01*
X12448786Y-16154574D01*
X12434500Y-16140289D01*
X12448786Y-16126003D01*
X12448786Y-16154574D01*
X12748786Y-16154574D02*
X12577357Y-16154574D01*
X12663071Y-16154574D02*
X12663071Y-15854574D01*
X12634500Y-15897431D01*
X12605928Y-15926003D01*
X12577357Y-15940289D01*
X12863071Y-15883146D02*
X12877357Y-15868860D01*
X12905928Y-15854574D01*
X12977357Y-15854574D01*
X13005928Y-15868860D01*
X13020214Y-15883146D01*
X13034500Y-15911717D01*
X13034500Y-15940289D01*
X13020214Y-15983146D01*
X12848786Y-16154574D01*
X13034500Y-16154574D01*
X13291643Y-15854574D02*
X13234500Y-15854574D01*
X13205928Y-15868860D01*
X13191643Y-15883146D01*
X13163071Y-15926003D01*
X13148786Y-15983146D01*
X13148786Y-16097431D01*
X13163071Y-16126003D01*
X13177357Y-16140289D01*
X13205928Y-16154574D01*
X13263071Y-16154574D01*
X13291643Y-16140289D01*
X13305928Y-16126003D01*
X13320214Y-16097431D01*
X13320214Y-16026003D01*
X13305928Y-15997431D01*
X13291643Y-15983146D01*
X13263071Y-15968860D01*
X13205928Y-15968860D01*
X13177357Y-15983146D01*
X13163071Y-15997431D01*
X13148786Y-16026003D01*
X13505928Y-15854574D02*
X13534500Y-15854574D01*
X13563071Y-15868860D01*
X13577357Y-15883146D01*
X13591643Y-15911717D01*
X13605928Y-15968860D01*
X13605928Y-16040289D01*
X13591643Y-16097431D01*
X13577357Y-16126003D01*
X13563071Y-16140289D01*
X13534500Y-16154574D01*
X13505928Y-16154574D01*
X13477357Y-16140289D01*
X13463071Y-16126003D01*
X13448786Y-16097431D01*
X13434500Y-16040289D01*
X13434500Y-15968860D01*
X13448786Y-15911717D01*
X13463071Y-15883146D01*
X13477357Y-15868860D01*
X13505928Y-15854574D01*
X13720214Y-15854574D02*
X13720214Y-15911717D01*
X13834500Y-15854574D02*
X13834500Y-15911717D01*
X14277357Y-16268860D02*
X14263071Y-16254574D01*
X14234500Y-16211717D01*
X14220214Y-16183146D01*
X14205928Y-16140289D01*
X14191643Y-16068860D01*
X14191643Y-16011717D01*
X14205928Y-15940289D01*
X14220214Y-15897431D01*
X14234500Y-15868860D01*
X14263071Y-15826003D01*
X14277357Y-15811717D01*
X14520214Y-15854574D02*
X14463071Y-15854574D01*
X14434500Y-15868860D01*
X14420214Y-15883146D01*
X14391643Y-15926003D01*
X14377357Y-15983146D01*
X14377357Y-16097431D01*
X14391643Y-16126003D01*
X14405928Y-16140289D01*
X14434500Y-16154574D01*
X14491643Y-16154574D01*
X14520214Y-16140289D01*
X14534500Y-16126003D01*
X14548786Y-16097431D01*
X14548786Y-16026003D01*
X14534500Y-15997431D01*
X14520214Y-15983146D01*
X14491643Y-15968860D01*
X14434500Y-15968860D01*
X14405928Y-15983146D01*
X14391643Y-15997431D01*
X14377357Y-16026003D01*
X14905928Y-16154574D02*
X14905928Y-15854574D01*
X15034500Y-16154574D02*
X15034500Y-15997431D01*
X15020214Y-15968860D01*
X14991643Y-15954574D01*
X14948786Y-15954574D01*
X14920214Y-15968860D01*
X14905928Y-15983146D01*
X15220214Y-16154574D02*
X15191643Y-16140289D01*
X15177357Y-16126003D01*
X15163071Y-16097431D01*
X15163071Y-16011717D01*
X15177357Y-15983146D01*
X15191643Y-15968860D01*
X15220214Y-15954574D01*
X15263071Y-15954574D01*
X15291643Y-15968860D01*
X15305928Y-15983146D01*
X15320214Y-16011717D01*
X15320214Y-16097431D01*
X15305928Y-16126003D01*
X15291643Y-16140289D01*
X15263071Y-16154574D01*
X15220214Y-16154574D01*
X15491643Y-16154574D02*
X15463071Y-16140289D01*
X15448786Y-16111717D01*
X15448786Y-15854574D01*
X15720214Y-16140289D02*
X15691643Y-16154574D01*
X15634500Y-16154574D01*
X15605928Y-16140289D01*
X15591643Y-16111717D01*
X15591643Y-15997431D01*
X15605928Y-15968860D01*
X15634500Y-15954574D01*
X15691643Y-15954574D01*
X15720214Y-15968860D01*
X15734500Y-15997431D01*
X15734500Y-16026003D01*
X15591643Y-16054574D01*
X15848786Y-16140289D02*
X15877357Y-16154574D01*
X15934500Y-16154574D01*
X15963071Y-16140289D01*
X15977357Y-16111717D01*
X15977357Y-16097431D01*
X15963071Y-16068860D01*
X15934500Y-16054574D01*
X15891643Y-16054574D01*
X15863071Y-16040289D01*
X15848786Y-16011717D01*
X15848786Y-15997431D01*
X15863071Y-15968860D01*
X15891643Y-15954574D01*
X15934500Y-15954574D01*
X15963071Y-15968860D01*
X16077357Y-16268860D02*
X16091643Y-16254574D01*
X16120214Y-16211717D01*
X16134500Y-16183146D01*
X16148786Y-16140289D01*
X16163071Y-16068860D01*
X16163071Y-16011717D01*
X16148786Y-15940289D01*
X16134500Y-15897431D01*
X16120214Y-15868860D01*
X16091643Y-15826003D01*
X16077357Y-15811717D01*
M02*
